<?xml version="1.0" encoding="utf-8" standalone="no"?>
<!DOCTYPE svg PUBLIC "-//W3C//DTD SVG 1.1//EN"
  "http://www.w3.org/Graphics/SVG/1.1/DTD/svg11.dtd">
<!-- Created with matplotlib (https://matplotlib.org/) -->
<svg height="288pt" version="1.1" viewBox="0 0 432 288" width="432pt" xmlns="http://www.w3.org/2000/svg" xmlns:xlink="http://www.w3.org/1999/xlink">
 <defs>
  <style type="text/css">
*{stroke-linecap:butt;stroke-linejoin:round;}
  </style>
 </defs>
 <g id="figure_1">
  <g id="patch_1">
   <path d="M 0 288 
L 432 288 
L 432 0 
L 0 0 
z
" style="fill:#ffffff;"/>
  </g>
  <g id="axes_1">
   <g id="patch_2">
    <path d="M 54 252 
L 388.8 252 
L 388.8 34.56 
L 54 34.56 
z
" style="fill:#eaeaf2;"/>
   </g>
   <g id="matplotlib.axis_1">
    <g id="xtick_1">
     <g id="line2d_1">
      <path clip-path="url(#p9bef9fb273)" d="M 69.218182 252 
L 69.218182 34.56 
" style="fill:none;stroke:#ffffff;stroke-linecap:round;"/>
     </g>
     <g id="text_1">
      <!-- 0 -->
      <defs>
       <path d="M 31.78125 66.40625 
Q 24.171875 66.40625 20.328125 58.90625 
Q 16.5 51.421875 16.5 36.375 
Q 16.5 21.390625 20.328125 13.890625 
Q 24.171875 6.390625 31.78125 6.390625 
Q 39.453125 6.390625 43.28125 13.890625 
Q 47.125 21.390625 47.125 36.375 
Q 47.125 51.421875 43.28125 58.90625 
Q 39.453125 66.40625 31.78125 66.40625 
z
M 31.78125 74.21875 
Q 44.046875 74.21875 50.515625 64.515625 
Q 56.984375 54.828125 56.984375 36.375 
Q 56.984375 17.96875 50.515625 8.265625 
Q 44.046875 -1.421875 31.78125 -1.421875 
Q 19.53125 -1.421875 13.0625 8.265625 
Q 6.59375 17.96875 6.59375 36.375 
Q 6.59375 54.828125 13.0625 64.515625 
Q 19.53125 74.21875 31.78125 74.21875 
z
" id="DejaVuSans-48"/>
      </defs>
      <g style="fill:#262626;" transform="translate(65.718807 269.858281)scale(0.11 -0.11)">
       <use xlink:href="#DejaVuSans-48"/>
      </g>
     </g>
    </g>
    <g id="xtick_2">
     <g id="line2d_2">
      <path clip-path="url(#p9bef9fb273)" d="M 119.776925 252 
L 119.776925 34.56 
" style="fill:none;stroke:#ffffff;stroke-linecap:round;"/>
     </g>
     <g id="text_2">
      <!-- 50 -->
      <defs>
       <path d="M 10.796875 72.90625 
L 49.515625 72.90625 
L 49.515625 64.59375 
L 19.828125 64.59375 
L 19.828125 46.734375 
Q 21.96875 47.46875 24.109375 47.828125 
Q 26.265625 48.1875 28.421875 48.1875 
Q 40.625 48.1875 47.75 41.5 
Q 54.890625 34.8125 54.890625 23.390625 
Q 54.890625 11.625 47.5625 5.09375 
Q 40.234375 -1.421875 26.90625 -1.421875 
Q 22.3125 -1.421875 17.546875 -0.640625 
Q 12.796875 0.140625 7.71875 1.703125 
L 7.71875 11.625 
Q 12.109375 9.234375 16.796875 8.0625 
Q 21.484375 6.890625 26.703125 6.890625 
Q 35.15625 6.890625 40.078125 11.328125 
Q 45.015625 15.765625 45.015625 23.390625 
Q 45.015625 31 40.078125 35.4375 
Q 35.15625 39.890625 26.703125 39.890625 
Q 22.75 39.890625 18.8125 39.015625 
Q 14.890625 38.140625 10.796875 36.28125 
z
" id="DejaVuSans-53"/>
      </defs>
      <g style="fill:#262626;" transform="translate(112.778175 269.858281)scale(0.11 -0.11)">
       <use xlink:href="#DejaVuSans-53"/>
       <use x="63.623047" xlink:href="#DejaVuSans-48"/>
      </g>
     </g>
    </g>
    <g id="xtick_3">
     <g id="line2d_3">
      <path clip-path="url(#p9bef9fb273)" d="M 170.335669 252 
L 170.335669 34.56 
" style="fill:none;stroke:#ffffff;stroke-linecap:round;"/>
     </g>
     <g id="text_3">
      <!-- 100 -->
      <defs>
       <path d="M 12.40625 8.296875 
L 28.515625 8.296875 
L 28.515625 63.921875 
L 10.984375 60.40625 
L 10.984375 69.390625 
L 28.421875 72.90625 
L 38.28125 72.90625 
L 38.28125 8.296875 
L 54.390625 8.296875 
L 54.390625 0 
L 12.40625 0 
z
" id="DejaVuSans-49"/>
      </defs>
      <g style="fill:#262626;" transform="translate(159.837544 269.858281)scale(0.11 -0.11)">
       <use xlink:href="#DejaVuSans-49"/>
       <use x="63.623047" xlink:href="#DejaVuSans-48"/>
       <use x="127.246094" xlink:href="#DejaVuSans-48"/>
      </g>
     </g>
    </g>
    <g id="xtick_4">
     <g id="line2d_4">
      <path clip-path="url(#p9bef9fb273)" d="M 220.894413 252 
L 220.894413 34.56 
" style="fill:none;stroke:#ffffff;stroke-linecap:round;"/>
     </g>
     <g id="text_4">
      <!-- 150 -->
      <g style="fill:#262626;" transform="translate(210.396288 269.858281)scale(0.11 -0.11)">
       <use xlink:href="#DejaVuSans-49"/>
       <use x="63.623047" xlink:href="#DejaVuSans-53"/>
       <use x="127.246094" xlink:href="#DejaVuSans-48"/>
      </g>
     </g>
    </g>
    <g id="xtick_5">
     <g id="line2d_5">
      <path clip-path="url(#p9bef9fb273)" d="M 271.453156 252 
L 271.453156 34.56 
" style="fill:none;stroke:#ffffff;stroke-linecap:round;"/>
     </g>
     <g id="text_5">
      <!-- 200 -->
      <defs>
       <path d="M 19.1875 8.296875 
L 53.609375 8.296875 
L 53.609375 0 
L 7.328125 0 
L 7.328125 8.296875 
Q 12.9375 14.109375 22.625 23.890625 
Q 32.328125 33.6875 34.8125 36.53125 
Q 39.546875 41.84375 41.421875 45.53125 
Q 43.3125 49.21875 43.3125 52.78125 
Q 43.3125 58.59375 39.234375 62.25 
Q 35.15625 65.921875 28.609375 65.921875 
Q 23.96875 65.921875 18.8125 64.3125 
Q 13.671875 62.703125 7.8125 59.421875 
L 7.8125 69.390625 
Q 13.765625 71.78125 18.9375 73 
Q 24.125 74.21875 28.421875 74.21875 
Q 39.75 74.21875 46.484375 68.546875 
Q 53.21875 62.890625 53.21875 53.421875 
Q 53.21875 48.921875 51.53125 44.890625 
Q 49.859375 40.875 45.40625 35.40625 
Q 44.1875 33.984375 37.640625 27.21875 
Q 31.109375 20.453125 19.1875 8.296875 
z
" id="DejaVuSans-50"/>
      </defs>
      <g style="fill:#262626;" transform="translate(260.955031 269.858281)scale(0.11 -0.11)">
       <use xlink:href="#DejaVuSans-50"/>
       <use x="63.623047" xlink:href="#DejaVuSans-48"/>
       <use x="127.246094" xlink:href="#DejaVuSans-48"/>
      </g>
     </g>
    </g>
    <g id="xtick_6">
     <g id="line2d_6">
      <path clip-path="url(#p9bef9fb273)" d="M 322.0119 252 
L 322.0119 34.56 
" style="fill:none;stroke:#ffffff;stroke-linecap:round;"/>
     </g>
     <g id="text_6">
      <!-- 250 -->
      <g style="fill:#262626;" transform="translate(311.513775 269.858281)scale(0.11 -0.11)">
       <use xlink:href="#DejaVuSans-50"/>
       <use x="63.623047" xlink:href="#DejaVuSans-53"/>
       <use x="127.246094" xlink:href="#DejaVuSans-48"/>
      </g>
     </g>
    </g>
    <g id="xtick_7">
     <g id="line2d_7">
      <path clip-path="url(#p9bef9fb273)" d="M 372.570643 252 
L 372.570643 34.56 
" style="fill:none;stroke:#ffffff;stroke-linecap:round;"/>
     </g>
     <g id="text_7">
      <!-- 300 -->
      <defs>
       <path d="M 40.578125 39.3125 
Q 47.65625 37.796875 51.625 33 
Q 55.609375 28.21875 55.609375 21.1875 
Q 55.609375 10.40625 48.1875 4.484375 
Q 40.765625 -1.421875 27.09375 -1.421875 
Q 22.515625 -1.421875 17.65625 -0.515625 
Q 12.796875 0.390625 7.625 2.203125 
L 7.625 11.71875 
Q 11.71875 9.328125 16.59375 8.109375 
Q 21.484375 6.890625 26.8125 6.890625 
Q 36.078125 6.890625 40.9375 10.546875 
Q 45.796875 14.203125 45.796875 21.1875 
Q 45.796875 27.640625 41.28125 31.265625 
Q 36.765625 34.90625 28.71875 34.90625 
L 20.21875 34.90625 
L 20.21875 43.015625 
L 29.109375 43.015625 
Q 36.375 43.015625 40.234375 45.921875 
Q 44.09375 48.828125 44.09375 54.296875 
Q 44.09375 59.90625 40.109375 62.90625 
Q 36.140625 65.921875 28.71875 65.921875 
Q 24.65625 65.921875 20.015625 65.03125 
Q 15.375 64.15625 9.8125 62.3125 
L 9.8125 71.09375 
Q 15.4375 72.65625 20.34375 73.4375 
Q 25.25 74.21875 29.59375 74.21875 
Q 40.828125 74.21875 47.359375 69.109375 
Q 53.90625 64.015625 53.90625 55.328125 
Q 53.90625 49.265625 50.4375 45.09375 
Q 46.96875 40.921875 40.578125 39.3125 
z
" id="DejaVuSans-51"/>
      </defs>
      <g style="fill:#262626;" transform="translate(362.072518 269.858281)scale(0.11 -0.11)">
       <use xlink:href="#DejaVuSans-51"/>
       <use x="63.623047" xlink:href="#DejaVuSans-48"/>
       <use x="127.246094" xlink:href="#DejaVuSans-48"/>
      </g>
     </g>
    </g>
    <g id="text_8">
     <!-- Epoch -->
     <defs>
      <path d="M 9.8125 72.90625 
L 55.90625 72.90625 
L 55.90625 64.59375 
L 19.671875 64.59375 
L 19.671875 43.015625 
L 54.390625 43.015625 
L 54.390625 34.71875 
L 19.671875 34.71875 
L 19.671875 8.296875 
L 56.78125 8.296875 
L 56.78125 0 
L 9.8125 0 
z
" id="DejaVuSans-69"/>
      <path d="M 18.109375 8.203125 
L 18.109375 -20.796875 
L 9.078125 -20.796875 
L 9.078125 54.6875 
L 18.109375 54.6875 
L 18.109375 46.390625 
Q 20.953125 51.265625 25.265625 53.625 
Q 29.59375 56 35.59375 56 
Q 45.5625 56 51.78125 48.09375 
Q 58.015625 40.1875 58.015625 27.296875 
Q 58.015625 14.40625 51.78125 6.484375 
Q 45.5625 -1.421875 35.59375 -1.421875 
Q 29.59375 -1.421875 25.265625 0.953125 
Q 20.953125 3.328125 18.109375 8.203125 
z
M 48.6875 27.296875 
Q 48.6875 37.203125 44.609375 42.84375 
Q 40.53125 48.484375 33.40625 48.484375 
Q 26.265625 48.484375 22.1875 42.84375 
Q 18.109375 37.203125 18.109375 27.296875 
Q 18.109375 17.390625 22.1875 11.75 
Q 26.265625 6.109375 33.40625 6.109375 
Q 40.53125 6.109375 44.609375 11.75 
Q 48.6875 17.390625 48.6875 27.296875 
z
" id="DejaVuSans-112"/>
      <path d="M 30.609375 48.390625 
Q 23.390625 48.390625 19.1875 42.75 
Q 14.984375 37.109375 14.984375 27.296875 
Q 14.984375 17.484375 19.15625 11.84375 
Q 23.34375 6.203125 30.609375 6.203125 
Q 37.796875 6.203125 41.984375 11.859375 
Q 46.1875 17.53125 46.1875 27.296875 
Q 46.1875 37.015625 41.984375 42.703125 
Q 37.796875 48.390625 30.609375 48.390625 
z
M 30.609375 56 
Q 42.328125 56 49.015625 48.375 
Q 55.71875 40.765625 55.71875 27.296875 
Q 55.71875 13.875 49.015625 6.21875 
Q 42.328125 -1.421875 30.609375 -1.421875 
Q 18.84375 -1.421875 12.171875 6.21875 
Q 5.515625 13.875 5.515625 27.296875 
Q 5.515625 40.765625 12.171875 48.375 
Q 18.84375 56 30.609375 56 
z
" id="DejaVuSans-111"/>
      <path d="M 48.78125 52.59375 
L 48.78125 44.1875 
Q 44.96875 46.296875 41.140625 47.34375 
Q 37.3125 48.390625 33.40625 48.390625 
Q 24.65625 48.390625 19.8125 42.84375 
Q 14.984375 37.3125 14.984375 27.296875 
Q 14.984375 17.28125 19.8125 11.734375 
Q 24.65625 6.203125 33.40625 6.203125 
Q 37.3125 6.203125 41.140625 7.25 
Q 44.96875 8.296875 48.78125 10.40625 
L 48.78125 2.09375 
Q 45.015625 0.34375 40.984375 -0.53125 
Q 36.96875 -1.421875 32.421875 -1.421875 
Q 20.0625 -1.421875 12.78125 6.34375 
Q 5.515625 14.109375 5.515625 27.296875 
Q 5.515625 40.671875 12.859375 48.328125 
Q 20.21875 56 33.015625 56 
Q 37.15625 56 41.109375 55.140625 
Q 45.0625 54.296875 48.78125 52.59375 
z
" id="DejaVuSans-99"/>
      <path d="M 54.890625 33.015625 
L 54.890625 0 
L 45.90625 0 
L 45.90625 32.71875 
Q 45.90625 40.484375 42.875 44.328125 
Q 39.84375 48.1875 33.796875 48.1875 
Q 26.515625 48.1875 22.3125 43.546875 
Q 18.109375 38.921875 18.109375 30.90625 
L 18.109375 0 
L 9.078125 0 
L 9.078125 75.984375 
L 18.109375 75.984375 
L 18.109375 46.1875 
Q 21.34375 51.125 25.703125 53.5625 
Q 30.078125 56 35.796875 56 
Q 45.21875 56 50.046875 50.171875 
Q 54.890625 44.34375 54.890625 33.015625 
z
" id="DejaVuSans-104"/>
     </defs>
     <g style="fill:#262626;" transform="translate(203.026875 285.264063)scale(0.12 -0.12)">
      <use xlink:href="#DejaVuSans-69"/>
      <use x="63.183594" xlink:href="#DejaVuSans-112"/>
      <use x="126.660156" xlink:href="#DejaVuSans-111"/>
      <use x="187.841797" xlink:href="#DejaVuSans-99"/>
      <use x="242.822266" xlink:href="#DejaVuSans-104"/>
     </g>
    </g>
   </g>
   <g id="matplotlib.axis_2">
    <g id="ytick_1">
     <g id="line2d_8">
      <path clip-path="url(#p9bef9fb273)" d="M 54 236.625455 
L 388.8 236.625455 
" style="fill:none;stroke:#ffffff;stroke-linecap:round;"/>
     </g>
     <g id="text_9">
      <!-- 0.5 -->
      <defs>
       <path d="M 10.6875 12.40625 
L 21 12.40625 
L 21 0 
L 10.6875 0 
z
" id="DejaVuSans-46"/>
      </defs>
      <g style="fill:#262626;" transform="translate(27.006563 240.804595)scale(0.11 -0.11)">
       <use xlink:href="#DejaVuSans-48"/>
       <use x="63.623047" xlink:href="#DejaVuSans-46"/>
       <use x="95.410156" xlink:href="#DejaVuSans-53"/>
      </g>
     </g>
    </g>
    <g id="ytick_2">
     <g id="line2d_9">
      <path clip-path="url(#p9bef9fb273)" d="M 54 198.189091 
L 388.8 198.189091 
" style="fill:none;stroke:#ffffff;stroke-linecap:round;"/>
     </g>
     <g id="text_10">
      <!-- 0.6 -->
      <defs>
       <path d="M 33.015625 40.375 
Q 26.375 40.375 22.484375 35.828125 
Q 18.609375 31.296875 18.609375 23.390625 
Q 18.609375 15.53125 22.484375 10.953125 
Q 26.375 6.390625 33.015625 6.390625 
Q 39.65625 6.390625 43.53125 10.953125 
Q 47.40625 15.53125 47.40625 23.390625 
Q 47.40625 31.296875 43.53125 35.828125 
Q 39.65625 40.375 33.015625 40.375 
z
M 52.59375 71.296875 
L 52.59375 62.3125 
Q 48.875 64.0625 45.09375 64.984375 
Q 41.3125 65.921875 37.59375 65.921875 
Q 27.828125 65.921875 22.671875 59.328125 
Q 17.53125 52.734375 16.796875 39.40625 
Q 19.671875 43.65625 24.015625 45.921875 
Q 28.375 48.1875 33.59375 48.1875 
Q 44.578125 48.1875 50.953125 41.515625 
Q 57.328125 34.859375 57.328125 23.390625 
Q 57.328125 12.15625 50.6875 5.359375 
Q 44.046875 -1.421875 33.015625 -1.421875 
Q 20.359375 -1.421875 13.671875 8.265625 
Q 6.984375 17.96875 6.984375 36.375 
Q 6.984375 53.65625 15.1875 63.9375 
Q 23.390625 74.21875 37.203125 74.21875 
Q 40.921875 74.21875 44.703125 73.484375 
Q 48.484375 72.75 52.59375 71.296875 
z
" id="DejaVuSans-54"/>
      </defs>
      <g style="fill:#262626;" transform="translate(27.006563 202.368232)scale(0.11 -0.11)">
       <use xlink:href="#DejaVuSans-48"/>
       <use x="63.623047" xlink:href="#DejaVuSans-46"/>
       <use x="95.410156" xlink:href="#DejaVuSans-54"/>
      </g>
     </g>
    </g>
    <g id="ytick_3">
     <g id="line2d_10">
      <path clip-path="url(#p9bef9fb273)" d="M 54 159.752727 
L 388.8 159.752727 
" style="fill:none;stroke:#ffffff;stroke-linecap:round;"/>
     </g>
     <g id="text_11">
      <!-- 0.7 -->
      <defs>
       <path d="M 8.203125 72.90625 
L 55.078125 72.90625 
L 55.078125 68.703125 
L 28.609375 0 
L 18.3125 0 
L 43.21875 64.59375 
L 8.203125 64.59375 
z
" id="DejaVuSans-55"/>
      </defs>
      <g style="fill:#262626;" transform="translate(27.006563 163.931868)scale(0.11 -0.11)">
       <use xlink:href="#DejaVuSans-48"/>
       <use x="63.623047" xlink:href="#DejaVuSans-46"/>
       <use x="95.410156" xlink:href="#DejaVuSans-55"/>
      </g>
     </g>
    </g>
    <g id="ytick_4">
     <g id="line2d_11">
      <path clip-path="url(#p9bef9fb273)" d="M 54 121.316364 
L 388.8 121.316364 
" style="fill:none;stroke:#ffffff;stroke-linecap:round;"/>
     </g>
     <g id="text_12">
      <!-- 0.8 -->
      <defs>
       <path d="M 31.78125 34.625 
Q 24.75 34.625 20.71875 30.859375 
Q 16.703125 27.09375 16.703125 20.515625 
Q 16.703125 13.921875 20.71875 10.15625 
Q 24.75 6.390625 31.78125 6.390625 
Q 38.8125 6.390625 42.859375 10.171875 
Q 46.921875 13.96875 46.921875 20.515625 
Q 46.921875 27.09375 42.890625 30.859375 
Q 38.875 34.625 31.78125 34.625 
z
M 21.921875 38.8125 
Q 15.578125 40.375 12.03125 44.71875 
Q 8.5 49.078125 8.5 55.328125 
Q 8.5 64.0625 14.71875 69.140625 
Q 20.953125 74.21875 31.78125 74.21875 
Q 42.671875 74.21875 48.875 69.140625 
Q 55.078125 64.0625 55.078125 55.328125 
Q 55.078125 49.078125 51.53125 44.71875 
Q 48 40.375 41.703125 38.8125 
Q 48.828125 37.15625 52.796875 32.3125 
Q 56.78125 27.484375 56.78125 20.515625 
Q 56.78125 9.90625 50.3125 4.234375 
Q 43.84375 -1.421875 31.78125 -1.421875 
Q 19.734375 -1.421875 13.25 4.234375 
Q 6.78125 9.90625 6.78125 20.515625 
Q 6.78125 27.484375 10.78125 32.3125 
Q 14.796875 37.15625 21.921875 38.8125 
z
M 18.3125 54.390625 
Q 18.3125 48.734375 21.84375 45.5625 
Q 25.390625 42.390625 31.78125 42.390625 
Q 38.140625 42.390625 41.71875 45.5625 
Q 45.3125 48.734375 45.3125 54.390625 
Q 45.3125 60.0625 41.71875 63.234375 
Q 38.140625 66.40625 31.78125 66.40625 
Q 25.390625 66.40625 21.84375 63.234375 
Q 18.3125 60.0625 18.3125 54.390625 
z
" id="DejaVuSans-56"/>
      </defs>
      <g style="fill:#262626;" transform="translate(27.006563 125.495504)scale(0.11 -0.11)">
       <use xlink:href="#DejaVuSans-48"/>
       <use x="63.623047" xlink:href="#DejaVuSans-46"/>
       <use x="95.410156" xlink:href="#DejaVuSans-56"/>
      </g>
     </g>
    </g>
    <g id="ytick_5">
     <g id="line2d_12">
      <path clip-path="url(#p9bef9fb273)" d="M 54 82.88 
L 388.8 82.88 
" style="fill:none;stroke:#ffffff;stroke-linecap:round;"/>
     </g>
     <g id="text_13">
      <!-- 0.9 -->
      <defs>
       <path d="M 10.984375 1.515625 
L 10.984375 10.5 
Q 14.703125 8.734375 18.5 7.8125 
Q 22.3125 6.890625 25.984375 6.890625 
Q 35.75 6.890625 40.890625 13.453125 
Q 46.046875 20.015625 46.78125 33.40625 
Q 43.953125 29.203125 39.59375 26.953125 
Q 35.25 24.703125 29.984375 24.703125 
Q 19.046875 24.703125 12.671875 31.3125 
Q 6.296875 37.9375 6.296875 49.421875 
Q 6.296875 60.640625 12.9375 67.421875 
Q 19.578125 74.21875 30.609375 74.21875 
Q 43.265625 74.21875 49.921875 64.515625 
Q 56.59375 54.828125 56.59375 36.375 
Q 56.59375 19.140625 48.40625 8.859375 
Q 40.234375 -1.421875 26.421875 -1.421875 
Q 22.703125 -1.421875 18.890625 -0.6875 
Q 15.09375 0.046875 10.984375 1.515625 
z
M 30.609375 32.421875 
Q 37.25 32.421875 41.125 36.953125 
Q 45.015625 41.5 45.015625 49.421875 
Q 45.015625 57.28125 41.125 61.84375 
Q 37.25 66.40625 30.609375 66.40625 
Q 23.96875 66.40625 20.09375 61.84375 
Q 16.21875 57.28125 16.21875 49.421875 
Q 16.21875 41.5 20.09375 36.953125 
Q 23.96875 32.421875 30.609375 32.421875 
z
" id="DejaVuSans-57"/>
      </defs>
      <g style="fill:#262626;" transform="translate(27.006563 87.059141)scale(0.11 -0.11)">
       <use xlink:href="#DejaVuSans-48"/>
       <use x="63.623047" xlink:href="#DejaVuSans-46"/>
       <use x="95.410156" xlink:href="#DejaVuSans-57"/>
      </g>
     </g>
    </g>
    <g id="ytick_6">
     <g id="line2d_13">
      <path clip-path="url(#p9bef9fb273)" d="M 54 44.443636 
L 388.8 44.443636 
" style="fill:none;stroke:#ffffff;stroke-linecap:round;"/>
     </g>
     <g id="text_14">
      <!-- 1.0 -->
      <g style="fill:#262626;" transform="translate(27.006563 48.622777)scale(0.11 -0.11)">
       <use xlink:href="#DejaVuSans-49"/>
       <use x="63.623047" xlink:href="#DejaVuSans-46"/>
       <use x="95.410156" xlink:href="#DejaVuSans-48"/>
      </g>
     </g>
    </g>
    <g id="text_15">
     <!-- Accuracy -->
     <defs>
      <path d="M 34.1875 63.1875 
L 20.796875 26.90625 
L 47.609375 26.90625 
z
M 28.609375 72.90625 
L 39.796875 72.90625 
L 67.578125 0 
L 57.328125 0 
L 50.6875 18.703125 
L 17.828125 18.703125 
L 11.1875 0 
L 0.78125 0 
z
" id="DejaVuSans-65"/>
      <path d="M 8.5 21.578125 
L 8.5 54.6875 
L 17.484375 54.6875 
L 17.484375 21.921875 
Q 17.484375 14.15625 20.5 10.265625 
Q 23.53125 6.390625 29.59375 6.390625 
Q 36.859375 6.390625 41.078125 11.03125 
Q 45.3125 15.671875 45.3125 23.6875 
L 45.3125 54.6875 
L 54.296875 54.6875 
L 54.296875 0 
L 45.3125 0 
L 45.3125 8.40625 
Q 42.046875 3.421875 37.71875 1 
Q 33.40625 -1.421875 27.6875 -1.421875 
Q 18.265625 -1.421875 13.375 4.4375 
Q 8.5 10.296875 8.5 21.578125 
z
M 31.109375 56 
z
" id="DejaVuSans-117"/>
      <path d="M 41.109375 46.296875 
Q 39.59375 47.171875 37.8125 47.578125 
Q 36.03125 48 33.890625 48 
Q 26.265625 48 22.1875 43.046875 
Q 18.109375 38.09375 18.109375 28.8125 
L 18.109375 0 
L 9.078125 0 
L 9.078125 54.6875 
L 18.109375 54.6875 
L 18.109375 46.1875 
Q 20.953125 51.171875 25.484375 53.578125 
Q 30.03125 56 36.53125 56 
Q 37.453125 56 38.578125 55.875 
Q 39.703125 55.765625 41.0625 55.515625 
z
" id="DejaVuSans-114"/>
      <path d="M 34.28125 27.484375 
Q 23.390625 27.484375 19.1875 25 
Q 14.984375 22.515625 14.984375 16.5 
Q 14.984375 11.71875 18.140625 8.90625 
Q 21.296875 6.109375 26.703125 6.109375 
Q 34.1875 6.109375 38.703125 11.40625 
Q 43.21875 16.703125 43.21875 25.484375 
L 43.21875 27.484375 
z
M 52.203125 31.203125 
L 52.203125 0 
L 43.21875 0 
L 43.21875 8.296875 
Q 40.140625 3.328125 35.546875 0.953125 
Q 30.953125 -1.421875 24.3125 -1.421875 
Q 15.921875 -1.421875 10.953125 3.296875 
Q 6 8.015625 6 15.921875 
Q 6 25.140625 12.171875 29.828125 
Q 18.359375 34.515625 30.609375 34.515625 
L 43.21875 34.515625 
L 43.21875 35.40625 
Q 43.21875 41.609375 39.140625 45 
Q 35.0625 48.390625 27.6875 48.390625 
Q 23 48.390625 18.546875 47.265625 
Q 14.109375 46.140625 10.015625 43.890625 
L 10.015625 52.203125 
Q 14.9375 54.109375 19.578125 55.046875 
Q 24.21875 56 28.609375 56 
Q 40.484375 56 46.34375 49.84375 
Q 52.203125 43.703125 52.203125 31.203125 
z
" id="DejaVuSans-97"/>
      <path d="M 32.171875 -5.078125 
Q 28.375 -14.84375 24.75 -17.8125 
Q 21.140625 -20.796875 15.09375 -20.796875 
L 7.90625 -20.796875 
L 7.90625 -13.28125 
L 13.1875 -13.28125 
Q 16.890625 -13.28125 18.9375 -11.515625 
Q 21 -9.765625 23.484375 -3.21875 
L 25.09375 0.875 
L 2.984375 54.6875 
L 12.5 54.6875 
L 29.59375 11.921875 
L 46.6875 54.6875 
L 56.203125 54.6875 
z
" id="DejaVuSans-121"/>
     </defs>
     <g style="fill:#262626;" transform="translate(20.510937 170.67375)rotate(-90)scale(0.12 -0.12)">
      <use xlink:href="#DejaVuSans-65"/>
      <use x="66.658203" xlink:href="#DejaVuSans-99"/>
      <use x="121.638672" xlink:href="#DejaVuSans-99"/>
      <use x="176.619141" xlink:href="#DejaVuSans-117"/>
      <use x="239.998047" xlink:href="#DejaVuSans-114"/>
      <use x="281.111328" xlink:href="#DejaVuSans-97"/>
      <use x="342.390625" xlink:href="#DejaVuSans-99"/>
      <use x="397.371094" xlink:href="#DejaVuSans-121"/>
     </g>
    </g>
   </g>
   <g id="line2d_14">
    <path clip-path="url(#p9bef9fb273)" d="M 69.218182 242.116364 
L 70.229357 195.992737 
L 71.240532 180.618183 
L 73.262881 136.690913 
L 75.285231 132.298177 
L 76.296406 145.476362 
L 77.307581 163.047284 
L 78.318756 149.869099 
L 79.329931 145.476362 
L 80.341105 185.010919 
L 81.35228 174.029102 
L 82.363455 174.029102 
L 83.37463 165.243629 
L 84.385805 167.439997 
L 85.39698 176.225447 
L 86.408155 167.439997 
L 87.41933 147.67273 
L 88.430504 163.047284 
L 89.441679 143.279994 
L 90.452854 152.065444 
L 91.464029 141.083626 
L 92.475204 149.869099 
L 93.486379 134.494545 
L 94.497554 143.279994 
L 95.508728 127.905463 
L 96.519903 123.512727 
L 97.531078 130.101809 
L 98.542253 134.494545 
L 99.553428 121.316359 
L 101.575778 108.138174 
L 102.586953 108.138174 
L 103.598127 130.101809 
L 104.609302 121.316359 
L 105.620477 108.138174 
L 106.631652 86.174538 
L 107.642827 92.763643 
L 108.654002 110.334542 
L 109.665177 101.549092 
L 110.676352 103.74546 
L 111.687526 103.74546 
L 112.698701 75.192721 
L 113.709876 94.960011 
L 114.721051 105.941828 
L 115.732226 94.960011 
L 116.743401 97.156356 
L 117.754576 101.549092 
L 118.765751 86.174538 
L 119.776925 99.352724 
L 120.7881 105.941828 
L 121.799275 86.174538 
L 122.81045 81.781825 
L 123.821625 68.60364 
L 124.8328 92.763643 
L 125.843975 72.996353 
L 126.85515 70.800008 
L 127.866324 83.978193 
L 128.877499 81.781825 
L 129.888674 66.407271 
L 130.899849 81.781825 
L 131.911024 83.978193 
L 132.922199 68.60364 
L 134.944548 72.996353 
L 135.955723 72.996353 
L 136.966898 77.389089 
L 137.978073 79.585457 
L 138.989248 75.192721 
L 140.000423 66.407271 
L 142.022773 70.800008 
L 144.045122 66.407271 
L 145.056297 62.014535 
L 146.067472 68.60364 
L 147.078647 68.60364 
L 148.089822 79.585457 
L 149.100997 62.014535 
L 150.112172 59.81819 
L 151.123346 66.407271 
L 152.134521 70.800008 
L 153.145696 64.210903 
L 154.156871 55.425454 
L 155.168046 62.014535 
L 156.179221 72.996353 
L 157.190396 77.389089 
L 158.201571 70.800008 
L 159.212745 75.192721 
L 160.22392 77.389089 
L 161.235095 57.621822 
L 162.24627 70.800008 
L 163.257445 57.621822 
L 164.26862 72.996353 
L 165.279795 59.81819 
L 166.290969 53.229086 
L 167.302144 62.014535 
L 168.313319 48.836373 
L 169.324494 48.836373 
L 170.335669 53.229086 
L 171.346844 53.229086 
L 172.358019 64.210903 
L 173.369194 53.229086 
L 175.391543 62.014535 
L 176.402718 57.621822 
L 177.413893 57.621822 
L 178.425068 64.210903 
L 179.436243 57.621822 
L 180.447418 55.425454 
L 181.458593 66.407271 
L 182.469767 62.014535 
L 183.480942 48.836373 
L 184.492117 75.192721 
L 185.503292 53.229086 
L 186.514467 59.81819 
L 188.536817 51.032718 
L 189.547992 51.032718 
L 190.559166 64.210903 
L 193.592691 57.621822 
L 194.603866 68.60364 
L 195.615041 46.640004 
L 197.637391 68.60364 
L 198.648565 55.425454 
L 199.65974 64.210903 
L 200.670915 51.032718 
L 201.68209 51.032718 
L 202.693265 57.621822 
L 203.70444 57.621822 
L 205.726789 62.014535 
L 206.737964 57.621822 
L 207.749139 57.621822 
L 208.760314 62.014535 
L 209.771489 70.800008 
L 210.782664 51.032718 
L 211.793839 55.425454 
L 212.805014 46.640004 
L 213.816188 55.425454 
L 214.827363 51.032718 
L 215.838538 62.014535 
L 217.860888 57.621822 
L 218.872063 68.60364 
L 219.883238 51.032718 
L 220.894413 64.210903 
L 221.905587 53.229086 
L 222.916762 66.407271 
L 223.927937 51.032718 
L 224.939112 53.229086 
L 225.950287 44.443636 
L 226.961462 59.81819 
L 228.983812 55.425454 
L 229.994986 64.210903 
L 231.006161 48.836373 
L 232.017336 51.032718 
L 233.028511 51.032718 
L 234.039686 62.014535 
L 235.050861 48.836373 
L 237.073211 48.836373 
L 238.084385 51.032718 
L 239.09556 46.640004 
L 240.106735 46.640004 
L 241.11791 59.81819 
L 242.129085 46.640004 
L 243.14026 66.407271 
L 244.151435 62.014535 
L 245.162609 51.032718 
L 246.173784 55.425454 
L 247.184959 55.425454 
L 248.196134 46.640004 
L 249.207309 46.640004 
L 250.218484 57.621822 
L 251.229659 57.621822 
L 252.240834 44.443636 
L 253.252008 55.425454 
L 254.263183 53.229086 
L 255.274358 57.621822 
L 256.285533 57.621822 
L 257.296708 59.81819 
L 258.307883 53.229086 
L 259.319058 53.229086 
L 260.330233 59.81819 
L 261.341407 70.800008 
L 262.352582 55.425454 
L 263.363757 53.229086 
L 264.374932 48.836373 
L 265.386107 57.621822 
L 266.397282 51.032718 
L 267.408457 59.81819 
L 268.419632 48.836373 
L 269.430806 46.640004 
L 270.441981 46.640004 
L 271.453156 48.836373 
L 272.464331 44.443636 
L 273.475506 46.640004 
L 274.486681 53.229086 
L 275.497856 51.032718 
L 276.509031 46.640004 
L 277.520205 51.032718 
L 278.53138 48.836373 
L 279.542555 62.014535 
L 280.55373 48.836373 
L 281.564905 51.032718 
L 282.57608 46.640004 
L 283.587255 48.836373 
L 284.598429 53.229086 
L 285.609604 46.640004 
L 286.620779 44.443636 
L 287.631954 55.425454 
L 288.643129 51.032718 
L 289.654304 59.81819 
L 290.665479 48.836373 
L 291.676654 51.032718 
L 292.687828 46.640004 
L 293.699003 51.032718 
L 294.710178 53.229086 
L 295.721353 48.836373 
L 296.732528 53.229086 
L 297.743703 53.229086 
L 298.754878 46.640004 
L 299.766053 46.640004 
L 300.777227 53.229086 
L 301.788402 48.836373 
L 302.799577 55.425454 
L 304.821927 46.640004 
L 305.833102 46.640004 
L 306.844277 44.443636 
L 307.855452 53.229086 
L 308.866626 51.032718 
L 309.877801 62.014535 
L 310.888976 44.443636 
L 311.900151 46.640004 
L 312.911326 55.425454 
L 313.922501 53.229086 
L 314.933676 48.836373 
L 315.94485 59.81819 
L 316.956025 44.443636 
L 317.9672 51.032718 
L 318.978375 53.229086 
L 319.98955 46.640004 
L 321.000725 62.014535 
L 322.0119 48.836373 
L 323.023075 51.032718 
L 324.034249 48.836373 
L 325.045424 62.014535 
L 326.056599 46.640004 
L 327.067774 46.640004 
L 328.078949 51.032718 
L 329.090124 51.032718 
L 330.101299 46.640004 
L 331.112474 51.032718 
L 332.123648 46.640004 
L 333.134823 55.425454 
L 334.145998 48.836373 
L 335.157173 44.443636 
L 336.168348 44.443636 
L 337.179523 46.640004 
L 338.190698 51.032718 
L 339.201873 44.443636 
L 340.213047 48.836373 
L 341.224222 44.443636 
L 342.235397 48.836373 
L 343.246572 46.640004 
L 344.257747 53.229086 
L 345.268922 44.443636 
L 346.280097 51.032718 
L 348.302446 59.81819 
L 349.313621 46.640004 
L 351.335971 46.640004 
L 352.347146 48.836373 
L 353.358321 44.443636 
L 354.369496 46.640004 
L 355.38067 53.229086 
L 356.391845 51.032718 
L 357.40302 46.640004 
L 358.414195 57.621822 
L 359.42537 53.229086 
L 360.436545 59.81819 
L 361.44772 48.836373 
L 362.458895 46.640004 
L 363.470069 48.836373 
L 366.503594 48.836373 
L 367.514769 55.425454 
L 368.525944 46.640004 
L 369.537119 51.032718 
L 370.548294 53.229086 
L 371.559468 53.229086 
L 372.570643 48.836373 
L 373.581818 46.640004 
L 373.581818 46.640004 
" style="fill:none;stroke:#4c72b0;stroke-linecap:round;stroke-width:1.5;"/>
   </g>
   <g id="line2d_15">
    <path clip-path="url(#p9bef9fb273)" d="M 69.218182 240.547531 
L 70.229357 240.547531 
L 71.240532 232.703379 
L 72.251706 240.547531 
L 73.262881 209.1709 
L 74.274056 240.547531 
L 75.285231 232.703379 
L 77.307581 232.703379 
L 78.318756 224.859227 
L 79.329931 232.703379 
L 116.743401 232.703379 
L 117.754576 224.859227 
L 118.765751 224.859227 
L 119.776925 232.703379 
L 120.7881 232.703379 
L 121.799275 224.859227 
L 122.81045 232.703379 
L 127.866324 232.703379 
L 128.877499 224.859227 
L 129.888674 224.859227 
L 130.899849 232.703379 
L 131.911024 224.859227 
L 132.922199 232.703379 
L 133.933374 232.703379 
L 134.944548 224.859227 
L 135.955723 224.859227 
L 136.966898 232.703379 
L 145.056297 232.703379 
L 146.067472 224.859227 
L 147.078647 232.703379 
L 150.112172 232.703379 
L 151.123346 224.859227 
L 152.134521 232.703379 
L 153.145696 232.703379 
L 154.156871 224.859227 
L 155.168046 232.703379 
L 156.179221 232.703379 
L 157.190396 217.015075 
L 158.201571 224.859227 
L 159.212745 224.859227 
L 160.22392 232.703379 
L 161.235095 224.859227 
L 163.257445 224.859227 
L 164.26862 232.703379 
L 165.279795 217.015075 
L 166.290969 232.703379 
L 167.302144 224.859227 
L 168.313319 232.703379 
L 170.335669 232.703379 
L 171.346844 217.015075 
L 174.380368 217.015075 
L 175.391543 201.326747 
L 176.402718 217.015075 
L 180.447418 217.015075 
L 181.458593 209.1709 
L 182.469767 217.015075 
L 183.480942 232.703379 
L 184.492117 193.482595 
L 185.503292 217.015075 
L 186.514467 209.1709 
L 187.525642 224.859227 
L 188.536817 224.859227 
L 189.547992 217.015075 
L 190.559166 217.015075 
L 191.570341 209.1709 
L 193.592691 209.1709 
L 194.603866 193.482595 
L 195.615041 209.1709 
L 196.626216 217.015075 
L 197.637391 217.015075 
L 198.648565 224.859227 
L 201.68209 224.859227 
L 202.693265 209.1709 
L 203.70444 209.1709 
L 204.715615 217.015075 
L 206.737964 201.326747 
L 207.749139 209.1709 
L 208.760314 209.1709 
L 209.771489 217.015075 
L 210.782664 217.015075 
L 211.793839 232.703379 
L 212.805014 224.859227 
L 213.816188 209.1709 
L 214.827363 217.015075 
L 215.838538 217.015075 
L 217.860888 201.326747 
L 218.872063 209.1709 
L 219.883238 209.1709 
L 220.894413 224.859227 
L 221.905587 217.015075 
L 222.916762 217.015075 
L 223.927937 224.859227 
L 224.939112 217.015075 
L 225.950287 201.326747 
L 226.961462 209.1709 
L 227.972637 185.638443 
L 229.994986 217.015075 
L 233.028511 217.015075 
L 234.039686 209.1709 
L 235.050861 232.703379 
L 236.062036 224.859227 
L 237.073211 232.703379 
L 238.084385 232.703379 
L 239.09556 224.859227 
L 240.106735 224.859227 
L 241.11791 217.015075 
L 242.129085 217.015075 
L 243.14026 224.859227 
L 245.162609 224.859227 
L 246.173784 201.326747 
L 247.184959 232.703379 
L 249.207309 232.703379 
L 250.218484 217.015075 
L 252.240834 217.015075 
L 253.252008 209.1709 
L 254.263183 185.638443 
L 255.274358 209.1709 
L 256.285533 217.015075 
L 257.296708 209.1709 
L 259.319058 224.859227 
L 261.341407 209.1709 
L 262.352582 209.1709 
L 263.363757 217.015075 
L 266.397282 217.015075 
L 267.408457 224.859227 
L 268.419632 217.015075 
L 270.441981 217.015075 
L 271.453156 224.859227 
L 272.464331 224.859227 
L 273.475506 232.703379 
L 274.486681 232.703379 
L 275.497856 209.1709 
L 277.520205 224.859227 
L 278.53138 224.859227 
L 279.542555 201.326747 
L 280.55373 224.859227 
L 281.564905 201.326747 
L 282.57608 217.015075 
L 283.587255 224.859227 
L 284.598429 193.482595 
L 286.620779 224.859227 
L 287.631954 209.1709 
L 288.643129 209.1709 
L 289.654304 193.482595 
L 290.665479 185.638443 
L 291.676654 201.326747 
L 292.687828 209.1709 
L 293.699003 193.482595 
L 294.710178 201.326747 
L 295.721353 201.326747 
L 296.732528 193.482595 
L 298.754878 224.859227 
L 299.766053 217.015075 
L 300.777227 224.859227 
L 301.788402 217.015075 
L 302.799577 224.859227 
L 303.810752 209.1709 
L 304.821927 224.859227 
L 305.833102 217.015075 
L 306.844277 224.859227 
L 307.855452 177.794291 
L 308.866626 209.1709 
L 309.877801 217.015075 
L 311.900151 217.015075 
L 312.911326 209.1709 
L 313.922501 185.638443 
L 315.94485 217.015075 
L 316.956025 201.326747 
L 317.9672 224.859227 
L 318.978375 201.326747 
L 319.98955 185.638443 
L 321.000725 193.482595 
L 322.0119 193.482595 
L 323.023075 217.015075 
L 324.034249 209.1709 
L 325.045424 217.015075 
L 326.056599 193.482595 
L 327.067774 209.1709 
L 328.078949 201.326747 
L 329.090124 209.1709 
L 330.101299 224.859227 
L 331.112474 201.326747 
L 332.123648 217.015075 
L 333.134823 201.326747 
L 335.157173 217.015075 
L 336.168348 217.015075 
L 337.179523 224.859227 
L 338.190698 209.1709 
L 339.201873 209.1709 
L 340.213047 217.015075 
L 342.235397 217.015075 
L 343.246572 224.859227 
L 344.257747 224.859227 
L 345.268922 201.326747 
L 346.280097 217.015075 
L 347.291272 224.859227 
L 348.302446 169.950139 
L 349.313621 201.326747 
L 350.324796 185.638443 
L 351.335971 209.1709 
L 352.347146 193.482595 
L 353.358321 224.859227 
L 354.369496 217.015075 
L 355.38067 217.015075 
L 356.391845 201.326747 
L 357.40302 201.326747 
L 358.414195 193.482595 
L 359.42537 201.326747 
L 360.436545 201.326747 
L 361.44772 177.794291 
L 362.458895 185.638443 
L 363.470069 209.1709 
L 364.481244 217.015075 
L 365.492419 177.794291 
L 366.503594 209.1709 
L 368.525944 177.794291 
L 369.537119 209.1709 
L 370.548294 193.482595 
L 371.559468 193.482595 
L 373.581818 177.794291 
L 373.581818 177.794291 
" style="fill:none;stroke:#dd8452;stroke-linecap:round;stroke-width:1.5;"/>
   </g>
   <g id="patch_3">
    <path d="M 54 252 
L 54 34.56 
" style="fill:none;stroke:#ffffff;stroke-linecap:square;stroke-linejoin:miter;stroke-width:1.25;"/>
   </g>
   <g id="patch_4">
    <path d="M 388.8 252 
L 388.8 34.56 
" style="fill:none;stroke:#ffffff;stroke-linecap:square;stroke-linejoin:miter;stroke-width:1.25;"/>
   </g>
   <g id="patch_5">
    <path d="M 54 252 
L 388.8 252 
" style="fill:none;stroke:#ffffff;stroke-linecap:square;stroke-linejoin:miter;stroke-width:1.25;"/>
   </g>
   <g id="patch_6">
    <path d="M 54 34.56 
L 388.8 34.56 
" style="fill:none;stroke:#ffffff;stroke-linecap:square;stroke-linejoin:miter;stroke-width:1.25;"/>
   </g>
   <g id="legend_1">
    <g id="patch_7">
     <path d="M 291.742188 75.651875 
L 381.1 75.651875 
Q 383.3 75.651875 383.3 73.451875 
L 383.3 42.26 
Q 383.3 40.06 381.1 40.06 
L 291.742188 40.06 
Q 289.542188 40.06 289.542188 42.26 
L 289.542188 73.451875 
Q 289.542188 75.651875 291.742188 75.651875 
z
" style="fill:#eaeaf2;opacity:0.8;stroke:#cccccc;stroke-linejoin:miter;"/>
    </g>
    <g id="line2d_16">
     <path d="M 293.942187 48.968281 
L 315.942187 48.968281 
" style="fill:none;stroke:#4c72b0;stroke-linecap:round;stroke-width:1.5;"/>
    </g>
    <g id="line2d_17"/>
    <g id="text_16">
     <!-- training -->
     <defs>
      <path d="M 18.3125 70.21875 
L 18.3125 54.6875 
L 36.8125 54.6875 
L 36.8125 47.703125 
L 18.3125 47.703125 
L 18.3125 18.015625 
Q 18.3125 11.328125 20.140625 9.421875 
Q 21.96875 7.515625 27.59375 7.515625 
L 36.8125 7.515625 
L 36.8125 0 
L 27.59375 0 
Q 17.1875 0 13.234375 3.875 
Q 9.28125 7.765625 9.28125 18.015625 
L 9.28125 47.703125 
L 2.6875 47.703125 
L 2.6875 54.6875 
L 9.28125 54.6875 
L 9.28125 70.21875 
z
" id="DejaVuSans-116"/>
      <path d="M 9.421875 54.6875 
L 18.40625 54.6875 
L 18.40625 0 
L 9.421875 0 
z
M 9.421875 75.984375 
L 18.40625 75.984375 
L 18.40625 64.59375 
L 9.421875 64.59375 
z
" id="DejaVuSans-105"/>
      <path d="M 54.890625 33.015625 
L 54.890625 0 
L 45.90625 0 
L 45.90625 32.71875 
Q 45.90625 40.484375 42.875 44.328125 
Q 39.84375 48.1875 33.796875 48.1875 
Q 26.515625 48.1875 22.3125 43.546875 
Q 18.109375 38.921875 18.109375 30.90625 
L 18.109375 0 
L 9.078125 0 
L 9.078125 54.6875 
L 18.109375 54.6875 
L 18.109375 46.1875 
Q 21.34375 51.125 25.703125 53.5625 
Q 30.078125 56 35.796875 56 
Q 45.21875 56 50.046875 50.171875 
Q 54.890625 44.34375 54.890625 33.015625 
z
" id="DejaVuSans-110"/>
      <path d="M 45.40625 27.984375 
Q 45.40625 37.75 41.375 43.109375 
Q 37.359375 48.484375 30.078125 48.484375 
Q 22.859375 48.484375 18.828125 43.109375 
Q 14.796875 37.75 14.796875 27.984375 
Q 14.796875 18.265625 18.828125 12.890625 
Q 22.859375 7.515625 30.078125 7.515625 
Q 37.359375 7.515625 41.375 12.890625 
Q 45.40625 18.265625 45.40625 27.984375 
z
M 54.390625 6.78125 
Q 54.390625 -7.171875 48.1875 -13.984375 
Q 42 -20.796875 29.203125 -20.796875 
Q 24.46875 -20.796875 20.265625 -20.09375 
Q 16.0625 -19.390625 12.109375 -17.921875 
L 12.109375 -9.1875 
Q 16.0625 -11.328125 19.921875 -12.34375 
Q 23.78125 -13.375 27.78125 -13.375 
Q 36.625 -13.375 41.015625 -8.765625 
Q 45.40625 -4.15625 45.40625 5.171875 
L 45.40625 9.625 
Q 42.625 4.78125 38.28125 2.390625 
Q 33.9375 0 27.875 0 
Q 17.828125 0 11.671875 7.65625 
Q 5.515625 15.328125 5.515625 27.984375 
Q 5.515625 40.671875 11.671875 48.328125 
Q 17.828125 56 27.875 56 
Q 33.9375 56 38.28125 53.609375 
Q 42.625 51.21875 45.40625 46.390625 
L 45.40625 54.6875 
L 54.390625 54.6875 
z
" id="DejaVuSans-103"/>
     </defs>
     <g style="fill:#262626;" transform="translate(324.742188 52.818281)scale(0.11 -0.11)">
      <use xlink:href="#DejaVuSans-116"/>
      <use x="39.208984" xlink:href="#DejaVuSans-114"/>
      <use x="80.322266" xlink:href="#DejaVuSans-97"/>
      <use x="141.601562" xlink:href="#DejaVuSans-105"/>
      <use x="169.384766" xlink:href="#DejaVuSans-110"/>
      <use x="232.763672" xlink:href="#DejaVuSans-105"/>
      <use x="260.546875" xlink:href="#DejaVuSans-110"/>
      <use x="323.925781" xlink:href="#DejaVuSans-103"/>
     </g>
    </g>
    <g id="line2d_18">
     <path d="M 293.942187 65.114219 
L 315.942187 65.114219 
" style="fill:none;stroke:#dd8452;stroke-linecap:round;stroke-width:1.5;"/>
    </g>
    <g id="line2d_19"/>
    <g id="text_17">
     <!-- validation -->
     <defs>
      <path d="M 2.984375 54.6875 
L 12.5 54.6875 
L 29.59375 8.796875 
L 46.6875 54.6875 
L 56.203125 54.6875 
L 35.6875 0 
L 23.484375 0 
z
" id="DejaVuSans-118"/>
      <path d="M 9.421875 75.984375 
L 18.40625 75.984375 
L 18.40625 0 
L 9.421875 0 
z
" id="DejaVuSans-108"/>
      <path d="M 45.40625 46.390625 
L 45.40625 75.984375 
L 54.390625 75.984375 
L 54.390625 0 
L 45.40625 0 
L 45.40625 8.203125 
Q 42.578125 3.328125 38.25 0.953125 
Q 33.9375 -1.421875 27.875 -1.421875 
Q 17.96875 -1.421875 11.734375 6.484375 
Q 5.515625 14.40625 5.515625 27.296875 
Q 5.515625 40.1875 11.734375 48.09375 
Q 17.96875 56 27.875 56 
Q 33.9375 56 38.25 53.625 
Q 42.578125 51.265625 45.40625 46.390625 
z
M 14.796875 27.296875 
Q 14.796875 17.390625 18.875 11.75 
Q 22.953125 6.109375 30.078125 6.109375 
Q 37.203125 6.109375 41.296875 11.75 
Q 45.40625 17.390625 45.40625 27.296875 
Q 45.40625 37.203125 41.296875 42.84375 
Q 37.203125 48.484375 30.078125 48.484375 
Q 22.953125 48.484375 18.875 42.84375 
Q 14.796875 37.203125 14.796875 27.296875 
z
" id="DejaVuSans-100"/>
     </defs>
     <g style="fill:#262626;" transform="translate(324.742188 68.964219)scale(0.11 -0.11)">
      <use xlink:href="#DejaVuSans-118"/>
      <use x="59.179688" xlink:href="#DejaVuSans-97"/>
      <use x="120.458984" xlink:href="#DejaVuSans-108"/>
      <use x="148.242188" xlink:href="#DejaVuSans-105"/>
      <use x="176.025391" xlink:href="#DejaVuSans-100"/>
      <use x="239.501953" xlink:href="#DejaVuSans-97"/>
      <use x="300.78125" xlink:href="#DejaVuSans-116"/>
      <use x="339.990234" xlink:href="#DejaVuSans-105"/>
      <use x="367.773438" xlink:href="#DejaVuSans-111"/>
      <use x="428.955078" xlink:href="#DejaVuSans-110"/>
     </g>
    </g>
   </g>
  </g>
 </g>
 <defs>
  <clipPath id="p9bef9fb273">
   <rect height="217.44" width="334.8" x="54" y="34.56"/>
  </clipPath>
 </defs>
</svg>
