<?xml version="1.0" encoding="utf-8" standalone="no"?>
<!DOCTYPE svg PUBLIC "-//W3C//DTD SVG 1.1//EN"
  "http://www.w3.org/Graphics/SVG/1.1/DTD/svg11.dtd">
<!-- Created with matplotlib (https://matplotlib.org/) -->
<svg height="288pt" version="1.1" viewBox="0 0 432 288" width="432pt" xmlns="http://www.w3.org/2000/svg" xmlns:xlink="http://www.w3.org/1999/xlink">
 <defs>
  <style type="text/css">
*{stroke-linecap:butt;stroke-linejoin:round;}
  </style>
 </defs>
 <g id="figure_1">
  <g id="patch_1">
   <path d="M 0 288 
L 432 288 
L 432 0 
L 0 0 
z
" style="fill:#ffffff;"/>
  </g>
  <g id="axes_1">
   <g id="patch_2">
    <path d="M 54 252 
L 388.8 252 
L 388.8 34.56 
L 54 34.56 
z
" style="fill:#eaeaf2;"/>
   </g>
   <g id="matplotlib.axis_1">
    <g id="xtick_1">
     <g id="line2d_1">
      <path clip-path="url(#p6587adf091)" d="M 69.218182 252 
L 69.218182 34.56 
" style="fill:none;stroke:#ffffff;stroke-linecap:round;"/>
     </g>
     <g id="text_1">
      <!-- 0 -->
      <defs>
       <path d="M 31.78125 66.40625 
Q 24.171875 66.40625 20.328125 58.90625 
Q 16.5 51.421875 16.5 36.375 
Q 16.5 21.390625 20.328125 13.890625 
Q 24.171875 6.390625 31.78125 6.390625 
Q 39.453125 6.390625 43.28125 13.890625 
Q 47.125 21.390625 47.125 36.375 
Q 47.125 51.421875 43.28125 58.90625 
Q 39.453125 66.40625 31.78125 66.40625 
z
M 31.78125 74.21875 
Q 44.046875 74.21875 50.515625 64.515625 
Q 56.984375 54.828125 56.984375 36.375 
Q 56.984375 17.96875 50.515625 8.265625 
Q 44.046875 -1.421875 31.78125 -1.421875 
Q 19.53125 -1.421875 13.0625 8.265625 
Q 6.59375 17.96875 6.59375 36.375 
Q 6.59375 54.828125 13.0625 64.515625 
Q 19.53125 74.21875 31.78125 74.21875 
z
" id="DejaVuSans-48"/>
      </defs>
      <g style="fill:#262626;" transform="translate(65.718807 269.858281)scale(0.11 -0.11)">
       <use xlink:href="#DejaVuSans-48"/>
      </g>
     </g>
    </g>
    <g id="xtick_2">
     <g id="line2d_2">
      <path clip-path="url(#p6587adf091)" d="M 130.212899 252 
L 130.212899 34.56 
" style="fill:none;stroke:#ffffff;stroke-linecap:round;"/>
     </g>
     <g id="text_2">
      <!-- 100 -->
      <defs>
       <path d="M 12.40625 8.296875 
L 28.515625 8.296875 
L 28.515625 63.921875 
L 10.984375 60.40625 
L 10.984375 69.390625 
L 28.421875 72.90625 
L 38.28125 72.90625 
L 38.28125 8.296875 
L 54.390625 8.296875 
L 54.390625 0 
L 12.40625 0 
z
" id="DejaVuSans-49"/>
      </defs>
      <g style="fill:#262626;" transform="translate(119.714774 269.858281)scale(0.11 -0.11)">
       <use xlink:href="#DejaVuSans-49"/>
       <use x="63.623047" xlink:href="#DejaVuSans-48"/>
       <use x="127.246094" xlink:href="#DejaVuSans-48"/>
      </g>
     </g>
    </g>
    <g id="xtick_3">
     <g id="line2d_3">
      <path clip-path="url(#p6587adf091)" d="M 191.207615 252 
L 191.207615 34.56 
" style="fill:none;stroke:#ffffff;stroke-linecap:round;"/>
     </g>
     <g id="text_3">
      <!-- 200 -->
      <defs>
       <path d="M 19.1875 8.296875 
L 53.609375 8.296875 
L 53.609375 0 
L 7.328125 0 
L 7.328125 8.296875 
Q 12.9375 14.109375 22.625 23.890625 
Q 32.328125 33.6875 34.8125 36.53125 
Q 39.546875 41.84375 41.421875 45.53125 
Q 43.3125 49.21875 43.3125 52.78125 
Q 43.3125 58.59375 39.234375 62.25 
Q 35.15625 65.921875 28.609375 65.921875 
Q 23.96875 65.921875 18.8125 64.3125 
Q 13.671875 62.703125 7.8125 59.421875 
L 7.8125 69.390625 
Q 13.765625 71.78125 18.9375 73 
Q 24.125 74.21875 28.421875 74.21875 
Q 39.75 74.21875 46.484375 68.546875 
Q 53.21875 62.890625 53.21875 53.421875 
Q 53.21875 48.921875 51.53125 44.890625 
Q 49.859375 40.875 45.40625 35.40625 
Q 44.1875 33.984375 37.640625 27.21875 
Q 31.109375 20.453125 19.1875 8.296875 
z
" id="DejaVuSans-50"/>
      </defs>
      <g style="fill:#262626;" transform="translate(180.70949 269.858281)scale(0.11 -0.11)">
       <use xlink:href="#DejaVuSans-50"/>
       <use x="63.623047" xlink:href="#DejaVuSans-48"/>
       <use x="127.246094" xlink:href="#DejaVuSans-48"/>
      </g>
     </g>
    </g>
    <g id="xtick_4">
     <g id="line2d_4">
      <path clip-path="url(#p6587adf091)" d="M 252.202332 252 
L 252.202332 34.56 
" style="fill:none;stroke:#ffffff;stroke-linecap:round;"/>
     </g>
     <g id="text_4">
      <!-- 300 -->
      <defs>
       <path d="M 40.578125 39.3125 
Q 47.65625 37.796875 51.625 33 
Q 55.609375 28.21875 55.609375 21.1875 
Q 55.609375 10.40625 48.1875 4.484375 
Q 40.765625 -1.421875 27.09375 -1.421875 
Q 22.515625 -1.421875 17.65625 -0.515625 
Q 12.796875 0.390625 7.625 2.203125 
L 7.625 11.71875 
Q 11.71875 9.328125 16.59375 8.109375 
Q 21.484375 6.890625 26.8125 6.890625 
Q 36.078125 6.890625 40.9375 10.546875 
Q 45.796875 14.203125 45.796875 21.1875 
Q 45.796875 27.640625 41.28125 31.265625 
Q 36.765625 34.90625 28.71875 34.90625 
L 20.21875 34.90625 
L 20.21875 43.015625 
L 29.109375 43.015625 
Q 36.375 43.015625 40.234375 45.921875 
Q 44.09375 48.828125 44.09375 54.296875 
Q 44.09375 59.90625 40.109375 62.90625 
Q 36.140625 65.921875 28.71875 65.921875 
Q 24.65625 65.921875 20.015625 65.03125 
Q 15.375 64.15625 9.8125 62.3125 
L 9.8125 71.09375 
Q 15.4375 72.65625 20.34375 73.4375 
Q 25.25 74.21875 29.59375 74.21875 
Q 40.828125 74.21875 47.359375 69.109375 
Q 53.90625 64.015625 53.90625 55.328125 
Q 53.90625 49.265625 50.4375 45.09375 
Q 46.96875 40.921875 40.578125 39.3125 
z
" id="DejaVuSans-51"/>
      </defs>
      <g style="fill:#262626;" transform="translate(241.704207 269.858281)scale(0.11 -0.11)">
       <use xlink:href="#DejaVuSans-51"/>
       <use x="63.623047" xlink:href="#DejaVuSans-48"/>
       <use x="127.246094" xlink:href="#DejaVuSans-48"/>
      </g>
     </g>
    </g>
    <g id="xtick_5">
     <g id="line2d_5">
      <path clip-path="url(#p6587adf091)" d="M 313.197049 252 
L 313.197049 34.56 
" style="fill:none;stroke:#ffffff;stroke-linecap:round;"/>
     </g>
     <g id="text_5">
      <!-- 400 -->
      <defs>
       <path d="M 37.796875 64.3125 
L 12.890625 25.390625 
L 37.796875 25.390625 
z
M 35.203125 72.90625 
L 47.609375 72.90625 
L 47.609375 25.390625 
L 58.015625 25.390625 
L 58.015625 17.1875 
L 47.609375 17.1875 
L 47.609375 0 
L 37.796875 0 
L 37.796875 17.1875 
L 4.890625 17.1875 
L 4.890625 26.703125 
z
" id="DejaVuSans-52"/>
      </defs>
      <g style="fill:#262626;" transform="translate(302.698924 269.858281)scale(0.11 -0.11)">
       <use xlink:href="#DejaVuSans-52"/>
       <use x="63.623047" xlink:href="#DejaVuSans-48"/>
       <use x="127.246094" xlink:href="#DejaVuSans-48"/>
      </g>
     </g>
    </g>
    <g id="xtick_6">
     <g id="line2d_6">
      <path clip-path="url(#p6587adf091)" d="M 374.191765 252 
L 374.191765 34.56 
" style="fill:none;stroke:#ffffff;stroke-linecap:round;"/>
     </g>
     <g id="text_6">
      <!-- 500 -->
      <defs>
       <path d="M 10.796875 72.90625 
L 49.515625 72.90625 
L 49.515625 64.59375 
L 19.828125 64.59375 
L 19.828125 46.734375 
Q 21.96875 47.46875 24.109375 47.828125 
Q 26.265625 48.1875 28.421875 48.1875 
Q 40.625 48.1875 47.75 41.5 
Q 54.890625 34.8125 54.890625 23.390625 
Q 54.890625 11.625 47.5625 5.09375 
Q 40.234375 -1.421875 26.90625 -1.421875 
Q 22.3125 -1.421875 17.546875 -0.640625 
Q 12.796875 0.140625 7.71875 1.703125 
L 7.71875 11.625 
Q 12.109375 9.234375 16.796875 8.0625 
Q 21.484375 6.890625 26.703125 6.890625 
Q 35.15625 6.890625 40.078125 11.328125 
Q 45.015625 15.765625 45.015625 23.390625 
Q 45.015625 31 40.078125 35.4375 
Q 35.15625 39.890625 26.703125 39.890625 
Q 22.75 39.890625 18.8125 39.015625 
Q 14.890625 38.140625 10.796875 36.28125 
z
" id="DejaVuSans-53"/>
      </defs>
      <g style="fill:#262626;" transform="translate(363.69364 269.858281)scale(0.11 -0.11)">
       <use xlink:href="#DejaVuSans-53"/>
       <use x="63.623047" xlink:href="#DejaVuSans-48"/>
       <use x="127.246094" xlink:href="#DejaVuSans-48"/>
      </g>
     </g>
    </g>
    <g id="text_7">
     <!-- Epoch -->
     <defs>
      <path d="M 9.8125 72.90625 
L 55.90625 72.90625 
L 55.90625 64.59375 
L 19.671875 64.59375 
L 19.671875 43.015625 
L 54.390625 43.015625 
L 54.390625 34.71875 
L 19.671875 34.71875 
L 19.671875 8.296875 
L 56.78125 8.296875 
L 56.78125 0 
L 9.8125 0 
z
" id="DejaVuSans-69"/>
      <path d="M 18.109375 8.203125 
L 18.109375 -20.796875 
L 9.078125 -20.796875 
L 9.078125 54.6875 
L 18.109375 54.6875 
L 18.109375 46.390625 
Q 20.953125 51.265625 25.265625 53.625 
Q 29.59375 56 35.59375 56 
Q 45.5625 56 51.78125 48.09375 
Q 58.015625 40.1875 58.015625 27.296875 
Q 58.015625 14.40625 51.78125 6.484375 
Q 45.5625 -1.421875 35.59375 -1.421875 
Q 29.59375 -1.421875 25.265625 0.953125 
Q 20.953125 3.328125 18.109375 8.203125 
z
M 48.6875 27.296875 
Q 48.6875 37.203125 44.609375 42.84375 
Q 40.53125 48.484375 33.40625 48.484375 
Q 26.265625 48.484375 22.1875 42.84375 
Q 18.109375 37.203125 18.109375 27.296875 
Q 18.109375 17.390625 22.1875 11.75 
Q 26.265625 6.109375 33.40625 6.109375 
Q 40.53125 6.109375 44.609375 11.75 
Q 48.6875 17.390625 48.6875 27.296875 
z
" id="DejaVuSans-112"/>
      <path d="M 30.609375 48.390625 
Q 23.390625 48.390625 19.1875 42.75 
Q 14.984375 37.109375 14.984375 27.296875 
Q 14.984375 17.484375 19.15625 11.84375 
Q 23.34375 6.203125 30.609375 6.203125 
Q 37.796875 6.203125 41.984375 11.859375 
Q 46.1875 17.53125 46.1875 27.296875 
Q 46.1875 37.015625 41.984375 42.703125 
Q 37.796875 48.390625 30.609375 48.390625 
z
M 30.609375 56 
Q 42.328125 56 49.015625 48.375 
Q 55.71875 40.765625 55.71875 27.296875 
Q 55.71875 13.875 49.015625 6.21875 
Q 42.328125 -1.421875 30.609375 -1.421875 
Q 18.84375 -1.421875 12.171875 6.21875 
Q 5.515625 13.875 5.515625 27.296875 
Q 5.515625 40.765625 12.171875 48.375 
Q 18.84375 56 30.609375 56 
z
" id="DejaVuSans-111"/>
      <path d="M 48.78125 52.59375 
L 48.78125 44.1875 
Q 44.96875 46.296875 41.140625 47.34375 
Q 37.3125 48.390625 33.40625 48.390625 
Q 24.65625 48.390625 19.8125 42.84375 
Q 14.984375 37.3125 14.984375 27.296875 
Q 14.984375 17.28125 19.8125 11.734375 
Q 24.65625 6.203125 33.40625 6.203125 
Q 37.3125 6.203125 41.140625 7.25 
Q 44.96875 8.296875 48.78125 10.40625 
L 48.78125 2.09375 
Q 45.015625 0.34375 40.984375 -0.53125 
Q 36.96875 -1.421875 32.421875 -1.421875 
Q 20.0625 -1.421875 12.78125 6.34375 
Q 5.515625 14.109375 5.515625 27.296875 
Q 5.515625 40.671875 12.859375 48.328125 
Q 20.21875 56 33.015625 56 
Q 37.15625 56 41.109375 55.140625 
Q 45.0625 54.296875 48.78125 52.59375 
z
" id="DejaVuSans-99"/>
      <path d="M 54.890625 33.015625 
L 54.890625 0 
L 45.90625 0 
L 45.90625 32.71875 
Q 45.90625 40.484375 42.875 44.328125 
Q 39.84375 48.1875 33.796875 48.1875 
Q 26.515625 48.1875 22.3125 43.546875 
Q 18.109375 38.921875 18.109375 30.90625 
L 18.109375 0 
L 9.078125 0 
L 9.078125 75.984375 
L 18.109375 75.984375 
L 18.109375 46.1875 
Q 21.34375 51.125 25.703125 53.5625 
Q 30.078125 56 35.796875 56 
Q 45.21875 56 50.046875 50.171875 
Q 54.890625 44.34375 54.890625 33.015625 
z
" id="DejaVuSans-104"/>
     </defs>
     <g style="fill:#262626;" transform="translate(203.026875 285.264063)scale(0.12 -0.12)">
      <use xlink:href="#DejaVuSans-69"/>
      <use x="63.183594" xlink:href="#DejaVuSans-112"/>
      <use x="126.660156" xlink:href="#DejaVuSans-111"/>
      <use x="187.841797" xlink:href="#DejaVuSans-99"/>
      <use x="242.822266" xlink:href="#DejaVuSans-104"/>
     </g>
    </g>
   </g>
   <g id="matplotlib.axis_2">
    <g id="ytick_1">
     <g id="line2d_7">
      <path clip-path="url(#p6587adf091)" d="M 54 237.129445 
L 388.8 237.129445 
" style="fill:none;stroke:#ffffff;stroke-linecap:round;"/>
     </g>
     <g id="text_8">
      <!-- 0.3 -->
      <defs>
       <path d="M 10.6875 12.40625 
L 21 12.40625 
L 21 0 
L 10.6875 0 
z
" id="DejaVuSans-46"/>
      </defs>
      <g style="fill:#262626;" transform="translate(27.006563 241.308585)scale(0.11 -0.11)">
       <use xlink:href="#DejaVuSans-48"/>
       <use x="63.623047" xlink:href="#DejaVuSans-46"/>
       <use x="95.410156" xlink:href="#DejaVuSans-51"/>
      </g>
     </g>
    </g>
    <g id="ytick_2">
     <g id="line2d_8">
      <path clip-path="url(#p6587adf091)" d="M 54 209.345161 
L 388.8 209.345161 
" style="fill:none;stroke:#ffffff;stroke-linecap:round;"/>
     </g>
     <g id="text_9">
      <!-- 0.4 -->
      <g style="fill:#262626;" transform="translate(27.006563 213.524302)scale(0.11 -0.11)">
       <use xlink:href="#DejaVuSans-48"/>
       <use x="63.623047" xlink:href="#DejaVuSans-46"/>
       <use x="95.410156" xlink:href="#DejaVuSans-52"/>
      </g>
     </g>
    </g>
    <g id="ytick_3">
     <g id="line2d_9">
      <path clip-path="url(#p6587adf091)" d="M 54 181.560878 
L 388.8 181.560878 
" style="fill:none;stroke:#ffffff;stroke-linecap:round;"/>
     </g>
     <g id="text_10">
      <!-- 0.5 -->
      <g style="fill:#262626;" transform="translate(27.006563 185.740019)scale(0.11 -0.11)">
       <use xlink:href="#DejaVuSans-48"/>
       <use x="63.623047" xlink:href="#DejaVuSans-46"/>
       <use x="95.410156" xlink:href="#DejaVuSans-53"/>
      </g>
     </g>
    </g>
    <g id="ytick_4">
     <g id="line2d_10">
      <path clip-path="url(#p6587adf091)" d="M 54 153.776595 
L 388.8 153.776595 
" style="fill:none;stroke:#ffffff;stroke-linecap:round;"/>
     </g>
     <g id="text_11">
      <!-- 0.6 -->
      <defs>
       <path d="M 33.015625 40.375 
Q 26.375 40.375 22.484375 35.828125 
Q 18.609375 31.296875 18.609375 23.390625 
Q 18.609375 15.53125 22.484375 10.953125 
Q 26.375 6.390625 33.015625 6.390625 
Q 39.65625 6.390625 43.53125 10.953125 
Q 47.40625 15.53125 47.40625 23.390625 
Q 47.40625 31.296875 43.53125 35.828125 
Q 39.65625 40.375 33.015625 40.375 
z
M 52.59375 71.296875 
L 52.59375 62.3125 
Q 48.875 64.0625 45.09375 64.984375 
Q 41.3125 65.921875 37.59375 65.921875 
Q 27.828125 65.921875 22.671875 59.328125 
Q 17.53125 52.734375 16.796875 39.40625 
Q 19.671875 43.65625 24.015625 45.921875 
Q 28.375 48.1875 33.59375 48.1875 
Q 44.578125 48.1875 50.953125 41.515625 
Q 57.328125 34.859375 57.328125 23.390625 
Q 57.328125 12.15625 50.6875 5.359375 
Q 44.046875 -1.421875 33.015625 -1.421875 
Q 20.359375 -1.421875 13.671875 8.265625 
Q 6.984375 17.96875 6.984375 36.375 
Q 6.984375 53.65625 15.1875 63.9375 
Q 23.390625 74.21875 37.203125 74.21875 
Q 40.921875 74.21875 44.703125 73.484375 
Q 48.484375 72.75 52.59375 71.296875 
z
" id="DejaVuSans-54"/>
      </defs>
      <g style="fill:#262626;" transform="translate(27.006563 157.955735)scale(0.11 -0.11)">
       <use xlink:href="#DejaVuSans-48"/>
       <use x="63.623047" xlink:href="#DejaVuSans-46"/>
       <use x="95.410156" xlink:href="#DejaVuSans-54"/>
      </g>
     </g>
    </g>
    <g id="ytick_5">
     <g id="line2d_11">
      <path clip-path="url(#p6587adf091)" d="M 54 125.992311 
L 388.8 125.992311 
" style="fill:none;stroke:#ffffff;stroke-linecap:round;"/>
     </g>
     <g id="text_12">
      <!-- 0.7 -->
      <defs>
       <path d="M 8.203125 72.90625 
L 55.078125 72.90625 
L 55.078125 68.703125 
L 28.609375 0 
L 18.3125 0 
L 43.21875 64.59375 
L 8.203125 64.59375 
z
" id="DejaVuSans-55"/>
      </defs>
      <g style="fill:#262626;" transform="translate(27.006563 130.171452)scale(0.11 -0.11)">
       <use xlink:href="#DejaVuSans-48"/>
       <use x="63.623047" xlink:href="#DejaVuSans-46"/>
       <use x="95.410156" xlink:href="#DejaVuSans-55"/>
      </g>
     </g>
    </g>
    <g id="ytick_6">
     <g id="line2d_12">
      <path clip-path="url(#p6587adf091)" d="M 54 98.208028 
L 388.8 98.208028 
" style="fill:none;stroke:#ffffff;stroke-linecap:round;"/>
     </g>
     <g id="text_13">
      <!-- 0.8 -->
      <defs>
       <path d="M 31.78125 34.625 
Q 24.75 34.625 20.71875 30.859375 
Q 16.703125 27.09375 16.703125 20.515625 
Q 16.703125 13.921875 20.71875 10.15625 
Q 24.75 6.390625 31.78125 6.390625 
Q 38.8125 6.390625 42.859375 10.171875 
Q 46.921875 13.96875 46.921875 20.515625 
Q 46.921875 27.09375 42.890625 30.859375 
Q 38.875 34.625 31.78125 34.625 
z
M 21.921875 38.8125 
Q 15.578125 40.375 12.03125 44.71875 
Q 8.5 49.078125 8.5 55.328125 
Q 8.5 64.0625 14.71875 69.140625 
Q 20.953125 74.21875 31.78125 74.21875 
Q 42.671875 74.21875 48.875 69.140625 
Q 55.078125 64.0625 55.078125 55.328125 
Q 55.078125 49.078125 51.53125 44.71875 
Q 48 40.375 41.703125 38.8125 
Q 48.828125 37.15625 52.796875 32.3125 
Q 56.78125 27.484375 56.78125 20.515625 
Q 56.78125 9.90625 50.3125 4.234375 
Q 43.84375 -1.421875 31.78125 -1.421875 
Q 19.734375 -1.421875 13.25 4.234375 
Q 6.78125 9.90625 6.78125 20.515625 
Q 6.78125 27.484375 10.78125 32.3125 
Q 14.796875 37.15625 21.921875 38.8125 
z
M 18.3125 54.390625 
Q 18.3125 48.734375 21.84375 45.5625 
Q 25.390625 42.390625 31.78125 42.390625 
Q 38.140625 42.390625 41.71875 45.5625 
Q 45.3125 48.734375 45.3125 54.390625 
Q 45.3125 60.0625 41.71875 63.234375 
Q 38.140625 66.40625 31.78125 66.40625 
Q 25.390625 66.40625 21.84375 63.234375 
Q 18.3125 60.0625 18.3125 54.390625 
z
" id="DejaVuSans-56"/>
      </defs>
      <g style="fill:#262626;" transform="translate(27.006563 102.387169)scale(0.11 -0.11)">
       <use xlink:href="#DejaVuSans-48"/>
       <use x="63.623047" xlink:href="#DejaVuSans-46"/>
       <use x="95.410156" xlink:href="#DejaVuSans-56"/>
      </g>
     </g>
    </g>
    <g id="ytick_7">
     <g id="line2d_13">
      <path clip-path="url(#p6587adf091)" d="M 54 70.423745 
L 388.8 70.423745 
" style="fill:none;stroke:#ffffff;stroke-linecap:round;"/>
     </g>
     <g id="text_14">
      <!-- 0.9 -->
      <defs>
       <path d="M 10.984375 1.515625 
L 10.984375 10.5 
Q 14.703125 8.734375 18.5 7.8125 
Q 22.3125 6.890625 25.984375 6.890625 
Q 35.75 6.890625 40.890625 13.453125 
Q 46.046875 20.015625 46.78125 33.40625 
Q 43.953125 29.203125 39.59375 26.953125 
Q 35.25 24.703125 29.984375 24.703125 
Q 19.046875 24.703125 12.671875 31.3125 
Q 6.296875 37.9375 6.296875 49.421875 
Q 6.296875 60.640625 12.9375 67.421875 
Q 19.578125 74.21875 30.609375 74.21875 
Q 43.265625 74.21875 49.921875 64.515625 
Q 56.59375 54.828125 56.59375 36.375 
Q 56.59375 19.140625 48.40625 8.859375 
Q 40.234375 -1.421875 26.421875 -1.421875 
Q 22.703125 -1.421875 18.890625 -0.6875 
Q 15.09375 0.046875 10.984375 1.515625 
z
M 30.609375 32.421875 
Q 37.25 32.421875 41.125 36.953125 
Q 45.015625 41.5 45.015625 49.421875 
Q 45.015625 57.28125 41.125 61.84375 
Q 37.25 66.40625 30.609375 66.40625 
Q 23.96875 66.40625 20.09375 61.84375 
Q 16.21875 57.28125 16.21875 49.421875 
Q 16.21875 41.5 20.09375 36.953125 
Q 23.96875 32.421875 30.609375 32.421875 
z
" id="DejaVuSans-57"/>
      </defs>
      <g style="fill:#262626;" transform="translate(27.006563 74.602885)scale(0.11 -0.11)">
       <use xlink:href="#DejaVuSans-48"/>
       <use x="63.623047" xlink:href="#DejaVuSans-46"/>
       <use x="95.410156" xlink:href="#DejaVuSans-57"/>
      </g>
     </g>
    </g>
    <g id="ytick_8">
     <g id="line2d_14">
      <path clip-path="url(#p6587adf091)" d="M 54 42.639461 
L 388.8 42.639461 
" style="fill:none;stroke:#ffffff;stroke-linecap:round;"/>
     </g>
     <g id="text_15">
      <!-- 1.0 -->
      <g style="fill:#262626;" transform="translate(27.006563 46.818602)scale(0.11 -0.11)">
       <use xlink:href="#DejaVuSans-49"/>
       <use x="63.623047" xlink:href="#DejaVuSans-46"/>
       <use x="95.410156" xlink:href="#DejaVuSans-48"/>
      </g>
     </g>
    </g>
    <g id="text_16">
     <!-- Accuracy -->
     <defs>
      <path d="M 34.1875 63.1875 
L 20.796875 26.90625 
L 47.609375 26.90625 
z
M 28.609375 72.90625 
L 39.796875 72.90625 
L 67.578125 0 
L 57.328125 0 
L 50.6875 18.703125 
L 17.828125 18.703125 
L 11.1875 0 
L 0.78125 0 
z
" id="DejaVuSans-65"/>
      <path d="M 8.5 21.578125 
L 8.5 54.6875 
L 17.484375 54.6875 
L 17.484375 21.921875 
Q 17.484375 14.15625 20.5 10.265625 
Q 23.53125 6.390625 29.59375 6.390625 
Q 36.859375 6.390625 41.078125 11.03125 
Q 45.3125 15.671875 45.3125 23.6875 
L 45.3125 54.6875 
L 54.296875 54.6875 
L 54.296875 0 
L 45.3125 0 
L 45.3125 8.40625 
Q 42.046875 3.421875 37.71875 1 
Q 33.40625 -1.421875 27.6875 -1.421875 
Q 18.265625 -1.421875 13.375 4.4375 
Q 8.5 10.296875 8.5 21.578125 
z
M 31.109375 56 
z
" id="DejaVuSans-117"/>
      <path d="M 41.109375 46.296875 
Q 39.59375 47.171875 37.8125 47.578125 
Q 36.03125 48 33.890625 48 
Q 26.265625 48 22.1875 43.046875 
Q 18.109375 38.09375 18.109375 28.8125 
L 18.109375 0 
L 9.078125 0 
L 9.078125 54.6875 
L 18.109375 54.6875 
L 18.109375 46.1875 
Q 20.953125 51.171875 25.484375 53.578125 
Q 30.03125 56 36.53125 56 
Q 37.453125 56 38.578125 55.875 
Q 39.703125 55.765625 41.0625 55.515625 
z
" id="DejaVuSans-114"/>
      <path d="M 34.28125 27.484375 
Q 23.390625 27.484375 19.1875 25 
Q 14.984375 22.515625 14.984375 16.5 
Q 14.984375 11.71875 18.140625 8.90625 
Q 21.296875 6.109375 26.703125 6.109375 
Q 34.1875 6.109375 38.703125 11.40625 
Q 43.21875 16.703125 43.21875 25.484375 
L 43.21875 27.484375 
z
M 52.203125 31.203125 
L 52.203125 0 
L 43.21875 0 
L 43.21875 8.296875 
Q 40.140625 3.328125 35.546875 0.953125 
Q 30.953125 -1.421875 24.3125 -1.421875 
Q 15.921875 -1.421875 10.953125 3.296875 
Q 6 8.015625 6 15.921875 
Q 6 25.140625 12.171875 29.828125 
Q 18.359375 34.515625 30.609375 34.515625 
L 43.21875 34.515625 
L 43.21875 35.40625 
Q 43.21875 41.609375 39.140625 45 
Q 35.0625 48.390625 27.6875 48.390625 
Q 23 48.390625 18.546875 47.265625 
Q 14.109375 46.140625 10.015625 43.890625 
L 10.015625 52.203125 
Q 14.9375 54.109375 19.578125 55.046875 
Q 24.21875 56 28.609375 56 
Q 40.484375 56 46.34375 49.84375 
Q 52.203125 43.703125 52.203125 31.203125 
z
" id="DejaVuSans-97"/>
      <path d="M 32.171875 -5.078125 
Q 28.375 -14.84375 24.75 -17.8125 
Q 21.140625 -20.796875 15.09375 -20.796875 
L 7.90625 -20.796875 
L 7.90625 -13.28125 
L 13.1875 -13.28125 
Q 16.890625 -13.28125 18.9375 -11.515625 
Q 21 -9.765625 23.484375 -3.21875 
L 25.09375 0.875 
L 2.984375 54.6875 
L 12.5 54.6875 
L 29.59375 11.921875 
L 46.6875 54.6875 
L 56.203125 54.6875 
z
" id="DejaVuSans-121"/>
     </defs>
     <g style="fill:#262626;" transform="translate(20.510937 170.67375)rotate(-90)scale(0.12 -0.12)">
      <use xlink:href="#DejaVuSans-65"/>
      <use x="66.658203" xlink:href="#DejaVuSans-99"/>
      <use x="121.638672" xlink:href="#DejaVuSans-99"/>
      <use x="176.619141" xlink:href="#DejaVuSans-117"/>
      <use x="239.998047" xlink:href="#DejaVuSans-114"/>
      <use x="281.111328" xlink:href="#DejaVuSans-97"/>
      <use x="342.390625" xlink:href="#DejaVuSans-99"/>
      <use x="397.371094" xlink:href="#DejaVuSans-121"/>
     </g>
    </g>
   </g>
   <g id="line2d_15">
    <path clip-path="url(#p6587adf091)" d="M 69.218182 172.540004 
L 69.828129 179.756703 
L 70.438076 163.519129 
L 71.048023 156.302446 
L 71.65797 134.652348 
L 72.267918 140.064872 
L 72.877865 131.043998 
L 73.487812 123.827298 
L 74.097759 123.827298 
L 74.707706 111.198091 
L 75.317653 125.631473 
L 75.927601 125.631473 
L 76.537548 114.806424 
L 77.147495 111.198091 
L 77.757442 118.414774 
L 78.367389 105.785566 
L 78.977336 102.177216 
L 79.587284 102.177216 
L 80.197231 116.610599 
L 81.417125 85.939642 
L 82.027072 87.743817 
L 82.637019 85.939642 
L 83.246967 93.156342 
L 83.856914 87.743817 
L 84.466861 75.114593 
L 85.076808 80.527118 
L 85.686755 73.310418 
L 86.296702 69.702068 
L 86.90665 80.527118 
L 87.516597 67.897893 
L 88.736491 71.506243 
L 89.346438 66.093718 
L 89.956385 66.093718 
L 90.566333 69.702068 
L 91.17628 75.114593 
L 91.786227 69.702068 
L 92.396174 67.897893 
L 93.006121 58.877035 
L 93.616069 71.506243 
L 94.226016 62.485385 
L 95.44591 69.702068 
L 96.055857 69.702068 
L 96.665804 64.28956 
L 97.275752 66.093718 
L 97.885699 64.28956 
L 98.495646 64.28956 
L 99.105593 66.093718 
L 99.71554 66.093718 
L 100.325487 58.877035 
L 100.935435 60.68121 
L 101.545382 51.660336 
L 102.155329 58.877035 
L 102.765276 57.072861 
L 103.375223 57.072861 
L 104.595118 49.856161 
L 105.205065 55.268686 
L 105.815012 58.877035 
L 106.424959 53.464511 
L 107.034906 55.268686 
L 107.644853 51.660336 
L 108.254801 51.660336 
L 108.864748 60.68121 
L 109.474695 60.68121 
L 110.084642 58.877035 
L 110.694589 49.856161 
L 111.304536 60.68121 
L 111.914484 66.093718 
L 112.524431 51.660336 
L 113.134378 57.072861 
L 113.744325 55.268686 
L 114.354272 76.918768 
L 114.964219 64.28956 
L 115.574167 76.918768 
L 116.184114 69.702068 
L 116.794061 71.506243 
L 117.404008 80.527118 
L 118.013955 66.093718 
L 118.623902 82.331292 
L 119.23385 73.310418 
L 120.453744 66.093718 
L 121.063691 87.743817 
L 121.673638 80.527118 
L 122.283585 80.527118 
L 122.893533 84.135467 
L 123.50348 98.568866 
L 124.723374 76.918768 
L 125.333321 107.589741 
L 125.943268 71.506243 
L 126.553216 75.114593 
L 127.163163 80.527118 
L 127.77311 87.743817 
L 128.383057 96.764691 
L 128.993004 82.331292 
L 129.602951 93.156342 
L 130.212899 98.568866 
L 130.822846 93.156342 
L 131.432793 78.722943 
L 132.04274 84.135467 
L 132.652687 82.331292 
L 133.262634 87.743817 
L 133.872582 96.764691 
L 134.482529 93.156342 
L 135.092476 93.156342 
L 135.702423 91.352167 
L 136.31237 93.156342 
L 136.922317 100.373041 
L 137.532265 82.331292 
L 138.142212 98.568866 
L 138.752159 84.135467 
L 139.362106 98.568866 
L 139.972053 91.352167 
L 140.582 85.939642 
L 141.191948 78.722943 
L 141.801895 93.156342 
L 142.411842 98.568866 
L 143.021789 84.135467 
L 143.631736 91.352167 
L 144.241683 75.114593 
L 144.851631 80.527118 
L 145.461578 93.156342 
L 146.071525 96.764691 
L 146.681472 94.960517 
L 147.291419 91.352167 
L 147.901366 96.764691 
L 148.511314 67.897893 
L 149.121261 80.527118 
L 149.731208 84.135467 
L 150.341155 76.918768 
L 150.951102 76.918768 
L 151.561049 78.722943 
L 152.170997 96.764691 
L 152.780944 85.939642 
L 153.390891 91.352167 
L 154.000838 93.156342 
L 155.220732 107.589741 
L 156.440627 75.114593 
L 157.050574 82.331292 
L 157.660521 75.114593 
L 158.880415 82.331292 
L 159.490363 76.918768 
L 160.10031 76.918768 
L 160.710257 82.331292 
L 161.320204 73.310418 
L 162.540098 94.960517 
L 163.150046 82.331292 
L 163.759993 87.743817 
L 164.36994 67.897893 
L 164.979887 73.310418 
L 165.589834 82.331292 
L 166.199781 75.114593 
L 166.809729 73.310418 
L 167.419676 69.702068 
L 168.029623 87.743817 
L 168.63957 75.114593 
L 169.249517 85.939642 
L 169.859464 80.527118 
L 170.469412 80.527118 
L 171.079359 75.114593 
L 171.689306 84.135467 
L 172.299253 80.527118 
L 173.519147 80.527118 
L 174.129095 73.310418 
L 174.739042 85.939642 
L 175.348989 89.547992 
L 175.958936 87.743817 
L 176.568883 76.918768 
L 177.17883 84.135467 
L 177.788778 84.135467 
L 178.398725 75.114593 
L 179.008672 62.485385 
L 179.618619 82.331292 
L 180.228566 78.722943 
L 181.448461 78.722943 
L 182.058408 73.310418 
L 182.668355 85.939642 
L 183.278302 85.939642 
L 184.498196 67.897893 
L 185.108144 71.506243 
L 185.718091 78.722943 
L 186.328038 75.114593 
L 186.937985 76.918768 
L 187.547932 73.310418 
L 188.157879 78.722943 
L 188.767827 73.310418 
L 189.377774 73.310418 
L 189.987721 69.702068 
L 190.597668 55.268686 
L 191.207615 69.702068 
L 191.817562 64.28956 
L 192.42751 82.331292 
L 193.037457 75.114593 
L 193.647404 73.310418 
L 194.257351 66.093718 
L 194.867298 73.310418 
L 195.477245 75.114593 
L 196.087193 75.114593 
L 196.69714 82.331292 
L 197.307087 62.485385 
L 198.526981 69.702068 
L 199.136928 67.897893 
L 199.746876 78.722943 
L 200.356823 66.093718 
L 200.96677 71.506243 
L 201.576717 60.68121 
L 202.186664 67.897893 
L 202.796611 58.877035 
L 203.406559 87.743817 
L 204.016506 62.485385 
L 204.626453 71.506243 
L 205.2364 73.310418 
L 205.846347 58.877035 
L 206.456294 73.310418 
L 207.066242 66.093718 
L 207.676189 66.093718 
L 208.286136 55.268686 
L 208.896083 75.114593 
L 209.50603 67.897893 
L 210.115977 64.28956 
L 210.725925 75.114593 
L 211.335872 76.918768 
L 211.945819 62.485385 
L 213.165713 69.702068 
L 213.77566 75.114593 
L 214.385608 60.68121 
L 214.995555 69.702068 
L 216.215449 73.310418 
L 216.825396 73.310418 
L 217.435343 75.114593 
L 218.045291 71.506243 
L 218.655238 60.68121 
L 219.265185 60.68121 
L 219.875132 71.506243 
L 220.485079 76.918768 
L 221.095026 64.28956 
L 221.704974 66.093718 
L 222.314921 73.310418 
L 222.924868 78.722943 
L 223.534815 66.093718 
L 224.144762 62.485385 
L 224.754709 78.722943 
L 225.364657 69.702068 
L 225.974604 84.135467 
L 226.584551 62.485385 
L 227.194498 60.68121 
L 227.804445 67.897893 
L 228.414392 76.918768 
L 229.634287 69.702068 
L 230.244234 73.310418 
L 230.854181 85.939642 
L 231.464128 64.28956 
L 232.074075 64.28956 
L 232.684023 60.68121 
L 233.29397 58.877035 
L 233.903917 64.28956 
L 234.513864 71.506243 
L 235.123811 67.897893 
L 235.733758 57.072861 
L 236.953653 71.506243 
L 237.5636 64.28956 
L 238.173547 67.897893 
L 238.783494 69.702068 
L 239.393441 67.897893 
L 240.003389 75.114593 
L 240.613336 66.093718 
L 241.83323 58.877035 
L 242.443177 66.093718 
L 243.053124 66.093718 
L 243.663072 67.897893 
L 244.273019 76.918768 
L 244.882966 64.28956 
L 245.492913 76.918768 
L 246.10286 71.506243 
L 246.712807 58.877035 
L 247.322755 64.28956 
L 247.932702 51.660336 
L 248.542649 69.702068 
L 249.152596 78.722943 
L 249.762543 64.28956 
L 250.37249 60.68121 
L 250.982438 78.722943 
L 251.592385 60.68121 
L 252.202332 60.68121 
L 252.812279 62.485385 
L 253.422226 76.918768 
L 254.032173 60.68121 
L 254.642121 67.897893 
L 255.252068 71.506243 
L 255.862015 66.093718 
L 256.471962 62.485385 
L 257.081909 57.072861 
L 257.691856 66.093718 
L 258.301804 69.702068 
L 258.911751 64.28956 
L 259.521698 71.506243 
L 260.131645 69.702068 
L 260.741592 60.68121 
L 261.351539 62.485385 
L 261.961487 75.114593 
L 262.571434 69.702068 
L 263.181381 60.68121 
L 263.791328 55.268686 
L 264.401275 58.877035 
L 265.011222 67.897893 
L 265.62117 69.702068 
L 266.231117 57.072861 
L 266.841064 53.464511 
L 267.451011 60.68121 
L 268.060958 55.268686 
L 268.670905 57.072861 
L 269.280853 64.28956 
L 269.8908 62.485385 
L 270.500747 66.093718 
L 271.110694 73.310418 
L 271.720641 66.093718 
L 272.330588 66.093718 
L 272.940536 62.485385 
L 273.550483 78.722943 
L 274.16043 49.856161 
L 274.770377 71.506243 
L 275.380324 69.702068 
L 275.990271 66.093718 
L 276.600219 53.464511 
L 277.210166 62.485385 
L 277.820113 53.464511 
L 278.43006 53.464511 
L 279.040007 62.485385 
L 279.649954 76.918768 
L 280.259902 71.506243 
L 281.479796 48.051986 
L 282.089743 55.268686 
L 282.69969 49.856161 
L 283.309637 64.28956 
L 283.919585 71.506243 
L 284.529532 67.897893 
L 285.139479 62.485385 
L 285.749426 58.877035 
L 286.359373 57.072861 
L 286.96932 53.464511 
L 287.579268 62.485385 
L 288.189215 62.485385 
L 288.799162 53.464511 
L 289.409109 60.68121 
L 290.019056 49.856161 
L 290.629003 57.072861 
L 291.238951 51.660336 
L 291.848898 55.268686 
L 292.458845 55.268686 
L 293.068792 58.877035 
L 293.678739 60.68121 
L 294.288686 55.268686 
L 294.898634 62.485385 
L 295.508581 58.877035 
L 296.118528 57.072861 
L 296.728475 62.485385 
L 297.338422 64.28956 
L 297.948369 60.68121 
L 298.558317 62.485385 
L 299.168264 58.877035 
L 299.778211 73.310418 
L 300.388158 73.310418 
L 300.998105 62.485385 
L 301.608052 58.877035 
L 302.218 51.660336 
L 302.827947 51.660336 
L 303.437894 58.877035 
L 304.047841 53.464511 
L 304.657788 55.268686 
L 305.267735 49.856161 
L 305.877683 53.464511 
L 306.48763 60.68121 
L 307.097577 64.28956 
L 307.707524 60.68121 
L 308.317471 51.660336 
L 308.927418 71.506243 
L 309.537366 55.268686 
L 310.147313 62.485385 
L 310.75726 53.464511 
L 311.367207 57.072861 
L 311.977154 51.660336 
L 312.587101 57.072861 
L 313.197049 75.114593 
L 313.806996 66.093718 
L 314.416943 60.68121 
L 315.02689 53.464511 
L 315.636837 57.072861 
L 316.246784 73.310418 
L 316.856732 76.918768 
L 317.466679 49.856161 
L 318.076626 71.506243 
L 318.686573 60.68121 
L 319.29652 53.464511 
L 319.906467 49.856161 
L 320.516415 51.660336 
L 321.126362 51.660336 
L 322.346256 55.268686 
L 322.956203 58.877035 
L 323.56615 60.68121 
L 324.176098 53.464511 
L 324.786045 55.268686 
L 325.395992 60.68121 
L 326.005939 55.268686 
L 326.615886 67.897893 
L 327.225833 46.247811 
L 327.835781 66.093718 
L 328.445728 66.093718 
L 329.055675 51.660336 
L 330.275569 55.268686 
L 330.885516 53.464511 
L 331.495464 62.485385 
L 332.105411 60.68121 
L 332.715358 48.051986 
L 333.325305 55.268686 
L 333.935252 57.072861 
L 334.545199 53.464511 
L 335.765094 67.897893 
L 336.375041 58.877035 
L 336.984988 53.464511 
L 337.594935 51.660336 
L 338.204882 51.660336 
L 338.81483 48.051986 
L 339.424777 57.072861 
L 340.034724 57.072861 
L 340.644671 51.660336 
L 341.254618 53.464511 
L 341.864565 57.072861 
L 342.474513 53.464511 
L 343.08446 62.485385 
L 343.694407 60.68121 
L 344.304354 57.072861 
L 344.914301 55.268686 
L 345.524248 57.072861 
L 346.744143 49.856161 
L 347.35409 66.093718 
L 347.964037 51.660336 
L 348.573984 55.268686 
L 349.183931 73.310418 
L 349.793879 57.072861 
L 350.403826 55.268686 
L 351.013773 49.856161 
L 351.62372 48.051986 
L 352.233667 55.268686 
L 352.843615 44.443636 
L 353.453562 51.660336 
L 354.063509 51.660336 
L 354.673456 66.093718 
L 355.283403 53.464511 
L 355.89335 64.28956 
L 356.503298 51.660336 
L 357.113245 44.443636 
L 357.723192 58.877035 
L 358.333139 62.485385 
L 358.943086 55.268686 
L 359.553033 49.856161 
L 360.162981 58.877035 
L 360.772928 49.856161 
L 361.382875 48.051986 
L 361.992822 51.660336 
L 362.602769 46.247811 
L 363.212716 53.464511 
L 363.822664 55.268686 
L 364.432611 53.464511 
L 365.042558 57.072861 
L 365.652505 53.464511 
L 366.262452 48.051986 
L 366.872399 49.856161 
L 367.482347 55.268686 
L 368.092294 57.072861 
L 368.702241 51.660336 
L 369.312188 55.268686 
L 369.922135 60.68121 
L 370.532082 58.877035 
L 371.14203 53.464511 
L 371.751977 60.68121 
L 372.361924 53.464511 
L 372.971871 55.268686 
L 373.581818 46.247811 
L 373.581818 46.247811 
" style="fill:none;stroke:#4c72b0;stroke-linecap:round;stroke-width:1.5;"/>
   </g>
   <g id="line2d_16">
    <path clip-path="url(#p6587adf091)" d="M 69.218182 220.743839 
L 69.828129 199.371315 
L 70.438076 192.24714 
L 71.048023 192.24714 
L 71.65797 213.619665 
L 72.267918 199.371315 
L 72.877865 170.874608 
L 73.487812 199.371315 
L 74.097759 192.24714 
L 74.707706 170.874608 
L 75.317653 170.874608 
L 75.927601 156.626258 
L 76.537548 149.502083 
L 77.147495 135.253734 
L 77.757442 149.502083 
L 79.587284 170.874608 
L 80.197231 192.24714 
L 80.807178 177.998782 
L 81.417125 185.122965 
L 82.027072 142.377908 
L 82.637019 177.998782 
L 83.246967 149.502083 
L 83.856914 149.502083 
L 84.466861 177.998782 
L 85.076808 220.743839 
L 85.686755 199.371315 
L 86.296702 213.619665 
L 86.90665 185.122965 
L 87.516597 192.24714 
L 88.126544 177.998782 
L 88.736491 185.122965 
L 89.956385 170.874608 
L 90.566333 170.874608 
L 91.17628 163.750433 
L 92.396174 177.998782 
L 93.006121 170.874608 
L 93.616069 185.122965 
L 94.226016 185.122965 
L 94.835963 170.874608 
L 95.44591 185.122965 
L 96.055857 185.122965 
L 96.665804 192.24714 
L 97.275752 192.24714 
L 97.885699 199.371315 
L 98.495646 199.371315 
L 99.105593 192.24714 
L 99.71554 192.24714 
L 100.325487 185.122965 
L 100.935435 192.24714 
L 101.545382 185.122965 
L 102.155329 199.371315 
L 102.765276 185.122965 
L 103.375223 192.24714 
L 103.98517 206.49549 
L 104.595118 227.868014 
L 105.205065 199.371315 
L 105.815012 213.619665 
L 106.424959 206.49549 
L 107.034906 170.874608 
L 107.644853 185.122965 
L 108.254801 192.24714 
L 108.864748 206.49549 
L 109.474695 192.24714 
L 110.084642 185.122965 
L 110.694589 192.24714 
L 111.304536 177.998782 
L 111.914484 206.49549 
L 112.524431 206.49549 
L 113.134378 199.371315 
L 113.744325 213.619665 
L 114.354272 185.122965 
L 114.964219 213.619665 
L 116.184114 213.619665 
L 116.794061 185.122965 
L 117.404008 185.122965 
L 118.013955 220.743839 
L 118.623902 234.992189 
L 119.23385 199.371315 
L 119.843797 185.122965 
L 120.453744 242.116364 
L 121.063691 199.371315 
L 122.283585 199.371315 
L 122.893533 206.49549 
L 123.50348 220.743839 
L 124.113427 242.116364 
L 124.723374 206.49549 
L 125.333321 234.992189 
L 125.943268 199.371315 
L 126.553216 220.743839 
L 127.163163 206.49549 
L 127.77311 177.998782 
L 128.383057 170.874608 
L 128.993004 192.24714 
L 129.602951 192.24714 
L 130.212899 163.750433 
L 130.822846 177.998782 
L 131.432793 185.122965 
L 132.04274 149.502083 
L 133.262634 192.24714 
L 133.872582 192.24714 
L 134.482529 142.377908 
L 135.092476 177.998782 
L 135.702423 177.998782 
L 136.922317 206.49549 
L 137.532265 234.992189 
L 138.142212 199.371315 
L 138.752159 170.874608 
L 139.362106 177.998782 
L 139.972053 170.874608 
L 140.582 199.371315 
L 141.191948 156.626258 
L 141.801895 170.874608 
L 142.411842 177.998782 
L 143.021789 199.371315 
L 143.631736 170.874608 
L 144.241683 192.24714 
L 144.851631 192.24714 
L 145.461578 213.619665 
L 146.071525 185.122965 
L 146.681472 170.874608 
L 147.291419 177.998782 
L 147.901366 177.998782 
L 148.511314 185.122965 
L 149.121261 185.122965 
L 149.731208 192.24714 
L 150.341155 163.750433 
L 150.951102 177.998782 
L 153.390891 177.998782 
L 154.000838 163.750433 
L 155.220732 163.750433 
L 155.83068 170.874608 
L 156.440627 185.122965 
L 157.050574 177.998782 
L 158.270468 149.502083 
L 158.880415 149.502083 
L 159.490363 163.750433 
L 160.10031 142.377908 
L 160.710257 149.502083 
L 161.320204 192.24714 
L 161.930151 185.122965 
L 162.540098 170.874608 
L 163.150046 149.502083 
L 163.759993 185.122965 
L 164.36994 156.626258 
L 164.979887 163.750433 
L 165.589834 163.750433 
L 166.199781 177.998782 
L 167.419676 192.24714 
L 168.029623 163.750433 
L 168.63957 206.49549 
L 169.249517 177.998782 
L 169.859464 185.122965 
L 170.469412 156.626258 
L 171.079359 149.502083 
L 172.299253 163.750433 
L 172.9092 163.750433 
L 173.519147 156.626258 
L 174.129095 206.49549 
L 174.739042 206.49549 
L 175.348989 170.874608 
L 175.958936 163.750433 
L 176.568883 163.750433 
L 177.17883 156.626258 
L 177.788778 192.24714 
L 178.398725 199.371315 
L 179.008672 177.998782 
L 180.228566 177.998782 
L 180.838513 192.24714 
L 181.448461 185.122965 
L 182.058408 163.750433 
L 182.668355 177.998782 
L 183.278302 170.874608 
L 183.888249 177.998782 
L 184.498196 192.24714 
L 185.108144 149.502083 
L 185.718091 177.998782 
L 186.328038 170.874608 
L 186.937985 170.874608 
L 187.547932 185.122965 
L 188.157879 156.626258 
L 188.767827 149.502083 
L 189.987721 149.502083 
L 190.597668 142.377908 
L 191.207615 185.122965 
L 191.817562 163.750433 
L 192.42751 170.874608 
L 193.037457 163.750433 
L 193.647404 192.24714 
L 194.257351 156.626258 
L 194.867298 163.750433 
L 195.477245 163.750433 
L 196.087193 170.874608 
L 196.69714 156.626258 
L 197.307087 149.502083 
L 197.917034 163.750433 
L 198.526981 163.750433 
L 199.746876 192.24714 
L 200.356823 192.24714 
L 200.96677 177.998782 
L 201.576717 170.874608 
L 202.186664 170.874608 
L 202.796611 128.129559 
L 203.406559 128.129559 
L 204.016506 135.253734 
L 205.2364 163.750433 
L 205.846347 156.626258 
L 206.456294 163.750433 
L 207.066242 149.502083 
L 207.676189 177.998782 
L 208.286136 142.377908 
L 209.50603 170.874608 
L 210.115977 170.874608 
L 210.725925 163.750433 
L 211.335872 199.371315 
L 211.945819 163.750433 
L 212.555766 163.750433 
L 213.165713 177.998782 
L 213.77566 177.998782 
L 214.385608 163.750433 
L 214.995555 177.998782 
L 215.605502 149.502083 
L 216.215449 142.377908 
L 216.825396 163.750433 
L 217.435343 177.998782 
L 218.045291 170.874608 
L 218.655238 185.122965 
L 219.265185 177.998782 
L 219.875132 192.24714 
L 220.485079 185.122965 
L 221.095026 199.371315 
L 221.704974 185.122965 
L 222.924868 170.874608 
L 223.534815 156.626258 
L 224.144762 163.750433 
L 224.754709 163.750433 
L 225.364657 177.998782 
L 225.974604 156.626258 
L 226.584551 156.626258 
L 227.804445 170.874608 
L 228.414392 163.750433 
L 229.02434 170.874608 
L 229.634287 156.626258 
L 230.244234 170.874608 
L 230.854181 220.743839 
L 231.464128 163.750433 
L 232.684023 192.24714 
L 233.29397 185.122965 
L 234.513864 199.371315 
L 235.123811 170.874608 
L 235.733758 156.626258 
L 236.343706 163.750433 
L 236.953653 185.122965 
L 237.5636 170.874608 
L 238.173547 163.750433 
L 238.783494 177.998782 
L 239.393441 156.626258 
L 240.003389 142.377908 
L 240.613336 163.750433 
L 241.223283 163.750433 
L 241.83323 192.24714 
L 242.443177 177.998782 
L 243.053124 170.874608 
L 243.663072 192.24714 
L 244.273019 199.371315 
L 244.882966 185.122965 
L 246.10286 142.377908 
L 246.712807 149.502083 
L 247.322755 177.998782 
L 247.932702 149.502083 
L 248.542649 192.24714 
L 249.152596 156.626258 
L 249.762543 170.874608 
L 250.37249 170.874608 
L 250.982438 192.24714 
L 251.592385 170.874608 
L 252.202332 177.998782 
L 252.812279 199.371315 
L 253.422226 192.24714 
L 254.032173 170.874608 
L 254.642121 156.626258 
L 255.252068 177.998782 
L 255.862015 170.874608 
L 256.471962 170.874608 
L 257.081909 192.24714 
L 257.691856 192.24714 
L 258.301804 177.998782 
L 258.911751 185.122965 
L 259.521698 206.49549 
L 260.131645 177.998782 
L 260.741592 170.874608 
L 261.351539 170.874608 
L 261.961487 177.998782 
L 262.571434 206.49549 
L 263.791328 163.750433 
L 264.401275 156.626258 
L 265.011222 177.998782 
L 265.62117 149.502083 
L 266.231117 177.998782 
L 266.841064 170.874608 
L 268.060958 185.122965 
L 268.670905 199.371315 
L 269.280853 185.122965 
L 269.8908 177.998782 
L 270.500747 163.750433 
L 271.110694 142.377908 
L 271.720641 135.253734 
L 272.330588 135.253734 
L 272.940536 142.377908 
L 273.550483 135.253734 
L 274.16043 135.253734 
L 274.770377 177.998782 
L 275.380324 156.626258 
L 275.990271 149.502083 
L 276.600219 149.502083 
L 277.210166 156.626258 
L 277.820113 170.874608 
L 278.43006 199.371315 
L 279.040007 177.998782 
L 279.649954 177.998782 
L 280.259902 163.750433 
L 281.479796 177.998782 
L 282.089743 156.626258 
L 283.309637 170.874608 
L 283.919585 192.24714 
L 284.529532 163.750433 
L 285.139479 156.626258 
L 285.749426 185.122965 
L 286.359373 170.874608 
L 286.96932 192.24714 
L 287.579268 185.122965 
L 288.189215 199.371315 
L 288.799162 170.874608 
L 289.409109 170.874608 
L 290.019056 177.998782 
L 290.629003 149.502083 
L 291.238951 163.750433 
L 291.848898 199.371315 
L 292.458845 206.49549 
L 293.068792 220.743839 
L 293.678739 142.377908 
L 294.288686 163.750433 
L 294.898634 170.874608 
L 295.508581 206.49549 
L 296.118528 206.49549 
L 296.728475 177.998782 
L 297.948369 163.750433 
L 298.558317 192.24714 
L 299.168264 177.998782 
L 299.778211 192.24714 
L 300.388158 185.122965 
L 300.998105 163.750433 
L 301.608052 135.253734 
L 302.218 163.750433 
L 302.827947 170.874608 
L 304.047841 156.626258 
L 304.657788 185.122965 
L 305.267735 192.24714 
L 305.877683 170.874608 
L 306.48763 163.750433 
L 307.097577 185.122965 
L 307.707524 177.998782 
L 308.927418 177.998782 
L 310.147313 163.750433 
L 310.75726 177.998782 
L 311.367207 149.502083 
L 311.977154 149.502083 
L 312.587101 156.626258 
L 313.197049 192.24714 
L 313.806996 170.874608 
L 314.416943 163.750433 
L 315.02689 192.24714 
L 315.636837 149.502083 
L 316.246784 170.874608 
L 316.856732 149.502083 
L 317.466679 163.750433 
L 318.076626 156.626258 
L 319.29652 185.122965 
L 319.906467 156.626258 
L 320.516415 156.626258 
L 321.126362 192.24714 
L 321.736309 177.998782 
L 322.346256 192.24714 
L 322.956203 199.371315 
L 323.56615 170.874608 
L 324.176098 163.750433 
L 324.786045 192.24714 
L 325.395992 192.24714 
L 326.005939 170.874608 
L 326.615886 170.874608 
L 327.835781 185.122965 
L 328.445728 177.998782 
L 329.055675 156.626258 
L 329.665622 142.377908 
L 330.275569 192.24714 
L 330.885516 185.122965 
L 332.105411 185.122965 
L 332.715358 199.371315 
L 333.325305 156.626258 
L 333.935252 206.49549 
L 334.545199 177.998782 
L 335.155147 206.49549 
L 335.765094 177.998782 
L 336.375041 185.122965 
L 336.984988 163.750433 
L 337.594935 156.626258 
L 338.81483 156.626258 
L 339.424777 135.253734 
L 340.034724 142.377908 
L 340.644671 163.750433 
L 341.254618 156.626258 
L 341.864565 156.626258 
L 342.474513 170.874608 
L 343.694407 170.874608 
L 344.304354 149.502083 
L 344.914301 149.502083 
L 345.524248 177.998782 
L 346.134196 185.122965 
L 346.744143 177.998782 
L 347.35409 185.122965 
L 347.964037 185.122965 
L 348.573984 170.874608 
L 349.183931 177.998782 
L 349.793879 170.874608 
L 350.403826 156.626258 
L 352.233667 156.626258 
L 353.453562 185.122965 
L 354.063509 192.24714 
L 354.673456 170.874608 
L 355.283403 156.626258 
L 355.89335 163.750433 
L 356.503298 199.371315 
L 357.113245 185.122965 
L 357.723192 185.122965 
L 358.333139 177.998782 
L 358.943086 163.750433 
L 359.553033 142.377908 
L 360.162981 177.998782 
L 360.772928 199.371315 
L 361.382875 177.998782 
L 361.992822 170.874608 
L 363.212716 199.371315 
L 363.822664 170.874608 
L 364.432611 170.874608 
L 365.042558 149.502083 
L 365.652505 142.377908 
L 366.262452 185.122965 
L 366.872399 177.998782 
L 367.482347 156.626258 
L 368.092294 163.750433 
L 368.702241 163.750433 
L 369.312188 170.874608 
L 369.922135 170.874608 
L 370.532082 206.49549 
L 371.14203 177.998782 
L 371.751977 170.874608 
L 372.361924 170.874608 
L 372.971871 177.998782 
L 373.581818 177.998782 
L 373.581818 177.998782 
" style="fill:none;stroke:#dd8452;stroke-linecap:round;stroke-width:1.5;"/>
   </g>
   <g id="patch_3">
    <path d="M 54 252 
L 54 34.56 
" style="fill:none;stroke:#ffffff;stroke-linecap:square;stroke-linejoin:miter;stroke-width:1.25;"/>
   </g>
   <g id="patch_4">
    <path d="M 388.8 252 
L 388.8 34.56 
" style="fill:none;stroke:#ffffff;stroke-linecap:square;stroke-linejoin:miter;stroke-width:1.25;"/>
   </g>
   <g id="patch_5">
    <path d="M 54 252 
L 388.8 252 
" style="fill:none;stroke:#ffffff;stroke-linecap:square;stroke-linejoin:miter;stroke-width:1.25;"/>
   </g>
   <g id="patch_6">
    <path d="M 54 34.56 
L 388.8 34.56 
" style="fill:none;stroke:#ffffff;stroke-linecap:square;stroke-linejoin:miter;stroke-width:1.25;"/>
   </g>
   <g id="legend_1">
    <g id="patch_7">
     <path d="M 291.742188 75.651875 
L 381.1 75.651875 
Q 383.3 75.651875 383.3 73.451875 
L 383.3 42.26 
Q 383.3 40.06 381.1 40.06 
L 291.742188 40.06 
Q 289.542188 40.06 289.542188 42.26 
L 289.542188 73.451875 
Q 289.542188 75.651875 291.742188 75.651875 
z
" style="fill:#eaeaf2;opacity:0.8;stroke:#cccccc;stroke-linejoin:miter;"/>
    </g>
    <g id="line2d_17">
     <path d="M 293.942187 48.968281 
L 315.942187 48.968281 
" style="fill:none;stroke:#4c72b0;stroke-linecap:round;stroke-width:1.5;"/>
    </g>
    <g id="line2d_18"/>
    <g id="text_17">
     <!-- training -->
     <defs>
      <path d="M 18.3125 70.21875 
L 18.3125 54.6875 
L 36.8125 54.6875 
L 36.8125 47.703125 
L 18.3125 47.703125 
L 18.3125 18.015625 
Q 18.3125 11.328125 20.140625 9.421875 
Q 21.96875 7.515625 27.59375 7.515625 
L 36.8125 7.515625 
L 36.8125 0 
L 27.59375 0 
Q 17.1875 0 13.234375 3.875 
Q 9.28125 7.765625 9.28125 18.015625 
L 9.28125 47.703125 
L 2.6875 47.703125 
L 2.6875 54.6875 
L 9.28125 54.6875 
L 9.28125 70.21875 
z
" id="DejaVuSans-116"/>
      <path d="M 9.421875 54.6875 
L 18.40625 54.6875 
L 18.40625 0 
L 9.421875 0 
z
M 9.421875 75.984375 
L 18.40625 75.984375 
L 18.40625 64.59375 
L 9.421875 64.59375 
z
" id="DejaVuSans-105"/>
      <path d="M 54.890625 33.015625 
L 54.890625 0 
L 45.90625 0 
L 45.90625 32.71875 
Q 45.90625 40.484375 42.875 44.328125 
Q 39.84375 48.1875 33.796875 48.1875 
Q 26.515625 48.1875 22.3125 43.546875 
Q 18.109375 38.921875 18.109375 30.90625 
L 18.109375 0 
L 9.078125 0 
L 9.078125 54.6875 
L 18.109375 54.6875 
L 18.109375 46.1875 
Q 21.34375 51.125 25.703125 53.5625 
Q 30.078125 56 35.796875 56 
Q 45.21875 56 50.046875 50.171875 
Q 54.890625 44.34375 54.890625 33.015625 
z
" id="DejaVuSans-110"/>
      <path d="M 45.40625 27.984375 
Q 45.40625 37.75 41.375 43.109375 
Q 37.359375 48.484375 30.078125 48.484375 
Q 22.859375 48.484375 18.828125 43.109375 
Q 14.796875 37.75 14.796875 27.984375 
Q 14.796875 18.265625 18.828125 12.890625 
Q 22.859375 7.515625 30.078125 7.515625 
Q 37.359375 7.515625 41.375 12.890625 
Q 45.40625 18.265625 45.40625 27.984375 
z
M 54.390625 6.78125 
Q 54.390625 -7.171875 48.1875 -13.984375 
Q 42 -20.796875 29.203125 -20.796875 
Q 24.46875 -20.796875 20.265625 -20.09375 
Q 16.0625 -19.390625 12.109375 -17.921875 
L 12.109375 -9.1875 
Q 16.0625 -11.328125 19.921875 -12.34375 
Q 23.78125 -13.375 27.78125 -13.375 
Q 36.625 -13.375 41.015625 -8.765625 
Q 45.40625 -4.15625 45.40625 5.171875 
L 45.40625 9.625 
Q 42.625 4.78125 38.28125 2.390625 
Q 33.9375 0 27.875 0 
Q 17.828125 0 11.671875 7.65625 
Q 5.515625 15.328125 5.515625 27.984375 
Q 5.515625 40.671875 11.671875 48.328125 
Q 17.828125 56 27.875 56 
Q 33.9375 56 38.28125 53.609375 
Q 42.625 51.21875 45.40625 46.390625 
L 45.40625 54.6875 
L 54.390625 54.6875 
z
" id="DejaVuSans-103"/>
     </defs>
     <g style="fill:#262626;" transform="translate(324.742188 52.818281)scale(0.11 -0.11)">
      <use xlink:href="#DejaVuSans-116"/>
      <use x="39.208984" xlink:href="#DejaVuSans-114"/>
      <use x="80.322266" xlink:href="#DejaVuSans-97"/>
      <use x="141.601562" xlink:href="#DejaVuSans-105"/>
      <use x="169.384766" xlink:href="#DejaVuSans-110"/>
      <use x="232.763672" xlink:href="#DejaVuSans-105"/>
      <use x="260.546875" xlink:href="#DejaVuSans-110"/>
      <use x="323.925781" xlink:href="#DejaVuSans-103"/>
     </g>
    </g>
    <g id="line2d_19">
     <path d="M 293.942187 65.114219 
L 315.942187 65.114219 
" style="fill:none;stroke:#dd8452;stroke-linecap:round;stroke-width:1.5;"/>
    </g>
    <g id="line2d_20"/>
    <g id="text_18">
     <!-- validation -->
     <defs>
      <path d="M 2.984375 54.6875 
L 12.5 54.6875 
L 29.59375 8.796875 
L 46.6875 54.6875 
L 56.203125 54.6875 
L 35.6875 0 
L 23.484375 0 
z
" id="DejaVuSans-118"/>
      <path d="M 9.421875 75.984375 
L 18.40625 75.984375 
L 18.40625 0 
L 9.421875 0 
z
" id="DejaVuSans-108"/>
      <path d="M 45.40625 46.390625 
L 45.40625 75.984375 
L 54.390625 75.984375 
L 54.390625 0 
L 45.40625 0 
L 45.40625 8.203125 
Q 42.578125 3.328125 38.25 0.953125 
Q 33.9375 -1.421875 27.875 -1.421875 
Q 17.96875 -1.421875 11.734375 6.484375 
Q 5.515625 14.40625 5.515625 27.296875 
Q 5.515625 40.1875 11.734375 48.09375 
Q 17.96875 56 27.875 56 
Q 33.9375 56 38.25 53.625 
Q 42.578125 51.265625 45.40625 46.390625 
z
M 14.796875 27.296875 
Q 14.796875 17.390625 18.875 11.75 
Q 22.953125 6.109375 30.078125 6.109375 
Q 37.203125 6.109375 41.296875 11.75 
Q 45.40625 17.390625 45.40625 27.296875 
Q 45.40625 37.203125 41.296875 42.84375 
Q 37.203125 48.484375 30.078125 48.484375 
Q 22.953125 48.484375 18.875 42.84375 
Q 14.796875 37.203125 14.796875 27.296875 
z
" id="DejaVuSans-100"/>
     </defs>
     <g style="fill:#262626;" transform="translate(324.742188 68.964219)scale(0.11 -0.11)">
      <use xlink:href="#DejaVuSans-118"/>
      <use x="59.179688" xlink:href="#DejaVuSans-97"/>
      <use x="120.458984" xlink:href="#DejaVuSans-108"/>
      <use x="148.242188" xlink:href="#DejaVuSans-105"/>
      <use x="176.025391" xlink:href="#DejaVuSans-100"/>
      <use x="239.501953" xlink:href="#DejaVuSans-97"/>
      <use x="300.78125" xlink:href="#DejaVuSans-116"/>
      <use x="339.990234" xlink:href="#DejaVuSans-105"/>
      <use x="367.773438" xlink:href="#DejaVuSans-111"/>
      <use x="428.955078" xlink:href="#DejaVuSans-110"/>
     </g>
    </g>
   </g>
  </g>
 </g>
 <defs>
  <clipPath id="p6587adf091">
   <rect height="217.44" width="334.8" x="54" y="34.56"/>
  </clipPath>
 </defs>
</svg>
