<?xml version="1.0" encoding="utf-8" standalone="no"?>
<!DOCTYPE svg PUBLIC "-//W3C//DTD SVG 1.1//EN"
  "http://www.w3.org/Graphics/SVG/1.1/DTD/svg11.dtd">
<!-- Created with matplotlib (https://matplotlib.org/) -->
<svg height="288pt" version="1.1" viewBox="0 0 432 288" width="432pt" xmlns="http://www.w3.org/2000/svg" xmlns:xlink="http://www.w3.org/1999/xlink">
 <defs>
  <style type="text/css">
*{stroke-linecap:butt;stroke-linejoin:round;}
  </style>
 </defs>
 <g id="figure_1">
  <g id="patch_1">
   <path d="M 0 288 
L 432 288 
L 432 0 
L 0 0 
z
" style="fill:#ffffff;"/>
  </g>
  <g id="axes_1">
   <g id="patch_2">
    <path d="M 54 252 
L 388.8 252 
L 388.8 34.56 
L 54 34.56 
z
" style="fill:#eaeaf2;"/>
   </g>
   <g id="matplotlib.axis_1">
    <g id="xtick_1">
     <g id="line2d_1">
      <path clip-path="url(#p2dc3418be4)" d="M 69.218182 252 
L 69.218182 34.56 
" style="fill:none;stroke:#ffffff;stroke-linecap:round;"/>
     </g>
     <g id="text_1">
      <!-- 0 -->
      <defs>
       <path d="M 31.78125 66.40625 
Q 24.171875 66.40625 20.328125 58.90625 
Q 16.5 51.421875 16.5 36.375 
Q 16.5 21.390625 20.328125 13.890625 
Q 24.171875 6.390625 31.78125 6.390625 
Q 39.453125 6.390625 43.28125 13.890625 
Q 47.125 21.390625 47.125 36.375 
Q 47.125 51.421875 43.28125 58.90625 
Q 39.453125 66.40625 31.78125 66.40625 
z
M 31.78125 74.21875 
Q 44.046875 74.21875 50.515625 64.515625 
Q 56.984375 54.828125 56.984375 36.375 
Q 56.984375 17.96875 50.515625 8.265625 
Q 44.046875 -1.421875 31.78125 -1.421875 
Q 19.53125 -1.421875 13.0625 8.265625 
Q 6.59375 17.96875 6.59375 36.375 
Q 6.59375 54.828125 13.0625 64.515625 
Q 19.53125 74.21875 31.78125 74.21875 
z
" id="DejaVuSans-48"/>
      </defs>
      <g style="fill:#262626;" transform="translate(65.718807 269.858281)scale(0.11 -0.11)">
       <use xlink:href="#DejaVuSans-48"/>
      </g>
     </g>
    </g>
    <g id="xtick_2">
     <g id="line2d_2">
      <path clip-path="url(#p2dc3418be4)" d="M 133.294737 252 
L 133.294737 34.56 
" style="fill:none;stroke:#ffffff;stroke-linecap:round;"/>
     </g>
     <g id="text_2">
      <!-- 100 -->
      <defs>
       <path d="M 12.40625 8.296875 
L 28.515625 8.296875 
L 28.515625 63.921875 
L 10.984375 60.40625 
L 10.984375 69.390625 
L 28.421875 72.90625 
L 38.28125 72.90625 
L 38.28125 8.296875 
L 54.390625 8.296875 
L 54.390625 0 
L 12.40625 0 
z
" id="DejaVuSans-49"/>
      </defs>
      <g style="fill:#262626;" transform="translate(122.796612 269.858281)scale(0.11 -0.11)">
       <use xlink:href="#DejaVuSans-49"/>
       <use x="63.623047" xlink:href="#DejaVuSans-48"/>
       <use x="127.246094" xlink:href="#DejaVuSans-48"/>
      </g>
     </g>
    </g>
    <g id="xtick_3">
     <g id="line2d_3">
      <path clip-path="url(#p2dc3418be4)" d="M 197.371292 252 
L 197.371292 34.56 
" style="fill:none;stroke:#ffffff;stroke-linecap:round;"/>
     </g>
     <g id="text_3">
      <!-- 200 -->
      <defs>
       <path d="M 19.1875 8.296875 
L 53.609375 8.296875 
L 53.609375 0 
L 7.328125 0 
L 7.328125 8.296875 
Q 12.9375 14.109375 22.625 23.890625 
Q 32.328125 33.6875 34.8125 36.53125 
Q 39.546875 41.84375 41.421875 45.53125 
Q 43.3125 49.21875 43.3125 52.78125 
Q 43.3125 58.59375 39.234375 62.25 
Q 35.15625 65.921875 28.609375 65.921875 
Q 23.96875 65.921875 18.8125 64.3125 
Q 13.671875 62.703125 7.8125 59.421875 
L 7.8125 69.390625 
Q 13.765625 71.78125 18.9375 73 
Q 24.125 74.21875 28.421875 74.21875 
Q 39.75 74.21875 46.484375 68.546875 
Q 53.21875 62.890625 53.21875 53.421875 
Q 53.21875 48.921875 51.53125 44.890625 
Q 49.859375 40.875 45.40625 35.40625 
Q 44.1875 33.984375 37.640625 27.21875 
Q 31.109375 20.453125 19.1875 8.296875 
z
" id="DejaVuSans-50"/>
      </defs>
      <g style="fill:#262626;" transform="translate(186.873167 269.858281)scale(0.11 -0.11)">
       <use xlink:href="#DejaVuSans-50"/>
       <use x="63.623047" xlink:href="#DejaVuSans-48"/>
       <use x="127.246094" xlink:href="#DejaVuSans-48"/>
      </g>
     </g>
    </g>
    <g id="xtick_4">
     <g id="line2d_4">
      <path clip-path="url(#p2dc3418be4)" d="M 261.447847 252 
L 261.447847 34.56 
" style="fill:none;stroke:#ffffff;stroke-linecap:round;"/>
     </g>
     <g id="text_4">
      <!-- 300 -->
      <defs>
       <path d="M 40.578125 39.3125 
Q 47.65625 37.796875 51.625 33 
Q 55.609375 28.21875 55.609375 21.1875 
Q 55.609375 10.40625 48.1875 4.484375 
Q 40.765625 -1.421875 27.09375 -1.421875 
Q 22.515625 -1.421875 17.65625 -0.515625 
Q 12.796875 0.390625 7.625 2.203125 
L 7.625 11.71875 
Q 11.71875 9.328125 16.59375 8.109375 
Q 21.484375 6.890625 26.8125 6.890625 
Q 36.078125 6.890625 40.9375 10.546875 
Q 45.796875 14.203125 45.796875 21.1875 
Q 45.796875 27.640625 41.28125 31.265625 
Q 36.765625 34.90625 28.71875 34.90625 
L 20.21875 34.90625 
L 20.21875 43.015625 
L 29.109375 43.015625 
Q 36.375 43.015625 40.234375 45.921875 
Q 44.09375 48.828125 44.09375 54.296875 
Q 44.09375 59.90625 40.109375 62.90625 
Q 36.140625 65.921875 28.71875 65.921875 
Q 24.65625 65.921875 20.015625 65.03125 
Q 15.375 64.15625 9.8125 62.3125 
L 9.8125 71.09375 
Q 15.4375 72.65625 20.34375 73.4375 
Q 25.25 74.21875 29.59375 74.21875 
Q 40.828125 74.21875 47.359375 69.109375 
Q 53.90625 64.015625 53.90625 55.328125 
Q 53.90625 49.265625 50.4375 45.09375 
Q 46.96875 40.921875 40.578125 39.3125 
z
" id="DejaVuSans-51"/>
      </defs>
      <g style="fill:#262626;" transform="translate(250.949722 269.858281)scale(0.11 -0.11)">
       <use xlink:href="#DejaVuSans-51"/>
       <use x="63.623047" xlink:href="#DejaVuSans-48"/>
       <use x="127.246094" xlink:href="#DejaVuSans-48"/>
      </g>
     </g>
    </g>
    <g id="xtick_5">
     <g id="line2d_5">
      <path clip-path="url(#p2dc3418be4)" d="M 325.524402 252 
L 325.524402 34.56 
" style="fill:none;stroke:#ffffff;stroke-linecap:round;"/>
     </g>
     <g id="text_5">
      <!-- 400 -->
      <defs>
       <path d="M 37.796875 64.3125 
L 12.890625 25.390625 
L 37.796875 25.390625 
z
M 35.203125 72.90625 
L 47.609375 72.90625 
L 47.609375 25.390625 
L 58.015625 25.390625 
L 58.015625 17.1875 
L 47.609375 17.1875 
L 47.609375 0 
L 37.796875 0 
L 37.796875 17.1875 
L 4.890625 17.1875 
L 4.890625 26.703125 
z
" id="DejaVuSans-52"/>
      </defs>
      <g style="fill:#262626;" transform="translate(315.026277 269.858281)scale(0.11 -0.11)">
       <use xlink:href="#DejaVuSans-52"/>
       <use x="63.623047" xlink:href="#DejaVuSans-48"/>
       <use x="127.246094" xlink:href="#DejaVuSans-48"/>
      </g>
     </g>
    </g>
    <g id="text_6">
     <!-- Epoch -->
     <defs>
      <path d="M 9.8125 72.90625 
L 55.90625 72.90625 
L 55.90625 64.59375 
L 19.671875 64.59375 
L 19.671875 43.015625 
L 54.390625 43.015625 
L 54.390625 34.71875 
L 19.671875 34.71875 
L 19.671875 8.296875 
L 56.78125 8.296875 
L 56.78125 0 
L 9.8125 0 
z
" id="DejaVuSans-69"/>
      <path d="M 18.109375 8.203125 
L 18.109375 -20.796875 
L 9.078125 -20.796875 
L 9.078125 54.6875 
L 18.109375 54.6875 
L 18.109375 46.390625 
Q 20.953125 51.265625 25.265625 53.625 
Q 29.59375 56 35.59375 56 
Q 45.5625 56 51.78125 48.09375 
Q 58.015625 40.1875 58.015625 27.296875 
Q 58.015625 14.40625 51.78125 6.484375 
Q 45.5625 -1.421875 35.59375 -1.421875 
Q 29.59375 -1.421875 25.265625 0.953125 
Q 20.953125 3.328125 18.109375 8.203125 
z
M 48.6875 27.296875 
Q 48.6875 37.203125 44.609375 42.84375 
Q 40.53125 48.484375 33.40625 48.484375 
Q 26.265625 48.484375 22.1875 42.84375 
Q 18.109375 37.203125 18.109375 27.296875 
Q 18.109375 17.390625 22.1875 11.75 
Q 26.265625 6.109375 33.40625 6.109375 
Q 40.53125 6.109375 44.609375 11.75 
Q 48.6875 17.390625 48.6875 27.296875 
z
" id="DejaVuSans-112"/>
      <path d="M 30.609375 48.390625 
Q 23.390625 48.390625 19.1875 42.75 
Q 14.984375 37.109375 14.984375 27.296875 
Q 14.984375 17.484375 19.15625 11.84375 
Q 23.34375 6.203125 30.609375 6.203125 
Q 37.796875 6.203125 41.984375 11.859375 
Q 46.1875 17.53125 46.1875 27.296875 
Q 46.1875 37.015625 41.984375 42.703125 
Q 37.796875 48.390625 30.609375 48.390625 
z
M 30.609375 56 
Q 42.328125 56 49.015625 48.375 
Q 55.71875 40.765625 55.71875 27.296875 
Q 55.71875 13.875 49.015625 6.21875 
Q 42.328125 -1.421875 30.609375 -1.421875 
Q 18.84375 -1.421875 12.171875 6.21875 
Q 5.515625 13.875 5.515625 27.296875 
Q 5.515625 40.765625 12.171875 48.375 
Q 18.84375 56 30.609375 56 
z
" id="DejaVuSans-111"/>
      <path d="M 48.78125 52.59375 
L 48.78125 44.1875 
Q 44.96875 46.296875 41.140625 47.34375 
Q 37.3125 48.390625 33.40625 48.390625 
Q 24.65625 48.390625 19.8125 42.84375 
Q 14.984375 37.3125 14.984375 27.296875 
Q 14.984375 17.28125 19.8125 11.734375 
Q 24.65625 6.203125 33.40625 6.203125 
Q 37.3125 6.203125 41.140625 7.25 
Q 44.96875 8.296875 48.78125 10.40625 
L 48.78125 2.09375 
Q 45.015625 0.34375 40.984375 -0.53125 
Q 36.96875 -1.421875 32.421875 -1.421875 
Q 20.0625 -1.421875 12.78125 6.34375 
Q 5.515625 14.109375 5.515625 27.296875 
Q 5.515625 40.671875 12.859375 48.328125 
Q 20.21875 56 33.015625 56 
Q 37.15625 56 41.109375 55.140625 
Q 45.0625 54.296875 48.78125 52.59375 
z
" id="DejaVuSans-99"/>
      <path d="M 54.890625 33.015625 
L 54.890625 0 
L 45.90625 0 
L 45.90625 32.71875 
Q 45.90625 40.484375 42.875 44.328125 
Q 39.84375 48.1875 33.796875 48.1875 
Q 26.515625 48.1875 22.3125 43.546875 
Q 18.109375 38.921875 18.109375 30.90625 
L 18.109375 0 
L 9.078125 0 
L 9.078125 75.984375 
L 18.109375 75.984375 
L 18.109375 46.1875 
Q 21.34375 51.125 25.703125 53.5625 
Q 30.078125 56 35.796875 56 
Q 45.21875 56 50.046875 50.171875 
Q 54.890625 44.34375 54.890625 33.015625 
z
" id="DejaVuSans-104"/>
     </defs>
     <g style="fill:#262626;" transform="translate(203.026875 285.264063)scale(0.12 -0.12)">
      <use xlink:href="#DejaVuSans-69"/>
      <use x="63.183594" xlink:href="#DejaVuSans-112"/>
      <use x="126.660156" xlink:href="#DejaVuSans-111"/>
      <use x="187.841797" xlink:href="#DejaVuSans-99"/>
      <use x="242.822266" xlink:href="#DejaVuSans-104"/>
     </g>
    </g>
   </g>
   <g id="matplotlib.axis_2">
    <g id="ytick_1">
     <g id="line2d_6">
      <path clip-path="url(#p2dc3418be4)" d="M 54 243.104724 
L 388.8 243.104724 
" style="fill:none;stroke:#ffffff;stroke-linecap:round;"/>
     </g>
     <g id="text_7">
      <!-- 0.4 -->
      <defs>
       <path d="M 10.6875 12.40625 
L 21 12.40625 
L 21 0 
L 10.6875 0 
z
" id="DejaVuSans-46"/>
      </defs>
      <g style="fill:#262626;" transform="translate(27.006563 247.283865)scale(0.11 -0.11)">
       <use xlink:href="#DejaVuSans-48"/>
       <use x="63.623047" xlink:href="#DejaVuSans-46"/>
       <use x="95.410156" xlink:href="#DejaVuSans-52"/>
      </g>
     </g>
    </g>
    <g id="ytick_2">
     <g id="line2d_7">
      <path clip-path="url(#p2dc3418be4)" d="M 54 209.994543 
L 388.8 209.994543 
" style="fill:none;stroke:#ffffff;stroke-linecap:round;"/>
     </g>
     <g id="text_8">
      <!-- 0.5 -->
      <defs>
       <path d="M 10.796875 72.90625 
L 49.515625 72.90625 
L 49.515625 64.59375 
L 19.828125 64.59375 
L 19.828125 46.734375 
Q 21.96875 47.46875 24.109375 47.828125 
Q 26.265625 48.1875 28.421875 48.1875 
Q 40.625 48.1875 47.75 41.5 
Q 54.890625 34.8125 54.890625 23.390625 
Q 54.890625 11.625 47.5625 5.09375 
Q 40.234375 -1.421875 26.90625 -1.421875 
Q 22.3125 -1.421875 17.546875 -0.640625 
Q 12.796875 0.140625 7.71875 1.703125 
L 7.71875 11.625 
Q 12.109375 9.234375 16.796875 8.0625 
Q 21.484375 6.890625 26.703125 6.890625 
Q 35.15625 6.890625 40.078125 11.328125 
Q 45.015625 15.765625 45.015625 23.390625 
Q 45.015625 31 40.078125 35.4375 
Q 35.15625 39.890625 26.703125 39.890625 
Q 22.75 39.890625 18.8125 39.015625 
Q 14.890625 38.140625 10.796875 36.28125 
z
" id="DejaVuSans-53"/>
      </defs>
      <g style="fill:#262626;" transform="translate(27.006563 214.173684)scale(0.11 -0.11)">
       <use xlink:href="#DejaVuSans-48"/>
       <use x="63.623047" xlink:href="#DejaVuSans-46"/>
       <use x="95.410156" xlink:href="#DejaVuSans-53"/>
      </g>
     </g>
    </g>
    <g id="ytick_3">
     <g id="line2d_8">
      <path clip-path="url(#p2dc3418be4)" d="M 54 176.884362 
L 388.8 176.884362 
" style="fill:none;stroke:#ffffff;stroke-linecap:round;"/>
     </g>
     <g id="text_9">
      <!-- 0.6 -->
      <defs>
       <path d="M 33.015625 40.375 
Q 26.375 40.375 22.484375 35.828125 
Q 18.609375 31.296875 18.609375 23.390625 
Q 18.609375 15.53125 22.484375 10.953125 
Q 26.375 6.390625 33.015625 6.390625 
Q 39.65625 6.390625 43.53125 10.953125 
Q 47.40625 15.53125 47.40625 23.390625 
Q 47.40625 31.296875 43.53125 35.828125 
Q 39.65625 40.375 33.015625 40.375 
z
M 52.59375 71.296875 
L 52.59375 62.3125 
Q 48.875 64.0625 45.09375 64.984375 
Q 41.3125 65.921875 37.59375 65.921875 
Q 27.828125 65.921875 22.671875 59.328125 
Q 17.53125 52.734375 16.796875 39.40625 
Q 19.671875 43.65625 24.015625 45.921875 
Q 28.375 48.1875 33.59375 48.1875 
Q 44.578125 48.1875 50.953125 41.515625 
Q 57.328125 34.859375 57.328125 23.390625 
Q 57.328125 12.15625 50.6875 5.359375 
Q 44.046875 -1.421875 33.015625 -1.421875 
Q 20.359375 -1.421875 13.671875 8.265625 
Q 6.984375 17.96875 6.984375 36.375 
Q 6.984375 53.65625 15.1875 63.9375 
Q 23.390625 74.21875 37.203125 74.21875 
Q 40.921875 74.21875 44.703125 73.484375 
Q 48.484375 72.75 52.59375 71.296875 
z
" id="DejaVuSans-54"/>
      </defs>
      <g style="fill:#262626;" transform="translate(27.006563 181.063502)scale(0.11 -0.11)">
       <use xlink:href="#DejaVuSans-48"/>
       <use x="63.623047" xlink:href="#DejaVuSans-46"/>
       <use x="95.410156" xlink:href="#DejaVuSans-54"/>
      </g>
     </g>
    </g>
    <g id="ytick_4">
     <g id="line2d_9">
      <path clip-path="url(#p2dc3418be4)" d="M 54 143.77418 
L 388.8 143.77418 
" style="fill:none;stroke:#ffffff;stroke-linecap:round;"/>
     </g>
     <g id="text_10">
      <!-- 0.7 -->
      <defs>
       <path d="M 8.203125 72.90625 
L 55.078125 72.90625 
L 55.078125 68.703125 
L 28.609375 0 
L 18.3125 0 
L 43.21875 64.59375 
L 8.203125 64.59375 
z
" id="DejaVuSans-55"/>
      </defs>
      <g style="fill:#262626;" transform="translate(27.006563 147.953321)scale(0.11 -0.11)">
       <use xlink:href="#DejaVuSans-48"/>
       <use x="63.623047" xlink:href="#DejaVuSans-46"/>
       <use x="95.410156" xlink:href="#DejaVuSans-55"/>
      </g>
     </g>
    </g>
    <g id="ytick_5">
     <g id="line2d_10">
      <path clip-path="url(#p2dc3418be4)" d="M 54 110.663999 
L 388.8 110.663999 
" style="fill:none;stroke:#ffffff;stroke-linecap:round;"/>
     </g>
     <g id="text_11">
      <!-- 0.8 -->
      <defs>
       <path d="M 31.78125 34.625 
Q 24.75 34.625 20.71875 30.859375 
Q 16.703125 27.09375 16.703125 20.515625 
Q 16.703125 13.921875 20.71875 10.15625 
Q 24.75 6.390625 31.78125 6.390625 
Q 38.8125 6.390625 42.859375 10.171875 
Q 46.921875 13.96875 46.921875 20.515625 
Q 46.921875 27.09375 42.890625 30.859375 
Q 38.875 34.625 31.78125 34.625 
z
M 21.921875 38.8125 
Q 15.578125 40.375 12.03125 44.71875 
Q 8.5 49.078125 8.5 55.328125 
Q 8.5 64.0625 14.71875 69.140625 
Q 20.953125 74.21875 31.78125 74.21875 
Q 42.671875 74.21875 48.875 69.140625 
Q 55.078125 64.0625 55.078125 55.328125 
Q 55.078125 49.078125 51.53125 44.71875 
Q 48 40.375 41.703125 38.8125 
Q 48.828125 37.15625 52.796875 32.3125 
Q 56.78125 27.484375 56.78125 20.515625 
Q 56.78125 9.90625 50.3125 4.234375 
Q 43.84375 -1.421875 31.78125 -1.421875 
Q 19.734375 -1.421875 13.25 4.234375 
Q 6.78125 9.90625 6.78125 20.515625 
Q 6.78125 27.484375 10.78125 32.3125 
Q 14.796875 37.15625 21.921875 38.8125 
z
M 18.3125 54.390625 
Q 18.3125 48.734375 21.84375 45.5625 
Q 25.390625 42.390625 31.78125 42.390625 
Q 38.140625 42.390625 41.71875 45.5625 
Q 45.3125 48.734375 45.3125 54.390625 
Q 45.3125 60.0625 41.71875 63.234375 
Q 38.140625 66.40625 31.78125 66.40625 
Q 25.390625 66.40625 21.84375 63.234375 
Q 18.3125 60.0625 18.3125 54.390625 
z
" id="DejaVuSans-56"/>
      </defs>
      <g style="fill:#262626;" transform="translate(27.006563 114.84314)scale(0.11 -0.11)">
       <use xlink:href="#DejaVuSans-48"/>
       <use x="63.623047" xlink:href="#DejaVuSans-46"/>
       <use x="95.410156" xlink:href="#DejaVuSans-56"/>
      </g>
     </g>
    </g>
    <g id="ytick_6">
     <g id="line2d_11">
      <path clip-path="url(#p2dc3418be4)" d="M 54 77.553818 
L 388.8 77.553818 
" style="fill:none;stroke:#ffffff;stroke-linecap:round;"/>
     </g>
     <g id="text_12">
      <!-- 0.9 -->
      <defs>
       <path d="M 10.984375 1.515625 
L 10.984375 10.5 
Q 14.703125 8.734375 18.5 7.8125 
Q 22.3125 6.890625 25.984375 6.890625 
Q 35.75 6.890625 40.890625 13.453125 
Q 46.046875 20.015625 46.78125 33.40625 
Q 43.953125 29.203125 39.59375 26.953125 
Q 35.25 24.703125 29.984375 24.703125 
Q 19.046875 24.703125 12.671875 31.3125 
Q 6.296875 37.9375 6.296875 49.421875 
Q 6.296875 60.640625 12.9375 67.421875 
Q 19.578125 74.21875 30.609375 74.21875 
Q 43.265625 74.21875 49.921875 64.515625 
Q 56.59375 54.828125 56.59375 36.375 
Q 56.59375 19.140625 48.40625 8.859375 
Q 40.234375 -1.421875 26.421875 -1.421875 
Q 22.703125 -1.421875 18.890625 -0.6875 
Q 15.09375 0.046875 10.984375 1.515625 
z
M 30.609375 32.421875 
Q 37.25 32.421875 41.125 36.953125 
Q 45.015625 41.5 45.015625 49.421875 
Q 45.015625 57.28125 41.125 61.84375 
Q 37.25 66.40625 30.609375 66.40625 
Q 23.96875 66.40625 20.09375 61.84375 
Q 16.21875 57.28125 16.21875 49.421875 
Q 16.21875 41.5 20.09375 36.953125 
Q 23.96875 32.421875 30.609375 32.421875 
z
" id="DejaVuSans-57"/>
      </defs>
      <g style="fill:#262626;" transform="translate(27.006563 81.732958)scale(0.11 -0.11)">
       <use xlink:href="#DejaVuSans-48"/>
       <use x="63.623047" xlink:href="#DejaVuSans-46"/>
       <use x="95.410156" xlink:href="#DejaVuSans-57"/>
      </g>
     </g>
    </g>
    <g id="ytick_7">
     <g id="line2d_12">
      <path clip-path="url(#p2dc3418be4)" d="M 54 44.443636 
L 388.8 44.443636 
" style="fill:none;stroke:#ffffff;stroke-linecap:round;"/>
     </g>
     <g id="text_13">
      <!-- 1.0 -->
      <g style="fill:#262626;" transform="translate(27.006563 48.622777)scale(0.11 -0.11)">
       <use xlink:href="#DejaVuSans-49"/>
       <use x="63.623047" xlink:href="#DejaVuSans-46"/>
       <use x="95.410156" xlink:href="#DejaVuSans-48"/>
      </g>
     </g>
    </g>
    <g id="text_14">
     <!-- Accuracy -->
     <defs>
      <path d="M 34.1875 63.1875 
L 20.796875 26.90625 
L 47.609375 26.90625 
z
M 28.609375 72.90625 
L 39.796875 72.90625 
L 67.578125 0 
L 57.328125 0 
L 50.6875 18.703125 
L 17.828125 18.703125 
L 11.1875 0 
L 0.78125 0 
z
" id="DejaVuSans-65"/>
      <path d="M 8.5 21.578125 
L 8.5 54.6875 
L 17.484375 54.6875 
L 17.484375 21.921875 
Q 17.484375 14.15625 20.5 10.265625 
Q 23.53125 6.390625 29.59375 6.390625 
Q 36.859375 6.390625 41.078125 11.03125 
Q 45.3125 15.671875 45.3125 23.6875 
L 45.3125 54.6875 
L 54.296875 54.6875 
L 54.296875 0 
L 45.3125 0 
L 45.3125 8.40625 
Q 42.046875 3.421875 37.71875 1 
Q 33.40625 -1.421875 27.6875 -1.421875 
Q 18.265625 -1.421875 13.375 4.4375 
Q 8.5 10.296875 8.5 21.578125 
z
M 31.109375 56 
z
" id="DejaVuSans-117"/>
      <path d="M 41.109375 46.296875 
Q 39.59375 47.171875 37.8125 47.578125 
Q 36.03125 48 33.890625 48 
Q 26.265625 48 22.1875 43.046875 
Q 18.109375 38.09375 18.109375 28.8125 
L 18.109375 0 
L 9.078125 0 
L 9.078125 54.6875 
L 18.109375 54.6875 
L 18.109375 46.1875 
Q 20.953125 51.171875 25.484375 53.578125 
Q 30.03125 56 36.53125 56 
Q 37.453125 56 38.578125 55.875 
Q 39.703125 55.765625 41.0625 55.515625 
z
" id="DejaVuSans-114"/>
      <path d="M 34.28125 27.484375 
Q 23.390625 27.484375 19.1875 25 
Q 14.984375 22.515625 14.984375 16.5 
Q 14.984375 11.71875 18.140625 8.90625 
Q 21.296875 6.109375 26.703125 6.109375 
Q 34.1875 6.109375 38.703125 11.40625 
Q 43.21875 16.703125 43.21875 25.484375 
L 43.21875 27.484375 
z
M 52.203125 31.203125 
L 52.203125 0 
L 43.21875 0 
L 43.21875 8.296875 
Q 40.140625 3.328125 35.546875 0.953125 
Q 30.953125 -1.421875 24.3125 -1.421875 
Q 15.921875 -1.421875 10.953125 3.296875 
Q 6 8.015625 6 15.921875 
Q 6 25.140625 12.171875 29.828125 
Q 18.359375 34.515625 30.609375 34.515625 
L 43.21875 34.515625 
L 43.21875 35.40625 
Q 43.21875 41.609375 39.140625 45 
Q 35.0625 48.390625 27.6875 48.390625 
Q 23 48.390625 18.546875 47.265625 
Q 14.109375 46.140625 10.015625 43.890625 
L 10.015625 52.203125 
Q 14.9375 54.109375 19.578125 55.046875 
Q 24.21875 56 28.609375 56 
Q 40.484375 56 46.34375 49.84375 
Q 52.203125 43.703125 52.203125 31.203125 
z
" id="DejaVuSans-97"/>
      <path d="M 32.171875 -5.078125 
Q 28.375 -14.84375 24.75 -17.8125 
Q 21.140625 -20.796875 15.09375 -20.796875 
L 7.90625 -20.796875 
L 7.90625 -13.28125 
L 13.1875 -13.28125 
Q 16.890625 -13.28125 18.9375 -11.515625 
Q 21 -9.765625 23.484375 -3.21875 
L 25.09375 0.875 
L 2.984375 54.6875 
L 12.5 54.6875 
L 29.59375 11.921875 
L 46.6875 54.6875 
L 56.203125 54.6875 
z
" id="DejaVuSans-121"/>
     </defs>
     <g style="fill:#262626;" transform="translate(20.510937 170.67375)rotate(-90)scale(0.12 -0.12)">
      <use xlink:href="#DejaVuSans-65"/>
      <use x="66.658203" xlink:href="#DejaVuSans-99"/>
      <use x="121.638672" xlink:href="#DejaVuSans-99"/>
      <use x="176.619141" xlink:href="#DejaVuSans-117"/>
      <use x="239.998047" xlink:href="#DejaVuSans-114"/>
      <use x="281.111328" xlink:href="#DejaVuSans-97"/>
      <use x="342.390625" xlink:href="#DejaVuSans-99"/>
      <use x="397.371094" xlink:href="#DejaVuSans-121"/>
     </g>
    </g>
   </g>
   <g id="line2d_13">
    <path clip-path="url(#p2dc3418be4)" d="M 69.218182 208.591567 
L 69.858947 208.591567 
L 70.499713 201.576708 
L 71.140478 202.979684 
L 71.781244 214.203461 
L 72.42201 202.979684 
L 73.062775 200.173732 
L 73.703541 187.54697 
L 74.344306 201.576708 
L 74.985072 153.87559 
L 75.625837 169.308304 
L 76.266603 166.502353 
L 76.907368 158.084518 
L 77.548134 152.472615 
L 78.1889 149.666663 
L 78.829665 160.890469 
L 80.111196 139.845852 
L 80.751962 117.398279 
L 81.392727 142.651804 
L 82.033493 128.622066 
L 82.674258 130.025041 
L 83.315024 124.413138 
L 83.955789 131.428017 
L 84.596555 125.816114 
L 85.237321 108.980424 
L 85.878086 123.010162 
L 86.518852 111.786376 
L 87.800383 100.562589 
L 88.441148 85.129875 
L 89.081914 106.174492 
L 89.722679 101.965565 
L 91.004211 87.935827 
L 91.644976 94.950686 
L 92.285742 90.741778 
L 92.926507 71.100137 
L 93.567273 96.353662 
L 94.208038 87.935827 
L 94.848804 82.323924 
L 95.489569 73.906089 
L 96.130335 79.517972 
L 96.7711 72.503113 
L 97.411866 80.920948 
L 98.052632 85.129875 
L 98.693397 83.726899 
L 99.334163 80.920948 
L 99.974928 86.532851 
L 100.615694 90.741778 
L 101.256459 69.697161 
L 101.897225 69.697161 
L 102.53799 71.100137 
L 103.178756 69.697161 
L 103.819522 82.323924 
L 104.460287 69.697161 
L 105.101053 76.71204 
L 105.741818 66.89121 
L 107.023349 80.920948 
L 107.664115 75.309064 
L 108.30488 82.323924 
L 108.945646 75.309064 
L 109.586411 73.906089 
L 110.227177 76.71204 
L 110.867943 64.085278 
L 111.508708 69.697161 
L 112.149474 57.070399 
L 112.790239 69.697161 
L 113.431005 66.89121 
L 114.07177 71.100137 
L 114.712536 71.100137 
L 115.353301 75.309064 
L 115.994067 62.682302 
L 116.634833 59.87635 
L 117.275598 66.89121 
L 117.916364 64.085278 
L 118.557129 75.309064 
L 119.197895 78.115016 
L 119.83866 68.294185 
L 120.479426 55.667423 
L 121.120191 66.89121 
L 121.760957 73.906089 
L 122.401722 58.473375 
L 123.042488 61.279326 
L 123.683254 54.264447 
L 124.324019 66.89121 
L 124.964785 76.71204 
L 125.60555 71.100137 
L 126.246316 57.070399 
L 126.887081 69.697161 
L 127.527847 59.87635 
L 128.168612 71.100137 
L 128.809378 71.100137 
L 129.450144 64.085278 
L 130.090909 62.682302 
L 130.731675 64.085278 
L 131.37244 62.682302 
L 132.013206 57.070399 
L 132.653971 68.294185 
L 133.294737 61.279326 
L 133.935502 72.503113 
L 134.576268 62.682302 
L 135.217033 76.71204 
L 135.857799 59.87635 
L 136.498565 68.294185 
L 137.13933 64.085278 
L 137.780096 65.488234 
L 138.420861 71.100137 
L 139.061627 64.085278 
L 139.702392 65.488234 
L 140.343158 54.264447 
L 140.983923 55.667423 
L 141.624689 68.294185 
L 142.265455 61.279326 
L 142.90622 72.503113 
L 143.546986 59.87635 
L 144.187751 57.070399 
L 144.828517 55.667423 
L 145.469282 61.279326 
L 146.110048 55.667423 
L 146.750813 55.667423 
L 147.391579 62.682302 
L 148.032344 59.87635 
L 148.67311 58.473375 
L 149.313876 62.682302 
L 149.954641 61.279326 
L 150.595407 57.070399 
L 151.236172 69.697161 
L 151.876938 71.100137 
L 152.517703 65.488234 
L 153.158469 58.473375 
L 153.799234 66.89121 
L 154.44 61.279326 
L 155.080766 61.279326 
L 155.721531 75.309064 
L 156.362297 58.473375 
L 157.003062 61.279326 
L 157.643828 54.264447 
L 158.284593 59.87635 
L 158.925359 54.264447 
L 160.20689 65.488234 
L 160.847656 68.294185 
L 161.488421 62.682302 
L 162.129187 55.667423 
L 162.769952 54.264447 
L 163.410718 58.473375 
L 164.051483 48.652564 
L 164.692249 61.279326 
L 165.333014 66.89121 
L 165.97378 57.070399 
L 166.614545 62.682302 
L 167.255311 82.323924 
L 167.896077 59.87635 
L 168.536842 57.070399 
L 169.177608 58.473375 
L 169.818373 57.070399 
L 170.459139 65.488234 
L 171.099904 64.085278 
L 171.74067 48.652564 
L 172.381435 55.667423 
L 173.022201 54.264447 
L 174.944498 62.682302 
L 175.585263 61.279326 
L 176.226029 57.070399 
L 176.866794 57.070399 
L 177.50756 55.667423 
L 178.148325 62.682302 
L 178.789091 57.070399 
L 179.429856 62.682302 
L 180.070622 64.085278 
L 180.711388 57.070399 
L 181.352153 55.667423 
L 181.992919 57.070399 
L 182.633684 65.488234 
L 183.27445 58.473375 
L 184.555981 61.279326 
L 185.196746 58.473375 
L 185.837512 58.473375 
L 186.478278 57.070399 
L 187.119043 59.87635 
L 187.759809 58.473375 
L 188.400574 54.264447 
L 189.04134 64.085278 
L 189.682105 54.264447 
L 190.322871 57.070399 
L 190.963636 62.682302 
L 191.604402 57.070399 
L 192.245167 57.070399 
L 192.885933 52.861471 
L 193.526699 57.070399 
L 194.167464 59.87635 
L 194.80823 61.279326 
L 195.448995 57.070399 
L 196.730526 54.264447 
L 197.371292 51.458496 
L 198.012057 58.473375 
L 198.652823 55.667423 
L 199.293589 51.458496 
L 199.934354 55.667423 
L 200.57512 51.458496 
L 201.215885 50.05554 
L 201.856651 55.667423 
L 202.497416 51.458496 
L 203.138182 50.05554 
L 203.778947 55.667423 
L 204.419713 57.070399 
L 205.060478 61.279326 
L 205.701244 54.264447 
L 206.34201 48.652564 
L 206.982775 51.458496 
L 207.623541 55.667423 
L 208.264306 52.861471 
L 208.905072 55.667423 
L 209.545837 48.652564 
L 210.186603 55.667423 
L 211.468134 61.279326 
L 212.1089 52.861471 
L 212.749665 48.652564 
L 213.390431 54.264447 
L 214.671962 54.264447 
L 215.312727 52.861471 
L 215.953493 58.473375 
L 216.594258 59.87635 
L 217.235024 57.070399 
L 217.875789 68.294185 
L 218.516555 59.87635 
L 219.157321 57.070399 
L 219.798086 57.070399 
L 220.438852 59.87635 
L 221.079617 48.652564 
L 221.720383 55.667423 
L 222.361148 59.87635 
L 223.642679 57.070399 
L 224.283445 65.488234 
L 224.924211 50.05554 
L 225.564976 58.473375 
L 226.205742 62.682302 
L 226.846507 52.861471 
L 227.487273 54.264447 
L 228.128038 59.87635 
L 228.768804 62.682302 
L 229.409569 54.264447 
L 230.050335 54.264447 
L 230.6911 52.861471 
L 231.331866 52.861471 
L 231.972632 57.070399 
L 232.613397 48.652564 
L 233.254163 55.667423 
L 233.894928 51.458496 
L 234.535694 57.070399 
L 235.176459 64.085278 
L 235.817225 52.861471 
L 236.45799 50.05554 
L 237.098756 52.861471 
L 239.021053 48.652564 
L 239.661818 55.667423 
L 240.302584 50.05554 
L 240.943349 48.652564 
L 241.584115 44.443636 
L 242.22488 50.05554 
L 242.865646 47.249588 
L 243.506411 45.846612 
L 244.147177 51.458496 
L 244.787943 58.473375 
L 245.428708 51.458496 
L 246.069474 52.861471 
L 246.710239 61.279326 
L 247.351005 51.458496 
L 247.99177 55.667423 
L 248.632536 50.05554 
L 249.273301 59.87635 
L 249.914067 55.667423 
L 250.554833 52.861471 
L 251.195598 54.264447 
L 251.836364 54.264447 
L 252.477129 57.070399 
L 253.117895 55.667423 
L 253.75866 52.861471 
L 254.399426 51.458496 
L 255.040191 55.667423 
L 255.680957 51.458496 
L 256.321722 50.05554 
L 256.962488 62.682302 
L 257.603254 47.249588 
L 258.244019 54.264447 
L 258.884785 48.652564 
L 259.52555 50.05554 
L 260.166316 52.861471 
L 260.807081 52.861471 
L 261.447847 54.264447 
L 262.088612 59.87635 
L 262.729378 52.861471 
L 263.370144 55.667423 
L 264.010909 47.249588 
L 264.651675 57.070399 
L 265.933206 51.458496 
L 266.573971 50.05554 
L 267.214737 54.264447 
L 267.855502 47.249588 
L 268.496268 52.861471 
L 269.137033 50.05554 
L 269.777799 45.846612 
L 270.418565 50.05554 
L 271.05933 52.861471 
L 271.700096 47.249588 
L 272.340861 52.861471 
L 272.981627 48.652564 
L 273.622392 50.05554 
L 274.263158 54.264447 
L 275.544689 57.070399 
L 276.185455 47.249588 
L 276.82622 57.070399 
L 277.466986 50.05554 
L 278.107751 48.652564 
L 278.748517 54.264447 
L 280.030048 54.264447 
L 280.670813 61.279326 
L 281.952344 45.846612 
L 283.233876 45.846612 
L 283.874641 52.861471 
L 284.515407 54.264447 
L 285.156172 50.05554 
L 285.796938 52.861471 
L 286.437703 50.05554 
L 287.078469 52.861471 
L 287.719234 62.682302 
L 288.36 48.652564 
L 289.000766 55.667423 
L 289.641531 55.667423 
L 290.282297 51.458496 
L 290.923062 55.667423 
L 291.563828 61.279326 
L 292.204593 50.05554 
L 292.845359 54.264447 
L 293.486124 48.652564 
L 294.12689 45.846612 
L 295.408421 48.652564 
L 296.049187 48.652564 
L 296.689952 47.249588 
L 297.330718 54.264447 
L 297.971483 48.652564 
L 298.612249 51.458496 
L 299.253014 52.861471 
L 299.89378 51.458496 
L 300.534545 51.458496 
L 301.175311 48.652564 
L 301.816077 48.652564 
L 302.456842 45.846612 
L 303.097608 50.05554 
L 303.738373 50.05554 
L 304.379139 45.846612 
L 305.019904 54.264447 
L 305.66067 48.652564 
L 306.942201 45.846612 
L 307.582967 51.458496 
L 308.223732 47.249588 
L 309.505263 44.443636 
L 310.146029 48.652564 
L 310.786794 50.05554 
L 311.42756 48.652564 
L 312.068325 48.652564 
L 312.709091 47.249588 
L 313.349856 48.652564 
L 313.990622 44.443636 
L 314.631388 52.861471 
L 315.272153 54.264447 
L 315.912919 52.861471 
L 316.553684 47.249588 
L 317.19445 51.458496 
L 317.835215 47.249588 
L 318.475981 47.249588 
L 319.116746 51.458496 
L 319.757512 64.085278 
L 320.398278 45.846612 
L 321.039043 52.861471 
L 321.679809 45.846612 
L 322.320574 45.846612 
L 322.96134 52.861471 
L 323.602105 48.652564 
L 324.242871 45.846612 
L 325.524402 57.070399 
L 326.165167 50.05554 
L 326.805933 48.652564 
L 327.446699 51.458496 
L 328.087464 47.249588 
L 328.72823 55.667423 
L 329.368995 50.05554 
L 330.009761 47.249588 
L 331.291292 55.667423 
L 331.932057 51.458496 
L 332.572823 51.458496 
L 333.213589 45.846612 
L 333.854354 50.05554 
L 334.49512 50.05554 
L 335.135885 59.87635 
L 335.776651 44.443636 
L 336.417416 47.249588 
L 337.058182 45.846612 
L 337.698947 48.652564 
L 338.339713 47.249588 
L 338.980478 48.652564 
L 339.621244 51.458496 
L 340.26201 57.070399 
L 340.902775 51.458496 
L 341.543541 48.652564 
L 342.184306 47.249588 
L 342.825072 52.861471 
L 343.465837 48.652564 
L 344.106603 47.249588 
L 344.747368 48.652564 
L 345.388134 52.861471 
L 346.0289 50.05554 
L 346.669665 54.264447 
L 347.310431 45.846612 
L 347.951196 47.249588 
L 348.591962 50.05554 
L 349.232727 45.846612 
L 349.873493 45.846612 
L 350.514258 48.652564 
L 351.155024 48.652564 
L 352.436555 54.264447 
L 353.077321 47.249588 
L 353.718086 48.652564 
L 354.358852 47.249588 
L 354.999617 48.652564 
L 355.640383 54.264447 
L 356.281148 48.652564 
L 356.921914 51.458496 
L 358.203445 45.846612 
L 358.844211 48.652564 
L 359.484976 45.846612 
L 360.125742 50.05554 
L 360.766507 47.249588 
L 361.407273 54.264447 
L 362.048038 50.05554 
L 362.688804 51.458496 
L 363.329569 48.652564 
L 363.970335 51.458496 
L 364.6111 48.652564 
L 365.892632 51.458496 
L 366.533397 48.652564 
L 367.174163 48.652564 
L 367.814928 54.264447 
L 368.455694 48.652564 
L 369.096459 48.652564 
L 369.737225 47.249588 
L 370.37799 51.458496 
L 371.659522 45.846612 
L 372.300287 45.846612 
L 372.941053 47.249588 
L 373.581818 52.861471 
L 373.581818 52.861471 
" style="fill:none;stroke:#4c72b0;stroke-linecap:round;stroke-width:1.5;"/>
   </g>
   <g id="line2d_14">
    <path clip-path="url(#p2dc3418be4)" d="M 69.218182 192.698174 
L 69.858947 167.989085 
L 70.499713 217.407274 
L 71.140478 192.698174 
L 71.781244 143.279995 
L 72.42201 202.581822 
L 73.062775 172.930899 
L 73.703541 222.349088 
L 74.344306 192.698174 
L 74.985072 172.930899 
L 75.625837 222.349088 
L 76.266603 222.349088 
L 76.907368 182.814546 
L 77.548134 192.698174 
L 78.1889 192.698174 
L 78.829665 187.75636 
L 79.470431 192.698174 
L 80.111196 192.698174 
L 80.751962 202.581822 
L 81.392727 197.639988 
L 82.033493 202.581822 
L 82.674258 197.639988 
L 83.315024 222.349088 
L 83.955789 207.523636 
L 84.596555 207.523636 
L 85.237321 192.698174 
L 85.878086 197.639988 
L 86.518852 192.698174 
L 87.159617 192.698174 
L 87.800383 182.814546 
L 88.441148 197.639988 
L 89.081914 177.872732 
L 89.722679 187.75636 
L 90.363445 182.814546 
L 91.004211 182.814546 
L 91.644976 177.872732 
L 92.285742 202.581822 
L 92.926507 182.814546 
L 93.567273 187.75636 
L 94.208038 197.639988 
L 94.848804 197.639988 
L 95.489569 177.872732 
L 96.130335 177.872732 
L 96.7711 192.698174 
L 97.411866 192.698174 
L 98.052632 182.814546 
L 98.693397 192.698174 
L 99.974928 192.698174 
L 100.615694 207.523636 
L 101.256459 197.639988 
L 101.897225 217.407274 
L 102.53799 202.581822 
L 103.178756 177.872732 
L 103.819522 202.581822 
L 104.460287 177.872732 
L 105.101053 187.75636 
L 105.741818 182.814546 
L 106.382584 192.698174 
L 107.023349 187.75636 
L 107.664115 207.523636 
L 108.30488 187.75636 
L 108.945646 197.639988 
L 110.227177 197.639988 
L 110.867943 182.814546 
L 111.508708 177.872732 
L 112.149474 187.75636 
L 112.790239 167.989085 
L 113.431005 202.581822 
L 114.07177 222.349088 
L 114.712536 158.105457 
L 115.353301 177.872732 
L 115.994067 182.814546 
L 117.275598 163.047271 
L 117.916364 177.872732 
L 118.557129 197.639988 
L 119.197895 197.639988 
L 119.83866 172.930899 
L 120.479426 167.989085 
L 121.120191 177.872732 
L 121.760957 207.523636 
L 122.401722 202.581822 
L 123.042488 207.523636 
L 123.683254 192.698174 
L 124.324019 197.639988 
L 124.964785 207.523636 
L 125.60555 172.930899 
L 126.246316 227.290902 
L 126.887081 197.639988 
L 127.527847 187.75636 
L 128.168612 187.75636 
L 128.809378 167.989085 
L 130.090909 207.523636 
L 130.731675 192.698174 
L 131.37244 197.639988 
L 132.013206 192.698174 
L 133.294737 212.46545 
L 133.935502 207.523636 
L 135.217033 207.523636 
L 136.498565 217.407274 
L 137.13933 217.407274 
L 137.780096 212.46545 
L 138.420861 212.46545 
L 139.061627 227.290902 
L 139.702392 207.523636 
L 140.343158 172.930899 
L 140.983923 172.930899 
L 141.624689 212.46545 
L 142.265455 172.930899 
L 142.90622 192.698174 
L 143.546986 182.814546 
L 144.187751 192.698174 
L 144.828517 207.523636 
L 145.469282 212.46545 
L 146.110048 207.523636 
L 146.750813 177.872732 
L 147.391579 217.407274 
L 148.032344 212.46545 
L 148.67311 227.290902 
L 149.313876 172.930899 
L 149.954641 217.407274 
L 150.595407 192.698174 
L 151.236172 182.814546 
L 151.876938 182.814546 
L 152.517703 192.698174 
L 153.158469 192.698174 
L 153.799234 207.523636 
L 154.44 212.46545 
L 155.080766 197.639988 
L 155.721531 212.46545 
L 156.362297 217.407274 
L 157.003062 192.698174 
L 157.643828 212.46545 
L 158.284593 217.407274 
L 158.925359 212.46545 
L 159.566124 217.407274 
L 160.20689 202.581822 
L 160.847656 217.407274 
L 161.488421 212.46545 
L 162.129187 177.872732 
L 162.769952 187.75636 
L 163.410718 222.349088 
L 164.051483 217.407274 
L 164.692249 187.75636 
L 165.333014 182.814546 
L 165.97378 212.46545 
L 166.614545 212.46545 
L 167.255311 232.232726 
L 167.896077 222.349088 
L 168.536842 192.698174 
L 169.177608 177.872732 
L 169.818373 222.349088 
L 170.459139 227.290902 
L 171.099904 192.698174 
L 171.74067 182.814546 
L 172.381435 217.407274 
L 173.022201 192.698174 
L 173.662967 187.75636 
L 174.303732 192.698174 
L 174.944498 167.989085 
L 176.226029 197.639988 
L 176.866794 202.581822 
L 177.50756 197.639988 
L 178.148325 207.523636 
L 178.789091 182.814546 
L 179.429856 187.75636 
L 180.070622 182.814546 
L 180.711388 182.814546 
L 181.352153 207.523636 
L 181.992919 192.698174 
L 182.633684 217.407274 
L 183.27445 217.407274 
L 184.555981 207.523636 
L 185.196746 207.523636 
L 185.837512 222.349088 
L 186.478278 232.232726 
L 187.119043 212.46545 
L 187.759809 202.581822 
L 188.400574 207.523636 
L 189.04134 202.581822 
L 189.682105 207.523636 
L 190.322871 202.581822 
L 190.963636 212.46545 
L 191.604402 227.290902 
L 192.245167 182.814546 
L 192.885933 197.639988 
L 193.526699 182.814546 
L 194.167464 172.930899 
L 194.80823 192.698174 
L 195.448995 182.814546 
L 197.371292 197.639988 
L 198.012057 217.407274 
L 198.652823 242.116364 
L 199.293589 207.523636 
L 199.934354 217.407274 
L 200.57512 202.581822 
L 201.215885 202.581822 
L 201.856651 187.75636 
L 202.497416 167.989085 
L 203.138182 182.814546 
L 203.778947 192.698174 
L 204.419713 172.930899 
L 205.060478 217.407274 
L 205.701244 207.523636 
L 206.34201 187.75636 
L 206.982775 182.814546 
L 207.623541 182.814546 
L 208.264306 212.46545 
L 208.905072 192.698174 
L 209.545837 192.698174 
L 210.827368 182.814546 
L 211.468134 187.75636 
L 212.1089 197.639988 
L 212.749665 197.639988 
L 213.390431 187.75636 
L 214.031196 222.349088 
L 214.671962 222.349088 
L 215.953493 202.581822 
L 216.594258 182.814546 
L 217.235024 192.698174 
L 217.875789 192.698174 
L 218.516555 172.930899 
L 219.157321 182.814546 
L 219.798086 182.814546 
L 220.438852 207.523636 
L 221.079617 187.75636 
L 221.720383 197.639988 
L 222.361148 197.639988 
L 223.001914 187.75636 
L 223.642679 202.581822 
L 224.283445 222.349088 
L 224.924211 182.814546 
L 225.564976 163.047271 
L 226.205742 197.639988 
L 226.846507 197.639988 
L 227.487273 172.930899 
L 228.128038 197.639988 
L 228.768804 187.75636 
L 230.050335 177.872732 
L 230.6911 187.75636 
L 231.331866 167.989085 
L 231.972632 182.814546 
L 232.613397 182.814546 
L 233.254163 172.930899 
L 233.894928 182.814546 
L 234.535694 167.989085 
L 235.817225 197.639988 
L 236.45799 197.639988 
L 237.098756 177.872732 
L 237.739522 182.814546 
L 238.380287 197.639988 
L 239.021053 187.75636 
L 239.661818 192.698174 
L 240.302584 187.75636 
L 240.943349 177.872732 
L 241.584115 182.814546 
L 242.22488 192.698174 
L 242.865646 167.989085 
L 243.506411 192.698174 
L 244.147177 167.989085 
L 244.787943 177.872732 
L 245.428708 192.698174 
L 246.069474 172.930899 
L 246.710239 177.872732 
L 247.351005 167.989085 
L 247.99177 187.75636 
L 248.632536 163.047271 
L 249.273301 207.523636 
L 249.914067 207.523636 
L 250.554833 222.349088 
L 251.195598 182.814546 
L 251.836364 172.930899 
L 252.477129 192.698174 
L 253.117895 187.75636 
L 254.399426 158.105457 
L 255.040191 163.047271 
L 256.321722 182.814546 
L 256.962488 167.989085 
L 257.603254 187.75636 
L 258.244019 182.814546 
L 258.884785 217.407274 
L 259.52555 187.75636 
L 260.166316 172.930899 
L 260.807081 177.872732 
L 261.447847 187.75636 
L 262.088612 182.814546 
L 262.729378 197.639988 
L 263.370144 182.814546 
L 264.010909 197.639988 
L 264.651675 202.581822 
L 265.29244 172.930899 
L 265.933206 192.698174 
L 266.573971 177.872732 
L 267.214737 202.581822 
L 267.855502 192.698174 
L 268.496268 197.639988 
L 269.137033 177.872732 
L 269.777799 207.523636 
L 270.418565 212.46545 
L 271.05933 182.814546 
L 272.981627 182.814546 
L 273.622392 163.047271 
L 274.903923 182.814546 
L 276.185455 192.698174 
L 276.82622 192.698174 
L 277.466986 182.814546 
L 278.107751 167.989085 
L 278.748517 177.872732 
L 279.389282 182.814546 
L 280.030048 197.639988 
L 280.670813 192.698174 
L 281.311579 177.872732 
L 281.952344 172.930899 
L 282.59311 172.930899 
L 283.233876 187.75636 
L 283.874641 163.047271 
L 284.515407 187.75636 
L 285.156172 202.581822 
L 285.796938 192.698174 
L 286.437703 187.75636 
L 287.078469 172.930899 
L 287.719234 192.698174 
L 288.36 192.698174 
L 289.000766 207.523636 
L 289.641531 172.930899 
L 290.282297 187.75636 
L 290.923062 192.698174 
L 291.563828 177.872732 
L 292.204593 182.814546 
L 292.845359 192.698174 
L 293.486124 197.639988 
L 294.12689 172.930899 
L 294.767656 182.814546 
L 295.408421 197.639988 
L 296.049187 182.814546 
L 296.689952 172.930899 
L 297.330718 187.75636 
L 297.971483 197.639988 
L 298.612249 217.407274 
L 299.253014 197.639988 
L 299.89378 212.46545 
L 300.534545 217.407274 
L 301.175311 212.46545 
L 301.816077 217.407274 
L 302.456842 212.46545 
L 303.097608 202.581822 
L 303.738373 222.349088 
L 304.379139 192.698174 
L 305.66067 202.581822 
L 306.301435 177.872732 
L 306.942201 172.930899 
L 307.582967 187.75636 
L 308.223732 167.989085 
L 308.864498 202.581822 
L 309.505263 197.639988 
L 310.146029 187.75636 
L 310.786794 202.581822 
L 311.42756 232.232726 
L 312.068325 212.46545 
L 312.709091 197.639988 
L 313.349856 227.290902 
L 313.990622 182.814546 
L 314.631388 227.290902 
L 315.272153 207.523636 
L 315.912919 207.523636 
L 316.553684 172.930899 
L 317.19445 197.639988 
L 317.835215 207.523636 
L 318.475981 197.639988 
L 319.116746 207.523636 
L 320.398278 177.872732 
L 321.039043 202.581822 
L 321.679809 172.930899 
L 322.320574 187.75636 
L 322.96134 212.46545 
L 323.602105 172.930899 
L 324.242871 202.581822 
L 324.883636 207.523636 
L 325.524402 222.349088 
L 326.165167 202.581822 
L 326.805933 212.46545 
L 327.446699 212.46545 
L 328.087464 197.639988 
L 328.72823 212.46545 
L 329.368995 192.698174 
L 330.009761 197.639988 
L 330.650526 192.698174 
L 331.932057 192.698174 
L 332.572823 172.930899 
L 333.213589 197.639988 
L 333.854354 202.581822 
L 334.49512 197.639988 
L 335.135885 202.581822 
L 335.776651 172.930899 
L 336.417416 182.814546 
L 337.058182 187.75636 
L 337.698947 187.75636 
L 338.980478 197.639988 
L 339.621244 217.407274 
L 340.26201 222.349088 
L 340.902775 182.814546 
L 341.543541 172.930899 
L 342.184306 202.581822 
L 342.825072 182.814546 
L 343.465837 177.872732 
L 344.106603 182.814546 
L 344.747368 207.523636 
L 345.388134 177.872732 
L 346.0289 177.872732 
L 346.669665 192.698174 
L 347.951196 192.698174 
L 348.591962 197.639988 
L 349.232727 187.75636 
L 349.873493 212.46545 
L 350.514258 192.698174 
L 351.155024 187.75636 
L 352.436555 207.523636 
L 353.077321 187.75636 
L 353.718086 197.639988 
L 354.358852 197.639988 
L 354.999617 202.581822 
L 355.640383 192.698174 
L 356.281148 212.46545 
L 356.921914 202.581822 
L 358.203445 192.698174 
L 358.844211 197.639988 
L 359.484976 192.698174 
L 360.125742 167.989085 
L 360.766507 187.75636 
L 361.407273 182.814546 
L 362.048038 167.989085 
L 362.688804 182.814546 
L 363.329569 187.75636 
L 363.970335 212.46545 
L 364.6111 207.523636 
L 365.251866 192.698174 
L 365.892632 202.581822 
L 366.533397 187.75636 
L 367.174163 187.75636 
L 367.814928 222.349088 
L 368.455694 212.46545 
L 369.096459 187.75636 
L 369.737225 197.639988 
L 370.37799 217.407274 
L 371.018756 197.639988 
L 371.659522 222.349088 
L 372.941053 202.581822 
L 373.581818 222.349088 
L 373.581818 222.349088 
" style="fill:none;stroke:#dd8452;stroke-linecap:round;stroke-width:1.5;"/>
   </g>
   <g id="patch_3">
    <path d="M 54 252 
L 54 34.56 
" style="fill:none;stroke:#ffffff;stroke-linecap:square;stroke-linejoin:miter;stroke-width:1.25;"/>
   </g>
   <g id="patch_4">
    <path d="M 388.8 252 
L 388.8 34.56 
" style="fill:none;stroke:#ffffff;stroke-linecap:square;stroke-linejoin:miter;stroke-width:1.25;"/>
   </g>
   <g id="patch_5">
    <path d="M 54 252 
L 388.8 252 
" style="fill:none;stroke:#ffffff;stroke-linecap:square;stroke-linejoin:miter;stroke-width:1.25;"/>
   </g>
   <g id="patch_6">
    <path d="M 54 34.56 
L 388.8 34.56 
" style="fill:none;stroke:#ffffff;stroke-linecap:square;stroke-linejoin:miter;stroke-width:1.25;"/>
   </g>
   <g id="legend_1">
    <g id="patch_7">
     <path d="M 291.742188 75.651875 
L 381.1 75.651875 
Q 383.3 75.651875 383.3 73.451875 
L 383.3 42.26 
Q 383.3 40.06 381.1 40.06 
L 291.742188 40.06 
Q 289.542188 40.06 289.542188 42.26 
L 289.542188 73.451875 
Q 289.542188 75.651875 291.742188 75.651875 
z
" style="fill:#eaeaf2;opacity:0.8;stroke:#cccccc;stroke-linejoin:miter;"/>
    </g>
    <g id="line2d_15">
     <path d="M 293.942187 48.968281 
L 315.942187 48.968281 
" style="fill:none;stroke:#4c72b0;stroke-linecap:round;stroke-width:1.5;"/>
    </g>
    <g id="line2d_16"/>
    <g id="text_15">
     <!-- training -->
     <defs>
      <path d="M 18.3125 70.21875 
L 18.3125 54.6875 
L 36.8125 54.6875 
L 36.8125 47.703125 
L 18.3125 47.703125 
L 18.3125 18.015625 
Q 18.3125 11.328125 20.140625 9.421875 
Q 21.96875 7.515625 27.59375 7.515625 
L 36.8125 7.515625 
L 36.8125 0 
L 27.59375 0 
Q 17.1875 0 13.234375 3.875 
Q 9.28125 7.765625 9.28125 18.015625 
L 9.28125 47.703125 
L 2.6875 47.703125 
L 2.6875 54.6875 
L 9.28125 54.6875 
L 9.28125 70.21875 
z
" id="DejaVuSans-116"/>
      <path d="M 9.421875 54.6875 
L 18.40625 54.6875 
L 18.40625 0 
L 9.421875 0 
z
M 9.421875 75.984375 
L 18.40625 75.984375 
L 18.40625 64.59375 
L 9.421875 64.59375 
z
" id="DejaVuSans-105"/>
      <path d="M 54.890625 33.015625 
L 54.890625 0 
L 45.90625 0 
L 45.90625 32.71875 
Q 45.90625 40.484375 42.875 44.328125 
Q 39.84375 48.1875 33.796875 48.1875 
Q 26.515625 48.1875 22.3125 43.546875 
Q 18.109375 38.921875 18.109375 30.90625 
L 18.109375 0 
L 9.078125 0 
L 9.078125 54.6875 
L 18.109375 54.6875 
L 18.109375 46.1875 
Q 21.34375 51.125 25.703125 53.5625 
Q 30.078125 56 35.796875 56 
Q 45.21875 56 50.046875 50.171875 
Q 54.890625 44.34375 54.890625 33.015625 
z
" id="DejaVuSans-110"/>
      <path d="M 45.40625 27.984375 
Q 45.40625 37.75 41.375 43.109375 
Q 37.359375 48.484375 30.078125 48.484375 
Q 22.859375 48.484375 18.828125 43.109375 
Q 14.796875 37.75 14.796875 27.984375 
Q 14.796875 18.265625 18.828125 12.890625 
Q 22.859375 7.515625 30.078125 7.515625 
Q 37.359375 7.515625 41.375 12.890625 
Q 45.40625 18.265625 45.40625 27.984375 
z
M 54.390625 6.78125 
Q 54.390625 -7.171875 48.1875 -13.984375 
Q 42 -20.796875 29.203125 -20.796875 
Q 24.46875 -20.796875 20.265625 -20.09375 
Q 16.0625 -19.390625 12.109375 -17.921875 
L 12.109375 -9.1875 
Q 16.0625 -11.328125 19.921875 -12.34375 
Q 23.78125 -13.375 27.78125 -13.375 
Q 36.625 -13.375 41.015625 -8.765625 
Q 45.40625 -4.15625 45.40625 5.171875 
L 45.40625 9.625 
Q 42.625 4.78125 38.28125 2.390625 
Q 33.9375 0 27.875 0 
Q 17.828125 0 11.671875 7.65625 
Q 5.515625 15.328125 5.515625 27.984375 
Q 5.515625 40.671875 11.671875 48.328125 
Q 17.828125 56 27.875 56 
Q 33.9375 56 38.28125 53.609375 
Q 42.625 51.21875 45.40625 46.390625 
L 45.40625 54.6875 
L 54.390625 54.6875 
z
" id="DejaVuSans-103"/>
     </defs>
     <g style="fill:#262626;" transform="translate(324.742188 52.818281)scale(0.11 -0.11)">
      <use xlink:href="#DejaVuSans-116"/>
      <use x="39.208984" xlink:href="#DejaVuSans-114"/>
      <use x="80.322266" xlink:href="#DejaVuSans-97"/>
      <use x="141.601562" xlink:href="#DejaVuSans-105"/>
      <use x="169.384766" xlink:href="#DejaVuSans-110"/>
      <use x="232.763672" xlink:href="#DejaVuSans-105"/>
      <use x="260.546875" xlink:href="#DejaVuSans-110"/>
      <use x="323.925781" xlink:href="#DejaVuSans-103"/>
     </g>
    </g>
    <g id="line2d_17">
     <path d="M 293.942187 65.114219 
L 315.942187 65.114219 
" style="fill:none;stroke:#dd8452;stroke-linecap:round;stroke-width:1.5;"/>
    </g>
    <g id="line2d_18"/>
    <g id="text_16">
     <!-- validation -->
     <defs>
      <path d="M 2.984375 54.6875 
L 12.5 54.6875 
L 29.59375 8.796875 
L 46.6875 54.6875 
L 56.203125 54.6875 
L 35.6875 0 
L 23.484375 0 
z
" id="DejaVuSans-118"/>
      <path d="M 9.421875 75.984375 
L 18.40625 75.984375 
L 18.40625 0 
L 9.421875 0 
z
" id="DejaVuSans-108"/>
      <path d="M 45.40625 46.390625 
L 45.40625 75.984375 
L 54.390625 75.984375 
L 54.390625 0 
L 45.40625 0 
L 45.40625 8.203125 
Q 42.578125 3.328125 38.25 0.953125 
Q 33.9375 -1.421875 27.875 -1.421875 
Q 17.96875 -1.421875 11.734375 6.484375 
Q 5.515625 14.40625 5.515625 27.296875 
Q 5.515625 40.1875 11.734375 48.09375 
Q 17.96875 56 27.875 56 
Q 33.9375 56 38.25 53.625 
Q 42.578125 51.265625 45.40625 46.390625 
z
M 14.796875 27.296875 
Q 14.796875 17.390625 18.875 11.75 
Q 22.953125 6.109375 30.078125 6.109375 
Q 37.203125 6.109375 41.296875 11.75 
Q 45.40625 17.390625 45.40625 27.296875 
Q 45.40625 37.203125 41.296875 42.84375 
Q 37.203125 48.484375 30.078125 48.484375 
Q 22.953125 48.484375 18.875 42.84375 
Q 14.796875 37.203125 14.796875 27.296875 
z
" id="DejaVuSans-100"/>
     </defs>
     <g style="fill:#262626;" transform="translate(324.742188 68.964219)scale(0.11 -0.11)">
      <use xlink:href="#DejaVuSans-118"/>
      <use x="59.179688" xlink:href="#DejaVuSans-97"/>
      <use x="120.458984" xlink:href="#DejaVuSans-108"/>
      <use x="148.242188" xlink:href="#DejaVuSans-105"/>
      <use x="176.025391" xlink:href="#DejaVuSans-100"/>
      <use x="239.501953" xlink:href="#DejaVuSans-97"/>
      <use x="300.78125" xlink:href="#DejaVuSans-116"/>
      <use x="339.990234" xlink:href="#DejaVuSans-105"/>
      <use x="367.773438" xlink:href="#DejaVuSans-111"/>
      <use x="428.955078" xlink:href="#DejaVuSans-110"/>
     </g>
    </g>
   </g>
  </g>
 </g>
 <defs>
  <clipPath id="p2dc3418be4">
   <rect height="217.44" width="334.8" x="54" y="34.56"/>
  </clipPath>
 </defs>
</svg>
