<?xml version="1.0" encoding="utf-8" standalone="no"?>
<!DOCTYPE svg PUBLIC "-//W3C//DTD SVG 1.1//EN"
  "http://www.w3.org/Graphics/SVG/1.1/DTD/svg11.dtd">
<!-- Created with matplotlib (https://matplotlib.org/) -->
<svg height="288pt" version="1.1" viewBox="0 0 432 288" width="432pt" xmlns="http://www.w3.org/2000/svg" xmlns:xlink="http://www.w3.org/1999/xlink">
 <metadata>
  <rdf:RDF xmlns:cc="http://creativecommons.org/ns#" xmlns:dc="http://purl.org/dc/elements/1.1/" xmlns:rdf="http://www.w3.org/1999/02/22-rdf-syntax-ns#">
   <cc:Work>
    <dc:type rdf:resource="http://purl.org/dc/dcmitype/StillImage"/>
    <dc:date>2020-07-21T20:24:43.477688</dc:date>
    <dc:format>image/svg+xml</dc:format>
    <dc:creator>
     <cc:Agent>
      <dc:title>Matplotlib v3.3.0, https://matplotlib.org/</dc:title>
     </cc:Agent>
    </dc:creator>
   </cc:Work>
  </rdf:RDF>
 </metadata>
 <defs>
  <style type="text/css">*{stroke-linecap:butt;stroke-linejoin:round;}</style>
 </defs>
 <g id="figure_1">
  <g id="patch_1">
   <path d="M 0 288 
L 432 288 
L 432 0 
L 0 0 
z
" style="fill:#ffffff;"/>
  </g>
  <g id="axes_1">
   <g id="patch_2">
    <path d="M 54 252 
L 388.8 252 
L 388.8 34.56 
L 54 34.56 
z
" style="fill:#eaeaf2;"/>
   </g>
   <g id="matplotlib.axis_1">
    <g id="xtick_1">
     <g id="line2d_1">
      <path clip-path="url(#p937235d61b)" d="M 69.218182 252 
L 69.218182 34.56 
" style="fill:none;stroke:#ffffff;stroke-linecap:round;"/>
     </g>
     <g id="text_1">
      <!-- 0 -->
      <g style="fill:#262626;" transform="translate(66.159666 269.373594)scale(0.11 -0.11)">
       <defs>
        <path d="M 4.15625 35.296875 
Q 4.15625 48 6.765625 55.734375 
Q 9.375 63.484375 14.515625 67.671875 
Q 19.671875 71.875 27.484375 71.875 
Q 33.25 71.875 37.59375 69.546875 
Q 41.9375 67.234375 44.765625 62.859375 
Q 47.609375 58.5 49.21875 52.21875 
Q 50.828125 45.953125 50.828125 35.296875 
Q 50.828125 22.703125 48.234375 14.96875 
Q 45.65625 7.234375 40.5 3 
Q 35.359375 -1.21875 27.484375 -1.21875 
Q 17.140625 -1.21875 11.234375 6.203125 
Q 4.15625 15.140625 4.15625 35.296875 
z
M 13.1875 35.296875 
Q 13.1875 17.671875 17.3125 11.828125 
Q 21.4375 6 27.484375 6 
Q 33.546875 6 37.671875 11.859375 
Q 41.796875 17.71875 41.796875 35.296875 
Q 41.796875 52.984375 37.671875 58.78125 
Q 33.546875 64.59375 27.390625 64.59375 
Q 21.34375 64.59375 17.71875 59.46875 
Q 13.1875 52.9375 13.1875 35.296875 
z
" id="ArialMT-48"/>
       </defs>
       <use xlink:href="#ArialMT-48"/>
      </g>
     </g>
    </g>
    <g id="xtick_2">
     <g id="line2d_2">
      <path clip-path="url(#p937235d61b)" d="M 108.952338 252 
L 108.952338 34.56 
" style="fill:none;stroke:#ffffff;stroke-linecap:round;"/>
     </g>
     <g id="text_2">
      <!-- 50 -->
      <g style="fill:#262626;" transform="translate(102.835307 269.373594)scale(0.11 -0.11)">
       <defs>
        <path d="M 4.15625 18.75 
L 13.375 19.53125 
Q 14.40625 12.796875 18.140625 9.390625 
Q 21.875 6 27.15625 6 
Q 33.5 6 37.890625 10.78125 
Q 42.28125 15.578125 42.28125 23.484375 
Q 42.28125 31 38.0625 35.34375 
Q 33.84375 39.703125 27 39.703125 
Q 22.75 39.703125 19.328125 37.765625 
Q 15.921875 35.84375 13.96875 32.765625 
L 5.71875 33.84375 
L 12.640625 70.609375 
L 48.25 70.609375 
L 48.25 62.203125 
L 19.671875 62.203125 
L 15.828125 42.96875 
Q 22.265625 47.46875 29.34375 47.46875 
Q 38.71875 47.46875 45.15625 40.96875 
Q 51.609375 34.46875 51.609375 24.265625 
Q 51.609375 14.546875 45.953125 7.46875 
Q 39.0625 -1.21875 27.15625 -1.21875 
Q 17.390625 -1.21875 11.203125 4.25 
Q 5.03125 9.71875 4.15625 18.75 
z
" id="ArialMT-53"/>
       </defs>
       <use xlink:href="#ArialMT-53"/>
       <use x="55.615234" xlink:href="#ArialMT-48"/>
      </g>
     </g>
    </g>
    <g id="xtick_3">
     <g id="line2d_3">
      <path clip-path="url(#p937235d61b)" d="M 148.686494 252 
L 148.686494 34.56 
" style="fill:none;stroke:#ffffff;stroke-linecap:round;"/>
     </g>
     <g id="text_3">
      <!-- 100 -->
      <g style="fill:#262626;" transform="translate(139.510947 269.373594)scale(0.11 -0.11)">
       <defs>
        <path d="M 37.25 0 
L 28.46875 0 
L 28.46875 56 
Q 25.296875 52.984375 20.140625 49.953125 
Q 14.984375 46.921875 10.890625 45.40625 
L 10.890625 53.90625 
Q 18.265625 57.375 23.78125 62.296875 
Q 29.296875 67.234375 31.59375 71.875 
L 37.25 71.875 
z
" id="ArialMT-49"/>
       </defs>
       <use xlink:href="#ArialMT-49"/>
       <use x="55.615234" xlink:href="#ArialMT-48"/>
       <use x="111.230469" xlink:href="#ArialMT-48"/>
      </g>
     </g>
    </g>
    <g id="xtick_4">
     <g id="line2d_4">
      <path clip-path="url(#p937235d61b)" d="M 188.42065 252 
L 188.42065 34.56 
" style="fill:none;stroke:#ffffff;stroke-linecap:round;"/>
     </g>
     <g id="text_4">
      <!-- 150 -->
      <g style="fill:#262626;" transform="translate(179.245103 269.373594)scale(0.11 -0.11)">
       <use xlink:href="#ArialMT-49"/>
       <use x="55.615234" xlink:href="#ArialMT-53"/>
       <use x="111.230469" xlink:href="#ArialMT-48"/>
      </g>
     </g>
    </g>
    <g id="xtick_5">
     <g id="line2d_5">
      <path clip-path="url(#p937235d61b)" d="M 228.154807 252 
L 228.154807 34.56 
" style="fill:none;stroke:#ffffff;stroke-linecap:round;"/>
     </g>
     <g id="text_5">
      <!-- 200 -->
      <g style="fill:#262626;" transform="translate(218.97926 269.373594)scale(0.11 -0.11)">
       <defs>
        <path d="M 50.34375 8.453125 
L 50.34375 0 
L 3.03125 0 
Q 2.9375 3.171875 4.046875 6.109375 
Q 5.859375 10.9375 9.828125 15.625 
Q 13.8125 20.3125 21.34375 26.46875 
Q 33.015625 36.03125 37.109375 41.625 
Q 41.21875 47.21875 41.21875 52.203125 
Q 41.21875 57.421875 37.46875 61 
Q 33.734375 64.59375 27.734375 64.59375 
Q 21.390625 64.59375 17.578125 60.78125 
Q 13.765625 56.984375 13.71875 50.25 
L 4.6875 51.171875 
Q 5.609375 61.28125 11.65625 66.578125 
Q 17.71875 71.875 27.9375 71.875 
Q 38.234375 71.875 44.234375 66.15625 
Q 50.25 60.453125 50.25 52 
Q 50.25 47.703125 48.484375 43.546875 
Q 46.734375 39.40625 42.65625 34.8125 
Q 38.578125 30.21875 29.109375 22.21875 
Q 21.1875 15.578125 18.9375 13.203125 
Q 16.703125 10.84375 15.234375 8.453125 
z
" id="ArialMT-50"/>
       </defs>
       <use xlink:href="#ArialMT-50"/>
       <use x="55.615234" xlink:href="#ArialMT-48"/>
       <use x="111.230469" xlink:href="#ArialMT-48"/>
      </g>
     </g>
    </g>
    <g id="xtick_6">
     <g id="line2d_6">
      <path clip-path="url(#p937235d61b)" d="M 267.888963 252 
L 267.888963 34.56 
" style="fill:none;stroke:#ffffff;stroke-linecap:round;"/>
     </g>
     <g id="text_6">
      <!-- 250 -->
      <g style="fill:#262626;" transform="translate(258.713416 269.373594)scale(0.11 -0.11)">
       <use xlink:href="#ArialMT-50"/>
       <use x="55.615234" xlink:href="#ArialMT-53"/>
       <use x="111.230469" xlink:href="#ArialMT-48"/>
      </g>
     </g>
    </g>
    <g id="xtick_7">
     <g id="line2d_7">
      <path clip-path="url(#p937235d61b)" d="M 307.623119 252 
L 307.623119 34.56 
" style="fill:none;stroke:#ffffff;stroke-linecap:round;"/>
     </g>
     <g id="text_7">
      <!-- 300 -->
      <g style="fill:#262626;" transform="translate(298.447572 269.373594)scale(0.11 -0.11)">
       <defs>
        <path d="M 4.203125 18.890625 
L 12.984375 20.0625 
Q 14.5 12.59375 18.140625 9.296875 
Q 21.78125 6 27 6 
Q 33.203125 6 37.46875 10.296875 
Q 41.75 14.59375 41.75 20.953125 
Q 41.75 27 37.796875 30.921875 
Q 33.84375 34.859375 27.734375 34.859375 
Q 25.25 34.859375 21.53125 33.890625 
L 22.515625 41.609375 
Q 23.390625 41.5 23.921875 41.5 
Q 29.546875 41.5 34.03125 44.421875 
Q 38.53125 47.359375 38.53125 53.46875 
Q 38.53125 58.296875 35.25 61.46875 
Q 31.984375 64.65625 26.8125 64.65625 
Q 21.6875 64.65625 18.265625 61.421875 
Q 14.84375 58.203125 13.875 51.765625 
L 5.078125 53.328125 
Q 6.6875 62.15625 12.390625 67.015625 
Q 18.109375 71.875 26.609375 71.875 
Q 32.46875 71.875 37.390625 69.359375 
Q 42.328125 66.84375 44.9375 62.5 
Q 47.5625 58.15625 47.5625 53.265625 
Q 47.5625 48.640625 45.0625 44.828125 
Q 42.578125 41.015625 37.703125 38.765625 
Q 44.046875 37.3125 47.5625 32.6875 
Q 51.078125 28.078125 51.078125 21.140625 
Q 51.078125 11.765625 44.234375 5.25 
Q 37.40625 -1.265625 26.953125 -1.265625 
Q 17.53125 -1.265625 11.296875 4.34375 
Q 5.078125 9.96875 4.203125 18.890625 
z
" id="ArialMT-51"/>
       </defs>
       <use xlink:href="#ArialMT-51"/>
       <use x="55.615234" xlink:href="#ArialMT-48"/>
       <use x="111.230469" xlink:href="#ArialMT-48"/>
      </g>
     </g>
    </g>
    <g id="xtick_8">
     <g id="line2d_8">
      <path clip-path="url(#p937235d61b)" d="M 347.357275 252 
L 347.357275 34.56 
" style="fill:none;stroke:#ffffff;stroke-linecap:round;"/>
     </g>
     <g id="text_8">
      <!-- 350 -->
      <g style="fill:#262626;" transform="translate(338.181728 269.373594)scale(0.11 -0.11)">
       <use xlink:href="#ArialMT-51"/>
       <use x="55.615234" xlink:href="#ArialMT-53"/>
       <use x="111.230469" xlink:href="#ArialMT-48"/>
      </g>
     </g>
    </g>
    <g id="xtick_9">
     <g id="line2d_9">
      <path clip-path="url(#p937235d61b)" d="M 387.091431 252 
L 387.091431 34.56 
" style="fill:none;stroke:#ffffff;stroke-linecap:round;"/>
     </g>
     <g id="text_9">
      <!-- 400 -->
      <g style="fill:#262626;" transform="translate(377.915884 269.373594)scale(0.11 -0.11)">
       <defs>
        <path d="M 32.328125 0 
L 32.328125 17.140625 
L 1.265625 17.140625 
L 1.265625 25.203125 
L 33.9375 71.578125 
L 41.109375 71.578125 
L 41.109375 25.203125 
L 50.78125 25.203125 
L 50.78125 17.140625 
L 41.109375 17.140625 
L 41.109375 0 
z
M 32.328125 25.203125 
L 32.328125 57.46875 
L 9.90625 25.203125 
z
" id="ArialMT-52"/>
       </defs>
       <use xlink:href="#ArialMT-52"/>
       <use x="55.615234" xlink:href="#ArialMT-48"/>
       <use x="111.230469" xlink:href="#ArialMT-48"/>
      </g>
     </g>
    </g>
    <g id="text_10">
     <!-- Epoch -->
     <g style="fill:#262626;" transform="translate(204.388125 284.149219)scale(0.12 -0.12)">
      <defs>
       <path d="M 7.90625 0 
L 7.90625 71.578125 
L 59.671875 71.578125 
L 59.671875 63.140625 
L 17.390625 63.140625 
L 17.390625 41.21875 
L 56.984375 41.21875 
L 56.984375 32.8125 
L 17.390625 32.8125 
L 17.390625 8.453125 
L 61.328125 8.453125 
L 61.328125 0 
z
" id="ArialMT-69"/>
       <path d="M 6.59375 -19.875 
L 6.59375 51.859375 
L 14.59375 51.859375 
L 14.59375 45.125 
Q 17.4375 49.078125 21 51.046875 
Q 24.5625 53.03125 29.640625 53.03125 
Q 36.28125 53.03125 41.359375 49.609375 
Q 46.4375 46.1875 49.015625 39.953125 
Q 51.609375 33.734375 51.609375 26.3125 
Q 51.609375 18.359375 48.75 11.984375 
Q 45.90625 5.609375 40.453125 2.21875 
Q 35.015625 -1.171875 29 -1.171875 
Q 24.609375 -1.171875 21.109375 0.6875 
Q 17.625 2.546875 15.375 5.375 
L 15.375 -19.875 
z
M 14.546875 25.640625 
Q 14.546875 15.625 18.59375 10.84375 
Q 22.65625 6.0625 28.421875 6.0625 
Q 34.28125 6.0625 38.453125 11.015625 
Q 42.625 15.96875 42.625 26.375 
Q 42.625 36.28125 38.546875 41.203125 
Q 34.46875 46.140625 28.8125 46.140625 
Q 23.1875 46.140625 18.859375 40.890625 
Q 14.546875 35.640625 14.546875 25.640625 
z
" id="ArialMT-112"/>
       <path d="M 3.328125 25.921875 
Q 3.328125 40.328125 11.328125 47.265625 
Q 18.015625 53.03125 27.640625 53.03125 
Q 38.328125 53.03125 45.109375 46.015625 
Q 51.90625 39.015625 51.90625 26.65625 
Q 51.90625 16.65625 48.90625 10.90625 
Q 45.90625 5.171875 40.15625 2 
Q 34.421875 -1.171875 27.640625 -1.171875 
Q 16.75 -1.171875 10.03125 5.8125 
Q 3.328125 12.796875 3.328125 25.921875 
z
M 12.359375 25.921875 
Q 12.359375 15.96875 16.703125 11.015625 
Q 21.046875 6.0625 27.640625 6.0625 
Q 34.1875 6.0625 38.53125 11.03125 
Q 42.875 16.015625 42.875 26.21875 
Q 42.875 35.84375 38.5 40.796875 
Q 34.125 45.75 27.640625 45.75 
Q 21.046875 45.75 16.703125 40.8125 
Q 12.359375 35.890625 12.359375 25.921875 
z
" id="ArialMT-111"/>
       <path d="M 40.4375 19 
L 49.078125 17.875 
Q 47.65625 8.9375 41.8125 3.875 
Q 35.984375 -1.171875 27.484375 -1.171875 
Q 16.84375 -1.171875 10.375 5.78125 
Q 3.90625 12.75 3.90625 25.734375 
Q 3.90625 34.125 6.6875 40.421875 
Q 9.46875 46.734375 15.15625 49.875 
Q 20.84375 53.03125 27.546875 53.03125 
Q 35.984375 53.03125 41.359375 48.75 
Q 46.734375 44.484375 48.25 36.625 
L 39.703125 35.296875 
Q 38.484375 40.53125 35.375 43.15625 
Q 32.28125 45.796875 27.875 45.796875 
Q 21.234375 45.796875 17.078125 41.03125 
Q 12.9375 36.28125 12.9375 25.984375 
Q 12.9375 15.53125 16.9375 10.796875 
Q 20.953125 6.0625 27.390625 6.0625 
Q 32.5625 6.0625 36.03125 9.234375 
Q 39.5 12.40625 40.4375 19 
z
" id="ArialMT-99"/>
       <path d="M 6.59375 0 
L 6.59375 71.578125 
L 15.375 71.578125 
L 15.375 45.90625 
Q 21.53125 53.03125 30.90625 53.03125 
Q 36.671875 53.03125 40.921875 50.75 
Q 45.171875 48.484375 47 44.484375 
Q 48.828125 40.484375 48.828125 32.859375 
L 48.828125 0 
L 40.046875 0 
L 40.046875 32.859375 
Q 40.046875 39.453125 37.1875 42.453125 
Q 34.328125 45.453125 29.109375 45.453125 
Q 25.203125 45.453125 21.75 43.421875 
Q 18.3125 41.40625 16.84375 37.9375 
Q 15.375 34.46875 15.375 28.375 
L 15.375 0 
z
" id="ArialMT-104"/>
      </defs>
      <use xlink:href="#ArialMT-69"/>
      <use x="66.699219" xlink:href="#ArialMT-112"/>
      <use x="122.314453" xlink:href="#ArialMT-111"/>
      <use x="177.929688" xlink:href="#ArialMT-99"/>
      <use x="227.929688" xlink:href="#ArialMT-104"/>
     </g>
    </g>
   </g>
   <g id="matplotlib.axis_2">
    <g id="ytick_1">
     <g id="line2d_10">
      <path clip-path="url(#p937235d61b)" d="M 54 233.976898 
L 388.8 233.976898 
" style="fill:none;stroke:#ffffff;stroke-linecap:round;"/>
     </g>
     <g id="text_11">
      <!-- 0.4 -->
      <g style="fill:#262626;" transform="translate(29.21 237.913695)scale(0.11 -0.11)">
       <defs>
        <path d="M 9.078125 0 
L 9.078125 10.015625 
L 19.09375 10.015625 
L 19.09375 0 
z
" id="ArialMT-46"/>
       </defs>
       <use xlink:href="#ArialMT-48"/>
       <use x="55.615234" xlink:href="#ArialMT-46"/>
       <use x="83.398438" xlink:href="#ArialMT-52"/>
      </g>
     </g>
    </g>
    <g id="ytick_2">
     <g id="line2d_11">
      <path clip-path="url(#p937235d61b)" d="M 54 202.388021 
L 388.8 202.388021 
" style="fill:none;stroke:#ffffff;stroke-linecap:round;"/>
     </g>
     <g id="text_12">
      <!-- 0.5 -->
      <g style="fill:#262626;" transform="translate(29.21 206.324818)scale(0.11 -0.11)">
       <use xlink:href="#ArialMT-48"/>
       <use x="55.615234" xlink:href="#ArialMT-46"/>
       <use x="83.398438" xlink:href="#ArialMT-53"/>
      </g>
     </g>
    </g>
    <g id="ytick_3">
     <g id="line2d_12">
      <path clip-path="url(#p937235d61b)" d="M 54 170.799144 
L 388.8 170.799144 
" style="fill:none;stroke:#ffffff;stroke-linecap:round;"/>
     </g>
     <g id="text_13">
      <!-- 0.6 -->
      <g style="fill:#262626;" transform="translate(29.21 174.735941)scale(0.11 -0.11)">
       <defs>
        <path d="M 49.75 54.046875 
L 41.015625 53.375 
Q 39.84375 58.546875 37.703125 60.890625 
Q 34.125 64.65625 28.90625 64.65625 
Q 24.703125 64.65625 21.53125 62.3125 
Q 17.390625 59.28125 14.984375 53.46875 
Q 12.59375 47.65625 12.5 36.921875 
Q 15.671875 41.75 20.265625 44.09375 
Q 24.859375 46.4375 29.890625 46.4375 
Q 38.671875 46.4375 44.84375 39.96875 
Q 51.03125 33.5 51.03125 23.25 
Q 51.03125 16.5 48.125 10.71875 
Q 45.21875 4.9375 40.140625 1.859375 
Q 35.0625 -1.21875 28.609375 -1.21875 
Q 17.625 -1.21875 10.6875 6.859375 
Q 3.765625 14.9375 3.765625 33.5 
Q 3.765625 54.25 11.421875 63.671875 
Q 18.109375 71.875 29.4375 71.875 
Q 37.890625 71.875 43.28125 67.140625 
Q 48.6875 62.40625 49.75 54.046875 
z
M 13.875 23.1875 
Q 13.875 18.65625 15.796875 14.5 
Q 17.71875 10.359375 21.1875 8.171875 
Q 24.65625 6 28.46875 6 
Q 34.03125 6 38.03125 10.484375 
Q 42.046875 14.984375 42.046875 22.703125 
Q 42.046875 30.125 38.078125 34.390625 
Q 34.125 38.671875 28.125 38.671875 
Q 22.171875 38.671875 18.015625 34.390625 
Q 13.875 30.125 13.875 23.1875 
z
" id="ArialMT-54"/>
       </defs>
       <use xlink:href="#ArialMT-48"/>
       <use x="55.615234" xlink:href="#ArialMT-46"/>
       <use x="83.398438" xlink:href="#ArialMT-54"/>
      </g>
     </g>
    </g>
    <g id="ytick_4">
     <g id="line2d_13">
      <path clip-path="url(#p937235d61b)" d="M 54 139.210267 
L 388.8 139.210267 
" style="fill:none;stroke:#ffffff;stroke-linecap:round;"/>
     </g>
     <g id="text_14">
      <!-- 0.7 -->
      <g style="fill:#262626;" transform="translate(29.21 143.147064)scale(0.11 -0.11)">
       <defs>
        <path d="M 4.734375 62.203125 
L 4.734375 70.65625 
L 51.078125 70.65625 
L 51.078125 63.8125 
Q 44.234375 56.546875 37.515625 44.484375 
Q 30.8125 32.421875 27.15625 19.671875 
Q 24.515625 10.6875 23.78125 0 
L 14.75 0 
Q 14.890625 8.453125 18.0625 20.40625 
Q 21.234375 32.375 27.171875 43.484375 
Q 33.109375 54.59375 39.796875 62.203125 
z
" id="ArialMT-55"/>
       </defs>
       <use xlink:href="#ArialMT-48"/>
       <use x="55.615234" xlink:href="#ArialMT-46"/>
       <use x="83.398438" xlink:href="#ArialMT-55"/>
      </g>
     </g>
    </g>
    <g id="ytick_5">
     <g id="line2d_14">
      <path clip-path="url(#p937235d61b)" d="M 54 107.62139 
L 388.8 107.62139 
" style="fill:none;stroke:#ffffff;stroke-linecap:round;"/>
     </g>
     <g id="text_15">
      <!-- 0.8 -->
      <g style="fill:#262626;" transform="translate(29.21 111.558187)scale(0.11 -0.11)">
       <defs>
        <path d="M 17.671875 38.8125 
Q 12.203125 40.828125 9.5625 44.53125 
Q 6.9375 48.25 6.9375 53.421875 
Q 6.9375 61.234375 12.546875 66.546875 
Q 18.171875 71.875 27.484375 71.875 
Q 36.859375 71.875 42.578125 66.421875 
Q 48.296875 60.984375 48.296875 53.171875 
Q 48.296875 48.1875 45.671875 44.5 
Q 43.0625 40.828125 37.75 38.8125 
Q 44.34375 36.671875 47.78125 31.875 
Q 51.21875 27.09375 51.21875 20.453125 
Q 51.21875 11.28125 44.71875 5.03125 
Q 38.234375 -1.21875 27.640625 -1.21875 
Q 17.046875 -1.21875 10.546875 5.046875 
Q 4.046875 11.328125 4.046875 20.703125 
Q 4.046875 27.6875 7.59375 32.390625 
Q 11.140625 37.109375 17.671875 38.8125 
z
M 15.921875 53.71875 
Q 15.921875 48.640625 19.1875 45.40625 
Q 22.46875 42.1875 27.6875 42.1875 
Q 32.765625 42.1875 36.015625 45.375 
Q 39.265625 48.578125 39.265625 53.21875 
Q 39.265625 58.0625 35.90625 61.359375 
Q 32.5625 64.65625 27.59375 64.65625 
Q 22.5625 64.65625 19.234375 61.421875 
Q 15.921875 58.203125 15.921875 53.71875 
z
M 13.09375 20.65625 
Q 13.09375 16.890625 14.875 13.375 
Q 16.65625 9.859375 20.171875 7.921875 
Q 23.6875 6 27.734375 6 
Q 34.03125 6 38.125 10.046875 
Q 42.234375 14.109375 42.234375 20.359375 
Q 42.234375 26.703125 38.015625 30.859375 
Q 33.796875 35.015625 27.4375 35.015625 
Q 21.234375 35.015625 17.15625 30.90625 
Q 13.09375 26.8125 13.09375 20.65625 
z
" id="ArialMT-56"/>
       </defs>
       <use xlink:href="#ArialMT-48"/>
       <use x="55.615234" xlink:href="#ArialMT-46"/>
       <use x="83.398438" xlink:href="#ArialMT-56"/>
      </g>
     </g>
    </g>
    <g id="ytick_6">
     <g id="line2d_15">
      <path clip-path="url(#p937235d61b)" d="M 54 76.032513 
L 388.8 76.032513 
" style="fill:none;stroke:#ffffff;stroke-linecap:round;"/>
     </g>
     <g id="text_16">
      <!-- 0.9 -->
      <g style="fill:#262626;" transform="translate(29.21 79.96931)scale(0.11 -0.11)">
       <defs>
        <path d="M 5.46875 16.546875 
L 13.921875 17.328125 
Q 14.984375 11.375 18.015625 8.6875 
Q 21.046875 6 25.78125 6 
Q 29.828125 6 32.875 7.859375 
Q 35.9375 9.71875 37.890625 12.8125 
Q 39.84375 15.921875 41.15625 21.1875 
Q 42.484375 26.46875 42.484375 31.9375 
Q 42.484375 32.515625 42.4375 33.6875 
Q 39.796875 29.5 35.234375 26.875 
Q 30.671875 24.265625 25.34375 24.265625 
Q 16.453125 24.265625 10.296875 30.703125 
Q 4.15625 37.15625 4.15625 47.703125 
Q 4.15625 58.59375 10.578125 65.234375 
Q 17 71.875 26.65625 71.875 
Q 33.640625 71.875 39.421875 68.109375 
Q 45.21875 64.359375 48.21875 57.390625 
Q 51.21875 50.4375 51.21875 37.25 
Q 51.21875 23.53125 48.234375 15.40625 
Q 45.265625 7.28125 39.375 3.03125 
Q 33.5 -1.21875 25.59375 -1.21875 
Q 17.1875 -1.21875 11.859375 3.4375 
Q 6.546875 8.109375 5.46875 16.546875 
z
M 41.453125 48.140625 
Q 41.453125 55.71875 37.421875 60.15625 
Q 33.40625 64.59375 27.734375 64.59375 
Q 21.875 64.59375 17.53125 59.8125 
Q 13.1875 55.03125 13.1875 47.40625 
Q 13.1875 40.578125 17.3125 36.296875 
Q 21.4375 32.03125 27.484375 32.03125 
Q 33.59375 32.03125 37.515625 36.296875 
Q 41.453125 40.578125 41.453125 48.140625 
z
" id="ArialMT-57"/>
       </defs>
       <use xlink:href="#ArialMT-48"/>
       <use x="55.615234" xlink:href="#ArialMT-46"/>
       <use x="83.398438" xlink:href="#ArialMT-57"/>
      </g>
     </g>
    </g>
    <g id="ytick_7">
     <g id="line2d_16">
      <path clip-path="url(#p937235d61b)" d="M 54 44.443636 
L 388.8 44.443636 
" style="fill:none;stroke:#ffffff;stroke-linecap:round;"/>
     </g>
     <g id="text_17">
      <!-- 1.0 -->
      <g style="fill:#262626;" transform="translate(29.21 48.380433)scale(0.11 -0.11)">
       <use xlink:href="#ArialMT-49"/>
       <use x="55.615234" xlink:href="#ArialMT-46"/>
       <use x="83.398438" xlink:href="#ArialMT-48"/>
      </g>
     </g>
    </g>
    <g id="text_18">
     <!-- Accuracy -->
     <g style="fill:#262626;" transform="translate(22.684375 167.953125)rotate(-90)scale(0.12 -0.12)">
      <defs>
       <path d="M -0.140625 0 
L 27.34375 71.578125 
L 37.546875 71.578125 
L 66.84375 0 
L 56.0625 0 
L 47.703125 21.6875 
L 17.78125 21.6875 
L 9.90625 0 
z
M 20.515625 29.390625 
L 44.78125 29.390625 
L 37.3125 49.21875 
Q 33.890625 58.25 32.234375 64.0625 
Q 30.859375 57.171875 28.375 50.390625 
z
" id="ArialMT-65"/>
       <path d="M 40.578125 0 
L 40.578125 7.625 
Q 34.515625 -1.171875 24.125 -1.171875 
Q 19.53125 -1.171875 15.546875 0.578125 
Q 11.578125 2.34375 9.640625 5 
Q 7.71875 7.671875 6.9375 11.53125 
Q 6.390625 14.109375 6.390625 19.734375 
L 6.390625 51.859375 
L 15.1875 51.859375 
L 15.1875 23.09375 
Q 15.1875 16.21875 15.71875 13.8125 
Q 16.546875 10.359375 19.234375 8.375 
Q 21.921875 6.390625 25.875 6.390625 
Q 29.828125 6.390625 33.296875 8.421875 
Q 36.765625 10.453125 38.203125 13.9375 
Q 39.65625 17.4375 39.65625 24.078125 
L 39.65625 51.859375 
L 48.4375 51.859375 
L 48.4375 0 
z
" id="ArialMT-117"/>
       <path d="M 6.5 0 
L 6.5 51.859375 
L 14.40625 51.859375 
L 14.40625 44 
Q 17.4375 49.515625 20 51.265625 
Q 22.5625 53.03125 25.640625 53.03125 
Q 30.078125 53.03125 34.671875 50.203125 
L 31.640625 42.046875 
Q 28.421875 43.953125 25.203125 43.953125 
Q 22.3125 43.953125 20.015625 42.21875 
Q 17.71875 40.484375 16.75 37.40625 
Q 15.28125 32.71875 15.28125 27.15625 
L 15.28125 0 
z
" id="ArialMT-114"/>
       <path d="M 40.4375 6.390625 
Q 35.546875 2.25 31.03125 0.53125 
Q 26.515625 -1.171875 21.34375 -1.171875 
Q 12.796875 -1.171875 8.203125 3 
Q 3.609375 7.171875 3.609375 13.671875 
Q 3.609375 17.484375 5.34375 20.625 
Q 7.078125 23.78125 9.890625 25.6875 
Q 12.703125 27.59375 16.21875 28.5625 
Q 18.796875 29.25 24.03125 29.890625 
Q 34.671875 31.15625 39.703125 32.90625 
Q 39.75 34.71875 39.75 35.203125 
Q 39.75 40.578125 37.25 42.78125 
Q 33.890625 45.75 27.25 45.75 
Q 21.046875 45.75 18.09375 43.578125 
Q 15.140625 41.40625 13.71875 35.890625 
L 5.125 37.0625 
Q 6.296875 42.578125 8.984375 45.96875 
Q 11.671875 49.359375 16.75 51.1875 
Q 21.828125 53.03125 28.515625 53.03125 
Q 35.15625 53.03125 39.296875 51.46875 
Q 43.453125 49.90625 45.40625 47.53125 
Q 47.359375 45.171875 48.140625 41.546875 
Q 48.578125 39.3125 48.578125 33.453125 
L 48.578125 21.734375 
Q 48.578125 9.46875 49.140625 6.21875 
Q 49.703125 2.984375 51.375 0 
L 42.1875 0 
Q 40.828125 2.734375 40.4375 6.390625 
z
M 39.703125 26.03125 
Q 34.90625 24.078125 25.34375 22.703125 
Q 19.921875 21.921875 17.671875 20.9375 
Q 15.4375 19.96875 14.203125 18.09375 
Q 12.984375 16.21875 12.984375 13.921875 
Q 12.984375 10.40625 15.640625 8.0625 
Q 18.3125 5.71875 23.4375 5.71875 
Q 28.515625 5.71875 32.46875 7.9375 
Q 36.421875 10.15625 38.28125 14.015625 
Q 39.703125 17 39.703125 22.796875 
z
" id="ArialMT-97"/>
       <path d="M 6.203125 -19.96875 
L 5.21875 -11.71875 
Q 8.109375 -12.5 10.25 -12.5 
Q 13.1875 -12.5 14.9375 -11.515625 
Q 16.703125 -10.546875 17.828125 -8.796875 
Q 18.65625 -7.46875 20.515625 -2.25 
Q 20.75 -1.515625 21.296875 -0.09375 
L 1.609375 51.859375 
L 11.078125 51.859375 
L 21.875 21.828125 
Q 23.96875 16.109375 25.640625 9.8125 
Q 27.15625 15.875 29.25 21.625 
L 40.328125 51.859375 
L 49.125 51.859375 
L 29.390625 -0.875 
Q 26.21875 -9.421875 24.46875 -12.640625 
Q 22.125 -17 19.09375 -19.015625 
Q 16.0625 -21.046875 11.859375 -21.046875 
Q 9.328125 -21.046875 6.203125 -19.96875 
z
" id="ArialMT-121"/>
      </defs>
      <use xlink:href="#ArialMT-65"/>
      <use x="66.699219" xlink:href="#ArialMT-99"/>
      <use x="116.699219" xlink:href="#ArialMT-99"/>
      <use x="166.699219" xlink:href="#ArialMT-117"/>
      <use x="222.314453" xlink:href="#ArialMT-114"/>
      <use x="255.615234" xlink:href="#ArialMT-97"/>
      <use x="311.230469" xlink:href="#ArialMT-99"/>
      <use x="361.230469" xlink:href="#ArialMT-121"/>
     </g>
    </g>
   </g>
   <g id="line2d_17">
    <path clip-path="url(#p937235d61b)" d="M 69.218182 197.34441 
L 70.012865 176.639096 
L 70.807548 171.330042 
L 71.602231 161.242838 
L 73.191597 181.417246 
L 73.986281 178.231813 
L 74.780964 171.330042 
L 75.575647 162.835554 
L 76.37033 168.675515 
L 77.165013 167.613704 
L 77.959696 164.428271 
L 78.754379 160.711933 
L 79.549062 171.860947 
L 80.343746 154.341067 
L 81.138429 160.181027 
L 81.933112 161.773744 
L 82.727795 154.871973 
L 83.522478 159.650122 
L 84.317161 162.835554 
L 85.111844 156.995594 
L 85.906527 162.835554 
L 86.701211 162.835554 
L 87.495894 155.402878 
L 88.290577 152.748351 
L 89.08526 154.341067 
L 89.879943 153.810162 
L 90.674626 155.402878 
L 91.469309 153.279256 
L 92.263992 154.871973 
L 93.058676 140.00662 
L 93.853359 151.155634 
L 94.648042 141.599336 
L 95.442725 150.093823 
L 96.237408 144.253863 
L 97.032091 143.722958 
L 97.826774 149.032012 
L 98.621457 138.944809 
L 99.416141 138.413903 
L 101.005507 127.264888 
L 101.80019 124.079456 
L 102.594873 130.450321 
L 103.389556 125.672172 
L 104.184239 132.043038 
L 104.978922 129.919416 
L 105.773606 129.38851 
L 106.568289 128.326699 
L 107.362972 129.38851 
L 108.157655 128.326699 
L 108.952338 118.239496 
L 109.747021 110.275914 
L 110.541704 126.203078 
L 111.336387 125.141267 
L 112.13107 123.54855 
L 112.925754 123.017645 
L 113.720437 123.017645 
L 114.51512 104.966859 
L 115.309803 117.177685 
L 116.104486 112.399536 
L 116.899169 109.745008 
L 117.693852 108.152292 
L 118.488535 109.745008 
L 119.283219 103.905048 
L 120.077902 100.719615 
L 120.872585 107.090481 
L 121.667268 93.817844 
L 122.461951 87.977884 
L 123.256634 99.126899 
L 124.051317 102.843237 
L 124.846 98.595994 
L 125.640684 91.694223 
L 126.435367 98.065088 
L 127.23005 123.017645 
L 128.024733 125.672172 
L 128.819416 113.461346 
L 130.408782 100.719615 
L 131.203465 99.126899 
L 131.998149 103.905048 
L 132.792832 86.916073 
L 133.587515 101.781426 
L 134.382198 101.250521 
L 135.176881 99.126899 
L 135.971564 92.225128 
L 136.766247 99.126899 
L 137.56093 89.039695 
L 138.355614 91.163317 
L 139.150297 90.101506 
L 139.94498 82.137924 
L 140.739663 88.50879 
L 141.534346 82.137924 
L 142.329029 83.199735 
L 143.123712 76.82887 
L 143.918395 82.66883 
L 144.713079 81.076113 
L 145.507762 80.545208 
L 146.302445 81.607019 
L 147.097128 81.076113 
L 147.891811 73.112531 
L 148.686494 82.137924 
L 149.481177 75.767059 
L 150.27586 77.359775 
L 151.070544 68.865288 
L 151.865227 76.297964 
L 153.454593 70.988909 
L 154.249276 65.679855 
L 155.043959 84.261546 
L 155.838642 64.618044 
L 156.633325 70.988909 
L 157.428009 74.174342 
L 158.222692 74.174342 
L 159.017375 68.865288 
L 160.606741 65.679855 
L 162.196107 68.865288 
L 162.99079 68.865288 
L 163.785474 65.679855 
L 164.580157 69.927099 
L 165.37484 61.432611 
L 166.964206 70.458004 
L 167.758889 66.741666 
L 168.553572 70.988909 
L 169.348255 67.803477 
L 170.142939 61.963517 
L 170.937622 67.272571 
L 171.732305 69.396193 
L 172.526988 64.087138 
L 173.321671 61.963517 
L 174.116354 71.519815 
L 174.911037 61.432611 
L 175.70572 60.901706 
L 176.500404 65.679855 
L 177.295087 60.901706 
L 178.08977 61.432611 
L 178.884453 64.087138 
L 179.679136 60.901706 
L 180.473819 56.123557 
L 181.268502 59.308989 
L 182.063185 58.778084 
L 182.857869 59.839895 
L 183.652552 56.654462 
L 184.447235 58.778084 
L 185.241918 61.963517 
L 186.036601 59.839895 
L 186.831284 58.778084 
L 187.625967 63.025328 
L 188.42065 60.3708 
L 190.010017 60.3708 
L 190.8047 63.556233 
L 191.599383 59.308989 
L 192.394066 58.247178 
L 193.188749 59.839895 
L 193.983432 53.999935 
L 194.778115 55.061746 
L 195.572798 53.999935 
L 196.367482 64.618044 
L 197.162165 59.839895 
L 197.956848 65.148949 
L 198.751531 53.999935 
L 199.546214 59.839895 
L 200.340897 60.901706 
L 201.13558 55.061746 
L 201.930263 60.901706 
L 202.724947 55.592651 
L 203.51963 61.963517 
L 204.314313 64.618044 
L 205.108996 53.469029 
L 205.903679 56.123557 
L 206.698362 56.123557 
L 207.493045 62.494422 
L 208.287728 53.469029 
L 209.082412 50.814502 
L 209.877095 53.999935 
L 210.671778 59.308989 
L 211.466461 55.061746 
L 213.055827 58.247178 
L 213.85051 60.901706 
L 214.645193 52.938124 
L 215.439877 55.592651 
L 216.23456 54.53084 
L 217.029243 51.876313 
L 217.823926 53.999935 
L 218.618609 53.999935 
L 219.413292 51.345407 
L 220.207975 55.592651 
L 221.002658 55.061746 
L 221.797342 56.654462 
L 222.592025 53.469029 
L 223.386708 53.999935 
L 224.181391 57.716273 
L 224.976074 55.061746 
L 225.770757 53.999935 
L 226.56544 54.53084 
L 228.94949 52.938124 
L 229.744173 63.556233 
L 230.538856 58.247178 
L 231.333539 51.345407 
L 232.128222 53.469029 
L 232.922905 54.53084 
L 233.717588 60.901706 
L 234.512272 59.839895 
L 235.306955 53.999935 
L 236.101638 58.778084 
L 236.896321 57.716273 
L 237.691004 58.778084 
L 238.485687 49.752691 
L 239.28037 51.345407 
L 240.075053 55.592651 
L 240.869737 56.654462 
L 241.66442 52.938124 
L 242.459103 47.629069 
L 243.253786 55.061746 
L 244.048469 53.999935 
L 244.843152 52.407218 
L 245.637835 52.407218 
L 246.432518 56.654462 
L 247.227202 55.592651 
L 248.021885 53.999935 
L 248.816568 54.53084 
L 249.611251 53.999935 
L 250.405934 54.53084 
L 251.200617 48.159975 
L 251.9953 55.061746 
L 252.789983 51.345407 
L 253.584667 48.69088 
L 254.37935 55.061746 
L 255.174033 48.69088 
L 255.968716 50.283596 
L 256.763399 54.53084 
L 257.558082 52.938124 
L 258.352765 56.654462 
L 259.147448 63.025328 
L 259.942131 50.814502 
L 260.736815 51.345407 
L 261.531498 52.407218 
L 262.326181 56.123557 
L 263.120864 50.283596 
L 263.915547 50.283596 
L 264.71023 53.469029 
L 265.504913 48.69088 
L 266.299596 54.53084 
L 267.09428 50.814502 
L 267.888963 50.283596 
L 268.683646 52.407218 
L 269.478329 51.876313 
L 270.273012 50.283596 
L 271.067695 47.629069 
L 271.862378 52.407218 
L 272.657061 50.283596 
L 273.451745 50.814502 
L 275.041111 47.629069 
L 275.835794 57.185367 
L 276.630477 46.036353 
L 277.42516 49.221786 
L 278.219843 48.69088 
L 279.014526 52.407218 
L 279.80921 51.345407 
L 280.603893 47.098164 
L 281.398576 48.159975 
L 282.193259 47.629069 
L 282.987942 49.752691 
L 283.782625 48.159975 
L 284.577308 50.283596 
L 285.371991 54.53084 
L 286.166675 50.283596 
L 286.961358 49.221786 
L 287.756041 52.407218 
L 288.550724 51.345407 
L 289.345407 49.752691 
L 290.14009 52.407218 
L 290.934773 48.159975 
L 291.729456 49.221786 
L 293.318823 49.221786 
L 294.113506 46.567258 
L 294.908189 46.036353 
L 295.702872 48.159975 
L 296.497555 46.567258 
L 297.292238 50.283596 
L 298.086921 49.221786 
L 298.881605 48.69088 
L 299.676288 52.407218 
L 300.470971 50.283596 
L 301.265654 48.69088 
L 302.060337 55.592651 
L 302.85502 50.814502 
L 303.649703 51.345407 
L 304.444386 49.752691 
L 305.23907 49.221786 
L 306.033753 49.752691 
L 306.828436 46.036353 
L 307.623119 47.629069 
L 308.417802 49.752691 
L 309.212485 46.567258 
L 310.007168 51.876313 
L 310.801851 55.061746 
L 311.596535 48.69088 
L 313.185901 48.69088 
L 313.980584 49.221786 
L 314.775267 56.654462 
L 315.56995 51.345407 
L 317.954 49.752691 
L 318.748683 48.69088 
L 319.543366 48.69088 
L 320.338049 51.876313 
L 321.927415 47.629069 
L 323.516781 47.629069 
L 324.311465 49.221786 
L 325.106148 47.098164 
L 325.900831 52.407218 
L 326.695514 48.159975 
L 328.28488 50.283596 
L 329.079563 47.098164 
L 329.874246 50.814502 
L 330.66893 47.629069 
L 331.463613 48.159975 
L 332.258296 47.629069 
L 333.052979 48.69088 
L 333.847662 47.629069 
L 334.642345 46.036353 
L 335.437028 48.69088 
L 336.231711 55.592651 
L 337.026394 50.283596 
L 337.821078 50.283596 
L 338.615761 48.159975 
L 339.410444 51.876313 
L 340.205127 51.876313 
L 340.99981 48.159975 
L 341.794493 48.159975 
L 342.589176 49.752691 
L 343.383859 45.505447 
L 344.178543 49.752691 
L 344.973226 48.159975 
L 345.767909 49.752691 
L 346.562592 49.221786 
L 347.357275 45.505447 
L 348.151958 48.159975 
L 348.946641 45.505447 
L 349.741324 46.036353 
L 350.536008 49.221786 
L 351.330691 46.567258 
L 352.125374 46.567258 
L 352.920057 49.221786 
L 353.71474 44.974542 
L 354.509423 48.159975 
L 356.098789 46.036353 
L 356.893473 51.345407 
L 357.688156 51.345407 
L 358.482839 48.69088 
L 359.277522 45.505447 
L 360.072205 48.159975 
L 360.866888 46.567258 
L 361.661571 45.505447 
L 362.456254 48.159975 
L 363.250938 46.567258 
L 364.045621 44.443636 
L 364.840304 44.443636 
L 365.634987 47.098164 
L 366.42967 50.814502 
L 367.224353 49.221786 
L 368.019036 48.159975 
L 368.813719 47.629069 
L 369.608403 46.036353 
L 370.403086 46.036353 
L 371.197769 51.345407 
L 371.992452 47.098164 
L 372.787135 46.567258 
L 373.581818 50.814502 
L 373.581818 50.814502 
" style="fill:none;stroke:#4c72b0;stroke-linecap:round;stroke-width:1.5;"/>
   </g>
   <g id="line2d_18">
    <path clip-path="url(#p937235d61b)" d="M 69.218182 170.411553 
L 70.012865 170.411553 
L 70.807548 178.163428 
L 71.602231 162.659678 
L 72.396914 178.163428 
L 73.191597 236.302462 
L 73.986281 189.791231 
L 74.780964 162.659678 
L 75.575647 149.093902 
L 76.37033 152.969848 
L 77.165013 139.404072 
L 77.959696 174.287481 
L 78.754379 238.240426 
L 79.549062 207.232945 
L 80.343746 170.411553 
L 81.138429 189.791231 
L 81.933112 193.667159 
L 82.727795 242.116364 
L 83.522478 168.47358 
L 84.317161 180.101383 
L 85.111844 131.652197 
L 85.906527 145.217973 
L 86.701211 211.108873 
L 87.495894 199.481061 
L 88.290577 195.605133 
L 89.08526 199.481061 
L 89.879943 234.364489 
L 91.469309 234.364489 
L 92.263992 228.550587 
L 93.058676 174.287481 
L 93.853359 226.612623 
L 94.648042 209.170909 
L 95.442725 160.721705 
L 96.237408 158.78375 
L 97.032091 182.039356 
L 97.826774 162.659678 
L 98.621457 232.426525 
L 99.416141 220.798712 
L 100.210824 234.364489 
L 101.005507 176.225455 
L 101.80019 166.535606 
L 102.594873 214.984811 
L 103.389556 168.47358 
L 104.184239 189.791231 
L 105.773606 152.969848 
L 106.568289 178.163428 
L 107.362972 170.411553 
L 108.157655 180.101383 
L 108.952338 154.907803 
L 109.747021 170.411553 
L 110.541704 156.845777 
L 111.336387 154.907803 
L 112.13107 164.597651 
L 112.925754 149.093902 
L 113.720437 156.845777 
L 114.51512 172.349526 
L 115.309803 178.163428 
L 116.104486 166.535606 
L 116.899169 164.597651 
L 117.693852 156.845777 
L 118.488535 160.721705 
L 120.077902 160.721705 
L 120.872585 162.659678 
L 121.667268 160.721705 
L 122.461951 154.907803 
L 123.256634 178.163428 
L 124.051317 195.605133 
L 124.846 152.969848 
L 125.640684 145.217973 
L 126.435367 236.302462 
L 127.23005 164.597651 
L 128.024733 162.659678 
L 128.819416 141.342027 
L 130.408782 156.845777 
L 131.203465 152.969848 
L 131.998149 160.721705 
L 132.792832 218.860748 
L 133.587515 156.845777 
L 134.382198 201.419034 
L 135.176881 164.597651 
L 135.971564 154.907803 
L 136.766247 162.659678 
L 137.56093 168.47358 
L 138.355614 168.47358 
L 139.150297 166.535606 
L 139.94498 160.721705 
L 140.739663 172.349526 
L 141.534346 160.721705 
L 142.329029 162.659678 
L 143.123712 176.225455 
L 143.918395 162.659678 
L 144.713079 156.845777 
L 145.507762 168.47358 
L 146.302445 183.97733 
L 147.097128 170.411553 
L 147.891811 162.659678 
L 148.686494 174.287481 
L 149.481177 164.597651 
L 150.27586 151.031875 
L 151.070544 164.597651 
L 151.865227 162.659678 
L 152.65991 168.47358 
L 153.454593 154.907803 
L 154.249276 178.163428 
L 155.043959 162.659678 
L 155.838642 162.659678 
L 156.633325 170.411553 
L 158.222692 174.287481 
L 159.017375 172.349526 
L 159.812058 174.287481 
L 160.606741 172.349526 
L 161.401424 178.163428 
L 162.196107 164.597651 
L 162.99079 174.287481 
L 163.785474 160.721705 
L 164.580157 168.47358 
L 165.37484 172.349526 
L 166.169523 147.155928 
L 166.964206 158.78375 
L 167.758889 156.845777 
L 168.553572 158.78375 
L 170.142939 166.535606 
L 170.937622 180.101383 
L 171.732305 158.78375 
L 172.526988 170.411553 
L 173.321671 172.349526 
L 174.116354 166.535606 
L 174.911037 156.845777 
L 175.70572 170.411553 
L 176.500404 172.349526 
L 177.295087 162.659678 
L 178.08977 174.287481 
L 179.679136 162.659678 
L 180.473819 158.78375 
L 181.268502 174.287481 
L 182.063185 168.47358 
L 182.857869 230.488551 
L 183.652552 164.597651 
L 184.447235 162.659678 
L 185.241918 166.535606 
L 186.036601 145.217973 
L 186.831284 158.78375 
L 188.42065 158.78375 
L 189.215333 152.969848 
L 190.010017 189.791231 
L 190.8047 149.093902 
L 191.599383 156.845777 
L 192.394066 149.093902 
L 193.188749 176.225455 
L 193.983432 152.969848 
L 194.778115 154.907803 
L 195.572798 168.47358 
L 196.367482 162.659678 
L 197.162165 180.101383 
L 197.956848 152.969848 
L 198.751531 170.411553 
L 199.546214 176.225455 
L 200.340897 152.969848 
L 201.13558 149.093902 
L 201.930263 149.093902 
L 202.724947 152.969848 
L 203.51963 162.659678 
L 204.314313 160.721705 
L 205.108996 154.907803 
L 205.903679 152.969848 
L 206.698362 154.907803 
L 207.493045 149.093902 
L 209.877095 154.907803 
L 210.671778 180.101383 
L 211.466461 154.907803 
L 212.261144 143.28 
L 213.055827 151.031875 
L 213.85051 172.349526 
L 214.645193 154.907803 
L 215.439877 174.287481 
L 216.23456 156.845777 
L 217.029243 162.659678 
L 217.823926 170.411553 
L 218.618609 162.659678 
L 219.413292 152.969848 
L 220.207975 160.721705 
L 221.002658 154.907803 
L 221.797342 170.411553 
L 222.592025 147.155928 
L 223.386708 151.031875 
L 224.976074 143.28 
L 225.770757 158.78375 
L 226.56544 154.907803 
L 227.360123 149.093902 
L 228.154807 164.597651 
L 228.94949 156.845777 
L 229.744173 166.535606 
L 230.538856 145.217973 
L 231.333539 158.78375 
L 232.128222 147.155928 
L 232.922905 154.907803 
L 233.717588 160.721705 
L 234.512272 160.721705 
L 235.306955 152.969848 
L 236.101638 168.47358 
L 236.896321 211.108873 
L 237.691004 154.907803 
L 238.485687 154.907803 
L 239.28037 149.093902 
L 240.075053 176.225455 
L 240.869737 149.093902 
L 241.66442 149.093902 
L 242.459103 152.969848 
L 243.253786 158.78375 
L 244.048469 160.721705 
L 244.843152 158.78375 
L 245.637835 162.659678 
L 246.432518 156.845777 
L 247.227202 149.093902 
L 248.021885 149.093902 
L 249.611251 164.597651 
L 250.405934 152.969848 
L 251.200617 145.217973 
L 253.584667 156.845777 
L 254.37935 162.659678 
L 255.174033 154.907803 
L 255.968716 158.78375 
L 256.763399 189.791231 
L 257.558082 172.349526 
L 258.352765 147.155928 
L 259.147448 147.155928 
L 259.942131 149.093902 
L 260.736815 158.78375 
L 261.531498 145.217973 
L 262.326181 160.721705 
L 263.120864 152.969848 
L 263.915547 149.093902 
L 264.71023 139.404072 
L 265.504913 168.47358 
L 266.299596 160.721705 
L 267.09428 147.155928 
L 267.888963 145.217973 
L 268.683646 154.907803 
L 269.478329 154.907803 
L 270.273012 151.031875 
L 271.067695 151.031875 
L 271.862378 182.039356 
L 272.657061 162.659678 
L 273.451745 162.659678 
L 274.246428 152.969848 
L 275.041111 147.155928 
L 275.835794 154.907803 
L 276.630477 149.093902 
L 277.42516 147.155928 
L 278.219843 154.907803 
L 279.014526 149.093902 
L 279.80921 149.093902 
L 280.603893 151.031875 
L 281.398576 147.155928 
L 282.193259 145.217973 
L 282.987942 152.969848 
L 283.782625 143.28 
L 284.577308 149.093902 
L 285.371991 152.969848 
L 286.166675 162.659678 
L 286.961358 168.47358 
L 287.756041 160.721705 
L 288.550724 154.907803 
L 289.345407 156.845777 
L 290.14009 151.031875 
L 290.934773 141.342027 
L 291.729456 152.969848 
L 292.52414 154.907803 
L 293.318823 143.28 
L 294.113506 149.093902 
L 294.908189 156.845777 
L 295.702872 149.093902 
L 296.497555 149.093902 
L 297.292238 156.845777 
L 298.086921 160.721705 
L 298.881605 160.721705 
L 299.676288 158.78375 
L 300.470971 154.907803 
L 301.265654 154.907803 
L 302.85502 170.411553 
L 303.649703 168.47358 
L 304.444386 152.969848 
L 305.23907 145.217973 
L 306.033753 149.093902 
L 306.828436 156.845777 
L 307.623119 151.031875 
L 308.417802 180.101383 
L 309.212485 158.78375 
L 310.007168 152.969848 
L 310.801851 154.907803 
L 311.596535 170.411553 
L 312.391218 151.031875 
L 313.185901 149.093902 
L 313.980584 166.535606 
L 314.775267 152.969848 
L 315.56995 158.78375 
L 317.159316 158.78375 
L 317.954 162.659678 
L 318.748683 156.845777 
L 319.543366 158.78375 
L 320.338049 156.845777 
L 321.927415 156.845777 
L 322.722098 160.721705 
L 323.516781 152.969848 
L 324.311465 154.907803 
L 325.106148 149.093902 
L 325.900831 147.155928 
L 327.490197 166.535606 
L 328.28488 170.411553 
L 329.079563 158.78375 
L 329.874246 162.659678 
L 330.66893 154.907803 
L 331.463613 154.907803 
L 332.258296 152.969848 
L 333.052979 156.845777 
L 333.847662 149.093902 
L 334.642345 152.969848 
L 335.437028 174.287481 
L 336.231711 156.845777 
L 337.026394 160.721705 
L 337.821078 152.969848 
L 339.410444 160.721705 
L 340.205127 160.721705 
L 340.99981 152.969848 
L 341.794493 154.907803 
L 342.589176 174.287481 
L 343.383859 147.155928 
L 344.178543 166.535606 
L 345.767909 166.535606 
L 346.562592 152.969848 
L 347.357275 147.155928 
L 348.151958 152.969848 
L 348.946641 152.969848 
L 349.741324 168.47358 
L 350.536008 164.597651 
L 351.330691 162.659678 
L 352.125374 166.535606 
L 352.920057 151.031875 
L 353.71474 160.721705 
L 354.509423 166.535606 
L 355.304106 164.597651 
L 356.098789 154.907803 
L 356.893473 164.597651 
L 357.688156 170.411553 
L 358.482839 151.031875 
L 360.072205 158.78375 
L 360.866888 158.78375 
L 361.661571 164.597651 
L 362.456254 154.907803 
L 363.250938 143.28 
L 364.045621 162.659678 
L 364.840304 152.969848 
L 365.634987 176.225455 
L 366.42967 191.729205 
L 367.224353 182.039356 
L 368.019036 156.845777 
L 368.813719 152.969848 
L 370.403086 152.969848 
L 371.197769 149.093902 
L 371.992452 152.969848 
L 372.787135 151.031875 
L 373.581818 147.155928 
L 373.581818 147.155928 
" style="fill:none;stroke:#dd8452;stroke-linecap:round;stroke-width:1.5;"/>
   </g>
   <g id="patch_3">
    <path d="M 54 252 
L 54 34.56 
" style="fill:none;stroke:#ffffff;stroke-linecap:square;stroke-linejoin:miter;stroke-width:1.25;"/>
   </g>
   <g id="patch_4">
    <path d="M 388.8 252 
L 388.8 34.56 
" style="fill:none;stroke:#ffffff;stroke-linecap:square;stroke-linejoin:miter;stroke-width:1.25;"/>
   </g>
   <g id="patch_5">
    <path d="M 54 252 
L 388.8 252 
" style="fill:none;stroke:#ffffff;stroke-linecap:square;stroke-linejoin:miter;stroke-width:1.25;"/>
   </g>
   <g id="patch_6">
    <path d="M 54 34.56 
L 388.8 34.56 
" style="fill:none;stroke:#ffffff;stroke-linecap:square;stroke-linejoin:miter;stroke-width:1.25;"/>
   </g>
   <g id="legend_1">
    <g id="patch_7">
     <path d="M 299.426719 74.608594 
L 381.1 74.608594 
Q 383.3 74.608594 383.3 72.408594 
L 383.3 42.26 
Q 383.3 40.06 381.1 40.06 
L 299.426719 40.06 
Q 297.226719 40.06 297.226719 42.26 
L 297.226719 72.408594 
Q 297.226719 74.608594 299.426719 74.608594 
z
" style="fill:#eaeaf2;opacity:0.8;stroke:#cccccc;stroke-linejoin:miter;"/>
    </g>
    <g id="line2d_19">
     <path d="M 301.626719 48.483594 
L 323.626719 48.483594 
" style="fill:none;stroke:#4c72b0;stroke-linecap:round;stroke-width:1.5;"/>
    </g>
    <g id="line2d_20"/>
    <g id="text_19">
     <!-- training -->
     <g style="fill:#262626;" transform="translate(332.426719 52.333594)scale(0.11 -0.11)">
      <defs>
       <path d="M 25.78125 7.859375 
L 27.046875 0.09375 
Q 23.34375 -0.6875 20.40625 -0.6875 
Q 15.625 -0.6875 12.984375 0.828125 
Q 10.359375 2.34375 9.28125 4.8125 
Q 8.203125 7.28125 8.203125 15.1875 
L 8.203125 45.015625 
L 1.765625 45.015625 
L 1.765625 51.859375 
L 8.203125 51.859375 
L 8.203125 64.703125 
L 16.9375 69.96875 
L 16.9375 51.859375 
L 25.78125 51.859375 
L 25.78125 45.015625 
L 16.9375 45.015625 
L 16.9375 14.703125 
Q 16.9375 10.9375 17.40625 9.859375 
Q 17.875 8.796875 18.921875 8.15625 
Q 19.96875 7.515625 21.921875 7.515625 
Q 23.390625 7.515625 25.78125 7.859375 
z
" id="ArialMT-116"/>
       <path d="M 6.640625 61.46875 
L 6.640625 71.578125 
L 15.4375 71.578125 
L 15.4375 61.46875 
z
M 6.640625 0 
L 6.640625 51.859375 
L 15.4375 51.859375 
L 15.4375 0 
z
" id="ArialMT-105"/>
       <path d="M 6.59375 0 
L 6.59375 51.859375 
L 14.5 51.859375 
L 14.5 44.484375 
Q 20.21875 53.03125 31 53.03125 
Q 35.6875 53.03125 39.625 51.34375 
Q 43.5625 49.65625 45.515625 46.921875 
Q 47.46875 44.1875 48.25 40.4375 
Q 48.734375 37.984375 48.734375 31.890625 
L 48.734375 0 
L 39.9375 0 
L 39.9375 31.546875 
Q 39.9375 36.921875 38.90625 39.578125 
Q 37.890625 42.234375 35.28125 43.8125 
Q 32.671875 45.40625 29.15625 45.40625 
Q 23.53125 45.40625 19.453125 41.84375 
Q 15.375 38.28125 15.375 28.328125 
L 15.375 0 
z
" id="ArialMT-110"/>
       <path d="M 4.984375 -4.296875 
L 13.53125 -5.5625 
Q 14.0625 -9.515625 16.5 -11.328125 
Q 19.78125 -13.765625 25.4375 -13.765625 
Q 31.546875 -13.765625 34.859375 -11.328125 
Q 38.1875 -8.890625 39.359375 -4.5 
Q 40.046875 -1.8125 39.984375 6.78125 
Q 34.234375 0 25.640625 0 
Q 14.9375 0 9.078125 7.71875 
Q 3.21875 15.4375 3.21875 26.21875 
Q 3.21875 33.640625 5.90625 39.90625 
Q 8.59375 46.1875 13.6875 49.609375 
Q 18.796875 53.03125 25.6875 53.03125 
Q 34.859375 53.03125 40.828125 45.609375 
L 40.828125 51.859375 
L 48.921875 51.859375 
L 48.921875 7.03125 
Q 48.921875 -5.078125 46.453125 -10.125 
Q 44 -15.1875 38.640625 -18.109375 
Q 33.296875 -21.046875 25.484375 -21.046875 
Q 16.21875 -21.046875 10.5 -16.875 
Q 4.78125 -12.703125 4.984375 -4.296875 
z
M 12.25 26.859375 
Q 12.25 16.65625 16.296875 11.96875 
Q 20.359375 7.28125 26.46875 7.28125 
Q 32.515625 7.28125 36.609375 11.9375 
Q 40.71875 16.609375 40.71875 26.5625 
Q 40.71875 36.078125 36.5 40.90625 
Q 32.28125 45.75 26.3125 45.75 
Q 20.453125 45.75 16.34375 40.984375 
Q 12.25 36.234375 12.25 26.859375 
z
" id="ArialMT-103"/>
      </defs>
      <use xlink:href="#ArialMT-116"/>
      <use x="27.783203" xlink:href="#ArialMT-114"/>
      <use x="61.083984" xlink:href="#ArialMT-97"/>
      <use x="116.699219" xlink:href="#ArialMT-105"/>
      <use x="138.916016" xlink:href="#ArialMT-110"/>
      <use x="194.53125" xlink:href="#ArialMT-105"/>
      <use x="216.748047" xlink:href="#ArialMT-110"/>
      <use x="272.363281" xlink:href="#ArialMT-103"/>
     </g>
    </g>
    <g id="line2d_21">
     <path d="M 301.626719 64.172344 
L 323.626719 64.172344 
" style="fill:none;stroke:#dd8452;stroke-linecap:round;stroke-width:1.5;"/>
    </g>
    <g id="line2d_22"/>
    <g id="text_20">
     <!-- validation -->
     <g style="fill:#262626;" transform="translate(332.426719 68.022344)scale(0.11 -0.11)">
      <defs>
       <path d="M 21 0 
L 1.265625 51.859375 
L 10.546875 51.859375 
L 21.6875 20.796875 
Q 23.484375 15.765625 25 10.359375 
Q 26.171875 14.453125 28.265625 20.21875 
L 39.796875 51.859375 
L 48.828125 51.859375 
L 29.203125 0 
z
" id="ArialMT-118"/>
       <path d="M 6.390625 0 
L 6.390625 71.578125 
L 15.1875 71.578125 
L 15.1875 0 
z
" id="ArialMT-108"/>
       <path d="M 40.234375 0 
L 40.234375 6.546875 
Q 35.296875 -1.171875 25.734375 -1.171875 
Q 19.53125 -1.171875 14.328125 2.25 
Q 9.125 5.671875 6.265625 11.796875 
Q 3.421875 17.921875 3.421875 25.875 
Q 3.421875 33.640625 6 39.96875 
Q 8.59375 46.296875 13.765625 49.65625 
Q 18.953125 53.03125 25.34375 53.03125 
Q 30.03125 53.03125 33.6875 51.046875 
Q 37.359375 49.078125 39.65625 45.90625 
L 39.65625 71.578125 
L 48.390625 71.578125 
L 48.390625 0 
z
M 12.453125 25.875 
Q 12.453125 15.921875 16.640625 10.984375 
Q 20.84375 6.0625 26.5625 6.0625 
Q 32.328125 6.0625 36.34375 10.765625 
Q 40.375 15.484375 40.375 25.140625 
Q 40.375 35.796875 36.265625 40.765625 
Q 32.171875 45.75 26.171875 45.75 
Q 20.3125 45.75 16.375 40.96875 
Q 12.453125 36.1875 12.453125 25.875 
z
" id="ArialMT-100"/>
      </defs>
      <use xlink:href="#ArialMT-118"/>
      <use x="50" xlink:href="#ArialMT-97"/>
      <use x="105.615234" xlink:href="#ArialMT-108"/>
      <use x="127.832031" xlink:href="#ArialMT-105"/>
      <use x="150.048828" xlink:href="#ArialMT-100"/>
      <use x="205.664062" xlink:href="#ArialMT-97"/>
      <use x="261.279297" xlink:href="#ArialMT-116"/>
      <use x="289.0625" xlink:href="#ArialMT-105"/>
      <use x="311.279297" xlink:href="#ArialMT-111"/>
      <use x="366.894531" xlink:href="#ArialMT-110"/>
     </g>
    </g>
   </g>
  </g>
 </g>
 <defs>
  <clipPath id="p937235d61b">
   <rect height="217.44" width="334.8" x="54" y="34.56"/>
  </clipPath>
 </defs>
</svg>
