<?xml version="1.0" encoding="utf-8" standalone="no"?>
<!DOCTYPE svg PUBLIC "-//W3C//DTD SVG 1.1//EN"
  "http://www.w3.org/Graphics/SVG/1.1/DTD/svg11.dtd">
<!-- Created with matplotlib (https://matplotlib.org/) -->
<svg height="288pt" version="1.1" viewBox="0 0 432 288" width="432pt" xmlns="http://www.w3.org/2000/svg" xmlns:xlink="http://www.w3.org/1999/xlink">
 <metadata>
  <rdf:RDF xmlns:cc="http://creativecommons.org/ns#" xmlns:dc="http://purl.org/dc/elements/1.1/" xmlns:rdf="http://www.w3.org/1999/02/22-rdf-syntax-ns#">
   <cc:Work>
    <dc:type rdf:resource="http://purl.org/dc/dcmitype/StillImage"/>
    <dc:date>2020-07-20T21:38:23.982775</dc:date>
    <dc:format>image/svg+xml</dc:format>
    <dc:creator>
     <cc:Agent>
      <dc:title>Matplotlib v3.3.0, https://matplotlib.org/</dc:title>
     </cc:Agent>
    </dc:creator>
   </cc:Work>
  </rdf:RDF>
 </metadata>
 <defs>
  <style type="text/css">*{stroke-linecap:butt;stroke-linejoin:round;}</style>
 </defs>
 <g id="figure_1">
  <g id="patch_1">
   <path d="M 0 288 
L 432 288 
L 432 0 
L 0 0 
z
" style="fill:#ffffff;"/>
  </g>
  <g id="axes_1">
   <g id="patch_2">
    <path d="M 54 252 
L 388.8 252 
L 388.8 34.56 
L 54 34.56 
z
" style="fill:#eaeaf2;"/>
   </g>
   <g id="matplotlib.axis_1">
    <g id="xtick_1">
     <g id="line2d_1">
      <path clip-path="url(#p0d51c09ee4)" d="M 69.218182 252 
L 69.218182 34.56 
" style="fill:none;stroke:#ffffff;stroke-linecap:round;"/>
     </g>
     <g id="text_1">
      <!-- 0 -->
      <g style="fill:#262626;" transform="translate(66.159666 269.373594)scale(0.11 -0.11)">
       <defs>
        <path d="M 4.15625 35.296875 
Q 4.15625 48 6.765625 55.734375 
Q 9.375 63.484375 14.515625 67.671875 
Q 19.671875 71.875 27.484375 71.875 
Q 33.25 71.875 37.59375 69.546875 
Q 41.9375 67.234375 44.765625 62.859375 
Q 47.609375 58.5 49.21875 52.21875 
Q 50.828125 45.953125 50.828125 35.296875 
Q 50.828125 22.703125 48.234375 14.96875 
Q 45.65625 7.234375 40.5 3 
Q 35.359375 -1.21875 27.484375 -1.21875 
Q 17.140625 -1.21875 11.234375 6.203125 
Q 4.15625 15.140625 4.15625 35.296875 
z
M 13.1875 35.296875 
Q 13.1875 17.671875 17.3125 11.828125 
Q 21.4375 6 27.484375 6 
Q 33.546875 6 37.671875 11.859375 
Q 41.796875 17.71875 41.796875 35.296875 
Q 41.796875 52.984375 37.671875 58.78125 
Q 33.546875 64.59375 27.390625 64.59375 
Q 21.34375 64.59375 17.71875 59.46875 
Q 13.1875 52.9375 13.1875 35.296875 
z
" id="ArialMT-48"/>
       </defs>
       <use xlink:href="#ArialMT-48"/>
      </g>
     </g>
    </g>
    <g id="xtick_2">
     <g id="line2d_2">
      <path clip-path="url(#p0d51c09ee4)" d="M 125.16738 252 
L 125.16738 34.56 
" style="fill:none;stroke:#ffffff;stroke-linecap:round;"/>
     </g>
     <g id="text_2">
      <!-- 50 -->
      <g style="fill:#262626;" transform="translate(119.050348 269.373594)scale(0.11 -0.11)">
       <defs>
        <path d="M 4.15625 18.75 
L 13.375 19.53125 
Q 14.40625 12.796875 18.140625 9.390625 
Q 21.875 6 27.15625 6 
Q 33.5 6 37.890625 10.78125 
Q 42.28125 15.578125 42.28125 23.484375 
Q 42.28125 31 38.0625 35.34375 
Q 33.84375 39.703125 27 39.703125 
Q 22.75 39.703125 19.328125 37.765625 
Q 15.921875 35.84375 13.96875 32.765625 
L 5.71875 33.84375 
L 12.640625 70.609375 
L 48.25 70.609375 
L 48.25 62.203125 
L 19.671875 62.203125 
L 15.828125 42.96875 
Q 22.265625 47.46875 29.34375 47.46875 
Q 38.71875 47.46875 45.15625 40.96875 
Q 51.609375 34.46875 51.609375 24.265625 
Q 51.609375 14.546875 45.953125 7.46875 
Q 39.0625 -1.21875 27.15625 -1.21875 
Q 17.390625 -1.21875 11.203125 4.25 
Q 5.03125 9.71875 4.15625 18.75 
z
" id="ArialMT-53"/>
       </defs>
       <use xlink:href="#ArialMT-53"/>
       <use x="55.615234" xlink:href="#ArialMT-48"/>
      </g>
     </g>
    </g>
    <g id="xtick_3">
     <g id="line2d_3">
      <path clip-path="url(#p0d51c09ee4)" d="M 181.116578 252 
L 181.116578 34.56 
" style="fill:none;stroke:#ffffff;stroke-linecap:round;"/>
     </g>
     <g id="text_3">
      <!-- 100 -->
      <g style="fill:#262626;" transform="translate(171.941031 269.373594)scale(0.11 -0.11)">
       <defs>
        <path d="M 37.25 0 
L 28.46875 0 
L 28.46875 56 
Q 25.296875 52.984375 20.140625 49.953125 
Q 14.984375 46.921875 10.890625 45.40625 
L 10.890625 53.90625 
Q 18.265625 57.375 23.78125 62.296875 
Q 29.296875 67.234375 31.59375 71.875 
L 37.25 71.875 
z
" id="ArialMT-49"/>
       </defs>
       <use xlink:href="#ArialMT-49"/>
       <use x="55.615234" xlink:href="#ArialMT-48"/>
       <use x="111.230469" xlink:href="#ArialMT-48"/>
      </g>
     </g>
    </g>
    <g id="xtick_4">
     <g id="line2d_4">
      <path clip-path="url(#p0d51c09ee4)" d="M 237.065775 252 
L 237.065775 34.56 
" style="fill:none;stroke:#ffffff;stroke-linecap:round;"/>
     </g>
     <g id="text_4">
      <!-- 150 -->
      <g style="fill:#262626;" transform="translate(227.890229 269.373594)scale(0.11 -0.11)">
       <use xlink:href="#ArialMT-49"/>
       <use x="55.615234" xlink:href="#ArialMT-53"/>
       <use x="111.230469" xlink:href="#ArialMT-48"/>
      </g>
     </g>
    </g>
    <g id="xtick_5">
     <g id="line2d_5">
      <path clip-path="url(#p0d51c09ee4)" d="M 293.014973 252 
L 293.014973 34.56 
" style="fill:none;stroke:#ffffff;stroke-linecap:round;"/>
     </g>
     <g id="text_5">
      <!-- 200 -->
      <g style="fill:#262626;" transform="translate(283.839426 269.373594)scale(0.11 -0.11)">
       <defs>
        <path d="M 50.34375 8.453125 
L 50.34375 0 
L 3.03125 0 
Q 2.9375 3.171875 4.046875 6.109375 
Q 5.859375 10.9375 9.828125 15.625 
Q 13.8125 20.3125 21.34375 26.46875 
Q 33.015625 36.03125 37.109375 41.625 
Q 41.21875 47.21875 41.21875 52.203125 
Q 41.21875 57.421875 37.46875 61 
Q 33.734375 64.59375 27.734375 64.59375 
Q 21.390625 64.59375 17.578125 60.78125 
Q 13.765625 56.984375 13.71875 50.25 
L 4.6875 51.171875 
Q 5.609375 61.28125 11.65625 66.578125 
Q 17.71875 71.875 27.9375 71.875 
Q 38.234375 71.875 44.234375 66.15625 
Q 50.25 60.453125 50.25 52 
Q 50.25 47.703125 48.484375 43.546875 
Q 46.734375 39.40625 42.65625 34.8125 
Q 38.578125 30.21875 29.109375 22.21875 
Q 21.1875 15.578125 18.9375 13.203125 
Q 16.703125 10.84375 15.234375 8.453125 
z
" id="ArialMT-50"/>
       </defs>
       <use xlink:href="#ArialMT-50"/>
       <use x="55.615234" xlink:href="#ArialMT-48"/>
       <use x="111.230469" xlink:href="#ArialMT-48"/>
      </g>
     </g>
    </g>
    <g id="xtick_6">
     <g id="line2d_6">
      <path clip-path="url(#p0d51c09ee4)" d="M 348.964171 252 
L 348.964171 34.56 
" style="fill:none;stroke:#ffffff;stroke-linecap:round;"/>
     </g>
     <g id="text_6">
      <!-- 250 -->
      <g style="fill:#262626;" transform="translate(339.788624 269.373594)scale(0.11 -0.11)">
       <use xlink:href="#ArialMT-50"/>
       <use x="55.615234" xlink:href="#ArialMT-53"/>
       <use x="111.230469" xlink:href="#ArialMT-48"/>
      </g>
     </g>
    </g>
    <g id="text_7">
     <!-- Epoch -->
     <g style="fill:#262626;" transform="translate(204.388125 284.149219)scale(0.12 -0.12)">
      <defs>
       <path d="M 7.90625 0 
L 7.90625 71.578125 
L 59.671875 71.578125 
L 59.671875 63.140625 
L 17.390625 63.140625 
L 17.390625 41.21875 
L 56.984375 41.21875 
L 56.984375 32.8125 
L 17.390625 32.8125 
L 17.390625 8.453125 
L 61.328125 8.453125 
L 61.328125 0 
z
" id="ArialMT-69"/>
       <path d="M 6.59375 -19.875 
L 6.59375 51.859375 
L 14.59375 51.859375 
L 14.59375 45.125 
Q 17.4375 49.078125 21 51.046875 
Q 24.5625 53.03125 29.640625 53.03125 
Q 36.28125 53.03125 41.359375 49.609375 
Q 46.4375 46.1875 49.015625 39.953125 
Q 51.609375 33.734375 51.609375 26.3125 
Q 51.609375 18.359375 48.75 11.984375 
Q 45.90625 5.609375 40.453125 2.21875 
Q 35.015625 -1.171875 29 -1.171875 
Q 24.609375 -1.171875 21.109375 0.6875 
Q 17.625 2.546875 15.375 5.375 
L 15.375 -19.875 
z
M 14.546875 25.640625 
Q 14.546875 15.625 18.59375 10.84375 
Q 22.65625 6.0625 28.421875 6.0625 
Q 34.28125 6.0625 38.453125 11.015625 
Q 42.625 15.96875 42.625 26.375 
Q 42.625 36.28125 38.546875 41.203125 
Q 34.46875 46.140625 28.8125 46.140625 
Q 23.1875 46.140625 18.859375 40.890625 
Q 14.546875 35.640625 14.546875 25.640625 
z
" id="ArialMT-112"/>
       <path d="M 3.328125 25.921875 
Q 3.328125 40.328125 11.328125 47.265625 
Q 18.015625 53.03125 27.640625 53.03125 
Q 38.328125 53.03125 45.109375 46.015625 
Q 51.90625 39.015625 51.90625 26.65625 
Q 51.90625 16.65625 48.90625 10.90625 
Q 45.90625 5.171875 40.15625 2 
Q 34.421875 -1.171875 27.640625 -1.171875 
Q 16.75 -1.171875 10.03125 5.8125 
Q 3.328125 12.796875 3.328125 25.921875 
z
M 12.359375 25.921875 
Q 12.359375 15.96875 16.703125 11.015625 
Q 21.046875 6.0625 27.640625 6.0625 
Q 34.1875 6.0625 38.53125 11.03125 
Q 42.875 16.015625 42.875 26.21875 
Q 42.875 35.84375 38.5 40.796875 
Q 34.125 45.75 27.640625 45.75 
Q 21.046875 45.75 16.703125 40.8125 
Q 12.359375 35.890625 12.359375 25.921875 
z
" id="ArialMT-111"/>
       <path d="M 40.4375 19 
L 49.078125 17.875 
Q 47.65625 8.9375 41.8125 3.875 
Q 35.984375 -1.171875 27.484375 -1.171875 
Q 16.84375 -1.171875 10.375 5.78125 
Q 3.90625 12.75 3.90625 25.734375 
Q 3.90625 34.125 6.6875 40.421875 
Q 9.46875 46.734375 15.15625 49.875 
Q 20.84375 53.03125 27.546875 53.03125 
Q 35.984375 53.03125 41.359375 48.75 
Q 46.734375 44.484375 48.25 36.625 
L 39.703125 35.296875 
Q 38.484375 40.53125 35.375 43.15625 
Q 32.28125 45.796875 27.875 45.796875 
Q 21.234375 45.796875 17.078125 41.03125 
Q 12.9375 36.28125 12.9375 25.984375 
Q 12.9375 15.53125 16.9375 10.796875 
Q 20.953125 6.0625 27.390625 6.0625 
Q 32.5625 6.0625 36.03125 9.234375 
Q 39.5 12.40625 40.4375 19 
z
" id="ArialMT-99"/>
       <path d="M 6.59375 0 
L 6.59375 71.578125 
L 15.375 71.578125 
L 15.375 45.90625 
Q 21.53125 53.03125 30.90625 53.03125 
Q 36.671875 53.03125 40.921875 50.75 
Q 45.171875 48.484375 47 44.484375 
Q 48.828125 40.484375 48.828125 32.859375 
L 48.828125 0 
L 40.046875 0 
L 40.046875 32.859375 
Q 40.046875 39.453125 37.1875 42.453125 
Q 34.328125 45.453125 29.109375 45.453125 
Q 25.203125 45.453125 21.75 43.421875 
Q 18.3125 41.40625 16.84375 37.9375 
Q 15.375 34.46875 15.375 28.375 
L 15.375 0 
z
" id="ArialMT-104"/>
      </defs>
      <use xlink:href="#ArialMT-69"/>
      <use x="66.699219" xlink:href="#ArialMT-112"/>
      <use x="122.314453" xlink:href="#ArialMT-111"/>
      <use x="177.929688" xlink:href="#ArialMT-99"/>
      <use x="227.929688" xlink:href="#ArialMT-104"/>
     </g>
    </g>
   </g>
   <g id="matplotlib.axis_2">
    <g id="ytick_1">
     <g id="line2d_7">
      <path clip-path="url(#p0d51c09ee4)" d="M 54 241.639661 
L 388.8 241.639661 
" style="fill:none;stroke:#ffffff;stroke-linecap:round;"/>
     </g>
     <g id="text_8">
      <!-- 0.4 -->
      <g style="fill:#262626;" transform="translate(29.21 245.576458)scale(0.11 -0.11)">
       <defs>
        <path d="M 9.078125 0 
L 9.078125 10.015625 
L 19.09375 10.015625 
L 19.09375 0 
z
" id="ArialMT-46"/>
        <path d="M 32.328125 0 
L 32.328125 17.140625 
L 1.265625 17.140625 
L 1.265625 25.203125 
L 33.9375 71.578125 
L 41.109375 71.578125 
L 41.109375 25.203125 
L 50.78125 25.203125 
L 50.78125 17.140625 
L 41.109375 17.140625 
L 41.109375 0 
z
M 32.328125 25.203125 
L 32.328125 57.46875 
L 9.90625 25.203125 
z
" id="ArialMT-52"/>
       </defs>
       <use xlink:href="#ArialMT-48"/>
       <use x="55.615234" xlink:href="#ArialMT-46"/>
       <use x="83.398438" xlink:href="#ArialMT-52"/>
      </g>
     </g>
    </g>
    <g id="ytick_2">
     <g id="line2d_8">
      <path clip-path="url(#p0d51c09ee4)" d="M 54 202.788127 
L 388.8 202.788127 
" style="fill:none;stroke:#ffffff;stroke-linecap:round;"/>
     </g>
     <g id="text_9">
      <!-- 0.5 -->
      <g style="fill:#262626;" transform="translate(29.21 206.724924)scale(0.11 -0.11)">
       <use xlink:href="#ArialMT-48"/>
       <use x="55.615234" xlink:href="#ArialMT-46"/>
       <use x="83.398438" xlink:href="#ArialMT-53"/>
      </g>
     </g>
    </g>
    <g id="ytick_3">
     <g id="line2d_9">
      <path clip-path="url(#p0d51c09ee4)" d="M 54 163.936593 
L 388.8 163.936593 
" style="fill:none;stroke:#ffffff;stroke-linecap:round;"/>
     </g>
     <g id="text_10">
      <!-- 0.6 -->
      <g style="fill:#262626;" transform="translate(29.21 167.873389)scale(0.11 -0.11)">
       <defs>
        <path d="M 49.75 54.046875 
L 41.015625 53.375 
Q 39.84375 58.546875 37.703125 60.890625 
Q 34.125 64.65625 28.90625 64.65625 
Q 24.703125 64.65625 21.53125 62.3125 
Q 17.390625 59.28125 14.984375 53.46875 
Q 12.59375 47.65625 12.5 36.921875 
Q 15.671875 41.75 20.265625 44.09375 
Q 24.859375 46.4375 29.890625 46.4375 
Q 38.671875 46.4375 44.84375 39.96875 
Q 51.03125 33.5 51.03125 23.25 
Q 51.03125 16.5 48.125 10.71875 
Q 45.21875 4.9375 40.140625 1.859375 
Q 35.0625 -1.21875 28.609375 -1.21875 
Q 17.625 -1.21875 10.6875 6.859375 
Q 3.765625 14.9375 3.765625 33.5 
Q 3.765625 54.25 11.421875 63.671875 
Q 18.109375 71.875 29.4375 71.875 
Q 37.890625 71.875 43.28125 67.140625 
Q 48.6875 62.40625 49.75 54.046875 
z
M 13.875 23.1875 
Q 13.875 18.65625 15.796875 14.5 
Q 17.71875 10.359375 21.1875 8.171875 
Q 24.65625 6 28.46875 6 
Q 34.03125 6 38.03125 10.484375 
Q 42.046875 14.984375 42.046875 22.703125 
Q 42.046875 30.125 38.078125 34.390625 
Q 34.125 38.671875 28.125 38.671875 
Q 22.171875 38.671875 18.015625 34.390625 
Q 13.875 30.125 13.875 23.1875 
z
" id="ArialMT-54"/>
       </defs>
       <use xlink:href="#ArialMT-48"/>
       <use x="55.615234" xlink:href="#ArialMT-46"/>
       <use x="83.398438" xlink:href="#ArialMT-54"/>
      </g>
     </g>
    </g>
    <g id="ytick_4">
     <g id="line2d_10">
      <path clip-path="url(#p0d51c09ee4)" d="M 54 125.085058 
L 388.8 125.085058 
" style="fill:none;stroke:#ffffff;stroke-linecap:round;"/>
     </g>
     <g id="text_11">
      <!-- 0.7 -->
      <g style="fill:#262626;" transform="translate(29.21 129.021855)scale(0.11 -0.11)">
       <defs>
        <path d="M 4.734375 62.203125 
L 4.734375 70.65625 
L 51.078125 70.65625 
L 51.078125 63.8125 
Q 44.234375 56.546875 37.515625 44.484375 
Q 30.8125 32.421875 27.15625 19.671875 
Q 24.515625 10.6875 23.78125 0 
L 14.75 0 
Q 14.890625 8.453125 18.0625 20.40625 
Q 21.234375 32.375 27.171875 43.484375 
Q 33.109375 54.59375 39.796875 62.203125 
z
" id="ArialMT-55"/>
       </defs>
       <use xlink:href="#ArialMT-48"/>
       <use x="55.615234" xlink:href="#ArialMT-46"/>
       <use x="83.398438" xlink:href="#ArialMT-55"/>
      </g>
     </g>
    </g>
    <g id="ytick_5">
     <g id="line2d_11">
      <path clip-path="url(#p0d51c09ee4)" d="M 54 86.233524 
L 388.8 86.233524 
" style="fill:none;stroke:#ffffff;stroke-linecap:round;"/>
     </g>
     <g id="text_12">
      <!-- 0.8 -->
      <g style="fill:#262626;" transform="translate(29.21 90.170321)scale(0.11 -0.11)">
       <defs>
        <path d="M 17.671875 38.8125 
Q 12.203125 40.828125 9.5625 44.53125 
Q 6.9375 48.25 6.9375 53.421875 
Q 6.9375 61.234375 12.546875 66.546875 
Q 18.171875 71.875 27.484375 71.875 
Q 36.859375 71.875 42.578125 66.421875 
Q 48.296875 60.984375 48.296875 53.171875 
Q 48.296875 48.1875 45.671875 44.5 
Q 43.0625 40.828125 37.75 38.8125 
Q 44.34375 36.671875 47.78125 31.875 
Q 51.21875 27.09375 51.21875 20.453125 
Q 51.21875 11.28125 44.71875 5.03125 
Q 38.234375 -1.21875 27.640625 -1.21875 
Q 17.046875 -1.21875 10.546875 5.046875 
Q 4.046875 11.328125 4.046875 20.703125 
Q 4.046875 27.6875 7.59375 32.390625 
Q 11.140625 37.109375 17.671875 38.8125 
z
M 15.921875 53.71875 
Q 15.921875 48.640625 19.1875 45.40625 
Q 22.46875 42.1875 27.6875 42.1875 
Q 32.765625 42.1875 36.015625 45.375 
Q 39.265625 48.578125 39.265625 53.21875 
Q 39.265625 58.0625 35.90625 61.359375 
Q 32.5625 64.65625 27.59375 64.65625 
Q 22.5625 64.65625 19.234375 61.421875 
Q 15.921875 58.203125 15.921875 53.71875 
z
M 13.09375 20.65625 
Q 13.09375 16.890625 14.875 13.375 
Q 16.65625 9.859375 20.171875 7.921875 
Q 23.6875 6 27.734375 6 
Q 34.03125 6 38.125 10.046875 
Q 42.234375 14.109375 42.234375 20.359375 
Q 42.234375 26.703125 38.015625 30.859375 
Q 33.796875 35.015625 27.4375 35.015625 
Q 21.234375 35.015625 17.15625 30.90625 
Q 13.09375 26.8125 13.09375 20.65625 
z
" id="ArialMT-56"/>
       </defs>
       <use xlink:href="#ArialMT-48"/>
       <use x="55.615234" xlink:href="#ArialMT-46"/>
       <use x="83.398438" xlink:href="#ArialMT-56"/>
      </g>
     </g>
    </g>
    <g id="ytick_6">
     <g id="line2d_12">
      <path clip-path="url(#p0d51c09ee4)" d="M 54 47.38199 
L 388.8 47.38199 
" style="fill:none;stroke:#ffffff;stroke-linecap:round;"/>
     </g>
     <g id="text_13">
      <!-- 0.9 -->
      <g style="fill:#262626;" transform="translate(29.21 51.318787)scale(0.11 -0.11)">
       <defs>
        <path d="M 5.46875 16.546875 
L 13.921875 17.328125 
Q 14.984375 11.375 18.015625 8.6875 
Q 21.046875 6 25.78125 6 
Q 29.828125 6 32.875 7.859375 
Q 35.9375 9.71875 37.890625 12.8125 
Q 39.84375 15.921875 41.15625 21.1875 
Q 42.484375 26.46875 42.484375 31.9375 
Q 42.484375 32.515625 42.4375 33.6875 
Q 39.796875 29.5 35.234375 26.875 
Q 30.671875 24.265625 25.34375 24.265625 
Q 16.453125 24.265625 10.296875 30.703125 
Q 4.15625 37.15625 4.15625 47.703125 
Q 4.15625 58.59375 10.578125 65.234375 
Q 17 71.875 26.65625 71.875 
Q 33.640625 71.875 39.421875 68.109375 
Q 45.21875 64.359375 48.21875 57.390625 
Q 51.21875 50.4375 51.21875 37.25 
Q 51.21875 23.53125 48.234375 15.40625 
Q 45.265625 7.28125 39.375 3.03125 
Q 33.5 -1.21875 25.59375 -1.21875 
Q 17.1875 -1.21875 11.859375 3.4375 
Q 6.546875 8.109375 5.46875 16.546875 
z
M 41.453125 48.140625 
Q 41.453125 55.71875 37.421875 60.15625 
Q 33.40625 64.59375 27.734375 64.59375 
Q 21.875 64.59375 17.53125 59.8125 
Q 13.1875 55.03125 13.1875 47.40625 
Q 13.1875 40.578125 17.3125 36.296875 
Q 21.4375 32.03125 27.484375 32.03125 
Q 33.59375 32.03125 37.515625 36.296875 
Q 41.453125 40.578125 41.453125 48.140625 
z
" id="ArialMT-57"/>
       </defs>
       <use xlink:href="#ArialMT-48"/>
       <use x="55.615234" xlink:href="#ArialMT-46"/>
       <use x="83.398438" xlink:href="#ArialMT-57"/>
      </g>
     </g>
    </g>
    <g id="text_14">
     <!-- Accuracy -->
     <g style="fill:#262626;" transform="translate(22.684375 167.953125)rotate(-90)scale(0.12 -0.12)">
      <defs>
       <path d="M -0.140625 0 
L 27.34375 71.578125 
L 37.546875 71.578125 
L 66.84375 0 
L 56.0625 0 
L 47.703125 21.6875 
L 17.78125 21.6875 
L 9.90625 0 
z
M 20.515625 29.390625 
L 44.78125 29.390625 
L 37.3125 49.21875 
Q 33.890625 58.25 32.234375 64.0625 
Q 30.859375 57.171875 28.375 50.390625 
z
" id="ArialMT-65"/>
       <path d="M 40.578125 0 
L 40.578125 7.625 
Q 34.515625 -1.171875 24.125 -1.171875 
Q 19.53125 -1.171875 15.546875 0.578125 
Q 11.578125 2.34375 9.640625 5 
Q 7.71875 7.671875 6.9375 11.53125 
Q 6.390625 14.109375 6.390625 19.734375 
L 6.390625 51.859375 
L 15.1875 51.859375 
L 15.1875 23.09375 
Q 15.1875 16.21875 15.71875 13.8125 
Q 16.546875 10.359375 19.234375 8.375 
Q 21.921875 6.390625 25.875 6.390625 
Q 29.828125 6.390625 33.296875 8.421875 
Q 36.765625 10.453125 38.203125 13.9375 
Q 39.65625 17.4375 39.65625 24.078125 
L 39.65625 51.859375 
L 48.4375 51.859375 
L 48.4375 0 
z
" id="ArialMT-117"/>
       <path d="M 6.5 0 
L 6.5 51.859375 
L 14.40625 51.859375 
L 14.40625 44 
Q 17.4375 49.515625 20 51.265625 
Q 22.5625 53.03125 25.640625 53.03125 
Q 30.078125 53.03125 34.671875 50.203125 
L 31.640625 42.046875 
Q 28.421875 43.953125 25.203125 43.953125 
Q 22.3125 43.953125 20.015625 42.21875 
Q 17.71875 40.484375 16.75 37.40625 
Q 15.28125 32.71875 15.28125 27.15625 
L 15.28125 0 
z
" id="ArialMT-114"/>
       <path d="M 40.4375 6.390625 
Q 35.546875 2.25 31.03125 0.53125 
Q 26.515625 -1.171875 21.34375 -1.171875 
Q 12.796875 -1.171875 8.203125 3 
Q 3.609375 7.171875 3.609375 13.671875 
Q 3.609375 17.484375 5.34375 20.625 
Q 7.078125 23.78125 9.890625 25.6875 
Q 12.703125 27.59375 16.21875 28.5625 
Q 18.796875 29.25 24.03125 29.890625 
Q 34.671875 31.15625 39.703125 32.90625 
Q 39.75 34.71875 39.75 35.203125 
Q 39.75 40.578125 37.25 42.78125 
Q 33.890625 45.75 27.25 45.75 
Q 21.046875 45.75 18.09375 43.578125 
Q 15.140625 41.40625 13.71875 35.890625 
L 5.125 37.0625 
Q 6.296875 42.578125 8.984375 45.96875 
Q 11.671875 49.359375 16.75 51.1875 
Q 21.828125 53.03125 28.515625 53.03125 
Q 35.15625 53.03125 39.296875 51.46875 
Q 43.453125 49.90625 45.40625 47.53125 
Q 47.359375 45.171875 48.140625 41.546875 
Q 48.578125 39.3125 48.578125 33.453125 
L 48.578125 21.734375 
Q 48.578125 9.46875 49.140625 6.21875 
Q 49.703125 2.984375 51.375 0 
L 42.1875 0 
Q 40.828125 2.734375 40.4375 6.390625 
z
M 39.703125 26.03125 
Q 34.90625 24.078125 25.34375 22.703125 
Q 19.921875 21.921875 17.671875 20.9375 
Q 15.4375 19.96875 14.203125 18.09375 
Q 12.984375 16.21875 12.984375 13.921875 
Q 12.984375 10.40625 15.640625 8.0625 
Q 18.3125 5.71875 23.4375 5.71875 
Q 28.515625 5.71875 32.46875 7.9375 
Q 36.421875 10.15625 38.28125 14.015625 
Q 39.703125 17 39.703125 22.796875 
z
" id="ArialMT-97"/>
       <path d="M 6.203125 -19.96875 
L 5.21875 -11.71875 
Q 8.109375 -12.5 10.25 -12.5 
Q 13.1875 -12.5 14.9375 -11.515625 
Q 16.703125 -10.546875 17.828125 -8.796875 
Q 18.65625 -7.46875 20.515625 -2.25 
Q 20.75 -1.515625 21.296875 -0.09375 
L 1.609375 51.859375 
L 11.078125 51.859375 
L 21.875 21.828125 
Q 23.96875 16.109375 25.640625 9.8125 
Q 27.15625 15.875 29.25 21.625 
L 40.328125 51.859375 
L 49.125 51.859375 
L 29.390625 -0.875 
Q 26.21875 -9.421875 24.46875 -12.640625 
Q 22.125 -17 19.09375 -19.015625 
Q 16.0625 -21.046875 11.859375 -21.046875 
Q 9.328125 -21.046875 6.203125 -19.96875 
z
" id="ArialMT-121"/>
      </defs>
      <use xlink:href="#ArialMT-65"/>
      <use x="66.699219" xlink:href="#ArialMT-99"/>
      <use x="116.699219" xlink:href="#ArialMT-99"/>
      <use x="166.699219" xlink:href="#ArialMT-117"/>
      <use x="222.314453" xlink:href="#ArialMT-114"/>
      <use x="255.615234" xlink:href="#ArialMT-97"/>
      <use x="311.230469" xlink:href="#ArialMT-99"/>
      <use x="361.230469" xlink:href="#ArialMT-121"/>
     </g>
    </g>
   </g>
   <g id="line2d_13">
    <path clip-path="url(#p0d51c09ee4)" d="M 69.218182 188.096359 
L 70.337166 165.895484 
L 71.45615 179.607789 
L 72.575134 160.671749 
L 73.694118 192.014161 
L 74.813102 167.854385 
L 75.932086 199.196797 
L 77.05107 179.607789 
L 78.170053 188.096359 
L 79.289037 186.790426 
L 80.408021 180.913723 
L 81.527005 184.831525 
L 82.645989 162.630649 
L 83.764973 181.56669 
L 84.883957 185.484492 
L 86.002941 182.219657 
L 87.121925 181.56669 
L 88.240909 175.689988 
L 89.359893 178.954822 
L 90.478877 179.607789 
L 91.597861 168.507352 
L 92.716845 167.201418 
L 93.835829 171.772186 
L 94.954813 178.301856 
L 96.073797 176.342955 
L 97.192781 184.831525 
L 98.311765 183.525591 
L 99.430749 173.731087 
L 100.549733 167.854385 
L 101.668717 173.07812 
L 102.787701 165.242517 
L 103.906684 175.037021 
L 105.025668 165.242517 
L 106.144652 163.936583 
L 107.263636 170.466252 
L 108.38262 163.283616 
L 109.501604 170.466252 
L 110.620588 179.607789 
L 111.739572 178.954822 
L 112.858556 172.425153 
L 113.97754 168.507352 
L 115.096524 176.995922 
L 116.215508 179.607789 
L 117.334492 176.995922 
L 118.453476 178.954822 
L 119.57246 180.260756 
L 120.691444 180.913723 
L 121.810428 176.342955 
L 122.929412 165.895484 
L 124.048396 167.201418 
L 125.16738 171.772186 
L 126.286364 169.813286 
L 127.405348 175.037021 
L 128.524332 173.731087 
L 129.643316 167.201418 
L 130.762299 164.58955 
L 131.881283 164.58955 
L 133.000267 161.977682 
L 134.119251 169.813286 
L 135.238235 155.448013 
L 136.357219 164.58955 
L 137.476203 161.977682 
L 138.595187 156.753947 
L 139.714171 157.406914 
L 140.833155 154.795046 
L 141.952139 165.242517 
L 143.071123 165.895484 
L 144.190107 142.388675 
L 145.309091 146.306476 
L 146.428075 160.018782 
L 147.547059 145.000542 
L 148.666043 153.489112 
L 149.785027 140.429774 
L 150.904011 141.735708 
L 152.022995 139.12384 
L 153.141979 142.388675 
L 154.260963 141.082741 
L 155.379947 137.817906 
L 156.49893 140.429774 
L 157.617914 140.429774 
L 158.736898 138.470873 
L 159.855882 132.594171 
L 160.974866 133.247138 
L 162.09385 139.776807 
L 163.212834 128.023402 
L 164.331818 135.206039 
L 165.450802 137.164939 
L 166.569786 134.553072 
L 167.68877 133.247138 
L 168.807754 123.452634 
L 169.926738 128.676369 
L 171.045722 117.575932 
L 172.164706 124.758568 
L 173.28369 129.982303 
L 174.402674 119.534832 
L 175.521658 114.311097 
L 176.640642 126.064502 
L 178.87861 123.452634 
L 179.997594 118.881866 
L 181.116578 123.452634 
L 182.235561 118.228899 
L 183.354545 127.370436 
L 184.473529 116.269998 
L 185.592513 122.1467 
L 186.711497 112.352196 
L 187.830481 122.1467 
L 188.949465 123.452634 
L 190.068449 116.922965 
L 191.187433 114.311097 
L 192.306417 116.269998 
L 193.425401 120.187799 
L 194.544385 120.187799 
L 196.782353 105.16956 
L 197.901337 117.575932 
L 199.020321 120.187799 
L 200.139305 117.575932 
L 201.258289 100.598792 
L 202.377273 97.333957 
L 203.496257 113.65813 
L 204.615241 107.128461 
L 205.734225 122.799667 
L 206.853209 105.16956 
L 207.972193 110.393296 
L 209.091176 96.68099 
L 210.21016 111.699229 
L 211.329144 107.128461 
L 212.448128 100.598792 
L 213.567112 103.210659 
L 214.686096 96.68099 
L 215.80508 107.781428 
L 216.924064 102.557692 
L 218.043048 103.863626 
L 219.162032 99.292858 
L 220.281016 107.781428 
L 221.4 92.763189 
L 223.637968 103.210659 
L 224.756952 97.986924 
L 225.875936 98.639891 
L 226.99492 101.251759 
L 228.113904 97.333957 
L 229.232888 98.639891 
L 230.351872 89.498354 
L 231.470856 96.68099 
L 232.58984 93.416156 
L 233.708824 97.333957 
L 234.827807 96.028023 
L 235.946791 102.557692 
L 237.065775 102.557692 
L 238.184759 101.251759 
L 239.303743 94.069123 
L 240.422727 95.375056 
L 241.541711 105.16956 
L 242.660695 81.662751 
L 243.779679 90.804288 
L 244.898663 71.21528 
L 246.017647 80.356817 
L 247.136631 86.886486 
L 248.255615 99.292858 
L 249.374599 90.151321 
L 250.493583 88.19242 
L 251.612567 90.151321 
L 252.731551 80.356817 
L 253.850535 84.927586 
L 254.969519 94.069123 
L 256.088503 88.845387 
L 257.207487 74.480115 
L 258.326471 100.598792 
L 259.445455 92.763189 
L 260.564439 79.70385 
L 261.683422 92.763189 
L 262.802406 84.274619 
L 263.92139 91.457255 
L 265.040374 83.621652 
L 266.159358 81.009784 
L 267.278342 90.804288 
L 268.397326 88.19242 
L 269.51631 86.233519 
L 271.754278 75.786049 
L 272.873262 77.091983 
L 273.992246 72.521214 
L 275.11123 81.662751 
L 276.230214 73.174181 
L 277.349198 91.457255 
L 278.468182 71.21528 
L 279.587166 91.457255 
L 280.70615 73.827148 
L 281.825134 80.356817 
L 282.944118 84.927586 
L 284.063102 71.21528 
L 285.182086 77.744949 
L 286.30107 78.397916 
L 287.420053 75.786049 
L 288.539037 77.744949 
L 289.658021 69.909346 
L 290.777005 74.480115 
L 291.895989 77.091983 
L 294.133957 64.685611 
L 295.252941 82.315718 
L 297.490909 83.621652 
L 298.609893 66.644512 
L 299.728877 68.603413 
L 300.847861 74.480115 
L 301.966845 75.133082 
L 303.085829 69.909346 
L 304.204813 68.603413 
L 305.323797 65.338578 
L 306.442781 71.21528 
L 307.561765 71.21528 
L 308.680749 62.72671 
L 309.799733 69.909346 
L 310.918717 63.379677 
L 312.037701 66.644512 
L 313.156684 52.932206 
L 314.275668 62.72671 
L 315.394652 64.685611 
L 316.513636 62.72671 
L 317.63262 66.644512 
L 318.751604 72.521214 
L 319.870588 56.850008 
L 320.989572 76.439016 
L 322.108556 54.891107 
L 323.22754 67.950446 
L 324.346524 57.502975 
L 325.465508 64.685611 
L 326.584492 58.155942 
L 327.703476 68.603413 
L 328.82246 58.808909 
L 329.941444 50.320339 
L 331.060428 69.909346 
L 332.179412 65.338578 
L 333.298396 59.461876 
L 334.41738 52.279239 
L 335.536364 59.461876 
L 336.655348 90.804288 
L 337.774332 60.767809 
L 338.893316 60.767809 
L 340.012299 58.808909 
L 341.131283 80.356817 
L 342.250267 60.114843 
L 343.369251 56.850008 
L 344.488235 62.073743 
L 345.607219 59.461876 
L 346.726203 55.544074 
L 347.845187 59.461876 
L 348.964171 53.585173 
L 350.083155 49.667372 
L 351.202139 52.279239 
L 352.321123 52.932206 
L 353.440107 51.626273 
L 354.559091 52.932206 
L 355.678075 50.973306 
L 356.797059 56.197041 
L 357.916043 63.379677 
L 359.035027 50.973306 
L 360.154011 56.850008 
L 361.272995 44.443636 
L 362.391979 59.461876 
L 363.510963 51.626273 
L 364.629947 52.932206 
L 365.74893 49.667372 
L 366.867914 48.361438 
L 367.986898 49.014405 
L 369.105882 44.443636 
L 370.224866 49.014405 
L 371.34385 45.74957 
L 372.462834 49.667372 
L 373.581818 58.155942 
L 373.581818 58.155942 
" style="fill:none;stroke:#4c72b0;stroke-linecap:round;stroke-width:1.5;"/>
   </g>
   <g id="line2d_14">
    <path clip-path="url(#p0d51c09ee4)" d="M 69.218182 206.36342 
L 70.337166 208.746956 
L 71.45615 196.829309 
L 72.575134 220.664604 
L 73.694118 153.925767 
L 74.813102 163.45989 
L 75.932086 170.610476 
L 77.05107 163.45989 
L 78.170053 163.45989 
L 79.289037 149.158717 
L 80.408021 215.897543 
L 81.527005 201.596358 
L 82.645989 194.445772 
L 83.764973 172.994013 
L 84.883957 199.212822 
L 86.002941 211.130481 
L 87.121925 225.431654 
L 88.240909 215.897543 
L 89.359893 196.829309 
L 90.478877 201.596358 
L 91.597861 196.829309 
L 92.716845 196.829309 
L 93.835829 194.445772 
L 94.954813 215.897543 
L 96.073797 239.732839 
L 97.192781 218.281068 
L 98.311765 206.36342 
L 99.430749 213.514006 
L 100.549733 206.36342 
L 101.668717 234.965777 
L 102.787701 239.732839 
L 103.906684 196.829309 
L 105.025668 203.979895 
L 106.144652 206.36342 
L 107.263636 201.596358 
L 108.38262 230.198716 
L 109.501604 151.54223 
L 110.620588 146.77518 
L 111.739572 168.22694 
L 112.858556 218.281068 
L 113.97754 163.45989 
L 115.096524 242.116364 
L 116.215508 242.116364 
L 117.334492 201.596358 
L 118.453476 237.349302 
L 120.691444 194.445772 
L 121.810428 199.212822 
L 122.929412 170.610476 
L 124.048396 163.45989 
L 125.16738 199.212822 
L 126.286364 187.295186 
L 127.405348 192.062236 
L 128.524332 213.514006 
L 129.643316 220.664604 
L 130.762299 192.062236 
L 131.881283 194.445772 
L 133.000267 187.295186 
L 135.238235 187.295186 
L 136.357219 168.22694 
L 137.476203 180.144599 
L 138.595187 177.761063 
L 139.714171 170.610476 
L 140.833155 192.062236 
L 141.952139 177.761063 
L 143.071123 175.377526 
L 144.190107 165.843426 
L 145.309091 175.377526 
L 146.428075 213.514006 
L 147.547059 192.062236 
L 148.666043 161.076353 
L 149.785027 153.925767 
L 150.904011 168.22694 
L 152.022995 146.77518 
L 153.141979 149.158717 
L 154.260963 156.309303 
L 155.379947 161.076353 
L 156.49893 153.925767 
L 157.617914 158.692817 
L 158.736898 153.925767 
L 159.855882 156.309303 
L 160.974866 156.309303 
L 162.09385 144.391644 
L 163.212834 165.843426 
L 164.331818 163.45989 
L 165.450802 134.857521 
L 166.569786 142.008131 
L 167.68877 134.857521 
L 168.807754 132.474008 
L 169.926738 153.925767 
L 171.045722 156.309303 
L 172.164706 175.377526 
L 173.28369 153.925767 
L 174.402674 137.241058 
L 175.521658 161.076353 
L 176.640642 158.692817 
L 177.759626 127.706935 
L 179.997594 170.610476 
L 181.116578 146.77518 
L 182.235561 161.076353 
L 183.354545 132.474008 
L 184.473529 163.45989 
L 185.592513 142.008131 
L 186.711497 142.008131 
L 187.830481 146.77518 
L 188.949465 132.474008 
L 190.068449 151.54223 
L 191.187433 132.474008 
L 193.425401 142.008131 
L 194.544385 149.158717 
L 195.663369 161.076353 
L 196.782353 151.54223 
L 197.901337 170.610476 
L 199.020321 153.925767 
L 200.139305 142.008131 
L 201.258289 122.939885 
L 202.377273 142.008131 
L 203.496257 134.857521 
L 204.615241 142.008131 
L 205.734225 139.624594 
L 206.853209 132.474008 
L 207.972193 165.843426 
L 209.091176 139.624594 
L 210.21016 132.474008 
L 211.329144 134.857521 
L 212.448128 130.090471 
L 213.567112 146.77518 
L 214.686096 137.241058 
L 215.80508 137.241058 
L 216.924064 127.706935 
L 218.043048 139.624594 
L 219.162032 146.77518 
L 220.281016 139.624594 
L 221.4 163.45989 
L 222.518984 158.692817 
L 223.637968 144.391644 
L 224.756952 151.54223 
L 225.875936 127.706935 
L 226.99492 127.706935 
L 230.351872 156.309303 
L 231.470856 132.474008 
L 232.58984 139.624594 
L 233.708824 120.556348 
L 234.827807 151.54223 
L 235.946791 151.54223 
L 237.065775 134.857521 
L 238.184759 134.857521 
L 239.303743 149.158717 
L 240.422727 115.789298 
L 241.541711 134.857521 
L 242.660695 130.090471 
L 243.779679 149.158717 
L 244.898663 125.323421 
L 246.017647 144.391644 
L 247.136631 146.77518 
L 248.255615 144.391644 
L 249.374599 177.761063 
L 250.493583 163.45989 
L 252.731551 139.624594 
L 253.850535 144.391644 
L 254.969519 161.076353 
L 256.088503 149.158717 
L 257.207487 163.45989 
L 258.326471 142.008131 
L 259.445455 139.624594 
L 260.564439 146.77518 
L 261.683422 144.391644 
L 262.802406 146.77518 
L 263.92139 144.391644 
L 265.040374 144.391644 
L 266.159358 165.843426 
L 267.278342 142.008131 
L 268.397326 149.158717 
L 269.51631 158.692817 
L 270.635294 137.241058 
L 272.873262 151.54223 
L 273.992246 153.925767 
L 275.11123 134.857521 
L 276.230214 175.377526 
L 277.349198 156.309303 
L 278.468182 175.377526 
L 279.587166 232.582252 
L 280.70615 182.528136 
L 281.825134 184.911649 
L 282.944118 161.076353 
L 284.063102 142.008131 
L 285.182086 163.45989 
L 286.30107 153.925767 
L 287.420053 139.624594 
L 288.539037 163.45989 
L 289.658021 189.678722 
L 290.777005 144.391644 
L 293.014973 163.45989 
L 294.133957 156.309303 
L 295.252941 163.45989 
L 296.371925 165.843426 
L 297.490909 151.54223 
L 298.609893 151.54223 
L 299.728877 149.158717 
L 300.847861 151.54223 
L 301.966845 199.212822 
L 303.085829 163.45989 
L 305.323797 149.158717 
L 306.442781 175.377526 
L 308.680749 151.54223 
L 309.799733 151.54223 
L 310.918717 158.692817 
L 312.037701 168.22694 
L 313.156684 146.77518 
L 314.275668 196.829309 
L 315.394652 144.391644 
L 316.513636 142.008131 
L 317.63262 156.309303 
L 318.751604 165.843426 
L 319.870588 158.692817 
L 320.989572 156.309303 
L 322.108556 144.391644 
L 323.22754 151.54223 
L 324.346524 175.377526 
L 325.465508 163.45989 
L 327.703476 163.45989 
L 328.82246 165.843426 
L 329.941444 163.45989 
L 331.060428 203.979895 
L 332.179412 163.45989 
L 333.298396 163.45989 
L 334.41738 170.610476 
L 335.536364 187.295186 
L 336.655348 158.692817 
L 337.774332 163.45989 
L 338.893316 163.45989 
L 340.012299 208.746956 
L 341.131283 153.925767 
L 342.250267 168.22694 
L 343.369251 134.857521 
L 344.488235 163.45989 
L 345.607219 149.158717 
L 346.726203 170.610476 
L 347.845187 158.692817 
L 348.964171 161.076353 
L 350.083155 175.377526 
L 351.202139 144.391644 
L 352.321123 163.45989 
L 353.440107 163.45989 
L 354.559091 172.994013 
L 355.678075 144.391644 
L 356.797059 161.076353 
L 357.916043 180.144599 
L 359.035027 149.158717 
L 360.154011 168.22694 
L 361.272995 139.624594 
L 362.391979 156.309303 
L 363.510963 163.45989 
L 364.629947 158.692817 
L 365.74893 139.624594 
L 366.867914 142.008131 
L 367.986898 158.692817 
L 369.105882 144.391644 
L 370.224866 161.076353 
L 371.34385 165.843426 
L 373.581818 165.843426 
L 373.581818 165.843426 
" style="fill:none;stroke:#dd8452;stroke-linecap:round;stroke-width:1.5;"/>
   </g>
   <g id="patch_3">
    <path d="M 54 252 
L 54 34.56 
" style="fill:none;stroke:#ffffff;stroke-linecap:square;stroke-linejoin:miter;stroke-width:1.25;"/>
   </g>
   <g id="patch_4">
    <path d="M 388.8 252 
L 388.8 34.56 
" style="fill:none;stroke:#ffffff;stroke-linecap:square;stroke-linejoin:miter;stroke-width:1.25;"/>
   </g>
   <g id="patch_5">
    <path d="M 54 252 
L 388.8 252 
" style="fill:none;stroke:#ffffff;stroke-linecap:square;stroke-linejoin:miter;stroke-width:1.25;"/>
   </g>
   <g id="patch_6">
    <path d="M 54 34.56 
L 388.8 34.56 
" style="fill:none;stroke:#ffffff;stroke-linecap:square;stroke-linejoin:miter;stroke-width:1.25;"/>
   </g>
   <g id="legend_1">
    <g id="patch_7">
     <path d="M 299.426719 74.608594 
L 381.1 74.608594 
Q 383.3 74.608594 383.3 72.408594 
L 383.3 42.26 
Q 383.3 40.06 381.1 40.06 
L 299.426719 40.06 
Q 297.226719 40.06 297.226719 42.26 
L 297.226719 72.408594 
Q 297.226719 74.608594 299.426719 74.608594 
z
" style="fill:#eaeaf2;opacity:0.8;stroke:#cccccc;stroke-linejoin:miter;"/>
    </g>
    <g id="line2d_15">
     <path d="M 301.626719 48.483594 
L 323.626719 48.483594 
" style="fill:none;stroke:#4c72b0;stroke-linecap:round;stroke-width:1.5;"/>
    </g>
    <g id="line2d_16"/>
    <g id="text_15">
     <!-- training -->
     <g style="fill:#262626;" transform="translate(332.426719 52.333594)scale(0.11 -0.11)">
      <defs>
       <path d="M 25.78125 7.859375 
L 27.046875 0.09375 
Q 23.34375 -0.6875 20.40625 -0.6875 
Q 15.625 -0.6875 12.984375 0.828125 
Q 10.359375 2.34375 9.28125 4.8125 
Q 8.203125 7.28125 8.203125 15.1875 
L 8.203125 45.015625 
L 1.765625 45.015625 
L 1.765625 51.859375 
L 8.203125 51.859375 
L 8.203125 64.703125 
L 16.9375 69.96875 
L 16.9375 51.859375 
L 25.78125 51.859375 
L 25.78125 45.015625 
L 16.9375 45.015625 
L 16.9375 14.703125 
Q 16.9375 10.9375 17.40625 9.859375 
Q 17.875 8.796875 18.921875 8.15625 
Q 19.96875 7.515625 21.921875 7.515625 
Q 23.390625 7.515625 25.78125 7.859375 
z
" id="ArialMT-116"/>
       <path d="M 6.640625 61.46875 
L 6.640625 71.578125 
L 15.4375 71.578125 
L 15.4375 61.46875 
z
M 6.640625 0 
L 6.640625 51.859375 
L 15.4375 51.859375 
L 15.4375 0 
z
" id="ArialMT-105"/>
       <path d="M 6.59375 0 
L 6.59375 51.859375 
L 14.5 51.859375 
L 14.5 44.484375 
Q 20.21875 53.03125 31 53.03125 
Q 35.6875 53.03125 39.625 51.34375 
Q 43.5625 49.65625 45.515625 46.921875 
Q 47.46875 44.1875 48.25 40.4375 
Q 48.734375 37.984375 48.734375 31.890625 
L 48.734375 0 
L 39.9375 0 
L 39.9375 31.546875 
Q 39.9375 36.921875 38.90625 39.578125 
Q 37.890625 42.234375 35.28125 43.8125 
Q 32.671875 45.40625 29.15625 45.40625 
Q 23.53125 45.40625 19.453125 41.84375 
Q 15.375 38.28125 15.375 28.328125 
L 15.375 0 
z
" id="ArialMT-110"/>
       <path d="M 4.984375 -4.296875 
L 13.53125 -5.5625 
Q 14.0625 -9.515625 16.5 -11.328125 
Q 19.78125 -13.765625 25.4375 -13.765625 
Q 31.546875 -13.765625 34.859375 -11.328125 
Q 38.1875 -8.890625 39.359375 -4.5 
Q 40.046875 -1.8125 39.984375 6.78125 
Q 34.234375 0 25.640625 0 
Q 14.9375 0 9.078125 7.71875 
Q 3.21875 15.4375 3.21875 26.21875 
Q 3.21875 33.640625 5.90625 39.90625 
Q 8.59375 46.1875 13.6875 49.609375 
Q 18.796875 53.03125 25.6875 53.03125 
Q 34.859375 53.03125 40.828125 45.609375 
L 40.828125 51.859375 
L 48.921875 51.859375 
L 48.921875 7.03125 
Q 48.921875 -5.078125 46.453125 -10.125 
Q 44 -15.1875 38.640625 -18.109375 
Q 33.296875 -21.046875 25.484375 -21.046875 
Q 16.21875 -21.046875 10.5 -16.875 
Q 4.78125 -12.703125 4.984375 -4.296875 
z
M 12.25 26.859375 
Q 12.25 16.65625 16.296875 11.96875 
Q 20.359375 7.28125 26.46875 7.28125 
Q 32.515625 7.28125 36.609375 11.9375 
Q 40.71875 16.609375 40.71875 26.5625 
Q 40.71875 36.078125 36.5 40.90625 
Q 32.28125 45.75 26.3125 45.75 
Q 20.453125 45.75 16.34375 40.984375 
Q 12.25 36.234375 12.25 26.859375 
z
" id="ArialMT-103"/>
      </defs>
      <use xlink:href="#ArialMT-116"/>
      <use x="27.783203" xlink:href="#ArialMT-114"/>
      <use x="61.083984" xlink:href="#ArialMT-97"/>
      <use x="116.699219" xlink:href="#ArialMT-105"/>
      <use x="138.916016" xlink:href="#ArialMT-110"/>
      <use x="194.53125" xlink:href="#ArialMT-105"/>
      <use x="216.748047" xlink:href="#ArialMT-110"/>
      <use x="272.363281" xlink:href="#ArialMT-103"/>
     </g>
    </g>
    <g id="line2d_17">
     <path d="M 301.626719 64.172344 
L 323.626719 64.172344 
" style="fill:none;stroke:#dd8452;stroke-linecap:round;stroke-width:1.5;"/>
    </g>
    <g id="line2d_18"/>
    <g id="text_16">
     <!-- validation -->
     <g style="fill:#262626;" transform="translate(332.426719 68.022344)scale(0.11 -0.11)">
      <defs>
       <path d="M 21 0 
L 1.265625 51.859375 
L 10.546875 51.859375 
L 21.6875 20.796875 
Q 23.484375 15.765625 25 10.359375 
Q 26.171875 14.453125 28.265625 20.21875 
L 39.796875 51.859375 
L 48.828125 51.859375 
L 29.203125 0 
z
" id="ArialMT-118"/>
       <path d="M 6.390625 0 
L 6.390625 71.578125 
L 15.1875 71.578125 
L 15.1875 0 
z
" id="ArialMT-108"/>
       <path d="M 40.234375 0 
L 40.234375 6.546875 
Q 35.296875 -1.171875 25.734375 -1.171875 
Q 19.53125 -1.171875 14.328125 2.25 
Q 9.125 5.671875 6.265625 11.796875 
Q 3.421875 17.921875 3.421875 25.875 
Q 3.421875 33.640625 6 39.96875 
Q 8.59375 46.296875 13.765625 49.65625 
Q 18.953125 53.03125 25.34375 53.03125 
Q 30.03125 53.03125 33.6875 51.046875 
Q 37.359375 49.078125 39.65625 45.90625 
L 39.65625 71.578125 
L 48.390625 71.578125 
L 48.390625 0 
z
M 12.453125 25.875 
Q 12.453125 15.921875 16.640625 10.984375 
Q 20.84375 6.0625 26.5625 6.0625 
Q 32.328125 6.0625 36.34375 10.765625 
Q 40.375 15.484375 40.375 25.140625 
Q 40.375 35.796875 36.265625 40.765625 
Q 32.171875 45.75 26.171875 45.75 
Q 20.3125 45.75 16.375 40.96875 
Q 12.453125 36.1875 12.453125 25.875 
z
" id="ArialMT-100"/>
      </defs>
      <use xlink:href="#ArialMT-118"/>
      <use x="50" xlink:href="#ArialMT-97"/>
      <use x="105.615234" xlink:href="#ArialMT-108"/>
      <use x="127.832031" xlink:href="#ArialMT-105"/>
      <use x="150.048828" xlink:href="#ArialMT-100"/>
      <use x="205.664062" xlink:href="#ArialMT-97"/>
      <use x="261.279297" xlink:href="#ArialMT-116"/>
      <use x="289.0625" xlink:href="#ArialMT-105"/>
      <use x="311.279297" xlink:href="#ArialMT-111"/>
      <use x="366.894531" xlink:href="#ArialMT-110"/>
     </g>
    </g>
   </g>
  </g>
 </g>
 <defs>
  <clipPath id="p0d51c09ee4">
   <rect height="217.44" width="334.8" x="54" y="34.56"/>
  </clipPath>
 </defs>
</svg>
