<?xml version="1.0" encoding="utf-8" standalone="no"?>
<!DOCTYPE svg PUBLIC "-//W3C//DTD SVG 1.1//EN"
  "http://www.w3.org/Graphics/SVG/1.1/DTD/svg11.dtd">
<!-- Created with matplotlib (https://matplotlib.org/) -->
<svg height="288pt" version="1.1" viewBox="0 0 432 288" width="432pt" xmlns="http://www.w3.org/2000/svg" xmlns:xlink="http://www.w3.org/1999/xlink">
 <metadata>
  <rdf:RDF xmlns:cc="http://creativecommons.org/ns#" xmlns:dc="http://purl.org/dc/elements/1.1/" xmlns:rdf="http://www.w3.org/1999/02/22-rdf-syntax-ns#">
   <cc:Work>
    <dc:type rdf:resource="http://purl.org/dc/dcmitype/StillImage"/>
    <dc:date>2021-01-14T18:42:01.748299</dc:date>
    <dc:format>image/svg+xml</dc:format>
    <dc:creator>
     <cc:Agent>
      <dc:title>Matplotlib v3.3.3, https://matplotlib.org/</dc:title>
     </cc:Agent>
    </dc:creator>
   </cc:Work>
  </rdf:RDF>
 </metadata>
 <defs>
  <style type="text/css">*{stroke-linecap:butt;stroke-linejoin:round;}</style>
 </defs>
 <g id="figure_1">
  <g id="patch_1">
   <path d="M 0 288 
L 432 288 
L 432 0 
L 0 0 
z
" style="fill:#ffffff;"/>
  </g>
  <g id="axes_1">
   <g id="patch_2">
    <path d="M 54 252 
L 388.8 252 
L 388.8 34.56 
L 54 34.56 
z
" style="fill:#eaeaf2;"/>
   </g>
   <g id="matplotlib.axis_1">
    <g id="xtick_1">
     <g id="line2d_1">
      <path clip-path="url(#p5ffa16f18a)" d="M 69.218182 252 
L 69.218182 34.56 
" style="fill:none;stroke:#ffffff;stroke-linecap:round;"/>
     </g>
     <g id="text_1">
      <!-- 0 -->
      <g style="fill:#262626;" transform="translate(65.718807 269.858281)scale(0.11 -0.11)">
       <defs>
        <path d="M 31.78125 66.40625 
Q 24.171875 66.40625 20.328125 58.90625 
Q 16.5 51.421875 16.5 36.375 
Q 16.5 21.390625 20.328125 13.890625 
Q 24.171875 6.390625 31.78125 6.390625 
Q 39.453125 6.390625 43.28125 13.890625 
Q 47.125 21.390625 47.125 36.375 
Q 47.125 51.421875 43.28125 58.90625 
Q 39.453125 66.40625 31.78125 66.40625 
z
M 31.78125 74.21875 
Q 44.046875 74.21875 50.515625 64.515625 
Q 56.984375 54.828125 56.984375 36.375 
Q 56.984375 17.96875 50.515625 8.265625 
Q 44.046875 -1.421875 31.78125 -1.421875 
Q 19.53125 -1.421875 13.0625 8.265625 
Q 6.59375 17.96875 6.59375 36.375 
Q 6.59375 54.828125 13.0625 64.515625 
Q 19.53125 74.21875 31.78125 74.21875 
z
" id="DejaVuSans-48"/>
       </defs>
       <use xlink:href="#DejaVuSans-48"/>
      </g>
     </g>
    </g>
    <g id="xtick_2">
     <g id="line2d_2">
      <path clip-path="url(#p5ffa16f18a)" d="M 109.477922 252 
L 109.477922 34.56 
" style="fill:none;stroke:#ffffff;stroke-linecap:round;"/>
     </g>
     <g id="text_2">
      <!-- 50 -->
      <g style="fill:#262626;" transform="translate(102.479172 269.858281)scale(0.11 -0.11)">
       <defs>
        <path d="M 10.796875 72.90625 
L 49.515625 72.90625 
L 49.515625 64.59375 
L 19.828125 64.59375 
L 19.828125 46.734375 
Q 21.96875 47.46875 24.109375 47.828125 
Q 26.265625 48.1875 28.421875 48.1875 
Q 40.625 48.1875 47.75 41.5 
Q 54.890625 34.8125 54.890625 23.390625 
Q 54.890625 11.625 47.5625 5.09375 
Q 40.234375 -1.421875 26.90625 -1.421875 
Q 22.3125 -1.421875 17.546875 -0.640625 
Q 12.796875 0.140625 7.71875 1.703125 
L 7.71875 11.625 
Q 12.109375 9.234375 16.796875 8.0625 
Q 21.484375 6.890625 26.703125 6.890625 
Q 35.15625 6.890625 40.078125 11.328125 
Q 45.015625 15.765625 45.015625 23.390625 
Q 45.015625 31 40.078125 35.4375 
Q 35.15625 39.890625 26.703125 39.890625 
Q 22.75 39.890625 18.8125 39.015625 
Q 14.890625 38.140625 10.796875 36.28125 
z
" id="DejaVuSans-53"/>
       </defs>
       <use xlink:href="#DejaVuSans-53"/>
       <use x="63.623047" xlink:href="#DejaVuSans-48"/>
      </g>
     </g>
    </g>
    <g id="xtick_3">
     <g id="line2d_3">
      <path clip-path="url(#p5ffa16f18a)" d="M 149.737662 252 
L 149.737662 34.56 
" style="fill:none;stroke:#ffffff;stroke-linecap:round;"/>
     </g>
     <g id="text_3">
      <!-- 100 -->
      <g style="fill:#262626;" transform="translate(139.239537 269.858281)scale(0.11 -0.11)">
       <defs>
        <path d="M 12.40625 8.296875 
L 28.515625 8.296875 
L 28.515625 63.921875 
L 10.984375 60.40625 
L 10.984375 69.390625 
L 28.421875 72.90625 
L 38.28125 72.90625 
L 38.28125 8.296875 
L 54.390625 8.296875 
L 54.390625 0 
L 12.40625 0 
z
" id="DejaVuSans-49"/>
       </defs>
       <use xlink:href="#DejaVuSans-49"/>
       <use x="63.623047" xlink:href="#DejaVuSans-48"/>
       <use x="127.246094" xlink:href="#DejaVuSans-48"/>
      </g>
     </g>
    </g>
    <g id="xtick_4">
     <g id="line2d_4">
      <path clip-path="url(#p5ffa16f18a)" d="M 189.997403 252 
L 189.997403 34.56 
" style="fill:none;stroke:#ffffff;stroke-linecap:round;"/>
     </g>
     <g id="text_4">
      <!-- 150 -->
      <g style="fill:#262626;" transform="translate(179.499278 269.858281)scale(0.11 -0.11)">
       <use xlink:href="#DejaVuSans-49"/>
       <use x="63.623047" xlink:href="#DejaVuSans-53"/>
       <use x="127.246094" xlink:href="#DejaVuSans-48"/>
      </g>
     </g>
    </g>
    <g id="xtick_5">
     <g id="line2d_5">
      <path clip-path="url(#p5ffa16f18a)" d="M 230.257143 252 
L 230.257143 34.56 
" style="fill:none;stroke:#ffffff;stroke-linecap:round;"/>
     </g>
     <g id="text_5">
      <!-- 200 -->
      <g style="fill:#262626;" transform="translate(219.759018 269.858281)scale(0.11 -0.11)">
       <defs>
        <path d="M 19.1875 8.296875 
L 53.609375 8.296875 
L 53.609375 0 
L 7.328125 0 
L 7.328125 8.296875 
Q 12.9375 14.109375 22.625 23.890625 
Q 32.328125 33.6875 34.8125 36.53125 
Q 39.546875 41.84375 41.421875 45.53125 
Q 43.3125 49.21875 43.3125 52.78125 
Q 43.3125 58.59375 39.234375 62.25 
Q 35.15625 65.921875 28.609375 65.921875 
Q 23.96875 65.921875 18.8125 64.3125 
Q 13.671875 62.703125 7.8125 59.421875 
L 7.8125 69.390625 
Q 13.765625 71.78125 18.9375 73 
Q 24.125 74.21875 28.421875 74.21875 
Q 39.75 74.21875 46.484375 68.546875 
Q 53.21875 62.890625 53.21875 53.421875 
Q 53.21875 48.921875 51.53125 44.890625 
Q 49.859375 40.875 45.40625 35.40625 
Q 44.1875 33.984375 37.640625 27.21875 
Q 31.109375 20.453125 19.1875 8.296875 
z
" id="DejaVuSans-50"/>
       </defs>
       <use xlink:href="#DejaVuSans-50"/>
       <use x="63.623047" xlink:href="#DejaVuSans-48"/>
       <use x="127.246094" xlink:href="#DejaVuSans-48"/>
      </g>
     </g>
    </g>
    <g id="xtick_6">
     <g id="line2d_6">
      <path clip-path="url(#p5ffa16f18a)" d="M 270.516883 252 
L 270.516883 34.56 
" style="fill:none;stroke:#ffffff;stroke-linecap:round;"/>
     </g>
     <g id="text_6">
      <!-- 250 -->
      <g style="fill:#262626;" transform="translate(260.018758 269.858281)scale(0.11 -0.11)">
       <use xlink:href="#DejaVuSans-50"/>
       <use x="63.623047" xlink:href="#DejaVuSans-53"/>
       <use x="127.246094" xlink:href="#DejaVuSans-48"/>
      </g>
     </g>
    </g>
    <g id="xtick_7">
     <g id="line2d_7">
      <path clip-path="url(#p5ffa16f18a)" d="M 310.776623 252 
L 310.776623 34.56 
" style="fill:none;stroke:#ffffff;stroke-linecap:round;"/>
     </g>
     <g id="text_7">
      <!-- 300 -->
      <g style="fill:#262626;" transform="translate(300.278498 269.858281)scale(0.11 -0.11)">
       <defs>
        <path d="M 40.578125 39.3125 
Q 47.65625 37.796875 51.625 33 
Q 55.609375 28.21875 55.609375 21.1875 
Q 55.609375 10.40625 48.1875 4.484375 
Q 40.765625 -1.421875 27.09375 -1.421875 
Q 22.515625 -1.421875 17.65625 -0.515625 
Q 12.796875 0.390625 7.625 2.203125 
L 7.625 11.71875 
Q 11.71875 9.328125 16.59375 8.109375 
Q 21.484375 6.890625 26.8125 6.890625 
Q 36.078125 6.890625 40.9375 10.546875 
Q 45.796875 14.203125 45.796875 21.1875 
Q 45.796875 27.640625 41.28125 31.265625 
Q 36.765625 34.90625 28.71875 34.90625 
L 20.21875 34.90625 
L 20.21875 43.015625 
L 29.109375 43.015625 
Q 36.375 43.015625 40.234375 45.921875 
Q 44.09375 48.828125 44.09375 54.296875 
Q 44.09375 59.90625 40.109375 62.90625 
Q 36.140625 65.921875 28.71875 65.921875 
Q 24.65625 65.921875 20.015625 65.03125 
Q 15.375 64.15625 9.8125 62.3125 
L 9.8125 71.09375 
Q 15.4375 72.65625 20.34375 73.4375 
Q 25.25 74.21875 29.59375 74.21875 
Q 40.828125 74.21875 47.359375 69.109375 
Q 53.90625 64.015625 53.90625 55.328125 
Q 53.90625 49.265625 50.4375 45.09375 
Q 46.96875 40.921875 40.578125 39.3125 
z
" id="DejaVuSans-51"/>
       </defs>
       <use xlink:href="#DejaVuSans-51"/>
       <use x="63.623047" xlink:href="#DejaVuSans-48"/>
       <use x="127.246094" xlink:href="#DejaVuSans-48"/>
      </g>
     </g>
    </g>
    <g id="xtick_8">
     <g id="line2d_8">
      <path clip-path="url(#p5ffa16f18a)" d="M 351.036364 252 
L 351.036364 34.56 
" style="fill:none;stroke:#ffffff;stroke-linecap:round;"/>
     </g>
     <g id="text_8">
      <!-- 350 -->
      <g style="fill:#262626;" transform="translate(340.538239 269.858281)scale(0.11 -0.11)">
       <use xlink:href="#DejaVuSans-51"/>
       <use x="63.623047" xlink:href="#DejaVuSans-53"/>
       <use x="127.246094" xlink:href="#DejaVuSans-48"/>
      </g>
     </g>
    </g>
    <g id="text_9">
     <!-- Epoch -->
     <g style="fill:#262626;" transform="translate(203.026875 285.264063)scale(0.12 -0.12)">
      <defs>
       <path d="M 9.8125 72.90625 
L 55.90625 72.90625 
L 55.90625 64.59375 
L 19.671875 64.59375 
L 19.671875 43.015625 
L 54.390625 43.015625 
L 54.390625 34.71875 
L 19.671875 34.71875 
L 19.671875 8.296875 
L 56.78125 8.296875 
L 56.78125 0 
L 9.8125 0 
z
" id="DejaVuSans-69"/>
       <path d="M 18.109375 8.203125 
L 18.109375 -20.796875 
L 9.078125 -20.796875 
L 9.078125 54.6875 
L 18.109375 54.6875 
L 18.109375 46.390625 
Q 20.953125 51.265625 25.265625 53.625 
Q 29.59375 56 35.59375 56 
Q 45.5625 56 51.78125 48.09375 
Q 58.015625 40.1875 58.015625 27.296875 
Q 58.015625 14.40625 51.78125 6.484375 
Q 45.5625 -1.421875 35.59375 -1.421875 
Q 29.59375 -1.421875 25.265625 0.953125 
Q 20.953125 3.328125 18.109375 8.203125 
z
M 48.6875 27.296875 
Q 48.6875 37.203125 44.609375 42.84375 
Q 40.53125 48.484375 33.40625 48.484375 
Q 26.265625 48.484375 22.1875 42.84375 
Q 18.109375 37.203125 18.109375 27.296875 
Q 18.109375 17.390625 22.1875 11.75 
Q 26.265625 6.109375 33.40625 6.109375 
Q 40.53125 6.109375 44.609375 11.75 
Q 48.6875 17.390625 48.6875 27.296875 
z
" id="DejaVuSans-112"/>
       <path d="M 30.609375 48.390625 
Q 23.390625 48.390625 19.1875 42.75 
Q 14.984375 37.109375 14.984375 27.296875 
Q 14.984375 17.484375 19.15625 11.84375 
Q 23.34375 6.203125 30.609375 6.203125 
Q 37.796875 6.203125 41.984375 11.859375 
Q 46.1875 17.53125 46.1875 27.296875 
Q 46.1875 37.015625 41.984375 42.703125 
Q 37.796875 48.390625 30.609375 48.390625 
z
M 30.609375 56 
Q 42.328125 56 49.015625 48.375 
Q 55.71875 40.765625 55.71875 27.296875 
Q 55.71875 13.875 49.015625 6.21875 
Q 42.328125 -1.421875 30.609375 -1.421875 
Q 18.84375 -1.421875 12.171875 6.21875 
Q 5.515625 13.875 5.515625 27.296875 
Q 5.515625 40.765625 12.171875 48.375 
Q 18.84375 56 30.609375 56 
z
" id="DejaVuSans-111"/>
       <path d="M 48.78125 52.59375 
L 48.78125 44.1875 
Q 44.96875 46.296875 41.140625 47.34375 
Q 37.3125 48.390625 33.40625 48.390625 
Q 24.65625 48.390625 19.8125 42.84375 
Q 14.984375 37.3125 14.984375 27.296875 
Q 14.984375 17.28125 19.8125 11.734375 
Q 24.65625 6.203125 33.40625 6.203125 
Q 37.3125 6.203125 41.140625 7.25 
Q 44.96875 8.296875 48.78125 10.40625 
L 48.78125 2.09375 
Q 45.015625 0.34375 40.984375 -0.53125 
Q 36.96875 -1.421875 32.421875 -1.421875 
Q 20.0625 -1.421875 12.78125 6.34375 
Q 5.515625 14.109375 5.515625 27.296875 
Q 5.515625 40.671875 12.859375 48.328125 
Q 20.21875 56 33.015625 56 
Q 37.15625 56 41.109375 55.140625 
Q 45.0625 54.296875 48.78125 52.59375 
z
" id="DejaVuSans-99"/>
       <path d="M 54.890625 33.015625 
L 54.890625 0 
L 45.90625 0 
L 45.90625 32.71875 
Q 45.90625 40.484375 42.875 44.328125 
Q 39.84375 48.1875 33.796875 48.1875 
Q 26.515625 48.1875 22.3125 43.546875 
Q 18.109375 38.921875 18.109375 30.90625 
L 18.109375 0 
L 9.078125 0 
L 9.078125 75.984375 
L 18.109375 75.984375 
L 18.109375 46.1875 
Q 21.34375 51.125 25.703125 53.5625 
Q 30.078125 56 35.796875 56 
Q 45.21875 56 50.046875 50.171875 
Q 54.890625 44.34375 54.890625 33.015625 
z
" id="DejaVuSans-104"/>
      </defs>
      <use xlink:href="#DejaVuSans-69"/>
      <use x="63.183594" xlink:href="#DejaVuSans-112"/>
      <use x="126.660156" xlink:href="#DejaVuSans-111"/>
      <use x="187.841797" xlink:href="#DejaVuSans-99"/>
      <use x="242.822266" xlink:href="#DejaVuSans-104"/>
     </g>
    </g>
   </g>
   <g id="matplotlib.axis_2">
    <g id="ytick_1">
     <g id="line2d_9">
      <path clip-path="url(#p5ffa16f18a)" d="M 54 226.371801 
L 388.8 226.371801 
" style="fill:none;stroke:#ffffff;stroke-linecap:round;"/>
     </g>
     <g id="text_10">
      <!-- 0.5 -->
      <g style="fill:#262626;" transform="translate(27.006563 230.550941)scale(0.11 -0.11)">
       <defs>
        <path d="M 10.6875 12.40625 
L 21 12.40625 
L 21 0 
L 10.6875 0 
z
" id="DejaVuSans-46"/>
       </defs>
       <use xlink:href="#DejaVuSans-48"/>
       <use x="63.623047" xlink:href="#DejaVuSans-46"/>
       <use x="95.410156" xlink:href="#DejaVuSans-53"/>
      </g>
     </g>
    </g>
    <g id="ytick_2">
     <g id="line2d_10">
      <path clip-path="url(#p5ffa16f18a)" d="M 54 189.881459 
L 388.8 189.881459 
" style="fill:none;stroke:#ffffff;stroke-linecap:round;"/>
     </g>
     <g id="text_11">
      <!-- 0.6 -->
      <g style="fill:#262626;" transform="translate(27.006563 194.0606)scale(0.11 -0.11)">
       <defs>
        <path d="M 33.015625 40.375 
Q 26.375 40.375 22.484375 35.828125 
Q 18.609375 31.296875 18.609375 23.390625 
Q 18.609375 15.53125 22.484375 10.953125 
Q 26.375 6.390625 33.015625 6.390625 
Q 39.65625 6.390625 43.53125 10.953125 
Q 47.40625 15.53125 47.40625 23.390625 
Q 47.40625 31.296875 43.53125 35.828125 
Q 39.65625 40.375 33.015625 40.375 
z
M 52.59375 71.296875 
L 52.59375 62.3125 
Q 48.875 64.0625 45.09375 64.984375 
Q 41.3125 65.921875 37.59375 65.921875 
Q 27.828125 65.921875 22.671875 59.328125 
Q 17.53125 52.734375 16.796875 39.40625 
Q 19.671875 43.65625 24.015625 45.921875 
Q 28.375 48.1875 33.59375 48.1875 
Q 44.578125 48.1875 50.953125 41.515625 
Q 57.328125 34.859375 57.328125 23.390625 
Q 57.328125 12.15625 50.6875 5.359375 
Q 44.046875 -1.421875 33.015625 -1.421875 
Q 20.359375 -1.421875 13.671875 8.265625 
Q 6.984375 17.96875 6.984375 36.375 
Q 6.984375 53.65625 15.1875 63.9375 
Q 23.390625 74.21875 37.203125 74.21875 
Q 40.921875 74.21875 44.703125 73.484375 
Q 48.484375 72.75 52.59375 71.296875 
z
" id="DejaVuSans-54"/>
       </defs>
       <use xlink:href="#DejaVuSans-48"/>
       <use x="63.623047" xlink:href="#DejaVuSans-46"/>
       <use x="95.410156" xlink:href="#DejaVuSans-54"/>
      </g>
     </g>
    </g>
    <g id="ytick_3">
     <g id="line2d_11">
      <path clip-path="url(#p5ffa16f18a)" d="M 54 153.391118 
L 388.8 153.391118 
" style="fill:none;stroke:#ffffff;stroke-linecap:round;"/>
     </g>
     <g id="text_12">
      <!-- 0.7 -->
      <g style="fill:#262626;" transform="translate(27.006563 157.570259)scale(0.11 -0.11)">
       <defs>
        <path d="M 8.203125 72.90625 
L 55.078125 72.90625 
L 55.078125 68.703125 
L 28.609375 0 
L 18.3125 0 
L 43.21875 64.59375 
L 8.203125 64.59375 
z
" id="DejaVuSans-55"/>
       </defs>
       <use xlink:href="#DejaVuSans-48"/>
       <use x="63.623047" xlink:href="#DejaVuSans-46"/>
       <use x="95.410156" xlink:href="#DejaVuSans-55"/>
      </g>
     </g>
    </g>
    <g id="ytick_4">
     <g id="line2d_12">
      <path clip-path="url(#p5ffa16f18a)" d="M 54 116.900776 
L 388.8 116.900776 
" style="fill:none;stroke:#ffffff;stroke-linecap:round;"/>
     </g>
     <g id="text_13">
      <!-- 0.8 -->
      <g style="fill:#262626;" transform="translate(27.006563 121.079917)scale(0.11 -0.11)">
       <defs>
        <path d="M 31.78125 34.625 
Q 24.75 34.625 20.71875 30.859375 
Q 16.703125 27.09375 16.703125 20.515625 
Q 16.703125 13.921875 20.71875 10.15625 
Q 24.75 6.390625 31.78125 6.390625 
Q 38.8125 6.390625 42.859375 10.171875 
Q 46.921875 13.96875 46.921875 20.515625 
Q 46.921875 27.09375 42.890625 30.859375 
Q 38.875 34.625 31.78125 34.625 
z
M 21.921875 38.8125 
Q 15.578125 40.375 12.03125 44.71875 
Q 8.5 49.078125 8.5 55.328125 
Q 8.5 64.0625 14.71875 69.140625 
Q 20.953125 74.21875 31.78125 74.21875 
Q 42.671875 74.21875 48.875 69.140625 
Q 55.078125 64.0625 55.078125 55.328125 
Q 55.078125 49.078125 51.53125 44.71875 
Q 48 40.375 41.703125 38.8125 
Q 48.828125 37.15625 52.796875 32.3125 
Q 56.78125 27.484375 56.78125 20.515625 
Q 56.78125 9.90625 50.3125 4.234375 
Q 43.84375 -1.421875 31.78125 -1.421875 
Q 19.734375 -1.421875 13.25 4.234375 
Q 6.78125 9.90625 6.78125 20.515625 
Q 6.78125 27.484375 10.78125 32.3125 
Q 14.796875 37.15625 21.921875 38.8125 
z
M 18.3125 54.390625 
Q 18.3125 48.734375 21.84375 45.5625 
Q 25.390625 42.390625 31.78125 42.390625 
Q 38.140625 42.390625 41.71875 45.5625 
Q 45.3125 48.734375 45.3125 54.390625 
Q 45.3125 60.0625 41.71875 63.234375 
Q 38.140625 66.40625 31.78125 66.40625 
Q 25.390625 66.40625 21.84375 63.234375 
Q 18.3125 60.0625 18.3125 54.390625 
z
" id="DejaVuSans-56"/>
       </defs>
       <use xlink:href="#DejaVuSans-48"/>
       <use x="63.623047" xlink:href="#DejaVuSans-46"/>
       <use x="95.410156" xlink:href="#DejaVuSans-56"/>
      </g>
     </g>
    </g>
    <g id="ytick_5">
     <g id="line2d_13">
      <path clip-path="url(#p5ffa16f18a)" d="M 54 80.410435 
L 388.8 80.410435 
" style="fill:none;stroke:#ffffff;stroke-linecap:round;"/>
     </g>
     <g id="text_14">
      <!-- 0.9 -->
      <g style="fill:#262626;" transform="translate(27.006563 84.589576)scale(0.11 -0.11)">
       <defs>
        <path d="M 10.984375 1.515625 
L 10.984375 10.5 
Q 14.703125 8.734375 18.5 7.8125 
Q 22.3125 6.890625 25.984375 6.890625 
Q 35.75 6.890625 40.890625 13.453125 
Q 46.046875 20.015625 46.78125 33.40625 
Q 43.953125 29.203125 39.59375 26.953125 
Q 35.25 24.703125 29.984375 24.703125 
Q 19.046875 24.703125 12.671875 31.3125 
Q 6.296875 37.9375 6.296875 49.421875 
Q 6.296875 60.640625 12.9375 67.421875 
Q 19.578125 74.21875 30.609375 74.21875 
Q 43.265625 74.21875 49.921875 64.515625 
Q 56.59375 54.828125 56.59375 36.375 
Q 56.59375 19.140625 48.40625 8.859375 
Q 40.234375 -1.421875 26.421875 -1.421875 
Q 22.703125 -1.421875 18.890625 -0.6875 
Q 15.09375 0.046875 10.984375 1.515625 
z
M 30.609375 32.421875 
Q 37.25 32.421875 41.125 36.953125 
Q 45.015625 41.5 45.015625 49.421875 
Q 45.015625 57.28125 41.125 61.84375 
Q 37.25 66.40625 30.609375 66.40625 
Q 23.96875 66.40625 20.09375 61.84375 
Q 16.21875 57.28125 16.21875 49.421875 
Q 16.21875 41.5 20.09375 36.953125 
Q 23.96875 32.421875 30.609375 32.421875 
z
" id="DejaVuSans-57"/>
       </defs>
       <use xlink:href="#DejaVuSans-48"/>
       <use x="63.623047" xlink:href="#DejaVuSans-46"/>
       <use x="95.410156" xlink:href="#DejaVuSans-57"/>
      </g>
     </g>
    </g>
    <g id="ytick_6">
     <g id="line2d_14">
      <path clip-path="url(#p5ffa16f18a)" d="M 54 43.920094 
L 388.8 43.920094 
" style="fill:none;stroke:#ffffff;stroke-linecap:round;"/>
     </g>
     <g id="text_15">
      <!-- 1.0 -->
      <g style="fill:#262626;" transform="translate(27.006563 48.099234)scale(0.11 -0.11)">
       <use xlink:href="#DejaVuSans-49"/>
       <use x="63.623047" xlink:href="#DejaVuSans-46"/>
       <use x="95.410156" xlink:href="#DejaVuSans-48"/>
      </g>
     </g>
    </g>
    <g id="text_16">
     <!-- Accuracy -->
     <g style="fill:#262626;" transform="translate(20.510937 170.67375)rotate(-90)scale(0.12 -0.12)">
      <defs>
       <path d="M 34.1875 63.1875 
L 20.796875 26.90625 
L 47.609375 26.90625 
z
M 28.609375 72.90625 
L 39.796875 72.90625 
L 67.578125 0 
L 57.328125 0 
L 50.6875 18.703125 
L 17.828125 18.703125 
L 11.1875 0 
L 0.78125 0 
z
" id="DejaVuSans-65"/>
       <path d="M 8.5 21.578125 
L 8.5 54.6875 
L 17.484375 54.6875 
L 17.484375 21.921875 
Q 17.484375 14.15625 20.5 10.265625 
Q 23.53125 6.390625 29.59375 6.390625 
Q 36.859375 6.390625 41.078125 11.03125 
Q 45.3125 15.671875 45.3125 23.6875 
L 45.3125 54.6875 
L 54.296875 54.6875 
L 54.296875 0 
L 45.3125 0 
L 45.3125 8.40625 
Q 42.046875 3.421875 37.71875 1 
Q 33.40625 -1.421875 27.6875 -1.421875 
Q 18.265625 -1.421875 13.375 4.4375 
Q 8.5 10.296875 8.5 21.578125 
z
M 31.109375 56 
z
" id="DejaVuSans-117"/>
       <path d="M 41.109375 46.296875 
Q 39.59375 47.171875 37.8125 47.578125 
Q 36.03125 48 33.890625 48 
Q 26.265625 48 22.1875 43.046875 
Q 18.109375 38.09375 18.109375 28.8125 
L 18.109375 0 
L 9.078125 0 
L 9.078125 54.6875 
L 18.109375 54.6875 
L 18.109375 46.1875 
Q 20.953125 51.171875 25.484375 53.578125 
Q 30.03125 56 36.53125 56 
Q 37.453125 56 38.578125 55.875 
Q 39.703125 55.765625 41.0625 55.515625 
z
" id="DejaVuSans-114"/>
       <path d="M 34.28125 27.484375 
Q 23.390625 27.484375 19.1875 25 
Q 14.984375 22.515625 14.984375 16.5 
Q 14.984375 11.71875 18.140625 8.90625 
Q 21.296875 6.109375 26.703125 6.109375 
Q 34.1875 6.109375 38.703125 11.40625 
Q 43.21875 16.703125 43.21875 25.484375 
L 43.21875 27.484375 
z
M 52.203125 31.203125 
L 52.203125 0 
L 43.21875 0 
L 43.21875 8.296875 
Q 40.140625 3.328125 35.546875 0.953125 
Q 30.953125 -1.421875 24.3125 -1.421875 
Q 15.921875 -1.421875 10.953125 3.296875 
Q 6 8.015625 6 15.921875 
Q 6 25.140625 12.171875 29.828125 
Q 18.359375 34.515625 30.609375 34.515625 
L 43.21875 34.515625 
L 43.21875 35.40625 
Q 43.21875 41.609375 39.140625 45 
Q 35.0625 48.390625 27.6875 48.390625 
Q 23 48.390625 18.546875 47.265625 
Q 14.109375 46.140625 10.015625 43.890625 
L 10.015625 52.203125 
Q 14.9375 54.109375 19.578125 55.046875 
Q 24.21875 56 28.609375 56 
Q 40.484375 56 46.34375 49.84375 
Q 52.203125 43.703125 52.203125 31.203125 
z
" id="DejaVuSans-97"/>
       <path d="M 32.171875 -5.078125 
Q 28.375 -14.84375 24.75 -17.8125 
Q 21.140625 -20.796875 15.09375 -20.796875 
L 7.90625 -20.796875 
L 7.90625 -13.28125 
L 13.1875 -13.28125 
Q 16.890625 -13.28125 18.9375 -11.515625 
Q 21 -9.765625 23.484375 -3.21875 
L 25.09375 0.875 
L 2.984375 54.6875 
L 12.5 54.6875 
L 29.59375 11.921875 
L 46.6875 54.6875 
L 56.203125 54.6875 
z
" id="DejaVuSans-121"/>
      </defs>
      <use xlink:href="#DejaVuSans-65"/>
      <use x="66.658203" xlink:href="#DejaVuSans-99"/>
      <use x="121.638672" xlink:href="#DejaVuSans-99"/>
      <use x="176.619141" xlink:href="#DejaVuSans-117"/>
      <use x="239.998047" xlink:href="#DejaVuSans-114"/>
      <use x="281.111328" xlink:href="#DejaVuSans-97"/>
      <use x="342.390625" xlink:href="#DejaVuSans-99"/>
      <use x="397.371094" xlink:href="#DejaVuSans-121"/>
     </g>
    </g>
   </g>
   <g id="line2d_15">
    <path clip-path="url(#p5ffa16f18a)" d="M 69.218182 219.827614 
L 70.023377 201.503922 
L 70.828571 217.733486 
L 71.633766 197.839188 
L 72.438961 205.692199 
L 73.244156 204.645135 
L 74.049351 203.074528 
L 74.854545 200.980379 
L 75.65974 211.451082 
L 76.464935 199.933315 
L 77.27013 192.603847 
L 78.075325 192.603847 
L 78.880519 197.315645 
L 79.685714 185.7979 
L 80.490909 191.03324 
L 81.296104 185.274357 
L 82.101299 169.568335 
L 82.906494 178.991952 
L 83.711688 176.897803 
L 84.516883 171.138941 
L 86.932468 166.427122 
L 87.737662 161.715324 
L 88.542857 149.150493 
L 89.348052 153.33877 
L 90.153247 150.197557 
L 90.958442 149.150493 
L 91.763636 149.150493 
L 92.568831 142.344546 
L 93.374026 134.491535 
L 94.179221 139.726876 
L 94.984416 129.779715 
L 95.78961 131.350322 
L 96.594805 124.020854 
L 97.4 130.303258 
L 98.205195 111.979544 
L 99.01039 111.979544 
L 99.815584 111.456023 
L 100.620779 106.744203 
L 101.425974 100.461799 
L 102.231169 103.603012 
L 103.036364 103.079469 
L 103.841558 99.414735 
L 104.646753 93.132309 
L 105.451948 92.085245 
L 106.257143 94.179394 
L 107.062338 92.085245 
L 107.867532 88.420511 
L 108.672727 84.232234 
L 109.477922 87.373447 
L 110.283117 87.373447 
L 111.088312 92.608788 
L 111.893506 87.373447 
L 112.698701 74.285074 
L 113.503896 85.802841 
L 114.309091 82.138107 
L 115.114286 76.902766 
L 115.919481 85.279298 
L 116.724675 72.190946 
L 118.335065 78.473351 
L 119.14026 74.285074 
L 119.945455 75.332159 
L 120.750649 76.902766 
L 121.555844 74.808617 
L 122.361039 78.996893 
L 123.166234 73.761553 
L 123.971429 69.573276 
L 124.776623 69.049733 
L 125.581818 66.432063 
L 126.387013 69.049733 
L 127.192208 77.426287 
L 127.997403 80.5675 
L 128.802597 60.673201 
L 129.607792 65.908542 
L 130.412987 68.526212 
L 131.218182 61.720265 
L 132.023377 61.720265 
L 132.828571 64.337935 
L 133.633766 71.143882 
L 134.438961 66.955606 
L 135.244156 61.196722 
L 136.049351 61.720265 
L 136.854545 59.626116 
L 137.65974 65.384999 
L 138.464935 70.096819 
L 139.27013 59.102595 
L 140.075325 62.767329 
L 140.880519 61.196722 
L 141.685714 69.573276 
L 142.490909 63.814392 
L 144.101299 55.961381 
L 144.906494 65.384999 
L 145.711688 64.861456 
L 146.516883 67.479148 
L 147.322078 57.531988 
L 148.127273 58.055531 
L 148.932468 61.196722 
L 149.737662 63.290871 
L 150.542857 56.484924 
L 151.348052 58.579052 
L 152.153247 52.296647 
L 152.958442 54.390775 
L 153.763636 64.337935 
L 154.568831 61.720265 
L 155.374026 70.62034 
L 156.179221 61.196722 
L 156.984416 63.814392 
L 157.78961 60.673201 
L 158.594805 58.579052 
L 159.4 62.767329 
L 160.205195 54.914318 
L 161.01039 58.055531 
L 161.815584 55.437839 
L 162.620779 53.867254 
L 163.425974 53.343711 
L 164.231169 54.390775 
L 165.036364 50.726041 
L 165.841558 56.484924 
L 166.646753 55.437839 
L 167.451948 59.626116 
L 168.257143 59.102595 
L 169.062338 52.820168 
L 169.867532 50.726041 
L 170.672727 54.914318 
L 171.477922 60.149658 
L 172.283117 54.390775 
L 173.088312 53.343711 
L 173.893506 51.773105 
L 174.698701 53.343711 
L 175.503896 50.726041 
L 176.309091 60.149658 
L 177.114286 56.484924 
L 177.919481 59.626116 
L 178.724675 54.914318 
L 179.52987 57.531988 
L 180.335065 54.914318 
L 181.14026 55.437839 
L 181.945455 57.008445 
L 182.750649 64.337935 
L 183.555844 57.008445 
L 184.361039 53.867254 
L 185.166234 54.914318 
L 185.971429 57.531988 
L 186.776623 58.055531 
L 187.581818 56.484924 
L 188.387013 53.343711 
L 189.192208 54.390775 
L 189.997403 53.867254 
L 191.607792 58.055531 
L 192.412987 58.055531 
L 193.218182 60.149658 
L 194.023377 60.673201 
L 194.828571 60.673201 
L 195.633766 57.531988 
L 197.244156 48.631913 
L 198.049351 49.155434 
L 198.854545 51.249584 
L 199.65974 56.484924 
L 200.464935 49.678977 
L 201.27013 50.202498 
L 202.075325 52.296647 
L 202.880519 51.249584 
L 203.685714 51.773105 
L 204.490909 51.773105 
L 205.296104 49.155434 
L 206.101299 50.202498 
L 206.906494 47.061307 
L 207.711688 46.537764 
L 208.516883 45.4907 
L 209.322078 51.249584 
L 210.127273 48.10837 
L 210.932468 49.155434 
L 211.737662 52.296647 
L 212.542857 55.961381 
L 213.348052 57.008445 
L 214.153247 54.914318 
L 214.958442 53.343711 
L 215.763636 50.726041 
L 216.568831 51.249584 
L 217.374026 54.390775 
L 218.179221 51.249584 
L 218.984416 51.773105 
L 219.78961 53.343711 
L 220.594805 50.726041 
L 221.4 54.390775 
L 222.205195 56.484924 
L 223.01039 57.531988 
L 223.815584 58.055531 
L 224.620779 57.531988 
L 225.425974 50.726041 
L 226.231169 53.867254 
L 227.036364 54.914318 
L 227.841558 57.531988 
L 228.646753 61.196722 
L 229.451948 54.390775 
L 230.257143 57.531988 
L 231.062338 54.390775 
L 231.867532 55.437839 
L 232.672727 51.249584 
L 233.477922 51.249584 
L 234.283117 53.867254 
L 235.088312 47.584828 
L 235.893506 48.631913 
L 237.503896 47.584828 
L 238.309091 50.202498 
L 239.114286 49.678977 
L 239.919481 52.820168 
L 240.724675 53.867254 
L 241.52987 53.867254 
L 242.335065 54.390775 
L 243.14026 47.584828 
L 243.945455 51.249584 
L 244.750649 50.726041 
L 245.555844 51.249584 
L 246.361039 50.726041 
L 247.166234 54.390775 
L 247.971429 52.296647 
L 248.776623 49.155434 
L 249.581818 52.296647 
L 250.387013 49.155434 
L 251.192208 51.249584 
L 251.997403 51.773105 
L 252.802597 47.061307 
L 253.607792 51.249584 
L 254.412987 50.726041 
L 255.218182 57.531988 
L 256.023377 53.343711 
L 256.828571 52.820168 
L 257.633766 51.249584 
L 259.244156 51.249584 
L 260.854545 48.10837 
L 261.65974 46.014221 
L 262.464935 51.773105 
L 263.27013 46.014221 
L 264.075325 46.014221 
L 264.880519 52.296647 
L 265.685714 47.584828 
L 267.296104 48.631913 
L 268.101299 48.631913 
L 268.906494 49.678977 
L 269.711688 49.678977 
L 271.322078 46.537764 
L 272.127273 53.343711 
L 272.932468 46.014221 
L 273.737662 50.202498 
L 274.542857 47.061307 
L 275.348052 53.867254 
L 276.153247 50.726041 
L 276.958442 52.296647 
L 277.763636 47.061307 
L 278.568831 48.10837 
L 279.374026 48.631913 
L 280.179221 51.249584 
L 280.984416 49.155434 
L 281.78961 51.773105 
L 282.594805 48.631913 
L 283.4 50.202498 
L 284.205195 52.820168 
L 285.01039 54.390775 
L 285.815584 49.678977 
L 286.620779 52.296647 
L 287.425974 49.155434 
L 288.231169 49.678977 
L 289.036364 52.296647 
L 289.841558 50.202498 
L 290.646753 48.631913 
L 291.451948 46.537764 
L 292.257143 45.4907 
L 293.062338 44.967157 
L 294.672727 47.061307 
L 295.477922 47.061307 
L 296.283117 48.10837 
L 297.088312 46.537764 
L 297.893506 44.443636 
L 298.698701 46.537764 
L 299.503896 46.014221 
L 300.309091 51.773105 
L 301.114286 50.726041 
L 301.919481 46.537764 
L 302.724675 49.678977 
L 303.52987 47.584828 
L 304.335065 48.631913 
L 305.14026 48.631913 
L 305.945455 49.155434 
L 306.750649 50.726041 
L 307.555844 46.014221 
L 308.361039 45.4907 
L 309.166234 47.061307 
L 309.971429 49.678977 
L 312.387013 48.10837 
L 313.192208 48.10837 
L 313.997403 50.202498 
L 314.802597 52.820168 
L 316.412987 49.678977 
L 317.218182 47.061307 
L 318.023377 47.584828 
L 318.828571 53.343711 
L 319.633766 47.584828 
L 320.438961 49.155434 
L 321.244156 52.296647 
L 322.049351 48.10837 
L 322.854545 50.202498 
L 323.65974 48.10837 
L 324.464935 51.249584 
L 325.27013 47.061307 
L 326.075325 49.155434 
L 326.880519 49.678977 
L 327.685714 49.155434 
L 328.490909 48.10837 
L 329.296104 49.678977 
L 330.101299 46.014221 
L 330.906494 47.061307 
L 331.711688 44.967157 
L 332.516883 49.155434 
L 333.322078 50.726041 
L 334.127273 46.537764 
L 334.932468 48.631913 
L 335.737662 45.4907 
L 336.542857 48.631913 
L 337.348052 50.726041 
L 338.153247 44.967157 
L 338.958442 48.10837 
L 339.763636 48.631913 
L 340.568831 48.631913 
L 341.374026 46.537764 
L 342.179221 51.773105 
L 342.984416 49.155434 
L 343.78961 51.249584 
L 344.594805 49.678977 
L 345.4 47.061307 
L 346.205195 52.296647 
L 347.01039 51.249584 
L 347.815584 51.773105 
L 348.620779 51.773105 
L 349.425974 54.390775 
L 350.231169 53.867254 
L 351.036364 53.867254 
L 351.841558 55.961381 
L 352.646753 54.914318 
L 353.451948 52.820168 
L 354.257143 48.631913 
L 355.062338 47.584828 
L 355.867532 44.967157 
L 356.672727 48.631913 
L 358.283117 46.537764 
L 359.088312 50.202498 
L 359.893506 50.202498 
L 360.698701 52.820168 
L 361.503896 51.249584 
L 362.309091 52.296647 
L 363.114286 57.531988 
L 363.919481 57.531988 
L 364.724675 55.437839 
L 365.52987 48.631913 
L 366.335065 53.867254 
L 367.14026 50.202498 
L 367.945455 49.678977 
L 368.750649 47.584828 
L 370.361039 48.631913 
L 371.166234 47.061307 
L 371.971429 44.443636 
L 372.776623 46.537764 
L 373.581818 46.537764 
L 373.581818 46.537764 
" style="fill:none;stroke:#4c72b0;stroke-linecap:round;stroke-width:1.5;"/>
   </g>
   <g id="line2d_16">
    <path clip-path="url(#p5ffa16f18a)" d="M 69.218182 201.365723 
L 70.023377 225.445645 
L 70.828571 218.036441 
L 71.633766 153.205878 
L 72.438961 188.399627 
L 73.244156 155.05819 
L 74.049351 155.05819 
L 74.854545 192.104229 
L 75.65974 195.808831 
L 76.464935 184.695026 
L 78.075325 177.2858 
L 78.880519 193.956519 
L 79.685714 192.104229 
L 80.490909 168.024307 
L 81.296104 221.741043 
L 82.101299 195.808831 
L 82.906494 205.070324 
L 83.711688 221.741043 
L 84.516883 205.070324 
L 85.322078 236.559461 
L 86.127273 212.47955 
L 86.932468 214.33184 
L 88.542857 242.116364 
L 89.348052 208.774926 
L 90.153247 231.002558 
L 90.958442 177.2858 
L 91.763636 182.842714 
L 92.568831 210.627238 
L 93.374026 169.876597 
L 94.179221 153.205878 
L 94.984416 156.910502 
L 95.78961 177.2858 
L 96.594805 179.138112 
L 97.4 162.467393 
L 98.205195 153.205878 
L 99.01039 160.615103 
L 99.815584 162.467393 
L 100.620779 156.910502 
L 101.425974 153.205878 
L 102.231169 156.910502 
L 103.036364 169.876597 
L 103.841558 162.467393 
L 104.646753 169.876597 
L 105.451948 205.070324 
L 106.257143 173.581199 
L 107.062338 168.024307 
L 107.867532 164.319705 
L 108.672727 162.467393 
L 109.477922 171.728909 
L 110.283117 168.024307 
L 111.088312 171.728909 
L 111.893506 168.024307 
L 112.698701 153.205878 
L 113.503896 156.910502 
L 114.309091 155.05819 
L 115.114286 158.762792 
L 115.919481 158.762792 
L 116.724675 160.615103 
L 118.335065 153.205878 
L 119.14026 168.024307 
L 119.945455 162.467393 
L 120.750649 190.251917 
L 121.555844 164.319705 
L 122.361039 149.501276 
L 123.166234 156.910502 
L 123.971429 168.024307 
L 124.776623 149.501276 
L 125.581818 164.319705 
L 126.387013 162.467393 
L 127.192208 168.024307 
L 127.997403 166.171995 
L 128.802597 190.251917 
L 129.607792 192.104229 
L 130.412987 171.728909 
L 131.218182 162.467393 
L 132.023377 149.501276 
L 132.828571 151.353588 
L 133.633766 184.695026 
L 134.438961 186.547316 
L 135.244156 158.762792 
L 136.049351 177.2858 
L 136.854545 179.138112 
L 137.65974 171.728909 
L 138.464935 162.467393 
L 139.27013 173.581199 
L 140.075325 171.728909 
L 140.880519 175.43351 
L 141.685714 162.467393 
L 142.490909 166.171995 
L 143.296104 180.990402 
L 144.101299 158.762792 
L 144.906494 156.910502 
L 145.711688 164.319705 
L 146.516883 192.104229 
L 147.322078 171.728909 
L 148.127273 171.728909 
L 148.932468 173.581199 
L 149.737662 164.319705 
L 150.542857 151.353588 
L 152.153247 162.467393 
L 152.958442 182.842714 
L 153.763636 195.808831 
L 154.568831 173.581199 
L 155.374026 177.2858 
L 156.179221 169.876597 
L 156.984416 203.218034 
L 157.78961 190.251917 
L 158.594805 179.138112 
L 159.4 169.876597 
L 160.205195 171.728909 
L 161.01039 171.728909 
L 162.620779 179.138112 
L 163.425974 169.876597 
L 164.231169 155.05819 
L 165.036364 143.944384 
L 165.841558 162.467393 
L 166.646753 173.581199 
L 167.451948 166.171995 
L 169.062338 177.2858 
L 169.867532 164.319705 
L 170.672727 175.43351 
L 171.477922 160.615103 
L 172.283117 188.399627 
L 173.088312 164.319705 
L 173.893506 186.547316 
L 174.698701 171.728909 
L 175.503896 179.138112 
L 176.309091 166.171995 
L 177.114286 177.2858 
L 177.919481 177.2858 
L 178.724675 162.467393 
L 179.52987 162.467393 
L 180.335065 169.876597 
L 181.945455 173.581199 
L 182.750649 169.876597 
L 183.555844 149.501276 
L 184.361039 164.319705 
L 185.166234 168.024307 
L 185.971429 173.581199 
L 186.776623 171.728909 
L 187.581818 177.2858 
L 189.192208 173.581199 
L 189.997403 182.842714 
L 190.802597 171.728909 
L 191.607792 171.728909 
L 192.412987 182.842714 
L 193.218182 182.842714 
L 194.023377 168.024307 
L 194.828571 177.2858 
L 196.438961 177.2858 
L 197.244156 179.138112 
L 198.049351 177.2858 
L 198.854545 177.2858 
L 199.65974 184.695026 
L 200.464935 156.910502 
L 201.27013 180.990402 
L 202.075325 171.728909 
L 202.880519 177.2858 
L 203.685714 164.319705 
L 204.490909 155.05819 
L 205.296104 173.581199 
L 206.101299 175.43351 
L 206.906494 171.728909 
L 207.711688 177.2858 
L 208.516883 166.171995 
L 209.322078 166.171995 
L 210.127273 177.2858 
L 210.932468 162.467393 
L 212.542857 169.876597 
L 213.348052 164.319705 
L 214.153247 162.467393 
L 214.958442 169.876597 
L 215.763636 166.171995 
L 216.568831 164.319705 
L 217.374026 173.581199 
L 218.179221 177.2858 
L 218.984416 156.910502 
L 220.594805 164.319705 
L 221.4 164.319705 
L 222.205195 158.762792 
L 223.01039 164.319705 
L 223.815584 158.762792 
L 224.620779 145.796674 
L 225.425974 160.615103 
L 226.231169 184.695026 
L 227.036364 179.138112 
L 227.841558 169.876597 
L 228.646753 151.353588 
L 229.451948 158.762792 
L 230.257143 156.910502 
L 231.062338 153.205878 
L 232.672727 156.910502 
L 233.477922 153.205878 
L 234.283117 142.092073 
L 235.088312 153.205878 
L 235.893506 156.910502 
L 236.698701 147.648986 
L 237.503896 155.05819 
L 238.309091 158.762792 
L 239.114286 175.43351 
L 239.919481 175.43351 
L 240.724675 186.547316 
L 241.52987 180.990402 
L 242.335065 171.728909 
L 243.14026 169.876597 
L 243.945455 173.581199 
L 245.555844 173.581199 
L 246.361039 175.43351 
L 247.166234 158.762792 
L 247.971429 179.138112 
L 248.776623 156.910502 
L 249.581818 164.319705 
L 250.387013 182.842714 
L 251.192208 186.547316 
L 251.997403 171.728909 
L 252.802597 179.138112 
L 253.607792 171.728909 
L 254.412987 179.138112 
L 255.218182 160.615103 
L 256.023377 169.876597 
L 256.828571 162.467393 
L 257.633766 160.615103 
L 258.438961 171.728909 
L 259.244156 171.728909 
L 260.049351 168.024307 
L 260.854545 168.024307 
L 261.65974 175.43351 
L 262.464935 164.319705 
L 263.27013 162.467393 
L 264.075325 169.876597 
L 264.880519 158.762792 
L 265.685714 168.024307 
L 266.490909 169.876597 
L 267.296104 153.205878 
L 268.101299 184.695026 
L 268.906494 153.205878 
L 269.711688 168.024307 
L 270.516883 164.319705 
L 271.322078 158.762792 
L 272.127273 168.024307 
L 272.932468 173.581199 
L 273.737662 158.762792 
L 274.542857 149.501276 
L 276.153247 138.387471 
L 276.958442 147.648986 
L 277.763636 158.762792 
L 278.568831 149.501276 
L 279.374026 138.387471 
L 280.179221 151.353588 
L 280.984416 147.648986 
L 281.78961 162.467393 
L 282.594805 168.024307 
L 283.4 166.171995 
L 284.205195 168.024307 
L 285.01039 175.43351 
L 285.815584 171.728909 
L 286.620779 149.501276 
L 287.425974 164.319705 
L 288.231169 155.05819 
L 289.036364 164.319705 
L 289.841558 151.353588 
L 290.646753 143.944384 
L 291.451948 138.387471 
L 292.257143 151.353588 
L 293.062338 142.092073 
L 293.867532 147.648986 
L 294.672727 164.319705 
L 295.477922 166.171995 
L 296.283117 155.05819 
L 297.088312 155.05819 
L 297.893506 162.467393 
L 298.698701 156.910502 
L 299.503896 156.910502 
L 300.309091 168.024307 
L 301.114286 158.762792 
L 301.919481 158.762792 
L 302.724675 155.05819 
L 303.52987 155.05819 
L 304.335065 164.319705 
L 305.945455 160.615103 
L 306.750649 151.353588 
L 307.555844 158.762792 
L 308.361039 160.615103 
L 309.166234 158.762792 
L 309.971429 155.05819 
L 310.776623 155.05819 
L 311.581818 153.205878 
L 312.387013 153.205878 
L 313.192208 173.581199 
L 313.997403 168.024307 
L 314.802597 156.910502 
L 315.607792 149.501276 
L 316.412987 158.762792 
L 317.218182 147.648986 
L 318.023377 166.171995 
L 318.828571 169.876597 
L 319.633766 162.467393 
L 320.438961 160.615103 
L 321.244156 169.876597 
L 322.049351 153.205878 
L 322.854545 156.910502 
L 323.65974 177.2858 
L 324.464935 162.467393 
L 325.27013 160.615103 
L 326.075325 166.171995 
L 326.880519 151.353588 
L 327.685714 156.910502 
L 328.490909 160.615103 
L 329.296104 153.205878 
L 330.101299 155.05819 
L 330.906494 160.615103 
L 331.711688 149.501276 
L 332.516883 164.319705 
L 333.322078 158.762792 
L 334.127273 166.171995 
L 334.932468 236.559461 
L 335.737662 160.615103 
L 336.542857 164.319705 
L 337.348052 162.467393 
L 338.153247 166.171995 
L 338.958442 171.728909 
L 339.763636 168.024307 
L 340.568831 162.467393 
L 341.374026 158.762792 
L 342.179221 149.501276 
L 343.78961 175.43351 
L 344.594805 160.615103 
L 345.4 168.024307 
L 346.205195 156.910502 
L 347.01039 168.024307 
L 347.815584 216.184151 
L 348.620779 169.876597 
L 350.231169 158.762792 
L 351.036364 156.910502 
L 351.841558 168.024307 
L 352.646753 173.581199 
L 353.451948 162.467393 
L 354.257143 147.648986 
L 355.062338 158.762792 
L 355.867532 158.762792 
L 356.672727 160.615103 
L 357.477922 173.581199 
L 358.283117 158.762792 
L 359.088312 162.467393 
L 359.893506 173.581199 
L 360.698701 156.910502 
L 361.503896 164.319705 
L 362.309091 179.138112 
L 363.114286 160.615103 
L 363.919481 164.319705 
L 364.724675 158.762792 
L 365.52987 171.728909 
L 366.335065 169.876597 
L 367.14026 169.876597 
L 367.945455 166.171995 
L 368.750649 166.171995 
L 369.555844 164.319705 
L 371.166234 164.319705 
L 372.776623 168.024307 
L 373.581818 180.990402 
L 373.581818 180.990402 
" style="fill:none;stroke:#dd8452;stroke-linecap:round;stroke-width:1.5;"/>
   </g>
   <g id="patch_3">
    <path d="M 54 252 
L 54 34.56 
" style="fill:none;stroke:#ffffff;stroke-linecap:square;stroke-linejoin:miter;stroke-width:1.25;"/>
   </g>
   <g id="patch_4">
    <path d="M 388.8 252 
L 388.8 34.56 
" style="fill:none;stroke:#ffffff;stroke-linecap:square;stroke-linejoin:miter;stroke-width:1.25;"/>
   </g>
   <g id="patch_5">
    <path d="M 54 252 
L 388.8 252 
" style="fill:none;stroke:#ffffff;stroke-linecap:square;stroke-linejoin:miter;stroke-width:1.25;"/>
   </g>
   <g id="patch_6">
    <path d="M 54 34.56 
L 388.8 34.56 
" style="fill:none;stroke:#ffffff;stroke-linecap:square;stroke-linejoin:miter;stroke-width:1.25;"/>
   </g>
   <g id="legend_1">
    <g id="patch_7">
     <path d="M 291.742188 75.651875 
L 381.1 75.651875 
Q 383.3 75.651875 383.3 73.451875 
L 383.3 42.26 
Q 383.3 40.06 381.1 40.06 
L 291.742188 40.06 
Q 289.542188 40.06 289.542188 42.26 
L 289.542188 73.451875 
Q 289.542188 75.651875 291.742188 75.651875 
z
" style="fill:#eaeaf2;opacity:0.8;stroke:#cccccc;stroke-linejoin:miter;"/>
    </g>
    <g id="line2d_17">
     <path d="M 293.942187 48.968281 
L 315.942187 48.968281 
" style="fill:none;stroke:#4c72b0;stroke-linecap:round;stroke-width:1.5;"/>
    </g>
    <g id="line2d_18"/>
    <g id="text_17">
     <!-- training -->
     <g style="fill:#262626;" transform="translate(324.742188 52.818281)scale(0.11 -0.11)">
      <defs>
       <path d="M 18.3125 70.21875 
L 18.3125 54.6875 
L 36.8125 54.6875 
L 36.8125 47.703125 
L 18.3125 47.703125 
L 18.3125 18.015625 
Q 18.3125 11.328125 20.140625 9.421875 
Q 21.96875 7.515625 27.59375 7.515625 
L 36.8125 7.515625 
L 36.8125 0 
L 27.59375 0 
Q 17.1875 0 13.234375 3.875 
Q 9.28125 7.765625 9.28125 18.015625 
L 9.28125 47.703125 
L 2.6875 47.703125 
L 2.6875 54.6875 
L 9.28125 54.6875 
L 9.28125 70.21875 
z
" id="DejaVuSans-116"/>
       <path d="M 9.421875 54.6875 
L 18.40625 54.6875 
L 18.40625 0 
L 9.421875 0 
z
M 9.421875 75.984375 
L 18.40625 75.984375 
L 18.40625 64.59375 
L 9.421875 64.59375 
z
" id="DejaVuSans-105"/>
       <path d="M 54.890625 33.015625 
L 54.890625 0 
L 45.90625 0 
L 45.90625 32.71875 
Q 45.90625 40.484375 42.875 44.328125 
Q 39.84375 48.1875 33.796875 48.1875 
Q 26.515625 48.1875 22.3125 43.546875 
Q 18.109375 38.921875 18.109375 30.90625 
L 18.109375 0 
L 9.078125 0 
L 9.078125 54.6875 
L 18.109375 54.6875 
L 18.109375 46.1875 
Q 21.34375 51.125 25.703125 53.5625 
Q 30.078125 56 35.796875 56 
Q 45.21875 56 50.046875 50.171875 
Q 54.890625 44.34375 54.890625 33.015625 
z
" id="DejaVuSans-110"/>
       <path d="M 45.40625 27.984375 
Q 45.40625 37.75 41.375 43.109375 
Q 37.359375 48.484375 30.078125 48.484375 
Q 22.859375 48.484375 18.828125 43.109375 
Q 14.796875 37.75 14.796875 27.984375 
Q 14.796875 18.265625 18.828125 12.890625 
Q 22.859375 7.515625 30.078125 7.515625 
Q 37.359375 7.515625 41.375 12.890625 
Q 45.40625 18.265625 45.40625 27.984375 
z
M 54.390625 6.78125 
Q 54.390625 -7.171875 48.1875 -13.984375 
Q 42 -20.796875 29.203125 -20.796875 
Q 24.46875 -20.796875 20.265625 -20.09375 
Q 16.0625 -19.390625 12.109375 -17.921875 
L 12.109375 -9.1875 
Q 16.0625 -11.328125 19.921875 -12.34375 
Q 23.78125 -13.375 27.78125 -13.375 
Q 36.625 -13.375 41.015625 -8.765625 
Q 45.40625 -4.15625 45.40625 5.171875 
L 45.40625 9.625 
Q 42.625 4.78125 38.28125 2.390625 
Q 33.9375 0 27.875 0 
Q 17.828125 0 11.671875 7.65625 
Q 5.515625 15.328125 5.515625 27.984375 
Q 5.515625 40.671875 11.671875 48.328125 
Q 17.828125 56 27.875 56 
Q 33.9375 56 38.28125 53.609375 
Q 42.625 51.21875 45.40625 46.390625 
L 45.40625 54.6875 
L 54.390625 54.6875 
z
" id="DejaVuSans-103"/>
      </defs>
      <use xlink:href="#DejaVuSans-116"/>
      <use x="39.208984" xlink:href="#DejaVuSans-114"/>
      <use x="80.322266" xlink:href="#DejaVuSans-97"/>
      <use x="141.601562" xlink:href="#DejaVuSans-105"/>
      <use x="169.384766" xlink:href="#DejaVuSans-110"/>
      <use x="232.763672" xlink:href="#DejaVuSans-105"/>
      <use x="260.546875" xlink:href="#DejaVuSans-110"/>
      <use x="323.925781" xlink:href="#DejaVuSans-103"/>
     </g>
    </g>
    <g id="line2d_19">
     <path d="M 293.942187 65.114219 
L 315.942187 65.114219 
" style="fill:none;stroke:#dd8452;stroke-linecap:round;stroke-width:1.5;"/>
    </g>
    <g id="line2d_20"/>
    <g id="text_18">
     <!-- validation -->
     <g style="fill:#262626;" transform="translate(324.742188 68.964219)scale(0.11 -0.11)">
      <defs>
       <path d="M 2.984375 54.6875 
L 12.5 54.6875 
L 29.59375 8.796875 
L 46.6875 54.6875 
L 56.203125 54.6875 
L 35.6875 0 
L 23.484375 0 
z
" id="DejaVuSans-118"/>
       <path d="M 9.421875 75.984375 
L 18.40625 75.984375 
L 18.40625 0 
L 9.421875 0 
z
" id="DejaVuSans-108"/>
       <path d="M 45.40625 46.390625 
L 45.40625 75.984375 
L 54.390625 75.984375 
L 54.390625 0 
L 45.40625 0 
L 45.40625 8.203125 
Q 42.578125 3.328125 38.25 0.953125 
Q 33.9375 -1.421875 27.875 -1.421875 
Q 17.96875 -1.421875 11.734375 6.484375 
Q 5.515625 14.40625 5.515625 27.296875 
Q 5.515625 40.1875 11.734375 48.09375 
Q 17.96875 56 27.875 56 
Q 33.9375 56 38.25 53.625 
Q 42.578125 51.265625 45.40625 46.390625 
z
M 14.796875 27.296875 
Q 14.796875 17.390625 18.875 11.75 
Q 22.953125 6.109375 30.078125 6.109375 
Q 37.203125 6.109375 41.296875 11.75 
Q 45.40625 17.390625 45.40625 27.296875 
Q 45.40625 37.203125 41.296875 42.84375 
Q 37.203125 48.484375 30.078125 48.484375 
Q 22.953125 48.484375 18.875 42.84375 
Q 14.796875 37.203125 14.796875 27.296875 
z
" id="DejaVuSans-100"/>
      </defs>
      <use xlink:href="#DejaVuSans-118"/>
      <use x="59.179688" xlink:href="#DejaVuSans-97"/>
      <use x="120.458984" xlink:href="#DejaVuSans-108"/>
      <use x="148.242188" xlink:href="#DejaVuSans-105"/>
      <use x="176.025391" xlink:href="#DejaVuSans-100"/>
      <use x="239.501953" xlink:href="#DejaVuSans-97"/>
      <use x="300.78125" xlink:href="#DejaVuSans-116"/>
      <use x="339.990234" xlink:href="#DejaVuSans-105"/>
      <use x="367.773438" xlink:href="#DejaVuSans-111"/>
      <use x="428.955078" xlink:href="#DejaVuSans-110"/>
     </g>
    </g>
   </g>
  </g>
 </g>
 <defs>
  <clipPath id="p5ffa16f18a">
   <rect height="217.44" width="334.8" x="54" y="34.56"/>
  </clipPath>
 </defs>
</svg>
