<?xml version="1.0" encoding="utf-8" standalone="no"?>
<!DOCTYPE svg PUBLIC "-//W3C//DTD SVG 1.1//EN"
  "http://www.w3.org/Graphics/SVG/1.1/DTD/svg11.dtd">
<!-- Created with matplotlib (https://matplotlib.org/) -->
<svg height="267.599687pt" version="1.1" viewBox="0 0 524.600625 267.599687" width="524.600625pt" xmlns="http://www.w3.org/2000/svg" xmlns:xlink="http://www.w3.org/1999/xlink">
 <defs>
  <style type="text/css">
*{stroke-linecap:butt;stroke-linejoin:round;}
  </style>
 </defs>
 <g id="figure_1">
  <g id="patch_1">
   <path d="M 0 267.599687 
L 524.600625 267.599687 
L 524.600625 0 
L 0 0 
z
" style="fill:#ffffff;"/>
  </g>
  <g id="axes_1">
   <g id="patch_2">
    <path d="M 49.807187 224.64 
L 384.607188 224.64 
L 384.607188 7.2 
L 49.807187 7.2 
z
" style="fill:#eaeaf2;"/>
   </g>
   <g id="matplotlib.axis_1">
    <g id="xtick_1">
     <g id="line2d_1">
      <path clip-path="url(#p0afc7c32be)" d="M 62.207187 224.64 
L 62.207187 7.2 
" style="fill:none;stroke:#ffffff;stroke-linecap:round;"/>
     </g>
     <g id="text_1">
      <!-- 0.0 -->
      <defs>
       <path d="M 31.78125 66.40625 
Q 24.171875 66.40625 20.328125 58.90625 
Q 16.5 51.421875 16.5 36.375 
Q 16.5 21.390625 20.328125 13.890625 
Q 24.171875 6.390625 31.78125 6.390625 
Q 39.453125 6.390625 43.28125 13.890625 
Q 47.125 21.390625 47.125 36.375 
Q 47.125 51.421875 43.28125 58.90625 
Q 39.453125 66.40625 31.78125 66.40625 
z
M 31.78125 74.21875 
Q 44.046875 74.21875 50.515625 64.515625 
Q 56.984375 54.828125 56.984375 36.375 
Q 56.984375 17.96875 50.515625 8.265625 
Q 44.046875 -1.421875 31.78125 -1.421875 
Q 19.53125 -1.421875 13.0625 8.265625 
Q 6.59375 17.96875 6.59375 36.375 
Q 6.59375 54.828125 13.0625 64.515625 
Q 19.53125 74.21875 31.78125 74.21875 
z
" id="DejaVuSans-48"/>
       <path d="M 10.6875 12.40625 
L 21 12.40625 
L 21 0 
L 10.6875 0 
z
" id="DejaVuSans-46"/>
      </defs>
      <g style="fill:#262626;" transform="translate(53.460469 242.498281)scale(0.11 -0.11)">
       <use xlink:href="#DejaVuSans-48"/>
       <use x="63.623047" xlink:href="#DejaVuSans-46"/>
       <use x="95.410156" xlink:href="#DejaVuSans-48"/>
      </g>
     </g>
    </g>
    <g id="xtick_2">
     <g id="line2d_2">
      <path clip-path="url(#p0afc7c32be)" d="M 124.207188 224.64 
L 124.207188 7.2 
" style="fill:none;stroke:#ffffff;stroke-linecap:round;"/>
     </g>
     <g id="text_2">
      <!-- 0.2 -->
      <defs>
       <path d="M 19.1875 8.296875 
L 53.609375 8.296875 
L 53.609375 0 
L 7.328125 0 
L 7.328125 8.296875 
Q 12.9375 14.109375 22.625 23.890625 
Q 32.328125 33.6875 34.8125 36.53125 
Q 39.546875 41.84375 41.421875 45.53125 
Q 43.3125 49.21875 43.3125 52.78125 
Q 43.3125 58.59375 39.234375 62.25 
Q 35.15625 65.921875 28.609375 65.921875 
Q 23.96875 65.921875 18.8125 64.3125 
Q 13.671875 62.703125 7.8125 59.421875 
L 7.8125 69.390625 
Q 13.765625 71.78125 18.9375 73 
Q 24.125 74.21875 28.421875 74.21875 
Q 39.75 74.21875 46.484375 68.546875 
Q 53.21875 62.890625 53.21875 53.421875 
Q 53.21875 48.921875 51.53125 44.890625 
Q 49.859375 40.875 45.40625 35.40625 
Q 44.1875 33.984375 37.640625 27.21875 
Q 31.109375 20.453125 19.1875 8.296875 
z
" id="DejaVuSans-50"/>
      </defs>
      <g style="fill:#262626;" transform="translate(115.460469 242.498281)scale(0.11 -0.11)">
       <use xlink:href="#DejaVuSans-48"/>
       <use x="63.623047" xlink:href="#DejaVuSans-46"/>
       <use x="95.410156" xlink:href="#DejaVuSans-50"/>
      </g>
     </g>
    </g>
    <g id="xtick_3">
     <g id="line2d_3">
      <path clip-path="url(#p0afc7c32be)" d="M 186.207188 224.64 
L 186.207188 7.2 
" style="fill:none;stroke:#ffffff;stroke-linecap:round;"/>
     </g>
     <g id="text_3">
      <!-- 0.4 -->
      <defs>
       <path d="M 37.796875 64.3125 
L 12.890625 25.390625 
L 37.796875 25.390625 
z
M 35.203125 72.90625 
L 47.609375 72.90625 
L 47.609375 25.390625 
L 58.015625 25.390625 
L 58.015625 17.1875 
L 47.609375 17.1875 
L 47.609375 0 
L 37.796875 0 
L 37.796875 17.1875 
L 4.890625 17.1875 
L 4.890625 26.703125 
z
" id="DejaVuSans-52"/>
      </defs>
      <g style="fill:#262626;" transform="translate(177.460469 242.498281)scale(0.11 -0.11)">
       <use xlink:href="#DejaVuSans-48"/>
       <use x="63.623047" xlink:href="#DejaVuSans-46"/>
       <use x="95.410156" xlink:href="#DejaVuSans-52"/>
      </g>
     </g>
    </g>
    <g id="xtick_4">
     <g id="line2d_4">
      <path clip-path="url(#p0afc7c32be)" d="M 248.207188 224.64 
L 248.207188 7.2 
" style="fill:none;stroke:#ffffff;stroke-linecap:round;"/>
     </g>
     <g id="text_4">
      <!-- 0.6 -->
      <defs>
       <path d="M 33.015625 40.375 
Q 26.375 40.375 22.484375 35.828125 
Q 18.609375 31.296875 18.609375 23.390625 
Q 18.609375 15.53125 22.484375 10.953125 
Q 26.375 6.390625 33.015625 6.390625 
Q 39.65625 6.390625 43.53125 10.953125 
Q 47.40625 15.53125 47.40625 23.390625 
Q 47.40625 31.296875 43.53125 35.828125 
Q 39.65625 40.375 33.015625 40.375 
z
M 52.59375 71.296875 
L 52.59375 62.3125 
Q 48.875 64.0625 45.09375 64.984375 
Q 41.3125 65.921875 37.59375 65.921875 
Q 27.828125 65.921875 22.671875 59.328125 
Q 17.53125 52.734375 16.796875 39.40625 
Q 19.671875 43.65625 24.015625 45.921875 
Q 28.375 48.1875 33.59375 48.1875 
Q 44.578125 48.1875 50.953125 41.515625 
Q 57.328125 34.859375 57.328125 23.390625 
Q 57.328125 12.15625 50.6875 5.359375 
Q 44.046875 -1.421875 33.015625 -1.421875 
Q 20.359375 -1.421875 13.671875 8.265625 
Q 6.984375 17.96875 6.984375 36.375 
Q 6.984375 53.65625 15.1875 63.9375 
Q 23.390625 74.21875 37.203125 74.21875 
Q 40.921875 74.21875 44.703125 73.484375 
Q 48.484375 72.75 52.59375 71.296875 
z
" id="DejaVuSans-54"/>
      </defs>
      <g style="fill:#262626;" transform="translate(239.460469 242.498281)scale(0.11 -0.11)">
       <use xlink:href="#DejaVuSans-48"/>
       <use x="63.623047" xlink:href="#DejaVuSans-46"/>
       <use x="95.410156" xlink:href="#DejaVuSans-54"/>
      </g>
     </g>
    </g>
    <g id="xtick_5">
     <g id="line2d_5">
      <path clip-path="url(#p0afc7c32be)" d="M 310.207187 224.64 
L 310.207187 7.2 
" style="fill:none;stroke:#ffffff;stroke-linecap:round;"/>
     </g>
     <g id="text_5">
      <!-- 0.8 -->
      <defs>
       <path d="M 31.78125 34.625 
Q 24.75 34.625 20.71875 30.859375 
Q 16.703125 27.09375 16.703125 20.515625 
Q 16.703125 13.921875 20.71875 10.15625 
Q 24.75 6.390625 31.78125 6.390625 
Q 38.8125 6.390625 42.859375 10.171875 
Q 46.921875 13.96875 46.921875 20.515625 
Q 46.921875 27.09375 42.890625 30.859375 
Q 38.875 34.625 31.78125 34.625 
z
M 21.921875 38.8125 
Q 15.578125 40.375 12.03125 44.71875 
Q 8.5 49.078125 8.5 55.328125 
Q 8.5 64.0625 14.71875 69.140625 
Q 20.953125 74.21875 31.78125 74.21875 
Q 42.671875 74.21875 48.875 69.140625 
Q 55.078125 64.0625 55.078125 55.328125 
Q 55.078125 49.078125 51.53125 44.71875 
Q 48 40.375 41.703125 38.8125 
Q 48.828125 37.15625 52.796875 32.3125 
Q 56.78125 27.484375 56.78125 20.515625 
Q 56.78125 9.90625 50.3125 4.234375 
Q 43.84375 -1.421875 31.78125 -1.421875 
Q 19.734375 -1.421875 13.25 4.234375 
Q 6.78125 9.90625 6.78125 20.515625 
Q 6.78125 27.484375 10.78125 32.3125 
Q 14.796875 37.15625 21.921875 38.8125 
z
M 18.3125 54.390625 
Q 18.3125 48.734375 21.84375 45.5625 
Q 25.390625 42.390625 31.78125 42.390625 
Q 38.140625 42.390625 41.71875 45.5625 
Q 45.3125 48.734375 45.3125 54.390625 
Q 45.3125 60.0625 41.71875 63.234375 
Q 38.140625 66.40625 31.78125 66.40625 
Q 25.390625 66.40625 21.84375 63.234375 
Q 18.3125 60.0625 18.3125 54.390625 
z
" id="DejaVuSans-56"/>
      </defs>
      <g style="fill:#262626;" transform="translate(301.460469 242.498281)scale(0.11 -0.11)">
       <use xlink:href="#DejaVuSans-48"/>
       <use x="63.623047" xlink:href="#DejaVuSans-46"/>
       <use x="95.410156" xlink:href="#DejaVuSans-56"/>
      </g>
     </g>
    </g>
    <g id="xtick_6">
     <g id="line2d_6">
      <path clip-path="url(#p0afc7c32be)" d="M 372.207188 224.64 
L 372.207188 7.2 
" style="fill:none;stroke:#ffffff;stroke-linecap:round;"/>
     </g>
     <g id="text_6">
      <!-- 1.0 -->
      <defs>
       <path d="M 12.40625 8.296875 
L 28.515625 8.296875 
L 28.515625 63.921875 
L 10.984375 60.40625 
L 10.984375 69.390625 
L 28.421875 72.90625 
L 38.28125 72.90625 
L 38.28125 8.296875 
L 54.390625 8.296875 
L 54.390625 0 
L 12.40625 0 
z
" id="DejaVuSans-49"/>
      </defs>
      <g style="fill:#262626;" transform="translate(363.460469 242.498281)scale(0.11 -0.11)">
       <use xlink:href="#DejaVuSans-49"/>
       <use x="63.623047" xlink:href="#DejaVuSans-46"/>
       <use x="95.410156" xlink:href="#DejaVuSans-48"/>
      </g>
     </g>
    </g>
    <g id="text_7">
     <!-- recall -->
     <defs>
      <path d="M 41.109375 46.296875 
Q 39.59375 47.171875 37.8125 47.578125 
Q 36.03125 48 33.890625 48 
Q 26.265625 48 22.1875 43.046875 
Q 18.109375 38.09375 18.109375 28.8125 
L 18.109375 0 
L 9.078125 0 
L 9.078125 54.6875 
L 18.109375 54.6875 
L 18.109375 46.1875 
Q 20.953125 51.171875 25.484375 53.578125 
Q 30.03125 56 36.53125 56 
Q 37.453125 56 38.578125 55.875 
Q 39.703125 55.765625 41.0625 55.515625 
z
" id="DejaVuSans-114"/>
      <path d="M 56.203125 29.59375 
L 56.203125 25.203125 
L 14.890625 25.203125 
Q 15.484375 15.921875 20.484375 11.0625 
Q 25.484375 6.203125 34.421875 6.203125 
Q 39.59375 6.203125 44.453125 7.46875 
Q 49.3125 8.734375 54.109375 11.28125 
L 54.109375 2.78125 
Q 49.265625 0.734375 44.1875 -0.34375 
Q 39.109375 -1.421875 33.890625 -1.421875 
Q 20.796875 -1.421875 13.15625 6.1875 
Q 5.515625 13.8125 5.515625 26.8125 
Q 5.515625 40.234375 12.765625 48.109375 
Q 20.015625 56 32.328125 56 
Q 43.359375 56 49.78125 48.890625 
Q 56.203125 41.796875 56.203125 29.59375 
z
M 47.21875 32.234375 
Q 47.125 39.59375 43.09375 43.984375 
Q 39.0625 48.390625 32.421875 48.390625 
Q 24.90625 48.390625 20.390625 44.140625 
Q 15.875 39.890625 15.1875 32.171875 
z
" id="DejaVuSans-101"/>
      <path d="M 48.78125 52.59375 
L 48.78125 44.1875 
Q 44.96875 46.296875 41.140625 47.34375 
Q 37.3125 48.390625 33.40625 48.390625 
Q 24.65625 48.390625 19.8125 42.84375 
Q 14.984375 37.3125 14.984375 27.296875 
Q 14.984375 17.28125 19.8125 11.734375 
Q 24.65625 6.203125 33.40625 6.203125 
Q 37.3125 6.203125 41.140625 7.25 
Q 44.96875 8.296875 48.78125 10.40625 
L 48.78125 2.09375 
Q 45.015625 0.34375 40.984375 -0.53125 
Q 36.96875 -1.421875 32.421875 -1.421875 
Q 20.0625 -1.421875 12.78125 6.34375 
Q 5.515625 14.109375 5.515625 27.296875 
Q 5.515625 40.671875 12.859375 48.328125 
Q 20.21875 56 33.015625 56 
Q 37.15625 56 41.109375 55.140625 
Q 45.0625 54.296875 48.78125 52.59375 
z
" id="DejaVuSans-99"/>
      <path d="M 34.28125 27.484375 
Q 23.390625 27.484375 19.1875 25 
Q 14.984375 22.515625 14.984375 16.5 
Q 14.984375 11.71875 18.140625 8.90625 
Q 21.296875 6.109375 26.703125 6.109375 
Q 34.1875 6.109375 38.703125 11.40625 
Q 43.21875 16.703125 43.21875 25.484375 
L 43.21875 27.484375 
z
M 52.203125 31.203125 
L 52.203125 0 
L 43.21875 0 
L 43.21875 8.296875 
Q 40.140625 3.328125 35.546875 0.953125 
Q 30.953125 -1.421875 24.3125 -1.421875 
Q 15.921875 -1.421875 10.953125 3.296875 
Q 6 8.015625 6 15.921875 
Q 6 25.140625 12.171875 29.828125 
Q 18.359375 34.515625 30.609375 34.515625 
L 43.21875 34.515625 
L 43.21875 35.40625 
Q 43.21875 41.609375 39.140625 45 
Q 35.0625 48.390625 27.6875 48.390625 
Q 23 48.390625 18.546875 47.265625 
Q 14.109375 46.140625 10.015625 43.890625 
L 10.015625 52.203125 
Q 14.9375 54.109375 19.578125 55.046875 
Q 24.21875 56 28.609375 56 
Q 40.484375 56 46.34375 49.84375 
Q 52.203125 43.703125 52.203125 31.203125 
z
" id="DejaVuSans-97"/>
      <path d="M 9.421875 75.984375 
L 18.40625 75.984375 
L 18.40625 0 
L 9.421875 0 
z
" id="DejaVuSans-108"/>
     </defs>
     <g style="fill:#262626;" transform="translate(200.874063 257.904062)scale(0.12 -0.12)">
      <use xlink:href="#DejaVuSans-114"/>
      <use x="38.863281" xlink:href="#DejaVuSans-101"/>
      <use x="100.386719" xlink:href="#DejaVuSans-99"/>
      <use x="155.367188" xlink:href="#DejaVuSans-97"/>
      <use x="216.646484" xlink:href="#DejaVuSans-108"/>
      <use x="244.429688" xlink:href="#DejaVuSans-108"/>
     </g>
    </g>
   </g>
   <g id="matplotlib.axis_2">
    <g id="ytick_1">
     <g id="line2d_7">
      <path clip-path="url(#p0afc7c32be)" d="M 49.807187 216.586667 
L 384.607188 216.586667 
" style="fill:none;stroke:#ffffff;stroke-linecap:round;"/>
     </g>
     <g id="text_8">
      <!-- 0.0 -->
      <g style="fill:#262626;" transform="translate(22.81375 220.765807)scale(0.11 -0.11)">
       <use xlink:href="#DejaVuSans-48"/>
       <use x="63.623047" xlink:href="#DejaVuSans-46"/>
       <use x="95.410156" xlink:href="#DejaVuSans-48"/>
      </g>
     </g>
    </g>
    <g id="ytick_2">
     <g id="line2d_8">
      <path clip-path="url(#p0afc7c32be)" d="M 49.807187 176.32 
L 384.607188 176.32 
" style="fill:none;stroke:#ffffff;stroke-linecap:round;"/>
     </g>
     <g id="text_9">
      <!-- 0.2 -->
      <g style="fill:#262626;" transform="translate(22.81375 180.499141)scale(0.11 -0.11)">
       <use xlink:href="#DejaVuSans-48"/>
       <use x="63.623047" xlink:href="#DejaVuSans-46"/>
       <use x="95.410156" xlink:href="#DejaVuSans-50"/>
      </g>
     </g>
    </g>
    <g id="ytick_3">
     <g id="line2d_9">
      <path clip-path="url(#p0afc7c32be)" d="M 49.807187 136.053333 
L 384.607188 136.053333 
" style="fill:none;stroke:#ffffff;stroke-linecap:round;"/>
     </g>
     <g id="text_10">
      <!-- 0.4 -->
      <g style="fill:#262626;" transform="translate(22.81375 140.232474)scale(0.11 -0.11)">
       <use xlink:href="#DejaVuSans-48"/>
       <use x="63.623047" xlink:href="#DejaVuSans-46"/>
       <use x="95.410156" xlink:href="#DejaVuSans-52"/>
      </g>
     </g>
    </g>
    <g id="ytick_4">
     <g id="line2d_10">
      <path clip-path="url(#p0afc7c32be)" d="M 49.807187 95.786667 
L 384.607188 95.786667 
" style="fill:none;stroke:#ffffff;stroke-linecap:round;"/>
     </g>
     <g id="text_11">
      <!-- 0.6 -->
      <g style="fill:#262626;" transform="translate(22.81375 99.965807)scale(0.11 -0.11)">
       <use xlink:href="#DejaVuSans-48"/>
       <use x="63.623047" xlink:href="#DejaVuSans-46"/>
       <use x="95.410156" xlink:href="#DejaVuSans-54"/>
      </g>
     </g>
    </g>
    <g id="ytick_5">
     <g id="line2d_11">
      <path clip-path="url(#p0afc7c32be)" d="M 49.807187 55.52 
L 384.607188 55.52 
" style="fill:none;stroke:#ffffff;stroke-linecap:round;"/>
     </g>
     <g id="text_12">
      <!-- 0.8 -->
      <g style="fill:#262626;" transform="translate(22.81375 59.699141)scale(0.11 -0.11)">
       <use xlink:href="#DejaVuSans-48"/>
       <use x="63.623047" xlink:href="#DejaVuSans-46"/>
       <use x="95.410156" xlink:href="#DejaVuSans-56"/>
      </g>
     </g>
    </g>
    <g id="ytick_6">
     <g id="line2d_12">
      <path clip-path="url(#p0afc7c32be)" d="M 49.807187 15.253333 
L 384.607188 15.253333 
" style="fill:none;stroke:#ffffff;stroke-linecap:round;"/>
     </g>
     <g id="text_13">
      <!-- 1.0 -->
      <g style="fill:#262626;" transform="translate(22.81375 19.432474)scale(0.11 -0.11)">
       <use xlink:href="#DejaVuSans-49"/>
       <use x="63.623047" xlink:href="#DejaVuSans-46"/>
       <use x="95.410156" xlink:href="#DejaVuSans-48"/>
      </g>
     </g>
    </g>
    <g id="text_14">
     <!-- precision -->
     <defs>
      <path d="M 18.109375 8.203125 
L 18.109375 -20.796875 
L 9.078125 -20.796875 
L 9.078125 54.6875 
L 18.109375 54.6875 
L 18.109375 46.390625 
Q 20.953125 51.265625 25.265625 53.625 
Q 29.59375 56 35.59375 56 
Q 45.5625 56 51.78125 48.09375 
Q 58.015625 40.1875 58.015625 27.296875 
Q 58.015625 14.40625 51.78125 6.484375 
Q 45.5625 -1.421875 35.59375 -1.421875 
Q 29.59375 -1.421875 25.265625 0.953125 
Q 20.953125 3.328125 18.109375 8.203125 
z
M 48.6875 27.296875 
Q 48.6875 37.203125 44.609375 42.84375 
Q 40.53125 48.484375 33.40625 48.484375 
Q 26.265625 48.484375 22.1875 42.84375 
Q 18.109375 37.203125 18.109375 27.296875 
Q 18.109375 17.390625 22.1875 11.75 
Q 26.265625 6.109375 33.40625 6.109375 
Q 40.53125 6.109375 44.609375 11.75 
Q 48.6875 17.390625 48.6875 27.296875 
z
" id="DejaVuSans-112"/>
      <path d="M 9.421875 54.6875 
L 18.40625 54.6875 
L 18.40625 0 
L 9.421875 0 
z
M 9.421875 75.984375 
L 18.40625 75.984375 
L 18.40625 64.59375 
L 9.421875 64.59375 
z
" id="DejaVuSans-105"/>
      <path d="M 44.28125 53.078125 
L 44.28125 44.578125 
Q 40.484375 46.53125 36.375 47.5 
Q 32.28125 48.484375 27.875 48.484375 
Q 21.1875 48.484375 17.84375 46.4375 
Q 14.5 44.390625 14.5 40.28125 
Q 14.5 37.15625 16.890625 35.375 
Q 19.28125 33.59375 26.515625 31.984375 
L 29.59375 31.296875 
Q 39.15625 29.25 43.1875 25.515625 
Q 47.21875 21.78125 47.21875 15.09375 
Q 47.21875 7.46875 41.1875 3.015625 
Q 35.15625 -1.421875 24.609375 -1.421875 
Q 20.21875 -1.421875 15.453125 -0.5625 
Q 10.6875 0.296875 5.421875 2 
L 5.421875 11.28125 
Q 10.40625 8.6875 15.234375 7.390625 
Q 20.0625 6.109375 24.8125 6.109375 
Q 31.15625 6.109375 34.5625 8.28125 
Q 37.984375 10.453125 37.984375 14.40625 
Q 37.984375 18.0625 35.515625 20.015625 
Q 33.0625 21.96875 24.703125 23.78125 
L 21.578125 24.515625 
Q 13.234375 26.265625 9.515625 29.90625 
Q 5.8125 33.546875 5.8125 39.890625 
Q 5.8125 47.609375 11.28125 51.796875 
Q 16.75 56 26.8125 56 
Q 31.78125 56 36.171875 55.265625 
Q 40.578125 54.546875 44.28125 53.078125 
z
" id="DejaVuSans-115"/>
      <path d="M 30.609375 48.390625 
Q 23.390625 48.390625 19.1875 42.75 
Q 14.984375 37.109375 14.984375 27.296875 
Q 14.984375 17.484375 19.15625 11.84375 
Q 23.34375 6.203125 30.609375 6.203125 
Q 37.796875 6.203125 41.984375 11.859375 
Q 46.1875 17.53125 46.1875 27.296875 
Q 46.1875 37.015625 41.984375 42.703125 
Q 37.796875 48.390625 30.609375 48.390625 
z
M 30.609375 56 
Q 42.328125 56 49.015625 48.375 
Q 55.71875 40.765625 55.71875 27.296875 
Q 55.71875 13.875 49.015625 6.21875 
Q 42.328125 -1.421875 30.609375 -1.421875 
Q 18.84375 -1.421875 12.171875 6.21875 
Q 5.515625 13.875 5.515625 27.296875 
Q 5.515625 40.765625 12.171875 48.375 
Q 18.84375 56 30.609375 56 
z
" id="DejaVuSans-111"/>
      <path d="M 54.890625 33.015625 
L 54.890625 0 
L 45.90625 0 
L 45.90625 32.71875 
Q 45.90625 40.484375 42.875 44.328125 
Q 39.84375 48.1875 33.796875 48.1875 
Q 26.515625 48.1875 22.3125 43.546875 
Q 18.109375 38.921875 18.109375 30.90625 
L 18.109375 0 
L 9.078125 0 
L 9.078125 54.6875 
L 18.109375 54.6875 
L 18.109375 46.1875 
Q 21.34375 51.125 25.703125 53.5625 
Q 30.078125 56 35.796875 56 
Q 45.21875 56 50.046875 50.171875 
Q 54.890625 44.34375 54.890625 33.015625 
z
" id="DejaVuSans-110"/>
     </defs>
     <g style="fill:#262626;" transform="translate(16.318125 142.984687)rotate(-90)scale(0.12 -0.12)">
      <use xlink:href="#DejaVuSans-112"/>
      <use x="63.476562" xlink:href="#DejaVuSans-114"/>
      <use x="102.339844" xlink:href="#DejaVuSans-101"/>
      <use x="163.863281" xlink:href="#DejaVuSans-99"/>
      <use x="218.84375" xlink:href="#DejaVuSans-105"/>
      <use x="246.626953" xlink:href="#DejaVuSans-115"/>
      <use x="298.726562" xlink:href="#DejaVuSans-105"/>
      <use x="326.509766" xlink:href="#DejaVuSans-111"/>
      <use x="387.691406" xlink:href="#DejaVuSans-110"/>
     </g>
    </g>
   </g>
   <g id="PathCollection_1">
    <defs>
     <path d="M 0 3 
C 0.795609 3 1.55874 2.683901 2.12132 2.12132 
C 2.683901 1.55874 3 0.795609 3 0 
C 3 -0.795609 2.683901 -1.55874 2.12132 -2.12132 
C 1.55874 -2.683901 0.795609 -3 0 -3 
C -0.795609 -3 -1.55874 -2.683901 -2.12132 -2.12132 
C -2.683901 -1.55874 -3 -0.795609 -3 0 
C -3 0.795609 -2.683901 1.55874 -2.12132 2.12132 
C -1.55874 2.683901 -0.795609 3 0 3 
z
" id="m8afa144583" style="stroke:#ffffff;stroke-width:0.75;"/>
    </defs>
    <g clip-path="url(#p0afc7c32be)">
     <use style="fill:#4c72b0;stroke:#ffffff;stroke-width:0.75;" x="334.270125" xlink:href="#m8afa144583" y="88.973872"/>
    </g>
   </g>
   <g id="PathCollection_2"/>
   <g id="PathCollection_3"/>
   <g id="line2d_13">
    <path clip-path="url(#p0afc7c32be)" d="M 372.207187 124.16077 
L 372.207187 124.335863 
L 371.123271 124.335863 
L 371.123271 124.511519 
L 370.039355 124.511519 
L 370.039355 122.387875 
L 370.039355 122.564664 
L 368.955439 122.564664 
L 368.955439 122.096893 
L 368.955439 122.274374 
L 367.871523 122.274374 
L 367.871523 122.117449 
L 367.871523 122.295556 
L 366.787607 122.295556 
L 366.787607 121.503193 
L 366.787607 121.682065 
L 365.703691 121.682065 
L 365.703691 120.550324 
L 365.703691 120.730011 
L 364.619775 120.730011 
L 364.619775 119.571123 
L 364.619775 119.751603 
L 363.535859 119.751603 
L 363.535859 119.932709 
L 362.451943 119.932709 
L 362.451943 119.596522 
L 362.451943 119.778304 
L 361.368027 119.778304 
L 361.368027 119.960721 
L 360.284111 119.960721 
L 360.284111 120.143776 
L 359.200194 120.143776 
L 359.200194 119.80538 
L 359.200194 119.989127 
L 358.116278 119.989127 
L 358.116278 119.305251 
L 358.116278 119.48974 
L 357.032362 119.48974 
L 357.032362 114.797323 
L 357.032362 114.982694 
L 355.948446 114.982694 
L 355.948446 113.250808 
L 355.948446 113.436762 
L 354.86453 113.436762 
L 354.86453 113.240659 
L 354.86453 113.427302 
L 353.780614 113.427302 
L 353.780614 112.435385 
L 353.780614 112.622633 
L 352.696698 112.622633 
L 352.696698 112.810605 
L 351.612782 112.810605 
L 351.612782 112.609877 
L 351.612782 112.798553 
L 350.528866 112.798553 
L 350.528866 111.987708 
L 350.528866 112.177012 
L 349.44495 112.177012 
L 349.44495 112.367059 
L 348.361034 112.367059 
L 348.361034 111.956745 
L 348.361034 112.147482 
L 347.277118 112.147482 
L 347.277118 111.316952 
L 347.277118 111.508313 
L 346.193201 111.508313 
L 346.193201 106.692222 
L 346.193201 106.883118 
L 345.109285 106.883118 
L 345.109285 99.292024 
L 345.109285 99.48003 
L 344.025369 99.48003 
L 344.025369 98.688769 
L 344.025369 98.877111 
L 342.941453 98.877111 
L 342.941453 98.610799 
L 342.941453 98.799819 
L 341.857537 98.799819 
L 341.857537 97.993059 
L 341.857537 98.182395 
L 340.773621 98.182395 
L 340.773621 97.363932 
L 340.773621 97.553564 
L 339.689705 97.553564 
L 339.689705 96.443699 
L 339.689705 96.633396 
L 338.605789 96.633396 
L 338.605789 96.352475 
L 338.605789 96.542848 
L 337.521873 96.542848 
L 337.521873 94.827937 
L 337.521873 95.017852 
L 336.437957 95.017852 
L 336.437957 94.727018 
L 336.437957 94.917602 
L 335.354041 94.917602 
L 335.354041 88.788178 
L 335.354041 88.973872 
L 334.270125 88.973872 
L 334.270125 88.326091 
L 334.270125 88.512027 
L 333.186208 88.512027 
L 333.186208 86.861581 
L 333.186208 87.046615 
L 332.102292 87.046615 
L 332.102292 86.711019 
L 332.102292 86.896623 
L 331.018376 86.896623 
L 331.018376 85.535048 
L 331.018376 85.72 
L 329.93446 85.72 
L 329.93446 83.620535 
L 329.93446 83.803825 
L 328.850544 83.803825 
L 328.850544 83.9881 
L 327.766628 83.9881 
L 327.766628 83.630692 
L 327.766628 83.815495 
L 326.682712 83.815495 
L 326.682712 82.730173 
L 326.682712 82.914536 
L 325.598796 82.914536 
L 325.598796 82.548311 
L 325.598796 82.733187 
L 324.51488 82.733187 
L 324.51488 80.108609 
L 324.51488 80.290787 
L 323.430964 80.290787 
L 323.430964 80.473991 
L 322.347048 80.473991 
L 322.347048 80.65823 
L 321.263132 80.65823 
L 321.263132 80.273163 
L 321.263132 80.457879 
L 320.179215 80.457879 
L 320.179215 78.89318 
L 320.179215 79.07658 
L 319.095299 79.07658 
L 319.095299 79.26104 
L 318.011383 79.26104 
L 318.011383 79.44657 
L 316.927467 79.44657 
L 316.927467 79.633178 
L 315.843551 79.633178 
L 315.843551 79.233897 
L 315.843551 79.420975 
L 314.759635 79.420975 
L 314.759635 78.207119 
L 314.759635 78.393373 
L 313.675719 78.393373 
L 313.675719 77.155821 
L 313.675719 77.341158 
L 312.591803 77.341158 
L 312.591803 73.485128 
L 312.591803 73.664856 
L 311.507887 73.664856 
L 311.507887 73.845697 
L 310.423971 73.845697 
L 310.423971 74.02766 
L 309.340055 74.02766 
L 309.340055 73.583551 
L 309.340055 73.765833 
L 308.256139 73.765833 
L 308.256139 73.318119 
L 308.256139 73.500713 
L 307.172222 73.500713 
L 307.172222 73.684458 
L 306.088306 73.684458 
L 306.088306 72.777143 
L 306.088306 72.96034 
L 305.00439 72.96034 
L 305.00439 72.50147 
L 305.00439 72.684957 
L 303.920474 72.684957 
L 303.920474 72.869625 
L 302.836558 72.869625 
L 302.836558 72.406022 
L 302.836558 72.590982 
L 301.752642 72.590982 
L 301.752642 72.777143 
L 300.668726 72.777143 
L 300.668726 72.964517 
L 299.58481 72.964517 
L 299.58481 71.068515 
L 299.58481 71.253333 
L 298.500894 71.253333 
L 298.500894 71.43938 
L 297.416978 71.43938 
L 297.416978 69.978166 
L 297.416978 70.162424 
L 296.333062 70.162424 
L 296.333062 68.668299 
L 296.333062 68.850603 
L 295.249146 68.850603 
L 295.249146 69.034155 
L 294.165229 69.034155 
L 294.165229 68.527102 
L 294.165229 68.710805 
L 293.081313 68.710805 
L 293.081313 68.895779 
L 291.997397 68.895779 
L 291.997397 69.082037 
L 290.913481 69.082037 
L 290.913481 69.269593 
L 289.829565 69.269593 
L 289.829565 69.458462 
L 288.745649 69.458462 
L 288.745649 69.648655 
L 287.661733 69.648655 
L 287.661733 69.131268 
L 287.661733 69.321649 
L 286.577817 69.321649 
L 286.577817 69.513381 
L 285.493901 69.513381 
L 285.493901 69.706477 
L 284.409985 69.706477 
L 284.409985 69.900952 
L 283.326069 69.900952 
L 283.326069 70.096822 
L 282.242153 70.096822 
L 282.242153 69.56988 
L 282.242153 69.765969 
L 281.158236 69.765969 
L 281.158236 69.963478 
L 280.07432 69.963478 
L 280.07432 70.162424 
L 278.990404 70.162424 
L 278.990404 70.362822 
L 277.906488 70.362822 
L 277.906488 69.287647 
L 277.906488 69.487036 
L 276.822572 69.487036 
L 276.822572 69.687901 
L 275.738656 69.687901 
L 275.738656 69.141809 
L 275.738656 69.342886 
L 274.65474 69.342886 
L 274.65474 68.235789 
L 274.65474 68.435723 
L 273.570824 68.435723 
L 273.570824 68.637172 
L 272.486908 68.637172 
L 272.486908 68.840152 
L 271.402992 68.840152 
L 271.402992 67.135385 
L 271.402992 67.335701 
L 270.319076 67.335701 
L 270.319076 66.757209 
L 270.319076 66.957613 
L 269.23516 66.957613 
L 269.23516 67.159583 
L 268.151243 67.159583 
L 268.151243 67.363137 
L 267.067327 67.363137 
L 267.067327 66.775643 
L 267.067327 66.979289 
L 265.983411 66.979289 
L 265.983411 67.18455 
L 264.899495 67.18455 
L 264.899495 67.391448 
L 263.815579 67.391448 
L 263.815579 67.6 
L 262.731663 67.6 
L 262.731663 67.810228 
L 261.647747 67.810228 
L 261.647747 68.022151 
L 260.563831 68.022151 
L 260.563831 66.202993 
L 260.563831 66.411803 
L 259.479915 66.411803 
L 259.479915 66.622332 
L 258.395999 66.622332 
L 258.395999 66.002645 
L 258.395999 66.213223 
L 257.312083 66.213223 
L 257.312083 66.425556 
L 256.228167 66.425556 
L 256.228167 65.163697 
L 256.228167 65.37429 
L 255.14425 65.37429 
L 255.14425 64.087376 
L 255.14425 64.296068 
L 254.060334 64.296068 
L 254.060334 62.983218 
L 254.060334 63.189841 
L 252.976418 63.189841 
L 252.976418 63.398261 
L 251.892502 63.398261 
L 251.892502 63.608501 
L 250.808586 63.608501 
L 250.808586 63.820585 
L 249.72467 63.820585 
L 249.72467 63.147606 
L 249.72467 63.359528 
L 248.640754 63.359528 
L 248.640754 61.991429 
L 248.640754 62.201016 
L 247.556838 62.201016 
L 247.556838 61.505586 
L 247.556838 61.714872 
L 246.472922 61.714872 
L 246.472922 61.926061 
L 245.389006 61.926061 
L 245.389006 61.219848 
L 245.389006 61.430703 
L 244.30509 61.430703 
L 244.30509 61.643502 
L 243.221174 61.643502 
L 243.221174 61.858272 
L 242.137257 61.858272 
L 242.137257 62.075039 
L 241.053341 62.075039 
L 241.053341 62.293832 
L 239.969425 62.293832 
L 239.969425 61.569452 
L 239.969425 61.787925 
L 238.885509 61.787925 
L 238.885509 62.008468 
L 237.801593 62.008468 
L 237.801593 62.231111 
L 236.717677 62.231111 
L 236.717677 62.455885 
L 235.633761 62.455885 
L 235.633761 62.682821 
L 234.549845 62.682821 
L 234.549845 62.911948 
L 233.465929 62.911948 
L 233.465929 62.165955 
L 233.465929 62.394797 
L 232.382013 62.394797 
L 232.382013 62.625882 
L 231.298097 62.625882 
L 231.298097 62.859245 
L 230.214181 62.859245 
L 230.214181 63.094917 
L 229.130264 63.094917 
L 229.130264 63.332935 
L 228.046348 63.332935 
L 228.046348 63.573333 
L 226.962432 63.573333 
L 226.962432 63.816147 
L 225.878516 63.816147 
L 225.878516 64.061414 
L 224.7946 64.061414 
L 224.7946 64.309171 
L 223.710684 64.309171 
L 223.710684 64.559456 
L 222.626768 64.559456 
L 222.626768 63.779829 
L 222.626768 64.029966 
L 221.542852 64.029966 
L 221.542852 64.282694 
L 220.458936 64.282694 
L 220.458936 63.489444 
L 220.458936 63.74199 
L 219.37502 63.74199 
L 219.37502 62.937544 
L 219.37502 63.189841 
L 218.291104 63.189841 
L 218.291104 63.444823 
L 217.207188 63.444823 
L 217.207188 63.702531 
L 216.123271 63.702531 
L 216.123271 63.963011 
L 215.039355 63.963011 
L 215.039355 64.226306 
L 213.955439 64.226306 
L 213.955439 64.492464 
L 212.871523 64.492464 
L 212.871523 64.76153 
L 211.787607 64.76153 
L 211.787607 65.033553 
L 210.703691 65.033553 
L 210.703691 62.493557 
L 210.703691 62.758951 
L 209.619775 62.758951 
L 209.619775 63.027345 
L 208.535859 63.027345 
L 208.535859 63.298788 
L 207.451943 63.298788 
L 207.451943 63.573333 
L 206.368027 63.573333 
L 206.368027 63.851034 
L 205.284111 63.851034 
L 205.284111 62.96817 
L 205.284111 63.245581 
L 204.200194 63.245581 
L 204.200194 63.526238 
L 203.116278 63.526238 
L 203.116278 63.810196 
L 202.032362 63.810196 
L 202.032362 62.906193 
L 202.032362 63.189841 
L 200.948446 63.189841 
L 200.948446 62.271297 
L 200.948446 62.554538 
L 199.86453 62.554538 
L 199.86453 62.841212 
L 198.780614 62.841212 
L 198.780614 63.131382 
L 197.696698 63.131382 
L 197.696698 63.425112 
L 196.612782 63.425112 
L 196.612782 63.722469 
L 195.528866 63.722469 
L 195.528866 64.02352 
L 194.44495 64.02352 
L 194.44495 63.07 
L 194.44495 63.370734 
L 193.361034 63.370734 
L 193.361034 63.675274 
L 192.277118 63.675274 
L 192.277118 63.983694 
L 191.193201 63.983694 
L 191.193201 64.296068 
L 190.109285 64.296068 
L 190.109285 64.612473 
L 189.025369 64.612473 
L 189.025369 64.932987 
L 187.941453 64.932987 
L 187.941453 65.257691 
L 186.857537 65.257691 
L 186.857537 65.586667 
L 185.773621 65.586667 
L 185.773621 65.92 
L 184.689705 65.92 
L 184.689705 66.257778 
L 183.605789 66.257778 
L 183.605789 65.248859 
L 183.605789 65.586667 
L 182.521873 65.586667 
L 182.521873 65.92907 
L 181.437957 65.92907 
L 181.437957 66.276164 
L 180.354041 66.276164 
L 180.354041 65.23954 
L 180.354041 65.586667 
L 179.270125 65.586667 
L 179.270125 65.938648 
L 178.186208 65.938648 
L 178.186208 66.295587 
L 177.102292 66.295587 
L 177.102292 64.148571 
L 177.102292 64.500336 
L 176.018376 64.500336 
L 176.018376 64.857198 
L 174.93446 64.857198 
L 174.93446 65.21927 
L 173.850544 65.21927 
L 173.850544 65.586667 
L 172.766628 65.586667 
L 172.766628 65.959506 
L 171.682712 65.959506 
L 171.682712 66.33791 
L 170.598796 66.33791 
L 170.598796 64.061414 
L 170.598796 64.433995 
L 169.51488 64.433995 
L 169.51488 64.812308 
L 168.430964 64.812308 
L 168.430964 65.196486 
L 167.347048 65.196486 
L 167.347048 65.586667 
L 166.263132 65.586667 
L 166.263132 65.982992 
L 165.179215 65.982992 
L 165.179215 66.385608 
L 164.095299 66.385608 
L 164.095299 66.794667 
L 163.011383 66.794667 
L 163.011383 67.210323 
L 161.927467 67.210323 
L 161.927467 67.632737 
L 160.843551 67.632737 
L 160.843551 66.411803 
L 160.843551 66.834601 
L 159.759635 66.834601 
L 159.759635 67.264444 
L 158.675719 67.264444 
L 158.675719 67.701513 
L 157.591803 67.701513 
L 157.591803 68.145989 
L 156.507887 68.145989 
L 156.507887 66.877265 
L 156.507887 67.322299 
L 155.423971 67.322299 
L 155.423971 67.775072 
L 154.340055 67.775072 
L 154.340055 68.235789 
L 153.256139 68.235789 
L 153.256139 66.92295 
L 153.256139 67.384286 
L 152.172222 67.384286 
L 152.172222 67.853934 
L 151.088306 67.853934 
L 151.088306 68.332121 
L 150.00439 68.332121 
L 150.00439 68.819083 
L 148.920474 68.819083 
L 148.920474 69.315062 
L 147.836558 69.315062 
L 147.836558 69.820312 
L 146.752642 69.820312 
L 146.752642 68.435723 
L 146.752642 68.942222 
L 145.668726 68.942222 
L 145.668726 69.458462 
L 144.58481 69.458462 
L 144.58481 69.984725 
L 143.500894 69.984725 
L 143.500894 70.521307 
L 142.416978 70.521307 
L 142.416978 71.068515 
L 141.333062 71.068515 
L 141.333062 71.626667 
L 140.249146 71.626667 
L 140.249146 72.196094 
L 139.165229 72.196094 
L 139.165229 72.777143 
L 138.081313 72.777143 
L 138.081313 73.370172 
L 136.997397 73.370172 
L 136.997397 73.975556 
L 135.913481 73.975556 
L 135.913481 74.593684 
L 134.829565 74.593684 
L 134.829565 71.540072 
L 134.829565 72.151884 
L 133.745649 72.151884 
L 133.745649 70.564689 
L 133.745649 71.179259 
L 132.661733 71.179259 
L 132.661733 71.80764 
L 131.577817 71.80764 
L 131.577817 70.162424 
L 131.577817 70.793563 
L 130.493901 70.793563 
L 130.493901 71.43938 
L 129.409985 71.43938 
L 129.409985 69.731765 
L 129.409985 70.380317 
L 128.326069 70.380317 
L 128.326069 71.044498 
L 127.242153 71.044498 
L 127.242153 71.724878 
L 126.158236 71.724878 
L 126.158236 66.223797 
L 126.158236 66.877265 
L 125.07432 66.877265 
L 125.07432 67.547706 
L 123.990404 67.547706 
L 123.990404 68.235789 
L 122.906488 68.235789 
L 122.906488 64.226306 
L 122.906488 64.897169 
L 121.822572 64.897169 
L 121.822572 65.586667 
L 120.738656 65.586667 
L 120.738656 66.295587 
L 119.65474 66.295587 
L 119.65474 67.024762 
L 118.570824 67.024762 
L 118.570824 67.775072 
L 117.486908 67.775072 
L 117.486908 68.547451 
L 116.402992 68.547451 
L 116.402992 69.342886 
L 115.319076 69.342886 
L 115.319076 70.162424 
L 114.23516 70.162424 
L 114.23516 71.007179 
L 113.151243 71.007179 
L 113.151243 71.878333 
L 112.067327 71.878333 
L 112.067327 69.581376 
L 112.067327 70.457634 
L 110.983411 70.457634 
L 110.983411 71.362623 
L 109.899495 71.362623 
L 109.899495 72.297778 
L 108.815579 72.297778 
L 108.815579 73.264633 
L 107.731663 73.264633 
L 107.731663 70.793563 
L 107.731663 71.767953 
L 106.647747 71.767953 
L 106.647747 69.181905 
L 106.647747 70.162424 
L 105.563831 70.162424 
L 105.563831 71.179259 
L 104.479915 71.179259 
L 104.479915 72.234465 
L 103.395999 72.234465 
L 103.395999 73.330256 
L 102.312083 73.330256 
L 102.312083 67.6 
L 102.312083 68.668299 
L 101.228167 68.668299 
L 101.228167 69.781111 
L 100.14425 69.781111 
L 100.14425 70.941277 
L 99.060334 70.941277 
L 99.060334 67.775072 
L 99.060334 68.942222 
L 97.976418 68.942222 
L 97.976418 70.162424 
L 96.892502 70.162424 
L 96.892502 71.43938 
L 95.808586 71.43938 
L 95.808586 64.359024 
L 95.808586 65.586667 
L 94.72467 65.586667 
L 94.72467 66.877265 
L 93.640754 66.877265 
L 93.640754 68.235789 
L 92.556838 68.235789 
L 92.556838 69.667748 
L 91.472922 69.667748 
L 91.472922 71.179259 
L 90.389006 71.179259 
L 90.389006 72.777143 
L 89.30509 72.777143 
L 89.30509 74.46902 
L 88.221174 74.46902 
L 88.221174 76.263434 
L 87.137257 76.263434 
L 87.137257 67.210323 
L 87.137257 68.942222 
L 86.053341 68.942222 
L 86.053341 63.851034 
L 86.053341 65.586667 
L 84.969425 65.586667 
L 84.969425 67.450864 
L 83.885509 67.450864 
L 83.885509 69.458462 
L 82.801593 69.458462 
L 82.801593 63.573333 
L 82.801593 65.586667 
L 81.717677 65.586667 
L 81.717677 67.775072 
L 80.633761 67.775072 
L 80.633761 70.162424 
L 79.549845 70.162424 
L 79.549845 63.189841 
L 79.549845 65.586667 
L 78.465929 65.586667 
L 78.465929 68.235789 
L 77.382013 68.235789 
L 77.382013 71.179259 
L 76.298097 71.179259 
L 76.298097 74.46902 
L 75.214181 74.46902 
L 75.214181 78.17 
L 74.130264 78.17 
L 74.130264 82.364444 
L 73.046348 82.364444 
L 73.046348 87.158095 
L 71.962432 87.158095 
L 71.962432 77.202051 
L 71.962432 82.364444 
L 70.878516 82.364444 
L 70.878516 55.52 
L 70.878516 59.994074 
L 69.7946 59.994074 
L 69.7946 65.586667 
L 68.710684 65.586667 
L 68.710684 72.777143 
L 67.626768 72.777143 
L 67.626768 48.808889 
L 67.626768 55.52 
L 66.542852 55.52 
L 66.542852 65.586667 
L 65.458936 65.586667 
L 65.458936 15.253333 
L 65.458936 15.253333 
L 62.207187 15.253333 
L 62.207187 15.253333 
" style="fill:none;stroke:#4c72b0;stroke-linecap:round;stroke-width:1.5;"/>
   </g>
   <g id="patch_3">
    <path d="M 49.807187 224.64 
L 49.807187 7.2 
" style="fill:none;stroke:#ffffff;stroke-linecap:square;stroke-linejoin:miter;stroke-width:1.25;"/>
   </g>
   <g id="patch_4">
    <path d="M 384.607188 224.64 
L 384.607188 7.2 
" style="fill:none;stroke:#ffffff;stroke-linecap:square;stroke-linejoin:miter;stroke-width:1.25;"/>
   </g>
   <g id="patch_5">
    <path d="M 49.807187 224.64 
L 384.607188 224.64 
" style="fill:none;stroke:#ffffff;stroke-linecap:square;stroke-linejoin:miter;stroke-width:1.25;"/>
   </g>
   <g id="patch_6">
    <path d="M 49.807187 7.2 
L 384.607188 7.2 
" style="fill:none;stroke:#ffffff;stroke-linecap:square;stroke-linejoin:miter;stroke-width:1.25;"/>
   </g>
   <g id="text_15">
    <!-- auc=0.71 -->
    <defs>
     <path d="M 8.5 21.578125 
L 8.5 54.6875 
L 17.484375 54.6875 
L 17.484375 21.921875 
Q 17.484375 14.15625 20.5 10.265625 
Q 23.53125 6.390625 29.59375 6.390625 
Q 36.859375 6.390625 41.078125 11.03125 
Q 45.3125 15.671875 45.3125 23.6875 
L 45.3125 54.6875 
L 54.296875 54.6875 
L 54.296875 0 
L 45.3125 0 
L 45.3125 8.40625 
Q 42.046875 3.421875 37.71875 1 
Q 33.40625 -1.421875 27.6875 -1.421875 
Q 18.265625 -1.421875 13.375 4.4375 
Q 8.5 10.296875 8.5 21.578125 
z
M 31.109375 56 
z
" id="DejaVuSans-117"/>
     <path d="M 10.59375 45.40625 
L 73.1875 45.40625 
L 73.1875 37.203125 
L 10.59375 37.203125 
z
M 10.59375 25.484375 
L 73.1875 25.484375 
L 73.1875 17.1875 
L 10.59375 17.1875 
z
" id="DejaVuSans-61"/>
     <path d="M 8.203125 72.90625 
L 55.078125 72.90625 
L 55.078125 68.703125 
L 28.609375 0 
L 18.3125 0 
L 43.21875 64.59375 
L 8.203125 64.59375 
z
" id="DejaVuSans-55"/>
    </defs>
    <g style="fill:#262626;" transform="translate(313.875937 214.091042)scale(0.12 -0.12)">
     <use xlink:href="#DejaVuSans-97"/>
     <use x="61.279297" xlink:href="#DejaVuSans-117"/>
     <use x="124.658203" xlink:href="#DejaVuSans-99"/>
     <use x="179.638672" xlink:href="#DejaVuSans-61"/>
     <use x="263.427734" xlink:href="#DejaVuSans-48"/>
     <use x="327.050781" xlink:href="#DejaVuSans-46"/>
     <use x="358.837891" xlink:href="#DejaVuSans-55"/>
     <use x="422.460938" xlink:href="#DejaVuSans-49"/>
    </g>
   </g>
   <g id="legend_1">
    <g id="patch_7">
     <path d="M 403.547188 42.791875 
L 515.200625 42.791875 
Q 517.400625 42.791875 517.400625 40.591875 
L 517.400625 9.4 
Q 517.400625 7.2 515.200625 7.2 
L 403.547188 7.2 
Q 401.347188 7.2 401.347188 9.4 
L 401.347188 40.591875 
Q 401.347188 42.791875 403.547188 42.791875 
z
" style="fill:#eaeaf2;opacity:0.8;stroke:#cccccc;stroke-linejoin:miter;"/>
    </g>
    <g id="PathCollection_4">
     <defs>
      <path id="m70b2300e33" style="stroke:#ffffff;stroke-width:1.5;"/>
     </defs>
     <g>
      <use style="fill:#ffffff;stroke:#ffffff;stroke-width:1.5;" x="416.747187" xlink:href="#m70b2300e33" y="17.070781"/>
     </g>
    </g>
    <g id="text_16">
     <!-- name -->
     <defs>
      <path d="M 52 44.1875 
Q 55.375 50.25 60.0625 53.125 
Q 64.75 56 71.09375 56 
Q 79.640625 56 84.28125 50.015625 
Q 88.921875 44.046875 88.921875 33.015625 
L 88.921875 0 
L 79.890625 0 
L 79.890625 32.71875 
Q 79.890625 40.578125 77.09375 44.375 
Q 74.3125 48.1875 68.609375 48.1875 
Q 61.625 48.1875 57.5625 43.546875 
Q 53.515625 38.921875 53.515625 30.90625 
L 53.515625 0 
L 44.484375 0 
L 44.484375 32.71875 
Q 44.484375 40.625 41.703125 44.40625 
Q 38.921875 48.1875 33.109375 48.1875 
Q 26.21875 48.1875 22.15625 43.53125 
Q 18.109375 38.875 18.109375 30.90625 
L 18.109375 0 
L 9.078125 0 
L 9.078125 54.6875 
L 18.109375 54.6875 
L 18.109375 46.1875 
Q 21.1875 51.21875 25.484375 53.609375 
Q 29.78125 56 35.6875 56 
Q 41.65625 56 45.828125 52.96875 
Q 50 49.953125 52 44.1875 
z
" id="DejaVuSans-109"/>
     </defs>
     <g style="fill:#262626;" transform="translate(436.547188 19.958281)scale(0.11 -0.11)">
      <use xlink:href="#DejaVuSans-110"/>
      <use x="63.378906" xlink:href="#DejaVuSans-97"/>
      <use x="124.658203" xlink:href="#DejaVuSans-109"/>
      <use x="222.070312" xlink:href="#DejaVuSans-101"/>
     </g>
    </g>
    <g id="PathCollection_5">
     <defs>
      <path d="M 0 3 
C 0.795609 3 1.55874 2.683901 2.12132 2.12132 
C 2.683901 1.55874 3 0.795609 3 0 
C 3 -0.795609 2.683901 -1.55874 2.12132 -2.12132 
C 1.55874 -2.683901 0.795609 -3 0 -3 
C -0.795609 -3 -1.55874 -2.683901 -2.12132 -2.12132 
C -2.683901 -1.55874 -3 -0.795609 -3 0 
C -3 0.795609 -2.683901 1.55874 -2.12132 2.12132 
C -1.55874 2.683901 -0.795609 3 0 3 
z
" id="m0c0e09d2b4" style="stroke:#4c72b0;"/>
     </defs>
     <g>
      <use style="fill:#4c72b0;stroke:#4c72b0;" x="416.747187" xlink:href="#m0c0e09d2b4" y="33.216719"/>
     </g>
    </g>
    <g id="text_17">
     <!-- model default -->
     <defs>
      <path d="M 45.40625 46.390625 
L 45.40625 75.984375 
L 54.390625 75.984375 
L 54.390625 0 
L 45.40625 0 
L 45.40625 8.203125 
Q 42.578125 3.328125 38.25 0.953125 
Q 33.9375 -1.421875 27.875 -1.421875 
Q 17.96875 -1.421875 11.734375 6.484375 
Q 5.515625 14.40625 5.515625 27.296875 
Q 5.515625 40.1875 11.734375 48.09375 
Q 17.96875 56 27.875 56 
Q 33.9375 56 38.25 53.625 
Q 42.578125 51.265625 45.40625 46.390625 
z
M 14.796875 27.296875 
Q 14.796875 17.390625 18.875 11.75 
Q 22.953125 6.109375 30.078125 6.109375 
Q 37.203125 6.109375 41.296875 11.75 
Q 45.40625 17.390625 45.40625 27.296875 
Q 45.40625 37.203125 41.296875 42.84375 
Q 37.203125 48.484375 30.078125 48.484375 
Q 22.953125 48.484375 18.875 42.84375 
Q 14.796875 37.203125 14.796875 27.296875 
z
" id="DejaVuSans-100"/>
      <path id="DejaVuSans-32"/>
      <path d="M 37.109375 75.984375 
L 37.109375 68.5 
L 28.515625 68.5 
Q 23.6875 68.5 21.796875 66.546875 
Q 19.921875 64.59375 19.921875 59.515625 
L 19.921875 54.6875 
L 34.71875 54.6875 
L 34.71875 47.703125 
L 19.921875 47.703125 
L 19.921875 0 
L 10.890625 0 
L 10.890625 47.703125 
L 2.296875 47.703125 
L 2.296875 54.6875 
L 10.890625 54.6875 
L 10.890625 58.5 
Q 10.890625 67.625 15.140625 71.796875 
Q 19.390625 75.984375 28.609375 75.984375 
z
" id="DejaVuSans-102"/>
      <path d="M 18.3125 70.21875 
L 18.3125 54.6875 
L 36.8125 54.6875 
L 36.8125 47.703125 
L 18.3125 47.703125 
L 18.3125 18.015625 
Q 18.3125 11.328125 20.140625 9.421875 
Q 21.96875 7.515625 27.59375 7.515625 
L 36.8125 7.515625 
L 36.8125 0 
L 27.59375 0 
Q 17.1875 0 13.234375 3.875 
Q 9.28125 7.765625 9.28125 18.015625 
L 9.28125 47.703125 
L 2.6875 47.703125 
L 2.6875 54.6875 
L 9.28125 54.6875 
L 9.28125 70.21875 
z
" id="DejaVuSans-116"/>
     </defs>
     <g style="fill:#262626;" transform="translate(436.547188 36.104219)scale(0.11 -0.11)">
      <use xlink:href="#DejaVuSans-109"/>
      <use x="97.412109" xlink:href="#DejaVuSans-111"/>
      <use x="158.59375" xlink:href="#DejaVuSans-100"/>
      <use x="222.070312" xlink:href="#DejaVuSans-101"/>
      <use x="283.59375" xlink:href="#DejaVuSans-108"/>
      <use x="311.376953" xlink:href="#DejaVuSans-32"/>
      <use x="343.164062" xlink:href="#DejaVuSans-100"/>
      <use x="406.640625" xlink:href="#DejaVuSans-101"/>
      <use x="468.164062" xlink:href="#DejaVuSans-102"/>
      <use x="503.369141" xlink:href="#DejaVuSans-97"/>
      <use x="564.648438" xlink:href="#DejaVuSans-117"/>
      <use x="628.027344" xlink:href="#DejaVuSans-108"/>
      <use x="655.810547" xlink:href="#DejaVuSans-116"/>
     </g>
    </g>
   </g>
  </g>
 </g>
 <defs>
  <clipPath id="p0afc7c32be">
   <rect height="217.44" width="334.8" x="49.807187" y="7.2"/>
  </clipPath>
 </defs>
</svg>
