<?xml version="1.0" encoding="utf-8" standalone="no"?>
<!DOCTYPE svg PUBLIC "-//W3C//DTD SVG 1.1//EN"
  "http://www.w3.org/Graphics/SVG/1.1/DTD/svg11.dtd">
<!-- Created with matplotlib (https://matplotlib.org/) -->
<svg height="267.599687pt" version="1.1" viewBox="0 0 524.600625 267.599687" width="524.600625pt" xmlns="http://www.w3.org/2000/svg" xmlns:xlink="http://www.w3.org/1999/xlink">
 <defs>
  <style type="text/css">
*{stroke-linecap:butt;stroke-linejoin:round;}
  </style>
 </defs>
 <g id="figure_1">
  <g id="patch_1">
   <path d="M 0 267.599687 
L 524.600625 267.599687 
L 524.600625 0 
L 0 0 
z
" style="fill:#ffffff;"/>
  </g>
  <g id="axes_1">
   <g id="patch_2">
    <path d="M 49.807187 224.64 
L 384.607188 224.64 
L 384.607188 7.2 
L 49.807187 7.2 
z
" style="fill:#eaeaf2;"/>
   </g>
   <g id="matplotlib.axis_1">
    <g id="xtick_1">
     <g id="line2d_1">
      <path clip-path="url(#p2f4db3d6bd)" d="M 62.207187 224.64 
L 62.207187 7.2 
" style="fill:none;stroke:#ffffff;stroke-linecap:round;"/>
     </g>
     <g id="text_1">
      <!-- 0.0 -->
      <defs>
       <path d="M 31.78125 66.40625 
Q 24.171875 66.40625 20.328125 58.90625 
Q 16.5 51.421875 16.5 36.375 
Q 16.5 21.390625 20.328125 13.890625 
Q 24.171875 6.390625 31.78125 6.390625 
Q 39.453125 6.390625 43.28125 13.890625 
Q 47.125 21.390625 47.125 36.375 
Q 47.125 51.421875 43.28125 58.90625 
Q 39.453125 66.40625 31.78125 66.40625 
z
M 31.78125 74.21875 
Q 44.046875 74.21875 50.515625 64.515625 
Q 56.984375 54.828125 56.984375 36.375 
Q 56.984375 17.96875 50.515625 8.265625 
Q 44.046875 -1.421875 31.78125 -1.421875 
Q 19.53125 -1.421875 13.0625 8.265625 
Q 6.59375 17.96875 6.59375 36.375 
Q 6.59375 54.828125 13.0625 64.515625 
Q 19.53125 74.21875 31.78125 74.21875 
z
" id="DejaVuSans-48"/>
       <path d="M 10.6875 12.40625 
L 21 12.40625 
L 21 0 
L 10.6875 0 
z
" id="DejaVuSans-46"/>
      </defs>
      <g style="fill:#262626;" transform="translate(53.460469 242.498281)scale(0.11 -0.11)">
       <use xlink:href="#DejaVuSans-48"/>
       <use x="63.623047" xlink:href="#DejaVuSans-46"/>
       <use x="95.410156" xlink:href="#DejaVuSans-48"/>
      </g>
     </g>
    </g>
    <g id="xtick_2">
     <g id="line2d_2">
      <path clip-path="url(#p2f4db3d6bd)" d="M 124.207188 224.64 
L 124.207188 7.2 
" style="fill:none;stroke:#ffffff;stroke-linecap:round;"/>
     </g>
     <g id="text_2">
      <!-- 0.2 -->
      <defs>
       <path d="M 19.1875 8.296875 
L 53.609375 8.296875 
L 53.609375 0 
L 7.328125 0 
L 7.328125 8.296875 
Q 12.9375 14.109375 22.625 23.890625 
Q 32.328125 33.6875 34.8125 36.53125 
Q 39.546875 41.84375 41.421875 45.53125 
Q 43.3125 49.21875 43.3125 52.78125 
Q 43.3125 58.59375 39.234375 62.25 
Q 35.15625 65.921875 28.609375 65.921875 
Q 23.96875 65.921875 18.8125 64.3125 
Q 13.671875 62.703125 7.8125 59.421875 
L 7.8125 69.390625 
Q 13.765625 71.78125 18.9375 73 
Q 24.125 74.21875 28.421875 74.21875 
Q 39.75 74.21875 46.484375 68.546875 
Q 53.21875 62.890625 53.21875 53.421875 
Q 53.21875 48.921875 51.53125 44.890625 
Q 49.859375 40.875 45.40625 35.40625 
Q 44.1875 33.984375 37.640625 27.21875 
Q 31.109375 20.453125 19.1875 8.296875 
z
" id="DejaVuSans-50"/>
      </defs>
      <g style="fill:#262626;" transform="translate(115.460469 242.498281)scale(0.11 -0.11)">
       <use xlink:href="#DejaVuSans-48"/>
       <use x="63.623047" xlink:href="#DejaVuSans-46"/>
       <use x="95.410156" xlink:href="#DejaVuSans-50"/>
      </g>
     </g>
    </g>
    <g id="xtick_3">
     <g id="line2d_3">
      <path clip-path="url(#p2f4db3d6bd)" d="M 186.207188 224.64 
L 186.207188 7.2 
" style="fill:none;stroke:#ffffff;stroke-linecap:round;"/>
     </g>
     <g id="text_3">
      <!-- 0.4 -->
      <defs>
       <path d="M 37.796875 64.3125 
L 12.890625 25.390625 
L 37.796875 25.390625 
z
M 35.203125 72.90625 
L 47.609375 72.90625 
L 47.609375 25.390625 
L 58.015625 25.390625 
L 58.015625 17.1875 
L 47.609375 17.1875 
L 47.609375 0 
L 37.796875 0 
L 37.796875 17.1875 
L 4.890625 17.1875 
L 4.890625 26.703125 
z
" id="DejaVuSans-52"/>
      </defs>
      <g style="fill:#262626;" transform="translate(177.460469 242.498281)scale(0.11 -0.11)">
       <use xlink:href="#DejaVuSans-48"/>
       <use x="63.623047" xlink:href="#DejaVuSans-46"/>
       <use x="95.410156" xlink:href="#DejaVuSans-52"/>
      </g>
     </g>
    </g>
    <g id="xtick_4">
     <g id="line2d_4">
      <path clip-path="url(#p2f4db3d6bd)" d="M 248.207188 224.64 
L 248.207188 7.2 
" style="fill:none;stroke:#ffffff;stroke-linecap:round;"/>
     </g>
     <g id="text_4">
      <!-- 0.6 -->
      <defs>
       <path d="M 33.015625 40.375 
Q 26.375 40.375 22.484375 35.828125 
Q 18.609375 31.296875 18.609375 23.390625 
Q 18.609375 15.53125 22.484375 10.953125 
Q 26.375 6.390625 33.015625 6.390625 
Q 39.65625 6.390625 43.53125 10.953125 
Q 47.40625 15.53125 47.40625 23.390625 
Q 47.40625 31.296875 43.53125 35.828125 
Q 39.65625 40.375 33.015625 40.375 
z
M 52.59375 71.296875 
L 52.59375 62.3125 
Q 48.875 64.0625 45.09375 64.984375 
Q 41.3125 65.921875 37.59375 65.921875 
Q 27.828125 65.921875 22.671875 59.328125 
Q 17.53125 52.734375 16.796875 39.40625 
Q 19.671875 43.65625 24.015625 45.921875 
Q 28.375 48.1875 33.59375 48.1875 
Q 44.578125 48.1875 50.953125 41.515625 
Q 57.328125 34.859375 57.328125 23.390625 
Q 57.328125 12.15625 50.6875 5.359375 
Q 44.046875 -1.421875 33.015625 -1.421875 
Q 20.359375 -1.421875 13.671875 8.265625 
Q 6.984375 17.96875 6.984375 36.375 
Q 6.984375 53.65625 15.1875 63.9375 
Q 23.390625 74.21875 37.203125 74.21875 
Q 40.921875 74.21875 44.703125 73.484375 
Q 48.484375 72.75 52.59375 71.296875 
z
" id="DejaVuSans-54"/>
      </defs>
      <g style="fill:#262626;" transform="translate(239.460469 242.498281)scale(0.11 -0.11)">
       <use xlink:href="#DejaVuSans-48"/>
       <use x="63.623047" xlink:href="#DejaVuSans-46"/>
       <use x="95.410156" xlink:href="#DejaVuSans-54"/>
      </g>
     </g>
    </g>
    <g id="xtick_5">
     <g id="line2d_5">
      <path clip-path="url(#p2f4db3d6bd)" d="M 310.207187 224.64 
L 310.207187 7.2 
" style="fill:none;stroke:#ffffff;stroke-linecap:round;"/>
     </g>
     <g id="text_5">
      <!-- 0.8 -->
      <defs>
       <path d="M 31.78125 34.625 
Q 24.75 34.625 20.71875 30.859375 
Q 16.703125 27.09375 16.703125 20.515625 
Q 16.703125 13.921875 20.71875 10.15625 
Q 24.75 6.390625 31.78125 6.390625 
Q 38.8125 6.390625 42.859375 10.171875 
Q 46.921875 13.96875 46.921875 20.515625 
Q 46.921875 27.09375 42.890625 30.859375 
Q 38.875 34.625 31.78125 34.625 
z
M 21.921875 38.8125 
Q 15.578125 40.375 12.03125 44.71875 
Q 8.5 49.078125 8.5 55.328125 
Q 8.5 64.0625 14.71875 69.140625 
Q 20.953125 74.21875 31.78125 74.21875 
Q 42.671875 74.21875 48.875 69.140625 
Q 55.078125 64.0625 55.078125 55.328125 
Q 55.078125 49.078125 51.53125 44.71875 
Q 48 40.375 41.703125 38.8125 
Q 48.828125 37.15625 52.796875 32.3125 
Q 56.78125 27.484375 56.78125 20.515625 
Q 56.78125 9.90625 50.3125 4.234375 
Q 43.84375 -1.421875 31.78125 -1.421875 
Q 19.734375 -1.421875 13.25 4.234375 
Q 6.78125 9.90625 6.78125 20.515625 
Q 6.78125 27.484375 10.78125 32.3125 
Q 14.796875 37.15625 21.921875 38.8125 
z
M 18.3125 54.390625 
Q 18.3125 48.734375 21.84375 45.5625 
Q 25.390625 42.390625 31.78125 42.390625 
Q 38.140625 42.390625 41.71875 45.5625 
Q 45.3125 48.734375 45.3125 54.390625 
Q 45.3125 60.0625 41.71875 63.234375 
Q 38.140625 66.40625 31.78125 66.40625 
Q 25.390625 66.40625 21.84375 63.234375 
Q 18.3125 60.0625 18.3125 54.390625 
z
" id="DejaVuSans-56"/>
      </defs>
      <g style="fill:#262626;" transform="translate(301.460469 242.498281)scale(0.11 -0.11)">
       <use xlink:href="#DejaVuSans-48"/>
       <use x="63.623047" xlink:href="#DejaVuSans-46"/>
       <use x="95.410156" xlink:href="#DejaVuSans-56"/>
      </g>
     </g>
    </g>
    <g id="xtick_6">
     <g id="line2d_6">
      <path clip-path="url(#p2f4db3d6bd)" d="M 372.207188 224.64 
L 372.207188 7.2 
" style="fill:none;stroke:#ffffff;stroke-linecap:round;"/>
     </g>
     <g id="text_6">
      <!-- 1.0 -->
      <defs>
       <path d="M 12.40625 8.296875 
L 28.515625 8.296875 
L 28.515625 63.921875 
L 10.984375 60.40625 
L 10.984375 69.390625 
L 28.421875 72.90625 
L 38.28125 72.90625 
L 38.28125 8.296875 
L 54.390625 8.296875 
L 54.390625 0 
L 12.40625 0 
z
" id="DejaVuSans-49"/>
      </defs>
      <g style="fill:#262626;" transform="translate(363.460469 242.498281)scale(0.11 -0.11)">
       <use xlink:href="#DejaVuSans-49"/>
       <use x="63.623047" xlink:href="#DejaVuSans-46"/>
       <use x="95.410156" xlink:href="#DejaVuSans-48"/>
      </g>
     </g>
    </g>
    <g id="text_7">
     <!-- recall -->
     <defs>
      <path d="M 41.109375 46.296875 
Q 39.59375 47.171875 37.8125 47.578125 
Q 36.03125 48 33.890625 48 
Q 26.265625 48 22.1875 43.046875 
Q 18.109375 38.09375 18.109375 28.8125 
L 18.109375 0 
L 9.078125 0 
L 9.078125 54.6875 
L 18.109375 54.6875 
L 18.109375 46.1875 
Q 20.953125 51.171875 25.484375 53.578125 
Q 30.03125 56 36.53125 56 
Q 37.453125 56 38.578125 55.875 
Q 39.703125 55.765625 41.0625 55.515625 
z
" id="DejaVuSans-114"/>
      <path d="M 56.203125 29.59375 
L 56.203125 25.203125 
L 14.890625 25.203125 
Q 15.484375 15.921875 20.484375 11.0625 
Q 25.484375 6.203125 34.421875 6.203125 
Q 39.59375 6.203125 44.453125 7.46875 
Q 49.3125 8.734375 54.109375 11.28125 
L 54.109375 2.78125 
Q 49.265625 0.734375 44.1875 -0.34375 
Q 39.109375 -1.421875 33.890625 -1.421875 
Q 20.796875 -1.421875 13.15625 6.1875 
Q 5.515625 13.8125 5.515625 26.8125 
Q 5.515625 40.234375 12.765625 48.109375 
Q 20.015625 56 32.328125 56 
Q 43.359375 56 49.78125 48.890625 
Q 56.203125 41.796875 56.203125 29.59375 
z
M 47.21875 32.234375 
Q 47.125 39.59375 43.09375 43.984375 
Q 39.0625 48.390625 32.421875 48.390625 
Q 24.90625 48.390625 20.390625 44.140625 
Q 15.875 39.890625 15.1875 32.171875 
z
" id="DejaVuSans-101"/>
      <path d="M 48.78125 52.59375 
L 48.78125 44.1875 
Q 44.96875 46.296875 41.140625 47.34375 
Q 37.3125 48.390625 33.40625 48.390625 
Q 24.65625 48.390625 19.8125 42.84375 
Q 14.984375 37.3125 14.984375 27.296875 
Q 14.984375 17.28125 19.8125 11.734375 
Q 24.65625 6.203125 33.40625 6.203125 
Q 37.3125 6.203125 41.140625 7.25 
Q 44.96875 8.296875 48.78125 10.40625 
L 48.78125 2.09375 
Q 45.015625 0.34375 40.984375 -0.53125 
Q 36.96875 -1.421875 32.421875 -1.421875 
Q 20.0625 -1.421875 12.78125 6.34375 
Q 5.515625 14.109375 5.515625 27.296875 
Q 5.515625 40.671875 12.859375 48.328125 
Q 20.21875 56 33.015625 56 
Q 37.15625 56 41.109375 55.140625 
Q 45.0625 54.296875 48.78125 52.59375 
z
" id="DejaVuSans-99"/>
      <path d="M 34.28125 27.484375 
Q 23.390625 27.484375 19.1875 25 
Q 14.984375 22.515625 14.984375 16.5 
Q 14.984375 11.71875 18.140625 8.90625 
Q 21.296875 6.109375 26.703125 6.109375 
Q 34.1875 6.109375 38.703125 11.40625 
Q 43.21875 16.703125 43.21875 25.484375 
L 43.21875 27.484375 
z
M 52.203125 31.203125 
L 52.203125 0 
L 43.21875 0 
L 43.21875 8.296875 
Q 40.140625 3.328125 35.546875 0.953125 
Q 30.953125 -1.421875 24.3125 -1.421875 
Q 15.921875 -1.421875 10.953125 3.296875 
Q 6 8.015625 6 15.921875 
Q 6 25.140625 12.171875 29.828125 
Q 18.359375 34.515625 30.609375 34.515625 
L 43.21875 34.515625 
L 43.21875 35.40625 
Q 43.21875 41.609375 39.140625 45 
Q 35.0625 48.390625 27.6875 48.390625 
Q 23 48.390625 18.546875 47.265625 
Q 14.109375 46.140625 10.015625 43.890625 
L 10.015625 52.203125 
Q 14.9375 54.109375 19.578125 55.046875 
Q 24.21875 56 28.609375 56 
Q 40.484375 56 46.34375 49.84375 
Q 52.203125 43.703125 52.203125 31.203125 
z
" id="DejaVuSans-97"/>
      <path d="M 9.421875 75.984375 
L 18.40625 75.984375 
L 18.40625 0 
L 9.421875 0 
z
" id="DejaVuSans-108"/>
     </defs>
     <g style="fill:#262626;" transform="translate(200.874063 257.904062)scale(0.12 -0.12)">
      <use xlink:href="#DejaVuSans-114"/>
      <use x="38.863281" xlink:href="#DejaVuSans-101"/>
      <use x="100.386719" xlink:href="#DejaVuSans-99"/>
      <use x="155.367188" xlink:href="#DejaVuSans-97"/>
      <use x="216.646484" xlink:href="#DejaVuSans-108"/>
      <use x="244.429688" xlink:href="#DejaVuSans-108"/>
     </g>
    </g>
   </g>
   <g id="matplotlib.axis_2">
    <g id="ytick_1">
     <g id="line2d_7">
      <path clip-path="url(#p2f4db3d6bd)" d="M 49.807187 216.586667 
L 384.607188 216.586667 
" style="fill:none;stroke:#ffffff;stroke-linecap:round;"/>
     </g>
     <g id="text_8">
      <!-- 0.0 -->
      <g style="fill:#262626;" transform="translate(22.81375 220.765807)scale(0.11 -0.11)">
       <use xlink:href="#DejaVuSans-48"/>
       <use x="63.623047" xlink:href="#DejaVuSans-46"/>
       <use x="95.410156" xlink:href="#DejaVuSans-48"/>
      </g>
     </g>
    </g>
    <g id="ytick_2">
     <g id="line2d_8">
      <path clip-path="url(#p2f4db3d6bd)" d="M 49.807187 176.32 
L 384.607188 176.32 
" style="fill:none;stroke:#ffffff;stroke-linecap:round;"/>
     </g>
     <g id="text_9">
      <!-- 0.2 -->
      <g style="fill:#262626;" transform="translate(22.81375 180.499141)scale(0.11 -0.11)">
       <use xlink:href="#DejaVuSans-48"/>
       <use x="63.623047" xlink:href="#DejaVuSans-46"/>
       <use x="95.410156" xlink:href="#DejaVuSans-50"/>
      </g>
     </g>
    </g>
    <g id="ytick_3">
     <g id="line2d_9">
      <path clip-path="url(#p2f4db3d6bd)" d="M 49.807187 136.053333 
L 384.607188 136.053333 
" style="fill:none;stroke:#ffffff;stroke-linecap:round;"/>
     </g>
     <g id="text_10">
      <!-- 0.4 -->
      <g style="fill:#262626;" transform="translate(22.81375 140.232474)scale(0.11 -0.11)">
       <use xlink:href="#DejaVuSans-48"/>
       <use x="63.623047" xlink:href="#DejaVuSans-46"/>
       <use x="95.410156" xlink:href="#DejaVuSans-52"/>
      </g>
     </g>
    </g>
    <g id="ytick_4">
     <g id="line2d_10">
      <path clip-path="url(#p2f4db3d6bd)" d="M 49.807187 95.786667 
L 384.607188 95.786667 
" style="fill:none;stroke:#ffffff;stroke-linecap:round;"/>
     </g>
     <g id="text_11">
      <!-- 0.6 -->
      <g style="fill:#262626;" transform="translate(22.81375 99.965807)scale(0.11 -0.11)">
       <use xlink:href="#DejaVuSans-48"/>
       <use x="63.623047" xlink:href="#DejaVuSans-46"/>
       <use x="95.410156" xlink:href="#DejaVuSans-54"/>
      </g>
     </g>
    </g>
    <g id="ytick_5">
     <g id="line2d_11">
      <path clip-path="url(#p2f4db3d6bd)" d="M 49.807187 55.52 
L 384.607188 55.52 
" style="fill:none;stroke:#ffffff;stroke-linecap:round;"/>
     </g>
     <g id="text_12">
      <!-- 0.8 -->
      <g style="fill:#262626;" transform="translate(22.81375 59.699141)scale(0.11 -0.11)">
       <use xlink:href="#DejaVuSans-48"/>
       <use x="63.623047" xlink:href="#DejaVuSans-46"/>
       <use x="95.410156" xlink:href="#DejaVuSans-56"/>
      </g>
     </g>
    </g>
    <g id="ytick_6">
     <g id="line2d_12">
      <path clip-path="url(#p2f4db3d6bd)" d="M 49.807187 15.253333 
L 384.607188 15.253333 
" style="fill:none;stroke:#ffffff;stroke-linecap:round;"/>
     </g>
     <g id="text_13">
      <!-- 1.0 -->
      <g style="fill:#262626;" transform="translate(22.81375 19.432474)scale(0.11 -0.11)">
       <use xlink:href="#DejaVuSans-49"/>
       <use x="63.623047" xlink:href="#DejaVuSans-46"/>
       <use x="95.410156" xlink:href="#DejaVuSans-48"/>
      </g>
     </g>
    </g>
    <g id="text_14">
     <!-- precision -->
     <defs>
      <path d="M 18.109375 8.203125 
L 18.109375 -20.796875 
L 9.078125 -20.796875 
L 9.078125 54.6875 
L 18.109375 54.6875 
L 18.109375 46.390625 
Q 20.953125 51.265625 25.265625 53.625 
Q 29.59375 56 35.59375 56 
Q 45.5625 56 51.78125 48.09375 
Q 58.015625 40.1875 58.015625 27.296875 
Q 58.015625 14.40625 51.78125 6.484375 
Q 45.5625 -1.421875 35.59375 -1.421875 
Q 29.59375 -1.421875 25.265625 0.953125 
Q 20.953125 3.328125 18.109375 8.203125 
z
M 48.6875 27.296875 
Q 48.6875 37.203125 44.609375 42.84375 
Q 40.53125 48.484375 33.40625 48.484375 
Q 26.265625 48.484375 22.1875 42.84375 
Q 18.109375 37.203125 18.109375 27.296875 
Q 18.109375 17.390625 22.1875 11.75 
Q 26.265625 6.109375 33.40625 6.109375 
Q 40.53125 6.109375 44.609375 11.75 
Q 48.6875 17.390625 48.6875 27.296875 
z
" id="DejaVuSans-112"/>
      <path d="M 9.421875 54.6875 
L 18.40625 54.6875 
L 18.40625 0 
L 9.421875 0 
z
M 9.421875 75.984375 
L 18.40625 75.984375 
L 18.40625 64.59375 
L 9.421875 64.59375 
z
" id="DejaVuSans-105"/>
      <path d="M 44.28125 53.078125 
L 44.28125 44.578125 
Q 40.484375 46.53125 36.375 47.5 
Q 32.28125 48.484375 27.875 48.484375 
Q 21.1875 48.484375 17.84375 46.4375 
Q 14.5 44.390625 14.5 40.28125 
Q 14.5 37.15625 16.890625 35.375 
Q 19.28125 33.59375 26.515625 31.984375 
L 29.59375 31.296875 
Q 39.15625 29.25 43.1875 25.515625 
Q 47.21875 21.78125 47.21875 15.09375 
Q 47.21875 7.46875 41.1875 3.015625 
Q 35.15625 -1.421875 24.609375 -1.421875 
Q 20.21875 -1.421875 15.453125 -0.5625 
Q 10.6875 0.296875 5.421875 2 
L 5.421875 11.28125 
Q 10.40625 8.6875 15.234375 7.390625 
Q 20.0625 6.109375 24.8125 6.109375 
Q 31.15625 6.109375 34.5625 8.28125 
Q 37.984375 10.453125 37.984375 14.40625 
Q 37.984375 18.0625 35.515625 20.015625 
Q 33.0625 21.96875 24.703125 23.78125 
L 21.578125 24.515625 
Q 13.234375 26.265625 9.515625 29.90625 
Q 5.8125 33.546875 5.8125 39.890625 
Q 5.8125 47.609375 11.28125 51.796875 
Q 16.75 56 26.8125 56 
Q 31.78125 56 36.171875 55.265625 
Q 40.578125 54.546875 44.28125 53.078125 
z
" id="DejaVuSans-115"/>
      <path d="M 30.609375 48.390625 
Q 23.390625 48.390625 19.1875 42.75 
Q 14.984375 37.109375 14.984375 27.296875 
Q 14.984375 17.484375 19.15625 11.84375 
Q 23.34375 6.203125 30.609375 6.203125 
Q 37.796875 6.203125 41.984375 11.859375 
Q 46.1875 17.53125 46.1875 27.296875 
Q 46.1875 37.015625 41.984375 42.703125 
Q 37.796875 48.390625 30.609375 48.390625 
z
M 30.609375 56 
Q 42.328125 56 49.015625 48.375 
Q 55.71875 40.765625 55.71875 27.296875 
Q 55.71875 13.875 49.015625 6.21875 
Q 42.328125 -1.421875 30.609375 -1.421875 
Q 18.84375 -1.421875 12.171875 6.21875 
Q 5.515625 13.875 5.515625 27.296875 
Q 5.515625 40.765625 12.171875 48.375 
Q 18.84375 56 30.609375 56 
z
" id="DejaVuSans-111"/>
      <path d="M 54.890625 33.015625 
L 54.890625 0 
L 45.90625 0 
L 45.90625 32.71875 
Q 45.90625 40.484375 42.875 44.328125 
Q 39.84375 48.1875 33.796875 48.1875 
Q 26.515625 48.1875 22.3125 43.546875 
Q 18.109375 38.921875 18.109375 30.90625 
L 18.109375 0 
L 9.078125 0 
L 9.078125 54.6875 
L 18.109375 54.6875 
L 18.109375 46.1875 
Q 21.34375 51.125 25.703125 53.5625 
Q 30.078125 56 35.796875 56 
Q 45.21875 56 50.046875 50.171875 
Q 54.890625 44.34375 54.890625 33.015625 
z
" id="DejaVuSans-110"/>
     </defs>
     <g style="fill:#262626;" transform="translate(16.318125 142.984687)rotate(-90)scale(0.12 -0.12)">
      <use xlink:href="#DejaVuSans-112"/>
      <use x="63.476562" xlink:href="#DejaVuSans-114"/>
      <use x="102.339844" xlink:href="#DejaVuSans-101"/>
      <use x="163.863281" xlink:href="#DejaVuSans-99"/>
      <use x="218.84375" xlink:href="#DejaVuSans-105"/>
      <use x="246.626953" xlink:href="#DejaVuSans-115"/>
      <use x="298.726562" xlink:href="#DejaVuSans-105"/>
      <use x="326.509766" xlink:href="#DejaVuSans-111"/>
      <use x="387.691406" xlink:href="#DejaVuSans-110"/>
     </g>
    </g>
   </g>
   <g id="PathCollection_1">
    <defs>
     <path d="M 0 3 
C 0.795609 3 1.55874 2.683901 2.12132 2.12132 
C 2.683901 1.55874 3 0.795609 3 0 
C 3 -0.795609 2.683901 -1.55874 2.12132 -2.12132 
C 1.55874 -2.683901 0.795609 -3 0 -3 
C -0.795609 -3 -1.55874 -2.683901 -2.12132 -2.12132 
C -2.683901 -1.55874 -3 -0.795609 -3 0 
C -3 0.795609 -2.683901 1.55874 -2.12132 2.12132 
C -1.55874 2.683901 -0.795609 3 0 3 
z
" id="m5aa7ba8feb" style="stroke:#ffffff;stroke-width:0.75;"/>
    </defs>
    <g clip-path="url(#p2f4db3d6bd)">
     <use style="fill:#4c72b0;stroke:#ffffff;stroke-width:0.75;" x="231.920212" xlink:href="#m5aa7ba8feb" y="69.298564"/>
    </g>
   </g>
   <g id="PathCollection_2"/>
   <g id="PathCollection_3"/>
   <g id="line2d_13">
    <path clip-path="url(#p2f4db3d6bd)" d="M 372.207187 72.047839 
L 372.207187 72.137989 
L 370.838534 72.228426 
L 370.838534 72.319151 
L 369.469881 72.410165 
L 369.469881 72.50147 
L 368.101227 72.593067 
L 368.101227 72.684957 
L 366.732574 72.777143 
L 366.732574 72.869625 
L 365.36392 72.962405 
L 365.36392 72.730753 
L 365.36392 72.823608 
L 363.995267 72.916764 
L 363.995267 73.010222 
L 363.31094 73.010222 
L 363.31094 72.543306 
L 363.31094 72.636612 
L 362.626614 72.636612 
L 362.626614 71.92982 
L 362.626614 72.022732 
L 361.25796 72.11595 
L 361.25796 71.639934 
L 361.25796 71.732981 
L 360.573633 71.732981 
L 360.573633 71.493554 
L 360.573633 71.586667 
L 359.889307 71.586667 
L 359.889307 71.346202 
L 359.889307 71.43938 
L 358.520653 71.532867 
L 358.520653 71.291111 
L 358.520653 71.384663 
L 357.152 71.478528 
L 357.152 71.572708 
L 356.467673 71.572708 
L 356.467673 71.329396 
L 356.467673 71.423641 
L 355.783346 71.423641 
L 355.783346 71.179259 
L 355.783346 71.273569 
L 354.414693 71.368198 
L 354.414693 71.463147 
L 353.730366 71.463147 
L 353.730366 70.970368 
L 353.730366 71.065125 
L 353.04604 71.065125 
L 353.04604 70.568464 
L 353.04604 70.66302 
L 351.677386 70.7579 
L 351.677386 70.507764 
L 351.677386 70.602703 
L 350.993059 70.602703 
L 350.993059 70.35144 
L 350.993059 70.446437 
L 350.308733 70.446437 
L 350.308733 69.940761 
L 350.308733 70.03554 
L 348.940079 70.130648 
L 348.940079 70.226087 
L 348.255753 70.226087 
L 348.255753 69.971103 
L 348.255753 70.066597 
L 346.887099 70.162424 
L 346.887099 70.258587 
L 345.518446 70.355088 
L 345.518446 69.840188 
L 345.518446 69.936461 
L 344.834119 69.936461 
L 344.834119 69.677362 
L 344.834119 69.773687 
L 344.149792 69.773687 
L 344.149792 69.513381 
L 344.149792 69.609757 
L 342.781139 69.706477 
L 342.781139 69.803541 
L 341.412486 69.900952 
L 341.412486 69.998712 
L 340.043832 70.096822 
L 340.043832 70.195284 
L 338.675179 70.294101 
L 338.675179 70.393273 
L 337.306525 70.492804 
L 337.306525 69.963478 
L 337.306525 70.062771 
L 336.622199 70.062771 
L 336.622199 69.796364 
L 336.622199 69.895713 
L 335.253545 69.995426 
L 335.253545 70.095503 
L 333.884892 70.195946 
L 333.884892 70.296758 
L 332.516238 70.397941 
L 332.516238 70.499497 
L 331.147585 70.601427 
L 331.147585 70.703734 
L 330.463258 70.703734 
L 330.463258 70.43358 
L 330.463258 70.535955 
L 329.094605 70.638711 
L 329.094605 70.74185 
L 327.725951 70.845373 
L 327.725951 70.949283 
L 326.357298 71.053583 
L 326.357298 71.158274 
L 324.988644 71.263358 
L 324.988644 71.368839 
L 323.619991 71.474717 
L 323.619991 71.200403 
L 323.619991 71.306364 
L 322.935664 71.306364 
L 322.935664 71.030689 
L 322.935664 71.13673 
L 321.567011 71.243175 
L 321.567011 71.350025 
L 320.198357 71.457285 
L 320.198357 71.564955 
L 318.829704 71.673039 
L 318.829704 71.781538 
L 317.461051 71.890456 
L 317.461051 71.999794 
L 316.092397 72.109555 
L 316.092397 72.219742 
L 315.408071 72.219742 
L 315.408071 71.939417 
L 315.408071 72.049702 
L 314.039417 72.160416 
L 314.039417 72.271562 
L 313.35509 72.271562 
L 313.35509 72.383144 
L 312.670764 72.383144 
L 312.670764 72.495163 
L 311.986437 72.495163 
L 311.986437 72.212076 
L 311.986437 72.324199 
L 311.30211 72.324199 
L 311.30211 72.436765 
L 310.617784 72.436765 
L 310.617784 72.549776 
L 309.933457 72.549776 
L 309.933457 72.663234 
L 309.24913 72.663234 
L 309.24913 72.777143 
L 308.564803 72.777143 
L 308.564803 72.491239 
L 308.564803 72.605259 
L 307.880477 72.605259 
L 307.880477 72.719734 
L 307.19615 72.719734 
L 307.19615 72.432 
L 307.19615 72.546587 
L 306.511823 72.546587 
L 306.511823 72.661633 
L 305.827497 72.661633 
L 305.827497 72.777143 
L 305.14317 72.777143 
L 305.14317 72.487204 
L 305.14317 72.602828 
L 304.458843 72.602828 
L 304.458843 72.71892 
L 303.774516 72.71892 
L 303.774516 72.835483 
L 303.09019 72.835483 
L 303.09019 72.95252 
L 302.405863 72.95252 
L 302.405863 73.070034 
L 301.721536 73.070034 
L 301.721536 73.188027 
L 301.03721 73.188027 
L 301.03721 73.306503 
L 300.352883 73.306503 
L 300.352883 73.012896 
L 300.352883 73.131499 
L 299.668556 73.131499 
L 299.668556 73.25059 
L 298.984229 73.25059 
L 298.984229 73.370172 
L 298.299903 73.370172 
L 298.299903 72.478783 
L 298.299903 72.597755 
L 297.615576 72.597755 
L 297.615576 72.297778 
L 297.615576 72.416868 
L 296.931249 72.416868 
L 296.931249 72.536457 
L 296.246923 72.536457 
L 296.246923 71.931204 
L 296.246923 72.050526 
L 295.562596 72.050526 
L 295.562596 72.170352 
L 294.878269 72.170352 
L 294.878269 72.290684 
L 294.193942 72.290684 
L 294.193942 71.677962 
L 294.193942 71.798014 
L 293.509616 71.798014 
L 293.509616 71.918579 
L 292.825289 71.918579 
L 292.825289 71.609459 
L 292.825289 71.730136 
L 292.140962 71.730136 
L 292.140962 71.419285 
L 292.140962 71.540072 
L 291.456636 71.540072 
L 291.456636 71.661379 
L 290.772309 71.661379 
L 290.772309 71.783211 
L 290.087982 71.783211 
L 290.087982 71.90557 
L 289.403655 71.90557 
L 289.403655 71.591728 
L 289.403655 71.714203 
L 288.719329 71.714203 
L 288.719329 71.837211 
L 288.035002 71.837211 
L 288.035002 71.203735 
L 288.035002 71.326433 
L 287.350675 71.326433 
L 287.350675 71.007179 
L 287.350675 71.129985 
L 286.666349 71.129985 
L 286.666349 71.253333 
L 285.982022 71.253333 
L 285.982022 71.377227 
L 285.297695 71.377227 
L 285.297695 71.50167 
L 284.613369 71.50167 
L 284.613369 71.626667 
L 283.929042 71.626667 
L 283.929042 71.303816 
L 283.929042 71.428929 
L 283.244715 71.428929 
L 283.244715 71.554601 
L 282.560388 71.554601 
L 282.560388 71.680837 
L 281.876062 71.680837 
L 281.876062 71.80764 
L 281.191735 71.80764 
L 281.191735 71.935015 
L 280.507408 71.935015 
L 280.507408 71.608488 
L 280.507408 71.735988 
L 279.823082 71.735988 
L 279.823082 71.864067 
L 279.138755 71.864067 
L 279.138755 71.992727 
L 278.454428 71.992727 
L 278.454428 72.121974 
L 277.770101 72.121974 
L 277.770101 72.251811 
L 277.085775 72.251811 
L 277.085775 71.256398 
L 277.085775 71.385438 
L 276.401448 71.385438 
L 276.401448 69.693116 
L 276.401448 69.820312 
L 275.717121 69.820312 
L 275.717121 69.948103 
L 275.032795 69.948103 
L 275.032795 69.603881 
L 275.032795 69.731765 
L 274.348468 69.731765 
L 274.348468 69.385409 
L 274.348468 69.513381 
L 273.664141 69.513381 
L 273.664141 69.641959 
L 272.979814 69.641959 
L 272.979814 69.771148 
L 272.295488 69.771148 
L 272.295488 69.900952 
L 271.611161 69.900952 
L 271.611161 70.031376 
L 270.926834 70.031376 
L 270.926834 70.162424 
L 270.242508 70.162424 
L 270.242508 69.458462 
L 270.242508 69.589076 
L 269.558181 69.589076 
L 269.558181 69.23401 
L 269.558181 69.364713 
L 268.873854 69.364713 
L 268.873854 69.496052 
L 268.189527 69.496052 
L 268.189527 69.628029 
L 267.505201 69.628029 
L 267.505201 69.76065 
L 266.820874 69.76065 
L 266.820874 69.89392 
L 266.136547 69.89392 
L 266.136547 70.027843 
L 265.452221 70.027843 
L 265.452221 69.667748 
L 265.452221 69.801773 
L 264.767894 69.801773 
L 264.767894 69.439342 
L 264.767894 69.573465 
L 264.083567 69.573465 
L 264.083567 69.708255 
L 263.39924 69.708255 
L 263.39924 69.843715 
L 262.714914 69.843715 
L 262.714914 69.477772 
L 262.714914 69.613333 
L 262.030587 69.613333 
L 262.030587 69.749574 
L 261.34626 69.749574 
L 261.34626 69.886499 
L 260.661934 69.886499 
L 260.661934 69.516977 
L 260.661934 69.654007 
L 259.977607 69.654007 
L 259.977607 68.908156 
L 259.977607 69.044682 
L 259.29328 69.044682 
L 259.29328 69.181905 
L 258.608954 69.181905 
L 258.608954 69.319829 
L 257.924627 69.319829 
L 257.924627 69.458462 
L 257.2403 69.458462 
L 257.2403 69.597806 
L 256.555973 69.597806 
L 256.555973 69.218969 
L 256.555973 69.358415 
L 255.871647 69.358415 
L 255.871647 69.498584 
L 255.18732 69.498584 
L 255.18732 69.639481 
L 254.502993 69.639481 
L 254.502993 69.781111 
L 253.818667 69.781111 
L 253.818667 69.397807 
L 253.818667 69.539546 
L 253.13434 69.539546 
L 253.13434 69.68203 
L 252.450013 69.68203 
L 252.450013 69.825263 
L 251.765686 69.825263 
L 251.765686 69.969252 
L 251.08136 69.969252 
L 251.08136 69.581376 
L 251.08136 69.725482 
L 250.397033 69.725482 
L 250.397033 69.870355 
L 249.712706 69.870355 
L 249.712706 70.016 
L 249.02838 70.016 
L 249.02838 70.162424 
L 248.344053 70.162424 
L 248.344053 69.375197 
L 248.344053 69.521078 
L 247.659726 69.521078 
L 247.659726 69.123604 
L 247.659726 69.269593 
L 246.975399 69.269593 
L 246.975399 69.416377 
L 246.291073 69.416377 
L 246.291073 69.56396 
L 245.606746 69.56396 
L 245.606746 69.71235 
L 244.922419 69.71235 
L 244.922419 69.861553 
L 244.238093 69.861553 
L 244.238093 70.011575 
L 243.553766 70.011575 
L 243.553766 70.162424 
L 242.869439 70.162424 
L 242.869439 70.314107 
L 242.185112 70.314107 
L 242.185112 70.46663 
L 241.500786 70.46663 
L 241.500786 70.060741 
L 241.500786 70.213408 
L 240.816459 70.213408 
L 240.816459 70.366927 
L 240.132132 70.366927 
L 240.132132 69.545468 
L 240.132132 69.698404 
L 239.447806 69.698404 
L 239.447806 69.852203 
L 238.763479 69.852203 
L 238.763479 70.006874 
L 238.079152 70.006874 
L 238.079152 69.590455 
L 238.079152 69.745261 
L 237.394825 69.745261 
L 237.394825 69.325714 
L 237.394825 69.480649 
L 236.710499 69.480649 
L 236.710499 69.636475 
L 236.026172 69.636475 
L 236.026172 69.793199 
L 235.341845 69.793199 
L 235.341845 69.950829 
L 234.657519 69.950829 
L 234.657519 69.525797 
L 234.657519 69.683566 
L 233.973192 69.683566 
L 233.973192 69.255277 
L 233.973192 69.413177 
L 233.288865 69.413177 
L 233.288865 69.572004 
L 232.604538 69.572004 
L 232.604538 69.731765 
L 231.920212 69.731765 
L 231.920212 68.862801 
L 231.920212 69.021879 
L 231.235885 69.021879 
L 231.235885 69.181905 
L 230.551558 69.181905 
L 230.551558 69.342886 
L 229.867232 69.342886 
L 229.867232 69.50483 
L 229.182905 69.50483 
L 229.182905 69.667748 
L 228.498578 69.667748 
L 228.498578 68.78002 
L 228.498578 68.942222 
L 227.814252 68.942222 
L 227.814252 68.041951 
L 227.814252 68.203384 
L 227.129925 68.203384 
L 227.129925 67.748221 
L 227.129925 67.909744 
L 226.445598 67.909744 
L 226.445598 68.072263 
L 225.761271 68.072263 
L 225.761271 68.235789 
L 225.076945 68.235789 
L 225.076945 68.400331 
L 224.392618 68.400331 
L 224.392618 68.565898 
L 223.708291 68.565898 
L 223.708291 68.7325 
L 223.023965 68.7325 
L 223.023965 68.900146 
L 222.339638 68.900146 
L 222.339638 69.068847 
L 221.655311 69.068847 
L 221.655311 69.238612 
L 220.970984 69.238612 
L 220.970984 68.772321 
L 220.970984 68.942222 
L 220.286658 68.942222 
L 220.286658 69.113206 
L 219.602331 69.113206 
L 219.602331 68.642045 
L 219.602331 68.813162 
L 218.918004 68.813162 
L 218.918004 68.338006 
L 218.918004 68.509247 
L 218.233678 68.509247 
L 218.233678 67.547706 
L 218.233678 67.718046 
L 217.549351 67.718046 
L 217.549351 67.889499 
L 216.865024 67.889499 
L 216.865024 68.062077 
L 216.180697 68.062077 
L 216.180697 68.235789 
L 215.496371 68.235789 
L 215.496371 67.746183 
L 215.496371 67.92 
L 214.812044 67.92 
L 214.812044 68.094972 
L 214.127717 68.094972 
L 214.127717 68.271111 
L 213.443391 68.271111 
L 213.443391 68.448428 
L 212.759064 68.448428 
L 212.759064 68.626935 
L 212.074737 68.626935 
L 212.074737 68.128754 
L 212.074737 68.307387 
L 211.39041 68.307387 
L 211.39041 68.487232 
L 210.706084 68.487232 
L 210.706084 68.668299 
L 210.021757 68.668299 
L 210.021757 68.850603 
L 209.33743 68.850603 
L 209.33743 69.034155 
L 208.653104 69.034155 
L 208.653104 68.527102 
L 208.653104 68.710805 
L 207.968777 68.710805 
L 207.968777 68.895779 
L 207.28445 68.895779 
L 207.28445 68.382963 
L 207.28445 68.568084 
L 206.600123 68.568084 
L 206.600123 68.754499 
L 205.915797 68.754499 
L 205.915797 68.942222 
L 205.23147 68.942222 
L 205.23147 69.131268 
L 204.547143 69.131268 
L 204.547143 69.321649 
L 203.862817 69.321649 
L 203.862817 68.799433 
L 203.862817 68.989988 
L 203.17849 68.989988 
L 203.17849 68.462857 
L 203.17849 68.653572 
L 202.494163 68.653572 
L 202.494163 68.845659 
L 201.809837 68.845659 
L 201.809837 69.039134 
L 201.12551 69.039134 
L 201.12551 69.23401 
L 200.441183 69.23401 
L 200.441183 69.430303 
L 199.756856 69.430303 
L 199.756856 69.628029 
L 199.07253 69.628029 
L 199.07253 69.827204 
L 198.388203 69.827204 
L 198.388203 70.027843 
L 197.703876 70.027843 
L 197.703876 70.229963 
L 197.01955 70.229963 
L 197.01955 69.687901 
L 197.01955 69.89026 
L 196.335223 69.89026 
L 196.335223 70.094129 
L 195.650896 70.094129 
L 195.650896 70.299526 
L 194.966569 70.299526 
L 194.966569 70.506466 
L 194.282243 70.506466 
L 194.282243 70.714969 
L 193.597916 70.714969 
L 193.597916 70.162424 
L 193.597916 70.371204 
L 192.913589 70.371204 
L 192.913589 70.581578 
L 192.229263 70.581578 
L 192.229263 70.793563 
L 191.544936 70.793563 
L 191.544936 71.007179 
L 190.860609 71.007179 
L 190.860609 71.222445 
L 190.176282 71.222445 
L 190.176282 71.43938 
L 189.491956 71.43938 
L 189.491956 71.658003 
L 188.807629 71.658003 
L 188.807629 71.878333 
L 188.123302 71.878333 
L 188.123302 72.100392 
L 187.438976 72.100392 
L 187.438976 72.324199 
L 186.754649 72.324199 
L 186.754649 72.549776 
L 186.070322 72.549776 
L 186.070322 72.777143 
L 185.385995 72.777143 
L 185.385995 71.626667 
L 185.385995 71.853066 
L 184.701669 71.853066 
L 184.701669 72.08129 
L 184.017342 72.08129 
L 184.017342 72.311363 
L 183.333015 72.311363 
L 183.333015 72.543306 
L 182.648689 72.543306 
L 182.648689 72.777143 
L 181.964362 72.777143 
L 181.964362 71.593525 
L 181.964362 71.826336 
L 181.280035 71.826336 
L 181.280035 72.061079 
L 180.595708 72.061079 
L 180.595708 72.297778 
L 179.911382 72.297778 
L 179.911382 72.536457 
L 179.227055 72.536457 
L 179.227055 72.777143 
L 178.542728 72.777143 
L 178.542728 73.019859 
L 177.858402 73.019859 
L 177.858402 73.264633 
L 177.174075 73.264633 
L 177.174075 72.654752 
L 177.174075 72.900057 
L 176.489748 72.900057 
L 176.489748 73.147468 
L 175.805421 73.147468 
L 175.805421 73.397011 
L 175.121095 73.397011 
L 175.121095 73.648716 
L 174.436768 73.648716 
L 174.436768 73.902609 
L 173.752441 73.902609 
L 173.752441 74.158719 
L 173.068115 74.158719 
L 173.068115 74.417076 
L 172.383788 74.417076 
L 172.383788 74.677709 
L 171.699461 74.677709 
L 171.699461 74.940649 
L 171.015135 74.940649 
L 171.015135 75.205926 
L 170.330808 75.205926 
L 170.330808 74.574762 
L 170.330808 74.840777 
L 169.646481 74.840777 
L 169.646481 74.202282 
L 169.646481 74.46902 
L 168.962154 74.46902 
L 168.962154 74.738182 
L 168.277828 74.738182 
L 168.277828 73.43682 
L 168.277828 73.704946 
L 167.593501 73.704946 
L 167.593501 73.975556 
L 166.909174 73.975556 
L 166.909174 73.312248 
L 166.909174 73.583551 
L 166.224848 73.583551 
L 166.224848 72.234465 
L 166.224848 72.504518 
L 165.540521 72.504518 
L 165.540521 71.125742 
L 165.540521 71.394359 
L 164.856194 71.394359 
L 164.856194 71.665572 
L 164.171867 71.665572 
L 164.171867 71.939417 
L 163.487541 71.939417 
L 163.487541 69.801773 
L 163.487541 70.071815 
L 162.803214 70.071815 
L 162.803214 70.344544 
L 162.118887 70.344544 
L 162.118887 68.874774 
L 162.118887 69.145589 
L 161.434561 69.145589 
L 161.434561 69.419154 
L 160.750234 69.419154 
L 160.750234 69.69551 
L 160.065907 69.69551 
L 160.065907 69.974701 
L 159.38158 69.974701 
L 159.38158 67.683889 
L 159.38158 67.958394 
L 158.697254 67.958394 
L 158.697254 66.385608 
L 158.697254 66.657589 
L 158.012927 66.657589 
L 158.012927 66.932478 
L 157.3286 66.932478 
L 157.3286 67.210323 
L 156.644274 67.210323 
L 156.644274 66.402883 
L 156.644274 66.68087 
L 155.959947 66.68087 
L 155.959947 65.861712 
L 155.959947 66.13978 
L 155.27562 66.13978 
L 155.27562 66.420921 
L 154.591293 66.420921 
L 154.591293 66.705185 
L 153.906967 66.705185 
L 153.906967 66.992626 
L 153.22264 66.992626 
L 153.22264 67.283296 
L 152.538313 67.283296 
L 152.538313 67.57725 
L 151.853987 67.57725 
L 151.853987 67.874545 
L 151.16966 67.874545 
L 151.16966 68.175238 
L 150.485333 68.175238 
L 150.485333 68.479387 
L 149.801006 68.479387 
L 149.801006 68.787052 
L 149.11668 68.787052 
L 149.11668 69.098295 
L 148.432353 69.098295 
L 148.432353 69.413177 
L 147.748026 69.413177 
L 147.748026 69.731765 
L 147.0637 69.731765 
L 147.0637 70.054122 
L 146.379373 70.054122 
L 146.379373 69.181905 
L 146.379373 69.50483 
L 145.695046 69.50483 
L 145.695046 69.831647 
L 145.01072 69.831647 
L 145.01072 70.162424 
L 144.326393 70.162424 
L 144.326393 67.450864 
L 144.326393 67.775072 
L 143.642066 67.775072 
L 143.642066 65.903229 
L 143.642066 66.223797 
L 142.957739 66.223797 
L 142.957739 66.54845 
L 142.273413 66.54845 
L 142.273413 66.877265 
L 141.589086 66.877265 
L 141.589086 65.911398 
L 141.589086 66.240346 
L 140.904759 66.240346 
L 140.904759 66.573595 
L 140.220433 66.573595 
L 140.220433 64.586667 
L 140.220433 64.915556 
L 139.536106 64.915556 
L 139.536106 65.248859 
L 138.851779 65.248859 
L 138.851779 65.586667 
L 138.167452 65.586667 
L 138.167452 64.559456 
L 138.167452 64.897169 
L 137.483126 64.897169 
L 137.483126 65.23954 
L 136.798799 65.23954 
L 136.798799 65.586667 
L 136.114472 65.586667 
L 136.114472 65.938648 
L 135.430146 65.938648 
L 135.430146 66.295587 
L 134.745819 66.295587 
L 134.745819 66.657589 
L 134.061492 66.657589 
L 134.061492 65.586667 
L 134.061492 65.948777 
L 133.377165 65.948777 
L 133.377165 66.316135 
L 132.692839 66.316135 
L 132.692839 66.688856 
L 132.008512 66.688856 
L 132.008512 67.067059 
L 131.324185 67.067059 
L 131.324185 64.835423 
L 131.324185 65.208221 
L 130.639859 65.208221 
L 130.639859 65.586667 
L 129.955532 65.586667 
L 129.955532 63.26359 
L 129.955532 63.635762 
L 129.271205 63.635762 
L 129.271205 61.227087 
L 129.271205 61.591958 
L 128.586878 61.591958 
L 128.586878 59.092043 
L 128.586878 59.448455 
L 127.902552 59.448455 
L 127.902552 59.81071 
L 127.218225 59.81071 
L 127.218225 58.515041 
L 127.218225 58.875556 
L 126.533898 58.875556 
L 126.533898 59.242129 
L 125.849572 59.242129 
L 125.849572 59.614915 
L 125.165245 59.614915 
L 125.165245 59.994074 
L 124.480918 59.994074 
L 124.480918 58.644138 
L 124.480918 59.021449 
L 123.796591 59.021449 
L 123.796591 59.40538 
L 123.112265 59.40538 
L 123.112265 59.796106 
L 122.427938 59.796106 
L 122.427938 58.39619 
L 122.427938 58.784865 
L 121.743611 58.784865 
L 121.743611 59.180606 
L 121.059285 59.180606 
L 121.059285 59.583609 
L 120.374958 59.583609 
L 120.374958 59.994074 
L 119.690631 59.994074 
L 119.690631 57.039497 
L 119.690631 57.43746 
L 119.006304 57.43746 
L 119.006304 57.843077 
L 118.321978 57.843077 
L 118.321978 58.25657 
L 117.637651 58.25657 
L 117.637651 56.704314 
L 117.637651 57.114719 
L 116.953324 57.114719 
L 116.953324 57.533333 
L 116.268998 57.533333 
L 116.268998 57.960404 
L 115.584671 57.960404 
L 115.584671 58.39619 
L 114.900344 58.39619 
L 114.900344 56.765361 
L 114.900344 57.197778 
L 114.216018 57.197778 
L 114.216018 57.639298 
L 113.531691 57.639298 
L 113.531691 55.948369 
L 113.531691 56.38595 
L 112.847364 56.38595 
L 112.847364 56.833043 
L 112.163037 56.833043 
L 112.163037 57.289963 
L 111.478711 57.289963 
L 111.478711 57.757037 
L 110.794384 57.757037 
L 110.794384 58.234607 
L 110.110057 58.234607 
L 110.110057 56.435152 
L 110.110057 56.908506 
L 109.425731 56.908506 
L 109.425731 55.051783 
L 109.425731 55.52 
L 108.741404 55.52 
L 108.741404 53.60254 
L 108.741404 54.064578 
L 108.057077 54.064578 
L 108.057077 54.537886 
L 107.37275 54.537886 
L 107.37275 55.022881 
L 106.688424 55.022881 
L 106.688424 55.52 
L 106.004097 55.52 
L 106.004097 53.481181 
L 106.004097 53.971282 
L 105.31977 53.971282 
L 105.31977 54.474113 
L 104.635444 54.474113 
L 104.635444 54.990175 
L 103.951117 54.990175 
L 103.951117 55.52 
L 103.26679 55.52 
L 103.26679 56.064144 
L 102.582463 56.064144 
L 102.582463 56.623196 
L 101.898137 56.623196 
L 101.898137 57.197778 
L 101.21381 57.197778 
L 101.21381 54.952864 
L 101.21381 55.52 
L 100.529483 55.52 
L 100.529483 53.1857 
L 100.529483 53.743529 
L 99.845157 53.743529 
L 99.845157 54.31801 
L 99.16083 54.31801 
L 99.16083 54.909899 
L 98.476503 54.909899 
L 98.476503 55.52 
L 97.792176 55.52 
L 97.792176 56.149167 
L 97.10785 56.149167 
L 97.10785 56.798307 
L 96.423523 56.798307 
L 96.423523 57.468387 
L 95.739196 57.468387 
L 95.739196 58.160437 
L 95.05487 58.160437 
L 95.05487 58.875556 
L 94.370543 58.875556 
L 94.370543 59.614915 
L 93.686216 59.614915 
L 93.686216 60.37977 
L 93.001889 60.37977 
L 93.001889 61.171462 
L 92.317563 61.171462 
L 92.317563 61.991429 
L 91.633236 61.991429 
L 91.633236 62.841212 
L 90.948909 62.841212 
L 90.948909 63.722469 
L 90.264583 63.722469 
L 90.264583 60.838239 
L 90.264583 61.714872 
L 89.580256 61.714872 
L 89.580256 62.625882 
L 88.895929 62.625882 
L 88.895929 63.573333 
L 88.211603 63.573333 
L 88.211603 64.559456 
L 87.527276 64.559456 
L 87.527276 65.586667 
L 86.842949 65.586667 
L 86.842949 66.657589 
L 86.158622 66.657589 
L 86.158622 63.398261 
L 86.158622 64.468148 
L 85.474296 64.468148 
L 85.474296 65.586667 
L 84.789969 65.586667 
L 84.789969 58.39619 
L 84.789969 59.448455 
L 84.105642 59.448455 
L 84.105642 60.553333 
L 83.421316 60.553333 
L 83.421316 62.937544 
L 82.052662 62.937544 
L 82.052662 64.226306 
L 81.368335 64.226306 
L 81.368335 65.586667 
L 80.684009 65.586667 
L 80.684009 67.024762 
L 79.999682 67.024762 
L 79.999682 68.547451 
L 79.315355 68.547451 
L 79.315355 70.162424 
L 78.631029 70.162424 
L 78.631029 60.715699 
L 78.631029 62.231111 
L 77.946702 62.231111 
L 77.946702 63.851034 
L 77.262375 63.851034 
L 77.262375 65.586667 
L 76.578048 65.586667 
L 76.578048 67.450864 
L 75.893722 67.450864 
L 75.893722 69.458462 
L 75.209395 69.458462 
L 75.209395 71.626667 
L 74.525068 71.626667 
L 74.525068 73.975556 
L 73.840742 73.975556 
L 73.840742 67.775072 
L 73.840742 70.162424 
L 73.156415 70.162424 
L 73.156415 72.777143 
L 72.472088 72.777143 
L 72.472088 65.586667 
L 72.472088 68.235789 
L 71.787761 68.235789 
L 71.787761 71.179259 
L 71.103435 71.179259 
L 71.103435 62.625882 
L 71.103435 65.586667 
L 70.419108 65.586667 
L 70.419108 68.942222 
L 69.734781 68.942222 
L 69.734781 58.39619 
L 69.734781 61.714872 
L 69.050455 61.714872 
L 69.050455 65.586667 
L 68.366128 65.586667 
L 68.366128 70.162424 
L 67.681801 70.162424 
L 67.681801 75.653333 
L 66.997474 75.653333 
L 66.997474 82.364444 
L 66.313148 82.364444 
L 66.313148 90.753333 
L 65.628821 90.753333 
L 65.628821 72.777143 
L 65.628821 82.364444 
L 64.944494 82.364444 
L 64.944494 95.786667 
L 64.260168 95.786667 
L 64.260168 115.92 
L 63.575841 115.92 
L 63.575841 82.364444 
L 63.575841 115.92 
L 62.891514 115.92 
L 62.891514 15.253333 
L 62.891514 15.253333 
L 62.207187 15.253333 
L 62.207187 15.253333 
" style="fill:none;stroke:#4c72b0;stroke-linecap:round;stroke-width:1.5;"/>
   </g>
   <g id="patch_3">
    <path d="M 49.807187 224.64 
L 49.807187 7.2 
" style="fill:none;stroke:#ffffff;stroke-linecap:square;stroke-linejoin:miter;stroke-width:1.25;"/>
   </g>
   <g id="patch_4">
    <path d="M 384.607188 224.64 
L 384.607188 7.2 
" style="fill:none;stroke:#ffffff;stroke-linecap:square;stroke-linejoin:miter;stroke-width:1.25;"/>
   </g>
   <g id="patch_5">
    <path d="M 49.807187 224.64 
L 384.607188 224.64 
" style="fill:none;stroke:#ffffff;stroke-linecap:square;stroke-linejoin:miter;stroke-width:1.25;"/>
   </g>
   <g id="patch_6">
    <path d="M 49.807187 7.2 
L 384.607188 7.2 
" style="fill:none;stroke:#ffffff;stroke-linecap:square;stroke-linejoin:miter;stroke-width:1.25;"/>
   </g>
   <g id="text_15">
    <!-- auc=0.74 -->
    <defs>
     <path d="M 8.5 21.578125 
L 8.5 54.6875 
L 17.484375 54.6875 
L 17.484375 21.921875 
Q 17.484375 14.15625 20.5 10.265625 
Q 23.53125 6.390625 29.59375 6.390625 
Q 36.859375 6.390625 41.078125 11.03125 
Q 45.3125 15.671875 45.3125 23.6875 
L 45.3125 54.6875 
L 54.296875 54.6875 
L 54.296875 0 
L 45.3125 0 
L 45.3125 8.40625 
Q 42.046875 3.421875 37.71875 1 
Q 33.40625 -1.421875 27.6875 -1.421875 
Q 18.265625 -1.421875 13.375 4.4375 
Q 8.5 10.296875 8.5 21.578125 
z
M 31.109375 56 
z
" id="DejaVuSans-117"/>
     <path d="M 10.59375 45.40625 
L 73.1875 45.40625 
L 73.1875 37.203125 
L 10.59375 37.203125 
z
M 10.59375 25.484375 
L 73.1875 25.484375 
L 73.1875 17.1875 
L 10.59375 17.1875 
z
" id="DejaVuSans-61"/>
     <path d="M 8.203125 72.90625 
L 55.078125 72.90625 
L 55.078125 68.703125 
L 28.609375 0 
L 18.3125 0 
L 43.21875 64.59375 
L 8.203125 64.59375 
z
" id="DejaVuSans-55"/>
    </defs>
    <g style="fill:#262626;" transform="translate(313.875937 214.091042)scale(0.12 -0.12)">
     <use xlink:href="#DejaVuSans-97"/>
     <use x="61.279297" xlink:href="#DejaVuSans-117"/>
     <use x="124.658203" xlink:href="#DejaVuSans-99"/>
     <use x="179.638672" xlink:href="#DejaVuSans-61"/>
     <use x="263.427734" xlink:href="#DejaVuSans-48"/>
     <use x="327.050781" xlink:href="#DejaVuSans-46"/>
     <use x="358.837891" xlink:href="#DejaVuSans-55"/>
     <use x="422.460938" xlink:href="#DejaVuSans-52"/>
    </g>
   </g>
   <g id="legend_1">
    <g id="patch_7">
     <path d="M 403.547188 42.791875 
L 515.200625 42.791875 
Q 517.400625 42.791875 517.400625 40.591875 
L 517.400625 9.4 
Q 517.400625 7.2 515.200625 7.2 
L 403.547188 7.2 
Q 401.347188 7.2 401.347188 9.4 
L 401.347188 40.591875 
Q 401.347188 42.791875 403.547188 42.791875 
z
" style="fill:#eaeaf2;opacity:0.8;stroke:#cccccc;stroke-linejoin:miter;"/>
    </g>
    <g id="PathCollection_4">
     <defs>
      <path id="m93bfbc74db" style="stroke:#ffffff;stroke-width:1.5;"/>
     </defs>
     <g>
      <use style="fill:#ffffff;stroke:#ffffff;stroke-width:1.5;" x="416.747187" xlink:href="#m93bfbc74db" y="17.070781"/>
     </g>
    </g>
    <g id="text_16">
     <!-- name -->
     <defs>
      <path d="M 52 44.1875 
Q 55.375 50.25 60.0625 53.125 
Q 64.75 56 71.09375 56 
Q 79.640625 56 84.28125 50.015625 
Q 88.921875 44.046875 88.921875 33.015625 
L 88.921875 0 
L 79.890625 0 
L 79.890625 32.71875 
Q 79.890625 40.578125 77.09375 44.375 
Q 74.3125 48.1875 68.609375 48.1875 
Q 61.625 48.1875 57.5625 43.546875 
Q 53.515625 38.921875 53.515625 30.90625 
L 53.515625 0 
L 44.484375 0 
L 44.484375 32.71875 
Q 44.484375 40.625 41.703125 44.40625 
Q 38.921875 48.1875 33.109375 48.1875 
Q 26.21875 48.1875 22.15625 43.53125 
Q 18.109375 38.875 18.109375 30.90625 
L 18.109375 0 
L 9.078125 0 
L 9.078125 54.6875 
L 18.109375 54.6875 
L 18.109375 46.1875 
Q 21.1875 51.21875 25.484375 53.609375 
Q 29.78125 56 35.6875 56 
Q 41.65625 56 45.828125 52.96875 
Q 50 49.953125 52 44.1875 
z
" id="DejaVuSans-109"/>
     </defs>
     <g style="fill:#262626;" transform="translate(436.547188 19.958281)scale(0.11 -0.11)">
      <use xlink:href="#DejaVuSans-110"/>
      <use x="63.378906" xlink:href="#DejaVuSans-97"/>
      <use x="124.658203" xlink:href="#DejaVuSans-109"/>
      <use x="222.070312" xlink:href="#DejaVuSans-101"/>
     </g>
    </g>
    <g id="PathCollection_5">
     <defs>
      <path d="M 0 3 
C 0.795609 3 1.55874 2.683901 2.12132 2.12132 
C 2.683901 1.55874 3 0.795609 3 0 
C 3 -0.795609 2.683901 -1.55874 2.12132 -2.12132 
C 1.55874 -2.683901 0.795609 -3 0 -3 
C -0.795609 -3 -1.55874 -2.683901 -2.12132 -2.12132 
C -2.683901 -1.55874 -3 -0.795609 -3 0 
C -3 0.795609 -2.683901 1.55874 -2.12132 2.12132 
C -1.55874 2.683901 -0.795609 3 0 3 
z
" id="mcb4ab14cad" style="stroke:#4c72b0;"/>
     </defs>
     <g>
      <use style="fill:#4c72b0;stroke:#4c72b0;" x="416.747187" xlink:href="#mcb4ab14cad" y="33.216719"/>
     </g>
    </g>
    <g id="text_17">
     <!-- model default -->
     <defs>
      <path d="M 45.40625 46.390625 
L 45.40625 75.984375 
L 54.390625 75.984375 
L 54.390625 0 
L 45.40625 0 
L 45.40625 8.203125 
Q 42.578125 3.328125 38.25 0.953125 
Q 33.9375 -1.421875 27.875 -1.421875 
Q 17.96875 -1.421875 11.734375 6.484375 
Q 5.515625 14.40625 5.515625 27.296875 
Q 5.515625 40.1875 11.734375 48.09375 
Q 17.96875 56 27.875 56 
Q 33.9375 56 38.25 53.625 
Q 42.578125 51.265625 45.40625 46.390625 
z
M 14.796875 27.296875 
Q 14.796875 17.390625 18.875 11.75 
Q 22.953125 6.109375 30.078125 6.109375 
Q 37.203125 6.109375 41.296875 11.75 
Q 45.40625 17.390625 45.40625 27.296875 
Q 45.40625 37.203125 41.296875 42.84375 
Q 37.203125 48.484375 30.078125 48.484375 
Q 22.953125 48.484375 18.875 42.84375 
Q 14.796875 37.203125 14.796875 27.296875 
z
" id="DejaVuSans-100"/>
      <path id="DejaVuSans-32"/>
      <path d="M 37.109375 75.984375 
L 37.109375 68.5 
L 28.515625 68.5 
Q 23.6875 68.5 21.796875 66.546875 
Q 19.921875 64.59375 19.921875 59.515625 
L 19.921875 54.6875 
L 34.71875 54.6875 
L 34.71875 47.703125 
L 19.921875 47.703125 
L 19.921875 0 
L 10.890625 0 
L 10.890625 47.703125 
L 2.296875 47.703125 
L 2.296875 54.6875 
L 10.890625 54.6875 
L 10.890625 58.5 
Q 10.890625 67.625 15.140625 71.796875 
Q 19.390625 75.984375 28.609375 75.984375 
z
" id="DejaVuSans-102"/>
      <path d="M 18.3125 70.21875 
L 18.3125 54.6875 
L 36.8125 54.6875 
L 36.8125 47.703125 
L 18.3125 47.703125 
L 18.3125 18.015625 
Q 18.3125 11.328125 20.140625 9.421875 
Q 21.96875 7.515625 27.59375 7.515625 
L 36.8125 7.515625 
L 36.8125 0 
L 27.59375 0 
Q 17.1875 0 13.234375 3.875 
Q 9.28125 7.765625 9.28125 18.015625 
L 9.28125 47.703125 
L 2.6875 47.703125 
L 2.6875 54.6875 
L 9.28125 54.6875 
L 9.28125 70.21875 
z
" id="DejaVuSans-116"/>
     </defs>
     <g style="fill:#262626;" transform="translate(436.547188 36.104219)scale(0.11 -0.11)">
      <use xlink:href="#DejaVuSans-109"/>
      <use x="97.412109" xlink:href="#DejaVuSans-111"/>
      <use x="158.59375" xlink:href="#DejaVuSans-100"/>
      <use x="222.070312" xlink:href="#DejaVuSans-101"/>
      <use x="283.59375" xlink:href="#DejaVuSans-108"/>
      <use x="311.376953" xlink:href="#DejaVuSans-32"/>
      <use x="343.164062" xlink:href="#DejaVuSans-100"/>
      <use x="406.640625" xlink:href="#DejaVuSans-101"/>
      <use x="468.164062" xlink:href="#DejaVuSans-102"/>
      <use x="503.369141" xlink:href="#DejaVuSans-97"/>
      <use x="564.648438" xlink:href="#DejaVuSans-117"/>
      <use x="628.027344" xlink:href="#DejaVuSans-108"/>
      <use x="655.810547" xlink:href="#DejaVuSans-116"/>
     </g>
    </g>
   </g>
  </g>
 </g>
 <defs>
  <clipPath id="p2f4db3d6bd">
   <rect height="217.44" width="334.8" x="49.807187" y="7.2"/>
  </clipPath>
 </defs>
</svg>
