<?xml version="1.0" encoding="utf-8" standalone="no"?>
<!DOCTYPE svg PUBLIC "-//W3C//DTD SVG 1.1//EN"
  "http://www.w3.org/Graphics/SVG/1.1/DTD/svg11.dtd">
<!-- Created with matplotlib (https://matplotlib.org/) -->
<svg height="267.599687pt" version="1.1" viewBox="0 0 524.600625 267.599687" width="524.600625pt" xmlns="http://www.w3.org/2000/svg" xmlns:xlink="http://www.w3.org/1999/xlink">
 <defs>
  <style type="text/css">
*{stroke-linecap:butt;stroke-linejoin:round;}
  </style>
 </defs>
 <g id="figure_1">
  <g id="patch_1">
   <path d="M 0 267.599687 
L 524.600625 267.599687 
L 524.600625 0 
L 0 0 
z
" style="fill:#ffffff;"/>
  </g>
  <g id="axes_1">
   <g id="patch_2">
    <path d="M 49.807187 224.64 
L 384.607188 224.64 
L 384.607188 7.2 
L 49.807187 7.2 
z
" style="fill:#eaeaf2;"/>
   </g>
   <g id="matplotlib.axis_1">
    <g id="xtick_1">
     <g id="line2d_1">
      <path clip-path="url(#p63bfb4f667)" d="M 62.207187 224.64 
L 62.207187 7.2 
" style="fill:none;stroke:#ffffff;stroke-linecap:round;"/>
     </g>
     <g id="text_1">
      <!-- 0.0 -->
      <defs>
       <path d="M 31.78125 66.40625 
Q 24.171875 66.40625 20.328125 58.90625 
Q 16.5 51.421875 16.5 36.375 
Q 16.5 21.390625 20.328125 13.890625 
Q 24.171875 6.390625 31.78125 6.390625 
Q 39.453125 6.390625 43.28125 13.890625 
Q 47.125 21.390625 47.125 36.375 
Q 47.125 51.421875 43.28125 58.90625 
Q 39.453125 66.40625 31.78125 66.40625 
z
M 31.78125 74.21875 
Q 44.046875 74.21875 50.515625 64.515625 
Q 56.984375 54.828125 56.984375 36.375 
Q 56.984375 17.96875 50.515625 8.265625 
Q 44.046875 -1.421875 31.78125 -1.421875 
Q 19.53125 -1.421875 13.0625 8.265625 
Q 6.59375 17.96875 6.59375 36.375 
Q 6.59375 54.828125 13.0625 64.515625 
Q 19.53125 74.21875 31.78125 74.21875 
z
" id="DejaVuSans-48"/>
       <path d="M 10.6875 12.40625 
L 21 12.40625 
L 21 0 
L 10.6875 0 
z
" id="DejaVuSans-46"/>
      </defs>
      <g style="fill:#262626;" transform="translate(53.460469 242.498281)scale(0.11 -0.11)">
       <use xlink:href="#DejaVuSans-48"/>
       <use x="63.623047" xlink:href="#DejaVuSans-46"/>
       <use x="95.410156" xlink:href="#DejaVuSans-48"/>
      </g>
     </g>
    </g>
    <g id="xtick_2">
     <g id="line2d_2">
      <path clip-path="url(#p63bfb4f667)" d="M 124.207188 224.64 
L 124.207188 7.2 
" style="fill:none;stroke:#ffffff;stroke-linecap:round;"/>
     </g>
     <g id="text_2">
      <!-- 0.2 -->
      <defs>
       <path d="M 19.1875 8.296875 
L 53.609375 8.296875 
L 53.609375 0 
L 7.328125 0 
L 7.328125 8.296875 
Q 12.9375 14.109375 22.625 23.890625 
Q 32.328125 33.6875 34.8125 36.53125 
Q 39.546875 41.84375 41.421875 45.53125 
Q 43.3125 49.21875 43.3125 52.78125 
Q 43.3125 58.59375 39.234375 62.25 
Q 35.15625 65.921875 28.609375 65.921875 
Q 23.96875 65.921875 18.8125 64.3125 
Q 13.671875 62.703125 7.8125 59.421875 
L 7.8125 69.390625 
Q 13.765625 71.78125 18.9375 73 
Q 24.125 74.21875 28.421875 74.21875 
Q 39.75 74.21875 46.484375 68.546875 
Q 53.21875 62.890625 53.21875 53.421875 
Q 53.21875 48.921875 51.53125 44.890625 
Q 49.859375 40.875 45.40625 35.40625 
Q 44.1875 33.984375 37.640625 27.21875 
Q 31.109375 20.453125 19.1875 8.296875 
z
" id="DejaVuSans-50"/>
      </defs>
      <g style="fill:#262626;" transform="translate(115.460469 242.498281)scale(0.11 -0.11)">
       <use xlink:href="#DejaVuSans-48"/>
       <use x="63.623047" xlink:href="#DejaVuSans-46"/>
       <use x="95.410156" xlink:href="#DejaVuSans-50"/>
      </g>
     </g>
    </g>
    <g id="xtick_3">
     <g id="line2d_3">
      <path clip-path="url(#p63bfb4f667)" d="M 186.207188 224.64 
L 186.207188 7.2 
" style="fill:none;stroke:#ffffff;stroke-linecap:round;"/>
     </g>
     <g id="text_3">
      <!-- 0.4 -->
      <defs>
       <path d="M 37.796875 64.3125 
L 12.890625 25.390625 
L 37.796875 25.390625 
z
M 35.203125 72.90625 
L 47.609375 72.90625 
L 47.609375 25.390625 
L 58.015625 25.390625 
L 58.015625 17.1875 
L 47.609375 17.1875 
L 47.609375 0 
L 37.796875 0 
L 37.796875 17.1875 
L 4.890625 17.1875 
L 4.890625 26.703125 
z
" id="DejaVuSans-52"/>
      </defs>
      <g style="fill:#262626;" transform="translate(177.460469 242.498281)scale(0.11 -0.11)">
       <use xlink:href="#DejaVuSans-48"/>
       <use x="63.623047" xlink:href="#DejaVuSans-46"/>
       <use x="95.410156" xlink:href="#DejaVuSans-52"/>
      </g>
     </g>
    </g>
    <g id="xtick_4">
     <g id="line2d_4">
      <path clip-path="url(#p63bfb4f667)" d="M 248.207188 224.64 
L 248.207188 7.2 
" style="fill:none;stroke:#ffffff;stroke-linecap:round;"/>
     </g>
     <g id="text_4">
      <!-- 0.6 -->
      <defs>
       <path d="M 33.015625 40.375 
Q 26.375 40.375 22.484375 35.828125 
Q 18.609375 31.296875 18.609375 23.390625 
Q 18.609375 15.53125 22.484375 10.953125 
Q 26.375 6.390625 33.015625 6.390625 
Q 39.65625 6.390625 43.53125 10.953125 
Q 47.40625 15.53125 47.40625 23.390625 
Q 47.40625 31.296875 43.53125 35.828125 
Q 39.65625 40.375 33.015625 40.375 
z
M 52.59375 71.296875 
L 52.59375 62.3125 
Q 48.875 64.0625 45.09375 64.984375 
Q 41.3125 65.921875 37.59375 65.921875 
Q 27.828125 65.921875 22.671875 59.328125 
Q 17.53125 52.734375 16.796875 39.40625 
Q 19.671875 43.65625 24.015625 45.921875 
Q 28.375 48.1875 33.59375 48.1875 
Q 44.578125 48.1875 50.953125 41.515625 
Q 57.328125 34.859375 57.328125 23.390625 
Q 57.328125 12.15625 50.6875 5.359375 
Q 44.046875 -1.421875 33.015625 -1.421875 
Q 20.359375 -1.421875 13.671875 8.265625 
Q 6.984375 17.96875 6.984375 36.375 
Q 6.984375 53.65625 15.1875 63.9375 
Q 23.390625 74.21875 37.203125 74.21875 
Q 40.921875 74.21875 44.703125 73.484375 
Q 48.484375 72.75 52.59375 71.296875 
z
" id="DejaVuSans-54"/>
      </defs>
      <g style="fill:#262626;" transform="translate(239.460469 242.498281)scale(0.11 -0.11)">
       <use xlink:href="#DejaVuSans-48"/>
       <use x="63.623047" xlink:href="#DejaVuSans-46"/>
       <use x="95.410156" xlink:href="#DejaVuSans-54"/>
      </g>
     </g>
    </g>
    <g id="xtick_5">
     <g id="line2d_5">
      <path clip-path="url(#p63bfb4f667)" d="M 310.207187 224.64 
L 310.207187 7.2 
" style="fill:none;stroke:#ffffff;stroke-linecap:round;"/>
     </g>
     <g id="text_5">
      <!-- 0.8 -->
      <defs>
       <path d="M 31.78125 34.625 
Q 24.75 34.625 20.71875 30.859375 
Q 16.703125 27.09375 16.703125 20.515625 
Q 16.703125 13.921875 20.71875 10.15625 
Q 24.75 6.390625 31.78125 6.390625 
Q 38.8125 6.390625 42.859375 10.171875 
Q 46.921875 13.96875 46.921875 20.515625 
Q 46.921875 27.09375 42.890625 30.859375 
Q 38.875 34.625 31.78125 34.625 
z
M 21.921875 38.8125 
Q 15.578125 40.375 12.03125 44.71875 
Q 8.5 49.078125 8.5 55.328125 
Q 8.5 64.0625 14.71875 69.140625 
Q 20.953125 74.21875 31.78125 74.21875 
Q 42.671875 74.21875 48.875 69.140625 
Q 55.078125 64.0625 55.078125 55.328125 
Q 55.078125 49.078125 51.53125 44.71875 
Q 48 40.375 41.703125 38.8125 
Q 48.828125 37.15625 52.796875 32.3125 
Q 56.78125 27.484375 56.78125 20.515625 
Q 56.78125 9.90625 50.3125 4.234375 
Q 43.84375 -1.421875 31.78125 -1.421875 
Q 19.734375 -1.421875 13.25 4.234375 
Q 6.78125 9.90625 6.78125 20.515625 
Q 6.78125 27.484375 10.78125 32.3125 
Q 14.796875 37.15625 21.921875 38.8125 
z
M 18.3125 54.390625 
Q 18.3125 48.734375 21.84375 45.5625 
Q 25.390625 42.390625 31.78125 42.390625 
Q 38.140625 42.390625 41.71875 45.5625 
Q 45.3125 48.734375 45.3125 54.390625 
Q 45.3125 60.0625 41.71875 63.234375 
Q 38.140625 66.40625 31.78125 66.40625 
Q 25.390625 66.40625 21.84375 63.234375 
Q 18.3125 60.0625 18.3125 54.390625 
z
" id="DejaVuSans-56"/>
      </defs>
      <g style="fill:#262626;" transform="translate(301.460469 242.498281)scale(0.11 -0.11)">
       <use xlink:href="#DejaVuSans-48"/>
       <use x="63.623047" xlink:href="#DejaVuSans-46"/>
       <use x="95.410156" xlink:href="#DejaVuSans-56"/>
      </g>
     </g>
    </g>
    <g id="xtick_6">
     <g id="line2d_6">
      <path clip-path="url(#p63bfb4f667)" d="M 372.207188 224.64 
L 372.207188 7.2 
" style="fill:none;stroke:#ffffff;stroke-linecap:round;"/>
     </g>
     <g id="text_6">
      <!-- 1.0 -->
      <defs>
       <path d="M 12.40625 8.296875 
L 28.515625 8.296875 
L 28.515625 63.921875 
L 10.984375 60.40625 
L 10.984375 69.390625 
L 28.421875 72.90625 
L 38.28125 72.90625 
L 38.28125 8.296875 
L 54.390625 8.296875 
L 54.390625 0 
L 12.40625 0 
z
" id="DejaVuSans-49"/>
      </defs>
      <g style="fill:#262626;" transform="translate(363.460469 242.498281)scale(0.11 -0.11)">
       <use xlink:href="#DejaVuSans-49"/>
       <use x="63.623047" xlink:href="#DejaVuSans-46"/>
       <use x="95.410156" xlink:href="#DejaVuSans-48"/>
      </g>
     </g>
    </g>
    <g id="text_7">
     <!-- recall -->
     <defs>
      <path d="M 41.109375 46.296875 
Q 39.59375 47.171875 37.8125 47.578125 
Q 36.03125 48 33.890625 48 
Q 26.265625 48 22.1875 43.046875 
Q 18.109375 38.09375 18.109375 28.8125 
L 18.109375 0 
L 9.078125 0 
L 9.078125 54.6875 
L 18.109375 54.6875 
L 18.109375 46.1875 
Q 20.953125 51.171875 25.484375 53.578125 
Q 30.03125 56 36.53125 56 
Q 37.453125 56 38.578125 55.875 
Q 39.703125 55.765625 41.0625 55.515625 
z
" id="DejaVuSans-114"/>
      <path d="M 56.203125 29.59375 
L 56.203125 25.203125 
L 14.890625 25.203125 
Q 15.484375 15.921875 20.484375 11.0625 
Q 25.484375 6.203125 34.421875 6.203125 
Q 39.59375 6.203125 44.453125 7.46875 
Q 49.3125 8.734375 54.109375 11.28125 
L 54.109375 2.78125 
Q 49.265625 0.734375 44.1875 -0.34375 
Q 39.109375 -1.421875 33.890625 -1.421875 
Q 20.796875 -1.421875 13.15625 6.1875 
Q 5.515625 13.8125 5.515625 26.8125 
Q 5.515625 40.234375 12.765625 48.109375 
Q 20.015625 56 32.328125 56 
Q 43.359375 56 49.78125 48.890625 
Q 56.203125 41.796875 56.203125 29.59375 
z
M 47.21875 32.234375 
Q 47.125 39.59375 43.09375 43.984375 
Q 39.0625 48.390625 32.421875 48.390625 
Q 24.90625 48.390625 20.390625 44.140625 
Q 15.875 39.890625 15.1875 32.171875 
z
" id="DejaVuSans-101"/>
      <path d="M 48.78125 52.59375 
L 48.78125 44.1875 
Q 44.96875 46.296875 41.140625 47.34375 
Q 37.3125 48.390625 33.40625 48.390625 
Q 24.65625 48.390625 19.8125 42.84375 
Q 14.984375 37.3125 14.984375 27.296875 
Q 14.984375 17.28125 19.8125 11.734375 
Q 24.65625 6.203125 33.40625 6.203125 
Q 37.3125 6.203125 41.140625 7.25 
Q 44.96875 8.296875 48.78125 10.40625 
L 48.78125 2.09375 
Q 45.015625 0.34375 40.984375 -0.53125 
Q 36.96875 -1.421875 32.421875 -1.421875 
Q 20.0625 -1.421875 12.78125 6.34375 
Q 5.515625 14.109375 5.515625 27.296875 
Q 5.515625 40.671875 12.859375 48.328125 
Q 20.21875 56 33.015625 56 
Q 37.15625 56 41.109375 55.140625 
Q 45.0625 54.296875 48.78125 52.59375 
z
" id="DejaVuSans-99"/>
      <path d="M 34.28125 27.484375 
Q 23.390625 27.484375 19.1875 25 
Q 14.984375 22.515625 14.984375 16.5 
Q 14.984375 11.71875 18.140625 8.90625 
Q 21.296875 6.109375 26.703125 6.109375 
Q 34.1875 6.109375 38.703125 11.40625 
Q 43.21875 16.703125 43.21875 25.484375 
L 43.21875 27.484375 
z
M 52.203125 31.203125 
L 52.203125 0 
L 43.21875 0 
L 43.21875 8.296875 
Q 40.140625 3.328125 35.546875 0.953125 
Q 30.953125 -1.421875 24.3125 -1.421875 
Q 15.921875 -1.421875 10.953125 3.296875 
Q 6 8.015625 6 15.921875 
Q 6 25.140625 12.171875 29.828125 
Q 18.359375 34.515625 30.609375 34.515625 
L 43.21875 34.515625 
L 43.21875 35.40625 
Q 43.21875 41.609375 39.140625 45 
Q 35.0625 48.390625 27.6875 48.390625 
Q 23 48.390625 18.546875 47.265625 
Q 14.109375 46.140625 10.015625 43.890625 
L 10.015625 52.203125 
Q 14.9375 54.109375 19.578125 55.046875 
Q 24.21875 56 28.609375 56 
Q 40.484375 56 46.34375 49.84375 
Q 52.203125 43.703125 52.203125 31.203125 
z
" id="DejaVuSans-97"/>
      <path d="M 9.421875 75.984375 
L 18.40625 75.984375 
L 18.40625 0 
L 9.421875 0 
z
" id="DejaVuSans-108"/>
     </defs>
     <g style="fill:#262626;" transform="translate(200.874063 257.904062)scale(0.12 -0.12)">
      <use xlink:href="#DejaVuSans-114"/>
      <use x="38.863281" xlink:href="#DejaVuSans-101"/>
      <use x="100.386719" xlink:href="#DejaVuSans-99"/>
      <use x="155.367188" xlink:href="#DejaVuSans-97"/>
      <use x="216.646484" xlink:href="#DejaVuSans-108"/>
      <use x="244.429688" xlink:href="#DejaVuSans-108"/>
     </g>
    </g>
   </g>
   <g id="matplotlib.axis_2">
    <g id="ytick_1">
     <g id="line2d_7">
      <path clip-path="url(#p63bfb4f667)" d="M 49.807187 216.586667 
L 384.607188 216.586667 
" style="fill:none;stroke:#ffffff;stroke-linecap:round;"/>
     </g>
     <g id="text_8">
      <!-- 0.0 -->
      <g style="fill:#262626;" transform="translate(22.81375 220.765807)scale(0.11 -0.11)">
       <use xlink:href="#DejaVuSans-48"/>
       <use x="63.623047" xlink:href="#DejaVuSans-46"/>
       <use x="95.410156" xlink:href="#DejaVuSans-48"/>
      </g>
     </g>
    </g>
    <g id="ytick_2">
     <g id="line2d_8">
      <path clip-path="url(#p63bfb4f667)" d="M 49.807187 176.32 
L 384.607188 176.32 
" style="fill:none;stroke:#ffffff;stroke-linecap:round;"/>
     </g>
     <g id="text_9">
      <!-- 0.2 -->
      <g style="fill:#262626;" transform="translate(22.81375 180.499141)scale(0.11 -0.11)">
       <use xlink:href="#DejaVuSans-48"/>
       <use x="63.623047" xlink:href="#DejaVuSans-46"/>
       <use x="95.410156" xlink:href="#DejaVuSans-50"/>
      </g>
     </g>
    </g>
    <g id="ytick_3">
     <g id="line2d_9">
      <path clip-path="url(#p63bfb4f667)" d="M 49.807187 136.053333 
L 384.607188 136.053333 
" style="fill:none;stroke:#ffffff;stroke-linecap:round;"/>
     </g>
     <g id="text_10">
      <!-- 0.4 -->
      <g style="fill:#262626;" transform="translate(22.81375 140.232474)scale(0.11 -0.11)">
       <use xlink:href="#DejaVuSans-48"/>
       <use x="63.623047" xlink:href="#DejaVuSans-46"/>
       <use x="95.410156" xlink:href="#DejaVuSans-52"/>
      </g>
     </g>
    </g>
    <g id="ytick_4">
     <g id="line2d_10">
      <path clip-path="url(#p63bfb4f667)" d="M 49.807187 95.786667 
L 384.607188 95.786667 
" style="fill:none;stroke:#ffffff;stroke-linecap:round;"/>
     </g>
     <g id="text_11">
      <!-- 0.6 -->
      <g style="fill:#262626;" transform="translate(22.81375 99.965807)scale(0.11 -0.11)">
       <use xlink:href="#DejaVuSans-48"/>
       <use x="63.623047" xlink:href="#DejaVuSans-46"/>
       <use x="95.410156" xlink:href="#DejaVuSans-54"/>
      </g>
     </g>
    </g>
    <g id="ytick_5">
     <g id="line2d_11">
      <path clip-path="url(#p63bfb4f667)" d="M 49.807187 55.52 
L 384.607188 55.52 
" style="fill:none;stroke:#ffffff;stroke-linecap:round;"/>
     </g>
     <g id="text_12">
      <!-- 0.8 -->
      <g style="fill:#262626;" transform="translate(22.81375 59.699141)scale(0.11 -0.11)">
       <use xlink:href="#DejaVuSans-48"/>
       <use x="63.623047" xlink:href="#DejaVuSans-46"/>
       <use x="95.410156" xlink:href="#DejaVuSans-56"/>
      </g>
     </g>
    </g>
    <g id="ytick_6">
     <g id="line2d_12">
      <path clip-path="url(#p63bfb4f667)" d="M 49.807187 15.253333 
L 384.607188 15.253333 
" style="fill:none;stroke:#ffffff;stroke-linecap:round;"/>
     </g>
     <g id="text_13">
      <!-- 1.0 -->
      <g style="fill:#262626;" transform="translate(22.81375 19.432474)scale(0.11 -0.11)">
       <use xlink:href="#DejaVuSans-49"/>
       <use x="63.623047" xlink:href="#DejaVuSans-46"/>
       <use x="95.410156" xlink:href="#DejaVuSans-48"/>
      </g>
     </g>
    </g>
    <g id="text_14">
     <!-- precision -->
     <defs>
      <path d="M 18.109375 8.203125 
L 18.109375 -20.796875 
L 9.078125 -20.796875 
L 9.078125 54.6875 
L 18.109375 54.6875 
L 18.109375 46.390625 
Q 20.953125 51.265625 25.265625 53.625 
Q 29.59375 56 35.59375 56 
Q 45.5625 56 51.78125 48.09375 
Q 58.015625 40.1875 58.015625 27.296875 
Q 58.015625 14.40625 51.78125 6.484375 
Q 45.5625 -1.421875 35.59375 -1.421875 
Q 29.59375 -1.421875 25.265625 0.953125 
Q 20.953125 3.328125 18.109375 8.203125 
z
M 48.6875 27.296875 
Q 48.6875 37.203125 44.609375 42.84375 
Q 40.53125 48.484375 33.40625 48.484375 
Q 26.265625 48.484375 22.1875 42.84375 
Q 18.109375 37.203125 18.109375 27.296875 
Q 18.109375 17.390625 22.1875 11.75 
Q 26.265625 6.109375 33.40625 6.109375 
Q 40.53125 6.109375 44.609375 11.75 
Q 48.6875 17.390625 48.6875 27.296875 
z
" id="DejaVuSans-112"/>
      <path d="M 9.421875 54.6875 
L 18.40625 54.6875 
L 18.40625 0 
L 9.421875 0 
z
M 9.421875 75.984375 
L 18.40625 75.984375 
L 18.40625 64.59375 
L 9.421875 64.59375 
z
" id="DejaVuSans-105"/>
      <path d="M 44.28125 53.078125 
L 44.28125 44.578125 
Q 40.484375 46.53125 36.375 47.5 
Q 32.28125 48.484375 27.875 48.484375 
Q 21.1875 48.484375 17.84375 46.4375 
Q 14.5 44.390625 14.5 40.28125 
Q 14.5 37.15625 16.890625 35.375 
Q 19.28125 33.59375 26.515625 31.984375 
L 29.59375 31.296875 
Q 39.15625 29.25 43.1875 25.515625 
Q 47.21875 21.78125 47.21875 15.09375 
Q 47.21875 7.46875 41.1875 3.015625 
Q 35.15625 -1.421875 24.609375 -1.421875 
Q 20.21875 -1.421875 15.453125 -0.5625 
Q 10.6875 0.296875 5.421875 2 
L 5.421875 11.28125 
Q 10.40625 8.6875 15.234375 7.390625 
Q 20.0625 6.109375 24.8125 6.109375 
Q 31.15625 6.109375 34.5625 8.28125 
Q 37.984375 10.453125 37.984375 14.40625 
Q 37.984375 18.0625 35.515625 20.015625 
Q 33.0625 21.96875 24.703125 23.78125 
L 21.578125 24.515625 
Q 13.234375 26.265625 9.515625 29.90625 
Q 5.8125 33.546875 5.8125 39.890625 
Q 5.8125 47.609375 11.28125 51.796875 
Q 16.75 56 26.8125 56 
Q 31.78125 56 36.171875 55.265625 
Q 40.578125 54.546875 44.28125 53.078125 
z
" id="DejaVuSans-115"/>
      <path d="M 30.609375 48.390625 
Q 23.390625 48.390625 19.1875 42.75 
Q 14.984375 37.109375 14.984375 27.296875 
Q 14.984375 17.484375 19.15625 11.84375 
Q 23.34375 6.203125 30.609375 6.203125 
Q 37.796875 6.203125 41.984375 11.859375 
Q 46.1875 17.53125 46.1875 27.296875 
Q 46.1875 37.015625 41.984375 42.703125 
Q 37.796875 48.390625 30.609375 48.390625 
z
M 30.609375 56 
Q 42.328125 56 49.015625 48.375 
Q 55.71875 40.765625 55.71875 27.296875 
Q 55.71875 13.875 49.015625 6.21875 
Q 42.328125 -1.421875 30.609375 -1.421875 
Q 18.84375 -1.421875 12.171875 6.21875 
Q 5.515625 13.875 5.515625 27.296875 
Q 5.515625 40.765625 12.171875 48.375 
Q 18.84375 56 30.609375 56 
z
" id="DejaVuSans-111"/>
      <path d="M 54.890625 33.015625 
L 54.890625 0 
L 45.90625 0 
L 45.90625 32.71875 
Q 45.90625 40.484375 42.875 44.328125 
Q 39.84375 48.1875 33.796875 48.1875 
Q 26.515625 48.1875 22.3125 43.546875 
Q 18.109375 38.921875 18.109375 30.90625 
L 18.109375 0 
L 9.078125 0 
L 9.078125 54.6875 
L 18.109375 54.6875 
L 18.109375 46.1875 
Q 21.34375 51.125 25.703125 53.5625 
Q 30.078125 56 35.796875 56 
Q 45.21875 56 50.046875 50.171875 
Q 54.890625 44.34375 54.890625 33.015625 
z
" id="DejaVuSans-110"/>
     </defs>
     <g style="fill:#262626;" transform="translate(16.318125 142.984687)rotate(-90)scale(0.12 -0.12)">
      <use xlink:href="#DejaVuSans-112"/>
      <use x="63.476562" xlink:href="#DejaVuSans-114"/>
      <use x="102.339844" xlink:href="#DejaVuSans-101"/>
      <use x="163.863281" xlink:href="#DejaVuSans-99"/>
      <use x="218.84375" xlink:href="#DejaVuSans-105"/>
      <use x="246.626953" xlink:href="#DejaVuSans-115"/>
      <use x="298.726562" xlink:href="#DejaVuSans-105"/>
      <use x="326.509766" xlink:href="#DejaVuSans-111"/>
      <use x="387.691406" xlink:href="#DejaVuSans-110"/>
     </g>
    </g>
   </g>
   <g id="PathCollection_1">
    <defs>
     <path d="M 0 3 
C 0.795609 3 1.55874 2.683901 2.12132 2.12132 
C 2.683901 1.55874 3 0.795609 3 0 
C 3 -0.795609 2.683901 -1.55874 2.12132 -2.12132 
C 1.55874 -2.683901 0.795609 -3 0 -3 
C -0.795609 -3 -1.55874 -2.683901 -2.12132 -2.12132 
C -2.683901 -1.55874 -3 -0.795609 -3 0 
C -3 0.795609 -2.683901 1.55874 -2.12132 2.12132 
C -1.55874 2.683901 -0.795609 3 0 3 
z
" id="mea7ec03980" style="stroke:#ffffff;stroke-width:0.75;"/>
    </defs>
    <g clip-path="url(#p63bfb4f667)">
     <use style="fill:#4c72b0;stroke:#ffffff;stroke-width:0.75;" x="328.410278" xlink:href="#mea7ec03980" y="44.07859"/>
    </g>
   </g>
   <g id="PathCollection_2"/>
   <g id="PathCollection_3"/>
   <g id="line2d_13">
    <path clip-path="url(#p63bfb4f667)" d="M 372.207187 69.007379 
L 372.207187 69.0945 
L 371.522861 69.0945 
L 371.522861 68.855065 
L 371.522861 68.942222 
L 370.838534 68.942222 
L 370.838534 66.749483 
L 370.838534 66.834601 
L 370.154207 66.834601 
L 370.154207 66.33791 
L 370.154207 66.422769 
L 368.785554 66.507909 
L 368.785554 63.968505 
L 368.785554 64.051073 
L 367.416901 64.133922 
L 367.416901 63.874649 
L 367.416901 63.957479 
L 366.732574 63.957479 
L 366.732574 61.848613 
L 366.732574 61.929227 
L 366.048247 61.929227 
L 366.048247 61.392222 
L 366.048247 61.472464 
L 365.36392 61.472464 
L 365.36392 58.447187 
L 365.36392 58.523908 
L 364.679594 58.523908 
L 364.679594 57.677143 
L 364.679594 57.753035 
L 363.995267 57.753035 
L 363.995267 57.468387 
L 363.995267 57.544177 
L 362.626614 57.62024 
L 362.626614 57.696577 
L 361.25796 57.773189 
L 361.25796 57.486004 
L 361.25796 57.562512 
L 359.889307 57.639298 
L 359.889307 57.716364 
L 359.20498 57.716364 
L 359.20498 55.668312 
L 359.20498 55.742878 
L 358.520653 55.742878 
L 358.520653 55.14716 
L 358.520653 55.221175 
L 357.836327 55.221175 
L 357.836327 53.710262 
L 357.836327 53.782414 
L 356.467673 53.854837 
L 356.467673 53.927533 
L 355.09902 54.000503 
L 355.09902 54.073749 
L 354.414693 54.073749 
L 354.414693 53.146869 
L 354.414693 53.219048 
L 353.04604 53.291501 
L 353.04604 53.364232 
L 351.677386 53.437241 
L 351.677386 53.510531 
L 350.993059 53.510531 
L 350.993059 52.566075 
L 350.993059 52.638246 
L 349.624406 52.710698 
L 349.624406 52.392492 
L 349.624406 52.464747 
L 348.940079 52.464747 
L 348.940079 51.501213 
L 348.940079 51.572288 
L 347.571426 51.643641 
L 347.571426 51.715276 
L 346.202772 51.787193 
L 346.202772 51.461502 
L 346.202772 51.533201 
L 345.518446 51.533201 
L 345.518446 50.876925 
L 345.518446 50.947888 
L 344.834119 50.947888 
L 344.834119 49.617456 
L 344.834119 49.6866 
L 344.149792 49.6866 
L 344.149792 49.012256 
L 344.149792 49.080594 
L 342.781139 49.149209 
L 342.781139 47.779577 
L 342.781139 47.84623 
L 341.412486 47.913155 
L 341.412486 47.566091 
L 341.412486 47.632715 
L 340.043832 47.699614 
L 340.043832 47.766791 
L 338.675179 47.834246 
L 338.675179 47.901982 
L 337.990852 47.901982 
L 337.990852 47.550556 
L 337.990852 47.617982 
L 337.306525 47.617982 
L 337.306525 46.553053 
L 337.306525 46.618947 
L 335.937872 46.68512 
L 335.937872 46.751572 
L 334.569218 46.818305 
L 334.569218 46.457863 
L 334.569218 46.524255 
L 333.200565 46.590931 
L 333.200565 45.496538 
L 333.200565 45.561577 
L 332.516238 45.561577 
L 332.516238 45.192989 
L 332.516238 45.257653 
L 331.831912 45.257653 
L 331.831912 44.14029 
L 331.831912 44.203224 
L 330.463258 44.266434 
L 330.463258 44.32992 
L 329.094605 44.393684 
L 329.094605 44.457729 
L 328.410278 44.457729 
L 328.410278 44.07859 
L 328.410278 44.142222 
L 327.725951 44.142222 
L 327.725951 43.760708 
L 327.725951 43.823917 
L 326.357298 43.887407 
L 326.357298 43.95118 
L 324.988644 44.015238 
L 324.988644 43.629172 
L 324.988644 43.692795 
L 323.619991 43.756704 
L 323.619991 43.820901 
L 322.251338 43.885388 
L 322.251338 43.950166 
L 321.567011 43.950166 
L 321.567011 43.5587 
L 321.567011 43.62303 
L 320.198357 43.687654 
L 320.198357 43.292907 
L 320.198357 43.357071 
L 319.514031 43.357071 
L 319.514031 42.959755 
L 319.514031 43.023448 
L 318.145377 43.087435 
L 318.145377 42.284198 
L 318.145377 42.346914 
L 316.776724 42.409922 
L 316.776724 42.473225 
L 316.092397 42.473225 
L 316.092397 40.83451 
L 316.092397 40.894843 
L 314.723744 40.955461 
L 314.723744 41.016367 
L 314.039417 41.016367 
L 314.039417 40.599335 
L 314.039417 40.659683 
L 312.670764 40.720318 
L 312.670764 40.781244 
L 311.30211 40.842462 
L 311.30211 40.903974 
L 309.933457 40.965783 
L 309.933457 41.02789 
L 308.564803 41.090299 
L 308.564803 40.236302 
L 308.564803 40.297236 
L 307.19615 40.358468 
L 307.19615 40.42 
L 305.827497 40.481835 
L 305.827497 40.048079 
L 305.827497 40.1093 
L 305.14317 40.1093 
L 305.14317 39.672475 
L 305.14317 39.733069 
L 303.774516 39.793964 
L 303.774516 39.855162 
L 302.405863 39.916667 
L 302.405863 39.97848 
L 301.03721 40.040603 
L 301.03721 39.595903 
L 301.03721 39.657374 
L 299.668556 39.719156 
L 299.668556 39.781252 
L 298.299903 39.843664 
L 298.299903 39.906395 
L 296.931249 39.969446 
L 296.931249 39.516581 
L 296.931249 39.578955 
L 295.562596 39.641649 
L 295.562596 39.184427 
L 295.562596 39.246425 
L 294.878269 39.246425 
L 294.878269 38.785801 
L 294.878269 38.847083 
L 293.509616 38.908686 
L 293.509616 37.975993 
L 293.509616 38.035789 
L 292.140962 38.095901 
L 292.140962 36.671773 
L 292.140962 36.728889 
L 291.456636 36.728889 
L 291.456636 36.247986 
L 291.456636 36.304272 
L 290.772309 36.304272 
L 290.772309 35.819642 
L 290.772309 35.875076 
L 289.403655 35.930811 
L 289.403655 35.441229 
L 289.403655 35.496087 
L 288.719329 35.496087 
L 288.719329 35.002652 
L 288.719329 35.056612 
L 286.666349 35.165421 
L 286.666349 35.220275 
L 285.982022 35.220275 
L 285.982022 33.19948 
L 285.982022 33.249609 
L 283.929042 33.350712 
L 283.929042 33.40169 
L 281.876062 33.504514 
L 281.876062 31.406151 
L 281.876062 31.452567 
L 280.507408 31.499251 
L 280.507408 30.964316 
L 280.507408 31.009855 
L 279.823082 31.009855 
L 279.823082 30.470388 
L 279.823082 30.514752 
L 277.770101 30.604262 
L 277.770101 30.649412 
L 275.717121 30.740513 
L 275.717121 30.786469 
L 273.664141 30.879204 
L 273.664141 30.323194 
L 273.664141 30.368448 
L 271.611161 30.459778 
L 271.611161 30.505859 
L 269.558181 30.598862 
L 269.558181 30.64579 
L 267.505201 30.740513 
L 267.505201 30.788313 
L 266.136547 30.836409 
L 266.136547 30.259545 
L 266.136547 30.306293 
L 265.452221 30.306293 
L 265.452221 29.724167 
L 265.452221 29.76953 
L 263.39924 29.861115 
L 263.39924 29.907342 
L 261.34626 30.000679 
L 261.34626 30.047796 
L 259.29328 30.142937 
L 259.29328 30.190968 
L 257.2403 30.287965 
L 257.2403 30.336938 
L 255.18732 30.435847 
L 255.18732 30.485789 
L 253.13434 30.586667 
L 253.13434 29.968726 
L 253.13434 30.017778 
L 252.450013 30.017778 
L 252.450013 29.393802 
L 252.450013 29.441253 
L 251.08136 29.489024 
L 251.08136 28.220565 
L 251.08136 28.264671 
L 249.712706 28.309078 
L 249.712706 27.664292 
L 249.712706 27.706942 
L 247.659726 27.793126 
L 247.659726 27.836667 
L 245.606746 27.924662 
L 245.606746 27.969123 
L 243.553766 28.058987 
L 243.553766 27.390449 
L 243.553766 27.433642 
L 241.500786 27.520956 
L 241.500786 26.840863 
L 241.500786 26.882696 
L 239.447806 26.967273 
L 239.447806 27.010024 
L 237.394825 27.096471 
L 237.394825 27.140172 
L 235.341845 27.22855 
L 235.341845 27.273234 
L 233.288865 27.363609 
L 233.288865 26.64956 
L 233.288865 26.692727 
L 231.235885 26.780051 
L 231.235885 26.824215 
L 229.182905 26.913565 
L 229.182905 26.95876 
L 227.129925 27.050208 
L 227.129925 27.096471 
L 225.076945 27.190092 
L 225.076945 27.23746 
L 223.023965 27.333333 
L 223.023965 27.381847 
L 220.970984 27.480054 
L 220.970984 27.529756 
L 218.918004 27.630383 
L 218.918004 27.681317 
L 218.233678 27.681317 
L 218.233678 26.900716 
L 218.233678 26.949046 
L 216.180697 27.046918 
L 216.180697 27.096471 
L 214.127717 27.196836 
L 214.127717 27.24766 
L 212.074737 27.350615 
L 212.074737 27.402759 
L 210.021757 27.508406 
L 210.021757 27.561921 
L 207.968777 27.670367 
L 207.968777 27.72531 
L 206.600123 27.780741 
L 206.600123 26.937857 
L 206.600123 26.990254 
L 204.547143 27.096471 
L 204.547143 27.150303 
L 202.494163 27.25945 
L 202.494163 27.314777 
L 201.12551 27.370617 
L 201.12551 26.490543 
L 201.12551 26.543053 
L 199.07253 26.64956 
L 199.07253 26.70357 
L 197.01955 26.813142 
L 197.01955 26.868718 
L 195.650896 26.924831 
L 195.650896 26.004142 
L 195.650896 26.056585 
L 193.597916 26.163021 
L 193.597916 26.21703 
L 191.544936 26.326667 
L 191.544936 26.382312 
L 190.176282 26.438519 
L 190.176282 26.495296 
L 188.807629 26.552653 
L 188.807629 26.610598 
L 187.438976 26.669141 
L 187.438976 26.72829 
L 186.070322 26.788056 
L 186.070322 26.848447 
L 185.385995 26.848447 
L 185.385995 25.849825 
L 185.385995 25.905891 
L 184.017342 25.962553 
L 184.017342 26.019822 
L 182.648689 26.077706 
L 182.648689 26.136216 
L 181.280035 26.195362 
L 181.280035 26.255155 
L 179.911382 26.315604 
L 179.911382 26.376722 
L 178.542728 26.438519 
L 178.542728 26.501006 
L 177.174075 26.564195 
L 177.174075 26.628098 
L 175.805421 26.692727 
L 175.805421 25.607619 
L 175.805421 25.667126 
L 174.436768 25.727322 
L 174.436768 25.788217 
L 173.068115 25.849825 
L 173.068115 25.912157 
L 171.699461 25.975227 
L 171.699461 26.039048 
L 170.330808 26.103633 
L 170.330808 26.168996 
L 168.962154 26.235152 
L 168.962154 26.302114 
L 167.593501 26.369898 
L 167.593501 25.19572 
L 167.593501 25.257474 
L 166.224848 25.32 
L 166.224848 25.383312 
L 164.856194 25.447426 
L 164.856194 24.229979 
L 164.856194 24.287521 
L 163.487541 24.345806 
L 163.487541 24.404848 
L 162.118887 24.464662 
L 162.118887 24.525263 
L 160.750234 24.586667 
L 160.750234 24.648889 
L 159.38158 24.711946 
L 159.38158 24.775856 
L 158.012927 24.840635 
L 158.012927 24.906301 
L 156.644274 24.972874 
L 156.644274 25.04037 
L 155.27562 25.108811 
L 155.27562 25.178216 
L 153.906967 25.248605 
L 153.906967 25.32 
L 153.22264 25.32 
L 153.22264 23.943981 
L 153.22264 24.006957 
L 151.853987 24.070852 
L 151.853987 24.135686 
L 150.485333 24.201481 
L 150.485333 24.268259 
L 149.11668 24.33604 
L 149.11668 24.404848 
L 147.748026 24.474707 
L 147.748026 24.545641 
L 146.379373 24.617674 
L 146.379373 24.690833 
L 145.01072 24.765144 
L 145.01072 24.840635 
L 143.642066 24.917333 
L 143.642066 23.371613 
L 143.642066 23.437615 
L 142.273413 23.504699 
L 142.273413 23.572893 
L 140.904759 23.642222 
L 140.904759 23.712717 
L 139.536106 23.784407 
L 139.536106 23.857322 
L 138.167452 23.931494 
L 138.167452 24.006957 
L 136.798799 24.083743 
L 136.798799 24.161888 
L 135.430146 24.241429 
L 135.430146 24.322402 
L 134.061492 24.404848 
L 134.061492 24.488807 
L 132.692839 24.574321 
L 132.692839 24.661433 
L 131.324185 24.750189 
L 131.324185 24.840635 
L 129.955532 24.932821 
L 129.955532 25.026796 
L 128.586878 25.122614 
L 128.586878 25.22033 
L 127.218225 25.32 
L 127.218225 25.421684 
L 125.849572 25.525442 
L 125.849572 25.63134 
L 124.480918 25.739444 
L 124.480918 25.849825 
L 123.796591 25.849825 
L 123.796591 25.962553 
L 123.112265 25.962553 
L 123.112265 26.077706 
L 122.427938 26.077706 
L 122.427938 26.195362 
L 121.743611 26.195362 
L 121.743611 26.315604 
L 121.059285 26.315604 
L 121.059285 26.438519 
L 120.374958 26.438519 
L 120.374958 26.564195 
L 119.690631 26.564195 
L 119.690631 26.692727 
L 119.006304 26.692727 
L 119.006304 26.824215 
L 118.321978 26.824215 
L 118.321978 26.95876 
L 117.637651 26.95876 
L 117.637651 27.096471 
L 116.953324 27.096471 
L 116.953324 27.23746 
L 116.268998 27.23746 
L 116.268998 27.381847 
L 115.584671 27.381847 
L 115.584671 27.529756 
L 114.900344 27.529756 
L 114.900344 27.681317 
L 114.216018 27.681317 
L 114.216018 27.836667 
L 113.531691 27.836667 
L 113.531691 27.995949 
L 112.847364 27.995949 
L 112.847364 28.159316 
L 112.163037 28.159316 
L 112.163037 28.326926 
L 111.478711 28.326926 
L 111.478711 28.498947 
L 110.794384 28.498947 
L 110.794384 28.675556 
L 110.110057 28.675556 
L 110.110057 28.856937 
L 109.425731 28.856937 
L 109.425731 29.043288 
L 108.741404 29.043288 
L 108.741404 29.234815 
L 108.057077 29.234815 
L 108.057077 29.431737 
L 107.37275 29.431737 
L 107.37275 29.634286 
L 106.688424 29.634286 
L 106.688424 26.924831 
L 106.688424 27.096471 
L 106.004097 27.096471 
L 106.004097 27.273234 
L 105.31977 27.273234 
L 105.31977 27.455354 
L 104.635444 27.455354 
L 104.635444 27.643077 
L 103.951117 27.643077 
L 103.951117 27.836667 
L 103.26679 27.836667 
L 103.26679 28.036402 
L 102.582463 28.036402 
L 102.582463 28.242581 
L 101.898137 28.242581 
L 101.898137 28.455519 
L 101.21381 28.455519 
L 101.21381 28.675556 
L 100.529483 28.675556 
L 100.529483 28.903051 
L 99.845157 28.903051 
L 99.845157 29.138391 
L 99.16083 29.138391 
L 99.16083 29.381988 
L 98.476503 29.381988 
L 98.476503 29.634286 
L 97.792176 29.634286 
L 97.792176 29.895758 
L 97.10785 29.895758 
L 97.10785 30.166914 
L 96.423523 30.166914 
L 96.423523 26.64956 
L 96.423523 26.868718 
L 95.739196 26.868718 
L 95.739196 27.096471 
L 95.05487 27.096471 
L 95.05487 27.333333 
L 94.370543 27.333333 
L 94.370543 27.579864 
L 93.686216 27.579864 
L 93.686216 27.836667 
L 93.001889 27.836667 
L 93.001889 28.104397 
L 92.317563 28.104397 
L 92.317563 28.383768 
L 91.633236 28.383768 
L 91.633236 28.675556 
L 90.948909 28.675556 
L 90.948909 28.980606 
L 90.264583 28.980606 
L 90.264583 29.299845 
L 89.580256 29.299845 
L 89.580256 29.634286 
L 88.895929 29.634286 
L 88.895929 29.985041 
L 88.211603 29.985041 
L 88.211603 30.353333 
L 87.527276 30.353333 
L 87.527276 30.740513 
L 86.842949 30.740513 
L 86.842949 31.14807 
L 86.158622 31.14807 
L 86.158622 31.577658 
L 85.474296 31.577658 
L 85.474296 32.031111 
L 84.789969 32.031111 
L 84.789969 32.510476 
L 84.105642 32.510476 
L 84.105642 33.018039 
L 83.421316 33.018039 
L 83.421316 33.556364 
L 82.736989 33.556364 
L 82.736989 34.128333 
L 82.052662 34.128333 
L 82.052662 34.737204 
L 81.368335 34.737204 
L 81.368335 35.386667 
L 80.684009 35.386667 
L 80.684009 36.08092 
L 79.999682 36.08092 
L 79.999682 36.824762 
L 79.315355 36.824762 
L 79.315355 37.623704 
L 78.631029 37.623704 
L 78.631029 38.484103 
L 77.946702 38.484103 
L 77.946702 39.413333 
L 77.262375 39.413333 
L 77.262375 40.42 
L 76.578048 40.42 
L 76.578048 41.514203 
L 75.893722 41.514203 
L 75.893722 42.707879 
L 75.209395 42.707879 
L 75.209395 44.015238 
L 74.525068 44.015238 
L 74.525068 45.453333 
L 73.840742 45.453333 
L 73.840742 47.042807 
L 73.156415 47.042807 
L 73.156415 48.808889 
L 72.472088 48.808889 
L 72.472088 38.939608 
L 72.472088 40.42 
L 71.787761 40.42 
L 71.787761 42.097778 
L 71.103435 42.097778 
L 71.103435 29.634286 
L 71.103435 30.740513 
L 70.419108 30.740513 
L 70.419108 32.031111 
L 69.734781 32.031111 
L 69.734781 33.556364 
L 69.050455 33.556364 
L 69.050455 35.386667 
L 68.366128 35.386667 
L 68.366128 37.623704 
L 67.681801 37.623704 
L 67.681801 40.42 
L 66.997474 40.42 
L 66.997474 44.015238 
L 66.313148 44.015238 
L 66.313148 48.808889 
L 65.628821 48.808889 
L 65.628821 55.52 
L 64.944494 55.52 
L 64.944494 65.586667 
L 64.260168 65.586667 
L 64.260168 82.364444 
L 63.575841 82.364444 
L 63.575841 15.253333 
L 63.575841 15.253333 
L 62.207187 15.253333 
L 62.207187 15.253333 
" style="fill:none;stroke:#4c72b0;stroke-linecap:round;stroke-width:1.5;"/>
   </g>
   <g id="patch_3">
    <path d="M 49.807187 224.64 
L 49.807187 7.2 
" style="fill:none;stroke:#ffffff;stroke-linecap:square;stroke-linejoin:miter;stroke-width:1.25;"/>
   </g>
   <g id="patch_4">
    <path d="M 384.607188 224.64 
L 384.607188 7.2 
" style="fill:none;stroke:#ffffff;stroke-linecap:square;stroke-linejoin:miter;stroke-width:1.25;"/>
   </g>
   <g id="patch_5">
    <path d="M 49.807187 224.64 
L 384.607188 224.64 
" style="fill:none;stroke:#ffffff;stroke-linecap:square;stroke-linejoin:miter;stroke-width:1.25;"/>
   </g>
   <g id="patch_6">
    <path d="M 49.807187 7.2 
L 384.607188 7.2 
" style="fill:none;stroke:#ffffff;stroke-linecap:square;stroke-linejoin:miter;stroke-width:1.25;"/>
   </g>
   <g id="text_15">
    <!-- auc=0.91 -->
    <defs>
     <path d="M 8.5 21.578125 
L 8.5 54.6875 
L 17.484375 54.6875 
L 17.484375 21.921875 
Q 17.484375 14.15625 20.5 10.265625 
Q 23.53125 6.390625 29.59375 6.390625 
Q 36.859375 6.390625 41.078125 11.03125 
Q 45.3125 15.671875 45.3125 23.6875 
L 45.3125 54.6875 
L 54.296875 54.6875 
L 54.296875 0 
L 45.3125 0 
L 45.3125 8.40625 
Q 42.046875 3.421875 37.71875 1 
Q 33.40625 -1.421875 27.6875 -1.421875 
Q 18.265625 -1.421875 13.375 4.4375 
Q 8.5 10.296875 8.5 21.578125 
z
M 31.109375 56 
z
" id="DejaVuSans-117"/>
     <path d="M 10.59375 45.40625 
L 73.1875 45.40625 
L 73.1875 37.203125 
L 10.59375 37.203125 
z
M 10.59375 25.484375 
L 73.1875 25.484375 
L 73.1875 17.1875 
L 10.59375 17.1875 
z
" id="DejaVuSans-61"/>
     <path d="M 10.984375 1.515625 
L 10.984375 10.5 
Q 14.703125 8.734375 18.5 7.8125 
Q 22.3125 6.890625 25.984375 6.890625 
Q 35.75 6.890625 40.890625 13.453125 
Q 46.046875 20.015625 46.78125 33.40625 
Q 43.953125 29.203125 39.59375 26.953125 
Q 35.25 24.703125 29.984375 24.703125 
Q 19.046875 24.703125 12.671875 31.3125 
Q 6.296875 37.9375 6.296875 49.421875 
Q 6.296875 60.640625 12.9375 67.421875 
Q 19.578125 74.21875 30.609375 74.21875 
Q 43.265625 74.21875 49.921875 64.515625 
Q 56.59375 54.828125 56.59375 36.375 
Q 56.59375 19.140625 48.40625 8.859375 
Q 40.234375 -1.421875 26.421875 -1.421875 
Q 22.703125 -1.421875 18.890625 -0.6875 
Q 15.09375 0.046875 10.984375 1.515625 
z
M 30.609375 32.421875 
Q 37.25 32.421875 41.125 36.953125 
Q 45.015625 41.5 45.015625 49.421875 
Q 45.015625 57.28125 41.125 61.84375 
Q 37.25 66.40625 30.609375 66.40625 
Q 23.96875 66.40625 20.09375 61.84375 
Q 16.21875 57.28125 16.21875 49.421875 
Q 16.21875 41.5 20.09375 36.953125 
Q 23.96875 32.421875 30.609375 32.421875 
z
" id="DejaVuSans-57"/>
    </defs>
    <g style="fill:#262626;" transform="translate(313.875937 214.091042)scale(0.12 -0.12)">
     <use xlink:href="#DejaVuSans-97"/>
     <use x="61.279297" xlink:href="#DejaVuSans-117"/>
     <use x="124.658203" xlink:href="#DejaVuSans-99"/>
     <use x="179.638672" xlink:href="#DejaVuSans-61"/>
     <use x="263.427734" xlink:href="#DejaVuSans-48"/>
     <use x="327.050781" xlink:href="#DejaVuSans-46"/>
     <use x="358.837891" xlink:href="#DejaVuSans-57"/>
     <use x="422.460938" xlink:href="#DejaVuSans-49"/>
    </g>
   </g>
   <g id="legend_1">
    <g id="patch_7">
     <path d="M 403.547188 42.791875 
L 515.200625 42.791875 
Q 517.400625 42.791875 517.400625 40.591875 
L 517.400625 9.4 
Q 517.400625 7.2 515.200625 7.2 
L 403.547188 7.2 
Q 401.347188 7.2 401.347188 9.4 
L 401.347188 40.591875 
Q 401.347188 42.791875 403.547188 42.791875 
z
" style="fill:#eaeaf2;opacity:0.8;stroke:#cccccc;stroke-linejoin:miter;"/>
    </g>
    <g id="PathCollection_4">
     <defs>
      <path id="mf8a6efbdc7" style="stroke:#ffffff;stroke-width:1.5;"/>
     </defs>
     <g>
      <use style="fill:#ffffff;stroke:#ffffff;stroke-width:1.5;" x="416.747187" xlink:href="#mf8a6efbdc7" y="17.070781"/>
     </g>
    </g>
    <g id="text_16">
     <!-- name -->
     <defs>
      <path d="M 52 44.1875 
Q 55.375 50.25 60.0625 53.125 
Q 64.75 56 71.09375 56 
Q 79.640625 56 84.28125 50.015625 
Q 88.921875 44.046875 88.921875 33.015625 
L 88.921875 0 
L 79.890625 0 
L 79.890625 32.71875 
Q 79.890625 40.578125 77.09375 44.375 
Q 74.3125 48.1875 68.609375 48.1875 
Q 61.625 48.1875 57.5625 43.546875 
Q 53.515625 38.921875 53.515625 30.90625 
L 53.515625 0 
L 44.484375 0 
L 44.484375 32.71875 
Q 44.484375 40.625 41.703125 44.40625 
Q 38.921875 48.1875 33.109375 48.1875 
Q 26.21875 48.1875 22.15625 43.53125 
Q 18.109375 38.875 18.109375 30.90625 
L 18.109375 0 
L 9.078125 0 
L 9.078125 54.6875 
L 18.109375 54.6875 
L 18.109375 46.1875 
Q 21.1875 51.21875 25.484375 53.609375 
Q 29.78125 56 35.6875 56 
Q 41.65625 56 45.828125 52.96875 
Q 50 49.953125 52 44.1875 
z
" id="DejaVuSans-109"/>
     </defs>
     <g style="fill:#262626;" transform="translate(436.547188 19.958281)scale(0.11 -0.11)">
      <use xlink:href="#DejaVuSans-110"/>
      <use x="63.378906" xlink:href="#DejaVuSans-97"/>
      <use x="124.658203" xlink:href="#DejaVuSans-109"/>
      <use x="222.070312" xlink:href="#DejaVuSans-101"/>
     </g>
    </g>
    <g id="PathCollection_5">
     <defs>
      <path d="M 0 3 
C 0.795609 3 1.55874 2.683901 2.12132 2.12132 
C 2.683901 1.55874 3 0.795609 3 0 
C 3 -0.795609 2.683901 -1.55874 2.12132 -2.12132 
C 1.55874 -2.683901 0.795609 -3 0 -3 
C -0.795609 -3 -1.55874 -2.683901 -2.12132 -2.12132 
C -2.683901 -1.55874 -3 -0.795609 -3 0 
C -3 0.795609 -2.683901 1.55874 -2.12132 2.12132 
C -1.55874 2.683901 -0.795609 3 0 3 
z
" id="m1b8bbfaa00" style="stroke:#4c72b0;"/>
     </defs>
     <g>
      <use style="fill:#4c72b0;stroke:#4c72b0;" x="416.747187" xlink:href="#m1b8bbfaa00" y="33.216719"/>
     </g>
    </g>
    <g id="text_17">
     <!-- model default -->
     <defs>
      <path d="M 45.40625 46.390625 
L 45.40625 75.984375 
L 54.390625 75.984375 
L 54.390625 0 
L 45.40625 0 
L 45.40625 8.203125 
Q 42.578125 3.328125 38.25 0.953125 
Q 33.9375 -1.421875 27.875 -1.421875 
Q 17.96875 -1.421875 11.734375 6.484375 
Q 5.515625 14.40625 5.515625 27.296875 
Q 5.515625 40.1875 11.734375 48.09375 
Q 17.96875 56 27.875 56 
Q 33.9375 56 38.25 53.625 
Q 42.578125 51.265625 45.40625 46.390625 
z
M 14.796875 27.296875 
Q 14.796875 17.390625 18.875 11.75 
Q 22.953125 6.109375 30.078125 6.109375 
Q 37.203125 6.109375 41.296875 11.75 
Q 45.40625 17.390625 45.40625 27.296875 
Q 45.40625 37.203125 41.296875 42.84375 
Q 37.203125 48.484375 30.078125 48.484375 
Q 22.953125 48.484375 18.875 42.84375 
Q 14.796875 37.203125 14.796875 27.296875 
z
" id="DejaVuSans-100"/>
      <path id="DejaVuSans-32"/>
      <path d="M 37.109375 75.984375 
L 37.109375 68.5 
L 28.515625 68.5 
Q 23.6875 68.5 21.796875 66.546875 
Q 19.921875 64.59375 19.921875 59.515625 
L 19.921875 54.6875 
L 34.71875 54.6875 
L 34.71875 47.703125 
L 19.921875 47.703125 
L 19.921875 0 
L 10.890625 0 
L 10.890625 47.703125 
L 2.296875 47.703125 
L 2.296875 54.6875 
L 10.890625 54.6875 
L 10.890625 58.5 
Q 10.890625 67.625 15.140625 71.796875 
Q 19.390625 75.984375 28.609375 75.984375 
z
" id="DejaVuSans-102"/>
      <path d="M 18.3125 70.21875 
L 18.3125 54.6875 
L 36.8125 54.6875 
L 36.8125 47.703125 
L 18.3125 47.703125 
L 18.3125 18.015625 
Q 18.3125 11.328125 20.140625 9.421875 
Q 21.96875 7.515625 27.59375 7.515625 
L 36.8125 7.515625 
L 36.8125 0 
L 27.59375 0 
Q 17.1875 0 13.234375 3.875 
Q 9.28125 7.765625 9.28125 18.015625 
L 9.28125 47.703125 
L 2.6875 47.703125 
L 2.6875 54.6875 
L 9.28125 54.6875 
L 9.28125 70.21875 
z
" id="DejaVuSans-116"/>
     </defs>
     <g style="fill:#262626;" transform="translate(436.547188 36.104219)scale(0.11 -0.11)">
      <use xlink:href="#DejaVuSans-109"/>
      <use x="97.412109" xlink:href="#DejaVuSans-111"/>
      <use x="158.59375" xlink:href="#DejaVuSans-100"/>
      <use x="222.070312" xlink:href="#DejaVuSans-101"/>
      <use x="283.59375" xlink:href="#DejaVuSans-108"/>
      <use x="311.376953" xlink:href="#DejaVuSans-32"/>
      <use x="343.164062" xlink:href="#DejaVuSans-100"/>
      <use x="406.640625" xlink:href="#DejaVuSans-101"/>
      <use x="468.164062" xlink:href="#DejaVuSans-102"/>
      <use x="503.369141" xlink:href="#DejaVuSans-97"/>
      <use x="564.648438" xlink:href="#DejaVuSans-117"/>
      <use x="628.027344" xlink:href="#DejaVuSans-108"/>
      <use x="655.810547" xlink:href="#DejaVuSans-116"/>
     </g>
    </g>
   </g>
  </g>
 </g>
 <defs>
  <clipPath id="p63bfb4f667">
   <rect height="217.44" width="334.8" x="49.807187" y="7.2"/>
  </clipPath>
 </defs>
</svg>
