<?xml version="1.0" encoding="utf-8" standalone="no"?>
<!DOCTYPE svg PUBLIC "-//W3C//DTD SVG 1.1//EN"
  "http://www.w3.org/Graphics/SVG/1.1/DTD/svg11.dtd">
<!-- Created with matplotlib (https://matplotlib.org/) -->
<svg height="267.599687pt" version="1.1" viewBox="0 0 524.600625 267.599687" width="524.600625pt" xmlns="http://www.w3.org/2000/svg" xmlns:xlink="http://www.w3.org/1999/xlink">
 <defs>
  <style type="text/css">
*{stroke-linecap:butt;stroke-linejoin:round;}
  </style>
 </defs>
 <g id="figure_1">
  <g id="patch_1">
   <path d="M 0 267.599687 
L 524.600625 267.599687 
L 524.600625 0 
L 0 0 
z
" style="fill:#ffffff;"/>
  </g>
  <g id="axes_1">
   <g id="patch_2">
    <path d="M 49.807187 224.64 
L 384.607188 224.64 
L 384.607188 7.2 
L 49.807187 7.2 
z
" style="fill:#eaeaf2;"/>
   </g>
   <g id="matplotlib.axis_1">
    <g id="xtick_1">
     <g id="line2d_1">
      <path clip-path="url(#pec425ec7f6)" d="M 62.207187 224.64 
L 62.207187 7.2 
" style="fill:none;stroke:#ffffff;stroke-linecap:round;"/>
     </g>
     <g id="text_1">
      <!-- 0.0 -->
      <defs>
       <path d="M 31.78125 66.40625 
Q 24.171875 66.40625 20.328125 58.90625 
Q 16.5 51.421875 16.5 36.375 
Q 16.5 21.390625 20.328125 13.890625 
Q 24.171875 6.390625 31.78125 6.390625 
Q 39.453125 6.390625 43.28125 13.890625 
Q 47.125 21.390625 47.125 36.375 
Q 47.125 51.421875 43.28125 58.90625 
Q 39.453125 66.40625 31.78125 66.40625 
z
M 31.78125 74.21875 
Q 44.046875 74.21875 50.515625 64.515625 
Q 56.984375 54.828125 56.984375 36.375 
Q 56.984375 17.96875 50.515625 8.265625 
Q 44.046875 -1.421875 31.78125 -1.421875 
Q 19.53125 -1.421875 13.0625 8.265625 
Q 6.59375 17.96875 6.59375 36.375 
Q 6.59375 54.828125 13.0625 64.515625 
Q 19.53125 74.21875 31.78125 74.21875 
z
" id="DejaVuSans-48"/>
       <path d="M 10.6875 12.40625 
L 21 12.40625 
L 21 0 
L 10.6875 0 
z
" id="DejaVuSans-46"/>
      </defs>
      <g style="fill:#262626;" transform="translate(53.460469 242.498281)scale(0.11 -0.11)">
       <use xlink:href="#DejaVuSans-48"/>
       <use x="63.623047" xlink:href="#DejaVuSans-46"/>
       <use x="95.410156" xlink:href="#DejaVuSans-48"/>
      </g>
     </g>
    </g>
    <g id="xtick_2">
     <g id="line2d_2">
      <path clip-path="url(#pec425ec7f6)" d="M 124.207188 224.64 
L 124.207188 7.2 
" style="fill:none;stroke:#ffffff;stroke-linecap:round;"/>
     </g>
     <g id="text_2">
      <!-- 0.2 -->
      <defs>
       <path d="M 19.1875 8.296875 
L 53.609375 8.296875 
L 53.609375 0 
L 7.328125 0 
L 7.328125 8.296875 
Q 12.9375 14.109375 22.625 23.890625 
Q 32.328125 33.6875 34.8125 36.53125 
Q 39.546875 41.84375 41.421875 45.53125 
Q 43.3125 49.21875 43.3125 52.78125 
Q 43.3125 58.59375 39.234375 62.25 
Q 35.15625 65.921875 28.609375 65.921875 
Q 23.96875 65.921875 18.8125 64.3125 
Q 13.671875 62.703125 7.8125 59.421875 
L 7.8125 69.390625 
Q 13.765625 71.78125 18.9375 73 
Q 24.125 74.21875 28.421875 74.21875 
Q 39.75 74.21875 46.484375 68.546875 
Q 53.21875 62.890625 53.21875 53.421875 
Q 53.21875 48.921875 51.53125 44.890625 
Q 49.859375 40.875 45.40625 35.40625 
Q 44.1875 33.984375 37.640625 27.21875 
Q 31.109375 20.453125 19.1875 8.296875 
z
" id="DejaVuSans-50"/>
      </defs>
      <g style="fill:#262626;" transform="translate(115.460469 242.498281)scale(0.11 -0.11)">
       <use xlink:href="#DejaVuSans-48"/>
       <use x="63.623047" xlink:href="#DejaVuSans-46"/>
       <use x="95.410156" xlink:href="#DejaVuSans-50"/>
      </g>
     </g>
    </g>
    <g id="xtick_3">
     <g id="line2d_3">
      <path clip-path="url(#pec425ec7f6)" d="M 186.207188 224.64 
L 186.207188 7.2 
" style="fill:none;stroke:#ffffff;stroke-linecap:round;"/>
     </g>
     <g id="text_3">
      <!-- 0.4 -->
      <defs>
       <path d="M 37.796875 64.3125 
L 12.890625 25.390625 
L 37.796875 25.390625 
z
M 35.203125 72.90625 
L 47.609375 72.90625 
L 47.609375 25.390625 
L 58.015625 25.390625 
L 58.015625 17.1875 
L 47.609375 17.1875 
L 47.609375 0 
L 37.796875 0 
L 37.796875 17.1875 
L 4.890625 17.1875 
L 4.890625 26.703125 
z
" id="DejaVuSans-52"/>
      </defs>
      <g style="fill:#262626;" transform="translate(177.460469 242.498281)scale(0.11 -0.11)">
       <use xlink:href="#DejaVuSans-48"/>
       <use x="63.623047" xlink:href="#DejaVuSans-46"/>
       <use x="95.410156" xlink:href="#DejaVuSans-52"/>
      </g>
     </g>
    </g>
    <g id="xtick_4">
     <g id="line2d_4">
      <path clip-path="url(#pec425ec7f6)" d="M 248.207188 224.64 
L 248.207188 7.2 
" style="fill:none;stroke:#ffffff;stroke-linecap:round;"/>
     </g>
     <g id="text_4">
      <!-- 0.6 -->
      <defs>
       <path d="M 33.015625 40.375 
Q 26.375 40.375 22.484375 35.828125 
Q 18.609375 31.296875 18.609375 23.390625 
Q 18.609375 15.53125 22.484375 10.953125 
Q 26.375 6.390625 33.015625 6.390625 
Q 39.65625 6.390625 43.53125 10.953125 
Q 47.40625 15.53125 47.40625 23.390625 
Q 47.40625 31.296875 43.53125 35.828125 
Q 39.65625 40.375 33.015625 40.375 
z
M 52.59375 71.296875 
L 52.59375 62.3125 
Q 48.875 64.0625 45.09375 64.984375 
Q 41.3125 65.921875 37.59375 65.921875 
Q 27.828125 65.921875 22.671875 59.328125 
Q 17.53125 52.734375 16.796875 39.40625 
Q 19.671875 43.65625 24.015625 45.921875 
Q 28.375 48.1875 33.59375 48.1875 
Q 44.578125 48.1875 50.953125 41.515625 
Q 57.328125 34.859375 57.328125 23.390625 
Q 57.328125 12.15625 50.6875 5.359375 
Q 44.046875 -1.421875 33.015625 -1.421875 
Q 20.359375 -1.421875 13.671875 8.265625 
Q 6.984375 17.96875 6.984375 36.375 
Q 6.984375 53.65625 15.1875 63.9375 
Q 23.390625 74.21875 37.203125 74.21875 
Q 40.921875 74.21875 44.703125 73.484375 
Q 48.484375 72.75 52.59375 71.296875 
z
" id="DejaVuSans-54"/>
      </defs>
      <g style="fill:#262626;" transform="translate(239.460469 242.498281)scale(0.11 -0.11)">
       <use xlink:href="#DejaVuSans-48"/>
       <use x="63.623047" xlink:href="#DejaVuSans-46"/>
       <use x="95.410156" xlink:href="#DejaVuSans-54"/>
      </g>
     </g>
    </g>
    <g id="xtick_5">
     <g id="line2d_5">
      <path clip-path="url(#pec425ec7f6)" d="M 310.207187 224.64 
L 310.207187 7.2 
" style="fill:none;stroke:#ffffff;stroke-linecap:round;"/>
     </g>
     <g id="text_5">
      <!-- 0.8 -->
      <defs>
       <path d="M 31.78125 34.625 
Q 24.75 34.625 20.71875 30.859375 
Q 16.703125 27.09375 16.703125 20.515625 
Q 16.703125 13.921875 20.71875 10.15625 
Q 24.75 6.390625 31.78125 6.390625 
Q 38.8125 6.390625 42.859375 10.171875 
Q 46.921875 13.96875 46.921875 20.515625 
Q 46.921875 27.09375 42.890625 30.859375 
Q 38.875 34.625 31.78125 34.625 
z
M 21.921875 38.8125 
Q 15.578125 40.375 12.03125 44.71875 
Q 8.5 49.078125 8.5 55.328125 
Q 8.5 64.0625 14.71875 69.140625 
Q 20.953125 74.21875 31.78125 74.21875 
Q 42.671875 74.21875 48.875 69.140625 
Q 55.078125 64.0625 55.078125 55.328125 
Q 55.078125 49.078125 51.53125 44.71875 
Q 48 40.375 41.703125 38.8125 
Q 48.828125 37.15625 52.796875 32.3125 
Q 56.78125 27.484375 56.78125 20.515625 
Q 56.78125 9.90625 50.3125 4.234375 
Q 43.84375 -1.421875 31.78125 -1.421875 
Q 19.734375 -1.421875 13.25 4.234375 
Q 6.78125 9.90625 6.78125 20.515625 
Q 6.78125 27.484375 10.78125 32.3125 
Q 14.796875 37.15625 21.921875 38.8125 
z
M 18.3125 54.390625 
Q 18.3125 48.734375 21.84375 45.5625 
Q 25.390625 42.390625 31.78125 42.390625 
Q 38.140625 42.390625 41.71875 45.5625 
Q 45.3125 48.734375 45.3125 54.390625 
Q 45.3125 60.0625 41.71875 63.234375 
Q 38.140625 66.40625 31.78125 66.40625 
Q 25.390625 66.40625 21.84375 63.234375 
Q 18.3125 60.0625 18.3125 54.390625 
z
" id="DejaVuSans-56"/>
      </defs>
      <g style="fill:#262626;" transform="translate(301.460469 242.498281)scale(0.11 -0.11)">
       <use xlink:href="#DejaVuSans-48"/>
       <use x="63.623047" xlink:href="#DejaVuSans-46"/>
       <use x="95.410156" xlink:href="#DejaVuSans-56"/>
      </g>
     </g>
    </g>
    <g id="xtick_6">
     <g id="line2d_6">
      <path clip-path="url(#pec425ec7f6)" d="M 372.207188 224.64 
L 372.207188 7.2 
" style="fill:none;stroke:#ffffff;stroke-linecap:round;"/>
     </g>
     <g id="text_6">
      <!-- 1.0 -->
      <defs>
       <path d="M 12.40625 8.296875 
L 28.515625 8.296875 
L 28.515625 63.921875 
L 10.984375 60.40625 
L 10.984375 69.390625 
L 28.421875 72.90625 
L 38.28125 72.90625 
L 38.28125 8.296875 
L 54.390625 8.296875 
L 54.390625 0 
L 12.40625 0 
z
" id="DejaVuSans-49"/>
      </defs>
      <g style="fill:#262626;" transform="translate(363.460469 242.498281)scale(0.11 -0.11)">
       <use xlink:href="#DejaVuSans-49"/>
       <use x="63.623047" xlink:href="#DejaVuSans-46"/>
       <use x="95.410156" xlink:href="#DejaVuSans-48"/>
      </g>
     </g>
    </g>
    <g id="text_7">
     <!-- recall -->
     <defs>
      <path d="M 41.109375 46.296875 
Q 39.59375 47.171875 37.8125 47.578125 
Q 36.03125 48 33.890625 48 
Q 26.265625 48 22.1875 43.046875 
Q 18.109375 38.09375 18.109375 28.8125 
L 18.109375 0 
L 9.078125 0 
L 9.078125 54.6875 
L 18.109375 54.6875 
L 18.109375 46.1875 
Q 20.953125 51.171875 25.484375 53.578125 
Q 30.03125 56 36.53125 56 
Q 37.453125 56 38.578125 55.875 
Q 39.703125 55.765625 41.0625 55.515625 
z
" id="DejaVuSans-114"/>
      <path d="M 56.203125 29.59375 
L 56.203125 25.203125 
L 14.890625 25.203125 
Q 15.484375 15.921875 20.484375 11.0625 
Q 25.484375 6.203125 34.421875 6.203125 
Q 39.59375 6.203125 44.453125 7.46875 
Q 49.3125 8.734375 54.109375 11.28125 
L 54.109375 2.78125 
Q 49.265625 0.734375 44.1875 -0.34375 
Q 39.109375 -1.421875 33.890625 -1.421875 
Q 20.796875 -1.421875 13.15625 6.1875 
Q 5.515625 13.8125 5.515625 26.8125 
Q 5.515625 40.234375 12.765625 48.109375 
Q 20.015625 56 32.328125 56 
Q 43.359375 56 49.78125 48.890625 
Q 56.203125 41.796875 56.203125 29.59375 
z
M 47.21875 32.234375 
Q 47.125 39.59375 43.09375 43.984375 
Q 39.0625 48.390625 32.421875 48.390625 
Q 24.90625 48.390625 20.390625 44.140625 
Q 15.875 39.890625 15.1875 32.171875 
z
" id="DejaVuSans-101"/>
      <path d="M 48.78125 52.59375 
L 48.78125 44.1875 
Q 44.96875 46.296875 41.140625 47.34375 
Q 37.3125 48.390625 33.40625 48.390625 
Q 24.65625 48.390625 19.8125 42.84375 
Q 14.984375 37.3125 14.984375 27.296875 
Q 14.984375 17.28125 19.8125 11.734375 
Q 24.65625 6.203125 33.40625 6.203125 
Q 37.3125 6.203125 41.140625 7.25 
Q 44.96875 8.296875 48.78125 10.40625 
L 48.78125 2.09375 
Q 45.015625 0.34375 40.984375 -0.53125 
Q 36.96875 -1.421875 32.421875 -1.421875 
Q 20.0625 -1.421875 12.78125 6.34375 
Q 5.515625 14.109375 5.515625 27.296875 
Q 5.515625 40.671875 12.859375 48.328125 
Q 20.21875 56 33.015625 56 
Q 37.15625 56 41.109375 55.140625 
Q 45.0625 54.296875 48.78125 52.59375 
z
" id="DejaVuSans-99"/>
      <path d="M 34.28125 27.484375 
Q 23.390625 27.484375 19.1875 25 
Q 14.984375 22.515625 14.984375 16.5 
Q 14.984375 11.71875 18.140625 8.90625 
Q 21.296875 6.109375 26.703125 6.109375 
Q 34.1875 6.109375 38.703125 11.40625 
Q 43.21875 16.703125 43.21875 25.484375 
L 43.21875 27.484375 
z
M 52.203125 31.203125 
L 52.203125 0 
L 43.21875 0 
L 43.21875 8.296875 
Q 40.140625 3.328125 35.546875 0.953125 
Q 30.953125 -1.421875 24.3125 -1.421875 
Q 15.921875 -1.421875 10.953125 3.296875 
Q 6 8.015625 6 15.921875 
Q 6 25.140625 12.171875 29.828125 
Q 18.359375 34.515625 30.609375 34.515625 
L 43.21875 34.515625 
L 43.21875 35.40625 
Q 43.21875 41.609375 39.140625 45 
Q 35.0625 48.390625 27.6875 48.390625 
Q 23 48.390625 18.546875 47.265625 
Q 14.109375 46.140625 10.015625 43.890625 
L 10.015625 52.203125 
Q 14.9375 54.109375 19.578125 55.046875 
Q 24.21875 56 28.609375 56 
Q 40.484375 56 46.34375 49.84375 
Q 52.203125 43.703125 52.203125 31.203125 
z
" id="DejaVuSans-97"/>
      <path d="M 9.421875 75.984375 
L 18.40625 75.984375 
L 18.40625 0 
L 9.421875 0 
z
" id="DejaVuSans-108"/>
     </defs>
     <g style="fill:#262626;" transform="translate(200.874063 257.904062)scale(0.12 -0.12)">
      <use xlink:href="#DejaVuSans-114"/>
      <use x="38.863281" xlink:href="#DejaVuSans-101"/>
      <use x="100.386719" xlink:href="#DejaVuSans-99"/>
      <use x="155.367188" xlink:href="#DejaVuSans-97"/>
      <use x="216.646484" xlink:href="#DejaVuSans-108"/>
      <use x="244.429688" xlink:href="#DejaVuSans-108"/>
     </g>
    </g>
   </g>
   <g id="matplotlib.axis_2">
    <g id="ytick_1">
     <g id="line2d_7">
      <path clip-path="url(#pec425ec7f6)" d="M 49.807187 216.586667 
L 384.607188 216.586667 
" style="fill:none;stroke:#ffffff;stroke-linecap:round;"/>
     </g>
     <g id="text_8">
      <!-- 0.0 -->
      <g style="fill:#262626;" transform="translate(22.81375 220.765807)scale(0.11 -0.11)">
       <use xlink:href="#DejaVuSans-48"/>
       <use x="63.623047" xlink:href="#DejaVuSans-46"/>
       <use x="95.410156" xlink:href="#DejaVuSans-48"/>
      </g>
     </g>
    </g>
    <g id="ytick_2">
     <g id="line2d_8">
      <path clip-path="url(#pec425ec7f6)" d="M 49.807187 176.32 
L 384.607188 176.32 
" style="fill:none;stroke:#ffffff;stroke-linecap:round;"/>
     </g>
     <g id="text_9">
      <!-- 0.2 -->
      <g style="fill:#262626;" transform="translate(22.81375 180.499141)scale(0.11 -0.11)">
       <use xlink:href="#DejaVuSans-48"/>
       <use x="63.623047" xlink:href="#DejaVuSans-46"/>
       <use x="95.410156" xlink:href="#DejaVuSans-50"/>
      </g>
     </g>
    </g>
    <g id="ytick_3">
     <g id="line2d_9">
      <path clip-path="url(#pec425ec7f6)" d="M 49.807187 136.053333 
L 384.607188 136.053333 
" style="fill:none;stroke:#ffffff;stroke-linecap:round;"/>
     </g>
     <g id="text_10">
      <!-- 0.4 -->
      <g style="fill:#262626;" transform="translate(22.81375 140.232474)scale(0.11 -0.11)">
       <use xlink:href="#DejaVuSans-48"/>
       <use x="63.623047" xlink:href="#DejaVuSans-46"/>
       <use x="95.410156" xlink:href="#DejaVuSans-52"/>
      </g>
     </g>
    </g>
    <g id="ytick_4">
     <g id="line2d_10">
      <path clip-path="url(#pec425ec7f6)" d="M 49.807187 95.786667 
L 384.607188 95.786667 
" style="fill:none;stroke:#ffffff;stroke-linecap:round;"/>
     </g>
     <g id="text_11">
      <!-- 0.6 -->
      <g style="fill:#262626;" transform="translate(22.81375 99.965807)scale(0.11 -0.11)">
       <use xlink:href="#DejaVuSans-48"/>
       <use x="63.623047" xlink:href="#DejaVuSans-46"/>
       <use x="95.410156" xlink:href="#DejaVuSans-54"/>
      </g>
     </g>
    </g>
    <g id="ytick_5">
     <g id="line2d_11">
      <path clip-path="url(#pec425ec7f6)" d="M 49.807187 55.52 
L 384.607188 55.52 
" style="fill:none;stroke:#ffffff;stroke-linecap:round;"/>
     </g>
     <g id="text_12">
      <!-- 0.8 -->
      <g style="fill:#262626;" transform="translate(22.81375 59.699141)scale(0.11 -0.11)">
       <use xlink:href="#DejaVuSans-48"/>
       <use x="63.623047" xlink:href="#DejaVuSans-46"/>
       <use x="95.410156" xlink:href="#DejaVuSans-56"/>
      </g>
     </g>
    </g>
    <g id="ytick_6">
     <g id="line2d_12">
      <path clip-path="url(#pec425ec7f6)" d="M 49.807187 15.253333 
L 384.607188 15.253333 
" style="fill:none;stroke:#ffffff;stroke-linecap:round;"/>
     </g>
     <g id="text_13">
      <!-- 1.0 -->
      <g style="fill:#262626;" transform="translate(22.81375 19.432474)scale(0.11 -0.11)">
       <use xlink:href="#DejaVuSans-49"/>
       <use x="63.623047" xlink:href="#DejaVuSans-46"/>
       <use x="95.410156" xlink:href="#DejaVuSans-48"/>
      </g>
     </g>
    </g>
    <g id="text_14">
     <!-- precision -->
     <defs>
      <path d="M 18.109375 8.203125 
L 18.109375 -20.796875 
L 9.078125 -20.796875 
L 9.078125 54.6875 
L 18.109375 54.6875 
L 18.109375 46.390625 
Q 20.953125 51.265625 25.265625 53.625 
Q 29.59375 56 35.59375 56 
Q 45.5625 56 51.78125 48.09375 
Q 58.015625 40.1875 58.015625 27.296875 
Q 58.015625 14.40625 51.78125 6.484375 
Q 45.5625 -1.421875 35.59375 -1.421875 
Q 29.59375 -1.421875 25.265625 0.953125 
Q 20.953125 3.328125 18.109375 8.203125 
z
M 48.6875 27.296875 
Q 48.6875 37.203125 44.609375 42.84375 
Q 40.53125 48.484375 33.40625 48.484375 
Q 26.265625 48.484375 22.1875 42.84375 
Q 18.109375 37.203125 18.109375 27.296875 
Q 18.109375 17.390625 22.1875 11.75 
Q 26.265625 6.109375 33.40625 6.109375 
Q 40.53125 6.109375 44.609375 11.75 
Q 48.6875 17.390625 48.6875 27.296875 
z
" id="DejaVuSans-112"/>
      <path d="M 9.421875 54.6875 
L 18.40625 54.6875 
L 18.40625 0 
L 9.421875 0 
z
M 9.421875 75.984375 
L 18.40625 75.984375 
L 18.40625 64.59375 
L 9.421875 64.59375 
z
" id="DejaVuSans-105"/>
      <path d="M 44.28125 53.078125 
L 44.28125 44.578125 
Q 40.484375 46.53125 36.375 47.5 
Q 32.28125 48.484375 27.875 48.484375 
Q 21.1875 48.484375 17.84375 46.4375 
Q 14.5 44.390625 14.5 40.28125 
Q 14.5 37.15625 16.890625 35.375 
Q 19.28125 33.59375 26.515625 31.984375 
L 29.59375 31.296875 
Q 39.15625 29.25 43.1875 25.515625 
Q 47.21875 21.78125 47.21875 15.09375 
Q 47.21875 7.46875 41.1875 3.015625 
Q 35.15625 -1.421875 24.609375 -1.421875 
Q 20.21875 -1.421875 15.453125 -0.5625 
Q 10.6875 0.296875 5.421875 2 
L 5.421875 11.28125 
Q 10.40625 8.6875 15.234375 7.390625 
Q 20.0625 6.109375 24.8125 6.109375 
Q 31.15625 6.109375 34.5625 8.28125 
Q 37.984375 10.453125 37.984375 14.40625 
Q 37.984375 18.0625 35.515625 20.015625 
Q 33.0625 21.96875 24.703125 23.78125 
L 21.578125 24.515625 
Q 13.234375 26.265625 9.515625 29.90625 
Q 5.8125 33.546875 5.8125 39.890625 
Q 5.8125 47.609375 11.28125 51.796875 
Q 16.75 56 26.8125 56 
Q 31.78125 56 36.171875 55.265625 
Q 40.578125 54.546875 44.28125 53.078125 
z
" id="DejaVuSans-115"/>
      <path d="M 30.609375 48.390625 
Q 23.390625 48.390625 19.1875 42.75 
Q 14.984375 37.109375 14.984375 27.296875 
Q 14.984375 17.484375 19.15625 11.84375 
Q 23.34375 6.203125 30.609375 6.203125 
Q 37.796875 6.203125 41.984375 11.859375 
Q 46.1875 17.53125 46.1875 27.296875 
Q 46.1875 37.015625 41.984375 42.703125 
Q 37.796875 48.390625 30.609375 48.390625 
z
M 30.609375 56 
Q 42.328125 56 49.015625 48.375 
Q 55.71875 40.765625 55.71875 27.296875 
Q 55.71875 13.875 49.015625 6.21875 
Q 42.328125 -1.421875 30.609375 -1.421875 
Q 18.84375 -1.421875 12.171875 6.21875 
Q 5.515625 13.875 5.515625 27.296875 
Q 5.515625 40.765625 12.171875 48.375 
Q 18.84375 56 30.609375 56 
z
" id="DejaVuSans-111"/>
      <path d="M 54.890625 33.015625 
L 54.890625 0 
L 45.90625 0 
L 45.90625 32.71875 
Q 45.90625 40.484375 42.875 44.328125 
Q 39.84375 48.1875 33.796875 48.1875 
Q 26.515625 48.1875 22.3125 43.546875 
Q 18.109375 38.921875 18.109375 30.90625 
L 18.109375 0 
L 9.078125 0 
L 9.078125 54.6875 
L 18.109375 54.6875 
L 18.109375 46.1875 
Q 21.34375 51.125 25.703125 53.5625 
Q 30.078125 56 35.796875 56 
Q 45.21875 56 50.046875 50.171875 
Q 54.890625 44.34375 54.890625 33.015625 
z
" id="DejaVuSans-110"/>
     </defs>
     <g style="fill:#262626;" transform="translate(16.318125 142.984687)rotate(-90)scale(0.12 -0.12)">
      <use xlink:href="#DejaVuSans-112"/>
      <use x="63.476562" xlink:href="#DejaVuSans-114"/>
      <use x="102.339844" xlink:href="#DejaVuSans-101"/>
      <use x="163.863281" xlink:href="#DejaVuSans-99"/>
      <use x="218.84375" xlink:href="#DejaVuSans-105"/>
      <use x="246.626953" xlink:href="#DejaVuSans-115"/>
      <use x="298.726562" xlink:href="#DejaVuSans-105"/>
      <use x="326.509766" xlink:href="#DejaVuSans-111"/>
      <use x="387.691406" xlink:href="#DejaVuSans-110"/>
     </g>
    </g>
   </g>
   <g id="PathCollection_1">
    <defs>
     <path d="M 0 3 
C 0.795609 3 1.55874 2.683901 2.12132 2.12132 
C 2.683901 1.55874 3 0.795609 3 0 
C 3 -0.795609 2.683901 -1.55874 2.12132 -2.12132 
C 1.55874 -2.683901 0.795609 -3 0 -3 
C -0.795609 -3 -1.55874 -2.683901 -2.12132 -2.12132 
C -2.683901 -1.55874 -3 -0.795609 -3 0 
C -3 0.795609 -2.683901 1.55874 -2.12132 2.12132 
C -1.55874 2.683901 -0.795609 3 0 3 
z
" id="m731607fd8f" style="stroke:#ffffff;stroke-width:0.75;"/>
    </defs>
    <g clip-path="url(#pec425ec7f6)">
     <use style="fill:#4c72b0;stroke:#ffffff;stroke-width:0.75;" x="316.092397" xlink:href="#m731607fd8f" y="31.240099"/>
    </g>
   </g>
   <g id="PathCollection_2"/>
   <g id="PathCollection_3"/>
   <g id="line2d_13">
    <path clip-path="url(#pec425ec7f6)" d="M 372.207187 71.357367 
L 372.207187 71.446847 
L 371.522861 71.446847 
L 371.522861 69.57105 
L 371.522861 69.658943 
L 370.838534 69.658943 
L 370.838534 68.942222 
L 370.838534 69.029663 
L 370.154207 69.029663 
L 370.154207 67.328018 
L 370.154207 67.413949 
L 369.469881 67.413949 
L 369.469881 66.671797 
L 369.469881 66.757209 
L 368.785554 66.757209 
L 368.785554 64.739304 
L 368.785554 64.822754 
L 368.101227 64.822754 
L 368.101227 64.051073 
L 368.101227 64.133922 
L 367.416901 64.133922 
L 367.416901 59.328056 
L 367.416901 59.40538 
L 366.732574 59.40538 
L 366.732574 58.851925 
L 366.732574 58.928818 
L 366.048247 58.928818 
L 366.048247 57.526168 
L 366.048247 57.601521 
L 365.36392 57.601521 
L 365.36392 53.532431 
L 365.36392 53.60254 
L 364.679594 53.60254 
L 364.679594 53.003333 
L 364.679594 53.072855 
L 363.31094 53.142632 
L 363.31094 51.620807 
L 363.31094 51.688657 
L 361.942287 51.75676 
L 361.942287 50.201761 
L 361.942287 50.267826 
L 361.25796 50.267826 
L 361.25796 47.713986 
L 361.25796 47.77641 
L 360.573633 47.77641 
L 360.573633 46.796854 
L 360.573633 46.857984 
L 359.20498 46.919353 
L 359.20498 46.589261 
L 359.20498 46.650344 
L 357.836327 46.711667 
L 357.836327 45.036371 
L 357.836327 45.095231 
L 357.152 45.095231 
L 357.152 43.728765 
L 357.152 43.785602 
L 355.783346 43.842667 
L 355.783346 43.496486 
L 355.783346 43.553199 
L 354.414693 43.610141 
L 354.414693 43.667312 
L 353.04604 43.724714 
L 353.04604 43.023448 
L 353.04604 43.079892 
L 352.361713 43.079892 
L 352.361713 42.726517 
L 352.361713 42.782585 
L 351.677386 42.782585 
L 351.677386 41.711923 
L 351.677386 41.766365 
L 350.993059 41.766365 
L 350.993059 41.405911 
L 350.993059 41.459945 
L 350.308733 41.459945 
L 350.308733 41.097364 
L 350.308733 41.150982 
L 349.624406 41.150982 
L 349.624406 40.786251 
L 349.624406 40.839444 
L 348.940079 40.839444 
L 348.940079 40.47254 
L 348.940079 40.5253 
L 348.255753 40.5253 
L 348.255753 39.785546 
L 348.255753 39.837193 
L 346.887099 39.889058 
L 346.887099 39.51549 
L 346.887099 39.566893 
L 344.834119 39.670355 
L 344.834119 39.722416 
L 343.465466 39.774701 
L 343.465466 39.015851 
L 343.465466 39.066953 
L 342.096812 39.118276 
L 342.096812 38.734975 
L 342.096812 38.785801 
L 340.043832 38.888116 
L 340.043832 38.939608 
L 339.359505 38.939608 
L 339.359505 38.551732 
L 339.359505 38.602713 
L 338.675179 38.602713 
L 338.675179 37.820366 
L 338.675179 37.870073 
L 336.622199 37.970147 
L 336.622199 38.020517 
L 334.569218 38.12193 
L 334.569218 37.723571 
L 334.569218 37.77384 
L 333.884892 37.77384 
L 333.884892 37.372915 
L 333.884892 37.422622 
L 331.831912 37.522709 
L 331.831912 37.573092 
L 331.147585 37.573092 
L 331.147585 37.167166 
L 331.147585 37.21697 
L 329.778931 37.267001 
L 329.778931 36.03315 
L 329.778931 36.08092 
L 327.725951 36.177121 
L 327.725951 35.339954 
L 327.725951 35.386667 
L 326.357298 35.433598 
L 326.357298 34.585105 
L 326.357298 34.630485 
L 324.304318 34.721887 
L 324.304318 34.291946 
L 324.304318 34.337062 
L 322.251338 34.427937 
L 322.251338 33.99319 
L 322.251338 34.038022 
L 320.882684 34.08307 
L 320.882684 33.644359 
L 320.882684 33.688675 
L 319.514031 33.733205 
L 319.514031 32.398508 
L 319.514031 32.440325 
L 318.829704 32.440325 
L 318.829704 31.537647 
L 318.829704 31.577658 
L 318.145377 31.577658 
L 318.145377 31.12197 
L 318.145377 31.161152 
L 316.092397 31.240099 
L 316.092397 30.779038 
L 316.092397 30.817756 
L 314.039417 30.895773 
L 314.039417 30.935075 
L 313.35509 30.935075 
L 313.35509 30.467439 
L 313.35509 30.505859 
L 311.986437 30.544473 
L 311.986437 30.072284 
L 311.986437 30.109992 
L 309.933457 30.185985 
L 309.933457 30.224274 
L 307.880477 30.301443 
L 307.880477 30.340327 
L 305.827497 30.418701 
L 305.827497 30.458194 
L 305.14317 30.458194 
L 305.14317 29.972219 
L 305.14317 30.01075 
L 303.774516 30.049484 
L 303.774516 29.558596 
L 303.774516 29.596341 
L 303.09019 29.596341 
L 303.09019 29.101658 
L 303.09019 29.138391 
L 301.03721 29.212444 
L 301.03721 28.711444 
L 301.03721 28.747525 
L 298.299903 28.856937 
L 298.299903 28.893803 
L 296.246923 28.968138 
L 296.246923 28.455519 
L 296.246923 28.491689 
L 293.509616 28.6014 
L 293.509616 28.638375 
L 292.140962 28.675556 
L 292.140962 28.152126 
L 292.140962 28.188156 
L 289.403655 28.297465 
L 289.403655 27.765574 
L 289.403655 27.80102 
L 288.035002 27.836667 
L 288.035002 27.298917 
L 288.035002 27.333333 
L 287.350675 27.333333 
L 287.350675 26.79106 
L 287.350675 26.824215 
L 284.613369 26.924831 
L 284.613369 26.95876 
L 282.560388 27.027212 
L 282.560388 26.47132 
L 282.560388 26.504314 
L 279.823082 26.604471 
L 279.823082 26.638254 
L 277.770101 26.706427 
L 277.770101 26.136216 
L 277.770101 26.168996 
L 277.085775 26.168996 
L 277.085775 25.593716 
L 277.085775 25.625051 
L 274.348468 25.720204 
L 274.348468 25.752311 
L 271.611161 25.849825 
L 271.611161 25.882733 
L 268.873854 25.982696 
L 268.873854 26.016436 
L 266.136547 26.118942 
L 266.136547 26.153546 
L 263.39924 26.258692 
L 263.39924 26.294194 
L 260.661934 26.402085 
L 260.661934 26.438519 
L 257.924627 26.549263 
L 257.924627 26.586667 
L 255.871647 26.662222 
L 255.871647 26.700379 
L 254.502993 26.738792 
L 254.502993 25.456036 
L 254.502993 25.490621 
L 251.765686 25.595799 
L 251.765686 25.63134 
L 249.02838 25.739444 
L 249.02838 25.775981 
L 246.975399 25.849825 
L 246.975399 25.887136 
L 244.922419 25.962553 
L 244.922419 26.000664 
L 242.869439 26.077706 
L 242.869439 26.116643 
L 240.816459 26.195362 
L 240.816459 26.235152 
L 238.763479 26.315604 
L 238.763479 26.356275 
L 236.710499 26.438519 
L 236.710499 26.480099 
L 234.657519 26.564195 
L 234.657519 26.606717 
L 232.604538 26.692727 
L 232.604538 25.970697 
L 232.604538 26.011603 
L 230.551558 26.094359 
L 230.551558 26.136216 
L 228.498578 26.220908 
L 228.498578 26.26375 
L 226.445598 26.350446 
L 226.445598 26.394308 
L 224.392618 26.483081 
L 224.392618 26.528 
L 222.339638 26.618925 
L 222.339638 26.664939 
L 220.286658 26.758095 
L 220.286658 26.805246 
L 218.233678 26.900716 
L 218.233678 26.949046 
L 216.180697 27.046918 
L 216.180697 27.096471 
L 214.127717 27.196836 
L 214.127717 27.24766 
L 212.074737 27.350615 
L 212.074737 27.402759 
L 210.021757 27.508406 
L 210.021757 27.561921 
L 207.968777 27.670367 
L 207.968777 27.72531 
L 206.600123 27.780741 
L 206.600123 27.836667 
L 205.23147 27.893094 
L 205.23147 27.95003 
L 203.862817 28.007481 
L 203.862817 28.065455 
L 202.494163 28.123957 
L 202.494163 28.182997 
L 201.12551 28.242581 
L 201.12551 28.302716 
L 199.756856 28.363411 
L 199.756856 28.424673 
L 198.388203 28.48651 
L 198.388203 28.548931 
L 197.01955 28.611943 
L 197.01955 28.675556 
L 195.650896 28.739777 
L 195.650896 28.804615 
L 194.282243 28.870081 
L 194.282243 28.936181 
L 192.913589 29.002927 
L 192.913589 29.070327 
L 191.544936 29.138391 
L 191.544936 29.207129 
L 190.176282 29.276551 
L 190.176282 29.346667 
L 188.807629 29.417487 
L 188.807629 29.489024 
L 187.438976 29.561286 
L 187.438976 29.634286 
L 186.070322 29.708034 
L 186.070322 29.782543 
L 184.701669 29.857824 
L 184.701669 29.933889 
L 183.333015 30.01075 
L 183.333015 30.088421 
L 181.964362 30.166914 
L 181.964362 30.246241 
L 180.595708 30.326417 
L 180.595708 30.407455 
L 179.911382 30.407455 
L 179.911382 29.401081 
L 179.911382 29.477971 
L 178.542728 29.555701 
L 178.542728 29.634286 
L 177.174075 29.713738 
L 177.174075 29.794074 
L 175.805421 29.875307 
L 175.805421 29.957453 
L 174.436768 30.040527 
L 174.436768 30.124545 
L 173.752441 30.124545 
L 173.752441 29.059048 
L 173.752441 29.138391 
L 172.383788 29.218651 
L 172.383788 29.299845 
L 171.015135 29.381988 
L 171.015135 28.280784 
L 171.015135 28.35787 
L 169.646481 28.435873 
L 169.646481 28.51481 
L 168.277828 28.594699 
L 168.277828 28.675556 
L 166.909174 28.757398 
L 166.909174 28.840245 
L 165.540521 28.924115 
L 165.540521 27.758509 
L 165.540521 27.836667 
L 164.171867 27.915807 
L 164.171867 27.995949 
L 163.487541 27.995949 
L 163.487541 26.794735 
L 163.487541 26.868718 
L 162.118887 26.943656 
L 162.118887 27.019567 
L 160.750234 27.096471 
L 160.750234 25.849825 
L 160.750234 25.92 
L 159.38158 25.991111 
L 159.38158 24.711946 
L 159.38158 24.775856 
L 158.697254 24.775856 
L 158.697254 23.47102 
L 158.697254 23.527306 
L 157.3286 23.584368 
L 157.3286 23.642222 
L 155.959947 23.700886 
L 155.959947 23.760376 
L 154.591293 23.820709 
L 154.591293 22.44381 
L 154.591293 22.49554 
L 152.538313 22.601265 
L 152.538313 21.174902 
L 152.538313 21.218765 
L 150.485333 21.308471 
L 150.485333 21.354343 
L 148.432353 21.448205 
L 148.432353 21.496227 
L 146.379373 21.594541 
L 146.379373 21.644868 
L 144.326393 21.747957 
L 144.326393 21.800759 
L 142.273413 21.908981 
L 142.273413 21.964444 
L 141.589086 21.964444 
L 141.589086 20.328964 
L 141.589086 20.371977 
L 139.536106 20.46023 
L 139.536106 20.505507 
L 137.483126 20.598466 
L 137.483126 20.64619 
L 135.430146 20.744242 
L 135.430146 20.794618 
L 133.377165 20.898193 
L 133.377165 20.951447 
L 131.324185 21.061026 
L 131.324185 21.117411 
L 129.955532 21.174902 
L 129.955532 21.233531 
L 128.586878 21.293333 
L 128.586878 21.354343 
L 127.218225 21.416599 
L 127.218225 21.480137 
L 126.533898 21.480137 
L 126.533898 19.447778 
L 126.533898 19.49193 
L 124.480918 19.583082 
L 124.480918 17.441739 
L 124.480918 17.465788 
L 121.059285 17.56751 
L 121.059285 17.594419 
L 118.321978 17.679036 
L 118.321978 17.708618 
L 115.584671 17.801857 
L 115.584671 17.83453 
L 112.847364 17.937778 
L 112.847364 17.974054 
L 110.794384 18.04963 
L 110.794384 18.089014 
L 108.741404 18.171208 
L 108.741404 18.214118 
L 106.688424 18.303838 
L 106.688424 18.350769 
L 104.635444 18.449101 
L 104.635444 18.500645 
L 103.26679 18.55388 
L 103.26679 15.253333 
L 103.26679 15.253333 
L 62.207187 15.253333 
L 62.207187 15.253333 
" style="fill:none;stroke:#4c72b0;stroke-linecap:round;stroke-width:1.5;"/>
   </g>
   <g id="patch_3">
    <path d="M 49.807187 224.64 
L 49.807187 7.2 
" style="fill:none;stroke:#ffffff;stroke-linecap:square;stroke-linejoin:miter;stroke-width:1.25;"/>
   </g>
   <g id="patch_4">
    <path d="M 384.607188 224.64 
L 384.607188 7.2 
" style="fill:none;stroke:#ffffff;stroke-linecap:square;stroke-linejoin:miter;stroke-width:1.25;"/>
   </g>
   <g id="patch_5">
    <path d="M 49.807187 224.64 
L 384.607188 224.64 
" style="fill:none;stroke:#ffffff;stroke-linecap:square;stroke-linejoin:miter;stroke-width:1.25;"/>
   </g>
   <g id="patch_6">
    <path d="M 49.807187 7.2 
L 384.607188 7.2 
" style="fill:none;stroke:#ffffff;stroke-linecap:square;stroke-linejoin:miter;stroke-width:1.25;"/>
   </g>
   <g id="text_15">
    <!-- auc=0.94 -->
    <defs>
     <path d="M 8.5 21.578125 
L 8.5 54.6875 
L 17.484375 54.6875 
L 17.484375 21.921875 
Q 17.484375 14.15625 20.5 10.265625 
Q 23.53125 6.390625 29.59375 6.390625 
Q 36.859375 6.390625 41.078125 11.03125 
Q 45.3125 15.671875 45.3125 23.6875 
L 45.3125 54.6875 
L 54.296875 54.6875 
L 54.296875 0 
L 45.3125 0 
L 45.3125 8.40625 
Q 42.046875 3.421875 37.71875 1 
Q 33.40625 -1.421875 27.6875 -1.421875 
Q 18.265625 -1.421875 13.375 4.4375 
Q 8.5 10.296875 8.5 21.578125 
z
M 31.109375 56 
z
" id="DejaVuSans-117"/>
     <path d="M 10.59375 45.40625 
L 73.1875 45.40625 
L 73.1875 37.203125 
L 10.59375 37.203125 
z
M 10.59375 25.484375 
L 73.1875 25.484375 
L 73.1875 17.1875 
L 10.59375 17.1875 
z
" id="DejaVuSans-61"/>
     <path d="M 10.984375 1.515625 
L 10.984375 10.5 
Q 14.703125 8.734375 18.5 7.8125 
Q 22.3125 6.890625 25.984375 6.890625 
Q 35.75 6.890625 40.890625 13.453125 
Q 46.046875 20.015625 46.78125 33.40625 
Q 43.953125 29.203125 39.59375 26.953125 
Q 35.25 24.703125 29.984375 24.703125 
Q 19.046875 24.703125 12.671875 31.3125 
Q 6.296875 37.9375 6.296875 49.421875 
Q 6.296875 60.640625 12.9375 67.421875 
Q 19.578125 74.21875 30.609375 74.21875 
Q 43.265625 74.21875 49.921875 64.515625 
Q 56.59375 54.828125 56.59375 36.375 
Q 56.59375 19.140625 48.40625 8.859375 
Q 40.234375 -1.421875 26.421875 -1.421875 
Q 22.703125 -1.421875 18.890625 -0.6875 
Q 15.09375 0.046875 10.984375 1.515625 
z
M 30.609375 32.421875 
Q 37.25 32.421875 41.125 36.953125 
Q 45.015625 41.5 45.015625 49.421875 
Q 45.015625 57.28125 41.125 61.84375 
Q 37.25 66.40625 30.609375 66.40625 
Q 23.96875 66.40625 20.09375 61.84375 
Q 16.21875 57.28125 16.21875 49.421875 
Q 16.21875 41.5 20.09375 36.953125 
Q 23.96875 32.421875 30.609375 32.421875 
z
" id="DejaVuSans-57"/>
    </defs>
    <g style="fill:#262626;" transform="translate(313.875937 214.091042)scale(0.12 -0.12)">
     <use xlink:href="#DejaVuSans-97"/>
     <use x="61.279297" xlink:href="#DejaVuSans-117"/>
     <use x="124.658203" xlink:href="#DejaVuSans-99"/>
     <use x="179.638672" xlink:href="#DejaVuSans-61"/>
     <use x="263.427734" xlink:href="#DejaVuSans-48"/>
     <use x="327.050781" xlink:href="#DejaVuSans-46"/>
     <use x="358.837891" xlink:href="#DejaVuSans-57"/>
     <use x="422.460938" xlink:href="#DejaVuSans-52"/>
    </g>
   </g>
   <g id="legend_1">
    <g id="patch_7">
     <path d="M 403.547188 42.791875 
L 515.200625 42.791875 
Q 517.400625 42.791875 517.400625 40.591875 
L 517.400625 9.4 
Q 517.400625 7.2 515.200625 7.2 
L 403.547188 7.2 
Q 401.347188 7.2 401.347188 9.4 
L 401.347188 40.591875 
Q 401.347188 42.791875 403.547188 42.791875 
z
" style="fill:#eaeaf2;opacity:0.8;stroke:#cccccc;stroke-linejoin:miter;"/>
    </g>
    <g id="PathCollection_4">
     <defs>
      <path id="m8ffe733d26" style="stroke:#ffffff;stroke-width:1.5;"/>
     </defs>
     <g>
      <use style="fill:#ffffff;stroke:#ffffff;stroke-width:1.5;" x="416.747187" xlink:href="#m8ffe733d26" y="17.070781"/>
     </g>
    </g>
    <g id="text_16">
     <!-- name -->
     <defs>
      <path d="M 52 44.1875 
Q 55.375 50.25 60.0625 53.125 
Q 64.75 56 71.09375 56 
Q 79.640625 56 84.28125 50.015625 
Q 88.921875 44.046875 88.921875 33.015625 
L 88.921875 0 
L 79.890625 0 
L 79.890625 32.71875 
Q 79.890625 40.578125 77.09375 44.375 
Q 74.3125 48.1875 68.609375 48.1875 
Q 61.625 48.1875 57.5625 43.546875 
Q 53.515625 38.921875 53.515625 30.90625 
L 53.515625 0 
L 44.484375 0 
L 44.484375 32.71875 
Q 44.484375 40.625 41.703125 44.40625 
Q 38.921875 48.1875 33.109375 48.1875 
Q 26.21875 48.1875 22.15625 43.53125 
Q 18.109375 38.875 18.109375 30.90625 
L 18.109375 0 
L 9.078125 0 
L 9.078125 54.6875 
L 18.109375 54.6875 
L 18.109375 46.1875 
Q 21.1875 51.21875 25.484375 53.609375 
Q 29.78125 56 35.6875 56 
Q 41.65625 56 45.828125 52.96875 
Q 50 49.953125 52 44.1875 
z
" id="DejaVuSans-109"/>
     </defs>
     <g style="fill:#262626;" transform="translate(436.547188 19.958281)scale(0.11 -0.11)">
      <use xlink:href="#DejaVuSans-110"/>
      <use x="63.378906" xlink:href="#DejaVuSans-97"/>
      <use x="124.658203" xlink:href="#DejaVuSans-109"/>
      <use x="222.070312" xlink:href="#DejaVuSans-101"/>
     </g>
    </g>
    <g id="PathCollection_5">
     <defs>
      <path d="M 0 3 
C 0.795609 3 1.55874 2.683901 2.12132 2.12132 
C 2.683901 1.55874 3 0.795609 3 0 
C 3 -0.795609 2.683901 -1.55874 2.12132 -2.12132 
C 1.55874 -2.683901 0.795609 -3 0 -3 
C -0.795609 -3 -1.55874 -2.683901 -2.12132 -2.12132 
C -2.683901 -1.55874 -3 -0.795609 -3 0 
C -3 0.795609 -2.683901 1.55874 -2.12132 2.12132 
C -1.55874 2.683901 -0.795609 3 0 3 
z
" id="meeb0e8b46b" style="stroke:#4c72b0;"/>
     </defs>
     <g>
      <use style="fill:#4c72b0;stroke:#4c72b0;" x="416.747187" xlink:href="#meeb0e8b46b" y="33.216719"/>
     </g>
    </g>
    <g id="text_17">
     <!-- model default -->
     <defs>
      <path d="M 45.40625 46.390625 
L 45.40625 75.984375 
L 54.390625 75.984375 
L 54.390625 0 
L 45.40625 0 
L 45.40625 8.203125 
Q 42.578125 3.328125 38.25 0.953125 
Q 33.9375 -1.421875 27.875 -1.421875 
Q 17.96875 -1.421875 11.734375 6.484375 
Q 5.515625 14.40625 5.515625 27.296875 
Q 5.515625 40.1875 11.734375 48.09375 
Q 17.96875 56 27.875 56 
Q 33.9375 56 38.25 53.625 
Q 42.578125 51.265625 45.40625 46.390625 
z
M 14.796875 27.296875 
Q 14.796875 17.390625 18.875 11.75 
Q 22.953125 6.109375 30.078125 6.109375 
Q 37.203125 6.109375 41.296875 11.75 
Q 45.40625 17.390625 45.40625 27.296875 
Q 45.40625 37.203125 41.296875 42.84375 
Q 37.203125 48.484375 30.078125 48.484375 
Q 22.953125 48.484375 18.875 42.84375 
Q 14.796875 37.203125 14.796875 27.296875 
z
" id="DejaVuSans-100"/>
      <path id="DejaVuSans-32"/>
      <path d="M 37.109375 75.984375 
L 37.109375 68.5 
L 28.515625 68.5 
Q 23.6875 68.5 21.796875 66.546875 
Q 19.921875 64.59375 19.921875 59.515625 
L 19.921875 54.6875 
L 34.71875 54.6875 
L 34.71875 47.703125 
L 19.921875 47.703125 
L 19.921875 0 
L 10.890625 0 
L 10.890625 47.703125 
L 2.296875 47.703125 
L 2.296875 54.6875 
L 10.890625 54.6875 
L 10.890625 58.5 
Q 10.890625 67.625 15.140625 71.796875 
Q 19.390625 75.984375 28.609375 75.984375 
z
" id="DejaVuSans-102"/>
      <path d="M 18.3125 70.21875 
L 18.3125 54.6875 
L 36.8125 54.6875 
L 36.8125 47.703125 
L 18.3125 47.703125 
L 18.3125 18.015625 
Q 18.3125 11.328125 20.140625 9.421875 
Q 21.96875 7.515625 27.59375 7.515625 
L 36.8125 7.515625 
L 36.8125 0 
L 27.59375 0 
Q 17.1875 0 13.234375 3.875 
Q 9.28125 7.765625 9.28125 18.015625 
L 9.28125 47.703125 
L 2.6875 47.703125 
L 2.6875 54.6875 
L 9.28125 54.6875 
L 9.28125 70.21875 
z
" id="DejaVuSans-116"/>
     </defs>
     <g style="fill:#262626;" transform="translate(436.547188 36.104219)scale(0.11 -0.11)">
      <use xlink:href="#DejaVuSans-109"/>
      <use x="97.412109" xlink:href="#DejaVuSans-111"/>
      <use x="158.59375" xlink:href="#DejaVuSans-100"/>
      <use x="222.070312" xlink:href="#DejaVuSans-101"/>
      <use x="283.59375" xlink:href="#DejaVuSans-108"/>
      <use x="311.376953" xlink:href="#DejaVuSans-32"/>
      <use x="343.164062" xlink:href="#DejaVuSans-100"/>
      <use x="406.640625" xlink:href="#DejaVuSans-101"/>
      <use x="468.164062" xlink:href="#DejaVuSans-102"/>
      <use x="503.369141" xlink:href="#DejaVuSans-97"/>
      <use x="564.648438" xlink:href="#DejaVuSans-117"/>
      <use x="628.027344" xlink:href="#DejaVuSans-108"/>
      <use x="655.810547" xlink:href="#DejaVuSans-116"/>
     </g>
    </g>
   </g>
  </g>
 </g>
 <defs>
  <clipPath id="pec425ec7f6">
   <rect height="217.44" width="334.8" x="49.807187" y="7.2"/>
  </clipPath>
 </defs>
</svg>
