<?xml version="1.0" encoding="utf-8" standalone="no"?>
<!DOCTYPE svg PUBLIC "-//W3C//DTD SVG 1.1//EN"
  "http://www.w3.org/Graphics/SVG/1.1/DTD/svg11.dtd">
<!-- Created with matplotlib (https://matplotlib.org/) -->
<svg height="288pt" version="1.1" viewBox="0 0 432 288" width="432pt" xmlns="http://www.w3.org/2000/svg" xmlns:xlink="http://www.w3.org/1999/xlink">
 <defs>
  <style type="text/css">
*{stroke-linecap:butt;stroke-linejoin:round;}
  </style>
 </defs>
 <g id="figure_1">
  <g id="patch_1">
   <path d="M 0 288 
L 432 288 
L 432 0 
L 0 0 
z
" style="fill:#ffffff;"/>
  </g>
  <g id="axes_1">
   <g id="patch_2">
    <path d="M 54 252 
L 388.8 252 
L 388.8 34.56 
L 54 34.56 
z
" style="fill:#eaeaf2;"/>
   </g>
   <g id="matplotlib.axis_1">
    <g id="xtick_1">
     <g id="line2d_1">
      <path clip-path="url(#p5025cb2621)" d="M 69.218182 252 
L 69.218182 34.56 
" style="fill:none;stroke:#ffffff;stroke-linecap:round;"/>
     </g>
     <g id="text_1">
      <!-- 0 -->
      <defs>
       <path d="M 31.78125 66.40625 
Q 24.171875 66.40625 20.328125 58.90625 
Q 16.5 51.421875 16.5 36.375 
Q 16.5 21.390625 20.328125 13.890625 
Q 24.171875 6.390625 31.78125 6.390625 
Q 39.453125 6.390625 43.28125 13.890625 
Q 47.125 21.390625 47.125 36.375 
Q 47.125 51.421875 43.28125 58.90625 
Q 39.453125 66.40625 31.78125 66.40625 
z
M 31.78125 74.21875 
Q 44.046875 74.21875 50.515625 64.515625 
Q 56.984375 54.828125 56.984375 36.375 
Q 56.984375 17.96875 50.515625 8.265625 
Q 44.046875 -1.421875 31.78125 -1.421875 
Q 19.53125 -1.421875 13.0625 8.265625 
Q 6.59375 17.96875 6.59375 36.375 
Q 6.59375 54.828125 13.0625 64.515625 
Q 19.53125 74.21875 31.78125 74.21875 
z
" id="DejaVuSans-48"/>
      </defs>
      <g style="fill:#262626;" transform="translate(65.718807 269.858281)scale(0.11 -0.11)">
       <use xlink:href="#DejaVuSans-48"/>
      </g>
     </g>
    </g>
    <g id="xtick_2">
     <g id="line2d_2">
      <path clip-path="url(#p5025cb2621)" d="M 130.212899 252 
L 130.212899 34.56 
" style="fill:none;stroke:#ffffff;stroke-linecap:round;"/>
     </g>
     <g id="text_2">
      <!-- 100 -->
      <defs>
       <path d="M 12.40625 8.296875 
L 28.515625 8.296875 
L 28.515625 63.921875 
L 10.984375 60.40625 
L 10.984375 69.390625 
L 28.421875 72.90625 
L 38.28125 72.90625 
L 38.28125 8.296875 
L 54.390625 8.296875 
L 54.390625 0 
L 12.40625 0 
z
" id="DejaVuSans-49"/>
      </defs>
      <g style="fill:#262626;" transform="translate(119.714774 269.858281)scale(0.11 -0.11)">
       <use xlink:href="#DejaVuSans-49"/>
       <use x="63.623047" xlink:href="#DejaVuSans-48"/>
       <use x="127.246094" xlink:href="#DejaVuSans-48"/>
      </g>
     </g>
    </g>
    <g id="xtick_3">
     <g id="line2d_3">
      <path clip-path="url(#p5025cb2621)" d="M 191.207615 252 
L 191.207615 34.56 
" style="fill:none;stroke:#ffffff;stroke-linecap:round;"/>
     </g>
     <g id="text_3">
      <!-- 200 -->
      <defs>
       <path d="M 19.1875 8.296875 
L 53.609375 8.296875 
L 53.609375 0 
L 7.328125 0 
L 7.328125 8.296875 
Q 12.9375 14.109375 22.625 23.890625 
Q 32.328125 33.6875 34.8125 36.53125 
Q 39.546875 41.84375 41.421875 45.53125 
Q 43.3125 49.21875 43.3125 52.78125 
Q 43.3125 58.59375 39.234375 62.25 
Q 35.15625 65.921875 28.609375 65.921875 
Q 23.96875 65.921875 18.8125 64.3125 
Q 13.671875 62.703125 7.8125 59.421875 
L 7.8125 69.390625 
Q 13.765625 71.78125 18.9375 73 
Q 24.125 74.21875 28.421875 74.21875 
Q 39.75 74.21875 46.484375 68.546875 
Q 53.21875 62.890625 53.21875 53.421875 
Q 53.21875 48.921875 51.53125 44.890625 
Q 49.859375 40.875 45.40625 35.40625 
Q 44.1875 33.984375 37.640625 27.21875 
Q 31.109375 20.453125 19.1875 8.296875 
z
" id="DejaVuSans-50"/>
      </defs>
      <g style="fill:#262626;" transform="translate(180.70949 269.858281)scale(0.11 -0.11)">
       <use xlink:href="#DejaVuSans-50"/>
       <use x="63.623047" xlink:href="#DejaVuSans-48"/>
       <use x="127.246094" xlink:href="#DejaVuSans-48"/>
      </g>
     </g>
    </g>
    <g id="xtick_4">
     <g id="line2d_4">
      <path clip-path="url(#p5025cb2621)" d="M 252.202332 252 
L 252.202332 34.56 
" style="fill:none;stroke:#ffffff;stroke-linecap:round;"/>
     </g>
     <g id="text_4">
      <!-- 300 -->
      <defs>
       <path d="M 40.578125 39.3125 
Q 47.65625 37.796875 51.625 33 
Q 55.609375 28.21875 55.609375 21.1875 
Q 55.609375 10.40625 48.1875 4.484375 
Q 40.765625 -1.421875 27.09375 -1.421875 
Q 22.515625 -1.421875 17.65625 -0.515625 
Q 12.796875 0.390625 7.625 2.203125 
L 7.625 11.71875 
Q 11.71875 9.328125 16.59375 8.109375 
Q 21.484375 6.890625 26.8125 6.890625 
Q 36.078125 6.890625 40.9375 10.546875 
Q 45.796875 14.203125 45.796875 21.1875 
Q 45.796875 27.640625 41.28125 31.265625 
Q 36.765625 34.90625 28.71875 34.90625 
L 20.21875 34.90625 
L 20.21875 43.015625 
L 29.109375 43.015625 
Q 36.375 43.015625 40.234375 45.921875 
Q 44.09375 48.828125 44.09375 54.296875 
Q 44.09375 59.90625 40.109375 62.90625 
Q 36.140625 65.921875 28.71875 65.921875 
Q 24.65625 65.921875 20.015625 65.03125 
Q 15.375 64.15625 9.8125 62.3125 
L 9.8125 71.09375 
Q 15.4375 72.65625 20.34375 73.4375 
Q 25.25 74.21875 29.59375 74.21875 
Q 40.828125 74.21875 47.359375 69.109375 
Q 53.90625 64.015625 53.90625 55.328125 
Q 53.90625 49.265625 50.4375 45.09375 
Q 46.96875 40.921875 40.578125 39.3125 
z
" id="DejaVuSans-51"/>
      </defs>
      <g style="fill:#262626;" transform="translate(241.704207 269.858281)scale(0.11 -0.11)">
       <use xlink:href="#DejaVuSans-51"/>
       <use x="63.623047" xlink:href="#DejaVuSans-48"/>
       <use x="127.246094" xlink:href="#DejaVuSans-48"/>
      </g>
     </g>
    </g>
    <g id="xtick_5">
     <g id="line2d_5">
      <path clip-path="url(#p5025cb2621)" d="M 313.197049 252 
L 313.197049 34.56 
" style="fill:none;stroke:#ffffff;stroke-linecap:round;"/>
     </g>
     <g id="text_5">
      <!-- 400 -->
      <defs>
       <path d="M 37.796875 64.3125 
L 12.890625 25.390625 
L 37.796875 25.390625 
z
M 35.203125 72.90625 
L 47.609375 72.90625 
L 47.609375 25.390625 
L 58.015625 25.390625 
L 58.015625 17.1875 
L 47.609375 17.1875 
L 47.609375 0 
L 37.796875 0 
L 37.796875 17.1875 
L 4.890625 17.1875 
L 4.890625 26.703125 
z
" id="DejaVuSans-52"/>
      </defs>
      <g style="fill:#262626;" transform="translate(302.698924 269.858281)scale(0.11 -0.11)">
       <use xlink:href="#DejaVuSans-52"/>
       <use x="63.623047" xlink:href="#DejaVuSans-48"/>
       <use x="127.246094" xlink:href="#DejaVuSans-48"/>
      </g>
     </g>
    </g>
    <g id="xtick_6">
     <g id="line2d_6">
      <path clip-path="url(#p5025cb2621)" d="M 374.191765 252 
L 374.191765 34.56 
" style="fill:none;stroke:#ffffff;stroke-linecap:round;"/>
     </g>
     <g id="text_6">
      <!-- 500 -->
      <defs>
       <path d="M 10.796875 72.90625 
L 49.515625 72.90625 
L 49.515625 64.59375 
L 19.828125 64.59375 
L 19.828125 46.734375 
Q 21.96875 47.46875 24.109375 47.828125 
Q 26.265625 48.1875 28.421875 48.1875 
Q 40.625 48.1875 47.75 41.5 
Q 54.890625 34.8125 54.890625 23.390625 
Q 54.890625 11.625 47.5625 5.09375 
Q 40.234375 -1.421875 26.90625 -1.421875 
Q 22.3125 -1.421875 17.546875 -0.640625 
Q 12.796875 0.140625 7.71875 1.703125 
L 7.71875 11.625 
Q 12.109375 9.234375 16.796875 8.0625 
Q 21.484375 6.890625 26.703125 6.890625 
Q 35.15625 6.890625 40.078125 11.328125 
Q 45.015625 15.765625 45.015625 23.390625 
Q 45.015625 31 40.078125 35.4375 
Q 35.15625 39.890625 26.703125 39.890625 
Q 22.75 39.890625 18.8125 39.015625 
Q 14.890625 38.140625 10.796875 36.28125 
z
" id="DejaVuSans-53"/>
      </defs>
      <g style="fill:#262626;" transform="translate(363.69364 269.858281)scale(0.11 -0.11)">
       <use xlink:href="#DejaVuSans-53"/>
       <use x="63.623047" xlink:href="#DejaVuSans-48"/>
       <use x="127.246094" xlink:href="#DejaVuSans-48"/>
      </g>
     </g>
    </g>
    <g id="text_7">
     <!-- Epoch -->
     <defs>
      <path d="M 9.8125 72.90625 
L 55.90625 72.90625 
L 55.90625 64.59375 
L 19.671875 64.59375 
L 19.671875 43.015625 
L 54.390625 43.015625 
L 54.390625 34.71875 
L 19.671875 34.71875 
L 19.671875 8.296875 
L 56.78125 8.296875 
L 56.78125 0 
L 9.8125 0 
z
" id="DejaVuSans-69"/>
      <path d="M 18.109375 8.203125 
L 18.109375 -20.796875 
L 9.078125 -20.796875 
L 9.078125 54.6875 
L 18.109375 54.6875 
L 18.109375 46.390625 
Q 20.953125 51.265625 25.265625 53.625 
Q 29.59375 56 35.59375 56 
Q 45.5625 56 51.78125 48.09375 
Q 58.015625 40.1875 58.015625 27.296875 
Q 58.015625 14.40625 51.78125 6.484375 
Q 45.5625 -1.421875 35.59375 -1.421875 
Q 29.59375 -1.421875 25.265625 0.953125 
Q 20.953125 3.328125 18.109375 8.203125 
z
M 48.6875 27.296875 
Q 48.6875 37.203125 44.609375 42.84375 
Q 40.53125 48.484375 33.40625 48.484375 
Q 26.265625 48.484375 22.1875 42.84375 
Q 18.109375 37.203125 18.109375 27.296875 
Q 18.109375 17.390625 22.1875 11.75 
Q 26.265625 6.109375 33.40625 6.109375 
Q 40.53125 6.109375 44.609375 11.75 
Q 48.6875 17.390625 48.6875 27.296875 
z
" id="DejaVuSans-112"/>
      <path d="M 30.609375 48.390625 
Q 23.390625 48.390625 19.1875 42.75 
Q 14.984375 37.109375 14.984375 27.296875 
Q 14.984375 17.484375 19.15625 11.84375 
Q 23.34375 6.203125 30.609375 6.203125 
Q 37.796875 6.203125 41.984375 11.859375 
Q 46.1875 17.53125 46.1875 27.296875 
Q 46.1875 37.015625 41.984375 42.703125 
Q 37.796875 48.390625 30.609375 48.390625 
z
M 30.609375 56 
Q 42.328125 56 49.015625 48.375 
Q 55.71875 40.765625 55.71875 27.296875 
Q 55.71875 13.875 49.015625 6.21875 
Q 42.328125 -1.421875 30.609375 -1.421875 
Q 18.84375 -1.421875 12.171875 6.21875 
Q 5.515625 13.875 5.515625 27.296875 
Q 5.515625 40.765625 12.171875 48.375 
Q 18.84375 56 30.609375 56 
z
" id="DejaVuSans-111"/>
      <path d="M 48.78125 52.59375 
L 48.78125 44.1875 
Q 44.96875 46.296875 41.140625 47.34375 
Q 37.3125 48.390625 33.40625 48.390625 
Q 24.65625 48.390625 19.8125 42.84375 
Q 14.984375 37.3125 14.984375 27.296875 
Q 14.984375 17.28125 19.8125 11.734375 
Q 24.65625 6.203125 33.40625 6.203125 
Q 37.3125 6.203125 41.140625 7.25 
Q 44.96875 8.296875 48.78125 10.40625 
L 48.78125 2.09375 
Q 45.015625 0.34375 40.984375 -0.53125 
Q 36.96875 -1.421875 32.421875 -1.421875 
Q 20.0625 -1.421875 12.78125 6.34375 
Q 5.515625 14.109375 5.515625 27.296875 
Q 5.515625 40.671875 12.859375 48.328125 
Q 20.21875 56 33.015625 56 
Q 37.15625 56 41.109375 55.140625 
Q 45.0625 54.296875 48.78125 52.59375 
z
" id="DejaVuSans-99"/>
      <path d="M 54.890625 33.015625 
L 54.890625 0 
L 45.90625 0 
L 45.90625 32.71875 
Q 45.90625 40.484375 42.875 44.328125 
Q 39.84375 48.1875 33.796875 48.1875 
Q 26.515625 48.1875 22.3125 43.546875 
Q 18.109375 38.921875 18.109375 30.90625 
L 18.109375 0 
L 9.078125 0 
L 9.078125 75.984375 
L 18.109375 75.984375 
L 18.109375 46.1875 
Q 21.34375 51.125 25.703125 53.5625 
Q 30.078125 56 35.796875 56 
Q 45.21875 56 50.046875 50.171875 
Q 54.890625 44.34375 54.890625 33.015625 
z
" id="DejaVuSans-104"/>
     </defs>
     <g style="fill:#262626;" transform="translate(203.026875 285.264063)scale(0.12 -0.12)">
      <use xlink:href="#DejaVuSans-69"/>
      <use x="63.183594" xlink:href="#DejaVuSans-112"/>
      <use x="126.660156" xlink:href="#DejaVuSans-111"/>
      <use x="187.841797" xlink:href="#DejaVuSans-99"/>
      <use x="242.822266" xlink:href="#DejaVuSans-104"/>
     </g>
    </g>
   </g>
   <g id="matplotlib.axis_2">
    <g id="ytick_1">
     <g id="line2d_7">
      <path clip-path="url(#p5025cb2621)" d="M 54 243.167654 
L 388.8 243.167654 
" style="fill:none;stroke:#ffffff;stroke-linecap:round;"/>
     </g>
     <g id="text_8">
      <!-- 0 -->
      <g style="fill:#262626;" transform="translate(37.50125 247.346795)scale(0.11 -0.11)">
       <use xlink:href="#DejaVuSans-48"/>
      </g>
     </g>
    </g>
    <g id="ytick_2">
     <g id="line2d_8">
      <path clip-path="url(#p5025cb2621)" d="M 54 218.056572 
L 388.8 218.056572 
" style="fill:none;stroke:#ffffff;stroke-linecap:round;"/>
     </g>
     <g id="text_9">
      <!-- 100 -->
      <g style="fill:#262626;" transform="translate(23.50375 222.235712)scale(0.11 -0.11)">
       <use xlink:href="#DejaVuSans-49"/>
       <use x="63.623047" xlink:href="#DejaVuSans-48"/>
       <use x="127.246094" xlink:href="#DejaVuSans-48"/>
      </g>
     </g>
    </g>
    <g id="ytick_3">
     <g id="line2d_9">
      <path clip-path="url(#p5025cb2621)" d="M 54 192.945489 
L 388.8 192.945489 
" style="fill:none;stroke:#ffffff;stroke-linecap:round;"/>
     </g>
     <g id="text_10">
      <!-- 200 -->
      <g style="fill:#262626;" transform="translate(23.50375 197.12463)scale(0.11 -0.11)">
       <use xlink:href="#DejaVuSans-50"/>
       <use x="63.623047" xlink:href="#DejaVuSans-48"/>
       <use x="127.246094" xlink:href="#DejaVuSans-48"/>
      </g>
     </g>
    </g>
    <g id="ytick_4">
     <g id="line2d_10">
      <path clip-path="url(#p5025cb2621)" d="M 54 167.834406 
L 388.8 167.834406 
" style="fill:none;stroke:#ffffff;stroke-linecap:round;"/>
     </g>
     <g id="text_11">
      <!-- 300 -->
      <g style="fill:#262626;" transform="translate(23.50375 172.013547)scale(0.11 -0.11)">
       <use xlink:href="#DejaVuSans-51"/>
       <use x="63.623047" xlink:href="#DejaVuSans-48"/>
       <use x="127.246094" xlink:href="#DejaVuSans-48"/>
      </g>
     </g>
    </g>
    <g id="ytick_5">
     <g id="line2d_11">
      <path clip-path="url(#p5025cb2621)" d="M 54 142.723324 
L 388.8 142.723324 
" style="fill:none;stroke:#ffffff;stroke-linecap:round;"/>
     </g>
     <g id="text_12">
      <!-- 400 -->
      <g style="fill:#262626;" transform="translate(23.50375 146.902464)scale(0.11 -0.11)">
       <use xlink:href="#DejaVuSans-52"/>
       <use x="63.623047" xlink:href="#DejaVuSans-48"/>
       <use x="127.246094" xlink:href="#DejaVuSans-48"/>
      </g>
     </g>
    </g>
    <g id="ytick_6">
     <g id="line2d_12">
      <path clip-path="url(#p5025cb2621)" d="M 54 117.612241 
L 388.8 117.612241 
" style="fill:none;stroke:#ffffff;stroke-linecap:round;"/>
     </g>
     <g id="text_13">
      <!-- 500 -->
      <g style="fill:#262626;" transform="translate(23.50375 121.791382)scale(0.11 -0.11)">
       <use xlink:href="#DejaVuSans-53"/>
       <use x="63.623047" xlink:href="#DejaVuSans-48"/>
       <use x="127.246094" xlink:href="#DejaVuSans-48"/>
      </g>
     </g>
    </g>
    <g id="ytick_7">
     <g id="line2d_13">
      <path clip-path="url(#p5025cb2621)" d="M 54 92.501159 
L 388.8 92.501159 
" style="fill:none;stroke:#ffffff;stroke-linecap:round;"/>
     </g>
     <g id="text_14">
      <!-- 600 -->
      <defs>
       <path d="M 33.015625 40.375 
Q 26.375 40.375 22.484375 35.828125 
Q 18.609375 31.296875 18.609375 23.390625 
Q 18.609375 15.53125 22.484375 10.953125 
Q 26.375 6.390625 33.015625 6.390625 
Q 39.65625 6.390625 43.53125 10.953125 
Q 47.40625 15.53125 47.40625 23.390625 
Q 47.40625 31.296875 43.53125 35.828125 
Q 39.65625 40.375 33.015625 40.375 
z
M 52.59375 71.296875 
L 52.59375 62.3125 
Q 48.875 64.0625 45.09375 64.984375 
Q 41.3125 65.921875 37.59375 65.921875 
Q 27.828125 65.921875 22.671875 59.328125 
Q 17.53125 52.734375 16.796875 39.40625 
Q 19.671875 43.65625 24.015625 45.921875 
Q 28.375 48.1875 33.59375 48.1875 
Q 44.578125 48.1875 50.953125 41.515625 
Q 57.328125 34.859375 57.328125 23.390625 
Q 57.328125 12.15625 50.6875 5.359375 
Q 44.046875 -1.421875 33.015625 -1.421875 
Q 20.359375 -1.421875 13.671875 8.265625 
Q 6.984375 17.96875 6.984375 36.375 
Q 6.984375 53.65625 15.1875 63.9375 
Q 23.390625 74.21875 37.203125 74.21875 
Q 40.921875 74.21875 44.703125 73.484375 
Q 48.484375 72.75 52.59375 71.296875 
z
" id="DejaVuSans-54"/>
      </defs>
      <g style="fill:#262626;" transform="translate(23.50375 96.680299)scale(0.11 -0.11)">
       <use xlink:href="#DejaVuSans-54"/>
       <use x="63.623047" xlink:href="#DejaVuSans-48"/>
       <use x="127.246094" xlink:href="#DejaVuSans-48"/>
      </g>
     </g>
    </g>
    <g id="ytick_8">
     <g id="line2d_14">
      <path clip-path="url(#p5025cb2621)" d="M 54 67.390076 
L 388.8 67.390076 
" style="fill:none;stroke:#ffffff;stroke-linecap:round;"/>
     </g>
     <g id="text_15">
      <!-- 700 -->
      <defs>
       <path d="M 8.203125 72.90625 
L 55.078125 72.90625 
L 55.078125 68.703125 
L 28.609375 0 
L 18.3125 0 
L 43.21875 64.59375 
L 8.203125 64.59375 
z
" id="DejaVuSans-55"/>
      </defs>
      <g style="fill:#262626;" transform="translate(23.50375 71.569217)scale(0.11 -0.11)">
       <use xlink:href="#DejaVuSans-55"/>
       <use x="63.623047" xlink:href="#DejaVuSans-48"/>
       <use x="127.246094" xlink:href="#DejaVuSans-48"/>
      </g>
     </g>
    </g>
    <g id="ytick_9">
     <g id="line2d_15">
      <path clip-path="url(#p5025cb2621)" d="M 54 42.278993 
L 388.8 42.278993 
" style="fill:none;stroke:#ffffff;stroke-linecap:round;"/>
     </g>
     <g id="text_16">
      <!-- 800 -->
      <defs>
       <path d="M 31.78125 34.625 
Q 24.75 34.625 20.71875 30.859375 
Q 16.703125 27.09375 16.703125 20.515625 
Q 16.703125 13.921875 20.71875 10.15625 
Q 24.75 6.390625 31.78125 6.390625 
Q 38.8125 6.390625 42.859375 10.171875 
Q 46.921875 13.96875 46.921875 20.515625 
Q 46.921875 27.09375 42.890625 30.859375 
Q 38.875 34.625 31.78125 34.625 
z
M 21.921875 38.8125 
Q 15.578125 40.375 12.03125 44.71875 
Q 8.5 49.078125 8.5 55.328125 
Q 8.5 64.0625 14.71875 69.140625 
Q 20.953125 74.21875 31.78125 74.21875 
Q 42.671875 74.21875 48.875 69.140625 
Q 55.078125 64.0625 55.078125 55.328125 
Q 55.078125 49.078125 51.53125 44.71875 
Q 48 40.375 41.703125 38.8125 
Q 48.828125 37.15625 52.796875 32.3125 
Q 56.78125 27.484375 56.78125 20.515625 
Q 56.78125 9.90625 50.3125 4.234375 
Q 43.84375 -1.421875 31.78125 -1.421875 
Q 19.734375 -1.421875 13.25 4.234375 
Q 6.78125 9.90625 6.78125 20.515625 
Q 6.78125 27.484375 10.78125 32.3125 
Q 14.796875 37.15625 21.921875 38.8125 
z
M 18.3125 54.390625 
Q 18.3125 48.734375 21.84375 45.5625 
Q 25.390625 42.390625 31.78125 42.390625 
Q 38.140625 42.390625 41.71875 45.5625 
Q 45.3125 48.734375 45.3125 54.390625 
Q 45.3125 60.0625 41.71875 63.234375 
Q 38.140625 66.40625 31.78125 66.40625 
Q 25.390625 66.40625 21.84375 63.234375 
Q 18.3125 60.0625 18.3125 54.390625 
z
" id="DejaVuSans-56"/>
      </defs>
      <g style="fill:#262626;" transform="translate(23.50375 46.458134)scale(0.11 -0.11)">
       <use xlink:href="#DejaVuSans-56"/>
       <use x="63.623047" xlink:href="#DejaVuSans-48"/>
       <use x="127.246094" xlink:href="#DejaVuSans-48"/>
      </g>
     </g>
    </g>
    <g id="text_17">
     <!-- Loss -->
     <defs>
      <path d="M 9.8125 72.90625 
L 19.671875 72.90625 
L 19.671875 8.296875 
L 55.171875 8.296875 
L 55.171875 0 
L 9.8125 0 
z
" id="DejaVuSans-76"/>
      <path d="M 44.28125 53.078125 
L 44.28125 44.578125 
Q 40.484375 46.53125 36.375 47.5 
Q 32.28125 48.484375 27.875 48.484375 
Q 21.1875 48.484375 17.84375 46.4375 
Q 14.5 44.390625 14.5 40.28125 
Q 14.5 37.15625 16.890625 35.375 
Q 19.28125 33.59375 26.515625 31.984375 
L 29.59375 31.296875 
Q 39.15625 29.25 43.1875 25.515625 
Q 47.21875 21.78125 47.21875 15.09375 
Q 47.21875 7.46875 41.1875 3.015625 
Q 35.15625 -1.421875 24.609375 -1.421875 
Q 20.21875 -1.421875 15.453125 -0.5625 
Q 10.6875 0.296875 5.421875 2 
L 5.421875 11.28125 
Q 10.40625 8.6875 15.234375 7.390625 
Q 20.0625 6.109375 24.8125 6.109375 
Q 31.15625 6.109375 34.5625 8.28125 
Q 37.984375 10.453125 37.984375 14.40625 
Q 37.984375 18.0625 35.515625 20.015625 
Q 33.0625 21.96875 24.703125 23.78125 
L 21.578125 24.515625 
Q 13.234375 26.265625 9.515625 29.90625 
Q 5.8125 33.546875 5.8125 39.890625 
Q 5.8125 47.609375 11.28125 51.796875 
Q 16.75 56 26.8125 56 
Q 31.78125 56 36.171875 55.265625 
Q 40.578125 54.546875 44.28125 53.078125 
z
" id="DejaVuSans-115"/>
     </defs>
     <g style="fill:#262626;" transform="translate(17.008125 156.440625)rotate(-90)scale(0.12 -0.12)">
      <use xlink:href="#DejaVuSans-76"/>
      <use x="53.962891" xlink:href="#DejaVuSans-111"/>
      <use x="115.144531" xlink:href="#DejaVuSans-115"/>
      <use x="167.244141" xlink:href="#DejaVuSans-115"/>
     </g>
    </g>
   </g>
   <g id="line2d_16">
    <path clip-path="url(#p5025cb2621)" d="M 69.218182 44.443636 
L 69.828129 47.084832 
L 71.65797 58.447478 
L 75.927601 85.018164 
L 78.977336 102.770549 
L 82.637019 122.644829 
L 86.296702 140.992522 
L 89.956385 157.749423 
L 93.006121 170.533971 
L 96.055857 182.237727 
L 99.105593 192.8876 
L 101.545382 200.70775 
L 104.595118 209.487401 
L 107.034906 215.607393 
L 109.474695 221.131505 
L 112.524431 226.744496 
L 113.744325 228.653284 
L 115.574167 231.074395 
L 116.184114 231.818745 
L 117.404008 232.925354 
L 118.623902 234.318291 
L 121.063691 236.513654 
L 122.893533 237.524772 
L 124.113427 237.765439 
L 126.553216 238.796794 
L 127.77311 238.902748 
L 128.383057 238.686877 
L 128.993004 238.790785 
L 129.602951 239.116323 
L 130.822846 239.065558 
L 132.04274 239.449765 
L 136.31237 239.244351 
L 137.532265 239.316035 
L 138.142212 239.523774 
L 138.752159 239.5859 
L 139.362106 239.204019 
L 139.972053 239.126757 
L 141.801895 239.605333 
L 143.631736 239.384173 
L 144.241683 239.48917 
L 145.461578 239.877934 
L 146.071525 239.632896 
L 146.681472 239.153796 
L 147.291419 238.886003 
L 147.901366 239.027524 
L 149.121261 239.561009 
L 150.341155 239.819521 
L 151.561049 239.8775 
L 152.170997 239.767735 
L 154.610785 239.781576 
L 155.83068 239.451488 
L 157.050574 239.657938 
L 158.270468 239.921963 
L 160.710257 240.211296 
L 161.930151 240.208941 
L 162.540098 239.9563 
L 163.759993 239.791393 
L 164.979887 239.953233 
L 166.199781 240.149562 
L 166.809729 240.13069 
L 168.029623 240.242421 
L 169.859464 239.95743 
L 171.079359 240.020929 
L 172.299253 240.092969 
L 173.519147 240.107672 
L 174.129095 240.234084 
L 174.739042 240.170981 
L 175.348989 239.788302 
L 175.958936 239.681254 
L 177.17883 240.024896 
L 180.838513 240.334664 
L 182.058408 240.070823 
L 185.718091 240.362759 
L 186.937985 240.382734 
L 187.547932 240.435399 
L 189.377774 240.206043 
L 192.42751 240.49829 
L 194.257351 240.50812 
L 194.867298 240.590338 
L 196.087193 240.485599 
L 199.136928 240.583106 
L 199.746876 240.547917 
L 200.356823 240.38371 
L 200.96677 240.339861 
L 202.796611 240.575748 
L 204.016506 240.599299 
L 204.626453 240.746065 
L 207.676189 240.762663 
L 208.286136 240.968128 
L 208.896083 240.994242 
L 209.50603 240.662535 
L 210.115977 240.541857 
L 211.335872 240.786183 
L 212.555766 240.893597 
L 213.165713 240.9716 
L 213.77566 240.675202 
L 214.385608 240.596481 
L 214.995555 240.876003 
L 215.605502 240.87447 
L 216.825396 240.676553 
L 219.265185 241.000463 
L 221.095026 240.696177 
L 221.704974 240.829716 
L 225.974604 240.476052 
L 226.584551 240.613736 
L 227.194498 240.878006 
L 227.804445 240.996564 
L 229.634287 240.788219 
L 230.854181 240.394243 
L 231.464128 240.459305 
L 233.29397 241.154678 
L 233.903917 241.176075 
L 235.733758 240.856229 
L 238.173547 241.263219 
L 238.783494 240.932627 
L 240.003389 240.651022 
L 240.613336 240.674522 
L 241.223283 240.939417 
L 242.443177 240.930938 
L 243.663072 240.851852 
L 244.882966 240.979533 
L 246.712807 240.957263 
L 247.322755 241.02723 
L 247.932702 241.229358 
L 248.542649 241.263328 
L 249.762543 240.752468 
L 250.37249 240.82135 
L 251.592385 240.750841 
L 252.812279 241.289052 
L 253.422226 241.120118 
L 254.032173 241.090438 
L 255.252068 241.20479 
L 256.471962 241.168168 
L 257.691856 241.309197 
L 258.911751 241.20108 
L 260.131645 240.805673 
L 260.741592 240.889544 
L 261.351539 241.09412 
L 261.961487 241.137925 
L 263.181381 240.948665 
L 264.401275 241.175058 
L 265.011222 241.132016 
L 265.62117 240.851594 
L 266.231117 240.873487 
L 267.451011 241.231814 
L 268.060958 241.422019 
L 268.670905 241.408806 
L 270.500747 241.084015 
L 272.940536 241.121628 
L 274.770377 241.103182 
L 275.380324 241.055243 
L 279.040007 241.508213 
L 280.259902 241.096646 
L 280.869849 241.19122 
L 281.479796 241.399994 
L 282.69969 241.481469 
L 283.309637 241.418639 
L 283.919585 241.174261 
L 284.529532 241.085664 
L 285.749426 241.237805 
L 286.96932 241.601278 
L 287.579268 241.61541 
L 288.189215 241.300846 
L 288.799162 241.233796 
L 290.019056 241.484994 
L 290.629003 241.555495 
L 291.848898 241.3827 
L 294.288686 241.510597 
L 294.898634 241.437257 
L 296.728475 241.620666 
L 297.338422 241.299505 
L 297.948369 241.135087 
L 298.558317 241.120286 
L 299.778211 241.298169 
L 300.388158 241.185547 
L 301.608052 241.41334 
L 302.827947 241.839488 
L 305.877683 241.814751 
L 307.097577 241.274318 
L 307.707524 241.303496 
L 308.317471 241.516183 
L 308.927418 241.571581 
L 310.147313 241.418323 
L 310.75726 241.414381 
L 311.977154 241.707407 
L 312.587101 241.687626 
L 313.806996 241.352929 
L 315.02689 241.510852 
L 315.636837 241.726736 
L 316.246784 241.519857 
L 316.856732 241.116037 
L 317.466679 241.132503 
L 318.686573 241.448323 
L 319.906467 241.650206 
L 321.126362 241.91658 
L 322.956203 241.61898 
L 323.56615 241.360656 
L 324.176098 241.371376 
L 324.786045 241.611709 
L 325.395992 241.6217 
L 326.005939 241.506624 
L 326.615886 241.507188 
L 327.835781 241.726605 
L 329.055675 241.574399 
L 330.885516 241.644544 
L 331.495464 241.539781 
L 332.105411 241.554203 
L 333.325305 241.885149 
L 334.545199 241.783924 
L 335.155147 241.842178 
L 336.375041 241.459104 
L 336.984988 241.541494 
L 337.594935 241.745525 
L 338.81483 241.805517 
L 340.034724 241.702819 
L 340.644671 241.817563 
L 341.864565 241.671903 
L 343.08446 241.777304 
L 343.694407 241.503458 
L 344.304354 241.424029 
L 346.744143 241.929195 
L 347.35409 241.906694 
L 347.964037 241.744319 
L 349.183931 241.633509 
L 350.403826 241.456942 
L 353.453562 242.040719 
L 354.063509 242.038754 
L 354.673456 241.918902 
L 355.283403 241.589746 
L 355.89335 241.558732 
L 357.723192 241.966895 
L 358.333139 241.860629 
L 358.943086 241.61172 
L 359.553033 241.683088 
L 360.162981 241.869277 
L 362.602769 242.052058 
L 363.212716 242.010406 
L 363.822664 241.78189 
L 365.042558 241.786423 
L 366.262452 241.924637 
L 366.872399 242.093026 
L 368.092294 242.047346 
L 368.702241 241.834442 
L 370.532082 241.783479 
L 373.581818 241.876709 
L 373.581818 241.876709 
" style="fill:none;stroke:#4c72b0;stroke-linecap:round;stroke-width:1.5;"/>
   </g>
   <g id="line2d_17">
    <path clip-path="url(#p5025cb2621)" d="M 69.218182 45.966034 
L 70.438076 53.010809 
L 75.317653 83.556945 
L 78.977336 104.803413 
L 82.637019 124.452896 
L 86.296702 142.571376 
L 89.346438 156.512686 
L 92.396174 169.342221 
L 95.44591 181.115911 
L 98.495646 191.814643 
L 101.545382 201.546483 
L 104.595118 210.170628 
L 107.034906 216.184289 
L 108.864748 220.331671 
L 110.694589 224.057669 
L 111.914484 226.154072 
L 113.744325 229.058021 
L 114.964219 230.653591 
L 116.184114 231.996807 
L 117.404008 233.183738 
L 118.623902 234.452618 
L 119.843797 235.556876 
L 121.673638 236.918132 
L 122.893533 237.500894 
L 123.50348 237.46843 
L 124.113427 237.557353 
L 124.723374 237.92291 
L 125.333321 238.432091 
L 127.163163 238.874269 
L 127.77311 238.783491 
L 128.383057 238.552701 
L 128.993004 238.978496 
L 130.822846 239.075052 
L 132.04274 239.439317 
L 132.652687 238.970833 
L 133.262634 239.358058 
L 134.482529 239.415605 
L 135.702423 238.998198 
L 136.31237 239.080406 
L 136.922317 239.033699 
L 137.532265 239.175611 
L 138.142212 239.496629 
L 139.362106 238.971269 
L 140.582 239.293977 
L 141.191948 239.568677 
L 141.801895 239.614746 
L 142.411842 239.438765 
L 143.021789 239.457487 
L 143.631736 239.273336 
L 144.851631 239.811624 
L 145.461578 239.71357 
L 146.071525 239.458803 
L 146.681472 238.895854 
L 147.291419 238.964547 
L 149.121261 239.569267 
L 150.951102 239.853831 
L 154.000838 239.903593 
L 155.220732 239.525788 
L 155.83068 239.410355 
L 158.880415 240.005178 
L 160.710257 240.105262 
L 161.320204 240.186641 
L 161.930151 240.055035 
L 162.540098 239.719319 
L 163.759993 239.69227 
L 165.589834 240.043616 
L 166.809729 240.094763 
L 168.63957 239.700145 
L 171.689306 239.908593 
L 172.299253 240.05248 
L 172.9092 239.811343 
L 173.519147 239.901504 
L 174.129095 240.164439 
L 174.739042 239.954585 
L 175.348989 239.561184 
L 175.958936 239.669908 
L 176.568883 239.993273 
L 177.17883 240.047359 
L 178.398725 239.871088 
L 179.618619 240.093056 
L 180.838513 240.219454 
L 181.448461 239.951237 
L 182.668355 240.103439 
L 183.278302 239.914173 
L 185.718091 240.214858 
L 186.328038 240.340672 
L 188.767827 240.018233 
L 191.207615 240.36696 
L 191.817562 240.335924 
L 192.42751 240.526847 
L 193.647404 240.096833 
L 194.257351 240.385049 
L 195.477245 240.377043 
L 196.087193 240.153809 
L 197.307087 240.251286 
L 199.136928 240.592692 
L 200.96677 240.130764 
L 201.576717 240.199992 
L 202.186664 240.522256 
L 202.796611 240.611637 
L 205.846347 240.463624 
L 206.456294 240.272315 
L 207.676189 240.756682 
L 208.286136 240.922183 
L 208.896083 240.732695 
L 209.50603 240.072281 
L 211.335872 240.690313 
L 211.945819 240.699855 
L 212.555766 240.873091 
L 213.165713 240.866255 
L 213.77566 240.315464 
L 214.385608 240.361898 
L 214.995555 240.723764 
L 216.825396 240.385468 
L 217.435343 240.449288 
L 218.045291 240.335035 
L 218.655238 240.8523 
L 219.265185 241.003269 
L 220.485079 240.633263 
L 222.314921 240.734393 
L 222.924868 240.537634 
L 223.534815 240.522278 
L 224.144762 240.738795 
L 225.974604 240.472549 
L 226.584551 240.6291 
L 227.194498 240.98012 
L 227.804445 241.005379 
L 229.02434 240.454323 
L 230.244234 240.134645 
L 230.854181 240.162878 
L 232.074075 240.471385 
L 233.29397 241.04586 
L 233.903917 240.93539 
L 234.513864 240.635492 
L 235.123811 240.555603 
L 238.173547 241.116727 
L 238.783494 240.650695 
L 239.393441 240.430568 
L 240.613336 240.482268 
L 241.223283 240.727656 
L 243.663072 240.628357 
L 244.273019 240.906372 
L 246.10286 240.860481 
L 247.322755 240.99924 
L 247.932702 241.276108 
L 248.542649 241.043197 
L 249.152596 240.663669 
L 249.762543 240.569938 
L 250.37249 240.637577 
L 250.982438 240.242977 
L 251.592385 240.337216 
L 252.202332 240.872705 
L 252.812279 241.135414 
L 253.422226 240.707287 
L 254.642121 241.034186 
L 255.862015 241.137945 
L 256.471962 240.920945 
L 257.081909 241.11933 
L 257.691856 240.946657 
L 258.911751 240.850129 
L 260.131645 240.3937 
L 261.351539 241.069965 
L 261.961487 241.028639 
L 262.571434 240.863861 
L 263.181381 240.903415 
L 263.791328 241.226882 
L 264.401275 241.226033 
L 265.62117 240.799539 
L 266.841064 241.228261 
L 267.451011 240.969133 
L 268.060958 241.162977 
L 268.670905 241.080532 
L 269.280853 240.859865 
L 270.500747 240.81359 
L 271.110694 240.943776 
L 273.550483 241.010226 
L 274.770377 241.031145 
L 275.380324 240.932297 
L 275.990271 241.036199 
L 276.600219 241.331465 
L 277.210166 241.430452 
L 277.820113 241.331354 
L 279.040007 241.374917 
L 279.649954 241.045147 
L 280.259902 240.938152 
L 281.479796 241.352889 
L 282.089743 241.407047 
L 282.69969 241.247137 
L 283.309637 240.831835 
L 283.919585 240.617314 
L 284.529532 240.792922 
L 285.749426 240.8475 
L 286.359373 241.326547 
L 286.96932 241.510764 
L 287.579268 241.458399 
L 288.189215 241.152128 
L 290.629003 241.489731 
L 291.238951 241.397628 
L 291.848898 241.129543 
L 292.458845 241.428645 
L 293.068792 241.383835 
L 293.678739 241.210848 
L 294.288686 241.287048 
L 294.898634 241.16669 
L 296.118528 241.352019 
L 296.728475 241.350725 
L 297.338422 240.524611 
L 297.948369 240.366931 
L 298.558317 240.585874 
L 299.168264 241.020089 
L 300.998105 241.090023 
L 302.218 241.650947 
L 302.827947 241.694032 
L 303.437894 241.469061 
L 305.877683 241.56937 
L 307.097577 240.711354 
L 308.317471 241.311865 
L 310.147313 241.232306 
L 310.75726 241.198201 
L 311.367207 241.360958 
L 311.977154 241.647541 
L 313.806996 241.071456 
L 314.416943 241.148282 
L 315.636837 241.678371 
L 316.856732 240.640659 
L 318.686573 241.126114 
L 321.126362 241.740489 
L 322.346256 241.63335 
L 322.956203 241.414749 
L 323.56615 241.048792 
L 324.786045 241.373912 
L 325.395992 241.056579 
L 326.615886 240.931657 
L 327.225833 241.30269 
L 327.835781 241.52919 
L 329.665622 241.404664 
L 330.275569 241.665678 
L 330.885516 241.467795 
L 331.495464 241.391945 
L 332.715358 241.811834 
L 334.545199 241.676253 
L 336.375041 241.346451 
L 337.594935 241.802356 
L 338.204882 241.799168 
L 339.424777 241.590624 
L 340.644671 241.806603 
L 341.254618 241.436879 
L 342.474513 241.726506 
L 343.08446 241.667598 
L 343.694407 241.205552 
L 344.304354 241.100529 
L 346.744143 241.865923 
L 347.964037 241.657071 
L 348.573984 241.522843 
L 349.183931 241.257304 
L 350.403826 241.309423 
L 351.62372 241.731845 
L 354.063509 241.95933 
L 355.283403 241.242539 
L 356.503298 241.587748 
L 357.113245 241.890027 
L 357.723192 241.934215 
L 358.943086 241.396807 
L 360.162981 241.683787 
L 361.382875 241.91671 
L 361.992822 241.874069 
L 362.602769 241.989254 
L 363.822664 241.454553 
L 365.042558 241.585881 
L 366.262452 241.884976 
L 367.482347 242.0316 
L 368.702241 241.57519 
L 369.312188 241.680456 
L 372.971871 241.46329 
L 373.581818 241.214038 
L 373.581818 241.214038 
" style="fill:none;stroke:#dd8452;stroke-linecap:round;stroke-width:1.5;"/>
   </g>
   <g id="patch_3">
    <path d="M 54 252 
L 54 34.56 
" style="fill:none;stroke:#ffffff;stroke-linecap:square;stroke-linejoin:miter;stroke-width:1.25;"/>
   </g>
   <g id="patch_4">
    <path d="M 388.8 252 
L 388.8 34.56 
" style="fill:none;stroke:#ffffff;stroke-linecap:square;stroke-linejoin:miter;stroke-width:1.25;"/>
   </g>
   <g id="patch_5">
    <path d="M 54 252 
L 388.8 252 
" style="fill:none;stroke:#ffffff;stroke-linecap:square;stroke-linejoin:miter;stroke-width:1.25;"/>
   </g>
   <g id="patch_6">
    <path d="M 54 34.56 
L 388.8 34.56 
" style="fill:none;stroke:#ffffff;stroke-linecap:square;stroke-linejoin:miter;stroke-width:1.25;"/>
   </g>
   <g id="legend_1">
    <g id="patch_7">
     <path d="M 291.742188 75.651875 
L 381.1 75.651875 
Q 383.3 75.651875 383.3 73.451875 
L 383.3 42.26 
Q 383.3 40.06 381.1 40.06 
L 291.742188 40.06 
Q 289.542188 40.06 289.542188 42.26 
L 289.542188 73.451875 
Q 289.542188 75.651875 291.742188 75.651875 
z
" style="fill:#eaeaf2;opacity:0.8;stroke:#cccccc;stroke-linejoin:miter;"/>
    </g>
    <g id="line2d_18">
     <path d="M 293.942187 48.968281 
L 315.942187 48.968281 
" style="fill:none;stroke:#4c72b0;stroke-linecap:round;stroke-width:1.5;"/>
    </g>
    <g id="line2d_19"/>
    <g id="text_18">
     <!-- training -->
     <defs>
      <path d="M 18.3125 70.21875 
L 18.3125 54.6875 
L 36.8125 54.6875 
L 36.8125 47.703125 
L 18.3125 47.703125 
L 18.3125 18.015625 
Q 18.3125 11.328125 20.140625 9.421875 
Q 21.96875 7.515625 27.59375 7.515625 
L 36.8125 7.515625 
L 36.8125 0 
L 27.59375 0 
Q 17.1875 0 13.234375 3.875 
Q 9.28125 7.765625 9.28125 18.015625 
L 9.28125 47.703125 
L 2.6875 47.703125 
L 2.6875 54.6875 
L 9.28125 54.6875 
L 9.28125 70.21875 
z
" id="DejaVuSans-116"/>
      <path d="M 41.109375 46.296875 
Q 39.59375 47.171875 37.8125 47.578125 
Q 36.03125 48 33.890625 48 
Q 26.265625 48 22.1875 43.046875 
Q 18.109375 38.09375 18.109375 28.8125 
L 18.109375 0 
L 9.078125 0 
L 9.078125 54.6875 
L 18.109375 54.6875 
L 18.109375 46.1875 
Q 20.953125 51.171875 25.484375 53.578125 
Q 30.03125 56 36.53125 56 
Q 37.453125 56 38.578125 55.875 
Q 39.703125 55.765625 41.0625 55.515625 
z
" id="DejaVuSans-114"/>
      <path d="M 34.28125 27.484375 
Q 23.390625 27.484375 19.1875 25 
Q 14.984375 22.515625 14.984375 16.5 
Q 14.984375 11.71875 18.140625 8.90625 
Q 21.296875 6.109375 26.703125 6.109375 
Q 34.1875 6.109375 38.703125 11.40625 
Q 43.21875 16.703125 43.21875 25.484375 
L 43.21875 27.484375 
z
M 52.203125 31.203125 
L 52.203125 0 
L 43.21875 0 
L 43.21875 8.296875 
Q 40.140625 3.328125 35.546875 0.953125 
Q 30.953125 -1.421875 24.3125 -1.421875 
Q 15.921875 -1.421875 10.953125 3.296875 
Q 6 8.015625 6 15.921875 
Q 6 25.140625 12.171875 29.828125 
Q 18.359375 34.515625 30.609375 34.515625 
L 43.21875 34.515625 
L 43.21875 35.40625 
Q 43.21875 41.609375 39.140625 45 
Q 35.0625 48.390625 27.6875 48.390625 
Q 23 48.390625 18.546875 47.265625 
Q 14.109375 46.140625 10.015625 43.890625 
L 10.015625 52.203125 
Q 14.9375 54.109375 19.578125 55.046875 
Q 24.21875 56 28.609375 56 
Q 40.484375 56 46.34375 49.84375 
Q 52.203125 43.703125 52.203125 31.203125 
z
" id="DejaVuSans-97"/>
      <path d="M 9.421875 54.6875 
L 18.40625 54.6875 
L 18.40625 0 
L 9.421875 0 
z
M 9.421875 75.984375 
L 18.40625 75.984375 
L 18.40625 64.59375 
L 9.421875 64.59375 
z
" id="DejaVuSans-105"/>
      <path d="M 54.890625 33.015625 
L 54.890625 0 
L 45.90625 0 
L 45.90625 32.71875 
Q 45.90625 40.484375 42.875 44.328125 
Q 39.84375 48.1875 33.796875 48.1875 
Q 26.515625 48.1875 22.3125 43.546875 
Q 18.109375 38.921875 18.109375 30.90625 
L 18.109375 0 
L 9.078125 0 
L 9.078125 54.6875 
L 18.109375 54.6875 
L 18.109375 46.1875 
Q 21.34375 51.125 25.703125 53.5625 
Q 30.078125 56 35.796875 56 
Q 45.21875 56 50.046875 50.171875 
Q 54.890625 44.34375 54.890625 33.015625 
z
" id="DejaVuSans-110"/>
      <path d="M 45.40625 27.984375 
Q 45.40625 37.75 41.375 43.109375 
Q 37.359375 48.484375 30.078125 48.484375 
Q 22.859375 48.484375 18.828125 43.109375 
Q 14.796875 37.75 14.796875 27.984375 
Q 14.796875 18.265625 18.828125 12.890625 
Q 22.859375 7.515625 30.078125 7.515625 
Q 37.359375 7.515625 41.375 12.890625 
Q 45.40625 18.265625 45.40625 27.984375 
z
M 54.390625 6.78125 
Q 54.390625 -7.171875 48.1875 -13.984375 
Q 42 -20.796875 29.203125 -20.796875 
Q 24.46875 -20.796875 20.265625 -20.09375 
Q 16.0625 -19.390625 12.109375 -17.921875 
L 12.109375 -9.1875 
Q 16.0625 -11.328125 19.921875 -12.34375 
Q 23.78125 -13.375 27.78125 -13.375 
Q 36.625 -13.375 41.015625 -8.765625 
Q 45.40625 -4.15625 45.40625 5.171875 
L 45.40625 9.625 
Q 42.625 4.78125 38.28125 2.390625 
Q 33.9375 0 27.875 0 
Q 17.828125 0 11.671875 7.65625 
Q 5.515625 15.328125 5.515625 27.984375 
Q 5.515625 40.671875 11.671875 48.328125 
Q 17.828125 56 27.875 56 
Q 33.9375 56 38.28125 53.609375 
Q 42.625 51.21875 45.40625 46.390625 
L 45.40625 54.6875 
L 54.390625 54.6875 
z
" id="DejaVuSans-103"/>
     </defs>
     <g style="fill:#262626;" transform="translate(324.742188 52.818281)scale(0.11 -0.11)">
      <use xlink:href="#DejaVuSans-116"/>
      <use x="39.208984" xlink:href="#DejaVuSans-114"/>
      <use x="80.322266" xlink:href="#DejaVuSans-97"/>
      <use x="141.601562" xlink:href="#DejaVuSans-105"/>
      <use x="169.384766" xlink:href="#DejaVuSans-110"/>
      <use x="232.763672" xlink:href="#DejaVuSans-105"/>
      <use x="260.546875" xlink:href="#DejaVuSans-110"/>
      <use x="323.925781" xlink:href="#DejaVuSans-103"/>
     </g>
    </g>
    <g id="line2d_20">
     <path d="M 293.942187 65.114219 
L 315.942187 65.114219 
" style="fill:none;stroke:#dd8452;stroke-linecap:round;stroke-width:1.5;"/>
    </g>
    <g id="line2d_21"/>
    <g id="text_19">
     <!-- validation -->
     <defs>
      <path d="M 2.984375 54.6875 
L 12.5 54.6875 
L 29.59375 8.796875 
L 46.6875 54.6875 
L 56.203125 54.6875 
L 35.6875 0 
L 23.484375 0 
z
" id="DejaVuSans-118"/>
      <path d="M 9.421875 75.984375 
L 18.40625 75.984375 
L 18.40625 0 
L 9.421875 0 
z
" id="DejaVuSans-108"/>
      <path d="M 45.40625 46.390625 
L 45.40625 75.984375 
L 54.390625 75.984375 
L 54.390625 0 
L 45.40625 0 
L 45.40625 8.203125 
Q 42.578125 3.328125 38.25 0.953125 
Q 33.9375 -1.421875 27.875 -1.421875 
Q 17.96875 -1.421875 11.734375 6.484375 
Q 5.515625 14.40625 5.515625 27.296875 
Q 5.515625 40.1875 11.734375 48.09375 
Q 17.96875 56 27.875 56 
Q 33.9375 56 38.25 53.625 
Q 42.578125 51.265625 45.40625 46.390625 
z
M 14.796875 27.296875 
Q 14.796875 17.390625 18.875 11.75 
Q 22.953125 6.109375 30.078125 6.109375 
Q 37.203125 6.109375 41.296875 11.75 
Q 45.40625 17.390625 45.40625 27.296875 
Q 45.40625 37.203125 41.296875 42.84375 
Q 37.203125 48.484375 30.078125 48.484375 
Q 22.953125 48.484375 18.875 42.84375 
Q 14.796875 37.203125 14.796875 27.296875 
z
" id="DejaVuSans-100"/>
     </defs>
     <g style="fill:#262626;" transform="translate(324.742188 68.964219)scale(0.11 -0.11)">
      <use xlink:href="#DejaVuSans-118"/>
      <use x="59.179688" xlink:href="#DejaVuSans-97"/>
      <use x="120.458984" xlink:href="#DejaVuSans-108"/>
      <use x="148.242188" xlink:href="#DejaVuSans-105"/>
      <use x="176.025391" xlink:href="#DejaVuSans-100"/>
      <use x="239.501953" xlink:href="#DejaVuSans-97"/>
      <use x="300.78125" xlink:href="#DejaVuSans-116"/>
      <use x="339.990234" xlink:href="#DejaVuSans-105"/>
      <use x="367.773438" xlink:href="#DejaVuSans-111"/>
      <use x="428.955078" xlink:href="#DejaVuSans-110"/>
     </g>
    </g>
   </g>
  </g>
 </g>
 <defs>
  <clipPath id="p5025cb2621">
   <rect height="217.44" width="334.8" x="54" y="34.56"/>
  </clipPath>
 </defs>
</svg>
