<?xml version="1.0" encoding="utf-8" standalone="no"?>
<!DOCTYPE svg PUBLIC "-//W3C//DTD SVG 1.1//EN"
  "http://www.w3.org/Graphics/SVG/1.1/DTD/svg11.dtd">
<!-- Created with matplotlib (https://matplotlib.org/) -->
<svg height="288pt" version="1.1" viewBox="0 0 432 288" width="432pt" xmlns="http://www.w3.org/2000/svg" xmlns:xlink="http://www.w3.org/1999/xlink">
 <defs>
  <style type="text/css">
*{stroke-linecap:butt;stroke-linejoin:round;}
  </style>
 </defs>
 <g id="figure_1">
  <g id="patch_1">
   <path d="M 0 288 
L 432 288 
L 432 0 
L 0 0 
z
" style="fill:#ffffff;"/>
  </g>
  <g id="axes_1">
   <g id="patch_2">
    <path d="M 54 252 
L 388.8 252 
L 388.8 34.56 
L 54 34.56 
z
" style="fill:#eaeaf2;"/>
   </g>
   <g id="matplotlib.axis_1">
    <g id="xtick_1">
     <g id="line2d_1">
      <path clip-path="url(#p68239a81d7)" d="M 69.218182 252 
L 69.218182 34.56 
" style="fill:none;stroke:#ffffff;stroke-linecap:round;"/>
     </g>
     <g id="text_1">
      <!-- 0 -->
      <defs>
       <path d="M 31.78125 66.40625 
Q 24.171875 66.40625 20.328125 58.90625 
Q 16.5 51.421875 16.5 36.375 
Q 16.5 21.390625 20.328125 13.890625 
Q 24.171875 6.390625 31.78125 6.390625 
Q 39.453125 6.390625 43.28125 13.890625 
Q 47.125 21.390625 47.125 36.375 
Q 47.125 51.421875 43.28125 58.90625 
Q 39.453125 66.40625 31.78125 66.40625 
z
M 31.78125 74.21875 
Q 44.046875 74.21875 50.515625 64.515625 
Q 56.984375 54.828125 56.984375 36.375 
Q 56.984375 17.96875 50.515625 8.265625 
Q 44.046875 -1.421875 31.78125 -1.421875 
Q 19.53125 -1.421875 13.0625 8.265625 
Q 6.59375 17.96875 6.59375 36.375 
Q 6.59375 54.828125 13.0625 64.515625 
Q 19.53125 74.21875 31.78125 74.21875 
z
" id="DejaVuSans-48"/>
      </defs>
      <g style="fill:#262626;" transform="translate(65.718807 269.858281)scale(0.11 -0.11)">
       <use xlink:href="#DejaVuSans-48"/>
      </g>
     </g>
    </g>
    <g id="xtick_2">
     <g id="line2d_2">
      <path clip-path="url(#p68239a81d7)" d="M 143.092851 252 
L 143.092851 34.56 
" style="fill:none;stroke:#ffffff;stroke-linecap:round;"/>
     </g>
     <g id="text_2">
      <!-- 50 -->
      <defs>
       <path d="M 10.796875 72.90625 
L 49.515625 72.90625 
L 49.515625 64.59375 
L 19.828125 64.59375 
L 19.828125 46.734375 
Q 21.96875 47.46875 24.109375 47.828125 
Q 26.265625 48.1875 28.421875 48.1875 
Q 40.625 48.1875 47.75 41.5 
Q 54.890625 34.8125 54.890625 23.390625 
Q 54.890625 11.625 47.5625 5.09375 
Q 40.234375 -1.421875 26.90625 -1.421875 
Q 22.3125 -1.421875 17.546875 -0.640625 
Q 12.796875 0.140625 7.71875 1.703125 
L 7.71875 11.625 
Q 12.109375 9.234375 16.796875 8.0625 
Q 21.484375 6.890625 26.703125 6.890625 
Q 35.15625 6.890625 40.078125 11.328125 
Q 45.015625 15.765625 45.015625 23.390625 
Q 45.015625 31 40.078125 35.4375 
Q 35.15625 39.890625 26.703125 39.890625 
Q 22.75 39.890625 18.8125 39.015625 
Q 14.890625 38.140625 10.796875 36.28125 
z
" id="DejaVuSans-53"/>
      </defs>
      <g style="fill:#262626;" transform="translate(136.094101 269.858281)scale(0.11 -0.11)">
       <use xlink:href="#DejaVuSans-53"/>
       <use x="63.623047" xlink:href="#DejaVuSans-48"/>
      </g>
     </g>
    </g>
    <g id="xtick_3">
     <g id="line2d_3">
      <path clip-path="url(#p68239a81d7)" d="M 216.96752 252 
L 216.96752 34.56 
" style="fill:none;stroke:#ffffff;stroke-linecap:round;"/>
     </g>
     <g id="text_3">
      <!-- 100 -->
      <defs>
       <path d="M 12.40625 8.296875 
L 28.515625 8.296875 
L 28.515625 63.921875 
L 10.984375 60.40625 
L 10.984375 69.390625 
L 28.421875 72.90625 
L 38.28125 72.90625 
L 38.28125 8.296875 
L 54.390625 8.296875 
L 54.390625 0 
L 12.40625 0 
z
" id="DejaVuSans-49"/>
      </defs>
      <g style="fill:#262626;" transform="translate(206.469395 269.858281)scale(0.11 -0.11)">
       <use xlink:href="#DejaVuSans-49"/>
       <use x="63.623047" xlink:href="#DejaVuSans-48"/>
       <use x="127.246094" xlink:href="#DejaVuSans-48"/>
      </g>
     </g>
    </g>
    <g id="xtick_4">
     <g id="line2d_4">
      <path clip-path="url(#p68239a81d7)" d="M 290.842189 252 
L 290.842189 34.56 
" style="fill:none;stroke:#ffffff;stroke-linecap:round;"/>
     </g>
     <g id="text_4">
      <!-- 150 -->
      <g style="fill:#262626;" transform="translate(280.344064 269.858281)scale(0.11 -0.11)">
       <use xlink:href="#DejaVuSans-49"/>
       <use x="63.623047" xlink:href="#DejaVuSans-53"/>
       <use x="127.246094" xlink:href="#DejaVuSans-48"/>
      </g>
     </g>
    </g>
    <g id="xtick_5">
     <g id="line2d_5">
      <path clip-path="url(#p68239a81d7)" d="M 364.716858 252 
L 364.716858 34.56 
" style="fill:none;stroke:#ffffff;stroke-linecap:round;"/>
     </g>
     <g id="text_5">
      <!-- 200 -->
      <defs>
       <path d="M 19.1875 8.296875 
L 53.609375 8.296875 
L 53.609375 0 
L 7.328125 0 
L 7.328125 8.296875 
Q 12.9375 14.109375 22.625 23.890625 
Q 32.328125 33.6875 34.8125 36.53125 
Q 39.546875 41.84375 41.421875 45.53125 
Q 43.3125 49.21875 43.3125 52.78125 
Q 43.3125 58.59375 39.234375 62.25 
Q 35.15625 65.921875 28.609375 65.921875 
Q 23.96875 65.921875 18.8125 64.3125 
Q 13.671875 62.703125 7.8125 59.421875 
L 7.8125 69.390625 
Q 13.765625 71.78125 18.9375 73 
Q 24.125 74.21875 28.421875 74.21875 
Q 39.75 74.21875 46.484375 68.546875 
Q 53.21875 62.890625 53.21875 53.421875 
Q 53.21875 48.921875 51.53125 44.890625 
Q 49.859375 40.875 45.40625 35.40625 
Q 44.1875 33.984375 37.640625 27.21875 
Q 31.109375 20.453125 19.1875 8.296875 
z
" id="DejaVuSans-50"/>
      </defs>
      <g style="fill:#262626;" transform="translate(354.218733 269.858281)scale(0.11 -0.11)">
       <use xlink:href="#DejaVuSans-50"/>
       <use x="63.623047" xlink:href="#DejaVuSans-48"/>
       <use x="127.246094" xlink:href="#DejaVuSans-48"/>
      </g>
     </g>
    </g>
    <g id="text_6">
     <!-- Epoch -->
     <defs>
      <path d="M 9.8125 72.90625 
L 55.90625 72.90625 
L 55.90625 64.59375 
L 19.671875 64.59375 
L 19.671875 43.015625 
L 54.390625 43.015625 
L 54.390625 34.71875 
L 19.671875 34.71875 
L 19.671875 8.296875 
L 56.78125 8.296875 
L 56.78125 0 
L 9.8125 0 
z
" id="DejaVuSans-69"/>
      <path d="M 18.109375 8.203125 
L 18.109375 -20.796875 
L 9.078125 -20.796875 
L 9.078125 54.6875 
L 18.109375 54.6875 
L 18.109375 46.390625 
Q 20.953125 51.265625 25.265625 53.625 
Q 29.59375 56 35.59375 56 
Q 45.5625 56 51.78125 48.09375 
Q 58.015625 40.1875 58.015625 27.296875 
Q 58.015625 14.40625 51.78125 6.484375 
Q 45.5625 -1.421875 35.59375 -1.421875 
Q 29.59375 -1.421875 25.265625 0.953125 
Q 20.953125 3.328125 18.109375 8.203125 
z
M 48.6875 27.296875 
Q 48.6875 37.203125 44.609375 42.84375 
Q 40.53125 48.484375 33.40625 48.484375 
Q 26.265625 48.484375 22.1875 42.84375 
Q 18.109375 37.203125 18.109375 27.296875 
Q 18.109375 17.390625 22.1875 11.75 
Q 26.265625 6.109375 33.40625 6.109375 
Q 40.53125 6.109375 44.609375 11.75 
Q 48.6875 17.390625 48.6875 27.296875 
z
" id="DejaVuSans-112"/>
      <path d="M 30.609375 48.390625 
Q 23.390625 48.390625 19.1875 42.75 
Q 14.984375 37.109375 14.984375 27.296875 
Q 14.984375 17.484375 19.15625 11.84375 
Q 23.34375 6.203125 30.609375 6.203125 
Q 37.796875 6.203125 41.984375 11.859375 
Q 46.1875 17.53125 46.1875 27.296875 
Q 46.1875 37.015625 41.984375 42.703125 
Q 37.796875 48.390625 30.609375 48.390625 
z
M 30.609375 56 
Q 42.328125 56 49.015625 48.375 
Q 55.71875 40.765625 55.71875 27.296875 
Q 55.71875 13.875 49.015625 6.21875 
Q 42.328125 -1.421875 30.609375 -1.421875 
Q 18.84375 -1.421875 12.171875 6.21875 
Q 5.515625 13.875 5.515625 27.296875 
Q 5.515625 40.765625 12.171875 48.375 
Q 18.84375 56 30.609375 56 
z
" id="DejaVuSans-111"/>
      <path d="M 48.78125 52.59375 
L 48.78125 44.1875 
Q 44.96875 46.296875 41.140625 47.34375 
Q 37.3125 48.390625 33.40625 48.390625 
Q 24.65625 48.390625 19.8125 42.84375 
Q 14.984375 37.3125 14.984375 27.296875 
Q 14.984375 17.28125 19.8125 11.734375 
Q 24.65625 6.203125 33.40625 6.203125 
Q 37.3125 6.203125 41.140625 7.25 
Q 44.96875 8.296875 48.78125 10.40625 
L 48.78125 2.09375 
Q 45.015625 0.34375 40.984375 -0.53125 
Q 36.96875 -1.421875 32.421875 -1.421875 
Q 20.0625 -1.421875 12.78125 6.34375 
Q 5.515625 14.109375 5.515625 27.296875 
Q 5.515625 40.671875 12.859375 48.328125 
Q 20.21875 56 33.015625 56 
Q 37.15625 56 41.109375 55.140625 
Q 45.0625 54.296875 48.78125 52.59375 
z
" id="DejaVuSans-99"/>
      <path d="M 54.890625 33.015625 
L 54.890625 0 
L 45.90625 0 
L 45.90625 32.71875 
Q 45.90625 40.484375 42.875 44.328125 
Q 39.84375 48.1875 33.796875 48.1875 
Q 26.515625 48.1875 22.3125 43.546875 
Q 18.109375 38.921875 18.109375 30.90625 
L 18.109375 0 
L 9.078125 0 
L 9.078125 75.984375 
L 18.109375 75.984375 
L 18.109375 46.1875 
Q 21.34375 51.125 25.703125 53.5625 
Q 30.078125 56 35.796875 56 
Q 45.21875 56 50.046875 50.171875 
Q 54.890625 44.34375 54.890625 33.015625 
z
" id="DejaVuSans-104"/>
     </defs>
     <g style="fill:#262626;" transform="translate(203.026875 285.264063)scale(0.12 -0.12)">
      <use xlink:href="#DejaVuSans-69"/>
      <use x="63.183594" xlink:href="#DejaVuSans-112"/>
      <use x="126.660156" xlink:href="#DejaVuSans-111"/>
      <use x="187.841797" xlink:href="#DejaVuSans-99"/>
      <use x="242.822266" xlink:href="#DejaVuSans-104"/>
     </g>
    </g>
   </g>
   <g id="matplotlib.axis_2">
    <g id="ytick_1">
     <g id="line2d_6">
      <path clip-path="url(#p68239a81d7)" d="M 54 210.52428 
L 388.8 210.52428 
" style="fill:none;stroke:#ffffff;stroke-linecap:round;"/>
     </g>
     <g id="text_7">
      <!-- 100 -->
      <g style="fill:#262626;" transform="translate(23.50375 214.70342)scale(0.11 -0.11)">
       <use xlink:href="#DejaVuSans-49"/>
       <use x="63.623047" xlink:href="#DejaVuSans-48"/>
       <use x="127.246094" xlink:href="#DejaVuSans-48"/>
      </g>
     </g>
    </g>
    <g id="ytick_2">
     <g id="line2d_7">
      <path clip-path="url(#p68239a81d7)" d="M 54 166.574471 
L 388.8 166.574471 
" style="fill:none;stroke:#ffffff;stroke-linecap:round;"/>
     </g>
     <g id="text_8">
      <!-- 200 -->
      <g style="fill:#262626;" transform="translate(23.50375 170.753612)scale(0.11 -0.11)">
       <use xlink:href="#DejaVuSans-50"/>
       <use x="63.623047" xlink:href="#DejaVuSans-48"/>
       <use x="127.246094" xlink:href="#DejaVuSans-48"/>
      </g>
     </g>
    </g>
    <g id="ytick_3">
     <g id="line2d_8">
      <path clip-path="url(#p68239a81d7)" d="M 54 122.624663 
L 388.8 122.624663 
" style="fill:none;stroke:#ffffff;stroke-linecap:round;"/>
     </g>
     <g id="text_9">
      <!-- 300 -->
      <defs>
       <path d="M 40.578125 39.3125 
Q 47.65625 37.796875 51.625 33 
Q 55.609375 28.21875 55.609375 21.1875 
Q 55.609375 10.40625 48.1875 4.484375 
Q 40.765625 -1.421875 27.09375 -1.421875 
Q 22.515625 -1.421875 17.65625 -0.515625 
Q 12.796875 0.390625 7.625 2.203125 
L 7.625 11.71875 
Q 11.71875 9.328125 16.59375 8.109375 
Q 21.484375 6.890625 26.8125 6.890625 
Q 36.078125 6.890625 40.9375 10.546875 
Q 45.796875 14.203125 45.796875 21.1875 
Q 45.796875 27.640625 41.28125 31.265625 
Q 36.765625 34.90625 28.71875 34.90625 
L 20.21875 34.90625 
L 20.21875 43.015625 
L 29.109375 43.015625 
Q 36.375 43.015625 40.234375 45.921875 
Q 44.09375 48.828125 44.09375 54.296875 
Q 44.09375 59.90625 40.109375 62.90625 
Q 36.140625 65.921875 28.71875 65.921875 
Q 24.65625 65.921875 20.015625 65.03125 
Q 15.375 64.15625 9.8125 62.3125 
L 9.8125 71.09375 
Q 15.4375 72.65625 20.34375 73.4375 
Q 25.25 74.21875 29.59375 74.21875 
Q 40.828125 74.21875 47.359375 69.109375 
Q 53.90625 64.015625 53.90625 55.328125 
Q 53.90625 49.265625 50.4375 45.09375 
Q 46.96875 40.921875 40.578125 39.3125 
z
" id="DejaVuSans-51"/>
      </defs>
      <g style="fill:#262626;" transform="translate(23.50375 126.803804)scale(0.11 -0.11)">
       <use xlink:href="#DejaVuSans-51"/>
       <use x="63.623047" xlink:href="#DejaVuSans-48"/>
       <use x="127.246094" xlink:href="#DejaVuSans-48"/>
      </g>
     </g>
    </g>
    <g id="ytick_4">
     <g id="line2d_9">
      <path clip-path="url(#p68239a81d7)" d="M 54 78.674855 
L 388.8 78.674855 
" style="fill:none;stroke:#ffffff;stroke-linecap:round;"/>
     </g>
     <g id="text_10">
      <!-- 400 -->
      <defs>
       <path d="M 37.796875 64.3125 
L 12.890625 25.390625 
L 37.796875 25.390625 
z
M 35.203125 72.90625 
L 47.609375 72.90625 
L 47.609375 25.390625 
L 58.015625 25.390625 
L 58.015625 17.1875 
L 47.609375 17.1875 
L 47.609375 0 
L 37.796875 0 
L 37.796875 17.1875 
L 4.890625 17.1875 
L 4.890625 26.703125 
z
" id="DejaVuSans-52"/>
      </defs>
      <g style="fill:#262626;" transform="translate(23.50375 82.853996)scale(0.11 -0.11)">
       <use xlink:href="#DejaVuSans-52"/>
       <use x="63.623047" xlink:href="#DejaVuSans-48"/>
       <use x="127.246094" xlink:href="#DejaVuSans-48"/>
      </g>
     </g>
    </g>
    <g id="ytick_5">
     <g id="line2d_10">
      <path clip-path="url(#p68239a81d7)" d="M 54 34.725047 
L 388.8 34.725047 
" style="fill:none;stroke:#ffffff;stroke-linecap:round;"/>
     </g>
     <g id="text_11">
      <!-- 500 -->
      <g style="fill:#262626;" transform="translate(23.50375 38.904187)scale(0.11 -0.11)">
       <use xlink:href="#DejaVuSans-53"/>
       <use x="63.623047" xlink:href="#DejaVuSans-48"/>
       <use x="127.246094" xlink:href="#DejaVuSans-48"/>
      </g>
     </g>
    </g>
    <g id="text_12">
     <!-- Loss -->
     <defs>
      <path d="M 9.8125 72.90625 
L 19.671875 72.90625 
L 19.671875 8.296875 
L 55.171875 8.296875 
L 55.171875 0 
L 9.8125 0 
z
" id="DejaVuSans-76"/>
      <path d="M 44.28125 53.078125 
L 44.28125 44.578125 
Q 40.484375 46.53125 36.375 47.5 
Q 32.28125 48.484375 27.875 48.484375 
Q 21.1875 48.484375 17.84375 46.4375 
Q 14.5 44.390625 14.5 40.28125 
Q 14.5 37.15625 16.890625 35.375 
Q 19.28125 33.59375 26.515625 31.984375 
L 29.59375 31.296875 
Q 39.15625 29.25 43.1875 25.515625 
Q 47.21875 21.78125 47.21875 15.09375 
Q 47.21875 7.46875 41.1875 3.015625 
Q 35.15625 -1.421875 24.609375 -1.421875 
Q 20.21875 -1.421875 15.453125 -0.5625 
Q 10.6875 0.296875 5.421875 2 
L 5.421875 11.28125 
Q 10.40625 8.6875 15.234375 7.390625 
Q 20.0625 6.109375 24.8125 6.109375 
Q 31.15625 6.109375 34.5625 8.28125 
Q 37.984375 10.453125 37.984375 14.40625 
Q 37.984375 18.0625 35.515625 20.015625 
Q 33.0625 21.96875 24.703125 23.78125 
L 21.578125 24.515625 
Q 13.234375 26.265625 9.515625 29.90625 
Q 5.8125 33.546875 5.8125 39.890625 
Q 5.8125 47.609375 11.28125 51.796875 
Q 16.75 56 26.8125 56 
Q 31.78125 56 36.171875 55.265625 
Q 40.578125 54.546875 44.28125 53.078125 
z
" id="DejaVuSans-115"/>
     </defs>
     <g style="fill:#262626;" transform="translate(17.008125 156.440625)rotate(-90)scale(0.12 -0.12)">
      <use xlink:href="#DejaVuSans-76"/>
      <use x="53.962891" xlink:href="#DejaVuSans-111"/>
      <use x="115.144531" xlink:href="#DejaVuSans-115"/>
      <use x="167.244141" xlink:href="#DejaVuSans-115"/>
     </g>
    </g>
   </g>
   <g id="line2d_11">
    <path clip-path="url(#p68239a81d7)" d="M 69.218182 44.443636 
L 70.695675 162.290941 
L 72.173169 183.872776 
L 73.650662 192.094627 
L 75.128155 192.032502 
L 78.083142 205.997799 
L 81.038129 210.646605 
L 82.515622 208.110373 
L 83.993116 216.206343 
L 85.470609 217.865873 
L 86.948102 219.055861 
L 88.425596 220.388698 
L 89.903089 226.496132 
L 92.858076 228.129901 
L 94.335569 228.509014 
L 95.813063 228.710812 
L 97.290556 227.15709 
L 98.768049 229.751508 
L 100.245543 229.917322 
L 101.723036 231.557544 
L 103.20053 231.349585 
L 104.678023 230.309088 
L 106.155516 232.528891 
L 107.63301 232.324556 
L 109.110503 232.598641 
L 110.587996 230.218758 
L 112.06549 227.427178 
L 113.542983 227.661239 
L 115.020477 227.748999 
L 116.49797 228.795954 
L 117.975463 227.24194 
L 119.452957 231.817908 
L 120.93045 232.601242 
L 122.407944 232.423017 
L 123.885437 226.263959 
L 125.36293 225.218855 
L 126.840424 227.041332 
L 128.317917 228.214748 
L 129.79541 230.664629 
L 131.272904 231.26921 
L 132.750397 231.193069 
L 134.227891 230.967546 
L 135.705384 233.885594 
L 137.182877 229.660598 
L 138.660371 229.719758 
L 140.137864 229.417753 
L 141.615357 231.618683 
L 143.092851 234.961188 
L 144.570344 234.526163 
L 146.047838 231.112288 
L 147.525331 231.864543 
L 149.002824 232.742922 
L 150.480318 233.977678 
L 151.957811 234.806436 
L 153.435305 238.226141 
L 154.912798 235.791541 
L 156.390291 233.11718 
L 157.867785 235.024401 
L 159.345278 233.03264 
L 160.822771 233.957098 
L 162.300265 235.629828 
L 163.777758 230.553355 
L 166.732745 234.305816 
L 168.210238 229.596966 
L 169.687732 234.093353 
L 171.165225 234.797855 
L 172.642718 231.530584 
L 174.120212 234.212265 
L 175.597705 234.979709 
L 177.075199 234.813654 
L 178.552692 232.166821 
L 180.030185 230.41696 
L 181.507679 229.592494 
L 182.985172 227.507651 
L 184.462665 226.507921 
L 185.940159 230.425796 
L 187.417652 233.617214 
L 188.895146 232.428607 
L 190.372639 230.83579 
L 191.850132 228.636444 
L 193.327626 228.438372 
L 194.805119 231.571234 
L 196.282613 231.569716 
L 197.760106 231.896434 
L 199.237599 230.170668 
L 200.715093 231.936341 
L 202.192586 235.675288 
L 203.670079 238.046104 
L 205.147573 236.886537 
L 206.625066 237.624436 
L 208.10256 238.724557 
L 209.580053 239.272803 
L 211.057546 238.994471 
L 212.53504 237.436451 
L 214.012533 237.798274 
L 215.490026 236.516102 
L 216.96752 237.695072 
L 219.922507 236.065585 
L 221.4 237.463245 
L 222.877493 235.890637 
L 224.354987 238.00879 
L 225.83248 239.893436 
L 227.309974 241.231395 
L 228.787467 239.567902 
L 230.26496 237.528503 
L 231.742454 237.573352 
L 233.219947 237.88172 
L 234.69744 239.768586 
L 236.174934 239.771223 
L 237.652427 240.111576 
L 239.129921 238.316192 
L 240.607414 239.216405 
L 242.084907 238.084341 
L 243.562401 238.464115 
L 245.039894 238.045542 
L 246.517387 237.12522 
L 247.994881 238.62716 
L 249.472374 239.438681 
L 250.949868 239.317913 
L 252.427361 239.729527 
L 253.904854 238.226365 
L 255.382348 238.812544 
L 258.337335 239.633189 
L 261.292321 237.378984 
L 262.769815 237.740345 
L 264.247308 238.504503 
L 265.724801 236.967417 
L 267.202295 238.719128 
L 268.679788 237.157501 
L 270.157282 236.909433 
L 271.634775 237.979445 
L 273.112268 234.344609 
L 274.589762 235.71761 
L 276.067255 237.795378 
L 277.544748 235.535032 
L 279.022242 236.718873 
L 280.499735 238.085098 
L 281.977229 235.54243 
L 283.454722 234.170167 
L 284.932215 234.866366 
L 286.409709 229.151365 
L 287.887202 229.693418 
L 289.364695 232.90115 
L 290.842189 236.389302 
L 292.319682 236.176397 
L 293.797176 235.134853 
L 295.274669 232.569717 
L 296.752162 234.451113 
L 298.229656 231.8085 
L 299.707149 232.016259 
L 301.184643 233.297383 
L 302.662136 234.019561 
L 304.139629 233.447567 
L 305.617123 233.03605 
L 307.094616 234.064799 
L 308.572109 232.026392 
L 310.049603 232.591535 
L 311.527096 232.89096 
L 313.00459 235.574196 
L 314.482083 236.088299 
L 315.959576 233.632849 
L 317.43707 232.11867 
L 318.914563 231.469301 
L 320.392056 232.477679 
L 321.86955 233.213022 
L 323.347043 232.515809 
L 324.824537 234.520882 
L 326.30203 234.479549 
L 327.779523 231.412396 
L 329.257017 231.288546 
L 330.73451 230.287298 
L 332.212004 230.612419 
L 333.689497 234.154115 
L 335.16699 233.181151 
L 336.644484 234.206474 
L 338.121977 235.384169 
L 341.076964 233.939116 
L 342.554457 234.615238 
L 344.031951 235.723562 
L 345.509444 234.488821 
L 346.986937 234.063256 
L 348.464431 234.762196 
L 349.941924 236.407003 
L 351.419417 233.547413 
L 352.896911 233.395297 
L 354.374404 231.014167 
L 355.851898 231.7437 
L 357.329391 234.003052 
L 358.806884 232.028577 
L 361.761871 234.633558 
L 363.239365 233.340841 
L 364.716858 230.392022 
L 366.194351 230.134655 
L 367.671845 227.559381 
L 369.149338 228.624684 
L 370.626831 228.658505 
L 372.104325 229.3994 
L 373.581818 231.845709 
L 373.581818 231.845709 
" style="fill:none;stroke:#4c72b0;stroke-linecap:round;stroke-width:1.5;"/>
   </g>
   <g id="line2d_12">
    <path clip-path="url(#p68239a81d7)" d="M 69.218182 134.521879 
L 70.695675 181.490662 
L 72.173169 193.524544 
L 73.650662 191.312695 
L 75.128155 194.034504 
L 76.605649 205.016866 
L 78.083142 207.43207 
L 79.560635 212.539331 
L 81.038129 211.515088 
L 82.515622 214.371001 
L 83.993116 219.419351 
L 85.470609 218.161441 
L 88.425596 226.32922 
L 91.380583 230.213813 
L 92.858076 228.123284 
L 94.335569 231.929364 
L 95.813063 226.277968 
L 97.290556 230.197467 
L 98.768049 230.538241 
L 100.245543 232.56732 
L 101.723036 233.553009 
L 103.20053 231.377805 
L 104.678023 232.869973 
L 107.63301 233.72166 
L 109.110503 234.708519 
L 110.587996 229.051705 
L 113.542983 225.870472 
L 115.020477 229.956806 
L 116.49797 228.038735 
L 117.975463 230.313843 
L 119.452957 233.790831 
L 120.93045 231.021083 
L 122.407944 232.24447 
L 123.885437 226.154212 
L 125.36293 228.150524 
L 126.840424 229.572239 
L 128.317917 232.516906 
L 129.79541 231.024421 
L 131.272904 231.807153 
L 132.750397 230.531106 
L 134.227891 233.51018 
L 135.705384 236.836821 
L 137.182877 230.361848 
L 138.660371 230.248117 
L 140.137864 229.973916 
L 141.615357 233.62472 
L 143.092851 235.364299 
L 144.570344 232.532768 
L 146.047838 233.043565 
L 147.525331 232.830164 
L 149.002824 232.880859 
L 150.480318 235.479621 
L 151.957811 237.506354 
L 153.435305 238.212722 
L 154.912798 232.774608 
L 156.390291 236.454157 
L 157.867785 234.029976 
L 159.345278 235.801074 
L 160.822771 235.949746 
L 162.300265 232.976599 
L 163.777758 229.362071 
L 165.255252 236.999782 
L 166.732745 232.535639 
L 168.210238 233.351781 
L 169.687732 228.569905 
L 171.165225 233.522581 
L 172.642718 232.827261 
L 174.120212 235.37377 
L 175.597705 234.504052 
L 177.075199 235.649861 
L 178.552692 228.457607 
L 180.030185 233.111422 
L 181.507679 226.343122 
L 182.985172 227.908326 
L 184.462665 228.452473 
L 185.940159 232.886127 
L 187.417652 233.209723 
L 188.895146 229.647043 
L 190.372639 231.306644 
L 191.850132 230.947216 
L 193.327626 229.150261 
L 194.805119 232.737713 
L 196.282613 233.424934 
L 197.760106 230.234323 
L 199.237599 231.378848 
L 200.715093 234.115987 
L 202.192586 238.565169 
L 203.670079 238.701877 
L 205.147573 236.533682 
L 206.625066 240.764192 
L 208.10256 239.594855 
L 209.580053 239.900232 
L 211.057546 239.879733 
L 212.53504 236.706421 
L 214.012533 238.431103 
L 215.490026 239.017694 
L 216.96752 236.87534 
L 218.445013 234.034796 
L 219.922507 238.761924 
L 221.4 235.502459 
L 222.877493 237.666611 
L 224.354987 240.102788 
L 225.83248 242.116364 
L 227.309974 241.906555 
L 228.787467 238.43186 
L 230.26496 234.639027 
L 231.742454 238.648762 
L 233.219947 239.709552 
L 234.69744 241.789969 
L 236.174934 240.795873 
L 237.652427 240.100986 
L 239.129921 238.906604 
L 240.607414 239.604658 
L 242.084907 237.994794 
L 243.562401 238.935751 
L 245.039894 237.256457 
L 246.517387 237.542408 
L 247.994881 240.538135 
L 249.472374 238.863433 
L 250.949868 241.063024 
L 252.427361 239.809115 
L 253.904854 239.446227 
L 255.382348 240.215126 
L 256.859841 239.544406 
L 258.337335 240.66326 
L 259.814828 239.501042 
L 261.292321 236.895103 
L 262.769815 238.790585 
L 264.247308 238.438207 
L 265.724801 237.443539 
L 267.202295 238.652884 
L 268.679788 235.883272 
L 270.157282 238.619918 
L 271.634775 237.226921 
L 273.112268 235.047858 
L 274.589762 238.483791 
L 276.067255 237.19439 
L 277.544748 236.561531 
L 279.022242 239.403879 
L 280.499735 238.319034 
L 281.977229 233.260275 
L 283.454722 234.423123 
L 284.932215 230.296102 
L 286.409709 227.445742 
L 287.887202 232.198058 
L 289.364695 235.73852 
L 292.319682 237.013183 
L 293.797176 234.378295 
L 295.274669 234.046438 
L 296.752162 235.317937 
L 298.229656 233.045924 
L 299.707149 232.256421 
L 301.184643 231.946468 
L 302.662136 236.445942 
L 304.139629 231.919812 
L 305.617123 234.945416 
L 307.094616 234.109356 
L 308.572109 232.566112 
L 310.049603 231.766691 
L 313.00459 237.247194 
L 314.482083 236.425647 
L 315.959576 231.853416 
L 317.43707 235.101576 
L 318.914563 232.512497 
L 320.392056 232.432319 
L 321.86955 233.912133 
L 323.347043 233.415376 
L 324.824537 236.369972 
L 326.30203 234.531212 
L 327.779523 230.726262 
L 329.257017 234.041008 
L 330.73451 228.983714 
L 332.212004 234.585071 
L 333.689497 236.498082 
L 335.16699 233.361852 
L 336.644484 234.846876 
L 338.121977 235.770154 
L 339.59947 235.585084 
L 341.076964 232.573544 
L 342.554457 234.849768 
L 344.031951 233.310395 
L 345.509444 235.437859 
L 346.986937 234.896135 
L 348.464431 236.780337 
L 349.941924 234.728047 
L 351.419417 235.592592 
L 352.896911 231.950227 
L 354.374404 233.318806 
L 355.851898 233.186337 
L 357.329391 233.834509 
L 358.806884 234.099927 
L 360.284378 233.207279 
L 361.761871 235.231658 
L 363.239365 233.087555 
L 364.716858 228.777204 
L 366.194351 228.090031 
L 367.671845 226.333579 
L 369.149338 227.708251 
L 370.626831 228.018187 
L 372.104325 230.793185 
L 373.581818 231.826543 
L 373.581818 231.826543 
" style="fill:none;stroke:#dd8452;stroke-linecap:round;stroke-width:1.5;"/>
   </g>
   <g id="patch_3">
    <path d="M 54 252 
L 54 34.56 
" style="fill:none;stroke:#ffffff;stroke-linecap:square;stroke-linejoin:miter;stroke-width:1.25;"/>
   </g>
   <g id="patch_4">
    <path d="M 388.8 252 
L 388.8 34.56 
" style="fill:none;stroke:#ffffff;stroke-linecap:square;stroke-linejoin:miter;stroke-width:1.25;"/>
   </g>
   <g id="patch_5">
    <path d="M 54 252 
L 388.8 252 
" style="fill:none;stroke:#ffffff;stroke-linecap:square;stroke-linejoin:miter;stroke-width:1.25;"/>
   </g>
   <g id="patch_6">
    <path d="M 54 34.56 
L 388.8 34.56 
" style="fill:none;stroke:#ffffff;stroke-linecap:square;stroke-linejoin:miter;stroke-width:1.25;"/>
   </g>
   <g id="legend_1">
    <g id="patch_7">
     <path d="M 291.742188 75.651875 
L 381.1 75.651875 
Q 383.3 75.651875 383.3 73.451875 
L 383.3 42.26 
Q 383.3 40.06 381.1 40.06 
L 291.742188 40.06 
Q 289.542188 40.06 289.542188 42.26 
L 289.542188 73.451875 
Q 289.542188 75.651875 291.742188 75.651875 
z
" style="fill:#eaeaf2;opacity:0.8;stroke:#cccccc;stroke-linejoin:miter;"/>
    </g>
    <g id="line2d_13">
     <path d="M 293.942187 48.968281 
L 315.942187 48.968281 
" style="fill:none;stroke:#4c72b0;stroke-linecap:round;stroke-width:1.5;"/>
    </g>
    <g id="line2d_14"/>
    <g id="text_13">
     <!-- training -->
     <defs>
      <path d="M 18.3125 70.21875 
L 18.3125 54.6875 
L 36.8125 54.6875 
L 36.8125 47.703125 
L 18.3125 47.703125 
L 18.3125 18.015625 
Q 18.3125 11.328125 20.140625 9.421875 
Q 21.96875 7.515625 27.59375 7.515625 
L 36.8125 7.515625 
L 36.8125 0 
L 27.59375 0 
Q 17.1875 0 13.234375 3.875 
Q 9.28125 7.765625 9.28125 18.015625 
L 9.28125 47.703125 
L 2.6875 47.703125 
L 2.6875 54.6875 
L 9.28125 54.6875 
L 9.28125 70.21875 
z
" id="DejaVuSans-116"/>
      <path d="M 41.109375 46.296875 
Q 39.59375 47.171875 37.8125 47.578125 
Q 36.03125 48 33.890625 48 
Q 26.265625 48 22.1875 43.046875 
Q 18.109375 38.09375 18.109375 28.8125 
L 18.109375 0 
L 9.078125 0 
L 9.078125 54.6875 
L 18.109375 54.6875 
L 18.109375 46.1875 
Q 20.953125 51.171875 25.484375 53.578125 
Q 30.03125 56 36.53125 56 
Q 37.453125 56 38.578125 55.875 
Q 39.703125 55.765625 41.0625 55.515625 
z
" id="DejaVuSans-114"/>
      <path d="M 34.28125 27.484375 
Q 23.390625 27.484375 19.1875 25 
Q 14.984375 22.515625 14.984375 16.5 
Q 14.984375 11.71875 18.140625 8.90625 
Q 21.296875 6.109375 26.703125 6.109375 
Q 34.1875 6.109375 38.703125 11.40625 
Q 43.21875 16.703125 43.21875 25.484375 
L 43.21875 27.484375 
z
M 52.203125 31.203125 
L 52.203125 0 
L 43.21875 0 
L 43.21875 8.296875 
Q 40.140625 3.328125 35.546875 0.953125 
Q 30.953125 -1.421875 24.3125 -1.421875 
Q 15.921875 -1.421875 10.953125 3.296875 
Q 6 8.015625 6 15.921875 
Q 6 25.140625 12.171875 29.828125 
Q 18.359375 34.515625 30.609375 34.515625 
L 43.21875 34.515625 
L 43.21875 35.40625 
Q 43.21875 41.609375 39.140625 45 
Q 35.0625 48.390625 27.6875 48.390625 
Q 23 48.390625 18.546875 47.265625 
Q 14.109375 46.140625 10.015625 43.890625 
L 10.015625 52.203125 
Q 14.9375 54.109375 19.578125 55.046875 
Q 24.21875 56 28.609375 56 
Q 40.484375 56 46.34375 49.84375 
Q 52.203125 43.703125 52.203125 31.203125 
z
" id="DejaVuSans-97"/>
      <path d="M 9.421875 54.6875 
L 18.40625 54.6875 
L 18.40625 0 
L 9.421875 0 
z
M 9.421875 75.984375 
L 18.40625 75.984375 
L 18.40625 64.59375 
L 9.421875 64.59375 
z
" id="DejaVuSans-105"/>
      <path d="M 54.890625 33.015625 
L 54.890625 0 
L 45.90625 0 
L 45.90625 32.71875 
Q 45.90625 40.484375 42.875 44.328125 
Q 39.84375 48.1875 33.796875 48.1875 
Q 26.515625 48.1875 22.3125 43.546875 
Q 18.109375 38.921875 18.109375 30.90625 
L 18.109375 0 
L 9.078125 0 
L 9.078125 54.6875 
L 18.109375 54.6875 
L 18.109375 46.1875 
Q 21.34375 51.125 25.703125 53.5625 
Q 30.078125 56 35.796875 56 
Q 45.21875 56 50.046875 50.171875 
Q 54.890625 44.34375 54.890625 33.015625 
z
" id="DejaVuSans-110"/>
      <path d="M 45.40625 27.984375 
Q 45.40625 37.75 41.375 43.109375 
Q 37.359375 48.484375 30.078125 48.484375 
Q 22.859375 48.484375 18.828125 43.109375 
Q 14.796875 37.75 14.796875 27.984375 
Q 14.796875 18.265625 18.828125 12.890625 
Q 22.859375 7.515625 30.078125 7.515625 
Q 37.359375 7.515625 41.375 12.890625 
Q 45.40625 18.265625 45.40625 27.984375 
z
M 54.390625 6.78125 
Q 54.390625 -7.171875 48.1875 -13.984375 
Q 42 -20.796875 29.203125 -20.796875 
Q 24.46875 -20.796875 20.265625 -20.09375 
Q 16.0625 -19.390625 12.109375 -17.921875 
L 12.109375 -9.1875 
Q 16.0625 -11.328125 19.921875 -12.34375 
Q 23.78125 -13.375 27.78125 -13.375 
Q 36.625 -13.375 41.015625 -8.765625 
Q 45.40625 -4.15625 45.40625 5.171875 
L 45.40625 9.625 
Q 42.625 4.78125 38.28125 2.390625 
Q 33.9375 0 27.875 0 
Q 17.828125 0 11.671875 7.65625 
Q 5.515625 15.328125 5.515625 27.984375 
Q 5.515625 40.671875 11.671875 48.328125 
Q 17.828125 56 27.875 56 
Q 33.9375 56 38.28125 53.609375 
Q 42.625 51.21875 45.40625 46.390625 
L 45.40625 54.6875 
L 54.390625 54.6875 
z
" id="DejaVuSans-103"/>
     </defs>
     <g style="fill:#262626;" transform="translate(324.742188 52.818281)scale(0.11 -0.11)">
      <use xlink:href="#DejaVuSans-116"/>
      <use x="39.208984" xlink:href="#DejaVuSans-114"/>
      <use x="80.322266" xlink:href="#DejaVuSans-97"/>
      <use x="141.601562" xlink:href="#DejaVuSans-105"/>
      <use x="169.384766" xlink:href="#DejaVuSans-110"/>
      <use x="232.763672" xlink:href="#DejaVuSans-105"/>
      <use x="260.546875" xlink:href="#DejaVuSans-110"/>
      <use x="323.925781" xlink:href="#DejaVuSans-103"/>
     </g>
    </g>
    <g id="line2d_15">
     <path d="M 293.942187 65.114219 
L 315.942187 65.114219 
" style="fill:none;stroke:#dd8452;stroke-linecap:round;stroke-width:1.5;"/>
    </g>
    <g id="line2d_16"/>
    <g id="text_14">
     <!-- validation -->
     <defs>
      <path d="M 2.984375 54.6875 
L 12.5 54.6875 
L 29.59375 8.796875 
L 46.6875 54.6875 
L 56.203125 54.6875 
L 35.6875 0 
L 23.484375 0 
z
" id="DejaVuSans-118"/>
      <path d="M 9.421875 75.984375 
L 18.40625 75.984375 
L 18.40625 0 
L 9.421875 0 
z
" id="DejaVuSans-108"/>
      <path d="M 45.40625 46.390625 
L 45.40625 75.984375 
L 54.390625 75.984375 
L 54.390625 0 
L 45.40625 0 
L 45.40625 8.203125 
Q 42.578125 3.328125 38.25 0.953125 
Q 33.9375 -1.421875 27.875 -1.421875 
Q 17.96875 -1.421875 11.734375 6.484375 
Q 5.515625 14.40625 5.515625 27.296875 
Q 5.515625 40.1875 11.734375 48.09375 
Q 17.96875 56 27.875 56 
Q 33.9375 56 38.25 53.625 
Q 42.578125 51.265625 45.40625 46.390625 
z
M 14.796875 27.296875 
Q 14.796875 17.390625 18.875 11.75 
Q 22.953125 6.109375 30.078125 6.109375 
Q 37.203125 6.109375 41.296875 11.75 
Q 45.40625 17.390625 45.40625 27.296875 
Q 45.40625 37.203125 41.296875 42.84375 
Q 37.203125 48.484375 30.078125 48.484375 
Q 22.953125 48.484375 18.875 42.84375 
Q 14.796875 37.203125 14.796875 27.296875 
z
" id="DejaVuSans-100"/>
     </defs>
     <g style="fill:#262626;" transform="translate(324.742188 68.964219)scale(0.11 -0.11)">
      <use xlink:href="#DejaVuSans-118"/>
      <use x="59.179688" xlink:href="#DejaVuSans-97"/>
      <use x="120.458984" xlink:href="#DejaVuSans-108"/>
      <use x="148.242188" xlink:href="#DejaVuSans-105"/>
      <use x="176.025391" xlink:href="#DejaVuSans-100"/>
      <use x="239.501953" xlink:href="#DejaVuSans-97"/>
      <use x="300.78125" xlink:href="#DejaVuSans-116"/>
      <use x="339.990234" xlink:href="#DejaVuSans-105"/>
      <use x="367.773438" xlink:href="#DejaVuSans-111"/>
      <use x="428.955078" xlink:href="#DejaVuSans-110"/>
     </g>
    </g>
   </g>
  </g>
 </g>
 <defs>
  <clipPath id="p68239a81d7">
   <rect height="217.44" width="334.8" x="54" y="34.56"/>
  </clipPath>
 </defs>
</svg>
