<?xml version="1.0" encoding="utf-8" standalone="no"?>
<!DOCTYPE svg PUBLIC "-//W3C//DTD SVG 1.1//EN"
  "http://www.w3.org/Graphics/SVG/1.1/DTD/svg11.dtd">
<!-- Created with matplotlib (https://matplotlib.org/) -->
<svg height="288pt" version="1.1" viewBox="0 0 432 288" width="432pt" xmlns="http://www.w3.org/2000/svg" xmlns:xlink="http://www.w3.org/1999/xlink">
 <defs>
  <style type="text/css">
*{stroke-linecap:butt;stroke-linejoin:round;}
  </style>
 </defs>
 <g id="figure_1">
  <g id="patch_1">
   <path d="M 0 288 
L 432 288 
L 432 0 
L 0 0 
z
" style="fill:#ffffff;"/>
  </g>
  <g id="axes_1">
   <g id="patch_2">
    <path d="M 54 252 
L 388.8 252 
L 388.8 34.56 
L 54 34.56 
z
" style="fill:#eaeaf2;"/>
   </g>
   <g id="matplotlib.axis_1">
    <g id="xtick_1">
     <g id="line2d_1">
      <path clip-path="url(#p241e09c8fb)" d="M 69.218182 252 
L 69.218182 34.56 
" style="fill:none;stroke:#ffffff;stroke-linecap:round;"/>
     </g>
     <g id="text_1">
      <!-- 0 -->
      <defs>
       <path d="M 31.78125 66.40625 
Q 24.171875 66.40625 20.328125 58.90625 
Q 16.5 51.421875 16.5 36.375 
Q 16.5 21.390625 20.328125 13.890625 
Q 24.171875 6.390625 31.78125 6.390625 
Q 39.453125 6.390625 43.28125 13.890625 
Q 47.125 21.390625 47.125 36.375 
Q 47.125 51.421875 43.28125 58.90625 
Q 39.453125 66.40625 31.78125 66.40625 
z
M 31.78125 74.21875 
Q 44.046875 74.21875 50.515625 64.515625 
Q 56.984375 54.828125 56.984375 36.375 
Q 56.984375 17.96875 50.515625 8.265625 
Q 44.046875 -1.421875 31.78125 -1.421875 
Q 19.53125 -1.421875 13.0625 8.265625 
Q 6.59375 17.96875 6.59375 36.375 
Q 6.59375 54.828125 13.0625 64.515625 
Q 19.53125 74.21875 31.78125 74.21875 
z
" id="DejaVuSans-48"/>
      </defs>
      <g style="fill:#262626;" transform="translate(65.718807 269.858281)scale(0.11 -0.11)">
       <use xlink:href="#DejaVuSans-48"/>
      </g>
     </g>
    </g>
    <g id="xtick_2">
     <g id="line2d_2">
      <path clip-path="url(#p241e09c8fb)" d="M 133.294737 252 
L 133.294737 34.56 
" style="fill:none;stroke:#ffffff;stroke-linecap:round;"/>
     </g>
     <g id="text_2">
      <!-- 100 -->
      <defs>
       <path d="M 12.40625 8.296875 
L 28.515625 8.296875 
L 28.515625 63.921875 
L 10.984375 60.40625 
L 10.984375 69.390625 
L 28.421875 72.90625 
L 38.28125 72.90625 
L 38.28125 8.296875 
L 54.390625 8.296875 
L 54.390625 0 
L 12.40625 0 
z
" id="DejaVuSans-49"/>
      </defs>
      <g style="fill:#262626;" transform="translate(122.796612 269.858281)scale(0.11 -0.11)">
       <use xlink:href="#DejaVuSans-49"/>
       <use x="63.623047" xlink:href="#DejaVuSans-48"/>
       <use x="127.246094" xlink:href="#DejaVuSans-48"/>
      </g>
     </g>
    </g>
    <g id="xtick_3">
     <g id="line2d_3">
      <path clip-path="url(#p241e09c8fb)" d="M 197.371292 252 
L 197.371292 34.56 
" style="fill:none;stroke:#ffffff;stroke-linecap:round;"/>
     </g>
     <g id="text_3">
      <!-- 200 -->
      <defs>
       <path d="M 19.1875 8.296875 
L 53.609375 8.296875 
L 53.609375 0 
L 7.328125 0 
L 7.328125 8.296875 
Q 12.9375 14.109375 22.625 23.890625 
Q 32.328125 33.6875 34.8125 36.53125 
Q 39.546875 41.84375 41.421875 45.53125 
Q 43.3125 49.21875 43.3125 52.78125 
Q 43.3125 58.59375 39.234375 62.25 
Q 35.15625 65.921875 28.609375 65.921875 
Q 23.96875 65.921875 18.8125 64.3125 
Q 13.671875 62.703125 7.8125 59.421875 
L 7.8125 69.390625 
Q 13.765625 71.78125 18.9375 73 
Q 24.125 74.21875 28.421875 74.21875 
Q 39.75 74.21875 46.484375 68.546875 
Q 53.21875 62.890625 53.21875 53.421875 
Q 53.21875 48.921875 51.53125 44.890625 
Q 49.859375 40.875 45.40625 35.40625 
Q 44.1875 33.984375 37.640625 27.21875 
Q 31.109375 20.453125 19.1875 8.296875 
z
" id="DejaVuSans-50"/>
      </defs>
      <g style="fill:#262626;" transform="translate(186.873167 269.858281)scale(0.11 -0.11)">
       <use xlink:href="#DejaVuSans-50"/>
       <use x="63.623047" xlink:href="#DejaVuSans-48"/>
       <use x="127.246094" xlink:href="#DejaVuSans-48"/>
      </g>
     </g>
    </g>
    <g id="xtick_4">
     <g id="line2d_4">
      <path clip-path="url(#p241e09c8fb)" d="M 261.447847 252 
L 261.447847 34.56 
" style="fill:none;stroke:#ffffff;stroke-linecap:round;"/>
     </g>
     <g id="text_4">
      <!-- 300 -->
      <defs>
       <path d="M 40.578125 39.3125 
Q 47.65625 37.796875 51.625 33 
Q 55.609375 28.21875 55.609375 21.1875 
Q 55.609375 10.40625 48.1875 4.484375 
Q 40.765625 -1.421875 27.09375 -1.421875 
Q 22.515625 -1.421875 17.65625 -0.515625 
Q 12.796875 0.390625 7.625 2.203125 
L 7.625 11.71875 
Q 11.71875 9.328125 16.59375 8.109375 
Q 21.484375 6.890625 26.8125 6.890625 
Q 36.078125 6.890625 40.9375 10.546875 
Q 45.796875 14.203125 45.796875 21.1875 
Q 45.796875 27.640625 41.28125 31.265625 
Q 36.765625 34.90625 28.71875 34.90625 
L 20.21875 34.90625 
L 20.21875 43.015625 
L 29.109375 43.015625 
Q 36.375 43.015625 40.234375 45.921875 
Q 44.09375 48.828125 44.09375 54.296875 
Q 44.09375 59.90625 40.109375 62.90625 
Q 36.140625 65.921875 28.71875 65.921875 
Q 24.65625 65.921875 20.015625 65.03125 
Q 15.375 64.15625 9.8125 62.3125 
L 9.8125 71.09375 
Q 15.4375 72.65625 20.34375 73.4375 
Q 25.25 74.21875 29.59375 74.21875 
Q 40.828125 74.21875 47.359375 69.109375 
Q 53.90625 64.015625 53.90625 55.328125 
Q 53.90625 49.265625 50.4375 45.09375 
Q 46.96875 40.921875 40.578125 39.3125 
z
" id="DejaVuSans-51"/>
      </defs>
      <g style="fill:#262626;" transform="translate(250.949722 269.858281)scale(0.11 -0.11)">
       <use xlink:href="#DejaVuSans-51"/>
       <use x="63.623047" xlink:href="#DejaVuSans-48"/>
       <use x="127.246094" xlink:href="#DejaVuSans-48"/>
      </g>
     </g>
    </g>
    <g id="xtick_5">
     <g id="line2d_5">
      <path clip-path="url(#p241e09c8fb)" d="M 325.524402 252 
L 325.524402 34.56 
" style="fill:none;stroke:#ffffff;stroke-linecap:round;"/>
     </g>
     <g id="text_5">
      <!-- 400 -->
      <defs>
       <path d="M 37.796875 64.3125 
L 12.890625 25.390625 
L 37.796875 25.390625 
z
M 35.203125 72.90625 
L 47.609375 72.90625 
L 47.609375 25.390625 
L 58.015625 25.390625 
L 58.015625 17.1875 
L 47.609375 17.1875 
L 47.609375 0 
L 37.796875 0 
L 37.796875 17.1875 
L 4.890625 17.1875 
L 4.890625 26.703125 
z
" id="DejaVuSans-52"/>
      </defs>
      <g style="fill:#262626;" transform="translate(315.026277 269.858281)scale(0.11 -0.11)">
       <use xlink:href="#DejaVuSans-52"/>
       <use x="63.623047" xlink:href="#DejaVuSans-48"/>
       <use x="127.246094" xlink:href="#DejaVuSans-48"/>
      </g>
     </g>
    </g>
    <g id="text_6">
     <!-- Epoch -->
     <defs>
      <path d="M 9.8125 72.90625 
L 55.90625 72.90625 
L 55.90625 64.59375 
L 19.671875 64.59375 
L 19.671875 43.015625 
L 54.390625 43.015625 
L 54.390625 34.71875 
L 19.671875 34.71875 
L 19.671875 8.296875 
L 56.78125 8.296875 
L 56.78125 0 
L 9.8125 0 
z
" id="DejaVuSans-69"/>
      <path d="M 18.109375 8.203125 
L 18.109375 -20.796875 
L 9.078125 -20.796875 
L 9.078125 54.6875 
L 18.109375 54.6875 
L 18.109375 46.390625 
Q 20.953125 51.265625 25.265625 53.625 
Q 29.59375 56 35.59375 56 
Q 45.5625 56 51.78125 48.09375 
Q 58.015625 40.1875 58.015625 27.296875 
Q 58.015625 14.40625 51.78125 6.484375 
Q 45.5625 -1.421875 35.59375 -1.421875 
Q 29.59375 -1.421875 25.265625 0.953125 
Q 20.953125 3.328125 18.109375 8.203125 
z
M 48.6875 27.296875 
Q 48.6875 37.203125 44.609375 42.84375 
Q 40.53125 48.484375 33.40625 48.484375 
Q 26.265625 48.484375 22.1875 42.84375 
Q 18.109375 37.203125 18.109375 27.296875 
Q 18.109375 17.390625 22.1875 11.75 
Q 26.265625 6.109375 33.40625 6.109375 
Q 40.53125 6.109375 44.609375 11.75 
Q 48.6875 17.390625 48.6875 27.296875 
z
" id="DejaVuSans-112"/>
      <path d="M 30.609375 48.390625 
Q 23.390625 48.390625 19.1875 42.75 
Q 14.984375 37.109375 14.984375 27.296875 
Q 14.984375 17.484375 19.15625 11.84375 
Q 23.34375 6.203125 30.609375 6.203125 
Q 37.796875 6.203125 41.984375 11.859375 
Q 46.1875 17.53125 46.1875 27.296875 
Q 46.1875 37.015625 41.984375 42.703125 
Q 37.796875 48.390625 30.609375 48.390625 
z
M 30.609375 56 
Q 42.328125 56 49.015625 48.375 
Q 55.71875 40.765625 55.71875 27.296875 
Q 55.71875 13.875 49.015625 6.21875 
Q 42.328125 -1.421875 30.609375 -1.421875 
Q 18.84375 -1.421875 12.171875 6.21875 
Q 5.515625 13.875 5.515625 27.296875 
Q 5.515625 40.765625 12.171875 48.375 
Q 18.84375 56 30.609375 56 
z
" id="DejaVuSans-111"/>
      <path d="M 48.78125 52.59375 
L 48.78125 44.1875 
Q 44.96875 46.296875 41.140625 47.34375 
Q 37.3125 48.390625 33.40625 48.390625 
Q 24.65625 48.390625 19.8125 42.84375 
Q 14.984375 37.3125 14.984375 27.296875 
Q 14.984375 17.28125 19.8125 11.734375 
Q 24.65625 6.203125 33.40625 6.203125 
Q 37.3125 6.203125 41.140625 7.25 
Q 44.96875 8.296875 48.78125 10.40625 
L 48.78125 2.09375 
Q 45.015625 0.34375 40.984375 -0.53125 
Q 36.96875 -1.421875 32.421875 -1.421875 
Q 20.0625 -1.421875 12.78125 6.34375 
Q 5.515625 14.109375 5.515625 27.296875 
Q 5.515625 40.671875 12.859375 48.328125 
Q 20.21875 56 33.015625 56 
Q 37.15625 56 41.109375 55.140625 
Q 45.0625 54.296875 48.78125 52.59375 
z
" id="DejaVuSans-99"/>
      <path d="M 54.890625 33.015625 
L 54.890625 0 
L 45.90625 0 
L 45.90625 32.71875 
Q 45.90625 40.484375 42.875 44.328125 
Q 39.84375 48.1875 33.796875 48.1875 
Q 26.515625 48.1875 22.3125 43.546875 
Q 18.109375 38.921875 18.109375 30.90625 
L 18.109375 0 
L 9.078125 0 
L 9.078125 75.984375 
L 18.109375 75.984375 
L 18.109375 46.1875 
Q 21.34375 51.125 25.703125 53.5625 
Q 30.078125 56 35.796875 56 
Q 45.21875 56 50.046875 50.171875 
Q 54.890625 44.34375 54.890625 33.015625 
z
" id="DejaVuSans-104"/>
     </defs>
     <g style="fill:#262626;" transform="translate(203.026875 285.264063)scale(0.12 -0.12)">
      <use xlink:href="#DejaVuSans-69"/>
      <use x="63.183594" xlink:href="#DejaVuSans-112"/>
      <use x="126.660156" xlink:href="#DejaVuSans-111"/>
      <use x="187.841797" xlink:href="#DejaVuSans-99"/>
      <use x="242.822266" xlink:href="#DejaVuSans-104"/>
     </g>
    </g>
   </g>
   <g id="matplotlib.axis_2">
    <g id="ytick_1">
     <g id="line2d_6">
      <path clip-path="url(#p241e09c8fb)" d="M 54 227.439038 
L 388.8 227.439038 
" style="fill:none;stroke:#ffffff;stroke-linecap:round;"/>
     </g>
     <g id="text_7">
      <!-- 50 -->
      <defs>
       <path d="M 10.796875 72.90625 
L 49.515625 72.90625 
L 49.515625 64.59375 
L 19.828125 64.59375 
L 19.828125 46.734375 
Q 21.96875 47.46875 24.109375 47.828125 
Q 26.265625 48.1875 28.421875 48.1875 
Q 40.625 48.1875 47.75 41.5 
Q 54.890625 34.8125 54.890625 23.390625 
Q 54.890625 11.625 47.5625 5.09375 
Q 40.234375 -1.421875 26.90625 -1.421875 
Q 22.3125 -1.421875 17.546875 -0.640625 
Q 12.796875 0.140625 7.71875 1.703125 
L 7.71875 11.625 
Q 12.109375 9.234375 16.796875 8.0625 
Q 21.484375 6.890625 26.703125 6.890625 
Q 35.15625 6.890625 40.078125 11.328125 
Q 45.015625 15.765625 45.015625 23.390625 
Q 45.015625 31 40.078125 35.4375 
Q 35.15625 39.890625 26.703125 39.890625 
Q 22.75 39.890625 18.8125 39.015625 
Q 14.890625 38.140625 10.796875 36.28125 
z
" id="DejaVuSans-53"/>
      </defs>
      <g style="fill:#262626;" transform="translate(30.5025 231.618178)scale(0.11 -0.11)">
       <use xlink:href="#DejaVuSans-53"/>
       <use x="63.623047" xlink:href="#DejaVuSans-48"/>
      </g>
     </g>
    </g>
    <g id="ytick_2">
     <g id="line2d_7">
      <path clip-path="url(#p241e09c8fb)" d="M 54 200.164302 
L 388.8 200.164302 
" style="fill:none;stroke:#ffffff;stroke-linecap:round;"/>
     </g>
     <g id="text_8">
      <!-- 100 -->
      <g style="fill:#262626;" transform="translate(23.50375 204.343443)scale(0.11 -0.11)">
       <use xlink:href="#DejaVuSans-49"/>
       <use x="63.623047" xlink:href="#DejaVuSans-48"/>
       <use x="127.246094" xlink:href="#DejaVuSans-48"/>
      </g>
     </g>
    </g>
    <g id="ytick_3">
     <g id="line2d_8">
      <path clip-path="url(#p241e09c8fb)" d="M 54 172.889567 
L 388.8 172.889567 
" style="fill:none;stroke:#ffffff;stroke-linecap:round;"/>
     </g>
     <g id="text_9">
      <!-- 150 -->
      <g style="fill:#262626;" transform="translate(23.50375 177.068708)scale(0.11 -0.11)">
       <use xlink:href="#DejaVuSans-49"/>
       <use x="63.623047" xlink:href="#DejaVuSans-53"/>
       <use x="127.246094" xlink:href="#DejaVuSans-48"/>
      </g>
     </g>
    </g>
    <g id="ytick_4">
     <g id="line2d_9">
      <path clip-path="url(#p241e09c8fb)" d="M 54 145.614832 
L 388.8 145.614832 
" style="fill:none;stroke:#ffffff;stroke-linecap:round;"/>
     </g>
     <g id="text_10">
      <!-- 200 -->
      <g style="fill:#262626;" transform="translate(23.50375 149.793973)scale(0.11 -0.11)">
       <use xlink:href="#DejaVuSans-50"/>
       <use x="63.623047" xlink:href="#DejaVuSans-48"/>
       <use x="127.246094" xlink:href="#DejaVuSans-48"/>
      </g>
     </g>
    </g>
    <g id="ytick_5">
     <g id="line2d_10">
      <path clip-path="url(#p241e09c8fb)" d="M 54 118.340097 
L 388.8 118.340097 
" style="fill:none;stroke:#ffffff;stroke-linecap:round;"/>
     </g>
     <g id="text_11">
      <!-- 250 -->
      <g style="fill:#262626;" transform="translate(23.50375 122.519237)scale(0.11 -0.11)">
       <use xlink:href="#DejaVuSans-50"/>
       <use x="63.623047" xlink:href="#DejaVuSans-53"/>
       <use x="127.246094" xlink:href="#DejaVuSans-48"/>
      </g>
     </g>
    </g>
    <g id="ytick_6">
     <g id="line2d_11">
      <path clip-path="url(#p241e09c8fb)" d="M 54 91.065362 
L 388.8 91.065362 
" style="fill:none;stroke:#ffffff;stroke-linecap:round;"/>
     </g>
     <g id="text_12">
      <!-- 300 -->
      <g style="fill:#262626;" transform="translate(23.50375 95.244502)scale(0.11 -0.11)">
       <use xlink:href="#DejaVuSans-51"/>
       <use x="63.623047" xlink:href="#DejaVuSans-48"/>
       <use x="127.246094" xlink:href="#DejaVuSans-48"/>
      </g>
     </g>
    </g>
    <g id="ytick_7">
     <g id="line2d_12">
      <path clip-path="url(#p241e09c8fb)" d="M 54 63.790626 
L 388.8 63.790626 
" style="fill:none;stroke:#ffffff;stroke-linecap:round;"/>
     </g>
     <g id="text_13">
      <!-- 350 -->
      <g style="fill:#262626;" transform="translate(23.50375 67.969767)scale(0.11 -0.11)">
       <use xlink:href="#DejaVuSans-51"/>
       <use x="63.623047" xlink:href="#DejaVuSans-53"/>
       <use x="127.246094" xlink:href="#DejaVuSans-48"/>
      </g>
     </g>
    </g>
    <g id="ytick_8">
     <g id="line2d_13">
      <path clip-path="url(#p241e09c8fb)" d="M 54 36.515891 
L 388.8 36.515891 
" style="fill:none;stroke:#ffffff;stroke-linecap:round;"/>
     </g>
     <g id="text_14">
      <!-- 400 -->
      <g style="fill:#262626;" transform="translate(23.50375 40.695032)scale(0.11 -0.11)">
       <use xlink:href="#DejaVuSans-52"/>
       <use x="63.623047" xlink:href="#DejaVuSans-48"/>
       <use x="127.246094" xlink:href="#DejaVuSans-48"/>
      </g>
     </g>
    </g>
    <g id="text_15">
     <!-- Loss -->
     <defs>
      <path d="M 9.8125 72.90625 
L 19.671875 72.90625 
L 19.671875 8.296875 
L 55.171875 8.296875 
L 55.171875 0 
L 9.8125 0 
z
" id="DejaVuSans-76"/>
      <path d="M 44.28125 53.078125 
L 44.28125 44.578125 
Q 40.484375 46.53125 36.375 47.5 
Q 32.28125 48.484375 27.875 48.484375 
Q 21.1875 48.484375 17.84375 46.4375 
Q 14.5 44.390625 14.5 40.28125 
Q 14.5 37.15625 16.890625 35.375 
Q 19.28125 33.59375 26.515625 31.984375 
L 29.59375 31.296875 
Q 39.15625 29.25 43.1875 25.515625 
Q 47.21875 21.78125 47.21875 15.09375 
Q 47.21875 7.46875 41.1875 3.015625 
Q 35.15625 -1.421875 24.609375 -1.421875 
Q 20.21875 -1.421875 15.453125 -0.5625 
Q 10.6875 0.296875 5.421875 2 
L 5.421875 11.28125 
Q 10.40625 8.6875 15.234375 7.390625 
Q 20.0625 6.109375 24.8125 6.109375 
Q 31.15625 6.109375 34.5625 8.28125 
Q 37.984375 10.453125 37.984375 14.40625 
Q 37.984375 18.0625 35.515625 20.015625 
Q 33.0625 21.96875 24.703125 23.78125 
L 21.578125 24.515625 
Q 13.234375 26.265625 9.515625 29.90625 
Q 5.8125 33.546875 5.8125 39.890625 
Q 5.8125 47.609375 11.28125 51.796875 
Q 16.75 56 26.8125 56 
Q 31.78125 56 36.171875 55.265625 
Q 40.578125 54.546875 44.28125 53.078125 
z
" id="DejaVuSans-115"/>
     </defs>
     <g style="fill:#262626;" transform="translate(17.008125 156.440625)rotate(-90)scale(0.12 -0.12)">
      <use xlink:href="#DejaVuSans-76"/>
      <use x="53.962891" xlink:href="#DejaVuSans-111"/>
      <use x="115.144531" xlink:href="#DejaVuSans-115"/>
      <use x="167.244141" xlink:href="#DejaVuSans-115"/>
     </g>
    </g>
   </g>
   <g id="line2d_14">
    <path clip-path="url(#p241e09c8fb)" d="M 69.218182 44.443636 
L 69.858947 178.418357 
L 70.499713 198.699532 
L 71.140478 205.310367 
L 71.781244 208.047769 
L 72.42201 209.752501 
L 73.062775 211.855473 
L 73.703541 211.346865 
L 74.344306 211.211056 
L 74.985072 212.41591 
L 75.625837 210.972306 
L 76.266603 208.688576 
L 76.907368 212.286281 
L 77.548134 214.997434 
L 78.1889 214.839694 
L 78.829665 217.829788 
L 79.470431 217.981615 
L 80.111196 222.606225 
L 80.751962 221.755742 
L 81.392727 220.566091 
L 82.033493 222.766387 
L 82.674258 222.48335 
L 83.315024 223.395906 
L 83.955789 221.717384 
L 84.596555 220.652721 
L 85.237321 223.788781 
L 85.878086 224.672595 
L 86.518852 227.83858 
L 87.159617 226.467256 
L 87.800383 227.686203 
L 88.441148 229.754374 
L 89.081914 224.472176 
L 89.722679 228.096418 
L 90.363445 228.898788 
L 91.644976 226.39679 
L 92.285742 227.904111 
L 92.926507 231.082956 
L 93.567273 230.486651 
L 94.208038 226.503727 
L 94.848804 230.671419 
L 95.489569 231.591414 
L 96.130335 231.182354 
L 96.7711 231.22658 
L 97.411866 229.631937 
L 98.052632 229.63038 
L 98.693397 232.764026 
L 99.334163 233.407948 
L 99.974928 231.400035 
L 100.615694 233.288016 
L 101.256459 233.989326 
L 101.897225 235.18367 
L 103.178756 233.68466 
L 103.819522 233.202183 
L 104.460287 233.889351 
L 105.101053 230.696731 
L 105.741818 231.50595 
L 106.382584 233.370355 
L 107.023349 233.173935 
L 107.664115 233.56881 
L 108.30488 235.476607 
L 108.945646 236.483274 
L 110.227177 232.206236 
L 111.508708 231.072386 
L 112.149474 231.154964 
L 113.431005 233.712535 
L 114.07177 233.678047 
L 114.712536 230.081511 
L 115.353301 232.786647 
L 115.994067 234.393586 
L 116.634833 233.575612 
L 117.275598 233.152022 
L 117.916364 234.07721 
L 118.557129 234.355862 
L 119.197895 233.800707 
L 120.479426 232.289668 
L 121.120191 234.57885 
L 121.760957 235.860808 
L 122.401722 235.388599 
L 123.042488 235.891676 
L 123.683254 235.425067 
L 124.324019 232.336934 
L 124.964785 232.827265 
L 125.60555 231.92272 
L 126.246316 234.774624 
L 126.887081 234.530304 
L 127.527847 232.254896 
L 128.168612 231.505592 
L 128.809378 229.567494 
L 129.450144 231.890116 
L 130.090909 234.971827 
L 130.731675 233.46231 
L 131.37244 234.812665 
L 132.013206 234.835649 
L 132.653971 233.854193 
L 133.294737 231.564723 
L 133.935502 230.862775 
L 134.576268 233.11703 
L 135.217033 232.567062 
L 135.857799 231.548018 
L 136.498565 232.074968 
L 137.13933 231.093717 
L 137.780096 232.555302 
L 138.420861 231.136266 
L 139.061627 230.978808 
L 140.343158 234.818354 
L 140.983923 234.590132 
L 141.624689 234.035661 
L 142.265455 229.906986 
L 142.90622 232.71506 
L 143.546986 232.826352 
L 144.187751 233.451301 
L 144.828517 234.973694 
L 145.469282 235.767195 
L 146.110048 234.011374 
L 146.750813 235.146274 
L 147.391579 235.573674 
L 148.032344 234.793713 
L 148.67311 235.298377 
L 149.313876 234.143703 
L 149.954641 235.460306 
L 150.595407 235.897482 
L 151.876938 230.685121 
L 152.517703 231.620517 
L 153.158469 234.252378 
L 153.799234 234.082534 
L 154.44 235.694384 
L 155.080766 235.374935 
L 155.721531 233.131799 
L 156.362297 234.67386 
L 157.003062 234.55841 
L 157.643828 235.89893 
L 158.284593 236.610631 
L 158.925359 235.987535 
L 160.20689 231.102732 
L 160.847656 230.139237 
L 161.488421 232.984733 
L 162.129187 233.978281 
L 163.410718 236.215211 
L 164.051483 233.83106 
L 164.692249 233.050855 
L 165.333014 230.969003 
L 165.97378 232.248787 
L 166.614545 234.253869 
L 167.255311 235.353234 
L 167.896077 235.298811 
L 168.536842 235.656 
L 169.177608 235.817706 
L 169.818373 237.022276 
L 170.459139 237.132609 
L 171.099904 234.858255 
L 171.74067 235.833434 
L 172.381435 237.133358 
L 173.022201 236.97752 
L 173.662967 235.405851 
L 174.303732 235.348737 
L 174.944498 233.021967 
L 175.585263 234.132894 
L 176.226029 233.365583 
L 176.866794 233.60858 
L 177.50756 235.030835 
L 178.148325 232.664514 
L 178.789091 232.148597 
L 179.429856 233.317292 
L 180.070622 234.054271 
L 180.711388 233.525134 
L 181.352153 234.719288 
L 181.992919 232.520006 
L 182.633684 233.273287 
L 183.27445 233.760474 
L 183.915215 230.546952 
L 184.555981 232.943694 
L 185.196746 232.54803 
L 185.837512 231.660744 
L 186.478278 234.542955 
L 187.119043 234.891738 
L 187.759809 234.52291 
L 188.400574 235.095185 
L 189.04134 236.495007 
L 189.682105 234.80313 
L 190.322871 235.882326 
L 190.963636 236.13336 
L 191.604402 236.670026 
L 192.245167 236.106913 
L 192.885933 237.013962 
L 193.526699 236.011137 
L 194.167464 232.493071 
L 194.80823 233.128742 
L 195.448995 234.911625 
L 196.089761 235.340031 
L 197.371292 235.460427 
L 198.012057 234.776207 
L 198.652823 235.577043 
L 199.293589 235.197106 
L 199.934354 237.661438 
L 200.57512 237.760983 
L 201.215885 238.918639 
L 201.856651 234.705896 
L 202.497416 236.12932 
L 203.138182 235.925439 
L 203.778947 233.821824 
L 204.419713 233.598483 
L 205.060478 232.607324 
L 205.701244 235.424701 
L 206.34201 236.238164 
L 206.982775 238.366111 
L 207.623541 237.235344 
L 208.264306 237.141814 
L 208.905072 235.617092 
L 209.545837 237.009464 
L 210.827368 232.953582 
L 211.468134 234.288127 
L 212.1089 227.766035 
L 212.749665 234.65525 
L 213.390431 235.398296 
L 214.031196 236.721546 
L 214.671962 235.625508 
L 215.312727 235.451256 
L 215.953493 233.132799 
L 216.594258 232.828448 
L 217.235024 234.599617 
L 217.875789 232.278025 
L 218.516555 233.862144 
L 219.157321 231.605278 
L 219.798086 236.06173 
L 220.438852 228.024442 
L 221.079617 230.745281 
L 221.720383 232.906631 
L 222.361148 232.340358 
L 223.001914 231.304989 
L 223.642679 231.618569 
L 224.283445 230.763862 
L 224.924211 232.707877 
L 225.564976 233.152905 
L 226.205742 234.786591 
L 226.846507 234.373201 
L 227.487273 234.755139 
L 228.128038 235.786012 
L 228.768804 233.141553 
L 229.409569 234.643047 
L 230.050335 235.570736 
L 231.331866 234.946275 
L 231.972632 233.733292 
L 232.613397 229.361036 
L 233.254163 233.176331 
L 233.894928 232.243258 
L 234.535694 233.497531 
L 235.176459 234.172071 
L 235.817225 236.019182 
L 236.45799 232.650312 
L 237.098756 233.834709 
L 237.739522 232.588999 
L 238.380287 234.747421 
L 239.021053 237.641784 
L 239.661818 236.878709 
L 240.302584 233.458441 
L 240.943349 233.754163 
L 242.22488 238.446212 
L 242.865646 233.448364 
L 243.506411 236.336463 
L 244.147177 238.330336 
L 244.787943 231.48481 
L 245.428708 227.108622 
L 246.069474 231.187904 
L 246.710239 232.3818 
L 247.351005 234.089613 
L 247.99177 234.872544 
L 248.632536 237.716128 
L 249.273301 238.507454 
L 249.914067 235.119188 
L 250.554833 233.114934 
L 251.195598 231.487537 
L 251.836364 234.744175 
L 252.477129 236.087225 
L 253.117895 235.922711 
L 253.75866 234.782168 
L 254.399426 235.75971 
L 255.040191 238.458763 
L 255.680957 235.521452 
L 256.321722 236.219367 
L 256.962488 235.371084 
L 257.603254 237.745153 
L 258.244019 236.610806 
L 258.884785 237.066321 
L 259.52555 234.073715 
L 260.166316 234.106298 
L 260.807081 236.654617 
L 261.447847 237.933118 
L 262.088612 235.824113 
L 262.729378 237.101115 
L 263.370144 236.346238 
L 264.010909 237.722564 
L 264.651675 238.544048 
L 265.29244 237.223439 
L 265.933206 237.007521 
L 266.573971 237.573864 
L 267.214737 235.978698 
L 267.855502 238.095611 
L 268.496268 237.082794 
L 269.137033 234.703521 
L 269.777799 236.454389 
L 270.418565 235.651041 
L 271.05933 235.212422 
L 272.981627 238.947932 
L 273.622392 238.677832 
L 274.263158 236.678493 
L 275.544689 231.889914 
L 276.185455 233.699259 
L 276.82622 232.187102 
L 277.466986 234.300554 
L 278.107751 237.913324 
L 278.748517 234.672992 
L 279.389282 235.424897 
L 280.030048 234.885388 
L 280.670813 234.498696 
L 281.311579 233.956721 
L 282.59311 238.007596 
L 283.233876 238.96558 
L 285.156172 235.322262 
L 285.796938 234.665424 
L 286.437703 236.099259 
L 287.078469 235.48096 
L 287.719234 234.231273 
L 288.36 235.842498 
L 289.000766 232.932389 
L 289.641531 235.310364 
L 290.282297 237.236016 
L 290.923062 237.253212 
L 291.563828 234.818922 
L 292.204593 233.754341 
L 292.845359 236.363783 
L 293.486124 238.104183 
L 294.12689 239.345644 
L 294.767656 240.994206 
L 295.408421 241.462321 
L 296.049187 239.872762 
L 296.689952 240.633378 
L 297.330718 239.178162 
L 297.971483 239.179525 
L 298.612249 238.179152 
L 299.253014 236.500522 
L 299.89378 235.185338 
L 300.534545 235.339144 
L 301.816077 238.701266 
L 302.456842 236.800142 
L 303.097608 237.141762 
L 303.738373 238.137952 
L 304.379139 238.061626 
L 305.019904 239.071315 
L 305.66067 239.146674 
L 306.301435 238.862811 
L 306.942201 240.225412 
L 307.582967 239.861055 
L 308.223732 239.726241 
L 308.864498 239.973985 
L 309.505263 240.558113 
L 310.146029 242.116364 
L 310.786794 238.357873 
L 312.068325 238.468102 
L 312.709091 238.857007 
L 313.349856 239.650989 
L 313.990622 240.755914 
L 314.631388 241.181275 
L 315.272153 238.088091 
L 315.912919 238.770778 
L 316.553684 239.972617 
L 317.19445 238.271317 
L 317.835215 237.55239 
L 318.475981 238.766088 
L 319.116746 237.679938 
L 319.757512 236.308382 
L 320.398278 237.244964 
L 321.039043 234.466252 
L 322.320574 239.086424 
L 322.96134 239.023097 
L 323.602105 239.8191 
L 324.242871 239.319605 
L 324.883636 234.275548 
L 325.524402 230.871491 
L 326.165167 231.354785 
L 326.805933 233.579036 
L 328.087464 236.564482 
L 328.72823 235.821689 
L 329.368995 236.409434 
L 330.009761 238.059555 
L 330.650526 238.917922 
L 331.291292 239.554646 
L 331.932057 238.68318 
L 332.572823 238.738949 
L 333.213589 237.451333 
L 333.854354 239.082655 
L 334.49512 238.764522 
L 335.135885 240.157352 
L 335.776651 236.456882 
L 336.417416 239.438148 
L 337.058182 240.820132 
L 337.698947 237.728938 
L 338.339713 238.588458 
L 338.980478 237.947407 
L 339.621244 239.656577 
L 340.26201 239.331599 
L 340.902775 234.817978 
L 341.543541 238.476499 
L 342.184306 239.59749 
L 342.825072 239.368815 
L 343.465837 239.325932 
L 344.106603 238.752197 
L 344.747368 240.984575 
L 345.388134 240.852599 
L 346.0289 239.278221 
L 346.669665 238.552251 
L 347.310431 239.634811 
L 348.591962 238.132394 
L 349.232727 238.773958 
L 349.873493 240.436414 
L 350.514258 239.477285 
L 351.155024 240.027123 
L 351.795789 238.794472 
L 352.436555 233.450054 
L 353.077321 237.456234 
L 353.718086 234.333591 
L 354.358852 237.638045 
L 354.999617 240.119255 
L 355.640383 237.793467 
L 356.281148 237.465609 
L 356.921914 239.526697 
L 357.562679 238.034764 
L 358.203445 239.776387 
L 358.844211 238.521457 
L 359.484976 238.315502 
L 360.125742 239.569376 
L 360.766507 240.385596 
L 361.407273 239.243603 
L 362.048038 237.496038 
L 362.688804 238.509401 
L 363.970335 238.521088 
L 364.6111 238.995197 
L 365.251866 238.714367 
L 365.892632 239.081949 
L 367.174163 240.9677 
L 367.814928 240.268276 
L 368.455694 240.411266 
L 369.096459 239.636401 
L 369.737225 241.024588 
L 370.37799 238.794547 
L 371.018756 238.861763 
L 371.659522 239.529969 
L 372.300287 240.552627 
L 372.941053 240.093429 
L 373.581818 238.076362 
L 373.581818 238.076362 
" style="fill:none;stroke:#4c72b0;stroke-linecap:round;stroke-width:1.5;"/>
   </g>
   <g id="line2d_15">
    <path clip-path="url(#p241e09c8fb)" d="M 69.218182 148.046727 
L 69.858947 194.942079 
L 70.499713 204.025986 
L 71.781244 210.74683 
L 72.42201 210.844952 
L 73.062775 210.071937 
L 73.703541 213.28942 
L 74.344306 211.56061 
L 74.985072 210.206017 
L 75.625837 209.936116 
L 76.266603 210.631794 
L 76.907368 214.560969 
L 77.548134 214.31231 
L 78.1889 218.017572 
L 78.829665 216.915337 
L 79.470431 221.459461 
L 80.111196 222.787373 
L 80.751962 219.028105 
L 81.392727 220.08588 
L 82.033493 222.833827 
L 83.315024 221.452942 
L 83.955789 221.681108 
L 84.596555 220.615535 
L 85.237321 223.341231 
L 85.878086 228.698449 
L 86.518852 226.287159 
L 87.159617 227.730763 
L 87.800383 228.523058 
L 88.441148 227.918558 
L 89.081914 226.302441 
L 89.722679 229.191569 
L 90.363445 225.629881 
L 91.004211 227.214403 
L 91.644976 225.456344 
L 92.285742 230.12362 
L 92.926507 229.73203 
L 93.567273 226.805352 
L 94.208038 228.266471 
L 94.848804 230.99675 
L 95.489569 230.878619 
L 96.130335 230.0357 
L 96.7711 231.272627 
L 97.411866 230.313456 
L 98.052632 230.752019 
L 98.693397 233.431872 
L 99.334163 233.586797 
L 99.974928 232.66915 
L 100.615694 232.499931 
L 101.256459 232.863695 
L 101.897225 233.849988 
L 102.53799 234.309598 
L 103.178756 234.479672 
L 103.819522 234.232299 
L 105.101053 227.863451 
L 105.741818 231.088707 
L 106.382584 231.512652 
L 107.023349 230.312203 
L 107.664115 233.79561 
L 108.30488 235.12623 
L 108.945646 234.405378 
L 109.586411 232.524779 
L 110.227177 229.63942 
L 110.867943 232.505968 
L 111.508708 230.630247 
L 112.149474 232.699698 
L 112.790239 232.172271 
L 113.431005 231.791931 
L 114.07177 234.28382 
L 114.712536 231.622186 
L 115.353301 233.478188 
L 115.994067 232.928459 
L 116.634833 233.556426 
L 117.275598 231.747904 
L 117.916364 236.196774 
L 118.557129 233.59743 
L 119.197895 233.506713 
L 119.83866 231.172814 
L 120.479426 234.610169 
L 121.120191 234.725873 
L 121.760957 231.304167 
L 122.401722 235.907607 
L 123.042488 234.489248 
L 123.683254 234.157306 
L 124.324019 230.910001 
L 124.964785 229.313139 
L 126.246316 236.391511 
L 126.887081 231.604413 
L 127.527847 234.070145 
L 128.168612 228.49594 
L 128.809378 230.561495 
L 129.450144 233.4306 
L 130.090909 233.685344 
L 130.731675 234.463104 
L 131.37244 234.374697 
L 132.013206 236.17918 
L 132.653971 231.743742 
L 133.294737 231.758177 
L 133.935502 230.241806 
L 134.576268 233.218436 
L 135.217033 231.766326 
L 135.857799 232.4719 
L 136.498565 230.043511 
L 137.13933 231.606783 
L 137.780096 229.699069 
L 138.420861 228.450857 
L 139.061627 232.242645 
L 139.702392 233.233566 
L 140.343158 234.546506 
L 140.983923 234.967131 
L 141.624689 228.380167 
L 142.265455 232.678643 
L 142.90622 232.113754 
L 143.546986 232.092074 
L 144.187751 234.069727 
L 145.469282 233.425727 
L 146.110048 235.860915 
L 146.750813 236.561984 
L 147.391579 234.760918 
L 148.032344 234.059054 
L 148.67311 234.027949 
L 149.313876 236.413369 
L 149.954641 236.159832 
L 150.595407 233.33073 
L 151.236172 232.243546 
L 151.876938 229.479472 
L 152.517703 233.241018 
L 153.158469 234.143846 
L 153.799234 233.449601 
L 154.44 235.578756 
L 155.080766 233.031946 
L 155.721531 233.850927 
L 156.362297 235.431504 
L 157.003062 234.168746 
L 157.643828 236.979029 
L 158.284593 235.413853 
L 158.925359 235.917043 
L 159.566124 231.984882 
L 160.20689 229.329027 
L 160.847656 232.428426 
L 161.488421 231.910157 
L 162.129187 234.560005 
L 162.769952 234.768328 
L 163.410718 233.223772 
L 164.051483 233.623227 
L 164.692249 231.188153 
L 165.333014 231.237597 
L 165.97378 233.855565 
L 166.614545 235.876645 
L 167.255311 234.47164 
L 167.896077 237.141325 
L 168.536842 234.770889 
L 169.177608 237.088312 
L 169.818373 237.097757 
L 170.459139 234.56198 
L 171.099904 235.347874 
L 171.74067 237.459553 
L 172.381435 236.928938 
L 173.022201 236.858937 
L 173.662967 236.161087 
L 174.303732 232.285551 
L 174.944498 232.405238 
L 175.585263 234.739524 
L 176.866794 233.183592 
L 177.50756 232.046735 
L 178.148325 231.312151 
L 179.429856 234.989117 
L 180.070622 233.126431 
L 180.711388 232.81264 
L 181.352153 231.565238 
L 181.992919 233.936989 
L 182.633684 230.975296 
L 183.27445 231.988516 
L 183.915215 230.611902 
L 184.555981 232.326834 
L 185.196746 232.393779 
L 185.837512 232.605273 
L 186.478278 233.844366 
L 187.119043 233.578057 
L 188.400574 235.488916 
L 189.04134 234.064034 
L 189.682105 235.344589 
L 190.322871 237.509288 
L 190.963636 235.990668 
L 191.604402 237.013006 
L 192.245167 237.170178 
L 192.885933 237.033911 
L 193.526699 233.736184 
L 194.80823 234.102443 
L 195.448995 235.580413 
L 196.089761 234.169949 
L 197.371292 234.316014 
L 198.012057 235.484889 
L 198.652823 234.924062 
L 199.293589 237.378351 
L 199.934354 236.955484 
L 200.57512 238.810721 
L 201.215885 236.508434 
L 201.856651 234.745779 
L 202.497416 235.66375 
L 203.138182 234.684896 
L 203.778947 233.284802 
L 204.419713 232.706279 
L 205.060478 233.394247 
L 205.701244 235.398467 
L 206.34201 238.075731 
L 206.982775 237.339927 
L 207.623541 236.071319 
L 208.264306 236.547647 
L 208.905072 235.393781 
L 209.545837 237.324833 
L 210.186603 235.820561 
L 210.827368 233.707378 
L 211.468134 228.221894 
L 212.1089 231.465341 
L 212.749665 235.905187 
L 213.390431 235.172282 
L 214.031196 237.313685 
L 214.671962 234.964777 
L 215.312727 236.063183 
L 215.953493 231.523446 
L 216.594258 233.56162 
L 217.235024 234.784732 
L 217.875789 233.512373 
L 218.516555 233.4539 
L 219.157321 233.758633 
L 219.798086 233.357022 
L 220.438852 228.878813 
L 221.079617 231.401151 
L 221.720383 234.880977 
L 222.361148 232.703583 
L 223.001914 231.106034 
L 223.642679 232.473483 
L 224.283445 232.101483 
L 224.924211 232.430756 
L 226.205742 234.493069 
L 226.846507 235.625836 
L 227.487273 235.926389 
L 228.128038 234.011749 
L 228.768804 232.464706 
L 229.409569 235.016079 
L 230.050335 235.459627 
L 230.6911 233.761604 
L 231.331866 235.834715 
L 231.972632 226.228757 
L 232.613397 233.080023 
L 233.254163 232.529553 
L 233.894928 233.252638 
L 234.535694 233.785728 
L 235.176459 235.23952 
L 235.817225 231.998897 
L 236.45799 234.198406 
L 237.098756 232.712395 
L 237.739522 233.164901 
L 238.380287 236.377496 
L 239.021053 238.943261 
L 239.661818 234.593102 
L 240.302584 231.297706 
L 240.943349 234.089899 
L 241.584115 237.434331 
L 242.22488 233.983264 
L 242.865646 234.031973 
L 243.506411 237.923969 
L 244.147177 237.026515 
L 244.787943 225.407949 
L 245.428708 230.144993 
L 246.069474 231.994642 
L 246.710239 232.689576 
L 247.99177 236.173025 
L 248.632536 239.225672 
L 249.273301 235.160818 
L 249.914067 234.245796 
L 250.554833 230.289784 
L 251.836364 236.149432 
L 252.477129 236.73596 
L 253.117895 234.487484 
L 253.75866 234.44937 
L 254.399426 237.772293 
L 255.040191 236.81052 
L 256.321722 235.276776 
L 256.962488 235.017671 
L 257.603254 236.64341 
L 258.244019 235.798224 
L 258.884785 239.121824 
L 259.52555 233.306042 
L 260.166316 236.109957 
L 260.807081 236.828464 
L 261.447847 235.051138 
L 262.729378 236.611753 
L 263.370144 235.542409 
L 264.010909 239.281335 
L 264.651675 236.231265 
L 265.29244 236.723056 
L 265.933206 237.629641 
L 266.573971 236.53045 
L 267.214737 236.69975 
L 267.855502 238.980325 
L 268.496268 233.679675 
L 269.137033 234.270835 
L 269.777799 235.754962 
L 270.418565 235.77789 
L 271.05933 234.380301 
L 271.700096 237.663718 
L 272.340861 238.155843 
L 272.981627 238.469841 
L 273.622392 237.765929 
L 274.263158 235.573546 
L 274.903923 232.708793 
L 275.544689 231.35106 
L 276.185455 233.05509 
L 276.82622 232.755195 
L 278.107751 238.1867 
L 278.748517 235.331023 
L 279.389282 234.008969 
L 280.030048 235.338381 
L 280.670813 233.436033 
L 281.311579 232.257769 
L 281.952344 237.165399 
L 282.59311 236.9066 
L 283.233876 238.841929 
L 283.874641 235.605277 
L 284.515407 234.455421 
L 285.156172 233.60149 
L 285.796938 234.354092 
L 286.437703 236.653754 
L 287.078469 234.250139 
L 287.719234 233.398182 
L 288.36 237.732321 
L 289.000766 233.67584 
L 289.641531 236.397612 
L 290.282297 237.328779 
L 290.923062 234.496608 
L 291.563828 232.95271 
L 292.204593 235.602907 
L 292.845359 237.690772 
L 293.486124 238.223676 
L 294.12689 239.267452 
L 294.767656 241.593682 
L 295.408421 240.031369 
L 296.049187 239.725262 
L 296.689952 240.37305 
L 297.330718 237.456513 
L 297.971483 237.411939 
L 298.612249 237.008499 
L 299.253014 237.330197 
L 299.89378 234.220715 
L 300.534545 236.69616 
L 301.175311 236.796578 
L 301.816077 236.458507 
L 302.456842 237.187573 
L 303.097608 237.455271 
L 303.738373 238.128798 
L 304.379139 239.438852 
L 305.019904 238.790968 
L 305.66067 238.864889 
L 306.301435 239.704301 
L 306.942201 240.103179 
L 307.582967 238.429116 
L 308.223732 239.434405 
L 308.864498 239.700235 
L 309.505263 241.707991 
L 310.786794 238.639777 
L 311.42756 237.690516 
L 312.068325 237.150327 
L 312.709091 239.765028 
L 313.349856 240.217044 
L 313.990622 241.309206 
L 314.631388 239.687273 
L 315.272153 238.62266 
L 315.912919 238.387258 
L 316.553684 240.940636 
L 317.19445 237.185486 
L 317.835215 238.453861 
L 318.475981 238.121067 
L 319.116746 237.492408 
L 319.757512 233.935468 
L 320.398278 236.338729 
L 321.039043 234.897818 
L 321.679809 237.998942 
L 322.320574 238.744809 
L 322.96134 238.225583 
L 323.602105 239.46518 
L 324.242871 233.684509 
L 324.883636 231.912269 
L 325.524402 228.319438 
L 326.805933 235.671158 
L 327.446699 234.044303 
L 328.087464 237.64286 
L 328.72823 233.79998 
L 329.368995 235.230037 
L 330.009761 238.542815 
L 330.650526 239.305558 
L 331.291292 236.617525 
L 331.932057 238.122392 
L 333.854354 237.037398 
L 334.49512 238.975359 
L 335.135885 236.206334 
L 336.417416 239.963444 
L 337.058182 239.082572 
L 337.698947 236.729378 
L 338.980478 239.033321 
L 339.621244 240.541952 
L 340.26201 233.838806 
L 340.902775 237.44576 
L 341.543541 238.62852 
L 342.184306 240.086654 
L 342.825072 238.848943 
L 343.465837 239.009988 
L 344.106603 239.672347 
L 344.747368 240.895339 
L 345.388134 240.381909 
L 346.0289 238.193083 
L 346.669665 237.400405 
L 347.310431 240.084702 
L 347.951196 235.755607 
L 348.591962 238.145945 
L 349.232727 239.284339 
L 349.873493 240.067115 
L 350.514258 239.881628 
L 351.155024 239.020238 
L 351.795789 236.512725 
L 352.436555 233.507165 
L 353.077321 236.355501 
L 353.718086 233.90117 
L 354.358852 237.962939 
L 354.999617 236.689383 
L 355.640383 236.273905 
L 356.281148 237.988203 
L 356.921914 235.9826 
L 357.562679 238.472647 
L 358.203445 239.288528 
L 358.844211 236.560372 
L 359.484976 238.12068 
L 360.125742 238.708669 
L 360.766507 240.454304 
L 361.407273 236.454543 
L 362.048038 237.727434 
L 362.688804 237.049572 
L 363.329569 237.402667 
L 363.970335 236.483641 
L 364.6111 239.164912 
L 365.251866 238.633422 
L 365.892632 239.698404 
L 367.174163 240.526537 
L 367.814928 239.639188 
L 368.455694 240.228559 
L 369.096459 239.870128 
L 369.737225 239.302704 
L 370.37799 238.948834 
L 371.018756 237.174386 
L 371.659522 239.927785 
L 372.300287 240.997996 
L 372.941053 238.418168 
L 373.581818 237.538878 
L 373.581818 237.538878 
" style="fill:none;stroke:#dd8452;stroke-linecap:round;stroke-width:1.5;"/>
   </g>
   <g id="patch_3">
    <path d="M 54 252 
L 54 34.56 
" style="fill:none;stroke:#ffffff;stroke-linecap:square;stroke-linejoin:miter;stroke-width:1.25;"/>
   </g>
   <g id="patch_4">
    <path d="M 388.8 252 
L 388.8 34.56 
" style="fill:none;stroke:#ffffff;stroke-linecap:square;stroke-linejoin:miter;stroke-width:1.25;"/>
   </g>
   <g id="patch_5">
    <path d="M 54 252 
L 388.8 252 
" style="fill:none;stroke:#ffffff;stroke-linecap:square;stroke-linejoin:miter;stroke-width:1.25;"/>
   </g>
   <g id="patch_6">
    <path d="M 54 34.56 
L 388.8 34.56 
" style="fill:none;stroke:#ffffff;stroke-linecap:square;stroke-linejoin:miter;stroke-width:1.25;"/>
   </g>
   <g id="legend_1">
    <g id="patch_7">
     <path d="M 291.742188 75.651875 
L 381.1 75.651875 
Q 383.3 75.651875 383.3 73.451875 
L 383.3 42.26 
Q 383.3 40.06 381.1 40.06 
L 291.742188 40.06 
Q 289.542188 40.06 289.542188 42.26 
L 289.542188 73.451875 
Q 289.542188 75.651875 291.742188 75.651875 
z
" style="fill:#eaeaf2;opacity:0.8;stroke:#cccccc;stroke-linejoin:miter;"/>
    </g>
    <g id="line2d_16">
     <path d="M 293.942187 48.968281 
L 315.942187 48.968281 
" style="fill:none;stroke:#4c72b0;stroke-linecap:round;stroke-width:1.5;"/>
    </g>
    <g id="line2d_17"/>
    <g id="text_16">
     <!-- training -->
     <defs>
      <path d="M 18.3125 70.21875 
L 18.3125 54.6875 
L 36.8125 54.6875 
L 36.8125 47.703125 
L 18.3125 47.703125 
L 18.3125 18.015625 
Q 18.3125 11.328125 20.140625 9.421875 
Q 21.96875 7.515625 27.59375 7.515625 
L 36.8125 7.515625 
L 36.8125 0 
L 27.59375 0 
Q 17.1875 0 13.234375 3.875 
Q 9.28125 7.765625 9.28125 18.015625 
L 9.28125 47.703125 
L 2.6875 47.703125 
L 2.6875 54.6875 
L 9.28125 54.6875 
L 9.28125 70.21875 
z
" id="DejaVuSans-116"/>
      <path d="M 41.109375 46.296875 
Q 39.59375 47.171875 37.8125 47.578125 
Q 36.03125 48 33.890625 48 
Q 26.265625 48 22.1875 43.046875 
Q 18.109375 38.09375 18.109375 28.8125 
L 18.109375 0 
L 9.078125 0 
L 9.078125 54.6875 
L 18.109375 54.6875 
L 18.109375 46.1875 
Q 20.953125 51.171875 25.484375 53.578125 
Q 30.03125 56 36.53125 56 
Q 37.453125 56 38.578125 55.875 
Q 39.703125 55.765625 41.0625 55.515625 
z
" id="DejaVuSans-114"/>
      <path d="M 34.28125 27.484375 
Q 23.390625 27.484375 19.1875 25 
Q 14.984375 22.515625 14.984375 16.5 
Q 14.984375 11.71875 18.140625 8.90625 
Q 21.296875 6.109375 26.703125 6.109375 
Q 34.1875 6.109375 38.703125 11.40625 
Q 43.21875 16.703125 43.21875 25.484375 
L 43.21875 27.484375 
z
M 52.203125 31.203125 
L 52.203125 0 
L 43.21875 0 
L 43.21875 8.296875 
Q 40.140625 3.328125 35.546875 0.953125 
Q 30.953125 -1.421875 24.3125 -1.421875 
Q 15.921875 -1.421875 10.953125 3.296875 
Q 6 8.015625 6 15.921875 
Q 6 25.140625 12.171875 29.828125 
Q 18.359375 34.515625 30.609375 34.515625 
L 43.21875 34.515625 
L 43.21875 35.40625 
Q 43.21875 41.609375 39.140625 45 
Q 35.0625 48.390625 27.6875 48.390625 
Q 23 48.390625 18.546875 47.265625 
Q 14.109375 46.140625 10.015625 43.890625 
L 10.015625 52.203125 
Q 14.9375 54.109375 19.578125 55.046875 
Q 24.21875 56 28.609375 56 
Q 40.484375 56 46.34375 49.84375 
Q 52.203125 43.703125 52.203125 31.203125 
z
" id="DejaVuSans-97"/>
      <path d="M 9.421875 54.6875 
L 18.40625 54.6875 
L 18.40625 0 
L 9.421875 0 
z
M 9.421875 75.984375 
L 18.40625 75.984375 
L 18.40625 64.59375 
L 9.421875 64.59375 
z
" id="DejaVuSans-105"/>
      <path d="M 54.890625 33.015625 
L 54.890625 0 
L 45.90625 0 
L 45.90625 32.71875 
Q 45.90625 40.484375 42.875 44.328125 
Q 39.84375 48.1875 33.796875 48.1875 
Q 26.515625 48.1875 22.3125 43.546875 
Q 18.109375 38.921875 18.109375 30.90625 
L 18.109375 0 
L 9.078125 0 
L 9.078125 54.6875 
L 18.109375 54.6875 
L 18.109375 46.1875 
Q 21.34375 51.125 25.703125 53.5625 
Q 30.078125 56 35.796875 56 
Q 45.21875 56 50.046875 50.171875 
Q 54.890625 44.34375 54.890625 33.015625 
z
" id="DejaVuSans-110"/>
      <path d="M 45.40625 27.984375 
Q 45.40625 37.75 41.375 43.109375 
Q 37.359375 48.484375 30.078125 48.484375 
Q 22.859375 48.484375 18.828125 43.109375 
Q 14.796875 37.75 14.796875 27.984375 
Q 14.796875 18.265625 18.828125 12.890625 
Q 22.859375 7.515625 30.078125 7.515625 
Q 37.359375 7.515625 41.375 12.890625 
Q 45.40625 18.265625 45.40625 27.984375 
z
M 54.390625 6.78125 
Q 54.390625 -7.171875 48.1875 -13.984375 
Q 42 -20.796875 29.203125 -20.796875 
Q 24.46875 -20.796875 20.265625 -20.09375 
Q 16.0625 -19.390625 12.109375 -17.921875 
L 12.109375 -9.1875 
Q 16.0625 -11.328125 19.921875 -12.34375 
Q 23.78125 -13.375 27.78125 -13.375 
Q 36.625 -13.375 41.015625 -8.765625 
Q 45.40625 -4.15625 45.40625 5.171875 
L 45.40625 9.625 
Q 42.625 4.78125 38.28125 2.390625 
Q 33.9375 0 27.875 0 
Q 17.828125 0 11.671875 7.65625 
Q 5.515625 15.328125 5.515625 27.984375 
Q 5.515625 40.671875 11.671875 48.328125 
Q 17.828125 56 27.875 56 
Q 33.9375 56 38.28125 53.609375 
Q 42.625 51.21875 45.40625 46.390625 
L 45.40625 54.6875 
L 54.390625 54.6875 
z
" id="DejaVuSans-103"/>
     </defs>
     <g style="fill:#262626;" transform="translate(324.742188 52.818281)scale(0.11 -0.11)">
      <use xlink:href="#DejaVuSans-116"/>
      <use x="39.208984" xlink:href="#DejaVuSans-114"/>
      <use x="80.322266" xlink:href="#DejaVuSans-97"/>
      <use x="141.601562" xlink:href="#DejaVuSans-105"/>
      <use x="169.384766" xlink:href="#DejaVuSans-110"/>
      <use x="232.763672" xlink:href="#DejaVuSans-105"/>
      <use x="260.546875" xlink:href="#DejaVuSans-110"/>
      <use x="323.925781" xlink:href="#DejaVuSans-103"/>
     </g>
    </g>
    <g id="line2d_18">
     <path d="M 293.942187 65.114219 
L 315.942187 65.114219 
" style="fill:none;stroke:#dd8452;stroke-linecap:round;stroke-width:1.5;"/>
    </g>
    <g id="line2d_19"/>
    <g id="text_17">
     <!-- validation -->
     <defs>
      <path d="M 2.984375 54.6875 
L 12.5 54.6875 
L 29.59375 8.796875 
L 46.6875 54.6875 
L 56.203125 54.6875 
L 35.6875 0 
L 23.484375 0 
z
" id="DejaVuSans-118"/>
      <path d="M 9.421875 75.984375 
L 18.40625 75.984375 
L 18.40625 0 
L 9.421875 0 
z
" id="DejaVuSans-108"/>
      <path d="M 45.40625 46.390625 
L 45.40625 75.984375 
L 54.390625 75.984375 
L 54.390625 0 
L 45.40625 0 
L 45.40625 8.203125 
Q 42.578125 3.328125 38.25 0.953125 
Q 33.9375 -1.421875 27.875 -1.421875 
Q 17.96875 -1.421875 11.734375 6.484375 
Q 5.515625 14.40625 5.515625 27.296875 
Q 5.515625 40.1875 11.734375 48.09375 
Q 17.96875 56 27.875 56 
Q 33.9375 56 38.25 53.625 
Q 42.578125 51.265625 45.40625 46.390625 
z
M 14.796875 27.296875 
Q 14.796875 17.390625 18.875 11.75 
Q 22.953125 6.109375 30.078125 6.109375 
Q 37.203125 6.109375 41.296875 11.75 
Q 45.40625 17.390625 45.40625 27.296875 
Q 45.40625 37.203125 41.296875 42.84375 
Q 37.203125 48.484375 30.078125 48.484375 
Q 22.953125 48.484375 18.875 42.84375 
Q 14.796875 37.203125 14.796875 27.296875 
z
" id="DejaVuSans-100"/>
     </defs>
     <g style="fill:#262626;" transform="translate(324.742188 68.964219)scale(0.11 -0.11)">
      <use xlink:href="#DejaVuSans-118"/>
      <use x="59.179688" xlink:href="#DejaVuSans-97"/>
      <use x="120.458984" xlink:href="#DejaVuSans-108"/>
      <use x="148.242188" xlink:href="#DejaVuSans-105"/>
      <use x="176.025391" xlink:href="#DejaVuSans-100"/>
      <use x="239.501953" xlink:href="#DejaVuSans-97"/>
      <use x="300.78125" xlink:href="#DejaVuSans-116"/>
      <use x="339.990234" xlink:href="#DejaVuSans-105"/>
      <use x="367.773438" xlink:href="#DejaVuSans-111"/>
      <use x="428.955078" xlink:href="#DejaVuSans-110"/>
     </g>
    </g>
   </g>
  </g>
 </g>
 <defs>
  <clipPath id="p241e09c8fb">
   <rect height="217.44" width="334.8" x="54" y="34.56"/>
  </clipPath>
 </defs>
</svg>
