<?xml version="1.0" encoding="utf-8" standalone="no"?>
<!DOCTYPE svg PUBLIC "-//W3C//DTD SVG 1.1//EN"
  "http://www.w3.org/Graphics/SVG/1.1/DTD/svg11.dtd">
<!-- Created with matplotlib (https://matplotlib.org/) -->
<svg height="288pt" version="1.1" viewBox="0 0 432 288" width="432pt" xmlns="http://www.w3.org/2000/svg" xmlns:xlink="http://www.w3.org/1999/xlink">
 <metadata>
  <rdf:RDF xmlns:cc="http://creativecommons.org/ns#" xmlns:dc="http://purl.org/dc/elements/1.1/" xmlns:rdf="http://www.w3.org/1999/02/22-rdf-syntax-ns#">
   <cc:Work>
    <dc:type rdf:resource="http://purl.org/dc/dcmitype/StillImage"/>
    <dc:date>2020-07-21T20:24:42.566539</dc:date>
    <dc:format>image/svg+xml</dc:format>
    <dc:creator>
     <cc:Agent>
      <dc:title>Matplotlib v3.3.0, https://matplotlib.org/</dc:title>
     </cc:Agent>
    </dc:creator>
   </cc:Work>
  </rdf:RDF>
 </metadata>
 <defs>
  <style type="text/css">*{stroke-linecap:butt;stroke-linejoin:round;}</style>
 </defs>
 <g id="figure_1">
  <g id="patch_1">
   <path d="M 0 288 
L 432 288 
L 432 0 
L 0 0 
z
" style="fill:#ffffff;"/>
  </g>
  <g id="axes_1">
   <g id="patch_2">
    <path d="M 54 252 
L 388.8 252 
L 388.8 34.56 
L 54 34.56 
z
" style="fill:#eaeaf2;"/>
   </g>
   <g id="matplotlib.axis_1">
    <g id="xtick_1">
     <g id="line2d_1">
      <path clip-path="url(#p583d287aec)" d="M 69.218182 252 
L 69.218182 34.56 
" style="fill:none;stroke:#ffffff;stroke-linecap:round;"/>
     </g>
     <g id="text_1">
      <!-- 0 -->
      <g style="fill:#262626;" transform="translate(66.159666 269.373594)scale(0.11 -0.11)">
       <defs>
        <path d="M 4.15625 35.296875 
Q 4.15625 48 6.765625 55.734375 
Q 9.375 63.484375 14.515625 67.671875 
Q 19.671875 71.875 27.484375 71.875 
Q 33.25 71.875 37.59375 69.546875 
Q 41.9375 67.234375 44.765625 62.859375 
Q 47.609375 58.5 49.21875 52.21875 
Q 50.828125 45.953125 50.828125 35.296875 
Q 50.828125 22.703125 48.234375 14.96875 
Q 45.65625 7.234375 40.5 3 
Q 35.359375 -1.21875 27.484375 -1.21875 
Q 17.140625 -1.21875 11.234375 6.203125 
Q 4.15625 15.140625 4.15625 35.296875 
z
M 13.1875 35.296875 
Q 13.1875 17.671875 17.3125 11.828125 
Q 21.4375 6 27.484375 6 
Q 33.546875 6 37.671875 11.859375 
Q 41.796875 17.71875 41.796875 35.296875 
Q 41.796875 52.984375 37.671875 58.78125 
Q 33.546875 64.59375 27.390625 64.59375 
Q 21.34375 64.59375 17.71875 59.46875 
Q 13.1875 52.9375 13.1875 35.296875 
z
" id="ArialMT-48"/>
       </defs>
       <use xlink:href="#ArialMT-48"/>
      </g>
     </g>
    </g>
    <g id="xtick_2">
     <g id="line2d_2">
      <path clip-path="url(#p583d287aec)" d="M 108.952338 252 
L 108.952338 34.56 
" style="fill:none;stroke:#ffffff;stroke-linecap:round;"/>
     </g>
     <g id="text_2">
      <!-- 50 -->
      <g style="fill:#262626;" transform="translate(102.835307 269.373594)scale(0.11 -0.11)">
       <defs>
        <path d="M 4.15625 18.75 
L 13.375 19.53125 
Q 14.40625 12.796875 18.140625 9.390625 
Q 21.875 6 27.15625 6 
Q 33.5 6 37.890625 10.78125 
Q 42.28125 15.578125 42.28125 23.484375 
Q 42.28125 31 38.0625 35.34375 
Q 33.84375 39.703125 27 39.703125 
Q 22.75 39.703125 19.328125 37.765625 
Q 15.921875 35.84375 13.96875 32.765625 
L 5.71875 33.84375 
L 12.640625 70.609375 
L 48.25 70.609375 
L 48.25 62.203125 
L 19.671875 62.203125 
L 15.828125 42.96875 
Q 22.265625 47.46875 29.34375 47.46875 
Q 38.71875 47.46875 45.15625 40.96875 
Q 51.609375 34.46875 51.609375 24.265625 
Q 51.609375 14.546875 45.953125 7.46875 
Q 39.0625 -1.21875 27.15625 -1.21875 
Q 17.390625 -1.21875 11.203125 4.25 
Q 5.03125 9.71875 4.15625 18.75 
z
" id="ArialMT-53"/>
       </defs>
       <use xlink:href="#ArialMT-53"/>
       <use x="55.615234" xlink:href="#ArialMT-48"/>
      </g>
     </g>
    </g>
    <g id="xtick_3">
     <g id="line2d_3">
      <path clip-path="url(#p583d287aec)" d="M 148.686494 252 
L 148.686494 34.56 
" style="fill:none;stroke:#ffffff;stroke-linecap:round;"/>
     </g>
     <g id="text_3">
      <!-- 100 -->
      <g style="fill:#262626;" transform="translate(139.510947 269.373594)scale(0.11 -0.11)">
       <defs>
        <path d="M 37.25 0 
L 28.46875 0 
L 28.46875 56 
Q 25.296875 52.984375 20.140625 49.953125 
Q 14.984375 46.921875 10.890625 45.40625 
L 10.890625 53.90625 
Q 18.265625 57.375 23.78125 62.296875 
Q 29.296875 67.234375 31.59375 71.875 
L 37.25 71.875 
z
" id="ArialMT-49"/>
       </defs>
       <use xlink:href="#ArialMT-49"/>
       <use x="55.615234" xlink:href="#ArialMT-48"/>
       <use x="111.230469" xlink:href="#ArialMT-48"/>
      </g>
     </g>
    </g>
    <g id="xtick_4">
     <g id="line2d_4">
      <path clip-path="url(#p583d287aec)" d="M 188.42065 252 
L 188.42065 34.56 
" style="fill:none;stroke:#ffffff;stroke-linecap:round;"/>
     </g>
     <g id="text_4">
      <!-- 150 -->
      <g style="fill:#262626;" transform="translate(179.245103 269.373594)scale(0.11 -0.11)">
       <use xlink:href="#ArialMT-49"/>
       <use x="55.615234" xlink:href="#ArialMT-53"/>
       <use x="111.230469" xlink:href="#ArialMT-48"/>
      </g>
     </g>
    </g>
    <g id="xtick_5">
     <g id="line2d_5">
      <path clip-path="url(#p583d287aec)" d="M 228.154807 252 
L 228.154807 34.56 
" style="fill:none;stroke:#ffffff;stroke-linecap:round;"/>
     </g>
     <g id="text_5">
      <!-- 200 -->
      <g style="fill:#262626;" transform="translate(218.97926 269.373594)scale(0.11 -0.11)">
       <defs>
        <path d="M 50.34375 8.453125 
L 50.34375 0 
L 3.03125 0 
Q 2.9375 3.171875 4.046875 6.109375 
Q 5.859375 10.9375 9.828125 15.625 
Q 13.8125 20.3125 21.34375 26.46875 
Q 33.015625 36.03125 37.109375 41.625 
Q 41.21875 47.21875 41.21875 52.203125 
Q 41.21875 57.421875 37.46875 61 
Q 33.734375 64.59375 27.734375 64.59375 
Q 21.390625 64.59375 17.578125 60.78125 
Q 13.765625 56.984375 13.71875 50.25 
L 4.6875 51.171875 
Q 5.609375 61.28125 11.65625 66.578125 
Q 17.71875 71.875 27.9375 71.875 
Q 38.234375 71.875 44.234375 66.15625 
Q 50.25 60.453125 50.25 52 
Q 50.25 47.703125 48.484375 43.546875 
Q 46.734375 39.40625 42.65625 34.8125 
Q 38.578125 30.21875 29.109375 22.21875 
Q 21.1875 15.578125 18.9375 13.203125 
Q 16.703125 10.84375 15.234375 8.453125 
z
" id="ArialMT-50"/>
       </defs>
       <use xlink:href="#ArialMT-50"/>
       <use x="55.615234" xlink:href="#ArialMT-48"/>
       <use x="111.230469" xlink:href="#ArialMT-48"/>
      </g>
     </g>
    </g>
    <g id="xtick_6">
     <g id="line2d_6">
      <path clip-path="url(#p583d287aec)" d="M 267.888963 252 
L 267.888963 34.56 
" style="fill:none;stroke:#ffffff;stroke-linecap:round;"/>
     </g>
     <g id="text_6">
      <!-- 250 -->
      <g style="fill:#262626;" transform="translate(258.713416 269.373594)scale(0.11 -0.11)">
       <use xlink:href="#ArialMT-50"/>
       <use x="55.615234" xlink:href="#ArialMT-53"/>
       <use x="111.230469" xlink:href="#ArialMT-48"/>
      </g>
     </g>
    </g>
    <g id="xtick_7">
     <g id="line2d_7">
      <path clip-path="url(#p583d287aec)" d="M 307.623119 252 
L 307.623119 34.56 
" style="fill:none;stroke:#ffffff;stroke-linecap:round;"/>
     </g>
     <g id="text_7">
      <!-- 300 -->
      <g style="fill:#262626;" transform="translate(298.447572 269.373594)scale(0.11 -0.11)">
       <defs>
        <path d="M 4.203125 18.890625 
L 12.984375 20.0625 
Q 14.5 12.59375 18.140625 9.296875 
Q 21.78125 6 27 6 
Q 33.203125 6 37.46875 10.296875 
Q 41.75 14.59375 41.75 20.953125 
Q 41.75 27 37.796875 30.921875 
Q 33.84375 34.859375 27.734375 34.859375 
Q 25.25 34.859375 21.53125 33.890625 
L 22.515625 41.609375 
Q 23.390625 41.5 23.921875 41.5 
Q 29.546875 41.5 34.03125 44.421875 
Q 38.53125 47.359375 38.53125 53.46875 
Q 38.53125 58.296875 35.25 61.46875 
Q 31.984375 64.65625 26.8125 64.65625 
Q 21.6875 64.65625 18.265625 61.421875 
Q 14.84375 58.203125 13.875 51.765625 
L 5.078125 53.328125 
Q 6.6875 62.15625 12.390625 67.015625 
Q 18.109375 71.875 26.609375 71.875 
Q 32.46875 71.875 37.390625 69.359375 
Q 42.328125 66.84375 44.9375 62.5 
Q 47.5625 58.15625 47.5625 53.265625 
Q 47.5625 48.640625 45.0625 44.828125 
Q 42.578125 41.015625 37.703125 38.765625 
Q 44.046875 37.3125 47.5625 32.6875 
Q 51.078125 28.078125 51.078125 21.140625 
Q 51.078125 11.765625 44.234375 5.25 
Q 37.40625 -1.265625 26.953125 -1.265625 
Q 17.53125 -1.265625 11.296875 4.34375 
Q 5.078125 9.96875 4.203125 18.890625 
z
" id="ArialMT-51"/>
       </defs>
       <use xlink:href="#ArialMT-51"/>
       <use x="55.615234" xlink:href="#ArialMT-48"/>
       <use x="111.230469" xlink:href="#ArialMT-48"/>
      </g>
     </g>
    </g>
    <g id="xtick_8">
     <g id="line2d_8">
      <path clip-path="url(#p583d287aec)" d="M 347.357275 252 
L 347.357275 34.56 
" style="fill:none;stroke:#ffffff;stroke-linecap:round;"/>
     </g>
     <g id="text_8">
      <!-- 350 -->
      <g style="fill:#262626;" transform="translate(338.181728 269.373594)scale(0.11 -0.11)">
       <use xlink:href="#ArialMT-51"/>
       <use x="55.615234" xlink:href="#ArialMT-53"/>
       <use x="111.230469" xlink:href="#ArialMT-48"/>
      </g>
     </g>
    </g>
    <g id="xtick_9">
     <g id="line2d_9">
      <path clip-path="url(#p583d287aec)" d="M 387.091431 252 
L 387.091431 34.56 
" style="fill:none;stroke:#ffffff;stroke-linecap:round;"/>
     </g>
     <g id="text_9">
      <!-- 400 -->
      <g style="fill:#262626;" transform="translate(377.915884 269.373594)scale(0.11 -0.11)">
       <defs>
        <path d="M 32.328125 0 
L 32.328125 17.140625 
L 1.265625 17.140625 
L 1.265625 25.203125 
L 33.9375 71.578125 
L 41.109375 71.578125 
L 41.109375 25.203125 
L 50.78125 25.203125 
L 50.78125 17.140625 
L 41.109375 17.140625 
L 41.109375 0 
z
M 32.328125 25.203125 
L 32.328125 57.46875 
L 9.90625 25.203125 
z
" id="ArialMT-52"/>
       </defs>
       <use xlink:href="#ArialMT-52"/>
       <use x="55.615234" xlink:href="#ArialMT-48"/>
       <use x="111.230469" xlink:href="#ArialMT-48"/>
      </g>
     </g>
    </g>
    <g id="text_10">
     <!-- Epoch -->
     <g style="fill:#262626;" transform="translate(204.388125 284.149219)scale(0.12 -0.12)">
      <defs>
       <path d="M 7.90625 0 
L 7.90625 71.578125 
L 59.671875 71.578125 
L 59.671875 63.140625 
L 17.390625 63.140625 
L 17.390625 41.21875 
L 56.984375 41.21875 
L 56.984375 32.8125 
L 17.390625 32.8125 
L 17.390625 8.453125 
L 61.328125 8.453125 
L 61.328125 0 
z
" id="ArialMT-69"/>
       <path d="M 6.59375 -19.875 
L 6.59375 51.859375 
L 14.59375 51.859375 
L 14.59375 45.125 
Q 17.4375 49.078125 21 51.046875 
Q 24.5625 53.03125 29.640625 53.03125 
Q 36.28125 53.03125 41.359375 49.609375 
Q 46.4375 46.1875 49.015625 39.953125 
Q 51.609375 33.734375 51.609375 26.3125 
Q 51.609375 18.359375 48.75 11.984375 
Q 45.90625 5.609375 40.453125 2.21875 
Q 35.015625 -1.171875 29 -1.171875 
Q 24.609375 -1.171875 21.109375 0.6875 
Q 17.625 2.546875 15.375 5.375 
L 15.375 -19.875 
z
M 14.546875 25.640625 
Q 14.546875 15.625 18.59375 10.84375 
Q 22.65625 6.0625 28.421875 6.0625 
Q 34.28125 6.0625 38.453125 11.015625 
Q 42.625 15.96875 42.625 26.375 
Q 42.625 36.28125 38.546875 41.203125 
Q 34.46875 46.140625 28.8125 46.140625 
Q 23.1875 46.140625 18.859375 40.890625 
Q 14.546875 35.640625 14.546875 25.640625 
z
" id="ArialMT-112"/>
       <path d="M 3.328125 25.921875 
Q 3.328125 40.328125 11.328125 47.265625 
Q 18.015625 53.03125 27.640625 53.03125 
Q 38.328125 53.03125 45.109375 46.015625 
Q 51.90625 39.015625 51.90625 26.65625 
Q 51.90625 16.65625 48.90625 10.90625 
Q 45.90625 5.171875 40.15625 2 
Q 34.421875 -1.171875 27.640625 -1.171875 
Q 16.75 -1.171875 10.03125 5.8125 
Q 3.328125 12.796875 3.328125 25.921875 
z
M 12.359375 25.921875 
Q 12.359375 15.96875 16.703125 11.015625 
Q 21.046875 6.0625 27.640625 6.0625 
Q 34.1875 6.0625 38.53125 11.03125 
Q 42.875 16.015625 42.875 26.21875 
Q 42.875 35.84375 38.5 40.796875 
Q 34.125 45.75 27.640625 45.75 
Q 21.046875 45.75 16.703125 40.8125 
Q 12.359375 35.890625 12.359375 25.921875 
z
" id="ArialMT-111"/>
       <path d="M 40.4375 19 
L 49.078125 17.875 
Q 47.65625 8.9375 41.8125 3.875 
Q 35.984375 -1.171875 27.484375 -1.171875 
Q 16.84375 -1.171875 10.375 5.78125 
Q 3.90625 12.75 3.90625 25.734375 
Q 3.90625 34.125 6.6875 40.421875 
Q 9.46875 46.734375 15.15625 49.875 
Q 20.84375 53.03125 27.546875 53.03125 
Q 35.984375 53.03125 41.359375 48.75 
Q 46.734375 44.484375 48.25 36.625 
L 39.703125 35.296875 
Q 38.484375 40.53125 35.375 43.15625 
Q 32.28125 45.796875 27.875 45.796875 
Q 21.234375 45.796875 17.078125 41.03125 
Q 12.9375 36.28125 12.9375 25.984375 
Q 12.9375 15.53125 16.9375 10.796875 
Q 20.953125 6.0625 27.390625 6.0625 
Q 32.5625 6.0625 36.03125 9.234375 
Q 39.5 12.40625 40.4375 19 
z
" id="ArialMT-99"/>
       <path d="M 6.59375 0 
L 6.59375 71.578125 
L 15.375 71.578125 
L 15.375 45.90625 
Q 21.53125 53.03125 30.90625 53.03125 
Q 36.671875 53.03125 40.921875 50.75 
Q 45.171875 48.484375 47 44.484375 
Q 48.828125 40.484375 48.828125 32.859375 
L 48.828125 0 
L 40.046875 0 
L 40.046875 32.859375 
Q 40.046875 39.453125 37.1875 42.453125 
Q 34.328125 45.453125 29.109375 45.453125 
Q 25.203125 45.453125 21.75 43.421875 
Q 18.3125 41.40625 16.84375 37.9375 
Q 15.375 34.46875 15.375 28.375 
L 15.375 0 
z
" id="ArialMT-104"/>
      </defs>
      <use xlink:href="#ArialMT-69"/>
      <use x="66.699219" xlink:href="#ArialMT-112"/>
      <use x="122.314453" xlink:href="#ArialMT-111"/>
      <use x="177.929688" xlink:href="#ArialMT-99"/>
      <use x="227.929688" xlink:href="#ArialMT-104"/>
     </g>
    </g>
   </g>
   <g id="matplotlib.axis_2">
    <g id="ytick_1">
     <g id="line2d_10">
      <path clip-path="url(#p583d287aec)" d="M 54 242.665847 
L 388.8 242.665847 
" style="fill:none;stroke:#ffffff;stroke-linecap:round;"/>
     </g>
     <g id="text_11">
      <!-- 0 -->
      <g style="fill:#262626;" transform="translate(38.382969 246.602644)scale(0.11 -0.11)">
       <use xlink:href="#ArialMT-48"/>
      </g>
     </g>
    </g>
    <g id="ytick_2">
     <g id="line2d_11">
      <path clip-path="url(#p583d287aec)" d="M 54 213.542633 
L 388.8 213.542633 
" style="fill:none;stroke:#ffffff;stroke-linecap:round;"/>
     </g>
     <g id="text_12">
      <!-- 100 -->
      <g style="fill:#262626;" transform="translate(26.148906 217.47943)scale(0.11 -0.11)">
       <use xlink:href="#ArialMT-49"/>
       <use x="55.615234" xlink:href="#ArialMT-48"/>
       <use x="111.230469" xlink:href="#ArialMT-48"/>
      </g>
     </g>
    </g>
    <g id="ytick_3">
     <g id="line2d_12">
      <path clip-path="url(#p583d287aec)" d="M 54 184.41942 
L 388.8 184.41942 
" style="fill:none;stroke:#ffffff;stroke-linecap:round;"/>
     </g>
     <g id="text_13">
      <!-- 200 -->
      <g style="fill:#262626;" transform="translate(26.148906 188.356216)scale(0.11 -0.11)">
       <use xlink:href="#ArialMT-50"/>
       <use x="55.615234" xlink:href="#ArialMT-48"/>
       <use x="111.230469" xlink:href="#ArialMT-48"/>
      </g>
     </g>
    </g>
    <g id="ytick_4">
     <g id="line2d_13">
      <path clip-path="url(#p583d287aec)" d="M 54 155.296206 
L 388.8 155.296206 
" style="fill:none;stroke:#ffffff;stroke-linecap:round;"/>
     </g>
     <g id="text_14">
      <!-- 300 -->
      <g style="fill:#262626;" transform="translate(26.148906 159.233003)scale(0.11 -0.11)">
       <use xlink:href="#ArialMT-51"/>
       <use x="55.615234" xlink:href="#ArialMT-48"/>
       <use x="111.230469" xlink:href="#ArialMT-48"/>
      </g>
     </g>
    </g>
    <g id="ytick_5">
     <g id="line2d_14">
      <path clip-path="url(#p583d287aec)" d="M 54 126.172992 
L 388.8 126.172992 
" style="fill:none;stroke:#ffffff;stroke-linecap:round;"/>
     </g>
     <g id="text_15">
      <!-- 400 -->
      <g style="fill:#262626;" transform="translate(26.148906 130.109789)scale(0.11 -0.11)">
       <use xlink:href="#ArialMT-52"/>
       <use x="55.615234" xlink:href="#ArialMT-48"/>
       <use x="111.230469" xlink:href="#ArialMT-48"/>
      </g>
     </g>
    </g>
    <g id="ytick_6">
     <g id="line2d_15">
      <path clip-path="url(#p583d287aec)" d="M 54 97.049778 
L 388.8 97.049778 
" style="fill:none;stroke:#ffffff;stroke-linecap:round;"/>
     </g>
     <g id="text_16">
      <!-- 500 -->
      <g style="fill:#262626;" transform="translate(26.148906 100.986575)scale(0.11 -0.11)">
       <use xlink:href="#ArialMT-53"/>
       <use x="55.615234" xlink:href="#ArialMT-48"/>
       <use x="111.230469" xlink:href="#ArialMT-48"/>
      </g>
     </g>
    </g>
    <g id="ytick_7">
     <g id="line2d_16">
      <path clip-path="url(#p583d287aec)" d="M 54 67.926564 
L 388.8 67.926564 
" style="fill:none;stroke:#ffffff;stroke-linecap:round;"/>
     </g>
     <g id="text_17">
      <!-- 600 -->
      <g style="fill:#262626;" transform="translate(26.148906 71.863361)scale(0.11 -0.11)">
       <defs>
        <path d="M 49.75 54.046875 
L 41.015625 53.375 
Q 39.84375 58.546875 37.703125 60.890625 
Q 34.125 64.65625 28.90625 64.65625 
Q 24.703125 64.65625 21.53125 62.3125 
Q 17.390625 59.28125 14.984375 53.46875 
Q 12.59375 47.65625 12.5 36.921875 
Q 15.671875 41.75 20.265625 44.09375 
Q 24.859375 46.4375 29.890625 46.4375 
Q 38.671875 46.4375 44.84375 39.96875 
Q 51.03125 33.5 51.03125 23.25 
Q 51.03125 16.5 48.125 10.71875 
Q 45.21875 4.9375 40.140625 1.859375 
Q 35.0625 -1.21875 28.609375 -1.21875 
Q 17.625 -1.21875 10.6875 6.859375 
Q 3.765625 14.9375 3.765625 33.5 
Q 3.765625 54.25 11.421875 63.671875 
Q 18.109375 71.875 29.4375 71.875 
Q 37.890625 71.875 43.28125 67.140625 
Q 48.6875 62.40625 49.75 54.046875 
z
M 13.875 23.1875 
Q 13.875 18.65625 15.796875 14.5 
Q 17.71875 10.359375 21.1875 8.171875 
Q 24.65625 6 28.46875 6 
Q 34.03125 6 38.03125 10.484375 
Q 42.046875 14.984375 42.046875 22.703125 
Q 42.046875 30.125 38.078125 34.390625 
Q 34.125 38.671875 28.125 38.671875 
Q 22.171875 38.671875 18.015625 34.390625 
Q 13.875 30.125 13.875 23.1875 
z
" id="ArialMT-54"/>
       </defs>
       <use xlink:href="#ArialMT-54"/>
       <use x="55.615234" xlink:href="#ArialMT-48"/>
       <use x="111.230469" xlink:href="#ArialMT-48"/>
      </g>
     </g>
    </g>
    <g id="ytick_8">
     <g id="line2d_17">
      <path clip-path="url(#p583d287aec)" d="M 54 38.80335 
L 388.8 38.80335 
" style="fill:none;stroke:#ffffff;stroke-linecap:round;"/>
     </g>
     <g id="text_18">
      <!-- 700 -->
      <g style="fill:#262626;" transform="translate(26.148906 42.740147)scale(0.11 -0.11)">
       <defs>
        <path d="M 4.734375 62.203125 
L 4.734375 70.65625 
L 51.078125 70.65625 
L 51.078125 63.8125 
Q 44.234375 56.546875 37.515625 44.484375 
Q 30.8125 32.421875 27.15625 19.671875 
Q 24.515625 10.6875 23.78125 0 
L 14.75 0 
Q 14.890625 8.453125 18.0625 20.40625 
Q 21.234375 32.375 27.171875 43.484375 
Q 33.109375 54.59375 39.796875 62.203125 
z
" id="ArialMT-55"/>
       </defs>
       <use xlink:href="#ArialMT-55"/>
       <use x="55.615234" xlink:href="#ArialMT-48"/>
       <use x="111.230469" xlink:href="#ArialMT-48"/>
      </g>
     </g>
    </g>
    <g id="text_19">
     <!-- Loss -->
     <g style="fill:#262626;" transform="translate(19.763906 155.953125)rotate(-90)scale(0.12 -0.12)">
      <defs>
       <path d="M 7.328125 0 
L 7.328125 71.578125 
L 16.796875 71.578125 
L 16.796875 8.453125 
L 52.046875 8.453125 
L 52.046875 0 
z
" id="ArialMT-76"/>
       <path d="M 3.078125 15.484375 
L 11.765625 16.84375 
Q 12.5 11.625 15.84375 8.84375 
Q 19.1875 6.0625 25.203125 6.0625 
Q 31.25 6.0625 34.171875 8.515625 
Q 37.109375 10.984375 37.109375 14.3125 
Q 37.109375 17.28125 34.515625 19 
Q 32.71875 20.171875 25.53125 21.96875 
Q 15.875 24.421875 12.140625 26.203125 
Q 8.40625 27.984375 6.46875 31.125 
Q 4.546875 34.28125 4.546875 38.09375 
Q 4.546875 41.546875 6.125 44.5 
Q 7.71875 47.46875 10.453125 49.421875 
Q 12.5 50.921875 16.03125 51.96875 
Q 19.578125 53.03125 23.640625 53.03125 
Q 29.734375 53.03125 34.34375 51.265625 
Q 38.96875 49.515625 41.15625 46.5 
Q 43.359375 43.5 44.1875 38.484375 
L 35.59375 37.3125 
Q 35.015625 41.3125 32.203125 43.546875 
Q 29.390625 45.796875 24.265625 45.796875 
Q 18.21875 45.796875 15.625 43.796875 
Q 13.03125 41.796875 13.03125 39.109375 
Q 13.03125 37.40625 14.109375 36.03125 
Q 15.1875 34.625 17.484375 33.6875 
Q 18.796875 33.203125 25.25 31.453125 
Q 34.578125 28.953125 38.25 27.359375 
Q 41.9375 25.78125 44.03125 22.75 
Q 46.140625 19.734375 46.140625 15.234375 
Q 46.140625 10.84375 43.578125 6.953125 
Q 41.015625 3.078125 36.171875 0.953125 
Q 31.34375 -1.171875 25.25 -1.171875 
Q 15.140625 -1.171875 9.84375 3.03125 
Q 4.546875 7.234375 3.078125 15.484375 
z
" id="ArialMT-115"/>
      </defs>
      <use xlink:href="#ArialMT-76"/>
      <use x="55.615234" xlink:href="#ArialMT-111"/>
      <use x="111.230469" xlink:href="#ArialMT-115"/>
      <use x="161.230469" xlink:href="#ArialMT-115"/>
     </g>
    </g>
   </g>
   <g id="line2d_18">
    <path clip-path="url(#p583d287aec)" d="M 69.218182 44.443636 
L 70.012865 156.214149 
L 70.807548 201.157786 
L 71.602231 216.768024 
L 72.396914 209.680444 
L 73.191597 157.865767 
L 73.986281 163.059622 
L 74.780964 176.966294 
L 76.37033 192.385014 
L 77.165013 198.955564 
L 77.959696 203.099429 
L 78.754379 208.118044 
L 79.549062 206.805982 
L 80.343746 212.064948 
L 81.138429 213.576342 
L 81.933112 213.676885 
L 82.727795 217.580406 
L 83.522478 212.669532 
L 85.111844 220.742508 
L 85.906527 221.001229 
L 86.701211 223.708745 
L 87.495894 225.937692 
L 88.290577 227.581155 
L 89.08526 228.829336 
L 89.879943 229.736304 
L 91.469309 230.11316 
L 92.263992 231.621425 
L 93.058676 232.800334 
L 94.648042 234.466205 
L 95.442725 234.953868 
L 96.237408 234.85009 
L 97.032091 235.753858 
L 98.621457 236.70733 
L 99.416141 235.556264 
L 100.210824 236.819858 
L 101.005507 237.594934 
L 101.80019 237.827926 
L 102.594873 238.298285 
L 103.389556 238.553663 
L 104.184239 238.434679 
L 104.978922 238.778178 
L 108.157655 239.402639 
L 108.952338 239.685553 
L 110.541704 239.742258 
L 111.336387 239.318989 
L 112.13107 240.006136 
L 112.925754 240.066535 
L 114.51512 240.499688 
L 116.104486 240.498951 
L 116.899169 240.346991 
L 118.488535 240.622624 
L 119.283219 240.563932 
L 120.077902 240.935312 
L 120.872585 240.167524 
L 121.667268 240.929824 
L 122.461951 240.843858 
L 123.256634 240.944018 
L 124.051317 239.573364 
L 124.846 240.603922 
L 125.640684 240.841554 
L 126.435367 240.78031 
L 127.23005 236.34185 
L 128.024733 238.624511 
L 128.819416 239.939973 
L 129.614099 240.276848 
L 130.408782 240.786629 
L 131.998149 241.142277 
L 132.792832 241.198028 
L 133.587515 240.95593 
L 134.382198 240.496523 
L 135.176881 240.936991 
L 135.971564 241.231591 
L 136.766247 238.774119 
L 137.56093 240.158212 
L 138.355614 240.825251 
L 139.150297 241.108868 
L 139.94498 241.187606 
L 140.739663 241.405085 
L 141.534346 241.465231 
L 142.329029 240.612281 
L 143.123712 241.132677 
L 143.918395 241.462155 
L 144.713079 241.513363 
L 145.507762 241.34696 
L 147.097128 241.458291 
L 147.891811 241.514403 
L 148.686494 241.208473 
L 149.481177 241.576396 
L 152.65991 241.5318 
L 154.249276 241.632665 
L 155.043959 240.576632 
L 155.838642 241.487863 
L 156.633325 241.578915 
L 157.428009 241.179506 
L 158.222692 241.360354 
L 159.017375 241.719052 
L 160.606741 241.667798 
L 161.401424 241.411239 
L 162.196107 241.559585 
L 162.99079 241.381156 
L 163.785474 241.543839 
L 166.169523 241.537823 
L 166.964206 241.080112 
L 167.758889 241.503276 
L 168.553572 241.409549 
L 170.142939 241.71907 
L 170.937622 241.222412 
L 171.732305 241.206818 
L 172.526988 241.595275 
L 173.321671 241.56957 
L 174.116354 240.840305 
L 174.911037 241.524481 
L 176.500404 241.652359 
L 177.295087 241.462341 
L 178.08977 241.620711 
L 178.884453 241.134254 
L 179.679136 241.531372 
L 180.473819 241.661225 
L 181.268502 241.601887 
L 182.063185 241.680232 
L 183.652552 241.233548 
L 184.447235 241.576519 
L 186.036601 241.744428 
L 186.831284 241.721932 
L 187.625967 241.534075 
L 189.215333 241.527512 
L 190.010017 241.695108 
L 190.8047 241.014628 
L 191.599383 241.712711 
L 192.394066 241.447393 
L 193.188749 241.506491 
L 193.983432 241.838899 
L 195.572798 241.861426 
L 196.367482 241.49654 
L 197.162165 241.693964 
L 197.956848 241.0487 
L 198.751531 241.762642 
L 199.546214 241.506872 
L 200.340897 241.735931 
L 201.13558 241.828063 
L 201.930263 241.58762 
L 202.724947 241.835698 
L 203.51963 241.735742 
L 204.314313 241.432534 
L 205.108996 241.730149 
L 205.903679 241.731958 
L 206.698362 241.367086 
L 208.287728 241.80432 
L 209.877095 241.846987 
L 210.671778 241.632933 
L 211.466461 241.559088 
L 212.261144 241.670552 
L 217.029243 241.64095 
L 217.823926 241.785931 
L 218.618609 241.161119 
L 219.413292 241.777626 
L 221.002658 241.732474 
L 221.797342 240.618148 
L 222.592025 241.503844 
L 223.386708 241.634439 
L 224.181391 241.125252 
L 224.976074 241.619528 
L 225.770757 241.72882 
L 226.56544 241.54743 
L 227.360123 241.551064 
L 228.154807 241.830635 
L 228.94949 241.058782 
L 229.744173 241.514605 
L 230.538856 241.577601 
L 231.333539 241.775504 
L 232.128222 241.165268 
L 232.922905 241.59699 
L 233.717588 241.529873 
L 235.306955 241.792342 
L 236.101638 241.528934 
L 236.896321 240.656235 
L 237.691004 241.484371 
L 238.485687 241.78121 
L 239.28037 241.842525 
L 240.869737 241.694991 
L 241.66442 241.235379 
L 242.459103 241.840996 
L 243.253786 241.613066 
L 244.843152 241.527305 
L 245.637835 241.83879 
L 247.227202 241.478295 
L 248.021885 241.648979 
L 251.200617 241.92628 
L 251.9953 241.134295 
L 252.789983 241.223085 
L 253.584667 241.864172 
L 254.37935 241.616767 
L 255.174033 241.86906 
L 256.763399 241.69234 
L 257.558082 239.279499 
L 258.352765 240.876338 
L 259.147448 240.032919 
L 259.942131 241.396586 
L 260.736815 241.632572 
L 261.531498 241.676249 
L 262.326181 240.743114 
L 263.120864 241.514012 
L 263.915547 241.820905 
L 264.71023 241.87188 
L 265.504913 241.801571 
L 266.299596 241.277015 
L 267.09428 241.772633 
L 270.273012 241.770199 
L 271.067695 241.916222 
L 271.862378 241.650441 
L 272.657061 241.832845 
L 273.451745 241.527541 
L 274.246428 240.735593 
L 275.041111 241.647498 
L 276.630477 241.426802 
L 278.219843 241.891925 
L 279.014526 241.634674 
L 279.80921 241.710265 
L 280.603893 241.999655 
L 281.398576 241.894971 
L 282.193259 241.949252 
L 282.987942 241.888464 
L 283.782625 241.547591 
L 284.577308 241.867077 
L 285.371991 241.71445 
L 286.166675 241.078459 
L 286.961358 241.681084 
L 287.756041 240.723437 
L 288.550724 241.458462 
L 289.345407 241.549322 
L 290.14009 241.488603 
L 290.934773 241.815386 
L 291.729456 241.225257 
L 292.52414 241.599221 
L 293.318823 241.835873 
L 294.908189 242.014214 
L 295.702872 241.903167 
L 296.497555 241.968264 
L 297.292238 241.890013 
L 298.086921 241.953242 
L 298.881605 241.123123 
L 300.470971 241.887236 
L 301.265654 241.866364 
L 302.060337 241.73023 
L 302.85502 241.821512 
L 304.444386 241.715416 
L 305.23907 241.859367 
L 306.033753 241.852986 
L 306.828436 242.062592 
L 310.801851 241.650703 
L 311.596535 241.838735 
L 312.391218 241.734428 
L 313.185901 241.930784 
L 313.980584 241.935947 
L 314.775267 241.09858 
L 315.56995 240.707485 
L 316.364633 241.116447 
L 317.159316 241.794463 
L 318.748683 241.937149 
L 319.543366 242.014075 
L 321.132732 241.660316 
L 321.927415 241.894703 
L 322.722098 241.766652 
L 323.516781 241.889864 
L 324.311465 241.759173 
L 325.106148 241.873117 
L 325.900831 241.716038 
L 326.695514 241.935194 
L 327.490197 241.803178 
L 328.28488 241.450402 
L 329.874246 241.803975 
L 331.463613 241.632077 
L 332.258296 241.911604 
L 333.052979 241.592562 
L 333.847662 241.926917 
L 334.642345 241.970803 
L 335.437028 241.79619 
L 336.231711 240.556125 
L 337.026394 241.489961 
L 338.615761 241.756485 
L 339.410444 241.102687 
L 340.205127 241.575927 
L 340.99981 241.887356 
L 344.178543 241.903694 
L 344.973226 241.336829 
L 345.767909 241.877853 
L 348.151958 241.820293 
L 348.946641 241.751646 
L 349.741324 241.975689 
L 350.536008 241.627895 
L 351.330691 241.49035 
L 352.125374 241.81736 
L 352.920057 240.96954 
L 353.71474 241.794974 
L 354.509423 241.582004 
L 355.304106 241.908766 
L 356.098789 241.905519 
L 356.893473 241.683625 
L 357.688156 241.723408 
L 358.482839 241.065203 
L 359.277522 241.259231 
L 360.072205 241.028518 
L 360.866888 241.660276 
L 361.661571 241.928125 
L 363.250938 241.867965 
L 364.840304 242.116364 
L 365.634987 241.85854 
L 366.42967 240.886674 
L 367.224353 241.46483 
L 368.019036 241.805354 
L 370.403086 241.972377 
L 371.197769 241.193031 
L 371.992452 241.663867 
L 372.787135 241.827845 
L 373.581818 241.784313 
L 373.581818 241.784313 
" style="fill:none;stroke:#4c72b0;stroke-linecap:round;stroke-width:1.5;"/>
   </g>
   <g id="line2d_19">
    <path clip-path="url(#p583d287aec)" d="M 69.218182 113.831044 
L 70.012865 192.958024 
L 70.807548 212.434457 
L 71.602231 216.492208 
L 72.396914 197.281827 
L 73.191597 154.929126 
L 73.986281 171.559883 
L 74.780964 182.225247 
L 76.37033 196.327359 
L 77.959696 206.223057 
L 78.754379 208.289732 
L 79.549062 209.924409 
L 80.343746 213.385394 
L 81.933112 215.960043 
L 82.727795 216.551486 
L 83.522478 214.815479 
L 84.317161 219.341877 
L 85.111844 221.211565 
L 85.906527 222.702821 
L 86.701211 225.188066 
L 87.495894 227.164739 
L 89.08526 229.524986 
L 89.879943 230.382525 
L 90.674626 230.18283 
L 91.469309 230.986828 
L 92.263992 232.554744 
L 93.853359 234.299902 
L 94.648042 234.871455 
L 95.442725 235.117018 
L 97.032091 236.068107 
L 97.826774 236.513562 
L 98.621457 236.347482 
L 99.416141 236.484733 
L 100.210824 237.552415 
L 102.594873 238.465044 
L 104.184239 238.842118 
L 104.978922 238.797065 
L 105.773606 239.02947 
L 106.568289 239.50419 
L 107.362972 239.413027 
L 108.157655 239.928077 
L 108.952338 239.785739 
L 109.747021 239.895565 
L 110.541704 239.651527 
L 111.336387 240.011612 
L 112.13107 240.088174 
L 112.925754 240.49292 
L 113.720437 240.498643 
L 114.51512 240.743106 
L 115.309803 240.523328 
L 116.104486 240.463701 
L 116.899169 240.800056 
L 117.693852 240.789943 
L 118.488535 240.424264 
L 119.283219 241.0132 
L 120.077902 240.447931 
L 120.872585 240.869657 
L 122.461951 241.020415 
L 123.256634 239.993475 
L 125.640684 241.009907 
L 126.435367 238.866426 
L 127.23005 237.526781 
L 128.024733 239.726271 
L 128.819416 240.552629 
L 129.614099 240.577973 
L 131.203465 241.150657 
L 131.998149 241.179391 
L 133.587515 240.865435 
L 134.382198 240.756655 
L 135.176881 240.952243 
L 135.971564 240.092532 
L 136.766247 239.666607 
L 137.56093 240.654375 
L 139.150297 241.12938 
L 140.739663 241.350629 
L 141.534346 240.726215 
L 142.329029 240.525225 
L 143.123712 241.301955 
L 143.918395 241.604626 
L 144.713079 241.125613 
L 146.302445 241.692106 
L 147.097128 241.661657 
L 147.891811 241.031337 
L 148.686494 241.34546 
L 149.481177 241.502686 
L 150.27586 241.427282 
L 151.070544 241.754247 
L 151.865227 241.516618 
L 153.454593 241.610767 
L 154.249276 240.920583 
L 155.043959 241.461177 
L 155.838642 241.544424 
L 156.633325 241.308351 
L 157.428009 241.400817 
L 158.222692 241.697178 
L 159.017375 241.748881 
L 160.606741 241.498479 
L 161.401424 241.489993 
L 162.196107 241.187763 
L 162.99079 241.228516 
L 163.785474 241.426146 
L 164.580157 240.885717 
L 165.37484 241.357746 
L 166.169523 240.404309 
L 166.964206 241.622007 
L 167.758889 241.171478 
L 168.553572 241.40346 
L 169.348255 241.42608 
L 170.937622 240.943736 
L 171.732305 241.499018 
L 172.526988 241.44263 
L 173.321671 240.898762 
L 174.116354 240.957692 
L 174.911037 241.554982 
L 176.500404 241.176896 
L 177.295087 241.519257 
L 178.08977 240.759378 
L 178.884453 241.054035 
L 179.679136 241.703772 
L 180.473819 241.16372 
L 181.268502 241.553923 
L 182.063185 241.289036 
L 182.857869 241.199763 
L 183.652552 241.403438 
L 184.447235 241.780963 
L 185.241918 241.625125 
L 186.036601 241.733281 
L 187.625967 241.294109 
L 188.42065 241.209309 
L 189.215333 241.670063 
L 190.010017 241.230369 
L 190.8047 241.147378 
L 192.394066 241.712634 
L 193.188749 241.208419 
L 193.983432 241.737211 
L 194.778115 241.785144 
L 195.572798 241.546246 
L 196.367482 241.443335 
L 197.162165 241.106383 
L 197.956848 241.433119 
L 199.546214 241.321565 
L 200.340897 241.596558 
L 201.13558 241.155196 
L 202.724947 241.838417 
L 203.51963 241.42283 
L 205.108996 241.65883 
L 205.903679 241.097279 
L 206.698362 241.115293 
L 207.493045 241.729921 
L 208.287728 241.623819 
L 209.877095 241.656051 
L 210.671778 241.158242 
L 211.466461 241.456132 
L 212.261144 241.33285 
L 213.055827 241.342717 
L 213.85051 241.173402 
L 214.645193 241.800948 
L 215.439877 241.359406 
L 216.23456 241.658417 
L 217.029243 241.626348 
L 217.823926 241.112139 
L 219.413292 241.735828 
L 220.207975 241.652492 
L 221.002658 241.150912 
L 221.797342 240.937893 
L 222.592025 241.474868 
L 223.386708 241.13065 
L 224.976074 241.537069 
L 225.770757 241.451709 
L 226.56544 241.178799 
L 227.360123 241.600445 
L 228.154807 241.120509 
L 228.94949 241.478777 
L 229.744173 241.204484 
L 230.538856 241.499504 
L 231.333539 241.571132 
L 232.128222 241.443216 
L 232.922905 241.596234 
L 233.717588 241.42298 
L 234.512272 241.391574 
L 235.306955 241.626179 
L 236.101638 240.858762 
L 236.896321 240.637941 
L 237.691004 241.499088 
L 239.28037 241.647437 
L 240.075053 241.367753 
L 241.66442 241.316113 
L 242.459103 241.617422 
L 244.048469 241.131791 
L 244.843152 241.618228 
L 245.637835 241.351635 
L 246.432518 241.554773 
L 247.227202 241.380937 
L 248.021885 241.405071 
L 248.816568 241.797938 
L 249.611251 241.880929 
L 250.405934 241.805701 
L 251.9953 241.060297 
L 254.37935 241.763021 
L 255.174033 241.74328 
L 255.968716 241.533875 
L 256.763399 239.867504 
L 259.147448 240.799852 
L 259.942131 241.426471 
L 260.736815 241.563601 
L 262.326181 240.299866 
L 263.120864 241.726859 
L 263.915547 241.763883 
L 264.71023 241.670402 
L 265.504913 241.381271 
L 266.299596 241.702213 
L 267.09428 241.311907 
L 267.888963 241.859927 
L 271.067695 241.886753 
L 271.862378 241.379433 
L 272.657061 241.677318 
L 273.451745 240.53975 
L 274.246428 241.399049 
L 275.041111 241.859162 
L 275.835794 240.80611 
L 276.630477 241.742125 
L 277.42516 241.635129 
L 278.219843 241.780382 
L 279.014526 241.351631 
L 279.80921 241.734029 
L 280.603893 241.909071 
L 282.193259 241.825953 
L 282.987942 241.376928 
L 284.577308 241.844989 
L 285.371991 240.953664 
L 286.166675 241.183907 
L 286.961358 240.85866 
L 287.756041 240.896477 
L 288.550724 241.442819 
L 289.345407 241.612069 
L 290.14009 241.55788 
L 290.934773 241.169169 
L 291.729456 241.184204 
L 292.52414 241.824578 
L 293.318823 241.76909 
L 294.113506 242.038259 
L 295.702872 241.856897 
L 296.497555 241.996351 
L 297.292238 241.826687 
L 298.086921 241.082374 
L 298.881605 241.600506 
L 299.676288 241.493945 
L 301.265654 241.932653 
L 302.85502 241.417163 
L 303.649703 241.386802 
L 304.444386 241.769947 
L 305.23907 241.657534 
L 306.033753 241.909857 
L 306.828436 241.988013 
L 307.623119 241.792353 
L 308.417802 241.387068 
L 309.212485 241.865892 
L 310.007168 241.477029 
L 310.801851 241.759831 
L 311.596535 241.525078 
L 312.391218 241.721563 
L 313.185901 241.697166 
L 313.980584 241.526823 
L 314.775267 239.414737 
L 315.56995 240.735678 
L 316.364633 241.335088 
L 317.159316 241.575658 
L 319.543366 241.905244 
L 320.338049 241.332611 
L 321.132732 241.688883 
L 321.927415 241.134107 
L 323.516781 241.780044 
L 325.106148 241.688142 
L 325.900831 241.46007 
L 326.695514 241.902917 
L 327.490197 241.367783 
L 328.28488 240.384323 
L 329.079563 241.683645 
L 329.874246 241.162669 
L 330.66893 241.629248 
L 331.463613 241.692869 
L 332.258296 241.360828 
L 333.052979 241.293867 
L 333.847662 241.643539 
L 334.642345 241.596732 
L 335.437028 240.284981 
L 336.231711 240.372054 
L 337.026394 241.208714 
L 338.615761 240.947924 
L 339.410444 240.380214 
L 340.205127 241.554953 
L 340.99981 241.564549 
L 341.794493 241.75125 
L 342.589176 241.448974 
L 343.383859 241.9156 
L 344.178543 239.461261 
L 344.973226 241.189997 
L 345.767909 241.6146 
L 347.357275 241.669898 
L 348.151958 241.308324 
L 348.946641 241.791885 
L 349.741324 241.420436 
L 350.536008 240.641011 
L 351.330691 241.700199 
L 352.125374 239.129299 
L 352.920057 241.372285 
L 353.71474 241.69624 
L 354.509423 241.238356 
L 355.304106 241.817675 
L 356.098789 241.821306 
L 356.893473 241.35304 
L 357.688156 240.259076 
L 358.482839 240.521726 
L 359.277522 241.350772 
L 360.072205 241.047227 
L 360.866888 241.582845 
L 362.456254 241.737307 
L 363.250938 241.735808 
L 364.045621 241.945359 
L 364.840304 241.904786 
L 365.634987 241.00178 
L 366.42967 239.697384 
L 367.224353 241.30761 
L 368.019036 241.316689 
L 368.813719 241.755835 
L 369.608403 241.63139 
L 370.403086 241.660852 
L 371.197769 241.149184 
L 371.992452 241.32039 
L 372.787135 241.840167 
L 373.581818 241.747705 
L 373.581818 241.747705 
" style="fill:none;stroke:#dd8452;stroke-linecap:round;stroke-width:1.5;"/>
   </g>
   <g id="patch_3">
    <path d="M 54 252 
L 54 34.56 
" style="fill:none;stroke:#ffffff;stroke-linecap:square;stroke-linejoin:miter;stroke-width:1.25;"/>
   </g>
   <g id="patch_4">
    <path d="M 388.8 252 
L 388.8 34.56 
" style="fill:none;stroke:#ffffff;stroke-linecap:square;stroke-linejoin:miter;stroke-width:1.25;"/>
   </g>
   <g id="patch_5">
    <path d="M 54 252 
L 388.8 252 
" style="fill:none;stroke:#ffffff;stroke-linecap:square;stroke-linejoin:miter;stroke-width:1.25;"/>
   </g>
   <g id="patch_6">
    <path d="M 54 34.56 
L 388.8 34.56 
" style="fill:none;stroke:#ffffff;stroke-linecap:square;stroke-linejoin:miter;stroke-width:1.25;"/>
   </g>
   <g id="legend_1">
    <g id="patch_7">
     <path d="M 299.426719 74.608594 
L 381.1 74.608594 
Q 383.3 74.608594 383.3 72.408594 
L 383.3 42.26 
Q 383.3 40.06 381.1 40.06 
L 299.426719 40.06 
Q 297.226719 40.06 297.226719 42.26 
L 297.226719 72.408594 
Q 297.226719 74.608594 299.426719 74.608594 
z
" style="fill:#eaeaf2;opacity:0.8;stroke:#cccccc;stroke-linejoin:miter;"/>
    </g>
    <g id="line2d_20">
     <path d="M 301.626719 48.483594 
L 323.626719 48.483594 
" style="fill:none;stroke:#4c72b0;stroke-linecap:round;stroke-width:1.5;"/>
    </g>
    <g id="line2d_21"/>
    <g id="text_20">
     <!-- training -->
     <g style="fill:#262626;" transform="translate(332.426719 52.333594)scale(0.11 -0.11)">
      <defs>
       <path d="M 25.78125 7.859375 
L 27.046875 0.09375 
Q 23.34375 -0.6875 20.40625 -0.6875 
Q 15.625 -0.6875 12.984375 0.828125 
Q 10.359375 2.34375 9.28125 4.8125 
Q 8.203125 7.28125 8.203125 15.1875 
L 8.203125 45.015625 
L 1.765625 45.015625 
L 1.765625 51.859375 
L 8.203125 51.859375 
L 8.203125 64.703125 
L 16.9375 69.96875 
L 16.9375 51.859375 
L 25.78125 51.859375 
L 25.78125 45.015625 
L 16.9375 45.015625 
L 16.9375 14.703125 
Q 16.9375 10.9375 17.40625 9.859375 
Q 17.875 8.796875 18.921875 8.15625 
Q 19.96875 7.515625 21.921875 7.515625 
Q 23.390625 7.515625 25.78125 7.859375 
z
" id="ArialMT-116"/>
       <path d="M 6.5 0 
L 6.5 51.859375 
L 14.40625 51.859375 
L 14.40625 44 
Q 17.4375 49.515625 20 51.265625 
Q 22.5625 53.03125 25.640625 53.03125 
Q 30.078125 53.03125 34.671875 50.203125 
L 31.640625 42.046875 
Q 28.421875 43.953125 25.203125 43.953125 
Q 22.3125 43.953125 20.015625 42.21875 
Q 17.71875 40.484375 16.75 37.40625 
Q 15.28125 32.71875 15.28125 27.15625 
L 15.28125 0 
z
" id="ArialMT-114"/>
       <path d="M 40.4375 6.390625 
Q 35.546875 2.25 31.03125 0.53125 
Q 26.515625 -1.171875 21.34375 -1.171875 
Q 12.796875 -1.171875 8.203125 3 
Q 3.609375 7.171875 3.609375 13.671875 
Q 3.609375 17.484375 5.34375 20.625 
Q 7.078125 23.78125 9.890625 25.6875 
Q 12.703125 27.59375 16.21875 28.5625 
Q 18.796875 29.25 24.03125 29.890625 
Q 34.671875 31.15625 39.703125 32.90625 
Q 39.75 34.71875 39.75 35.203125 
Q 39.75 40.578125 37.25 42.78125 
Q 33.890625 45.75 27.25 45.75 
Q 21.046875 45.75 18.09375 43.578125 
Q 15.140625 41.40625 13.71875 35.890625 
L 5.125 37.0625 
Q 6.296875 42.578125 8.984375 45.96875 
Q 11.671875 49.359375 16.75 51.1875 
Q 21.828125 53.03125 28.515625 53.03125 
Q 35.15625 53.03125 39.296875 51.46875 
Q 43.453125 49.90625 45.40625 47.53125 
Q 47.359375 45.171875 48.140625 41.546875 
Q 48.578125 39.3125 48.578125 33.453125 
L 48.578125 21.734375 
Q 48.578125 9.46875 49.140625 6.21875 
Q 49.703125 2.984375 51.375 0 
L 42.1875 0 
Q 40.828125 2.734375 40.4375 6.390625 
z
M 39.703125 26.03125 
Q 34.90625 24.078125 25.34375 22.703125 
Q 19.921875 21.921875 17.671875 20.9375 
Q 15.4375 19.96875 14.203125 18.09375 
Q 12.984375 16.21875 12.984375 13.921875 
Q 12.984375 10.40625 15.640625 8.0625 
Q 18.3125 5.71875 23.4375 5.71875 
Q 28.515625 5.71875 32.46875 7.9375 
Q 36.421875 10.15625 38.28125 14.015625 
Q 39.703125 17 39.703125 22.796875 
z
" id="ArialMT-97"/>
       <path d="M 6.640625 61.46875 
L 6.640625 71.578125 
L 15.4375 71.578125 
L 15.4375 61.46875 
z
M 6.640625 0 
L 6.640625 51.859375 
L 15.4375 51.859375 
L 15.4375 0 
z
" id="ArialMT-105"/>
       <path d="M 6.59375 0 
L 6.59375 51.859375 
L 14.5 51.859375 
L 14.5 44.484375 
Q 20.21875 53.03125 31 53.03125 
Q 35.6875 53.03125 39.625 51.34375 
Q 43.5625 49.65625 45.515625 46.921875 
Q 47.46875 44.1875 48.25 40.4375 
Q 48.734375 37.984375 48.734375 31.890625 
L 48.734375 0 
L 39.9375 0 
L 39.9375 31.546875 
Q 39.9375 36.921875 38.90625 39.578125 
Q 37.890625 42.234375 35.28125 43.8125 
Q 32.671875 45.40625 29.15625 45.40625 
Q 23.53125 45.40625 19.453125 41.84375 
Q 15.375 38.28125 15.375 28.328125 
L 15.375 0 
z
" id="ArialMT-110"/>
       <path d="M 4.984375 -4.296875 
L 13.53125 -5.5625 
Q 14.0625 -9.515625 16.5 -11.328125 
Q 19.78125 -13.765625 25.4375 -13.765625 
Q 31.546875 -13.765625 34.859375 -11.328125 
Q 38.1875 -8.890625 39.359375 -4.5 
Q 40.046875 -1.8125 39.984375 6.78125 
Q 34.234375 0 25.640625 0 
Q 14.9375 0 9.078125 7.71875 
Q 3.21875 15.4375 3.21875 26.21875 
Q 3.21875 33.640625 5.90625 39.90625 
Q 8.59375 46.1875 13.6875 49.609375 
Q 18.796875 53.03125 25.6875 53.03125 
Q 34.859375 53.03125 40.828125 45.609375 
L 40.828125 51.859375 
L 48.921875 51.859375 
L 48.921875 7.03125 
Q 48.921875 -5.078125 46.453125 -10.125 
Q 44 -15.1875 38.640625 -18.109375 
Q 33.296875 -21.046875 25.484375 -21.046875 
Q 16.21875 -21.046875 10.5 -16.875 
Q 4.78125 -12.703125 4.984375 -4.296875 
z
M 12.25 26.859375 
Q 12.25 16.65625 16.296875 11.96875 
Q 20.359375 7.28125 26.46875 7.28125 
Q 32.515625 7.28125 36.609375 11.9375 
Q 40.71875 16.609375 40.71875 26.5625 
Q 40.71875 36.078125 36.5 40.90625 
Q 32.28125 45.75 26.3125 45.75 
Q 20.453125 45.75 16.34375 40.984375 
Q 12.25 36.234375 12.25 26.859375 
z
" id="ArialMT-103"/>
      </defs>
      <use xlink:href="#ArialMT-116"/>
      <use x="27.783203" xlink:href="#ArialMT-114"/>
      <use x="61.083984" xlink:href="#ArialMT-97"/>
      <use x="116.699219" xlink:href="#ArialMT-105"/>
      <use x="138.916016" xlink:href="#ArialMT-110"/>
      <use x="194.53125" xlink:href="#ArialMT-105"/>
      <use x="216.748047" xlink:href="#ArialMT-110"/>
      <use x="272.363281" xlink:href="#ArialMT-103"/>
     </g>
    </g>
    <g id="line2d_22">
     <path d="M 301.626719 64.172344 
L 323.626719 64.172344 
" style="fill:none;stroke:#dd8452;stroke-linecap:round;stroke-width:1.5;"/>
    </g>
    <g id="line2d_23"/>
    <g id="text_21">
     <!-- validation -->
     <g style="fill:#262626;" transform="translate(332.426719 68.022344)scale(0.11 -0.11)">
      <defs>
       <path d="M 21 0 
L 1.265625 51.859375 
L 10.546875 51.859375 
L 21.6875 20.796875 
Q 23.484375 15.765625 25 10.359375 
Q 26.171875 14.453125 28.265625 20.21875 
L 39.796875 51.859375 
L 48.828125 51.859375 
L 29.203125 0 
z
" id="ArialMT-118"/>
       <path d="M 6.390625 0 
L 6.390625 71.578125 
L 15.1875 71.578125 
L 15.1875 0 
z
" id="ArialMT-108"/>
       <path d="M 40.234375 0 
L 40.234375 6.546875 
Q 35.296875 -1.171875 25.734375 -1.171875 
Q 19.53125 -1.171875 14.328125 2.25 
Q 9.125 5.671875 6.265625 11.796875 
Q 3.421875 17.921875 3.421875 25.875 
Q 3.421875 33.640625 6 39.96875 
Q 8.59375 46.296875 13.765625 49.65625 
Q 18.953125 53.03125 25.34375 53.03125 
Q 30.03125 53.03125 33.6875 51.046875 
Q 37.359375 49.078125 39.65625 45.90625 
L 39.65625 71.578125 
L 48.390625 71.578125 
L 48.390625 0 
z
M 12.453125 25.875 
Q 12.453125 15.921875 16.640625 10.984375 
Q 20.84375 6.0625 26.5625 6.0625 
Q 32.328125 6.0625 36.34375 10.765625 
Q 40.375 15.484375 40.375 25.140625 
Q 40.375 35.796875 36.265625 40.765625 
Q 32.171875 45.75 26.171875 45.75 
Q 20.3125 45.75 16.375 40.96875 
Q 12.453125 36.1875 12.453125 25.875 
z
" id="ArialMT-100"/>
      </defs>
      <use xlink:href="#ArialMT-118"/>
      <use x="50" xlink:href="#ArialMT-97"/>
      <use x="105.615234" xlink:href="#ArialMT-108"/>
      <use x="127.832031" xlink:href="#ArialMT-105"/>
      <use x="150.048828" xlink:href="#ArialMT-100"/>
      <use x="205.664062" xlink:href="#ArialMT-97"/>
      <use x="261.279297" xlink:href="#ArialMT-116"/>
      <use x="289.0625" xlink:href="#ArialMT-105"/>
      <use x="311.279297" xlink:href="#ArialMT-111"/>
      <use x="366.894531" xlink:href="#ArialMT-110"/>
     </g>
    </g>
   </g>
  </g>
 </g>
 <defs>
  <clipPath id="p583d287aec">
   <rect height="217.44" width="334.8" x="54" y="34.56"/>
  </clipPath>
 </defs>
</svg>
