<?xml version="1.0" encoding="utf-8" standalone="no"?>
<!DOCTYPE svg PUBLIC "-//W3C//DTD SVG 1.1//EN"
  "http://www.w3.org/Graphics/SVG/1.1/DTD/svg11.dtd">
<!-- Created with matplotlib (https://matplotlib.org/) -->
<svg height="288pt" version="1.1" viewBox="0 0 432 288" width="432pt" xmlns="http://www.w3.org/2000/svg" xmlns:xlink="http://www.w3.org/1999/xlink">
 <metadata>
  <rdf:RDF xmlns:cc="http://creativecommons.org/ns#" xmlns:dc="http://purl.org/dc/elements/1.1/" xmlns:rdf="http://www.w3.org/1999/02/22-rdf-syntax-ns#">
   <cc:Work>
    <dc:type rdf:resource="http://purl.org/dc/dcmitype/StillImage"/>
    <dc:date>2021-01-14T18:41:56.385626</dc:date>
    <dc:format>image/svg+xml</dc:format>
    <dc:creator>
     <cc:Agent>
      <dc:title>Matplotlib v3.3.3, https://matplotlib.org/</dc:title>
     </cc:Agent>
    </dc:creator>
   </cc:Work>
  </rdf:RDF>
 </metadata>
 <defs>
  <style type="text/css">*{stroke-linecap:butt;stroke-linejoin:round;}</style>
 </defs>
 <g id="figure_1">
  <g id="patch_1">
   <path d="M 0 288 
L 432 288 
L 432 0 
L 0 0 
z
" style="fill:#ffffff;"/>
  </g>
  <g id="axes_1">
   <g id="patch_2">
    <path d="M 54 252 
L 388.8 252 
L 388.8 34.56 
L 54 34.56 
z
" style="fill:#eaeaf2;"/>
   </g>
   <g id="matplotlib.axis_1">
    <g id="xtick_1">
     <g id="line2d_1">
      <path clip-path="url(#p6684d8c175)" d="M 69.218182 252 
L 69.218182 34.56 
" style="fill:none;stroke:#ffffff;stroke-linecap:round;"/>
     </g>
     <g id="text_1">
      <!-- 0 -->
      <g style="fill:#262626;" transform="translate(65.718807 269.858281)scale(0.11 -0.11)">
       <defs>
        <path d="M 31.78125 66.40625 
Q 24.171875 66.40625 20.328125 58.90625 
Q 16.5 51.421875 16.5 36.375 
Q 16.5 21.390625 20.328125 13.890625 
Q 24.171875 6.390625 31.78125 6.390625 
Q 39.453125 6.390625 43.28125 13.890625 
Q 47.125 21.390625 47.125 36.375 
Q 47.125 51.421875 43.28125 58.90625 
Q 39.453125 66.40625 31.78125 66.40625 
z
M 31.78125 74.21875 
Q 44.046875 74.21875 50.515625 64.515625 
Q 56.984375 54.828125 56.984375 36.375 
Q 56.984375 17.96875 50.515625 8.265625 
Q 44.046875 -1.421875 31.78125 -1.421875 
Q 19.53125 -1.421875 13.0625 8.265625 
Q 6.59375 17.96875 6.59375 36.375 
Q 6.59375 54.828125 13.0625 64.515625 
Q 19.53125 74.21875 31.78125 74.21875 
z
" id="DejaVuSans-48"/>
       </defs>
       <use xlink:href="#DejaVuSans-48"/>
      </g>
     </g>
    </g>
    <g id="xtick_2">
     <g id="line2d_2">
      <path clip-path="url(#p6684d8c175)" d="M 109.477922 252 
L 109.477922 34.56 
" style="fill:none;stroke:#ffffff;stroke-linecap:round;"/>
     </g>
     <g id="text_2">
      <!-- 50 -->
      <g style="fill:#262626;" transform="translate(102.479172 269.858281)scale(0.11 -0.11)">
       <defs>
        <path d="M 10.796875 72.90625 
L 49.515625 72.90625 
L 49.515625 64.59375 
L 19.828125 64.59375 
L 19.828125 46.734375 
Q 21.96875 47.46875 24.109375 47.828125 
Q 26.265625 48.1875 28.421875 48.1875 
Q 40.625 48.1875 47.75 41.5 
Q 54.890625 34.8125 54.890625 23.390625 
Q 54.890625 11.625 47.5625 5.09375 
Q 40.234375 -1.421875 26.90625 -1.421875 
Q 22.3125 -1.421875 17.546875 -0.640625 
Q 12.796875 0.140625 7.71875 1.703125 
L 7.71875 11.625 
Q 12.109375 9.234375 16.796875 8.0625 
Q 21.484375 6.890625 26.703125 6.890625 
Q 35.15625 6.890625 40.078125 11.328125 
Q 45.015625 15.765625 45.015625 23.390625 
Q 45.015625 31 40.078125 35.4375 
Q 35.15625 39.890625 26.703125 39.890625 
Q 22.75 39.890625 18.8125 39.015625 
Q 14.890625 38.140625 10.796875 36.28125 
z
" id="DejaVuSans-53"/>
       </defs>
       <use xlink:href="#DejaVuSans-53"/>
       <use x="63.623047" xlink:href="#DejaVuSans-48"/>
      </g>
     </g>
    </g>
    <g id="xtick_3">
     <g id="line2d_3">
      <path clip-path="url(#p6684d8c175)" d="M 149.737662 252 
L 149.737662 34.56 
" style="fill:none;stroke:#ffffff;stroke-linecap:round;"/>
     </g>
     <g id="text_3">
      <!-- 100 -->
      <g style="fill:#262626;" transform="translate(139.239537 269.858281)scale(0.11 -0.11)">
       <defs>
        <path d="M 12.40625 8.296875 
L 28.515625 8.296875 
L 28.515625 63.921875 
L 10.984375 60.40625 
L 10.984375 69.390625 
L 28.421875 72.90625 
L 38.28125 72.90625 
L 38.28125 8.296875 
L 54.390625 8.296875 
L 54.390625 0 
L 12.40625 0 
z
" id="DejaVuSans-49"/>
       </defs>
       <use xlink:href="#DejaVuSans-49"/>
       <use x="63.623047" xlink:href="#DejaVuSans-48"/>
       <use x="127.246094" xlink:href="#DejaVuSans-48"/>
      </g>
     </g>
    </g>
    <g id="xtick_4">
     <g id="line2d_4">
      <path clip-path="url(#p6684d8c175)" d="M 189.997403 252 
L 189.997403 34.56 
" style="fill:none;stroke:#ffffff;stroke-linecap:round;"/>
     </g>
     <g id="text_4">
      <!-- 150 -->
      <g style="fill:#262626;" transform="translate(179.499278 269.858281)scale(0.11 -0.11)">
       <use xlink:href="#DejaVuSans-49"/>
       <use x="63.623047" xlink:href="#DejaVuSans-53"/>
       <use x="127.246094" xlink:href="#DejaVuSans-48"/>
      </g>
     </g>
    </g>
    <g id="xtick_5">
     <g id="line2d_5">
      <path clip-path="url(#p6684d8c175)" d="M 230.257143 252 
L 230.257143 34.56 
" style="fill:none;stroke:#ffffff;stroke-linecap:round;"/>
     </g>
     <g id="text_5">
      <!-- 200 -->
      <g style="fill:#262626;" transform="translate(219.759018 269.858281)scale(0.11 -0.11)">
       <defs>
        <path d="M 19.1875 8.296875 
L 53.609375 8.296875 
L 53.609375 0 
L 7.328125 0 
L 7.328125 8.296875 
Q 12.9375 14.109375 22.625 23.890625 
Q 32.328125 33.6875 34.8125 36.53125 
Q 39.546875 41.84375 41.421875 45.53125 
Q 43.3125 49.21875 43.3125 52.78125 
Q 43.3125 58.59375 39.234375 62.25 
Q 35.15625 65.921875 28.609375 65.921875 
Q 23.96875 65.921875 18.8125 64.3125 
Q 13.671875 62.703125 7.8125 59.421875 
L 7.8125 69.390625 
Q 13.765625 71.78125 18.9375 73 
Q 24.125 74.21875 28.421875 74.21875 
Q 39.75 74.21875 46.484375 68.546875 
Q 53.21875 62.890625 53.21875 53.421875 
Q 53.21875 48.921875 51.53125 44.890625 
Q 49.859375 40.875 45.40625 35.40625 
Q 44.1875 33.984375 37.640625 27.21875 
Q 31.109375 20.453125 19.1875 8.296875 
z
" id="DejaVuSans-50"/>
       </defs>
       <use xlink:href="#DejaVuSans-50"/>
       <use x="63.623047" xlink:href="#DejaVuSans-48"/>
       <use x="127.246094" xlink:href="#DejaVuSans-48"/>
      </g>
     </g>
    </g>
    <g id="xtick_6">
     <g id="line2d_6">
      <path clip-path="url(#p6684d8c175)" d="M 270.516883 252 
L 270.516883 34.56 
" style="fill:none;stroke:#ffffff;stroke-linecap:round;"/>
     </g>
     <g id="text_6">
      <!-- 250 -->
      <g style="fill:#262626;" transform="translate(260.018758 269.858281)scale(0.11 -0.11)">
       <use xlink:href="#DejaVuSans-50"/>
       <use x="63.623047" xlink:href="#DejaVuSans-53"/>
       <use x="127.246094" xlink:href="#DejaVuSans-48"/>
      </g>
     </g>
    </g>
    <g id="xtick_7">
     <g id="line2d_7">
      <path clip-path="url(#p6684d8c175)" d="M 310.776623 252 
L 310.776623 34.56 
" style="fill:none;stroke:#ffffff;stroke-linecap:round;"/>
     </g>
     <g id="text_7">
      <!-- 300 -->
      <g style="fill:#262626;" transform="translate(300.278498 269.858281)scale(0.11 -0.11)">
       <defs>
        <path d="M 40.578125 39.3125 
Q 47.65625 37.796875 51.625 33 
Q 55.609375 28.21875 55.609375 21.1875 
Q 55.609375 10.40625 48.1875 4.484375 
Q 40.765625 -1.421875 27.09375 -1.421875 
Q 22.515625 -1.421875 17.65625 -0.515625 
Q 12.796875 0.390625 7.625 2.203125 
L 7.625 11.71875 
Q 11.71875 9.328125 16.59375 8.109375 
Q 21.484375 6.890625 26.8125 6.890625 
Q 36.078125 6.890625 40.9375 10.546875 
Q 45.796875 14.203125 45.796875 21.1875 
Q 45.796875 27.640625 41.28125 31.265625 
Q 36.765625 34.90625 28.71875 34.90625 
L 20.21875 34.90625 
L 20.21875 43.015625 
L 29.109375 43.015625 
Q 36.375 43.015625 40.234375 45.921875 
Q 44.09375 48.828125 44.09375 54.296875 
Q 44.09375 59.90625 40.109375 62.90625 
Q 36.140625 65.921875 28.71875 65.921875 
Q 24.65625 65.921875 20.015625 65.03125 
Q 15.375 64.15625 9.8125 62.3125 
L 9.8125 71.09375 
Q 15.4375 72.65625 20.34375 73.4375 
Q 25.25 74.21875 29.59375 74.21875 
Q 40.828125 74.21875 47.359375 69.109375 
Q 53.90625 64.015625 53.90625 55.328125 
Q 53.90625 49.265625 50.4375 45.09375 
Q 46.96875 40.921875 40.578125 39.3125 
z
" id="DejaVuSans-51"/>
       </defs>
       <use xlink:href="#DejaVuSans-51"/>
       <use x="63.623047" xlink:href="#DejaVuSans-48"/>
       <use x="127.246094" xlink:href="#DejaVuSans-48"/>
      </g>
     </g>
    </g>
    <g id="xtick_8">
     <g id="line2d_8">
      <path clip-path="url(#p6684d8c175)" d="M 351.036364 252 
L 351.036364 34.56 
" style="fill:none;stroke:#ffffff;stroke-linecap:round;"/>
     </g>
     <g id="text_8">
      <!-- 350 -->
      <g style="fill:#262626;" transform="translate(340.538239 269.858281)scale(0.11 -0.11)">
       <use xlink:href="#DejaVuSans-51"/>
       <use x="63.623047" xlink:href="#DejaVuSans-53"/>
       <use x="127.246094" xlink:href="#DejaVuSans-48"/>
      </g>
     </g>
    </g>
    <g id="text_9">
     <!-- Epoch -->
     <g style="fill:#262626;" transform="translate(203.026875 285.264063)scale(0.12 -0.12)">
      <defs>
       <path d="M 9.8125 72.90625 
L 55.90625 72.90625 
L 55.90625 64.59375 
L 19.671875 64.59375 
L 19.671875 43.015625 
L 54.390625 43.015625 
L 54.390625 34.71875 
L 19.671875 34.71875 
L 19.671875 8.296875 
L 56.78125 8.296875 
L 56.78125 0 
L 9.8125 0 
z
" id="DejaVuSans-69"/>
       <path d="M 18.109375 8.203125 
L 18.109375 -20.796875 
L 9.078125 -20.796875 
L 9.078125 54.6875 
L 18.109375 54.6875 
L 18.109375 46.390625 
Q 20.953125 51.265625 25.265625 53.625 
Q 29.59375 56 35.59375 56 
Q 45.5625 56 51.78125 48.09375 
Q 58.015625 40.1875 58.015625 27.296875 
Q 58.015625 14.40625 51.78125 6.484375 
Q 45.5625 -1.421875 35.59375 -1.421875 
Q 29.59375 -1.421875 25.265625 0.953125 
Q 20.953125 3.328125 18.109375 8.203125 
z
M 48.6875 27.296875 
Q 48.6875 37.203125 44.609375 42.84375 
Q 40.53125 48.484375 33.40625 48.484375 
Q 26.265625 48.484375 22.1875 42.84375 
Q 18.109375 37.203125 18.109375 27.296875 
Q 18.109375 17.390625 22.1875 11.75 
Q 26.265625 6.109375 33.40625 6.109375 
Q 40.53125 6.109375 44.609375 11.75 
Q 48.6875 17.390625 48.6875 27.296875 
z
" id="DejaVuSans-112"/>
       <path d="M 30.609375 48.390625 
Q 23.390625 48.390625 19.1875 42.75 
Q 14.984375 37.109375 14.984375 27.296875 
Q 14.984375 17.484375 19.15625 11.84375 
Q 23.34375 6.203125 30.609375 6.203125 
Q 37.796875 6.203125 41.984375 11.859375 
Q 46.1875 17.53125 46.1875 27.296875 
Q 46.1875 37.015625 41.984375 42.703125 
Q 37.796875 48.390625 30.609375 48.390625 
z
M 30.609375 56 
Q 42.328125 56 49.015625 48.375 
Q 55.71875 40.765625 55.71875 27.296875 
Q 55.71875 13.875 49.015625 6.21875 
Q 42.328125 -1.421875 30.609375 -1.421875 
Q 18.84375 -1.421875 12.171875 6.21875 
Q 5.515625 13.875 5.515625 27.296875 
Q 5.515625 40.765625 12.171875 48.375 
Q 18.84375 56 30.609375 56 
z
" id="DejaVuSans-111"/>
       <path d="M 48.78125 52.59375 
L 48.78125 44.1875 
Q 44.96875 46.296875 41.140625 47.34375 
Q 37.3125 48.390625 33.40625 48.390625 
Q 24.65625 48.390625 19.8125 42.84375 
Q 14.984375 37.3125 14.984375 27.296875 
Q 14.984375 17.28125 19.8125 11.734375 
Q 24.65625 6.203125 33.40625 6.203125 
Q 37.3125 6.203125 41.140625 7.25 
Q 44.96875 8.296875 48.78125 10.40625 
L 48.78125 2.09375 
Q 45.015625 0.34375 40.984375 -0.53125 
Q 36.96875 -1.421875 32.421875 -1.421875 
Q 20.0625 -1.421875 12.78125 6.34375 
Q 5.515625 14.109375 5.515625 27.296875 
Q 5.515625 40.671875 12.859375 48.328125 
Q 20.21875 56 33.015625 56 
Q 37.15625 56 41.109375 55.140625 
Q 45.0625 54.296875 48.78125 52.59375 
z
" id="DejaVuSans-99"/>
       <path d="M 54.890625 33.015625 
L 54.890625 0 
L 45.90625 0 
L 45.90625 32.71875 
Q 45.90625 40.484375 42.875 44.328125 
Q 39.84375 48.1875 33.796875 48.1875 
Q 26.515625 48.1875 22.3125 43.546875 
Q 18.109375 38.921875 18.109375 30.90625 
L 18.109375 0 
L 9.078125 0 
L 9.078125 75.984375 
L 18.109375 75.984375 
L 18.109375 46.1875 
Q 21.34375 51.125 25.703125 53.5625 
Q 30.078125 56 35.796875 56 
Q 45.21875 56 50.046875 50.171875 
Q 54.890625 44.34375 54.890625 33.015625 
z
" id="DejaVuSans-104"/>
      </defs>
      <use xlink:href="#DejaVuSans-69"/>
      <use x="63.183594" xlink:href="#DejaVuSans-112"/>
      <use x="126.660156" xlink:href="#DejaVuSans-111"/>
      <use x="187.841797" xlink:href="#DejaVuSans-99"/>
      <use x="242.822266" xlink:href="#DejaVuSans-104"/>
     </g>
    </g>
   </g>
   <g id="matplotlib.axis_2">
    <g id="ytick_1">
     <g id="line2d_9">
      <path clip-path="url(#p6684d8c175)" d="M 54 250.309625 
L 388.8 250.309625 
" style="fill:none;stroke:#ffffff;stroke-linecap:round;"/>
     </g>
     <g id="text_10">
      <!-- 0 -->
      <g style="fill:#262626;" transform="translate(37.50125 254.488765)scale(0.11 -0.11)">
       <use xlink:href="#DejaVuSans-48"/>
      </g>
     </g>
    </g>
    <g id="ytick_2">
     <g id="line2d_10">
      <path clip-path="url(#p6684d8c175)" d="M 54 209.920292 
L 388.8 209.920292 
" style="fill:none;stroke:#ffffff;stroke-linecap:round;"/>
     </g>
     <g id="text_11">
      <!-- 100 -->
      <g style="fill:#262626;" transform="translate(23.50375 214.099432)scale(0.11 -0.11)">
       <use xlink:href="#DejaVuSans-49"/>
       <use x="63.623047" xlink:href="#DejaVuSans-48"/>
       <use x="127.246094" xlink:href="#DejaVuSans-48"/>
      </g>
     </g>
    </g>
    <g id="ytick_3">
     <g id="line2d_11">
      <path clip-path="url(#p6684d8c175)" d="M 54 169.530959 
L 388.8 169.530959 
" style="fill:none;stroke:#ffffff;stroke-linecap:round;"/>
     </g>
     <g id="text_12">
      <!-- 200 -->
      <g style="fill:#262626;" transform="translate(23.50375 173.710099)scale(0.11 -0.11)">
       <use xlink:href="#DejaVuSans-50"/>
       <use x="63.623047" xlink:href="#DejaVuSans-48"/>
       <use x="127.246094" xlink:href="#DejaVuSans-48"/>
      </g>
     </g>
    </g>
    <g id="ytick_4">
     <g id="line2d_12">
      <path clip-path="url(#p6684d8c175)" d="M 54 129.141626 
L 388.8 129.141626 
" style="fill:none;stroke:#ffffff;stroke-linecap:round;"/>
     </g>
     <g id="text_13">
      <!-- 300 -->
      <g style="fill:#262626;" transform="translate(23.50375 133.320766)scale(0.11 -0.11)">
       <use xlink:href="#DejaVuSans-51"/>
       <use x="63.623047" xlink:href="#DejaVuSans-48"/>
       <use x="127.246094" xlink:href="#DejaVuSans-48"/>
      </g>
     </g>
    </g>
    <g id="ytick_5">
     <g id="line2d_13">
      <path clip-path="url(#p6684d8c175)" d="M 54 88.752293 
L 388.8 88.752293 
" style="fill:none;stroke:#ffffff;stroke-linecap:round;"/>
     </g>
     <g id="text_14">
      <!-- 400 -->
      <g style="fill:#262626;" transform="translate(23.50375 92.931433)scale(0.11 -0.11)">
       <defs>
        <path d="M 37.796875 64.3125 
L 12.890625 25.390625 
L 37.796875 25.390625 
z
M 35.203125 72.90625 
L 47.609375 72.90625 
L 47.609375 25.390625 
L 58.015625 25.390625 
L 58.015625 17.1875 
L 47.609375 17.1875 
L 47.609375 0 
L 37.796875 0 
L 37.796875 17.1875 
L 4.890625 17.1875 
L 4.890625 26.703125 
z
" id="DejaVuSans-52"/>
       </defs>
       <use xlink:href="#DejaVuSans-52"/>
       <use x="63.623047" xlink:href="#DejaVuSans-48"/>
       <use x="127.246094" xlink:href="#DejaVuSans-48"/>
      </g>
     </g>
    </g>
    <g id="ytick_6">
     <g id="line2d_14">
      <path clip-path="url(#p6684d8c175)" d="M 54 48.36296 
L 388.8 48.36296 
" style="fill:none;stroke:#ffffff;stroke-linecap:round;"/>
     </g>
     <g id="text_15">
      <!-- 500 -->
      <g style="fill:#262626;" transform="translate(23.50375 52.5421)scale(0.11 -0.11)">
       <use xlink:href="#DejaVuSans-53"/>
       <use x="63.623047" xlink:href="#DejaVuSans-48"/>
       <use x="127.246094" xlink:href="#DejaVuSans-48"/>
      </g>
     </g>
    </g>
    <g id="text_16">
     <!-- Loss -->
     <g style="fill:#262626;" transform="translate(17.008125 156.440625)rotate(-90)scale(0.12 -0.12)">
      <defs>
       <path d="M 9.8125 72.90625 
L 19.671875 72.90625 
L 19.671875 8.296875 
L 55.171875 8.296875 
L 55.171875 0 
L 9.8125 0 
z
" id="DejaVuSans-76"/>
       <path d="M 44.28125 53.078125 
L 44.28125 44.578125 
Q 40.484375 46.53125 36.375 47.5 
Q 32.28125 48.484375 27.875 48.484375 
Q 21.1875 48.484375 17.84375 46.4375 
Q 14.5 44.390625 14.5 40.28125 
Q 14.5 37.15625 16.890625 35.375 
Q 19.28125 33.59375 26.515625 31.984375 
L 29.59375 31.296875 
Q 39.15625 29.25 43.1875 25.515625 
Q 47.21875 21.78125 47.21875 15.09375 
Q 47.21875 7.46875 41.1875 3.015625 
Q 35.15625 -1.421875 24.609375 -1.421875 
Q 20.21875 -1.421875 15.453125 -0.5625 
Q 10.6875 0.296875 5.421875 2 
L 5.421875 11.28125 
Q 10.40625 8.6875 15.234375 7.390625 
Q 20.0625 6.109375 24.8125 6.109375 
Q 31.15625 6.109375 34.5625 8.28125 
Q 37.984375 10.453125 37.984375 14.40625 
Q 37.984375 18.0625 35.515625 20.015625 
Q 33.0625 21.96875 24.703125 23.78125 
L 21.578125 24.515625 
Q 13.234375 26.265625 9.515625 29.90625 
Q 5.8125 33.546875 5.8125 39.890625 
Q 5.8125 47.609375 11.28125 51.796875 
Q 16.75 56 26.8125 56 
Q 31.78125 56 36.171875 55.265625 
Q 40.578125 54.546875 44.28125 53.078125 
z
" id="DejaVuSans-115"/>
      </defs>
      <use xlink:href="#DejaVuSans-76"/>
      <use x="53.962891" xlink:href="#DejaVuSans-111"/>
      <use x="115.144531" xlink:href="#DejaVuSans-115"/>
      <use x="167.244141" xlink:href="#DejaVuSans-115"/>
     </g>
    </g>
   </g>
   <g id="line2d_15">
    <path clip-path="url(#p6684d8c175)" d="M 69.218182 44.443636 
L 70.023377 157.660109 
L 70.828571 190.433776 
L 71.633766 201.559374 
L 72.438961 208.258108 
L 73.244156 214.016676 
L 74.049351 216.46429 
L 74.854545 219.404097 
L 75.65974 221.181897 
L 76.464935 222.448279 
L 77.27013 224.627723 
L 78.075325 225.076898 
L 78.880519 226.591913 
L 79.685714 227.844588 
L 80.490909 228.075773 
L 81.296104 229.256862 
L 82.101299 231.01777 
L 82.906494 231.287219 
L 83.711688 231.827846 
L 85.322078 233.180875 
L 86.127273 234.303027 
L 86.932468 234.343996 
L 87.737662 234.173607 
L 88.542857 234.588302 
L 89.348052 234.2044 
L 90.153247 235.253992 
L 90.958442 235.511699 
L 91.763636 235.264566 
L 92.568831 235.490372 
L 94.179221 236.283254 
L 94.984416 236.433497 
L 95.78961 236.347599 
L 96.594805 237.005116 
L 97.4 237.228828 
L 98.205195 237.171786 
L 99.01039 236.706756 
L 99.815584 236.641015 
L 101.425974 237.300415 
L 102.231169 237.561394 
L 103.036364 237.498592 
L 103.841558 237.95957 
L 104.646753 237.414357 
L 105.451948 237.845422 
L 106.257143 236.800644 
L 107.062338 237.109998 
L 107.867532 237.954566 
L 108.672727 237.389818 
L 109.477922 238.30616 
L 110.283117 237.434953 
L 112.698701 237.98343 
L 113.503896 237.729352 
L 114.309091 238.311702 
L 115.114286 238.178616 
L 115.919481 238.413963 
L 116.724675 238.429681 
L 117.52987 238.282369 
L 118.335065 238.474648 
L 119.14026 238.430265 
L 119.945455 237.924339 
L 121.555844 238.099999 
L 122.361039 237.728535 
L 123.166234 238.455998 
L 123.971429 237.54473 
L 124.776623 238.128412 
L 125.581818 238.350618 
L 127.192208 237.921949 
L 127.997403 238.095453 
L 128.802597 239.255172 
L 129.607792 238.935231 
L 130.412987 238.451483 
L 131.218182 239.124209 
L 132.023377 239.287135 
L 133.633766 239.364255 
L 135.244156 237.889365 
L 136.049351 238.770278 
L 136.854545 238.951384 
L 137.65974 238.936758 
L 138.464935 238.430801 
L 139.27013 238.793434 
L 140.075325 237.162082 
L 140.880519 237.530502 
L 141.685714 237.719281 
L 142.490909 238.556396 
L 143.296104 239.037521 
L 144.101299 238.932896 
L 145.711688 238.151271 
L 147.322078 237.917508 
L 148.127273 238.380303 
L 148.932468 238.318127 
L 151.348052 240.122851 
L 152.958442 240.05432 
L 154.568831 239.59205 
L 155.374026 239.660027 
L 156.984416 239.149713 
L 157.78961 239.340273 
L 158.594805 239.151777 
L 159.4 239.636066 
L 160.205195 239.740636 
L 161.01039 239.428952 
L 161.815584 239.605067 
L 162.620779 240.370468 
L 163.425974 240.663666 
L 164.231169 240.070831 
L 165.036364 239.907594 
L 165.841558 240.449242 
L 168.257143 239.813609 
L 169.062338 239.792122 
L 169.867532 240.165718 
L 170.672727 239.696533 
L 171.477922 240.051187 
L 173.893506 240.588171 
L 174.698701 240.636133 
L 175.503896 240.326458 
L 176.309091 239.506071 
L 177.114286 239.82446 
L 177.919481 239.975563 
L 178.724675 240.329923 
L 179.52987 240.373048 
L 180.335065 240.007491 
L 181.14026 240.322403 
L 181.945455 240.009901 
L 182.750649 239.416499 
L 184.361039 240.329529 
L 185.166234 239.462879 
L 186.776623 239.543684 
L 187.581818 239.188726 
L 188.387013 239.834158 
L 189.192208 239.085267 
L 189.997403 239.638486 
L 191.607792 240.160156 
L 192.412987 239.958382 
L 193.218182 239.937082 
L 194.023377 240.146212 
L 195.633766 240.253445 
L 196.438961 240.10809 
L 197.244156 240.658618 
L 198.049351 240.95486 
L 199.65974 240.575362 
L 200.464935 240.954696 
L 201.27013 240.829477 
L 202.075325 240.235771 
L 202.880519 239.146438 
L 203.685714 239.494775 
L 204.490909 240.317277 
L 205.296104 240.67109 
L 206.906494 240.761792 
L 207.711688 241.159376 
L 208.516883 241.398316 
L 210.127273 240.822474 
L 210.932468 240.813073 
L 211.737662 240.610624 
L 212.542857 240.203296 
L 213.348052 240.630801 
L 214.153247 240.769246 
L 214.958442 240.533864 
L 215.763636 240.871021 
L 216.568831 240.998471 
L 218.179221 240.933277 
L 218.984416 241.061978 
L 219.78961 241.035653 
L 220.594805 241.309969 
L 221.4 241.166027 
L 222.205195 240.789644 
L 223.01039 240.723835 
L 223.815584 240.414311 
L 224.620779 240.633573 
L 225.425974 240.558388 
L 227.036364 240.871496 
L 227.841558 240.499575 
L 228.646753 239.847814 
L 229.451948 240.226872 
L 231.062338 240.267888 
L 231.867532 240.844872 
L 232.672727 240.234409 
L 233.477922 240.627012 
L 235.088312 240.98909 
L 237.503896 241.663034 
L 238.309091 241.390048 
L 239.114286 240.657828 
L 239.919481 241.019328 
L 240.724675 240.628726 
L 241.52987 239.828093 
L 242.335065 239.448222 
L 243.14026 240.522001 
L 243.945455 239.876491 
L 244.750649 239.76347 
L 245.555844 240.257717 
L 247.166234 240.861257 
L 247.971429 241.287394 
L 249.581818 241.295665 
L 250.387013 240.765872 
L 251.192208 241.069084 
L 251.997403 241.09644 
L 252.802597 241.240279 
L 254.412987 241.279903 
L 255.218182 240.654388 
L 256.023377 240.822486 
L 256.828571 241.304741 
L 257.633766 241.491275 
L 258.438961 241.287357 
L 259.244156 241.233479 
L 260.049351 241.440675 
L 261.65974 241.328997 
L 262.464935 241.211048 
L 263.27013 240.888249 
L 264.075325 241.26658 
L 264.880519 240.634649 
L 265.685714 240.618754 
L 266.490909 241.485856 
L 267.296104 241.660677 
L 268.101299 241.423868 
L 268.906494 240.834428 
L 269.711688 241.261597 
L 270.516883 241.408667 
L 271.322078 241.381429 
L 272.127273 240.999885 
L 272.932468 241.03871 
L 273.737662 241.31835 
L 274.542857 241.273176 
L 276.153247 240.609255 
L 276.958442 241.007514 
L 277.763636 241.26642 
L 279.374026 241.502838 
L 280.179221 241.246101 
L 280.984416 241.291452 
L 281.78961 241.474242 
L 282.594805 241.301108 
L 283.4 240.68302 
L 284.205195 240.988071 
L 285.01039 240.86445 
L 285.815584 241.272593 
L 286.620779 241.508786 
L 287.425974 241.476061 
L 288.231169 241.637445 
L 289.036364 241.076958 
L 289.841558 241.11045 
L 290.646753 241.396812 
L 291.451948 241.496876 
L 292.257143 242.033747 
L 293.062338 242.116364 
L 293.867532 241.740438 
L 295.477922 241.523502 
L 296.283117 241.74403 
L 298.698701 242.085964 
L 299.503896 241.849749 
L 300.309091 241.047129 
L 301.114286 240.833423 
L 301.919481 241.403616 
L 302.724675 241.221671 
L 303.52987 241.439491 
L 305.945455 241.269916 
L 306.750649 241.33164 
L 307.555844 241.713436 
L 308.361039 241.938368 
L 309.166234 241.738962 
L 309.971429 241.851229 
L 311.581818 241.520207 
L 312.387013 241.858139 
L 313.192208 241.540304 
L 314.802597 241.414082 
L 316.412987 241.642943 
L 318.023377 241.69435 
L 319.633766 241.039719 
L 320.438961 241.325842 
L 321.244156 241.165655 
L 322.854545 241.661533 
L 324.464935 241.587423 
L 326.075325 241.940463 
L 326.880519 241.64351 
L 329.296104 241.766476 
L 330.101299 241.570611 
L 330.906494 241.750803 
L 331.711688 241.802092 
L 332.516883 241.470817 
L 334.127273 241.499929 
L 334.932468 241.622899 
L 335.737662 241.396642 
L 336.542857 241.557219 
L 339.763636 241.576678 
L 341.374026 241.71989 
L 342.984416 241.54352 
L 343.78961 240.968055 
L 344.594805 241.056367 
L 345.4 241.563194 
L 346.205195 241.516324 
L 347.01039 241.589022 
L 348.620779 241.251722 
L 349.425974 241.368323 
L 350.231169 241.261347 
L 351.036364 239.576048 
L 352.646753 241.134322 
L 353.451948 241.19977 
L 355.062338 241.636304 
L 355.867532 241.863385 
L 358.283117 241.996649 
L 361.503896 241.103677 
L 363.114286 241.164682 
L 363.919481 241.051323 
L 365.52987 241.692468 
L 367.14026 240.945272 
L 367.945455 241.551879 
L 368.750649 241.707537 
L 369.555844 241.717543 
L 370.361039 241.912273 
L 371.166234 241.543929 
L 371.971429 241.521907 
L 372.776623 241.762923 
L 373.581818 241.784255 
L 373.581818 241.784255 
" style="fill:none;stroke:#4c72b0;stroke-linecap:round;stroke-width:1.5;"/>
   </g>
   <g id="line2d_16">
    <path clip-path="url(#p6684d8c175)" d="M 69.218182 136.026868 
L 70.023377 182.345716 
L 70.828571 198.077964 
L 72.438961 212.385834 
L 73.244156 214.658403 
L 74.049351 218.933592 
L 74.854545 220.496647 
L 76.464935 224.383597 
L 77.27013 225.225928 
L 78.075325 226.25054 
L 78.880519 227.748522 
L 79.685714 228.553489 
L 80.490909 228.855191 
L 81.296104 230.440407 
L 82.906494 231.985441 
L 83.711688 232.383199 
L 84.516883 232.973398 
L 85.322078 234.336759 
L 86.127273 234.434377 
L 86.932468 234.146077 
L 87.737662 234.390617 
L 89.348052 234.589826 
L 90.153247 235.56958 
L 90.958442 235.819084 
L 91.763636 235.283366 
L 92.568831 236.083977 
L 93.374026 236.092336 
L 94.179221 236.672922 
L 94.984416 236.025553 
L 95.78961 236.816445 
L 97.4 237.111794 
L 98.205195 237.002134 
L 99.01039 236.607103 
L 99.815584 236.518544 
L 100.620779 237.181301 
L 101.425974 237.48831 
L 102.231169 237.640999 
L 103.036364 238.127622 
L 103.841558 236.938548 
L 104.646753 237.718121 
L 105.451948 237.165313 
L 106.257143 237.051797 
L 107.062338 237.418929 
L 107.867532 237.334217 
L 108.672727 238.247623 
L 109.477922 237.369104 
L 110.283117 237.584689 
L 111.088312 236.966261 
L 111.893506 237.757371 
L 112.698701 237.270355 
L 113.503896 237.92579 
L 114.309091 237.73554 
L 115.114286 238.617112 
L 115.919481 238.596842 
L 116.724675 237.919436 
L 117.52987 238.531327 
L 118.335065 238.746356 
L 119.14026 237.842547 
L 120.750649 238.158026 
L 121.555844 237.363417 
L 122.361039 238.322376 
L 123.166234 236.795242 
L 123.971429 238.10566 
L 124.776623 238.356531 
L 125.581818 237.751119 
L 127.192208 237.975839 
L 127.997403 238.824751 
L 128.802597 239.236021 
L 129.607792 237.640894 
L 130.412987 238.540187 
L 131.218182 239.240232 
L 132.023377 239.087188 
L 132.828571 239.640485 
L 133.633766 238.478015 
L 134.438961 238.63339 
L 135.244156 238.008935 
L 136.049351 238.727438 
L 136.854545 238.944776 
L 137.65974 238.190805 
L 138.464935 238.591377 
L 139.27013 238.330369 
L 140.075325 236.780623 
L 140.880519 237.548117 
L 141.685714 238.132274 
L 143.296104 238.595141 
L 144.101299 238.693183 
L 144.906494 237.795757 
L 145.711688 238.392953 
L 146.516883 236.710418 
L 147.322078 238.261619 
L 148.127273 238.079825 
L 149.737662 238.713632 
L 150.542857 239.672952 
L 151.348052 239.879422 
L 152.153247 239.589902 
L 152.958442 239.83629 
L 153.763636 239.007935 
L 155.374026 239.552485 
L 156.179221 239.00369 
L 156.984416 238.722461 
L 157.78961 238.597375 
L 158.594805 239.181377 
L 159.4 239.396764 
L 160.205195 238.99501 
L 161.815584 239.673392 
L 162.620779 240.19741 
L 163.425974 240.104204 
L 164.231169 239.142044 
L 165.036364 240.012518 
L 165.841558 240.023224 
L 166.646753 239.857798 
L 167.451948 239.869956 
L 168.257143 239.009395 
L 169.062338 239.711036 
L 169.867532 238.850242 
L 170.672727 239.943409 
L 171.477922 239.748192 
L 172.283117 240.296619 
L 173.088312 240.075757 
L 173.893506 240.24186 
L 175.503896 240.259292 
L 176.309091 239.122724 
L 177.114286 239.039962 
L 178.724675 240.295255 
L 179.52987 239.67895 
L 180.335065 239.810738 
L 181.14026 239.238762 
L 181.945455 238.995003 
L 182.750649 239.011886 
L 183.555844 239.861623 
L 184.361039 238.367272 
L 185.971429 239.488844 
L 186.776623 238.634643 
L 187.581818 239.087644 
L 188.387013 238.691634 
L 189.192208 239.111419 
L 189.997403 239.715744 
L 190.802597 239.851166 
L 191.607792 239.408773 
L 192.412987 239.391177 
L 193.218182 239.657495 
L 196.438961 239.66096 
L 197.244156 240.385903 
L 198.049351 240.504503 
L 198.854545 240.163375 
L 200.464935 240.732561 
L 201.27013 239.797146 
L 202.075325 240.102226 
L 202.880519 238.321873 
L 203.685714 239.732346 
L 204.490909 239.969539 
L 205.296104 240.560484 
L 206.101299 240.153075 
L 206.906494 240.640428 
L 208.516883 241.158368 
L 209.322078 240.28468 
L 210.127273 240.754505 
L 210.932468 240.32424 
L 211.737662 239.667401 
L 212.542857 240.131047 
L 213.348052 240.322891 
L 214.153247 239.635379 
L 216.568831 240.476521 
L 217.374026 240.337726 
L 218.179221 240.447999 
L 218.984416 240.891 
L 221.4 240.677397 
L 222.205195 240.497783 
L 223.815584 239.824359 
L 224.620779 239.635994 
L 225.425974 240.145751 
L 226.231169 240.415114 
L 227.036364 240.218629 
L 227.841558 239.846867 
L 228.646753 239.327946 
L 229.451948 240.217824 
L 230.257143 239.518092 
L 231.062338 240.369667 
L 231.867532 240.590517 
L 232.672727 239.895861 
L 233.477922 240.52343 
L 234.283117 240.567931 
L 235.088312 240.901296 
L 235.893506 241.072384 
L 236.698701 241.546604 
L 237.503896 241.213176 
L 238.309091 240.514785 
L 239.114286 240.263685 
L 239.919481 240.661179 
L 240.724675 240.250231 
L 241.52987 238.220195 
L 242.335065 239.216891 
L 243.14026 239.85675 
L 243.945455 238.574182 
L 244.750649 239.734066 
L 245.555844 239.955986 
L 247.971429 240.954726 
L 248.776623 240.970672 
L 249.581818 240.592759 
L 250.387013 240.088733 
L 251.192208 240.734052 
L 251.997403 240.667316 
L 252.802597 241.01324 
L 253.607792 240.53356 
L 254.412987 240.620397 
L 255.218182 240.281664 
L 256.828571 241.075508 
L 259.244156 240.767385 
L 260.049351 241.133363 
L 260.854545 240.869073 
L 261.65974 241.292735 
L 262.464935 240.001175 
L 263.27013 240.710701 
L 264.075325 240.868111 
L 264.880519 239.546545 
L 265.685714 240.936509 
L 266.490909 241.269297 
L 267.296104 241.275857 
L 268.101299 240.595823 
L 268.906494 240.620226 
L 269.711688 240.948827 
L 270.516883 241.078882 
L 271.322078 240.889301 
L 272.127273 239.902987 
L 272.932468 240.384405 
L 273.737662 240.387257 
L 274.542857 240.730259 
L 275.348052 239.659777 
L 276.153247 240.572815 
L 277.763636 240.930349 
L 279.374026 241.214562 
L 280.179221 240.926531 
L 280.984416 241.272743 
L 281.78961 241.192773 
L 282.594805 240.003566 
L 283.4 240.373924 
L 284.205195 240.330142 
L 285.01039 240.517094 
L 285.815584 241.083903 
L 286.620779 240.913071 
L 287.425974 241.273026 
L 288.231169 241.189616 
L 289.036364 240.451197 
L 289.841558 241.048115 
L 290.646753 240.912049 
L 292.257143 241.953787 
L 293.062338 241.956829 
L 293.867532 241.246714 
L 295.477922 241.346376 
L 296.283117 241.188787 
L 297.088312 241.66782 
L 297.893506 241.73095 
L 299.503896 241.402555 
L 300.309091 240.024398 
L 301.114286 240.278098 
L 301.919481 240.692881 
L 302.724675 240.640145 
L 303.52987 241.336084 
L 304.335065 240.519233 
L 305.14026 240.912593 
L 305.945455 240.879896 
L 306.750649 241.009376 
L 307.555844 241.405239 
L 308.361039 241.276164 
L 309.166234 241.313031 
L 309.971429 241.174436 
L 310.776623 240.884177 
L 311.581818 241.126111 
L 312.387013 241.196255 
L 313.192208 241.055041 
L 313.997403 240.654153 
L 314.802597 240.824717 
L 315.607792 240.742237 
L 316.412987 241.112156 
L 317.218182 240.815794 
L 318.023377 241.126845 
L 318.828571 240.206602 
L 319.633766 240.538517 
L 320.438961 240.374208 
L 321.244156 240.499886 
L 322.049351 241.012483 
L 322.854545 241.167737 
L 323.65974 241.055252 
L 324.464935 241.257617 
L 325.27013 241.618446 
L 326.075325 241.307135 
L 326.880519 241.370793 
L 327.685714 241.313015 
L 328.490909 241.498037 
L 330.101299 241.273735 
L 330.906494 241.424777 
L 331.711688 241.462381 
L 332.516883 240.700618 
L 333.322078 240.743863 
L 334.127273 241.047159 
L 334.932468 241.124823 
L 335.737662 241.002928 
L 336.542857 241.128345 
L 338.153247 240.533522 
L 338.958442 240.906051 
L 339.763636 240.907884 
L 340.568831 241.092525 
L 341.374026 241.424236 
L 342.179221 241.248274 
L 342.984416 240.550488 
L 343.78961 240.213688 
L 345.4 241.274726 
L 347.01039 240.901332 
L 347.815584 240.358826 
L 348.620779 240.568179 
L 349.425974 240.640867 
L 350.231169 239.102428 
L 351.036364 239.880259 
L 351.841558 240.15363 
L 352.646753 240.800583 
L 353.451948 240.900175 
L 354.257143 241.200027 
L 355.062338 241.320588 
L 355.867532 241.667595 
L 358.283117 241.644814 
L 359.088312 241.171945 
L 362.309091 240.242176 
L 363.114286 240.529721 
L 363.919481 239.835128 
L 364.724675 241.012302 
L 365.52987 241.307869 
L 366.335065 240.346701 
L 367.945455 241.38871 
L 368.750649 241.264412 
L 369.555844 241.555322 
L 370.361039 241.188083 
L 371.166234 241.1708 
L 371.971429 241.512707 
L 372.776623 241.495347 
L 373.581818 241.662166 
L 373.581818 241.662166 
" style="fill:none;stroke:#dd8452;stroke-linecap:round;stroke-width:1.5;"/>
   </g>
   <g id="patch_3">
    <path d="M 54 252 
L 54 34.56 
" style="fill:none;stroke:#ffffff;stroke-linecap:square;stroke-linejoin:miter;stroke-width:1.25;"/>
   </g>
   <g id="patch_4">
    <path d="M 388.8 252 
L 388.8 34.56 
" style="fill:none;stroke:#ffffff;stroke-linecap:square;stroke-linejoin:miter;stroke-width:1.25;"/>
   </g>
   <g id="patch_5">
    <path d="M 54 252 
L 388.8 252 
" style="fill:none;stroke:#ffffff;stroke-linecap:square;stroke-linejoin:miter;stroke-width:1.25;"/>
   </g>
   <g id="patch_6">
    <path d="M 54 34.56 
L 388.8 34.56 
" style="fill:none;stroke:#ffffff;stroke-linecap:square;stroke-linejoin:miter;stroke-width:1.25;"/>
   </g>
   <g id="legend_1">
    <g id="patch_7">
     <path d="M 291.742188 75.651875 
L 381.1 75.651875 
Q 383.3 75.651875 383.3 73.451875 
L 383.3 42.26 
Q 383.3 40.06 381.1 40.06 
L 291.742188 40.06 
Q 289.542188 40.06 289.542188 42.26 
L 289.542188 73.451875 
Q 289.542188 75.651875 291.742188 75.651875 
z
" style="fill:#eaeaf2;opacity:0.8;stroke:#cccccc;stroke-linejoin:miter;"/>
    </g>
    <g id="line2d_17">
     <path d="M 293.942187 48.968281 
L 315.942187 48.968281 
" style="fill:none;stroke:#4c72b0;stroke-linecap:round;stroke-width:1.5;"/>
    </g>
    <g id="line2d_18"/>
    <g id="text_17">
     <!-- training -->
     <g style="fill:#262626;" transform="translate(324.742188 52.818281)scale(0.11 -0.11)">
      <defs>
       <path d="M 18.3125 70.21875 
L 18.3125 54.6875 
L 36.8125 54.6875 
L 36.8125 47.703125 
L 18.3125 47.703125 
L 18.3125 18.015625 
Q 18.3125 11.328125 20.140625 9.421875 
Q 21.96875 7.515625 27.59375 7.515625 
L 36.8125 7.515625 
L 36.8125 0 
L 27.59375 0 
Q 17.1875 0 13.234375 3.875 
Q 9.28125 7.765625 9.28125 18.015625 
L 9.28125 47.703125 
L 2.6875 47.703125 
L 2.6875 54.6875 
L 9.28125 54.6875 
L 9.28125 70.21875 
z
" id="DejaVuSans-116"/>
       <path d="M 41.109375 46.296875 
Q 39.59375 47.171875 37.8125 47.578125 
Q 36.03125 48 33.890625 48 
Q 26.265625 48 22.1875 43.046875 
Q 18.109375 38.09375 18.109375 28.8125 
L 18.109375 0 
L 9.078125 0 
L 9.078125 54.6875 
L 18.109375 54.6875 
L 18.109375 46.1875 
Q 20.953125 51.171875 25.484375 53.578125 
Q 30.03125 56 36.53125 56 
Q 37.453125 56 38.578125 55.875 
Q 39.703125 55.765625 41.0625 55.515625 
z
" id="DejaVuSans-114"/>
       <path d="M 34.28125 27.484375 
Q 23.390625 27.484375 19.1875 25 
Q 14.984375 22.515625 14.984375 16.5 
Q 14.984375 11.71875 18.140625 8.90625 
Q 21.296875 6.109375 26.703125 6.109375 
Q 34.1875 6.109375 38.703125 11.40625 
Q 43.21875 16.703125 43.21875 25.484375 
L 43.21875 27.484375 
z
M 52.203125 31.203125 
L 52.203125 0 
L 43.21875 0 
L 43.21875 8.296875 
Q 40.140625 3.328125 35.546875 0.953125 
Q 30.953125 -1.421875 24.3125 -1.421875 
Q 15.921875 -1.421875 10.953125 3.296875 
Q 6 8.015625 6 15.921875 
Q 6 25.140625 12.171875 29.828125 
Q 18.359375 34.515625 30.609375 34.515625 
L 43.21875 34.515625 
L 43.21875 35.40625 
Q 43.21875 41.609375 39.140625 45 
Q 35.0625 48.390625 27.6875 48.390625 
Q 23 48.390625 18.546875 47.265625 
Q 14.109375 46.140625 10.015625 43.890625 
L 10.015625 52.203125 
Q 14.9375 54.109375 19.578125 55.046875 
Q 24.21875 56 28.609375 56 
Q 40.484375 56 46.34375 49.84375 
Q 52.203125 43.703125 52.203125 31.203125 
z
" id="DejaVuSans-97"/>
       <path d="M 9.421875 54.6875 
L 18.40625 54.6875 
L 18.40625 0 
L 9.421875 0 
z
M 9.421875 75.984375 
L 18.40625 75.984375 
L 18.40625 64.59375 
L 9.421875 64.59375 
z
" id="DejaVuSans-105"/>
       <path d="M 54.890625 33.015625 
L 54.890625 0 
L 45.90625 0 
L 45.90625 32.71875 
Q 45.90625 40.484375 42.875 44.328125 
Q 39.84375 48.1875 33.796875 48.1875 
Q 26.515625 48.1875 22.3125 43.546875 
Q 18.109375 38.921875 18.109375 30.90625 
L 18.109375 0 
L 9.078125 0 
L 9.078125 54.6875 
L 18.109375 54.6875 
L 18.109375 46.1875 
Q 21.34375 51.125 25.703125 53.5625 
Q 30.078125 56 35.796875 56 
Q 45.21875 56 50.046875 50.171875 
Q 54.890625 44.34375 54.890625 33.015625 
z
" id="DejaVuSans-110"/>
       <path d="M 45.40625 27.984375 
Q 45.40625 37.75 41.375 43.109375 
Q 37.359375 48.484375 30.078125 48.484375 
Q 22.859375 48.484375 18.828125 43.109375 
Q 14.796875 37.75 14.796875 27.984375 
Q 14.796875 18.265625 18.828125 12.890625 
Q 22.859375 7.515625 30.078125 7.515625 
Q 37.359375 7.515625 41.375 12.890625 
Q 45.40625 18.265625 45.40625 27.984375 
z
M 54.390625 6.78125 
Q 54.390625 -7.171875 48.1875 -13.984375 
Q 42 -20.796875 29.203125 -20.796875 
Q 24.46875 -20.796875 20.265625 -20.09375 
Q 16.0625 -19.390625 12.109375 -17.921875 
L 12.109375 -9.1875 
Q 16.0625 -11.328125 19.921875 -12.34375 
Q 23.78125 -13.375 27.78125 -13.375 
Q 36.625 -13.375 41.015625 -8.765625 
Q 45.40625 -4.15625 45.40625 5.171875 
L 45.40625 9.625 
Q 42.625 4.78125 38.28125 2.390625 
Q 33.9375 0 27.875 0 
Q 17.828125 0 11.671875 7.65625 
Q 5.515625 15.328125 5.515625 27.984375 
Q 5.515625 40.671875 11.671875 48.328125 
Q 17.828125 56 27.875 56 
Q 33.9375 56 38.28125 53.609375 
Q 42.625 51.21875 45.40625 46.390625 
L 45.40625 54.6875 
L 54.390625 54.6875 
z
" id="DejaVuSans-103"/>
      </defs>
      <use xlink:href="#DejaVuSans-116"/>
      <use x="39.208984" xlink:href="#DejaVuSans-114"/>
      <use x="80.322266" xlink:href="#DejaVuSans-97"/>
      <use x="141.601562" xlink:href="#DejaVuSans-105"/>
      <use x="169.384766" xlink:href="#DejaVuSans-110"/>
      <use x="232.763672" xlink:href="#DejaVuSans-105"/>
      <use x="260.546875" xlink:href="#DejaVuSans-110"/>
      <use x="323.925781" xlink:href="#DejaVuSans-103"/>
     </g>
    </g>
    <g id="line2d_19">
     <path d="M 293.942187 65.114219 
L 315.942187 65.114219 
" style="fill:none;stroke:#dd8452;stroke-linecap:round;stroke-width:1.5;"/>
    </g>
    <g id="line2d_20"/>
    <g id="text_18">
     <!-- validation -->
     <g style="fill:#262626;" transform="translate(324.742188 68.964219)scale(0.11 -0.11)">
      <defs>
       <path d="M 2.984375 54.6875 
L 12.5 54.6875 
L 29.59375 8.796875 
L 46.6875 54.6875 
L 56.203125 54.6875 
L 35.6875 0 
L 23.484375 0 
z
" id="DejaVuSans-118"/>
       <path d="M 9.421875 75.984375 
L 18.40625 75.984375 
L 18.40625 0 
L 9.421875 0 
z
" id="DejaVuSans-108"/>
       <path d="M 45.40625 46.390625 
L 45.40625 75.984375 
L 54.390625 75.984375 
L 54.390625 0 
L 45.40625 0 
L 45.40625 8.203125 
Q 42.578125 3.328125 38.25 0.953125 
Q 33.9375 -1.421875 27.875 -1.421875 
Q 17.96875 -1.421875 11.734375 6.484375 
Q 5.515625 14.40625 5.515625 27.296875 
Q 5.515625 40.1875 11.734375 48.09375 
Q 17.96875 56 27.875 56 
Q 33.9375 56 38.25 53.625 
Q 42.578125 51.265625 45.40625 46.390625 
z
M 14.796875 27.296875 
Q 14.796875 17.390625 18.875 11.75 
Q 22.953125 6.109375 30.078125 6.109375 
Q 37.203125 6.109375 41.296875 11.75 
Q 45.40625 17.390625 45.40625 27.296875 
Q 45.40625 37.203125 41.296875 42.84375 
Q 37.203125 48.484375 30.078125 48.484375 
Q 22.953125 48.484375 18.875 42.84375 
Q 14.796875 37.203125 14.796875 27.296875 
z
" id="DejaVuSans-100"/>
      </defs>
      <use xlink:href="#DejaVuSans-118"/>
      <use x="59.179688" xlink:href="#DejaVuSans-97"/>
      <use x="120.458984" xlink:href="#DejaVuSans-108"/>
      <use x="148.242188" xlink:href="#DejaVuSans-105"/>
      <use x="176.025391" xlink:href="#DejaVuSans-100"/>
      <use x="239.501953" xlink:href="#DejaVuSans-97"/>
      <use x="300.78125" xlink:href="#DejaVuSans-116"/>
      <use x="339.990234" xlink:href="#DejaVuSans-105"/>
      <use x="367.773438" xlink:href="#DejaVuSans-111"/>
      <use x="428.955078" xlink:href="#DejaVuSans-110"/>
     </g>
    </g>
   </g>
  </g>
 </g>
 <defs>
  <clipPath id="p6684d8c175">
   <rect height="217.44" width="334.8" x="54" y="34.56"/>
  </clipPath>
 </defs>
</svg>
